<svg width="24" height="22" viewBox="0 0 24 22" fill="none" xmlns="http://www.w3.org/2000/svg">
<path d="M23.9754 13.2191L23.0551 11.6928L22.9331 11.4904L22.0038 9.94882L21.8908 9.76119C21.8208 9.64492 21.6455 9.64492 21.5755 9.76119L20.5332 11.4904L19.4915 13.2191C19.4215 13.3353 19.5089 13.4811 19.6489 13.4811H20.7734C19.1826 16.1614 16.2921 18.0414 12.9225 18.3342V9.66953H17.1552C17.4102 9.66953 17.6407 9.57049 17.8077 9.41054C17.9747 9.2506 18.0781 9.02975 18.0781 8.78553C18.0781 8.29708 17.6651 7.90153 17.1552 7.90153H12.9225V6.05909C12.9977 6.03756 13.0722 6.01357 13.146 5.9865C14.8138 5.37995 15.6519 3.59349 15.0193 1.99651C14.3861 0.398912 12.5211 -0.403885 10.8534 0.202058C9.18622 0.808616 8.34752 2.59507 8.98072 4.19267C9.35191 5.12896 10.1469 5.79273 11.0768 6.05848V7.90153H6.84542C6.33552 7.90153 5.92259 8.29708 5.92259 8.78553C5.92259 9.27397 6.33552 9.66953 6.84542 9.66953H11.0768V18.3342C7.70789 18.0414 4.81737 16.1614 3.22665 13.4811H4.35113C4.49113 13.4811 4.57847 13.3353 4.50847 13.2191L3.46619 11.4904L2.4239 9.76119C2.3539 9.64492 2.17923 9.64492 2.10859 9.76119L1.9962 9.94758L1.06694 11.4904L0.944284 11.6941L0.02466 13.2191C-0.0453393 13.3353 0.0419993 13.4811 0.181998 13.4811H1.65006C3.37756 16.9168 6.91478 19.3603 11.0768 19.6771V21.116C11.0768 21.6044 11.6734 22 11.9997 22C12.3259 22 12.9225 21.6044 12.9225 21.116V19.6771C17.0852 19.3603 20.6218 16.9168 22.3493 13.4811H23.8174C23.958 13.4811 24.0453 13.3353 23.9754 13.2191ZM12.5963 4.59806C12.0723 4.78877 11.5116 4.71187 11.0768 4.43812C10.7911 4.25911 10.5605 3.99458 10.4302 3.66547C10.145 2.94695 10.4327 2.15522 11.0768 1.75106C11.1777 1.68708 11.2868 1.63294 11.4037 1.5905C11.9271 1.39979 12.4878 1.47669 12.9225 1.75044C13.2083 1.92946 13.4395 2.19398 13.5699 2.5231C13.855 3.24223 13.5666 4.03457 12.9225 4.43874C12.8223 4.5021 12.7132 4.55562 12.5963 4.59806Z" fill="#163356"/>
</svg>
