<svg width="20" height="25" viewBox="0 0 20 25" fill="none" xmlns="http://www.w3.org/2000/svg">
<path d="M1.35766 17.9752L1.67614 17.5211L2.22689 18.361C3.29778 20.0102 5.04042 21.3891 7.23088 22.3334C7.87342 22.6092 8.66199 23.0939 9.04862 23.4366L9.72176 24.0494L10.3212 23.4979C10.6508 23.197 11.7286 22.5535 12.7189 22.0758C14.1569 21.3835 14.7383 21.0033 15.6005 20.2066C16.1944 19.655 16.9218 18.8276 17.2222 18.3624L17.7674 17.5225L18.0859 17.9766C18.4836 18.5351 18.6297 18.4112 18.8939 17.2899C19.0956 16.4319 19.1748 14.4708 19.0093 14.4708C18.4836 14.4708 15.9023 16.4083 15.9023 16.7997C15.9023 16.8609 16.1471 16.9584 16.4406 17.0141L16.9788 17.1186L16.6242 17.4C15.5602 18.2329 13.1681 19.1898 11.3754 19.4906L10.8427 19.577L10.7579 18.0811C10.7148 17.2593 10.6355 14.6672 10.5868 12.3258L10.502 8.06648H11.8051C12.7842 8.06648 13.1514 8.1208 13.2863 8.28098C13.3837 8.40355 13.659 8.50104 13.8857 8.50104C14.7605 8.50104 15.2195 7.3798 14.595 6.75441C14.2529 6.41177 13.5422 6.36859 13.2863 6.68059C13.1514 6.84634 12.7842 6.90066 11.8302 6.90066H10.552L10.4477 5.99391C10.3629 5.21531 10.381 5.06906 10.5938 4.93953C11.609 4.33224 12.0124 3.68875 12.0124 2.65943C12.0124 1.74572 11.5715 1.04094 10.7648 0.649548C9.99991 0.276264 9.46724 0.269297 8.69119 0.625867C6.92908 1.42815 7.00836 3.91717 8.83861 4.94092C9.07644 5.07045 9.09591 5.1986 9.00412 5.99531L8.89981 6.90206H7.6203C6.66623 6.90206 6.29907 6.84634 6.16416 6.68198C6.06681 6.55941 5.797 6.46191 5.56474 6.46191C4.68995 6.46191 4.23099 7.59012 4.85545 8.21412C5.19758 8.55676 5.90826 8.59437 6.16416 8.28098C6.29907 8.1208 6.66623 8.06648 7.6509 8.06648H8.95405L8.86782 12.1796C8.81915 14.4416 8.73987 17.0336 8.6898 17.9348L8.60357 19.577L8.07091 19.4906C6.25457 19.1842 3.94727 18.2649 2.82214 17.3944L2.46749 17.1186L3.00572 17.0141C3.30473 16.9584 3.54395 16.8609 3.54395 16.7927C3.54395 16.3999 0.957116 14.4694 0.436967 14.4694C0.271466 14.4694 0.350735 16.4305 0.553787 17.2885C0.816643 18.4098 0.964072 18.5324 1.36044 17.9752M8.41999 2.65247C8.41999 2.18586 8.50483 1.9839 8.82332 1.71508C9.52705 1.10919 10.4686 1.29165 10.8914 2.10786C11.1723 2.6469 11.0694 3.25418 10.623 3.65811C9.71202 4.48546 8.42138 3.89768 8.42138 2.65247" fill="#002D59"/>
</svg>
