<svg width="420" height="108" viewBox="0 0 420 108" fill="none" xmlns="http://www.w3.org/2000/svg">
<g clip-path="url(#clip0_713_156)">
<path d="M-29.959 18.9207V15.2504C-25.7029 15.2504 -21.4468 14.0834 -17.5019 11.7494C-15.0993 10.3307 -12.6966 8.90747 -10.294 7.48877C-2.40421 2.8208 6.73496 2.8208 14.6247 7.48877C17.0274 8.90747 19.43 10.3307 21.8326 11.7494C29.7224 16.4128 38.8616 16.4128 46.7514 11.7494C49.154 10.3307 51.5567 8.90747 53.9593 7.48877C61.8491 2.8208 70.9882 2.8208 78.878 7.48877C81.2807 8.90747 83.6833 10.3307 86.0859 11.7494C93.9757 16.4128 103.115 16.4128 111.005 11.7494C113.407 10.3307 115.81 8.90747 118.213 7.48877C126.102 2.8208 135.242 2.8208 143.127 7.48877C145.529 8.90747 147.932 10.3307 150.335 11.7494C158.224 16.4128 167.364 16.4128 175.253 11.7494C177.656 10.3307 180.059 8.90747 182.461 7.48877C190.351 2.8208 199.49 2.8208 207.38 7.48877C209.783 8.90747 212.185 10.3307 214.588 11.7494C222.478 16.4128 231.617 16.4128 239.507 11.7494C241.909 10.3307 244.312 8.90747 246.715 7.48877C254.604 2.8208 263.744 2.8208 271.633 7.48877C274.036 8.90747 276.439 10.3307 278.841 11.7494C286.731 16.4128 295.87 16.4128 303.76 11.7494C306.163 10.3262 308.565 8.90747 310.968 7.48877C318.858 2.8208 327.997 2.8208 335.887 7.48877C338.289 8.90747 340.692 10.3307 343.095 11.7494C350.984 16.4128 360.123 16.4128 368.013 11.7494C370.416 10.3307 372.819 8.90747 375.221 7.48877C383.111 2.8208 392.246 2.8208 400.14 7.48877C402.543 8.90747 404.945 10.3307 407.348 11.7494C411.293 14.0834 415.549 15.2504 419.805 15.2504V18.9207C415.549 18.9207 411.288 17.7537 407.348 15.4198C404.945 14.0011 402.543 12.5778 400.14 11.1591C392.25 6.49111 383.111 6.49111 375.221 11.1591C372.819 12.5824 370.416 14.0011 368.013 15.4198C360.123 20.0877 350.989 20.0877 343.095 15.4198C340.692 14.0011 338.289 12.5778 335.887 11.1591C327.997 6.49111 318.862 6.49111 310.968 11.1591C308.565 12.5824 306.163 14.0011 303.76 15.4198C295.87 20.0877 286.731 20.0877 278.841 15.4198C276.439 14.0011 274.036 12.5778 271.633 11.1591C263.744 6.49111 254.604 6.49111 246.715 11.1591C244.312 12.5824 241.909 14.0011 239.507 15.4198C231.617 20.0877 222.478 20.0877 214.588 15.4198C212.185 14.0011 209.783 12.5778 207.38 11.1591C199.49 6.49111 190.351 6.49111 182.461 11.1591C180.059 12.5824 177.656 14.0011 175.253 15.4198C167.364 20.0877 158.224 20.0877 150.335 15.4198C147.932 14.0011 145.529 12.5778 143.127 11.1591C135.237 6.49111 126.098 6.49111 118.213 11.1591C115.81 12.5824 113.407 14.0011 111.005 15.4198C103.115 20.0877 93.9803 20.0877 86.0859 15.4198C83.6833 14.0011 81.2807 12.5778 78.878 11.1591C70.9882 6.49111 61.8537 6.49111 53.9593 11.1591C51.5567 12.5824 49.154 14.0011 46.7514 15.4198C38.8616 20.0877 29.7224 20.0877 21.8326 15.4198C19.43 14.0011 17.0274 12.5778 14.6247 11.1591C6.73496 6.49111 -2.40421 6.49111 -10.294 11.1591C-12.6966 12.5824 -15.0993 14.0011 -17.5019 15.4198C-21.4422 17.7537 -25.6983 18.9207 -29.959 18.9207Z" stroke="#002D59" stroke-width="4.08402" stroke-miterlimit="10"/>
<path d="M-29.959 35.5526C-25.7029 35.5526 -21.4468 34.3856 -17.5019 32.0516C-15.0993 30.6329 -12.6966 29.2096 -10.294 27.7909C-2.40421 23.1229 6.73496 23.1229 14.6247 27.7909C17.0274 29.2096 19.43 30.6329 21.8326 32.0516C29.7224 36.7196 38.8616 36.7196 46.7514 32.0516C49.154 30.6329 51.5567 29.2096 53.9593 27.7909C61.8491 23.1229 70.9882 23.1229 78.878 27.7909C81.2807 29.2096 83.6833 30.6329 86.0859 32.0516C93.9757 36.7196 103.115 36.7196 111.005 32.0516C113.407 30.6329 115.81 29.2096 118.213 27.7909C126.102 23.1229 135.242 23.1229 143.127 27.7909C145.529 29.2096 147.932 30.6329 150.335 32.0516C158.224 36.7196 167.364 36.7196 175.253 32.0516C177.656 30.6329 180.059 29.2096 182.461 27.7909C190.351 23.1229 199.49 23.1229 207.38 27.7909C209.783 29.2096 212.185 30.6329 214.588 32.0516C222.478 36.7196 231.617 36.7196 239.507 32.0516C241.909 30.6329 244.312 29.2096 246.715 27.7909C254.604 23.1229 263.744 23.1229 271.633 27.7909C274.036 29.2142 276.439 30.6329 278.841 32.0516C286.731 36.7196 295.87 36.7196 303.76 32.0516C306.163 30.6329 308.565 29.2096 310.968 27.7909C318.858 23.1229 327.997 23.1229 335.887 27.7909C338.289 29.2096 340.692 30.6329 343.095 32.0516C350.984 36.7196 360.123 36.7196 368.013 32.0516C370.416 30.6329 372.819 29.2096 375.221 27.7909C383.111 23.1229 392.246 23.1229 400.14 27.7909C402.543 29.2096 404.945 30.6329 407.348 32.0516C411.293 34.3856 415.549 35.5526 419.805 35.5526V31.8823C415.549 31.8823 411.288 30.7153 407.348 28.3813C404.945 26.9626 402.543 25.5393 400.14 24.1206C392.25 19.4526 383.111 19.4526 375.221 24.1206C372.819 25.5393 370.416 26.9626 368.013 28.3813C360.123 33.0493 350.989 33.0493 343.095 28.3813C340.692 26.9626 338.289 25.5393 335.887 24.1206C327.997 19.4526 318.862 19.4526 310.968 24.1206C308.565 25.5393 306.163 26.9626 303.76 28.3813C295.87 33.0493 286.731 33.0493 278.841 28.3813C276.439 26.9626 274.036 25.5393 271.633 24.1206C263.744 19.4526 254.604 19.4526 246.715 24.1206C244.312 25.5393 241.909 26.9626 239.507 28.3813C231.617 33.0493 222.478 33.0493 214.588 28.3813C212.185 26.9626 209.783 25.5393 207.38 24.1206C199.49 19.4526 190.351 19.4526 182.461 24.1206C180.059 25.5393 177.656 26.9626 175.253 28.3813C167.364 33.0493 158.224 33.0493 150.335 28.3813C147.932 26.9626 145.529 25.5393 143.127 24.1206C135.237 19.4526 126.098 19.4526 118.213 24.1206C115.81 25.5393 113.407 26.9626 111.005 28.3813C103.115 33.0493 93.9803 33.0493 86.0859 28.3813C83.6833 26.9626 81.2807 25.5393 78.878 24.1206C70.9882 19.4526 61.8537 19.4526 53.9593 24.1206C51.5567 25.5393 49.154 26.9626 46.7514 28.3813C38.8616 33.0493 29.7224 33.0493 21.8326 28.3813C19.43 26.9626 17.0274 25.5393 14.6247 24.1206C6.73496 19.4526 -2.40421 19.4526 -10.294 24.1206C-12.6966 25.5393 -15.0993 26.9626 -17.5019 28.3813C-21.4468 30.7153 -25.7029 31.8823 -29.959 31.8823V35.5526Z" stroke="#002D59" stroke-width="4.08402" stroke-miterlimit="10"/>
<path d="M-29.959 52.181V48.5107C-25.7029 48.5107 -21.4468 47.3437 -17.5019 45.0143C-15.0993 43.591 -12.6966 42.1723 -10.294 40.749C-2.40421 36.0856 6.73496 36.0856 14.6247 40.749C17.0274 42.1723 19.43 43.591 21.8326 45.0143C29.7224 49.6822 38.8616 49.6777 46.7514 45.0143C49.154 43.591 51.5567 42.1723 53.9593 40.749C61.8491 36.0856 70.9882 36.0856 78.878 40.749C81.2807 42.1723 83.6833 43.591 86.0859 45.0143C93.9757 49.6822 103.115 49.6777 111.005 45.0143C113.407 43.591 115.81 42.1723 118.213 40.749C126.102 36.0856 135.242 36.0856 143.127 40.749C145.529 42.1723 147.932 43.591 150.335 45.0143C158.224 49.6822 167.364 49.6822 175.253 45.0143C177.656 43.591 180.059 42.1723 182.461 40.749C190.351 36.0856 199.49 36.0856 207.38 40.749C209.783 42.1723 212.185 43.591 214.588 45.0143C222.478 49.6822 231.617 49.6777 239.507 45.0143C241.909 43.591 244.312 42.1723 246.715 40.749C254.604 36.0856 263.744 36.0856 271.633 40.749C274.036 42.1723 276.439 43.591 278.841 45.0143C286.731 49.6822 295.87 49.6777 303.76 45.0143C306.163 43.591 308.565 42.1723 310.968 40.749C318.858 36.0856 327.997 36.0856 335.887 40.749C338.289 42.1723 340.692 43.591 343.095 45.0143C350.984 49.6822 360.123 49.6822 368.013 45.0143C370.416 43.591 372.819 42.1723 375.221 40.749C383.111 36.0856 392.246 36.0856 400.14 40.749C402.543 42.1723 404.945 43.591 407.348 45.0143C411.293 47.3482 415.549 48.5107 419.805 48.5107V52.181C415.549 52.181 411.288 51.014 407.348 48.68C404.945 47.2613 402.543 45.838 400.14 44.4193C392.25 39.7514 383.111 39.7514 375.221 44.4193C372.819 45.8426 370.416 47.2613 368.013 48.68C360.123 53.3434 350.989 53.3434 343.095 48.68C340.692 47.2613 338.289 45.838 335.887 44.4193C327.997 39.7514 318.862 39.7514 310.968 44.4193C308.565 45.8426 306.163 47.2613 303.76 48.68C295.87 53.3434 286.731 53.3434 278.841 48.68C276.439 47.2613 274.036 45.838 271.633 44.4193C263.744 39.7514 254.604 39.7514 246.715 44.4193C244.312 45.8426 241.909 47.2613 239.507 48.68C231.617 53.3434 222.478 53.3434 214.588 48.68C212.185 47.2613 209.783 45.838 207.38 44.4193C199.49 39.7514 190.351 39.7514 182.461 44.4193C180.059 45.8426 177.656 47.2613 175.253 48.68C167.364 53.3434 158.224 53.3434 150.335 48.68C147.932 47.2613 145.529 45.838 143.127 44.4193C135.237 39.7514 126.098 39.7514 118.213 44.4193C115.81 45.8426 113.407 47.2613 111.005 48.68C103.115 53.3434 93.9803 53.3434 86.0859 48.68C83.6833 47.2613 81.2807 45.838 78.878 44.4193C70.9882 39.7514 61.8537 39.7514 53.9593 44.4193C51.5567 45.8426 49.154 47.2613 46.7514 48.68C38.8616 53.3434 29.7224 53.3434 21.8326 48.68C19.43 47.2613 17.0274 45.838 14.6247 44.4193C6.73496 39.7514 -2.40421 39.7514 -10.294 44.4193C-12.6966 45.8426 -15.0993 47.2613 -17.5019 48.68C-21.4422 51.014 -25.6983 52.181 -29.959 52.181Z" stroke="#002D59" stroke-width="4.08402" stroke-miterlimit="10"/>
<path d="M-29.959 68.8094V65.1391C-25.7029 65.1391 -21.4468 63.9721 -17.5019 61.6427C-15.0993 60.2194 -12.6966 58.8007 -10.294 57.3774C-2.40421 52.714 6.73496 52.714 14.6247 57.3774C17.0274 58.8007 19.43 60.2194 21.8326 61.6427C29.7224 66.3107 38.8616 66.3061 46.7514 61.6427C49.154 60.2194 51.5567 58.8007 53.9593 57.3774C61.8491 52.714 70.9882 52.714 78.878 57.3774C81.2807 58.8007 83.6833 60.2194 86.0859 61.6427C93.9757 66.3107 103.115 66.3061 111.005 61.6427C113.407 60.2194 115.81 58.8007 118.213 57.3774C126.102 52.714 135.242 52.714 143.127 57.3774C145.529 58.8007 147.932 60.2194 150.335 61.6427C158.224 66.3107 167.364 66.3107 175.253 61.6427C177.656 60.2194 180.059 58.8007 182.461 57.3774C190.351 52.714 199.49 52.714 207.38 57.3774C209.783 58.8007 212.185 60.2194 214.588 61.6427C222.478 66.3107 231.617 66.3061 239.507 61.6427C241.909 60.2194 244.312 58.8007 246.715 57.3774C254.604 52.714 263.744 52.714 271.633 57.3774C274.036 58.8007 276.439 60.2194 278.841 61.6427C286.731 66.3107 295.87 66.3061 303.76 61.6427C306.163 60.2194 308.565 58.8007 310.968 57.3774C318.858 52.714 327.997 52.714 335.887 57.3774C338.289 58.8007 340.692 60.2194 343.095 61.6427C350.984 66.3107 360.123 66.3107 368.013 61.6427C370.416 60.2194 372.819 58.8007 375.221 57.3774C383.111 52.714 392.246 52.714 400.14 57.3774C402.543 58.8007 404.945 60.2194 407.348 61.6427C411.293 63.9767 415.549 65.1391 419.805 65.1391V68.8094C415.549 68.8094 411.288 67.6424 407.348 65.3084C404.945 63.8897 402.543 62.4664 400.14 61.0477C392.25 56.3798 383.111 56.3798 375.221 61.0477C372.819 62.471 370.416 63.8897 368.013 65.3084C360.123 69.9718 350.989 69.9718 343.095 65.3084C340.692 63.8897 338.289 62.4664 335.887 61.0477C327.997 56.3798 318.862 56.3798 310.968 61.0477C308.565 62.471 306.163 63.8897 303.76 65.3084C295.87 69.9718 286.731 69.9718 278.841 65.3084C276.439 63.8897 274.036 62.4664 271.633 61.0477C263.744 56.3798 254.604 56.3798 246.715 61.0477C244.312 62.471 241.909 63.8897 239.507 65.3084C231.617 69.9718 222.478 69.9718 214.588 65.3084C212.185 63.8897 209.783 62.4664 207.38 61.0477C199.49 56.3798 190.351 56.3798 182.461 61.0477C180.059 62.471 177.656 63.8897 175.253 65.3084C167.364 69.9718 158.224 69.9718 150.335 65.3084C147.932 63.8897 145.529 62.4664 143.127 61.0477C135.237 56.3798 126.098 56.3798 118.213 61.0477C115.81 62.471 113.407 63.8897 111.005 65.3084C103.115 69.9718 93.9803 69.9718 86.0859 65.3084C83.6833 63.8897 81.2807 62.4664 78.878 61.0477C70.9882 56.3798 61.8537 56.3798 53.9593 61.0477C51.5567 62.471 49.154 63.8897 46.7514 65.3084C38.8616 69.9718 29.7224 69.9718 21.8326 65.3084C19.43 63.8897 17.0274 62.4664 14.6247 61.0477C6.73496 56.3798 -2.40421 56.3798 -10.294 61.0477C-12.6966 62.471 -15.0993 63.8897 -17.5019 65.3084C-21.4422 67.6424 -25.6983 68.8094 -29.959 68.8094Z" stroke="#002D59" stroke-width="4.08402" stroke-miterlimit="10"/>
<path d="M-29.959 85.4378V81.7675C-25.7029 81.7675 -21.4468 80.6005 -17.5019 78.2711C-15.0993 76.8478 -12.6966 75.4291 -10.294 74.0058C-2.40421 69.3425 6.73496 69.3425 14.6247 74.0058C17.0274 75.4291 19.43 76.8478 21.8326 78.2711C29.7224 82.9391 38.8616 82.9345 46.7514 78.2711C49.154 76.8478 51.5567 75.4291 53.9593 74.0058C61.8491 69.3425 70.9882 69.3425 78.878 74.0058C81.2807 75.4291 83.6833 76.8478 86.0859 78.2711C93.9757 82.9391 103.115 82.9345 111.005 78.2711C113.407 76.8478 115.81 75.4291 118.213 74.0058C126.102 69.3425 135.242 69.3425 143.127 74.0058C145.529 75.4291 147.932 76.8478 150.335 78.2711C158.224 82.9391 167.364 82.9391 175.253 78.2711C177.656 76.8478 180.059 75.4291 182.461 74.0058C190.351 69.3425 199.49 69.3425 207.38 74.0058C209.783 75.4291 212.185 76.8478 214.588 78.2711C222.478 82.9391 231.617 82.9345 239.507 78.2711C241.909 76.8478 244.312 75.4291 246.715 74.0058C254.604 69.3425 263.744 69.3425 271.633 74.0058C274.036 75.4291 276.439 76.8478 278.841 78.2711C286.731 82.9391 295.87 82.9345 303.76 78.2711C306.163 76.8478 308.565 75.4291 310.968 74.0058C318.858 69.3425 327.997 69.3425 335.887 74.0058C338.289 75.4291 340.692 76.8478 343.095 78.2711C350.984 82.9391 360.123 82.9391 368.013 78.2711C370.416 76.8478 372.819 75.4291 375.221 74.0058C383.111 69.3425 392.246 69.3425 400.14 74.0058C402.543 75.4291 404.945 76.8478 407.348 78.2711C411.293 80.6051 415.549 81.7675 419.805 81.7675V85.4378C415.549 85.4378 411.288 84.2708 407.348 81.9368C404.945 80.5181 402.543 79.0949 400.14 77.6762C392.25 73.0082 383.111 73.0082 375.221 77.6762C372.819 79.0994 370.416 80.5181 368.013 81.9368C360.123 86.6002 350.989 86.6002 343.095 81.9368C340.692 80.5181 338.289 79.0949 335.887 77.6762C327.997 73.0082 318.862 73.0082 310.968 77.6762C308.565 79.0994 306.163 80.5181 303.76 81.9368C295.87 86.6002 286.731 86.6002 278.841 81.9368C276.439 80.5181 274.036 79.0949 271.633 77.6762C263.744 73.0082 254.604 73.0082 246.715 77.6762C244.312 79.0994 241.909 80.5181 239.507 81.9368C231.617 86.6002 222.478 86.6002 214.588 81.9368C212.185 80.5181 209.783 79.0949 207.38 77.6762C199.49 73.0082 190.351 73.0082 182.461 77.6762C180.059 79.0994 177.656 80.5181 175.253 81.9368C167.364 86.6002 158.224 86.6002 150.335 81.9368C147.932 80.5181 145.529 79.0949 143.127 77.6762C135.237 73.0082 126.098 73.0082 118.213 77.6762C115.81 79.0994 113.407 80.5181 111.005 81.9368C103.115 86.6002 93.9803 86.6002 86.0859 81.9368C83.6833 80.5181 81.2807 79.0949 78.878 77.6762C70.9882 73.0082 61.8537 73.0082 53.9593 77.6762C51.5567 79.0994 49.154 80.5181 46.7514 81.9368C38.8616 86.6002 29.7224 86.6002 21.8326 81.9368C19.43 80.5181 17.0274 79.0949 14.6247 77.6762C6.73496 73.0082 -2.40421 73.0082 -10.294 77.6762C-12.6966 79.0994 -15.0993 80.5181 -17.5019 81.9368C-21.4422 84.2708 -25.6983 85.4378 -29.959 85.4378Z" stroke="#002D59" stroke-width="4.08402" stroke-miterlimit="10"/>
<path d="M-29.959 102.066V98.3959C-25.7029 98.3959 -21.4468 97.2289 -17.5019 94.8995C-15.0993 93.4762 -12.6966 92.0575 -10.294 90.6343C-2.40421 85.9709 6.73496 85.9709 14.6247 90.6343C17.0274 92.0575 19.43 93.4762 21.8326 94.8995C29.7224 99.5675 38.8616 99.5629 46.7514 94.8995C49.154 93.4762 51.5567 92.0575 53.9593 90.6343C61.8491 85.9709 70.9882 85.9709 78.878 90.6343C81.2807 92.0575 83.6833 93.4762 86.0859 94.8995C93.9757 99.5675 103.115 99.5629 111.005 94.8995C113.407 93.4762 115.81 92.0575 118.213 90.6343C126.102 85.9709 135.242 85.9709 143.127 90.6343C145.529 92.0575 147.932 93.4762 150.335 94.8995C158.224 99.5675 167.364 99.5675 175.253 94.8995C177.656 93.4762 180.059 92.0575 182.461 90.6343C190.351 85.9709 199.49 85.9709 207.38 90.6343C209.783 92.0575 212.185 93.4762 214.588 94.8995C222.478 99.5675 231.617 99.5629 239.507 94.8995C241.909 93.4762 244.312 92.0575 246.715 90.6343C254.604 85.9709 263.744 85.9709 271.633 90.6343C274.036 92.0575 276.439 93.4762 278.841 94.8995C286.731 99.5675 295.87 99.5629 303.76 94.8995C306.163 93.4762 308.565 92.0575 310.968 90.6343C318.858 85.9709 327.997 85.9709 335.887 90.6343C338.289 92.0575 340.692 93.4762 343.095 94.8995C350.984 99.5675 360.123 99.5675 368.013 94.8995C370.416 93.4762 372.819 92.0575 375.221 90.6343C383.111 85.9709 392.246 85.9709 400.14 90.6343C402.543 92.0575 404.945 93.4762 407.348 94.8995C411.293 97.2335 415.549 98.3959 419.805 98.3959V102.066C415.549 102.066 411.288 100.899 407.348 98.5652C404.945 97.1465 402.543 95.7233 400.14 94.3046C392.25 89.6366 383.111 89.6366 375.221 94.3046C372.819 95.7279 370.416 97.1465 368.013 98.5652C360.123 103.229 350.989 103.229 343.095 98.5652C340.692 97.1465 338.289 95.7233 335.887 94.3046C327.997 89.6366 318.862 89.6366 310.968 94.3046C308.565 95.7279 306.163 97.1465 303.76 98.5652C295.87 103.229 286.731 103.229 278.841 98.5652C276.439 97.1465 274.036 95.7233 271.633 94.3046C263.744 89.6366 254.604 89.6366 246.715 94.3046C244.312 95.7279 241.909 97.1465 239.507 98.5652C231.617 103.229 222.478 103.229 214.588 98.5652C212.185 97.1465 209.783 95.7233 207.38 94.3046C199.49 89.6366 190.351 89.6366 182.461 94.3046C180.059 95.7279 177.656 97.1465 175.253 98.5652C167.364 103.229 158.224 103.229 150.335 98.5652C147.932 97.1465 145.529 95.7233 143.127 94.3046C135.237 89.6366 126.098 89.6366 118.213 94.3046C115.81 95.7279 113.407 97.1465 111.005 98.5652C103.115 103.229 93.9803 103.229 86.0859 98.5652C83.6833 97.1465 81.2807 95.7233 78.878 94.3046C70.9882 89.6366 61.8537 89.6366 53.9593 94.3046C51.5567 95.7279 49.154 97.1465 46.7514 98.5652C38.8616 103.229 29.7224 103.229 21.8326 98.5652C19.43 97.1465 17.0274 95.7233 14.6247 94.3046C6.73496 89.6366 -2.40421 89.6366 -10.294 94.3046C-12.6966 95.7279 -15.0993 97.1465 -17.5019 98.5652C-21.4422 100.899 -25.6983 102.066 -29.959 102.066Z" stroke="#002D59" stroke-width="4.08402" stroke-miterlimit="10"/>
</g>
<defs>
<clipPath id="clip0_713_156">
<rect width="420" height="108" fill="white"/>
</clipPath>
</defs>
</svg>
