<svg width="174" height="107" viewBox="0 0 174 107" fill="none" xmlns="http://www.w3.org/2000/svg">
<path d="M110 45.5L65.5 45L65 45.5V49.5L68 58.5L73 64L80 68.5L90.5 69.5L98 67L104 62.5L107.5 58L110 51.5V45.5Z" fill="white"/>
<path fill-rule="evenodd" clip-rule="evenodd" d="M109.359 40.538H65.7695C65.9674 39.8656 66.1971 39.2049 66.4553 38.5611C69.0627 32.0384 74.6045 27.0063 81.4508 25.0981C83.3959 24.5549 85.4483 24.2648 87.5661 24.2648C89.6839 24.2648 91.7346 24.5549 93.6796 25.0981C100.575 27.0197 106.148 32.1105 108.73 38.7019C108.967 39.3005 109.177 39.9142 109.359 40.538Z" fill="#D9D9D9"/>
<path d="M110.461 41.363H64.666L64.9779 40.3049C65.1808 39.6158 65.4206 38.9249 65.6889 38.2542C68.3985 31.4767 74.2086 26.2602 81.2293 24.3034C83.2817 23.7299 85.4129 23.4398 87.5659 23.4398C89.7189 23.4398 91.8484 23.7299 93.9008 24.3034C100.982 26.2769 106.812 31.5471 109.498 38.4018C109.74 39.0138 109.959 39.656 110.151 40.3066L110.461 41.3647V41.363ZM66.9028 39.713H108.227C108.143 39.4733 108.055 39.2368 107.964 39.0054C105.466 32.6286 100.045 27.729 93.4598 25.893C91.5516 25.3597 89.5697 25.0898 87.5676 25.0898C85.5655 25.0898 83.5818 25.3597 81.6737 25.893C75.1443 27.7123 69.7433 32.5632 67.2231 38.8679C67.1108 39.1463 67.0051 39.4297 66.9045 39.713H66.9028Z" fill="#D9D9D9"/>
<path d="M111.116 45.8316H64.0098L64.0886 44.9211C64.2244 43.3533 64.5178 41.7989 64.9622 40.2999L65.1399 39.6996H109.972L110.157 40.2881C110.183 40.3753 110.209 40.4625 110.234 40.5514C110.636 41.9649 110.904 43.4338 111.035 44.9194L111.116 45.8316ZM65.8576 44.1548H109.266C109.144 43.2125 108.961 42.2818 108.721 41.3764H66.4009C66.1594 42.2869 65.9783 43.2158 65.8576 44.1548Z" fill="#D9D9D9"/>
<path d="M87.5639 70.5541C86.7959 70.5541 86.0196 70.5156 85.2566 70.4418C83.9638 70.316 82.6777 70.0829 81.4352 69.7493C71.1699 66.9926 64 57.6328 64 46.9902C64 46.2877 64.0302 45.5918 64.0905 44.9194L64.1593 44.1548H110.972L111.039 44.9211C111.098 45.6002 111.128 46.296 111.128 46.9902C111.128 57.6328 103.958 66.9926 93.6925 69.7493C92.44 70.0846 91.1539 70.3194 89.8695 70.4435C89.1015 70.5172 88.3285 70.5541 87.5672 70.5541H87.5639ZM65.707 45.8316C65.6868 46.2139 65.6768 46.6012 65.6768 46.9902C65.6768 56.8766 72.3353 65.569 81.8712 68.1295C83.0231 68.4397 84.2187 68.656 85.421 68.7717C86.8345 68.9109 88.2732 68.9109 89.7068 68.7717C90.899 68.656 92.0946 68.4397 93.2566 68.1278C102.791 65.5674 109.451 56.8749 109.451 46.9886C109.451 46.6012 109.441 46.2139 109.421 45.8299H65.707V45.8316Z" fill="#D9D9D9"/>
<path fill-rule="evenodd" clip-rule="evenodd" d="M94 69L90.8627 96.1783L89.7856 105.498C89.5553 107.501 85.4447 107.501 85.2144 105.498L84.1373 96.1783L81 69C82.3107 69.2517 83.6668 69.428 85.0538 69.524C85.86 69.5808 86.6743 69.6092 87.5016 69.6092C88.3289 69.6092 89.1416 69.5798 89.9446 69.5249C91.3332 69.429 92.686 69.2507 94 69Z" fill="#D9D9D9"/>
<path d="M94.515 26.2031L93.4502 25.9064C91.5437 25.3731 89.5634 25.1032 87.563 25.1032C85.5626 25.1032 83.5806 25.3731 81.6741 25.9064L80.6094 26.2031V6.95196C80.6094 3.11882 83.7282 0 87.563 0C89.4192 0 91.1647 0.722695 92.4794 2.0373C93.7923 3.35022 94.515 5.09576 94.515 6.95196V26.2031ZM87.563 1.67679C84.6538 1.67679 82.2862 4.04273 82.2862 6.95196V24.02C85.7303 23.2319 89.3924 23.2302 92.8382 24.02V6.95196C92.8382 5.54346 92.2899 4.2188 91.2922 3.22278C90.2962 2.22677 88.9715 1.67679 87.563 1.67679Z" fill="#D9D9D9"/>
<path d="M87.7318 39.6996H87.3965V41.3764H87.7318V39.6996Z" fill="#D9D9D9"/>
<path d="M87.6565 39.6996H87.4688V41.3764H87.6565V39.6996Z" fill="#D9D9D9"/>
<path d="M87.5698 45.8316H87.5547V44.1548L87.5698 45.8316Z" fill="#D9D9D9"/>
<path d="M87.5698 45.8316H87.5547V44.1548L87.5698 45.8316Z" fill="#D9D9D9"/>
<path d="M1 49.0454L1.06332 49.0938C6.2686 53.168 12.297 53.4404 17.6346 49.8384L18.8097 49.0454L21.1656 50.5013C25.8233 53.3798 30.9709 53.3677 35.6249 50.471L37.9882 49L40.3311 50.462C44.9739 53.3587 50.1084 53.3798 54.7606 50.5255L57.1686 49.0484L59.2898 50.3591C64.0742 53.3163 69.3689 53.2224 74.1104 50.0987L75.7772 49L79.4871 51.1248C83.8338 53.6159 88.5716 53.625 92.9202 51.1521L96.6244 49.0454L98.0827 50.0019C102.947 53.1892 108.383 53.1892 113.248 50.0019L114.706 49.0454L117.062 50.5013C121.72 53.3798 126.867 53.3677 131.521 50.471L133.885 49L136.078 50.3651C140.835 53.3284 146.102 53.2709 150.834 50.2077L152.625 49.0484" stroke="#C7C6C7" stroke-width="1.5" stroke-miterlimit="10"/>
<path d="M21 57.0454L21.0633 57.0938C26.2686 61.168 32.297 61.4404 37.6346 57.8384L38.8097 57.0454L41.1656 58.5013C45.8233 61.3798 50.9709 61.3677 55.6249 58.471L57.9882 57L60.3311 58.462C64.9739 61.3587 70.1084 61.3798 74.7606 58.5255L77.1686 57.0484L79.2898 58.3591C84.0742 61.3163 89.3689 61.2224 94.1104 58.0987L95.7772 57L99.4871 59.1248C103.834 61.6159 108.572 61.625 112.92 59.1521L116.624 57.0454L118.083 58.0019C122.947 61.1892 128.383 61.1892 133.248 58.0019L134.706 57.0454L137.062 58.5013C141.72 61.3798 146.867 61.3677 151.521 58.471L153.885 57L156.078 58.3651C160.835 61.3284 166.102 61.2709 170.834 58.2077L172.625 57.0484" stroke="#C7C6C7" stroke-width="1.5" stroke-miterlimit="10"/>
</svg>
