<svg width="48" height="29" viewBox="0 0 48 29" fill="none" xmlns="http://www.w3.org/2000/svg">
<path d="M47.0126 20.3745C47.0126 22.5445 46.1093 24.5154 44.6544 25.9459C43.1981 27.3765 41.1902 28.2638 38.981 28.2638H8.93784C4.52105 28.2638 0.90625 24.713 0.90625 20.3745C0.90625 18.2045 1.80959 16.2322 3.26593 14.803C4.66436 13.4294 6.57093 12.5563 8.67727 12.4894C8.64397 12.2079 8.6266 11.9235 8.6266 11.6334C8.6266 7.62756 11.9316 4.38111 16.0096 4.38111C18.8572 4.38111 21.3298 5.96523 22.5603 8.28595C22.9729 3.97441 26.6673 0.599976 31.1651 0.599976C35.9395 0.599976 39.8105 4.40244 39.8105 9.09223C39.8105 10.2995 39.5543 11.4471 39.0925 12.4866C43.4601 12.5449 47.0126 16.0715 47.0126 20.3745Z" fill="#D9D9D9"/>
</svg>
