<svg width="1442" height="75" viewBox="0 0 1442 75" fill="none" xmlns="http://www.w3.org/2000/svg">
<g clip-path="url(#clip0_713_1903)">
<mask id="mask0_713_1903" style="mask-type:alpha" maskUnits="userSpaceOnUse" x="-1085" y="17" width="3505" height="41">
<path d="M1114.18 37.2878C1114.18 31.7102 1118.62 27.1865 1124.55 27.1865C1130.47 27.1865 1134.86 31.6546 1134.86 37.2878C1134.86 42.921 1130.42 47.3906 1124.49 47.3906C1118.57 47.3906 1114.18 42.9226 1114.18 37.2878ZM1129.43 37.2878C1129.43 34.4855 1127.43 32.0424 1124.49 32.0424C1121.56 32.0424 1119.64 34.4299 1119.64 37.2878C1119.64 40.1457 1121.64 42.5331 1124.55 42.5331C1127.45 42.5331 1129.43 40.1457 1129.43 37.2878Z" fill="#C7C6C7"/>
<path d="M1136.42 37.2878C1136.42 31.626 1140.73 27.1865 1146.54 27.1865C1150.47 27.1865 1152.91 28.908 1154.61 31.2938L1150.71 34.3472C1149.61 32.9596 1148.33 32.0997 1146.49 32.0997C1143.8 32.0997 1141.91 34.4028 1141.91 37.2894C1141.91 40.1759 1143.8 42.4791 1146.49 42.4791C1148.49 42.4791 1149.67 41.5349 1150.82 40.1203L1154.83 43.0068C1153.02 45.5325 1150.58 47.3922 1146.32 47.3922C1140.84 47.3922 1136.42 43.1467 1136.42 37.2894V37.2878Z" fill="#C7C6C7"/>
<path d="M1161.25 32.2938H1155.49V27.5762H1172.33V32.2938H1166.57V47.003H1161.25V32.2938Z" fill="#C7C6C7"/>
<path d="M1174.11 27.5742H1182.34C1187.2 27.5742 1190.32 30.0999 1190.32 34.4567C1190.32 39.0361 1186.84 41.4505 1182.06 41.4505H1179.43V47.0011H1174.11V27.5742ZM1181.96 37.232C1183.85 37.232 1185 36.2322 1185 34.6507C1185 32.9849 1183.85 32.0979 1181.93 32.0979H1179.43V37.232H1181.96Z" fill="#C7C6C7"/>
<path d="M1191.37 37.2878C1191.37 31.7102 1195.81 27.1865 1201.73 27.1865C1207.66 27.1865 1212.05 31.6546 1212.05 37.2878C1212.05 42.921 1207.6 47.3906 1201.68 47.3906C1195.75 47.3906 1191.37 42.9226 1191.37 37.2878ZM1206.62 37.2878C1206.62 34.4855 1204.61 32.0424 1201.68 32.0424C1198.74 32.0424 1196.82 34.4299 1196.82 37.2878C1196.82 40.1457 1198.83 42.5331 1201.73 42.5331C1204.64 42.5331 1206.62 40.1457 1206.62 37.2878Z" fill="#C7C6C7"/>
<path d="M1214.27 27.5742H1224.12C1226.53 27.5742 1228.23 28.1846 1229.36 29.3227C1230.12 30.0999 1230.59 31.1267 1230.59 32.5144C1230.59 34.7619 1229.33 36.0939 1227.63 36.8442C1229.96 37.6214 1231.44 38.9534 1231.44 41.6461C1231.44 44.9761 1228.75 47.0027 1224.17 47.0027H1214.27V27.5742ZM1222.8 35.3167C1224.42 35.3167 1225.32 34.7619 1225.32 33.5682C1225.32 32.5144 1224.5 31.9024 1222.91 31.9024H1219.45V35.3167H1222.8ZM1223.57 42.6713C1225.19 42.6713 1226.12 42.0323 1226.12 40.8386C1226.12 39.7847 1225.3 39.0901 1223.51 39.0901H1219.45V42.6713H1223.57Z" fill="#C7C6C7"/>
<path d="M1105.54 43.1336C1102.61 43.1336 1100.23 40.6209 1100.23 37.5336C1100.23 34.4463 1102.61 31.9336 1105.54 31.9336C1108.46 31.9336 1110.84 34.4463 1110.84 37.5336C1110.84 40.6209 1108.46 43.1336 1105.54 43.1336ZM1105.54 34.0782C1103.73 34.0782 1102.27 35.6284 1102.27 37.5319C1102.27 39.4355 1103.73 40.9857 1105.54 40.9857C1107.34 40.9857 1108.81 39.4355 1108.81 37.5319C1108.81 35.6284 1107.34 34.0782 1105.54 34.0782Z" fill="#C7C6C7"/>
<path d="M1240.76 43.1336C1237.84 43.1336 1235.46 40.6209 1235.46 37.5336C1235.46 34.4463 1237.84 31.9336 1240.76 31.9336C1243.69 31.9336 1246.07 34.4463 1246.07 37.5336C1246.07 40.6209 1243.69 43.1336 1240.76 43.1336ZM1240.76 34.0782C1238.96 34.0782 1237.49 35.6284 1237.49 37.5319C1237.49 39.4355 1238.96 40.9857 1240.76 40.9857C1242.57 40.9857 1244.03 39.4355 1244.03 37.5319C1244.03 35.6284 1242.57 34.0782 1240.76 34.0782Z" fill="#C7C6C7"/>
<rect x="1091.99" y="18.5" width="163.052" height="38" rx="18" stroke="#C7C6C7" stroke-width="3"/>
<path fill-rule="evenodd" clip-rule="evenodd" d="M302.209 40.425C302.073 37.4857 300.02 34.5594 295.24 34.5542C297.448 37.3524 297.076 40.1951 302.209 40.425Z" fill="#C7C6C7"/>
<path fill-rule="evenodd" clip-rule="evenodd" d="M296.389 40.425C296.252 37.4857 294.199 34.5594 289.42 34.5542C291.628 37.3524 291.256 40.1951 296.389 40.425Z" fill="#C7C6C7"/>
<path fill-rule="evenodd" clip-rule="evenodd" d="M290.569 40.425C290.432 37.4857 288.379 34.5594 283.6 34.5542C285.807 37.3524 285.436 40.1951 290.569 40.425Z" fill="#C7C6C7"/>
<path fill-rule="evenodd" clip-rule="evenodd" d="M284.748 40.425C284.612 37.4857 282.559 34.5594 277.779 34.5542C279.987 37.3524 279.615 40.1951 284.748 40.425Z" fill="#C7C6C7"/>
<path fill-rule="evenodd" clip-rule="evenodd" d="M278.928 40.425C278.791 37.4857 276.738 34.5594 271.959 34.5542C274.167 37.3524 273.795 40.1951 278.928 40.425Z" fill="#C7C6C7"/>
<path fill-rule="evenodd" clip-rule="evenodd" d="M273.108 40.425C272.971 37.4857 270.918 34.5594 266.139 34.5542C268.346 37.3524 267.974 40.1951 273.108 40.425Z" fill="#C7C6C7"/>
<path fill-rule="evenodd" clip-rule="evenodd" d="M267.287 40.425C267.151 37.4857 265.098 34.5594 260.318 34.5542C262.526 37.3524 262.154 40.1951 267.287 40.425Z" fill="#C7C6C7"/>
<path fill-rule="evenodd" clip-rule="evenodd" d="M261.467 40.425C261.33 37.4857 259.278 34.5594 254.498 34.5542C256.706 37.3524 256.334 40.1951 261.467 40.425Z" fill="#C7C6C7"/>
<path fill-rule="evenodd" clip-rule="evenodd" d="M255.649 40.425C255.512 37.4857 253.459 34.5594 248.68 34.5542C250.887 37.3524 250.515 40.1951 255.649 40.425Z" fill="#C7C6C7"/>
<path fill-rule="evenodd" clip-rule="evenodd" d="M249.828 40.425C249.692 37.4857 247.639 34.5594 242.859 34.5542C245.067 37.3524 244.695 40.1951 249.828 40.425Z" fill="#C7C6C7"/>
<path fill-rule="evenodd" clip-rule="evenodd" d="M244.008 40.425C243.871 37.4857 241.819 34.5594 237.039 34.5542C239.247 37.3524 238.875 40.1951 244.008 40.425Z" fill="#C7C6C7"/>
<path fill-rule="evenodd" clip-rule="evenodd" d="M238.188 40.425C238.051 37.4857 235.998 34.5594 231.219 34.5542C233.426 37.3524 233.055 40.1951 238.188 40.425Z" fill="#C7C6C7"/>
<path fill-rule="evenodd" clip-rule="evenodd" d="M232.371 40.425C232.235 37.4857 230.182 34.5594 225.402 34.5542C227.61 37.3524 227.238 40.1951 232.371 40.425Z" fill="#C7C6C7"/>
<path fill-rule="evenodd" clip-rule="evenodd" d="M226.551 40.425C226.414 37.4857 224.361 34.5594 219.582 34.5542C221.79 37.3524 221.418 40.1951 226.551 40.425Z" fill="#C7C6C7"/>
<path fill-rule="evenodd" clip-rule="evenodd" d="M220.731 40.425C220.594 37.4857 218.541 34.5594 213.762 34.5542C215.969 37.3524 215.598 40.1951 220.731 40.425Z" fill="#C7C6C7"/>
<path fill-rule="evenodd" clip-rule="evenodd" d="M214.91 40.425C214.774 37.4857 212.721 34.5594 207.941 34.5542C210.149 37.3524 209.777 40.1951 214.91 40.425Z" fill="#C7C6C7"/>
<path fill-rule="evenodd" clip-rule="evenodd" d="M209.09 40.425C208.953 37.4857 206.901 34.5594 202.121 34.5542C204.329 37.3524 203.957 40.1951 209.09 40.425Z" fill="#C7C6C7"/>
<path fill-rule="evenodd" clip-rule="evenodd" d="M203.27 40.425C203.133 37.4857 201.08 34.5594 196.301 34.5542C198.508 37.3524 198.137 40.1951 203.27 40.425Z" fill="#C7C6C7"/>
<path fill-rule="evenodd" clip-rule="evenodd" d="M197.45 40.425C197.313 37.4857 195.26 34.5594 190.48 34.5542C192.688 37.3524 192.316 40.1951 197.45 40.425Z" fill="#C7C6C7"/>
<path fill-rule="evenodd" clip-rule="evenodd" d="M191.629 40.425C191.492 37.4857 189.44 34.5594 184.66 34.5542C186.868 37.3524 186.496 40.1951 191.629 40.425Z" fill="#C7C6C7"/>
<path fill-rule="evenodd" clip-rule="evenodd" d="M185.809 40.425C185.672 37.4857 183.619 34.5594 178.84 34.5542C181.048 37.3524 180.676 40.1951 185.809 40.425Z" fill="#C7C6C7"/>
<path fill-rule="evenodd" clip-rule="evenodd" d="M179.991 40.425C179.854 37.4857 177.801 34.5594 173.021 34.5542C175.229 37.3524 174.857 40.1951 179.991 40.425Z" fill="#C7C6C7"/>
<path fill-rule="evenodd" clip-rule="evenodd" d="M174.172 40.425C174.035 37.4857 171.983 34.5594 167.203 34.5542C169.411 37.3524 169.039 40.1951 174.172 40.425Z" fill="#C7C6C7"/>
<path fill-rule="evenodd" clip-rule="evenodd" d="M168.35 40.425C168.213 37.4857 166.16 34.5594 161.381 34.5542C163.589 37.3524 163.217 40.1951 168.35 40.425Z" fill="#C7C6C7"/>
<path fill-rule="evenodd" clip-rule="evenodd" d="M162.532 40.425C162.395 37.4857 160.342 34.5594 155.562 34.5542C157.77 37.3524 157.398 40.1951 162.532 40.425Z" fill="#C7C6C7"/>
<path fill-rule="evenodd" clip-rule="evenodd" d="M156.709 40.425C156.572 37.4857 154.52 34.5594 149.74 34.5542C151.948 37.3524 151.576 40.1951 156.709 40.425Z" fill="#C7C6C7"/>
<path fill-rule="evenodd" clip-rule="evenodd" d="M150.891 40.425C150.754 37.4857 148.701 34.5594 143.922 34.5542C146.13 37.3524 145.758 40.1951 150.891 40.425Z" fill="#C7C6C7"/>
<path fill-rule="evenodd" clip-rule="evenodd" d="M145.069 40.425C144.932 37.4857 142.879 34.5594 138.1 34.5542C140.307 37.3524 139.935 40.1951 145.069 40.425Z" fill="#C7C6C7"/>
<path fill-rule="evenodd" clip-rule="evenodd" d="M139.25 40.425C139.113 37.4857 137.061 34.5594 132.281 34.5542C134.489 37.3524 134.117 40.1951 139.25 40.425Z" fill="#C7C6C7"/>
<path fill-rule="evenodd" clip-rule="evenodd" d="M133.43 40.425C133.293 37.4857 131.24 34.5594 126.461 34.5542C128.669 37.3524 128.297 40.1951 133.43 40.425Z" fill="#C7C6C7"/>
<path fill-rule="evenodd" clip-rule="evenodd" d="M127.612 40.425C127.475 37.4857 125.422 34.5594 120.643 34.5542C122.85 37.3524 122.479 40.1951 127.612 40.425Z" fill="#C7C6C7"/>
<path fill-rule="evenodd" clip-rule="evenodd" d="M121.789 40.425C121.653 37.4857 119.6 34.5594 114.82 34.5542C117.028 37.3524 116.656 40.1951 121.789 40.425Z" fill="#C7C6C7"/>
<path fill-rule="evenodd" clip-rule="evenodd" d="M115.971 40.425C115.834 37.4857 113.781 34.5594 109.002 34.5542C111.21 37.3524 110.838 40.1951 115.971 40.425Z" fill="#C7C6C7"/>
<path fill-rule="evenodd" clip-rule="evenodd" d="M110.149 40.425C110.012 37.4857 107.959 34.5594 103.18 34.5542C105.387 37.3524 105.016 40.1951 110.149 40.425Z" fill="#C7C6C7"/>
<path fill-rule="evenodd" clip-rule="evenodd" d="M104.33 40.425C104.194 37.4857 102.141 34.5594 97.3613 34.5542C99.569 37.3524 99.1973 40.1951 104.33 40.425Z" fill="#C7C6C7"/>
<path fill-rule="evenodd" clip-rule="evenodd" d="M98.5082 40.425C98.3713 37.4857 96.3185 34.5594 91.5391 34.5542C93.7468 37.3524 93.375 40.1951 98.5082 40.425Z" fill="#C7C6C7"/>
<path fill-rule="evenodd" clip-rule="evenodd" d="M92.6897 40.425C92.5529 37.4857 90.5002 34.5594 85.7207 34.5542C87.9284 37.3524 87.5565 40.1951 92.6897 40.425Z" fill="#C7C6C7"/>
<path fill-rule="evenodd" clip-rule="evenodd" d="M86.8715 40.425C86.7346 37.4857 84.6818 34.5594 79.9023 34.5542C82.11 37.3524 81.7383 40.1951 86.8715 40.425Z" fill="#C7C6C7"/>
<path fill-rule="evenodd" clip-rule="evenodd" d="M81.0531 40.425C80.9163 37.4857 78.8634 34.5594 74.084 34.5542C76.2917 37.3524 75.9199 40.1951 81.0531 40.425Z" fill="#C7C6C7"/>
<path fill-rule="evenodd" clip-rule="evenodd" d="M75.2309 40.425C75.094 37.4857 73.0412 34.5594 68.2617 34.5542C70.4694 37.3524 70.0976 40.1951 75.2309 40.425Z" fill="#C7C6C7"/>
<path fill-rule="evenodd" clip-rule="evenodd" d="M69.4125 40.425C69.2756 37.4857 67.2228 34.5594 62.4434 34.5542C64.6511 37.3524 64.2793 40.1951 69.4125 40.425Z" fill="#C7C6C7"/>
<path fill-rule="evenodd" clip-rule="evenodd" d="M63.5902 40.425C63.4534 37.4857 61.4006 34.5594 56.6211 34.5542C58.8288 37.3524 58.457 40.1951 63.5902 40.425Z" fill="#C7C6C7"/>
<path fill-rule="evenodd" clip-rule="evenodd" d="M57.7719 40.425C57.635 37.4857 55.5822 34.5594 50.8027 34.5542C53.0104 37.3524 52.6387 40.1951 57.7719 40.425Z" fill="#C7C6C7"/>
<path fill-rule="evenodd" clip-rule="evenodd" d="M51.9514 40.425C51.8146 37.4857 49.7619 34.5594 44.9824 34.5542C47.1901 37.3524 46.8182 40.1951 51.9514 40.425Z" fill="#C7C6C7"/>
<path fill-rule="evenodd" clip-rule="evenodd" d="M46.1331 40.425C45.9962 37.4857 43.9435 34.5594 39.1641 34.5542C41.3718 37.3524 40.9999 40.1951 46.1331 40.425Z" fill="#C7C6C7"/>
<path fill-rule="evenodd" clip-rule="evenodd" d="M40.3108 40.425C40.174 37.4857 38.1213 34.5594 33.3418 34.5542C35.5495 37.3524 35.1776 40.1951 40.3108 40.425Z" fill="#C7C6C7"/>
<path fill-rule="evenodd" clip-rule="evenodd" d="M34.4924 40.425C34.3556 37.4857 32.3029 34.5594 27.5234 34.5542C29.7311 37.3524 29.3592 40.1951 34.4924 40.425Z" fill="#C7C6C7"/>
<path fill-rule="evenodd" clip-rule="evenodd" d="M28.6702 40.425C28.5333 37.4857 26.4806 34.5594 21.7012 34.5542C23.9089 37.3524 23.537 40.1951 28.6702 40.425Z" fill="#C7C6C7"/>
<path fill-rule="evenodd" clip-rule="evenodd" d="M22.8518 40.425C22.715 37.4857 20.6623 34.5594 15.8828 34.5542C18.0905 37.3524 17.7186 40.1951 22.8518 40.425Z" fill="#C7C6C7"/>
<path fill-rule="evenodd" clip-rule="evenodd" d="M17.0297 40.425C16.8928 37.4857 14.84 34.5594 10.0605 34.5542C12.2682 37.3524 11.8965 40.1951 17.0297 40.425Z" fill="#C7C6C7"/>
<path fill-rule="evenodd" clip-rule="evenodd" d="M11.2113 40.425C11.0745 37.4857 9.02165 34.5594 4.24219 34.5542C6.44988 37.3524 6.07812 40.1951 11.2113 40.425Z" fill="#C7C6C7"/>
<path fill-rule="evenodd" clip-rule="evenodd" d="M5.39101 40.425C5.25416 37.4857 3.20134 34.5594 -1.57812 34.5542C0.629567 37.3524 0.257806 40.1951 5.39101 40.425Z" fill="#C7C6C7"/>
<path fill-rule="evenodd" clip-rule="evenodd" d="M1074.75 40.2342C1069.62 40.4562 1069.75 37.5901 1067.31 34.9956C1072.07 34.5828 1074.36 37.3157 1074.75 40.2342Z" fill="#C7C6C7"/>
<path fill-rule="evenodd" clip-rule="evenodd" d="M1068.26 40.2342C1063.13 40.4562 1063.26 37.5901 1060.82 34.9956C1065.58 34.5828 1067.87 37.3157 1068.26 40.2342Z" fill="#C7C6C7"/>
<path fill-rule="evenodd" clip-rule="evenodd" d="M1061.65 40.2369C1056.52 40.4537 1056.65 37.5902 1054.21 34.9931C1058.97 34.5829 1061.27 37.321 1061.65 40.2369Z" fill="#C7C6C7"/>
<path fill-rule="evenodd" clip-rule="evenodd" d="M1055.33 40.4279C1050.19 40.3599 1050.47 37.5068 1048.18 34.7791C1052.96 34.6354 1055.1 37.4938 1055.33 40.4279Z" fill="#C7C6C7"/>
<path fill-rule="evenodd" clip-rule="evenodd" d="M1049.29 39.7195C1044.15 39.7404 1044.39 36.882 1042.05 34.1935C1046.82 33.9662 1049.01 36.7906 1049.29 39.7195Z" fill="#C7C6C7"/>
<path fill-rule="evenodd" clip-rule="evenodd" d="M1041.89 39.529C1036.82 38.7033 1037.51 35.9234 1035.64 32.8848C1040.38 33.4465 1042.09 36.5922 1041.89 39.529Z" fill="#C7C6C7"/>
<path fill-rule="evenodd" clip-rule="evenodd" d="M1034.94 37.7835C1030.24 35.6803 1031.61 33.1694 1030.56 29.752C1035.01 31.5156 1035.87 34.9957 1034.94 37.7835Z" fill="#C7C6C7"/>
<path fill-rule="evenodd" clip-rule="evenodd" d="M1029.46 33.6139C1024.87 31.2912 1026.35 28.8483 1025.46 25.3838C1029.82 27.3538 1030.52 30.8732 1029.46 33.6139Z" fill="#C7C6C7"/>
<path fill-rule="evenodd" clip-rule="evenodd" d="M1024.77 27.403C1019.72 26.4834 1020.46 23.7165 1018.64 20.6465C1023.37 21.2944 1025.02 24.4715 1024.77 27.403Z" fill="#C7C6C7"/>
<path fill-rule="evenodd" clip-rule="evenodd" d="M1018.79 24.1528C1013.69 24.8086 1013.58 21.9451 1010.94 19.5675C1015.64 18.7497 1018.16 21.2788 1018.79 24.1528Z" fill="#C7C6C7"/>
<path fill-rule="evenodd" clip-rule="evenodd" d="M1012.55 22.8833C1008.29 25.7913 1006.92 23.2857 1003.5 22.3686C1007.34 19.492 1010.71 20.605 1012.55 22.8833Z" fill="#C7C6C7"/>
<path fill-rule="evenodd" clip-rule="evenodd" d="M1007.68 24.6857C1005.83 29.5349 1003.29 28.273 999.963 29.4984C1001.49 24.9182 1004.88 23.881 1007.68 24.6857Z" fill="#C7C6C7"/>
<path fill-rule="evenodd" clip-rule="evenodd" d="M1004.02 29.2686C1005.66 34.1936 1002.91 34.8677 1001.13 37.9612C999.407 33.4516 1001.36 30.4574 1004.02 29.2686Z" fill="#C7C6C7"/>
<path fill-rule="evenodd" clip-rule="evenodd" d="M1003.57 36.6001C1007.58 39.8451 1005.63 41.9196 1005.78 45.4965C1001.92 42.6434 1001.97 39.0561 1003.57 36.6001Z" fill="#C7C6C7"/>
<path fill-rule="evenodd" clip-rule="evenodd" d="M1007.46 42.189C1012.17 44.2635 1010.82 46.7822 1011.88 50.197C1007.43 48.4596 1006.55 44.982 1007.46 42.189Z" fill="#C7C6C7"/>
<path fill-rule="evenodd" clip-rule="evenodd" d="M1013.47 44.7334C1018.36 46.3376 1017.25 48.9765 1018.64 52.2685C1014.04 50.9752 1012.83 47.6022 1013.47 44.7334Z" fill="#C7C6C7"/>
<path fill-rule="evenodd" clip-rule="evenodd" d="M1020.31 46.9727C1025.43 47.2836 1025.02 50.1184 1027.18 52.9506C1022.41 52.8696 1020.4 49.912 1020.31 46.9727Z" fill="#C7C6C7"/>
<path fill-rule="evenodd" clip-rule="evenodd" d="M1027.73 47.8296C1032.78 46.9204 1033.03 49.7761 1035.79 52.0178C1031.13 53.0681 1028.5 50.667 1027.73 47.8296Z" fill="#C7C6C7"/>
<path fill-rule="evenodd" clip-rule="evenodd" d="M1034.9 48.446C1038.87 45.1487 1040.47 47.5159 1043.96 48.1064C1040.41 51.3305 1036.95 50.5414 1034.9 48.446Z" fill="#C7C6C7"/>
<path fill-rule="evenodd" clip-rule="evenodd" d="M1042.52 45.8832C1044.59 41.128 1047.07 42.5076 1050.45 41.439C1048.72 45.9433 1045.28 46.8186 1042.52 45.8832Z" fill="#C7C6C7"/>
<path fill-rule="evenodd" clip-rule="evenodd" d="M1049.9 27.1838C1045.48 24.5371 1047.13 22.2065 1046.49 18.6846C1050.7 20.9655 1051.15 24.5241 1049.9 27.1838Z" fill="#C7C6C7"/>
<path fill-rule="evenodd" clip-rule="evenodd" d="M1050.74 33.6135C1048.5 28.9341 1051.16 27.9177 1052.54 24.623C1054.8 28.8818 1053.23 32.0981 1050.74 33.6135Z" fill="#C7C6C7"/>
<path fill-rule="evenodd" clip-rule="evenodd" d="M1045.33 23.8159C1040.23 23.2359 1040.79 20.4245 1038.77 17.48C1043.54 17.8118 1045.39 20.8739 1045.33 23.8159Z" fill="#C7C6C7"/>
<path fill-rule="evenodd" clip-rule="evenodd" d="M1040.3 23.8969C1035.41 25.4723 1034.79 22.6741 1031.76 20.8164C1036.25 19.1547 1039.17 21.1848 1040.3 23.8969Z" fill="#C7C6C7"/>
<path fill-rule="evenodd" clip-rule="evenodd" d="M1035.2 27.2701C1030.12 28.0592 1029.94 25.1982 1027.23 22.8912C1031.92 21.9506 1034.49 24.4144 1035.2 27.2701Z" fill="#C7C6C7"/>
<path fill-rule="evenodd" clip-rule="evenodd" d="M1025.49 32.3019C1020.42 33.138 1020.21 30.2797 1017.48 27.9988C1022.15 27.0138 1024.76 29.4541 1025.49 32.3019Z" fill="#C7C6C7"/>
<path fill-rule="evenodd" clip-rule="evenodd" d="M1022.21 35.4921C1017.15 36.3596 1016.92 33.5012 1014.18 31.236C1018.85 30.2249 1021.47 32.6469 1022.21 35.4921Z" fill="#C7C6C7"/>
<path fill-rule="evenodd" clip-rule="evenodd" d="M1017.28 38.7193C1012.14 38.6775 1012.41 35.8244 1010.1 33.1098C1014.88 32.9399 1017.03 35.7878 1017.28 38.7193Z" fill="#C7C6C7"/>
<path fill-rule="evenodd" clip-rule="evenodd" d="M1010.77 41.0755C1005.89 39.4687 1007 36.8298 1005.61 33.5352C1010.21 34.8311 1011.42 38.2041 1010.77 41.0755Z" fill="#C7C6C7"/>
<path fill-rule="evenodd" clip-rule="evenodd" d="M999.906 41.2064C994.897 40.0541 995.764 37.3238 994.086 34.1729C998.785 35.0403 1000.29 38.2879 999.906 41.2064Z" fill="#C7C6C7"/>
<path fill-rule="evenodd" clip-rule="evenodd" d="M994.904 40.3912C989.77 40.211 990.116 37.3657 987.883 34.5883C992.66 34.5465 994.741 37.4545 994.904 40.3912Z" fill="#C7C6C7"/>
<path fill-rule="evenodd" clip-rule="evenodd" d="M674.684 40.425C674.547 37.4857 672.494 34.5594 667.715 34.5542C669.923 37.3524 669.551 40.1951 674.684 40.425Z" fill="#C7C6C7"/>
<path fill-rule="evenodd" clip-rule="evenodd" d="M668.868 40.425C668.731 37.4857 666.678 34.5594 661.898 34.5542C664.106 37.3524 663.734 40.1951 668.868 40.425Z" fill="#C7C6C7"/>
<path fill-rule="evenodd" clip-rule="evenodd" d="M663.045 40.425C662.908 37.4857 660.856 34.5594 656.076 34.5542C658.284 37.3524 657.912 40.1951 663.045 40.425Z" fill="#C7C6C7"/>
<path fill-rule="evenodd" clip-rule="evenodd" d="M657.227 40.425C657.09 37.4857 655.037 34.5594 650.258 34.5542C652.466 37.3524 652.094 40.1951 657.227 40.425Z" fill="#C7C6C7"/>
<path fill-rule="evenodd" clip-rule="evenodd" d="M651.405 40.425C651.268 37.4857 649.215 34.5594 644.436 34.5542C646.643 37.3524 646.271 40.1951 651.405 40.425Z" fill="#C7C6C7"/>
<path fill-rule="evenodd" clip-rule="evenodd" d="M645.588 40.425C645.451 37.4857 643.399 34.5594 638.619 34.5542C640.827 37.3524 640.455 40.1951 645.588 40.425Z" fill="#C7C6C7"/>
<path fill-rule="evenodd" clip-rule="evenodd" d="M639.766 40.425C639.629 37.4857 637.576 34.5594 632.797 34.5542C635.005 37.3524 634.633 40.1951 639.766 40.425Z" fill="#C7C6C7"/>
<path fill-rule="evenodd" clip-rule="evenodd" d="M633.948 40.425C633.811 37.4857 631.758 34.5594 626.979 34.5542C629.186 37.3524 628.814 40.1951 633.948 40.425Z" fill="#C7C6C7"/>
<path fill-rule="evenodd" clip-rule="evenodd" d="M628.125 40.425C627.988 37.4857 625.936 34.5594 621.156 34.5542C623.364 37.3524 622.992 40.1951 628.125 40.425Z" fill="#C7C6C7"/>
<path fill-rule="evenodd" clip-rule="evenodd" d="M622.307 40.425C622.17 37.4857 620.117 34.5594 615.338 34.5542C617.546 37.3524 617.174 40.1951 622.307 40.425Z" fill="#C7C6C7"/>
<path fill-rule="evenodd" clip-rule="evenodd" d="M616.485 40.425C616.348 37.4857 614.295 34.5594 609.516 34.5542C611.723 37.3524 611.351 40.1951 616.485 40.425Z" fill="#C7C6C7"/>
<path fill-rule="evenodd" clip-rule="evenodd" d="M610.666 40.425C610.529 37.4857 608.477 34.5594 603.697 34.5542C605.905 37.3524 605.533 40.1951 610.666 40.425Z" fill="#C7C6C7"/>
<path fill-rule="evenodd" clip-rule="evenodd" d="M604.844 40.425C604.707 37.4857 602.654 34.5594 597.875 34.5542C600.083 37.3524 599.711 40.1951 604.844 40.425Z" fill="#C7C6C7"/>
<path fill-rule="evenodd" clip-rule="evenodd" d="M599.028 40.425C598.891 37.4857 596.838 34.5594 592.059 34.5542C594.266 37.3524 593.895 40.1951 599.028 40.425Z" fill="#C7C6C7"/>
<path fill-rule="evenodd" clip-rule="evenodd" d="M593.205 40.425C593.069 37.4857 591.016 34.5594 586.236 34.5542C588.444 37.3524 588.072 40.1951 593.205 40.425Z" fill="#C7C6C7"/>
<path fill-rule="evenodd" clip-rule="evenodd" d="M587.387 40.425C587.25 37.4857 585.197 34.5594 580.418 34.5542C582.626 37.3524 582.254 40.1951 587.387 40.425Z" fill="#C7C6C7"/>
<path fill-rule="evenodd" clip-rule="evenodd" d="M581.565 40.425C581.428 37.4857 579.375 34.5594 574.596 34.5542C576.803 37.3524 576.432 40.1951 581.565 40.425Z" fill="#C7C6C7"/>
<path fill-rule="evenodd" clip-rule="evenodd" d="M575.746 40.425C575.61 37.4857 573.557 34.5594 568.777 34.5542C570.985 37.3524 570.613 40.1951 575.746 40.425Z" fill="#C7C6C7"/>
<path fill-rule="evenodd" clip-rule="evenodd" d="M569.924 40.425C569.787 37.4857 567.735 34.5594 562.955 34.5542C565.163 37.3524 564.791 40.1951 569.924 40.425Z" fill="#C7C6C7"/>
<path fill-rule="evenodd" clip-rule="evenodd" d="M564.106 40.425C563.969 37.4857 561.916 34.5594 557.137 34.5542C559.344 37.3524 558.973 40.1951 564.106 40.425Z" fill="#C7C6C7"/>
<path fill-rule="evenodd" clip-rule="evenodd" d="M558.285 40.425C558.149 37.4857 556.096 34.5594 551.316 34.5542C553.524 37.3524 553.152 40.1951 558.285 40.425Z" fill="#C7C6C7"/>
<path fill-rule="evenodd" clip-rule="evenodd" d="M552.467 40.425C552.33 37.4857 550.278 34.5594 545.498 34.5542C547.706 37.3524 547.334 40.1951 552.467 40.425Z" fill="#C7C6C7"/>
<path fill-rule="evenodd" clip-rule="evenodd" d="M546.645 40.425C546.508 37.4857 544.455 34.5594 539.676 34.5542C541.883 37.3524 541.512 40.1951 546.645 40.425Z" fill="#C7C6C7"/>
<path fill-rule="evenodd" clip-rule="evenodd" d="M540.826 40.425C540.69 37.4857 538.637 34.5594 533.857 34.5542C536.065 37.3524 535.693 40.1951 540.826 40.425Z" fill="#C7C6C7"/>
<path fill-rule="evenodd" clip-rule="evenodd" d="M535.004 40.425C534.867 37.4857 532.815 34.5594 528.035 34.5542C530.243 37.3524 529.871 40.1951 535.004 40.425Z" fill="#C7C6C7"/>
<path fill-rule="evenodd" clip-rule="evenodd" d="M529.186 40.425C529.049 37.4857 526.996 34.5594 522.217 34.5542C524.424 37.3524 524.053 40.1951 529.186 40.425Z" fill="#C7C6C7"/>
<path fill-rule="evenodd" clip-rule="evenodd" d="M523.367 40.425C523.231 37.4857 521.178 34.5594 516.398 34.5542C518.606 37.3524 518.234 40.1951 523.367 40.425Z" fill="#C7C6C7"/>
<path fill-rule="evenodd" clip-rule="evenodd" d="M517.549 40.425C517.412 37.4857 515.36 34.5594 510.58 34.5542C512.788 37.3524 512.416 40.1951 517.549 40.425Z" fill="#C7C6C7"/>
<path fill-rule="evenodd" clip-rule="evenodd" d="M511.727 40.425C511.59 37.4857 509.537 34.5594 504.758 34.5542C506.966 37.3524 506.594 40.1951 511.727 40.425Z" fill="#C7C6C7"/>
<path fill-rule="evenodd" clip-rule="evenodd" d="M505.908 40.425C505.772 37.4857 503.719 34.5594 498.939 34.5542C501.147 37.3524 500.775 40.1951 505.908 40.425Z" fill="#C7C6C7"/>
<path fill-rule="evenodd" clip-rule="evenodd" d="M500.086 40.425C499.949 37.4857 497.897 34.5594 493.117 34.5542C495.325 37.3524 494.953 40.1951 500.086 40.425Z" fill="#C7C6C7"/>
<path fill-rule="evenodd" clip-rule="evenodd" d="M494.268 40.425C494.131 37.4857 492.078 34.5594 487.299 34.5542C489.507 37.3524 489.135 40.1951 494.268 40.425Z" fill="#C7C6C7"/>
<path fill-rule="evenodd" clip-rule="evenodd" d="M488.446 40.425C488.309 37.4857 486.256 34.5594 481.477 34.5542C483.684 37.3524 483.312 40.1951 488.446 40.425Z" fill="#C7C6C7"/>
<path fill-rule="evenodd" clip-rule="evenodd" d="M482.627 40.425C482.49 37.4857 480.438 34.5594 475.658 34.5542C477.866 37.3524 477.494 40.1951 482.627 40.425Z" fill="#C7C6C7"/>
<path fill-rule="evenodd" clip-rule="evenodd" d="M476.807 40.425C476.67 37.4857 474.617 34.5594 469.838 34.5542C472.046 37.3524 471.674 40.1951 476.807 40.425Z" fill="#C7C6C7"/>
<path fill-rule="evenodd" clip-rule="evenodd" d="M470.989 40.425C470.852 37.4857 468.799 34.5594 464.02 34.5542C466.227 37.3524 465.855 40.1951 470.989 40.425Z" fill="#C7C6C7"/>
<path fill-rule="evenodd" clip-rule="evenodd" d="M465.166 40.425C465.03 37.4857 462.977 34.5594 458.197 34.5542C460.405 37.3524 460.033 40.1951 465.166 40.425Z" fill="#C7C6C7"/>
<path fill-rule="evenodd" clip-rule="evenodd" d="M459.348 40.425C459.211 37.4857 457.158 34.5594 452.379 34.5542C454.587 37.3524 454.215 40.1951 459.348 40.425Z" fill="#C7C6C7"/>
<path fill-rule="evenodd" clip-rule="evenodd" d="M453.526 40.425C453.389 37.4857 451.336 34.5594 446.557 34.5542C448.764 37.3524 448.392 40.1951 453.526 40.425Z" fill="#C7C6C7"/>
<path fill-rule="evenodd" clip-rule="evenodd" d="M447.707 40.425C447.57 37.4857 445.518 34.5594 440.738 34.5542C442.946 37.3524 442.574 40.1951 447.707 40.425Z" fill="#C7C6C7"/>
<path fill-rule="evenodd" clip-rule="evenodd" d="M441.885 40.425C441.748 37.4857 439.695 34.5594 434.916 34.5542C437.124 37.3524 436.752 40.1951 441.885 40.425Z" fill="#C7C6C7"/>
<path fill-rule="evenodd" clip-rule="evenodd" d="M436.067 40.425C435.93 37.4857 433.877 34.5594 429.098 34.5542C431.305 37.3524 430.933 40.1951 436.067 40.425Z" fill="#C7C6C7"/>
<path fill-rule="evenodd" clip-rule="evenodd" d="M430.246 40.425C430.11 37.4857 428.057 34.5594 423.277 34.5542C425.485 37.3524 425.113 40.1951 430.246 40.425Z" fill="#C7C6C7"/>
<path fill-rule="evenodd" clip-rule="evenodd" d="M424.428 40.425C424.291 37.4857 422.238 34.5594 417.459 34.5542C419.667 37.3524 419.295 40.1951 424.428 40.425Z" fill="#C7C6C7"/>
<path fill-rule="evenodd" clip-rule="evenodd" d="M418.606 40.425C418.469 37.4857 416.416 34.5594 411.637 34.5542C413.844 37.3524 413.473 40.1951 418.606 40.425Z" fill="#C7C6C7"/>
<path fill-rule="evenodd" clip-rule="evenodd" d="M412.787 40.425C412.651 37.4857 410.598 34.5594 405.818 34.5542C408.026 37.3524 407.654 40.1951 412.787 40.425Z" fill="#C7C6C7"/>
<path fill-rule="evenodd" clip-rule="evenodd" d="M406.965 40.425C406.828 37.4857 404.776 34.5594 399.996 34.5542C402.204 37.3524 401.832 40.1951 406.965 40.425Z" fill="#C7C6C7"/>
<path fill-rule="evenodd" clip-rule="evenodd" d="M401.147 40.425C401.01 37.4857 398.957 34.5594 394.178 34.5542C396.385 37.3524 396.014 40.1951 401.147 40.425Z" fill="#C7C6C7"/>
<path fill-rule="evenodd" clip-rule="evenodd" d="M395.325 40.425C395.188 37.4857 393.135 34.5594 388.355 34.5542C390.563 37.3524 390.191 40.1951 395.325 40.425Z" fill="#C7C6C7"/>
<path fill-rule="evenodd" clip-rule="evenodd" d="M389.506 40.425C389.369 37.4857 387.317 34.5594 382.537 34.5542C384.745 37.3524 384.373 40.1951 389.506 40.425Z" fill="#C7C6C7"/>
<path fill-rule="evenodd" clip-rule="evenodd" d="M383.686 40.425C383.549 37.4857 381.496 34.5594 376.717 34.5542C378.924 37.3524 378.553 40.1951 383.686 40.425Z" fill="#C7C6C7"/>
<path fill-rule="evenodd" clip-rule="evenodd" d="M377.87 40.425C377.733 37.4857 375.68 34.5594 370.9 34.5542C373.108 37.3524 372.736 40.1951 377.87 40.425Z" fill="#C7C6C7"/>
<path fill-rule="evenodd" clip-rule="evenodd" d="M372.047 40.425C371.91 37.4857 369.858 34.5594 365.078 34.5542C367.286 37.3524 366.914 40.1951 372.047 40.425Z" fill="#C7C6C7"/>
<path fill-rule="evenodd" clip-rule="evenodd" d="M366.229 40.425C366.092 37.4857 364.039 34.5594 359.26 34.5542C361.467 37.3524 361.096 40.1951 366.229 40.425Z" fill="#C7C6C7"/>
<path fill-rule="evenodd" clip-rule="evenodd" d="M988.961 40.425C988.824 37.4857 986.772 34.5594 981.992 34.5542C984.2 37.3524 983.828 40.1951 988.961 40.425Z" fill="#C7C6C7"/>
<path fill-rule="evenodd" clip-rule="evenodd" d="M983.141 40.425C983.004 37.4857 980.951 34.5594 976.172 34.5542C978.38 37.3524 978.008 40.1951 983.141 40.425Z" fill="#C7C6C7"/>
<path fill-rule="evenodd" clip-rule="evenodd" d="M977.321 40.425C977.184 37.4857 975.131 34.5594 970.352 34.5542C972.559 37.3524 972.187 40.1951 977.321 40.425Z" fill="#C7C6C7"/>
<path fill-rule="evenodd" clip-rule="evenodd" d="M971.5 40.425C971.363 37.4857 969.311 34.5594 964.531 34.5542C966.739 37.3524 966.367 40.1951 971.5 40.425Z" fill="#C7C6C7"/>
<path fill-rule="evenodd" clip-rule="evenodd" d="M965.682 40.425C965.545 37.4857 963.492 34.5594 958.713 34.5542C960.921 37.3524 960.549 40.1951 965.682 40.425Z" fill="#C7C6C7"/>
<path fill-rule="evenodd" clip-rule="evenodd" d="M959.86 40.425C959.723 37.4857 957.67 34.5594 952.891 34.5542C955.098 37.3524 954.726 40.1951 959.86 40.425Z" fill="#C7C6C7"/>
<path fill-rule="evenodd" clip-rule="evenodd" d="M954.043 40.425C953.907 37.4857 951.854 34.5594 947.074 34.5542C949.282 37.3524 948.91 40.1951 954.043 40.425Z" fill="#C7C6C7"/>
<path fill-rule="evenodd" clip-rule="evenodd" d="M948.221 40.425C948.084 37.4857 946.031 34.5594 941.252 34.5542C943.46 37.3524 943.088 40.1951 948.221 40.425Z" fill="#C7C6C7"/>
<path fill-rule="evenodd" clip-rule="evenodd" d="M942.405 40.425C942.268 37.4857 940.215 34.5594 935.436 34.5542C937.643 37.3524 937.271 40.1951 942.405 40.425Z" fill="#C7C6C7"/>
<path fill-rule="evenodd" clip-rule="evenodd" d="M936.582 40.425C936.445 37.4857 934.393 34.5594 929.613 34.5542C931.821 37.3524 931.449 40.1951 936.582 40.425Z" fill="#C7C6C7"/>
<path fill-rule="evenodd" clip-rule="evenodd" d="M930.764 40.425C930.627 37.4857 928.574 34.5594 923.795 34.5542C926.003 37.3524 925.631 40.1951 930.764 40.425Z" fill="#C7C6C7"/>
<path fill-rule="evenodd" clip-rule="evenodd" d="M924.942 40.425C924.805 37.4857 922.752 34.5594 917.973 34.5542C920.18 37.3524 919.808 40.1951 924.942 40.425Z" fill="#C7C6C7"/>
<path fill-rule="evenodd" clip-rule="evenodd" d="M919.123 40.425C918.986 37.4857 916.934 34.5594 912.154 34.5542C914.362 37.3524 913.99 40.1951 919.123 40.425Z" fill="#C7C6C7"/>
<path fill-rule="evenodd" clip-rule="evenodd" d="M913.301 40.425C913.164 37.4857 911.111 34.5594 906.332 34.5542C908.54 37.3524 908.168 40.1951 913.301 40.425Z" fill="#C7C6C7"/>
<path fill-rule="evenodd" clip-rule="evenodd" d="M907.483 40.425C907.346 37.4857 905.293 34.5594 900.514 34.5542C902.721 37.3524 902.349 40.1951 907.483 40.425Z" fill="#C7C6C7"/>
<path fill-rule="evenodd" clip-rule="evenodd" d="M901.661 40.425C901.524 37.4857 899.471 34.5594 894.691 34.5542C896.899 37.3524 896.527 40.1951 901.661 40.425Z" fill="#C7C6C7"/>
<path fill-rule="evenodd" clip-rule="evenodd" d="M895.844 40.425C895.707 37.4857 893.654 34.5594 888.875 34.5542C891.083 37.3524 890.711 40.1951 895.844 40.425Z" fill="#C7C6C7"/>
<path fill-rule="evenodd" clip-rule="evenodd" d="M890.024 40.425C889.887 37.4857 887.834 34.5594 883.055 34.5542C885.262 37.3524 884.891 40.1951 890.024 40.425Z" fill="#C7C6C7"/>
<path fill-rule="evenodd" clip-rule="evenodd" d="M884.204 40.425C884.067 37.4857 882.014 34.5594 877.234 34.5542C879.442 37.3524 879.07 40.1951 884.204 40.425Z" fill="#C7C6C7"/>
<path fill-rule="evenodd" clip-rule="evenodd" d="M878.383 40.425C878.246 37.4857 876.194 34.5594 871.414 34.5542C873.622 37.3524 873.25 40.1951 878.383 40.425Z" fill="#C7C6C7"/>
<path fill-rule="evenodd" clip-rule="evenodd" d="M872.563 40.425C872.426 37.4857 870.373 34.5594 865.594 34.5542C867.801 37.3524 867.43 40.1951 872.563 40.425Z" fill="#C7C6C7"/>
<path fill-rule="evenodd" clip-rule="evenodd" d="M866.743 40.425C866.606 37.4857 864.553 34.5594 859.773 34.5542C861.981 37.3524 861.609 40.1951 866.743 40.425Z" fill="#C7C6C7"/>
<path fill-rule="evenodd" clip-rule="evenodd" d="M860.922 40.425C860.785 37.4857 858.733 34.5594 853.953 34.5542C856.161 37.3524 855.789 40.1951 860.922 40.425Z" fill="#C7C6C7"/>
<path fill-rule="evenodd" clip-rule="evenodd" d="M855.102 40.425C854.965 37.4857 852.912 34.5594 848.133 34.5542C850.341 37.3524 849.969 40.1951 855.102 40.425Z" fill="#C7C6C7"/>
<path fill-rule="evenodd" clip-rule="evenodd" d="M849.283 40.425C849.147 37.4857 847.094 34.5594 842.314 34.5542C844.522 37.3524 844.15 40.1951 849.283 40.425Z" fill="#C7C6C7"/>
<path fill-rule="evenodd" clip-rule="evenodd" d="M843.461 40.425C843.324 37.4857 841.272 34.5594 836.492 34.5542C838.7 37.3524 838.328 40.1951 843.461 40.425Z" fill="#C7C6C7"/>
<path fill-rule="evenodd" clip-rule="evenodd" d="M837.643 40.425C837.506 37.4857 835.453 34.5594 830.674 34.5542C832.882 37.3524 832.51 40.1951 837.643 40.425Z" fill="#C7C6C7"/>
<path fill-rule="evenodd" clip-rule="evenodd" d="M831.823 40.425C831.686 37.4857 829.633 34.5594 824.854 34.5542C827.061 37.3524 826.689 40.1951 831.823 40.425Z" fill="#C7C6C7"/>
<path fill-rule="evenodd" clip-rule="evenodd" d="M826.002 40.425C825.865 37.4857 823.813 34.5594 819.033 34.5542C821.241 37.3524 820.869 40.1951 826.002 40.425Z" fill="#C7C6C7"/>
<path fill-rule="evenodd" clip-rule="evenodd" d="M820.182 40.425C820.045 37.4857 817.992 34.5594 813.213 34.5542C815.421 37.3524 815.049 40.1951 820.182 40.425Z" fill="#C7C6C7"/>
<path fill-rule="evenodd" clip-rule="evenodd" d="M814.365 40.425C814.229 37.4857 812.176 34.5594 807.396 34.5542C809.604 37.3524 809.232 40.1951 814.365 40.425Z" fill="#C7C6C7"/>
<path fill-rule="evenodd" clip-rule="evenodd" d="M808.545 40.425C808.408 37.4857 806.356 34.5594 801.576 34.5542C803.784 37.3524 803.412 40.1951 808.545 40.425Z" fill="#C7C6C7"/>
<path fill-rule="evenodd" clip-rule="evenodd" d="M802.725 40.425C802.588 37.4857 800.535 34.5594 795.756 34.5542C797.964 37.3524 797.592 40.1951 802.725 40.425Z" fill="#C7C6C7"/>
<path fill-rule="evenodd" clip-rule="evenodd" d="M796.905 40.425C796.768 37.4857 794.715 34.5594 789.936 34.5542C792.143 37.3524 791.771 40.1951 796.905 40.425Z" fill="#C7C6C7"/>
<path fill-rule="evenodd" clip-rule="evenodd" d="M791.084 40.425C790.948 37.4857 788.895 34.5594 784.115 34.5542C786.323 37.3524 785.951 40.1951 791.084 40.425Z" fill="#C7C6C7"/>
<path fill-rule="evenodd" clip-rule="evenodd" d="M785.264 40.425C785.127 37.4857 783.074 34.5594 778.295 34.5542C780.503 37.3524 780.131 40.1951 785.264 40.425Z" fill="#C7C6C7"/>
<path fill-rule="evenodd" clip-rule="evenodd" d="M779.444 40.425C779.307 37.4857 777.254 34.5594 772.475 34.5542C774.682 37.3524 774.311 40.1951 779.444 40.425Z" fill="#C7C6C7"/>
<path fill-rule="evenodd" clip-rule="evenodd" d="M773.625 40.425C773.489 37.4857 771.436 34.5594 766.656 34.5542C768.864 37.3524 768.492 40.1951 773.625 40.425Z" fill="#C7C6C7"/>
<path fill-rule="evenodd" clip-rule="evenodd" d="M767.805 40.425C767.668 37.4857 765.615 34.5594 760.836 34.5542C763.044 37.3524 762.672 40.1951 767.805 40.425Z" fill="#C7C6C7"/>
<path fill-rule="evenodd" clip-rule="evenodd" d="M761.985 40.425C761.848 37.4857 759.795 34.5594 755.016 34.5542C757.223 37.3524 756.852 40.1951 761.985 40.425Z" fill="#C7C6C7"/>
<path fill-rule="evenodd" clip-rule="evenodd" d="M756.164 40.425C756.028 37.4857 753.975 34.5594 749.195 34.5542C751.403 37.3524 751.031 40.1951 756.164 40.425Z" fill="#C7C6C7"/>
<path fill-rule="evenodd" clip-rule="evenodd" d="M750.344 40.425C750.207 37.4857 748.154 34.5594 743.375 34.5542C745.583 37.3524 745.211 40.1951 750.344 40.425Z" fill="#C7C6C7"/>
<path fill-rule="evenodd" clip-rule="evenodd" d="M744.524 40.425C744.387 37.4857 742.334 34.5594 737.555 34.5542C739.762 37.3524 739.39 40.1951 744.524 40.425Z" fill="#C7C6C7"/>
<path fill-rule="evenodd" clip-rule="evenodd" d="M738.703 40.425C738.567 37.4857 736.514 34.5594 731.734 34.5542C733.942 37.3524 733.57 40.1951 738.703 40.425Z" fill="#C7C6C7"/>
<path fill-rule="evenodd" clip-rule="evenodd" d="M732.883 40.425C732.746 37.4857 730.694 34.5594 725.914 34.5542C728.122 37.3524 727.75 40.1951 732.883 40.425Z" fill="#C7C6C7"/>
<path fill-rule="evenodd" clip-rule="evenodd" d="M727.065 40.425C726.928 37.4857 724.875 34.5594 720.096 34.5542C722.303 37.3524 721.932 40.1951 727.065 40.425Z" fill="#C7C6C7"/>
<path fill-rule="evenodd" clip-rule="evenodd" d="M721.244 40.425C721.108 37.4857 719.055 34.5594 714.275 34.5542C716.483 37.3524 716.111 40.1951 721.244 40.425Z" fill="#C7C6C7"/>
<path fill-rule="evenodd" clip-rule="evenodd" d="M715.424 40.425C715.287 37.4857 713.235 34.5594 708.455 34.5542C710.663 37.3524 710.291 40.1951 715.424 40.425Z" fill="#C7C6C7"/>
<path fill-rule="evenodd" clip-rule="evenodd" d="M709.604 40.425C709.467 37.4857 707.414 34.5594 702.635 34.5542C704.842 37.3524 704.471 40.1951 709.604 40.425Z" fill="#C7C6C7"/>
<path fill-rule="evenodd" clip-rule="evenodd" d="M703.784 40.425C703.647 37.4857 701.594 34.5594 696.814 34.5542C699.022 37.3524 698.65 40.1951 703.784 40.425Z" fill="#C7C6C7"/>
<path fill-rule="evenodd" clip-rule="evenodd" d="M697.963 40.425C697.826 37.4857 695.774 34.5594 690.994 34.5542C693.202 37.3524 692.83 40.1951 697.963 40.425Z" fill="#C7C6C7"/>
<path fill-rule="evenodd" clip-rule="evenodd" d="M692.145 40.425C692.008 37.4857 689.955 34.5594 685.176 34.5542C687.383 37.3524 687.012 40.1951 692.145 40.425Z" fill="#C7C6C7"/>
<path fill-rule="evenodd" clip-rule="evenodd" d="M686.323 40.425C686.186 37.4857 684.133 34.5594 679.354 34.5542C681.561 37.3524 681.189 40.1951 686.323 40.425Z" fill="#C7C6C7"/>
<path fill-rule="evenodd" clip-rule="evenodd" d="M680.506 40.425C680.369 37.4857 678.317 34.5594 673.537 34.5542C675.745 37.3524 675.373 40.1951 680.506 40.425Z" fill="#C7C6C7"/>
<path fill-rule="evenodd" clip-rule="evenodd" d="M360.407 40.425C360.27 37.4857 358.217 34.5594 353.438 34.5542C355.645 37.3524 355.273 40.1951 360.407 40.425Z" fill="#C7C6C7"/>
<path fill-rule="evenodd" clip-rule="evenodd" d="M354.588 40.425C354.451 37.4857 352.399 34.5594 347.619 34.5542C349.827 37.3524 349.455 40.1951 354.588 40.425Z" fill="#C7C6C7"/>
<path fill-rule="evenodd" clip-rule="evenodd" d="M348.768 40.425C348.631 37.4857 346.578 34.5594 341.799 34.5542C344.007 37.3524 343.635 40.1951 348.768 40.425Z" fill="#C7C6C7"/>
<path fill-rule="evenodd" clip-rule="evenodd" d="M342.949 40.425C342.813 37.4857 340.76 34.5594 335.98 34.5542C338.188 37.3524 337.816 40.1951 342.949 40.425Z" fill="#C7C6C7"/>
<path fill-rule="evenodd" clip-rule="evenodd" d="M337.129 40.425C336.992 37.4857 334.94 34.5594 330.16 34.5542C332.368 37.3524 331.996 40.1951 337.129 40.425Z" fill="#C7C6C7"/>
<path fill-rule="evenodd" clip-rule="evenodd" d="M331.309 40.425C331.172 37.4857 329.119 34.5594 324.34 34.5542C326.548 37.3524 326.176 40.1951 331.309 40.425Z" fill="#C7C6C7"/>
<path fill-rule="evenodd" clip-rule="evenodd" d="M325.487 40.425C325.35 37.4857 323.297 34.5594 318.518 34.5542C320.725 37.3524 320.353 40.1951 325.487 40.425Z" fill="#C7C6C7"/>
<path fill-rule="evenodd" clip-rule="evenodd" d="M319.668 40.425C319.531 37.4857 317.479 34.5594 312.699 34.5542C314.907 37.3524 314.535 40.1951 319.668 40.425Z" fill="#C7C6C7"/>
<path fill-rule="evenodd" clip-rule="evenodd" d="M313.848 40.425C313.711 37.4857 311.658 34.5594 306.879 34.5542C309.087 37.3524 308.715 40.1951 313.848 40.425Z" fill="#C7C6C7"/>
<path fill-rule="evenodd" clip-rule="evenodd" d="M308.028 40.425C307.891 37.4857 305.838 34.5594 301.059 34.5542C303.266 37.3524 302.895 40.1951 308.028 40.425Z" fill="#C7C6C7"/>
<path fill-rule="evenodd" clip-rule="evenodd" d="M1109.71 40.5373C1109.57 37.598 1107.52 34.6717 1102.74 34.6665C1104.95 37.4648 1104.58 40.3074 1109.71 40.5373Z" fill="#C7C6C7"/>
<path fill-rule="evenodd" clip-rule="evenodd" d="M1103.89 40.5373C1103.76 37.598 1101.7 34.6717 1096.92 34.6665C1099.13 37.4648 1098.76 40.3074 1103.89 40.5373Z" fill="#C7C6C7"/>
<path fill-rule="evenodd" clip-rule="evenodd" d="M1098.07 40.5373C1097.93 37.598 1095.88 34.6717 1091.1 34.6665C1093.31 37.4648 1092.94 40.3074 1098.07 40.5373Z" fill="#C7C6C7"/>
<path fill-rule="evenodd" clip-rule="evenodd" d="M1092.25 40.5373C1092.12 37.598 1090.06 34.6717 1085.29 34.6665C1087.49 37.4648 1087.12 40.3074 1092.25 40.5373Z" fill="#C7C6C7"/>
<path fill-rule="evenodd" clip-rule="evenodd" d="M1086.43 40.5373C1086.3 37.598 1084.24 34.6717 1079.46 34.6665C1081.67 37.4648 1081.3 40.3074 1086.43 40.5373Z" fill="#C7C6C7"/>
<path fill-rule="evenodd" clip-rule="evenodd" d="M1080.61 40.5373C1080.48 37.598 1078.42 34.6717 1073.64 34.6665C1075.85 37.4648 1075.48 40.3074 1080.61 40.5373Z" fill="#C7C6C7"/>
<path fill-rule="evenodd" clip-rule="evenodd" d="M1273.6 39.7571C1278.73 39.9792 1278.61 37.113 1281.05 34.5186C1276.29 34.1057 1273.99 36.8387 1273.6 39.7571Z" fill="#C7C6C7"/>
<path fill-rule="evenodd" clip-rule="evenodd" d="M1280.09 39.7571C1285.22 39.9792 1285.1 37.113 1287.54 34.5186C1282.78 34.1057 1280.48 36.8387 1280.09 39.7571Z" fill="#C7C6C7"/>
<path fill-rule="evenodd" clip-rule="evenodd" d="M1286.7 39.7593C1291.83 39.9762 1291.7 37.1126 1294.14 34.5156C1289.38 34.1054 1287.09 36.8435 1286.7 39.7593Z" fill="#C7C6C7"/>
<path fill-rule="evenodd" clip-rule="evenodd" d="M1293.03 39.9503C1298.16 39.8824 1297.88 37.0293 1300.17 34.3016C1295.4 34.1579 1293.25 37.0162 1293.03 39.9503Z" fill="#C7C6C7"/>
<path fill-rule="evenodd" clip-rule="evenodd" d="M1299.07 39.2424C1304.21 39.2633 1303.97 36.405 1306.31 33.7165C1301.54 33.4892 1299.35 36.3135 1299.07 39.2424Z" fill="#C7C6C7"/>
<path fill-rule="evenodd" clip-rule="evenodd" d="M1306.47 39.0514C1311.54 38.2258 1310.85 35.4458 1312.72 32.4072C1307.98 32.969 1306.27 36.1147 1306.47 39.0514Z" fill="#C7C6C7"/>
<path fill-rule="evenodd" clip-rule="evenodd" d="M1313.42 37.306C1318.12 35.2027 1316.75 32.6919 1317.8 29.2744C1313.35 31.038 1312.49 34.5182 1313.42 37.306Z" fill="#C7C6C7"/>
<path fill-rule="evenodd" clip-rule="evenodd" d="M1318.89 33.1364C1323.49 30.8137 1322 28.3707 1322.9 24.9062C1318.54 26.8763 1317.84 30.3956 1318.89 33.1364Z" fill="#C7C6C7"/>
<path fill-rule="evenodd" clip-rule="evenodd" d="M1323.58 26.9255C1328.64 26.0058 1327.89 23.2389 1329.71 20.1689C1324.98 20.8169 1323.33 23.994 1323.58 26.9255Z" fill="#C7C6C7"/>
<path fill-rule="evenodd" clip-rule="evenodd" d="M1329.57 23.6728C1334.66 24.3286 1334.77 21.4651 1337.42 19.0875C1332.71 18.2697 1330.2 20.7988 1329.57 23.6728Z" fill="#C7C6C7"/>
<path fill-rule="evenodd" clip-rule="evenodd" d="M1335.81 22.4058C1340.06 25.3138 1341.44 22.8082 1344.86 21.8911C1341.02 19.0145 1337.65 20.1275 1335.81 22.4058Z" fill="#C7C6C7"/>
<path fill-rule="evenodd" clip-rule="evenodd" d="M1340.68 24.2086C1342.53 29.0579 1345.07 27.7959 1348.4 29.0213C1346.87 24.4412 1343.47 23.4039 1340.68 24.2086Z" fill="#C7C6C7"/>
<path fill-rule="evenodd" clip-rule="evenodd" d="M1344.33 28.791C1342.69 33.716 1345.45 34.3901 1347.23 37.4836C1348.95 32.974 1346.99 29.9798 1344.33 28.791Z" fill="#C7C6C7"/>
<path fill-rule="evenodd" clip-rule="evenodd" d="M1344.79 36.1201C1340.78 39.3651 1342.73 41.4397 1342.58 45.0165C1346.43 42.1634 1346.39 38.5761 1344.79 36.1201Z" fill="#C7C6C7"/>
<path fill-rule="evenodd" clip-rule="evenodd" d="M1340.89 41.7114C1336.19 43.7859 1337.54 46.3046 1336.47 49.7195C1340.93 47.982 1341.81 44.5044 1340.89 41.7114Z" fill="#C7C6C7"/>
<path fill-rule="evenodd" clip-rule="evenodd" d="M1334.88 44.2563C1330 45.8606 1331.1 48.4994 1329.71 51.7915C1334.32 50.4982 1335.53 47.1251 1334.88 44.2563Z" fill="#C7C6C7"/>
<path fill-rule="evenodd" clip-rule="evenodd" d="M1328.05 46.4951C1322.92 46.806 1323.33 49.6409 1321.17 52.4731C1325.95 52.3921 1327.95 49.4345 1328.05 46.4951Z" fill="#C7C6C7"/>
<path fill-rule="evenodd" clip-rule="evenodd" d="M1320.63 47.3521C1315.57 46.4428 1315.32 49.2985 1312.56 51.5403C1317.22 52.5906 1319.86 50.1895 1320.63 47.3521Z" fill="#C7C6C7"/>
<path fill-rule="evenodd" clip-rule="evenodd" d="M1313.45 47.9665C1309.48 44.6692 1307.88 47.0364 1304.39 47.6269C1307.95 50.851 1311.41 50.0619 1313.45 47.9665Z" fill="#C7C6C7"/>
<path fill-rule="evenodd" clip-rule="evenodd" d="M1305.83 45.4057C1303.76 40.6505 1301.28 42.03 1297.9 40.9614C1299.64 45.4658 1303.07 46.3411 1305.83 45.4057Z" fill="#C7C6C7"/>
<path fill-rule="evenodd" clip-rule="evenodd" d="M1298.45 26.7063C1302.87 24.0596 1301.22 21.729 1301.87 18.207C1297.66 20.488 1297.21 24.0465 1298.45 26.7063Z" fill="#C7C6C7"/>
<path fill-rule="evenodd" clip-rule="evenodd" d="M1297.62 33.1364C1299.85 28.457 1297.2 27.4407 1295.81 24.146C1293.55 28.4048 1295.13 31.6211 1297.62 33.1364Z" fill="#C7C6C7"/>
<path fill-rule="evenodd" clip-rule="evenodd" d="M1303.03 23.3359C1308.13 22.7559 1307.57 19.9446 1309.59 17C1304.82 17.3318 1302.97 20.394 1303.03 23.3359Z" fill="#C7C6C7"/>
<path fill-rule="evenodd" clip-rule="evenodd" d="M1308.05 23.4169C1312.95 24.9924 1313.57 22.1941 1316.59 20.3364C1312.11 18.6747 1309.18 20.7048 1308.05 23.4169Z" fill="#C7C6C7"/>
<path fill-rule="evenodd" clip-rule="evenodd" d="M1313.16 26.7926C1318.23 27.5816 1318.42 24.7207 1321.12 22.4136C1316.44 21.4731 1313.86 23.9369 1313.16 26.7926Z" fill="#C7C6C7"/>
<path fill-rule="evenodd" clip-rule="evenodd" d="M1322.87 31.822C1327.94 32.658 1328.15 29.7997 1330.88 27.5188C1326.2 26.5338 1323.6 28.9741 1322.87 31.822Z" fill="#C7C6C7"/>
<path fill-rule="evenodd" clip-rule="evenodd" d="M1326.14 35.0146C1331.21 35.882 1331.44 33.0237 1334.18 30.7584C1329.51 29.7473 1326.89 32.1693 1326.14 35.0146Z" fill="#C7C6C7"/>
<path fill-rule="evenodd" clip-rule="evenodd" d="M1331.08 38.2418C1336.22 38.2 1335.95 35.3469 1338.25 32.6322C1333.48 32.4624 1331.32 35.3103 1331.08 38.2418Z" fill="#C7C6C7"/>
<path fill-rule="evenodd" clip-rule="evenodd" d="M1337.59 40.5985C1342.47 38.9916 1341.36 36.3528 1342.75 33.0581C1338.15 34.354 1336.94 37.7271 1337.59 40.5985Z" fill="#C7C6C7"/>
<path fill-rule="evenodd" clip-rule="evenodd" d="M1348.45 40.7264C1353.46 39.5742 1352.59 36.8438 1354.27 33.6929C1349.57 34.5603 1348.07 37.8079 1348.45 40.7264Z" fill="#C7C6C7"/>
<path fill-rule="evenodd" clip-rule="evenodd" d="M1353.45 39.9137C1358.58 39.7334 1358.24 36.8881 1360.47 34.1108C1355.7 34.069 1353.61 36.977 1353.45 39.9137Z" fill="#C7C6C7"/>
<path fill-rule="evenodd" clip-rule="evenodd" d="M1359.39 39.948C1364.52 39.7207 1364.15 36.8754 1366.36 34.0771C1361.58 34.0824 1359.53 37.0086 1359.39 39.948Z" fill="#C7C6C7"/>
<path fill-rule="evenodd" clip-rule="evenodd" d="M1365.21 39.948C1370.35 39.7207 1369.98 36.8754 1372.18 34.0771C1367.4 34.0824 1365.35 37.0086 1365.21 39.948Z" fill="#C7C6C7"/>
<path fill-rule="evenodd" clip-rule="evenodd" d="M1371.03 39.948C1376.16 39.7207 1375.79 36.8754 1378 34.0771C1373.22 34.0824 1371.17 37.0086 1371.03 39.948Z" fill="#C7C6C7"/>
<path fill-rule="evenodd" clip-rule="evenodd" d="M1376.86 39.948C1381.99 39.7207 1381.62 36.8754 1383.82 34.0771C1379.04 34.0824 1376.99 37.0086 1376.86 39.948Z" fill="#C7C6C7"/>
<path fill-rule="evenodd" clip-rule="evenodd" d="M1382.67 39.948C1387.8 39.7207 1387.43 36.8754 1389.64 34.0771C1384.86 34.0824 1382.81 37.0086 1382.67 39.948Z" fill="#C7C6C7"/>
<path fill-rule="evenodd" clip-rule="evenodd" d="M1388.49 39.948C1393.62 39.7207 1393.26 36.8754 1395.46 34.0771C1390.68 34.0824 1388.63 37.0086 1388.49 39.948Z" fill="#C7C6C7"/>
<path fill-rule="evenodd" clip-rule="evenodd" d="M1394.31 39.948C1399.44 39.7207 1399.07 36.8754 1401.28 34.0771C1396.5 34.0824 1394.45 37.0086 1394.31 39.948Z" fill="#C7C6C7"/>
<path fill-rule="evenodd" clip-rule="evenodd" d="M1400.13 39.948C1405.27 39.7207 1404.9 36.8754 1407.1 34.0771C1402.32 34.0824 1400.27 37.0086 1400.13 39.948Z" fill="#C7C6C7"/>
<path fill-rule="evenodd" clip-rule="evenodd" d="M1405.95 39.948C1411.08 39.7207 1410.71 36.8754 1412.92 34.0771C1408.14 34.0824 1406.09 37.0086 1405.95 39.948Z" fill="#C7C6C7"/>
<path fill-rule="evenodd" clip-rule="evenodd" d="M1411.78 39.948C1416.91 39.7207 1416.54 36.8754 1418.74 34.0771C1413.97 34.0824 1411.91 37.0086 1411.78 39.948Z" fill="#C7C6C7"/>
<path fill-rule="evenodd" clip-rule="evenodd" d="M1417.59 39.948C1422.72 39.7207 1422.36 36.8754 1424.56 34.0771C1419.78 34.0824 1417.73 37.0086 1417.59 39.948Z" fill="#C7C6C7"/>
<path fill-rule="evenodd" clip-rule="evenodd" d="M1423.42 39.948C1428.55 39.7207 1428.18 36.8754 1430.39 34.0771C1425.61 34.0824 1423.55 37.0086 1423.42 39.948Z" fill="#C7C6C7"/>
<path fill-rule="evenodd" clip-rule="evenodd" d="M1429.23 39.948C1434.36 39.7207 1433.99 36.8754 1436.2 34.0771C1431.42 34.0824 1429.37 37.0086 1429.23 39.948Z" fill="#C7C6C7"/>
<path fill-rule="evenodd" clip-rule="evenodd" d="M1435.05 39.948C1440.19 39.7207 1439.82 36.8754 1442.02 34.0771C1437.24 34.0824 1435.19 37.0086 1435.05 39.948Z" fill="#C7C6C7"/>
<path fill-rule="evenodd" clip-rule="evenodd" d="M1440.87 39.948C1446 39.7207 1445.63 36.8754 1447.84 34.0771C1443.06 34.0824 1441.01 37.0086 1440.87 39.948Z" fill="#C7C6C7"/>
<path fill-rule="evenodd" clip-rule="evenodd" d="M1238.64 40.0574C1243.77 39.83 1243.4 36.9848 1245.61 34.1865C1240.83 34.1917 1238.78 37.118 1238.64 40.0574Z" fill="#C7C6C7"/>
<path fill-rule="evenodd" clip-rule="evenodd" d="M1244.46 40.0574C1249.59 39.83 1249.22 36.9848 1251.43 34.1865C1246.65 34.1917 1244.6 37.118 1244.46 40.0574Z" fill="#C7C6C7"/>
<path fill-rule="evenodd" clip-rule="evenodd" d="M1250.28 40.0574C1255.41 39.83 1255.04 36.9848 1257.25 34.1865C1252.47 34.1917 1250.42 37.118 1250.28 40.0574Z" fill="#C7C6C7"/>
<path fill-rule="evenodd" clip-rule="evenodd" d="M1256.1 40.0574C1261.23 39.83 1260.86 36.9848 1263.07 34.1865C1258.29 34.1917 1256.24 37.118 1256.1 40.0574Z" fill="#C7C6C7"/>
<path fill-rule="evenodd" clip-rule="evenodd" d="M1261.92 40.0574C1267.05 39.83 1266.69 36.9848 1268.89 34.1865C1264.11 34.1917 1262.06 37.118 1261.92 40.0574Z" fill="#C7C6C7"/>
<path fill-rule="evenodd" clip-rule="evenodd" d="M1267.74 40.0574C1272.87 39.83 1272.5 36.9848 1274.71 34.1865C1269.93 34.1917 1267.88 37.118 1267.74 40.0574Z" fill="#C7C6C7"/>
</mask>
<g mask="url(#mask0_713_1903)">
<rect x="-0.0957031" y="4" width="1441" height="80" fill="#D9D9D9"/>
</g>
</g>
<defs>
<clipPath id="clip0_713_1903">
<rect width="1442" height="75" fill="white"/>
</clipPath>
</defs>
</svg>
