<svg width="21" height="29" viewBox="0 0 21 29" fill="none" xmlns="http://www.w3.org/2000/svg">
<path d="M0.880859 19.0055C0.880859 18.1928 0.9959 17.4062 1.20656 16.6554C1.23943 16.5413 1.2738 16.4285 1.31115 16.3172C1.51284 15.7094 1.79821 15.1291 2.13288 14.5735L2.49593 13.9712L5.90984 8.30301L10.3591 0.914532C10.6116 0.495123 11.2675 0.495123 11.5215 0.914532L15.9708 8.30301L19.3847 13.9726L19.7567 14.5914C20.0899 15.1456 20.3753 15.7259 20.5755 16.3337C20.6098 16.4395 20.6427 16.5468 20.6741 16.6554C20.952 17.6414 21.0625 18.6892 20.9654 19.7742C20.5635 24.3038 16.5639 27.9368 11.638 28.2421C5.76492 28.6065 0.880859 24.3299 0.880859 19.0055Z" fill="#D9D9D9"/>
</svg>
