<svg width="727" height="277" viewBox="0 0 727 277" fill="none" xmlns="http://www.w3.org/2000/svg">
<path d="M230.595 171.356C308.769 163.125 387.249 158.32 465.748 154.486C544.068 150.662 622.415 147.424 700.752 143.965C744.789 142.02 788.822 140.075 832.858 138.129C834.134 138.073 834.141 136.085 832.858 136.141C753.994 139.624 675.134 143.11 596.27 146.593C518.085 150.046 439.871 153.207 361.772 158.353C317.985 161.236 274.24 164.775 230.598 169.371C229.339 169.504 229.325 171.492 230.598 171.36L230.595 171.356Z" fill="white"/>
<path d="M628.389 150.32C628.69 152.709 628.654 155.155 628.71 157.561C628.766 159.967 628.809 162.459 628.829 164.911C628.869 169.838 628.833 174.766 628.717 179.69C628.65 182.44 628.561 185.194 628.448 187.945C628.425 188.481 628.922 188.939 629.442 188.939C629.999 188.939 630.413 188.485 630.436 187.945C630.844 178.099 630.937 168.241 630.718 158.389C630.688 157.041 630.652 155.692 630.609 154.343C630.566 152.994 630.546 151.656 630.377 150.324C630.31 149.79 629.969 149.329 629.383 149.329C628.899 149.329 628.319 149.787 628.389 150.324V150.32Z" fill="white"/>
<path d="M655.4 150.674C655.165 158.637 655.032 166.607 655.002 174.573C654.992 176.827 654.996 179.08 655.002 181.333C655.006 182.612 656.994 182.616 656.991 181.333C656.961 173.364 657.037 165.397 657.213 157.431C657.262 155.178 657.322 152.928 657.388 150.674C657.425 149.395 655.436 149.395 655.4 150.674Z" fill="white"/>
<path d="M673.725 149.724C674.812 156.298 674.937 163.022 674.149 169.636C674.086 170.17 674.652 170.63 675.143 170.63C675.733 170.63 676.074 170.173 676.137 169.636C676.946 162.833 676.76 155.954 675.64 149.197C675.554 148.667 674.894 148.372 674.417 148.501C673.854 148.657 673.635 149.194 673.721 149.724H673.725Z" fill="white"/>
<path d="M692.593 148.65C692.577 153.896 692.563 159.141 692.547 164.387C692.544 165.666 694.532 165.67 694.535 164.387C694.552 159.141 694.565 153.896 694.581 148.65C694.585 147.371 692.597 147.368 692.593 148.65Z" fill="white"/>
<path d="M708.059 149.316C708.56 152.574 709.057 155.828 709.557 159.085C709.64 159.615 710.306 159.91 710.78 159.781C711.346 159.625 711.555 159.092 711.476 158.558C710.975 155.301 710.478 152.047 709.978 148.789C709.895 148.259 709.229 147.964 708.755 148.093C708.188 148.249 707.98 148.783 708.059 149.316Z" fill="white"/>
<path d="M713.502 148.276C713.654 150.847 713.806 153.422 713.959 155.993C713.992 156.53 714.393 156.987 714.953 156.987C715.467 156.987 715.98 156.533 715.947 155.993C715.795 153.422 715.642 150.847 715.49 148.276C715.457 147.739 715.056 147.281 714.496 147.281C713.982 147.281 713.468 147.735 713.502 148.276Z" fill="white"/>
<path d="M719.844 146.696C719.264 149.141 719.281 151.686 719.897 154.122C720.03 154.642 720.61 154.957 721.12 154.818C721.63 154.679 721.945 154.119 721.816 153.595C721.289 151.511 721.269 149.32 721.763 147.226C721.886 146.702 721.601 146.149 721.067 146.003C720.534 145.857 719.967 146.172 719.844 146.699V146.696Z" fill="white"/>
<path d="M813.352 145.586C800.847 146.086 788.658 147.222 776.623 148.952C764.587 150.682 752.612 153.28 740.854 156.567C729.727 159.678 718.659 163.088 707.684 166.704C697.355 170.107 687.119 173.855 677.224 178.381C667.405 182.875 657.925 188.17 649.246 194.612C648.182 195.404 647.128 196.213 646.088 197.031C645.336 197.624 646.038 198.658 646.79 198.728C652.222 199.235 657.742 199.086 663.197 199.089C666.686 199.089 670.175 199.006 673.658 198.784C674.513 198.731 675.368 198.668 676.223 198.598C676.803 198.552 677.499 198.598 678.026 198.34C678.364 198.178 678.679 197.929 678.997 197.727C681.356 196.239 683.699 194.721 686.078 193.26C691.244 190.085 696.642 187.226 702.024 184.435C712.78 178.855 723.848 173.881 735.211 169.666C746.312 165.547 757.675 162.144 769.2 159.433C781.249 156.6 809.85 152.589 825.856 152.089C827.42 151.897 830.988 151.714 832.556 151.542C833.815 151.403 833.828 149.411 832.556 149.554C825.356 150.36 808.85 150.088 773.515 156.418C761.877 158.956 750.391 162.177 739.154 166.13C727.808 170.123 716.727 174.855 705.957 180.21C697.169 184.578 688.593 189.327 680.292 194.559C679.248 195.215 678.208 196.027 677.101 196.57C677.071 196.584 677.045 196.614 677.015 196.623C677.476 196.448 676.528 196.577 676.389 196.587C675.481 196.66 674.573 196.726 673.661 196.786C671.952 196.895 670.235 196.975 668.522 197.024C664.97 197.127 661.414 197.091 657.858 197.054C654.839 197.024 651.744 197.193 648.739 196.915L646.79 196.733L647.493 198.429C655.916 191.792 665.205 186.311 674.858 181.669C684.59 176.99 694.704 173.159 704.927 169.706C715.15 166.253 726.261 162.843 737.014 159.718C748.645 156.338 760.412 153.518 772.375 151.583C784.307 149.654 796.768 147.892 808.85 147.587C810.351 147.55 830.357 146.6 831.858 146.587C833.137 146.577 833.141 144.588 831.858 144.598C831.858 144.598 825.856 145.086 813.352 145.586Z" fill="white"/>
<path d="M624.737 199.09C624.607 204.001 624.866 208.912 624.737 213.826C624.703 215.105 626.692 215.105 626.725 213.826C626.854 208.915 626.596 204.004 626.725 199.09C626.758 197.81 624.77 197.81 624.737 199.09Z" fill="white"/>
<path d="M683.493 193.041C681.969 198.486 681.024 204.066 680.852 209.723C680.812 211.002 682.801 211.002 682.84 209.723C683.006 204.238 683.931 198.85 685.409 193.568C685.753 192.336 683.835 191.809 683.49 193.038L683.493 193.041Z" fill="white"/>
<path d="M602.69 217.516C605.875 216.035 609.364 215.183 612.87 215.017C614.62 214.934 616.393 214.997 618.126 215.256C620.058 215.544 621.986 216.001 623.935 215.581C625.545 215.233 626.967 214.325 628.561 213.92C630.006 213.553 631.371 213.967 632.696 214.56C634.135 215.206 635.563 215.985 637.14 216.224C638.93 216.492 640.633 216.011 642.343 215.531C643.953 215.08 645.438 214.825 647.078 215.289C648.718 215.753 650.153 216.518 651.784 216.81C653.414 217.102 654.875 216.883 656.366 216.353C657.742 215.859 659.031 215.173 660.389 214.633C661.589 214.156 662.891 213.755 664.127 214.017C665.648 214.338 666.835 215.458 668.24 216.068C669.754 216.724 671.358 216.737 672.932 216.28C674.506 215.823 675.841 215.077 677.286 214.457C678.731 213.838 680.216 213.483 681.819 213.639C683.609 213.811 685.325 214.447 687.078 214.812C689.723 215.359 693.079 215.216 695.021 213.059C695.498 212.529 695.837 211.932 696.062 211.256C696.469 210.04 694.551 209.52 694.143 210.726C693.812 211.71 692.91 212.396 691.893 212.737C690.753 213.122 689.448 213.201 688.328 213.026C686.522 212.744 684.792 212.111 682.989 211.806C681.186 211.501 679.536 211.551 677.849 212.118C676.398 212.608 675.056 213.347 673.641 213.924C672.395 214.431 671.033 214.848 669.694 214.487C668.16 214.073 666.931 212.91 665.456 212.336C664.061 211.793 662.51 211.879 661.092 212.287C658.474 213.039 656.015 214.971 653.232 214.964C651.648 214.961 650.16 214.242 648.698 213.718C647.012 213.115 645.365 212.863 643.592 213.178C641.952 213.473 640.374 214.199 638.701 214.308C637.19 214.408 635.834 213.821 634.492 213.198C633.054 212.529 631.593 211.846 629.979 211.773C628.365 211.7 626.795 212.419 625.28 213.039C624.535 213.344 623.753 213.645 622.947 213.735C622.046 213.838 621.125 213.732 620.233 213.589C618.417 213.301 616.621 213.029 614.779 212.996C611.2 212.93 607.581 213.519 604.221 214.746C603.363 215.057 602.521 215.412 601.696 215.796C601.209 216.021 601.087 216.724 601.338 217.155C601.63 217.655 602.21 217.738 602.697 217.513L602.69 217.516Z" fill="white"/>
<path d="M384.516 260.481C386.365 262.207 388.966 262.572 391.395 262.27C394.155 261.926 396.763 260.693 399.55 260.551C402.171 260.415 404.487 261.664 406.89 262.532C408.086 262.963 409.332 263.291 410.611 263.334C411.89 263.377 413.14 263.082 414.326 262.651C416.503 261.859 418.71 260.458 421.04 260.405C423.369 260.352 425.54 261.866 427.704 262.704C428.867 263.155 430.116 263.427 431.369 263.351C432.621 263.274 433.778 262.953 434.928 262.535C437.121 261.737 439.358 260.527 441.708 260.693C442.997 260.786 444.223 261.379 445.409 261.846C446.595 262.313 447.884 262.678 449.213 262.738C451.685 262.847 454.171 262.022 456.116 260.507C456.573 260.153 456.997 259.762 457.381 259.328C457.739 258.927 457.776 258.317 457.381 257.923C457.017 257.558 456.334 257.522 455.976 257.923C454.525 259.546 452.447 260.57 450.323 260.733C449.16 260.819 448.129 260.69 447.026 260.332C445.74 259.911 444.527 259.281 443.212 258.947C440.71 258.314 438.341 259.073 436.021 259.99C433.94 260.812 431.77 261.743 429.563 261.213C427.243 260.657 425.271 259.149 422.938 258.622C420.38 258.045 418.037 258.93 415.721 259.937C414.674 260.395 413.62 260.855 412.51 261.13C411.4 261.405 410.306 261.405 409.19 261.15C406.771 260.597 404.603 259.271 402.168 258.774C399.268 258.181 396.501 259.043 393.718 259.778C391.62 260.332 389.204 260.773 387.213 259.918C386.722 259.705 386.285 259.417 385.917 259.073C384.983 258.201 383.574 259.603 384.512 260.478L384.516 260.481Z" fill="white"/>
<path d="M615.193 153.893C614.65 159.861 615.979 165.78 615.919 171.741C615.902 173.401 615.773 175.058 615.452 176.689C615.349 177.215 615.601 177.762 616.148 177.911C616.635 178.047 617.264 177.746 617.37 177.215C618.567 171.165 617.361 165.084 617.095 159.01C617.019 157.303 617.029 155.593 617.185 153.893C617.235 153.356 616.694 152.899 616.191 152.899C615.611 152.899 615.246 153.356 615.197 153.893H615.193Z" fill="white"/>
<path d="M599.784 152.872C599.214 155.603 599.118 158.393 599.188 161.173C599.257 163.99 599.413 166.803 599.536 169.617C599.559 170.153 599.976 170.611 600.53 170.611C601.05 170.611 601.547 170.157 601.524 169.617C601.405 166.856 601.252 164.093 601.179 161.332C601.11 158.678 601.156 156.007 601.703 153.402C601.812 152.879 601.55 152.329 601.007 152.18C600.513 152.044 599.893 152.345 599.784 152.876V152.872Z" fill="white"/>
<path d="M583.81 153.475C583.681 156.173 583.548 158.87 583.419 161.564C583.392 162.101 583.893 162.558 584.413 162.558C584.973 162.558 585.381 162.101 585.407 161.564C585.536 158.867 585.669 156.169 585.798 153.475C585.825 152.938 585.324 152.481 584.804 152.481C584.244 152.481 583.836 152.938 583.81 153.475Z" fill="white"/>
<path d="M573.206 156.852C573.189 156.736 573.189 156.742 573.206 156.868C573.199 156.829 573.196 156.785 573.193 156.746C573.183 156.65 573.173 156.554 573.166 156.457C573.153 156.292 573.143 156.126 573.14 155.96C573.13 155.599 573.14 155.238 573.163 154.88C573.176 154.714 573.183 154.545 573.213 154.383C573.166 154.628 573.223 154.327 573.229 154.277C573.246 154.181 573.262 154.085 573.279 153.992C573.348 153.637 573.435 153.289 573.541 152.945C573.693 152.448 573.362 151.838 572.845 151.722C572.328 151.606 571.784 151.884 571.622 152.418C571.132 154.038 571.045 155.718 571.284 157.389C571.317 157.617 571.552 157.872 571.741 157.982C571.953 158.108 572.268 158.161 572.507 158.081C573.073 157.899 573.282 157.412 573.203 156.858L573.206 156.852Z" fill="white"/>
<path d="M447.419 192.368C458.6 184.084 470.161 176.224 482.959 170.637C493.175 166.176 504.008 163.088 515.033 161.458C526.73 159.731 538.716 159.701 550.417 161.418C563.188 163.294 575.628 167.207 587.226 172.864C593.568 175.955 599.659 179.551 605.468 183.557C611.277 187.563 616.493 191.493 621.387 196.139C622.633 197.322 623.843 198.548 625.026 199.794C625.907 200.726 627.312 199.317 626.431 198.389C621.782 193.485 616.589 189.267 611.184 185.227C605.339 180.856 599.179 176.9 592.743 173.457C581.059 167.207 568.457 162.657 555.421 160.245C543.501 158.041 531.273 157.591 519.225 158.933C507.878 160.195 496.721 162.972 486.11 167.19C473.478 172.211 461.973 179.375 450.985 187.312C449.454 188.415 447.933 189.535 446.415 190.658C445.398 191.411 446.388 193.137 447.419 192.375V192.368Z" fill="white"/>
<path d="M340.728 190.808C340.744 190.582 340.652 191.016 340.741 190.758C340.761 190.698 340.774 190.629 340.791 190.569C340.844 190.387 340.91 190.208 340.98 190.032C341.112 189.701 341.288 189.35 341.47 189.028C341.556 188.872 341.649 188.723 341.748 188.574C341.858 188.408 341.772 188.538 341.742 188.574C341.825 188.475 341.914 188.379 342.004 188.282C342.365 187.888 342.726 187.494 343.09 187.099C344.555 185.525 346.053 183.981 347.597 182.487C350.639 179.544 353.857 176.771 357.326 174.338C360.796 171.906 364.408 169.851 368.301 168.33C371.88 166.929 375.668 165.978 379.446 165.292C382.716 164.695 386.053 164.414 389.393 164.573C392.976 164.742 396.498 165.444 399.915 166.531C404.1 167.86 408.09 169.735 411.934 171.846C414.449 173.228 416.944 174.673 419.33 176.273C425.073 180.131 429.954 185.214 434.288 190.688C435.047 191.646 435.786 192.614 436.515 193.594C436.836 194.025 437.376 194.244 437.874 193.952C438.298 193.704 438.553 193.024 438.231 192.594C433.552 186.311 428.38 180.349 422.007 175.727C419.784 174.116 417.438 172.691 415.058 171.326C411.161 169.093 407.155 167.048 402.94 165.477C399.318 164.125 395.56 163.178 391.713 162.767C388.174 162.389 384.622 162.531 381.102 163.025C377.411 163.542 373.709 164.4 370.167 165.557C366.008 166.919 362.055 168.88 358.377 171.247C354.705 173.609 351.282 176.356 348.071 179.309C346.447 180.803 344.873 182.354 343.342 183.941C342.58 184.733 341.828 185.535 341.082 186.344C340.469 187.01 339.929 187.646 339.522 188.461C339.157 189.194 338.793 189.989 338.736 190.818C338.7 191.354 339.22 191.812 339.73 191.812C340.3 191.812 340.688 191.354 340.724 190.818L340.728 190.808Z" fill="white"/>
<path d="M331.815 166.011C332.292 171.376 332.587 176.754 332.7 182.139C332.727 183.418 334.715 183.421 334.688 182.139C334.576 176.754 334.281 171.376 333.804 166.011C333.757 165.477 333.379 165.017 332.809 165.017C332.309 165.017 331.769 165.474 331.815 166.011Z" fill="white"/>
<path d="M336.274 165.597C336.41 170.213 336.41 174.833 336.274 179.449C336.237 180.728 338.226 180.728 338.262 179.449C338.398 174.833 338.398 170.213 338.262 165.597C338.226 164.321 336.237 164.315 336.274 165.597Z" fill="white"/>
<path d="M343.552 165.385C344.854 165.412 346.156 165.356 347.455 165.216L346.498 163.957C346.103 166.893 346.064 169.909 346.223 172.865C346.253 173.401 346.66 173.859 347.217 173.859C347.734 173.859 348.241 173.405 348.211 172.865C348.135 171.44 348.148 170.008 348.161 168.583C348.175 167.158 348.234 165.843 348.416 164.487C348.493 163.924 348.178 163.152 347.459 163.228C346.163 163.367 344.861 163.424 343.555 163.397C342.25 163.371 342.276 165.359 343.555 165.385H343.552Z" fill="white"/>
<path d="M356.79 163.712C356.731 164.431 356.671 165.15 356.611 165.872C356.591 166.114 356.737 166.409 356.903 166.575C357.068 166.74 357.357 166.876 357.605 166.866C357.854 166.856 358.129 166.77 358.308 166.575C358.487 166.379 358.576 166.147 358.599 165.872C358.659 165.153 358.719 164.434 358.778 163.712C358.798 163.47 358.652 163.175 358.487 163.009C358.321 162.843 358.033 162.708 357.784 162.718C357.536 162.727 357.261 162.814 357.082 163.009C356.903 163.205 356.813 163.437 356.79 163.712Z" fill="white"/>
<path d="M400.038 162.074C403.855 161.922 407.676 161.769 411.493 161.62L410.536 160.361C409.966 162.24 410.738 164.116 410.516 166.011C410.453 166.545 411.016 167.005 411.51 167.005C412.1 167.005 412.441 166.548 412.504 166.011C412.703 164.314 411.951 162.548 412.454 160.888C412.637 160.285 412.133 159.606 411.497 159.629C407.679 159.781 403.858 159.934 400.041 160.083C399.504 160.103 399.047 160.523 399.047 161.077C399.047 161.6 399.501 162.091 400.041 162.071L400.038 162.074Z" fill="white"/>
<path d="M414.115 160.609C413.674 161.769 414.082 163.065 414.184 164.254C414.294 165.507 414.294 166.763 414.201 168.015C414.161 168.552 414.688 169.01 415.195 169.01C415.765 169.01 416.149 168.552 416.189 168.015C416.279 166.809 416.282 165.596 416.183 164.39C416.133 163.761 416.047 163.138 415.961 162.511C415.898 162.061 415.868 161.567 416.03 161.136C416.222 160.632 415.818 160.046 415.334 159.913C414.774 159.761 414.304 160.102 414.111 160.609H414.115Z" fill="white"/>
<path d="M420.223 161.842L423.162 161.826L422.168 160.832C422.224 162.505 422.281 164.179 422.337 165.849C422.39 167.413 422.526 169.017 422.115 170.544C421.78 171.78 423.699 172.307 424.034 171.075C424.481 169.421 424.392 167.708 424.335 166.011C424.279 164.315 424.219 162.558 424.16 160.832C424.143 160.298 423.719 159.834 423.166 159.838L420.226 159.854C418.947 159.861 418.944 161.849 420.226 161.842H420.223Z" fill="white"/>
<path d="M426.79 161.68C427.589 161.58 428.388 161.484 429.186 161.385C429.567 161.339 429.991 161.339 430.363 161.249C430.489 161.256 430.508 161.249 430.419 161.239C430.253 161.186 430.157 161.087 430.131 160.938C430.101 160.815 430.094 160.825 430.107 160.971C430.107 161.064 430.107 161.156 430.101 161.249C430.064 162.873 430.035 164.497 430.028 166.12C430.018 169.355 430.088 172.589 430.25 175.82C430.276 176.356 430.687 176.814 431.244 176.814C431.761 176.814 432.265 176.36 432.238 175.82C432.099 173.046 432.026 170.272 432.016 167.496C432.013 166.117 432.019 164.738 432.043 163.36C432.053 162.657 432.069 161.952 432.089 161.249C432.109 160.547 431.973 159.867 431.324 159.476C430.674 159.085 429.869 159.311 429.183 159.397C428.384 159.496 427.586 159.592 426.787 159.692C426.254 159.758 425.793 160.103 425.793 160.686C425.793 161.173 426.25 161.746 426.787 161.68H426.79Z" fill="white"/>
<path d="M434.342 160.759C435.465 160.706 436.588 160.657 437.709 160.604L436.714 159.609C436.413 166.257 436.453 172.917 436.844 179.558C436.953 181.444 437.092 183.329 437.258 185.211C437.304 185.745 437.682 186.206 438.252 186.206C438.752 186.206 439.292 185.748 439.246 185.211C438.663 178.584 438.421 171.927 438.527 165.273C438.557 163.384 438.616 161.495 438.703 159.609C438.726 159.089 438.229 158.592 437.709 158.615C436.585 158.668 435.462 158.718 434.342 158.771C433.805 158.794 433.348 159.212 433.348 159.765C433.348 160.285 433.802 160.782 434.342 160.759Z" fill="white"/>
<path d="M442.409 160.348C444.572 160.301 446.73 160.139 448.874 159.86L447.88 158.866C447.89 165.202 447.823 171.538 447.677 177.871C447.658 178.779 447.634 179.687 447.611 180.598C447.601 181.039 447.588 181.479 447.575 181.92C447.568 182.139 447.561 182.361 447.555 182.58C447.555 182.596 447.555 182.828 447.548 182.828C447.518 182.831 447.621 182.629 447.611 182.636L448.049 182.381L447.972 182.404H448.503L448.416 182.391C447.886 182.308 447.346 182.526 447.194 183.086C447.064 183.557 447.353 184.226 447.89 184.309C448.93 184.472 449.49 183.709 449.536 182.748C449.576 181.897 449.583 181.042 449.606 180.187C449.649 178.451 449.689 176.717 449.722 174.981C449.788 171.565 449.828 168.151 449.848 164.735C449.861 162.78 449.865 160.825 449.861 158.866C449.861 158.379 449.404 157.803 448.867 157.872C446.723 158.151 444.566 158.313 442.402 158.359C441.123 158.386 441.12 160.374 442.402 160.348H442.409Z" fill="white"/>
<path d="M458.436 159.822C459.016 160.488 460.113 160.094 460.329 159.305C460.57 158.423 459.649 157.711 458.837 157.959C457.976 158.225 457.91 159.056 457.906 159.812C457.906 160.521 457.906 161.233 457.91 161.943C457.929 164.726 458.016 167.506 458.145 170.287C458.218 171.871 458.297 173.455 458.377 175.039C458.403 175.575 458.814 176.033 459.371 176.033C459.888 176.033 460.392 175.579 460.365 175.039C460.236 172.394 460.093 169.75 460.004 167.105C459.961 165.793 459.928 164.484 459.911 163.172C459.901 162.516 459.898 161.86 459.894 161.204C459.894 160.849 459.894 160.495 459.894 160.137C459.894 159.974 459.894 159.809 459.894 159.646C459.894 159.563 459.894 159.484 459.894 159.401C459.911 159.172 459.868 159.249 459.762 159.636L459.325 159.891L459.04 159.878L458.602 159.623L458.658 159.679L458.403 159.242L458.413 159.305L458.513 158.539L458.592 158.443L459.03 158.188L459.179 158.172L459.881 158.463L459.841 158.417C459.49 158.013 458.798 158.056 458.436 158.417C458.035 158.818 458.082 159.418 458.436 159.822Z" fill="white"/>
<path d="M467.509 158.058C467.393 161.634 467.115 165.259 467.476 168.828C467.529 169.361 467.893 169.822 468.47 169.822C468.967 169.822 469.517 169.365 469.464 168.828C469.103 165.259 469.381 161.634 469.497 158.058C469.54 156.779 467.552 156.779 467.509 158.058Z" fill="white"/>
<path d="M476.947 157.66C476.94 159.413 476.831 161.163 476.622 162.903C476.559 163.419 477.122 163.92 477.616 163.897C478.209 163.87 478.544 163.459 478.61 162.903C478.819 161.163 478.928 159.413 478.935 157.66C478.935 157.14 478.474 156.643 477.941 156.666C477.407 156.689 476.95 157.103 476.947 157.66Z" fill="white"/>
<path d="M483.183 163.555C485.109 162.839 487.061 162.196 489.036 161.633C489.586 161.477 489.827 160.944 489.731 160.41C489.718 160.337 489.705 160.268 489.695 160.195C489.702 160.261 489.702 160.258 489.695 160.188C489.682 160.079 489.675 159.97 489.668 159.863C489.655 159.628 489.652 159.39 489.665 159.154C489.675 158.932 489.692 158.77 489.712 158.661C489.758 158.409 489.814 158.164 489.884 157.918C490.026 157.418 489.708 156.815 489.188 156.696C488.668 156.576 488.118 156.855 487.965 157.391C487.634 158.558 487.601 159.754 487.816 160.944L488.512 159.721C486.537 160.284 484.585 160.927 482.66 161.643C482.173 161.825 481.792 162.322 481.964 162.866C482.116 163.343 482.666 163.754 483.187 163.562L483.183 163.555Z" fill="white"/>
<path d="M494.329 157.07C495.601 157.123 496.874 157.173 498.146 157.219C498.799 157.243 499.445 157.272 500.095 157.16C500.231 157.137 500.403 157.12 500.526 157.054C500.754 156.994 500.642 156.958 500.188 156.944C500.224 156.964 500.26 156.987 500.294 157.011C500.542 157.216 500.874 157.322 501.195 157.319L500.93 155.367C498.958 156.169 496.95 156.888 494.915 157.514C494.402 157.673 494.077 158.207 494.22 158.737C494.362 159.267 494.929 159.589 495.442 159.433C497.477 158.807 499.482 158.088 501.457 157.286C501.914 157.1 502.249 156.722 502.169 156.195C502.096 155.715 501.699 155.331 501.192 155.334C501.483 155.447 501.553 155.46 501.397 155.37C501.351 155.337 501.304 155.304 501.258 155.271C501.142 155.201 501.003 155.135 500.873 155.095C500.522 154.989 500.207 155.082 499.869 155.175C499.346 155.321 498.713 155.248 498.14 155.228C496.867 155.185 495.595 155.135 494.322 155.079C493.785 155.056 493.328 155.553 493.328 156.073C493.328 156.63 493.782 157.044 494.322 157.067L494.329 157.07Z" fill="white"/>
<path d="M111.216 190.334C115.057 190.533 118.9 190.729 122.741 190.927C124.564 191.02 126.39 191.123 128.212 191.037C130.035 190.951 131.933 190.596 133.763 190.129C135.526 189.681 137.272 189.314 139.091 189.204C140.91 189.095 142.68 189.161 144.466 189.294C148.038 189.556 151.594 190.082 155.183 190.082C158.771 190.082 162.34 189.264 165.899 188.535C167.636 188.18 169.382 187.879 171.155 187.816C172.928 187.753 174.634 187.948 176.348 188.27C179.804 188.923 183.181 189.976 186.693 190.301C190.454 190.649 194.166 189.867 197.841 189.174C205.184 187.786 212.68 187.352 220.135 187.932C221.073 188.005 222.008 188.094 222.942 188.197C223.476 188.257 223.936 187.697 223.936 187.203C223.936 186.616 223.479 186.268 222.942 186.209C215.48 185.387 207.941 185.562 200.521 186.702C196.827 187.269 193.168 188.27 189.42 188.396C185.885 188.515 182.488 187.59 179.071 186.815C177.335 186.421 175.582 186.076 173.806 185.91C172.03 185.745 170.217 185.838 168.431 186.083C164.892 186.57 161.449 187.667 157.883 187.982C150.693 188.618 143.548 186.364 136.371 187.518C134.531 187.813 132.755 188.402 130.926 188.747C129.097 189.092 127.264 189.112 125.432 189.055C121.654 188.942 117.877 188.684 114.099 188.492C113.138 188.442 112.177 188.392 111.216 188.343C109.937 188.276 109.94 190.265 111.216 190.331V190.334Z" fill="white"/>
<path d="M210.115 171.907C212.71 171.96 215.381 172.029 217.697 173.348C219.725 174.501 221.319 176.307 222.651 178.193C224.268 180.479 225.613 182.945 226.843 185.453C227.409 186.607 227.877 187.985 228.858 188.867C229.838 189.748 231.369 190.132 232.542 189.307C233.096 188.92 233.487 188.399 233.888 187.859C234.309 187.289 234.733 186.719 235.137 186.136C235.942 184.976 236.642 183.757 237.361 182.544C238.617 180.426 240.055 178.508 241.947 176.91C245.363 174.024 249.923 172.526 254.304 173.375C256.438 173.789 258.499 174.677 260.146 176.102C262.045 177.742 263.274 179.953 264.258 182.232C264.497 182.782 264.712 183.342 264.928 183.903C265.12 184.403 265.597 184.748 266.15 184.598C266.631 184.466 267.039 183.879 266.846 183.376C265.889 180.877 264.805 178.425 263.115 176.324C261.568 174.399 259.493 173 257.193 172.129C252.624 170.399 247.474 171.078 243.305 173.53C241.241 174.743 239.392 176.357 237.894 178.223C236.118 180.436 234.912 183.014 233.281 185.327C232.88 185.897 232.473 186.467 232.045 187.021C231.893 187.22 231.724 187.428 231.528 187.587C231.485 187.624 231.396 187.687 231.326 187.723C231.263 187.753 231.121 187.793 231.124 187.793C230.107 187.889 229.517 186.451 229.126 185.629C227.9 183.057 226.591 180.519 225.014 178.14C223.582 175.979 221.955 173.935 219.857 172.387C217.614 170.734 214.976 170.134 212.236 169.985C211.527 169.945 210.818 169.932 210.112 169.915C208.833 169.889 208.833 171.877 210.112 171.903L210.115 171.907Z" fill="white"/>
<path d="M277.702 188.912C279.117 185.012 281.486 181.506 284.403 178.573C287.319 175.641 291.126 172.934 295.116 171.267C297.306 170.349 299.649 169.726 302.025 169.63C304.573 169.524 307.195 169.895 309.653 170.564C312.112 171.234 314.226 172.539 316.324 173.815C318.422 175.091 320.118 176.665 321.656 178.544C323.326 180.585 324.873 182.749 326.348 184.933C327.859 187.169 329.277 189.496 330.348 191.981C330.56 192.475 331.285 192.584 331.706 192.339C332.217 192.041 332.276 191.474 332.064 190.98C330.112 186.434 327.087 182.338 324.085 178.434C322.521 176.403 320.841 174.501 318.733 173.016C317.673 172.267 316.539 171.628 315.409 170.992C314.279 170.355 313.06 169.683 311.807 169.186C310.555 168.689 309.266 168.397 307.96 168.158C306.654 167.92 305.239 167.721 303.868 167.655C301.256 167.525 298.648 167.92 296.173 168.755C291.709 170.259 287.577 172.914 284.118 176.092C280.873 179.074 278.153 182.699 276.423 186.765C276.194 187.302 275.979 187.842 275.78 188.389C275.598 188.893 275.986 189.479 276.476 189.612C277.03 189.764 277.517 189.423 277.699 188.916L277.702 188.912Z" fill="white"/>
<path d="M293.715 188.604C295.319 185.456 297.324 182.527 299.7 179.915C302.076 177.304 304.81 174.845 307.981 173.225C309.432 172.483 311.063 172.065 312.746 171.866C313.28 171.803 313.74 171.455 313.74 170.872C313.74 170.385 313.283 169.815 312.746 169.878C311.003 170.084 309.346 170.435 307.736 171.147C306.125 171.86 304.521 172.923 303.083 174.047C300.114 176.37 297.513 179.153 295.299 182.205C294.06 183.915 292.96 185.721 291.999 187.603C291.754 188.08 291.873 188.68 292.357 188.962C292.801 189.22 293.473 189.085 293.715 188.604Z" fill="white"/>
<path d="M244.035 189.34C246.507 184.536 249.562 179.787 254.122 176.718C255.345 175.897 256.654 175.194 258.039 174.687C258.542 174.502 258.884 174.011 258.735 173.464C258.602 172.981 258.019 172.583 257.512 172.768C252.011 174.783 247.859 179.104 244.787 183.969C243.892 185.384 243.084 186.849 242.318 188.336C242.073 188.814 242.196 189.417 242.676 189.695C243.12 189.957 243.79 189.818 244.035 189.337V189.34Z" fill="white"/>
<path d="M226.13 189.522C229.272 189.777 232.37 190.377 235.502 190.715C237.079 190.884 238.669 190.983 240.257 190.927C241.844 190.871 243.428 190.629 244.985 190.284C246.748 189.893 248.501 189.442 250.258 189.015C251.5 188.713 250.973 186.795 249.727 187.096C246.745 187.822 243.73 188.756 240.651 188.919C237.573 189.081 234.514 188.631 231.479 188.19C229.699 187.931 227.92 187.679 226.127 187.534C225.59 187.491 225.133 188.021 225.133 188.528C225.133 189.101 225.59 189.479 226.127 189.522H226.13Z" fill="white"/>
<path d="M296.568 194.721C296.403 193.525 297.221 192.18 297.642 190.957C298.099 189.625 297.814 187.974 296.33 187.458C295.084 187.027 293.549 187.388 292.297 187.617C291.72 187.723 291.147 187.842 290.567 187.938C290.262 187.988 290.733 187.928 290.468 187.951C290.203 187.974 289.941 188.001 289.676 188.024C289.172 188.071 288.665 188.117 288.161 188.16C286.557 188.296 284.95 188.402 283.34 188.399C281.554 188.392 279.774 188.256 277.998 188.09C277.687 188.061 278.26 188.134 277.925 188.081C277.783 188.057 277.64 188.034 277.498 188.011C277.093 187.945 276.689 187.872 276.285 187.802C275.221 187.62 274.157 187.448 273.087 187.305C271.95 187.153 270.811 187.023 269.664 186.987C268.72 186.957 267.706 186.964 266.794 187.245C265.883 187.527 265.111 188.134 265.058 189.131C265.025 189.814 265.263 190.533 265.326 191.212C265.416 192.196 265.436 193.184 265.419 194.168C265.406 194.937 265.369 195.705 265.343 196.478C265.323 197.014 265.28 197.588 265.399 198.115C265.578 198.903 266.075 199.705 266.695 200.219C267.57 200.941 268.604 201.034 269.697 201.094C271.94 201.216 274.194 201.176 276.434 200.971C278.498 200.782 280.543 200.507 282.617 200.669C284.46 200.815 286.319 200.862 288.165 200.908C290.302 200.964 292.506 201.084 294.636 200.832C294.928 200.799 295.266 200.775 295.544 200.66C296.038 200.454 296.393 200 296.24 199.437C296.111 198.97 295.514 198.535 295.017 198.741C294.928 198.777 294.835 198.8 294.742 198.82C294.693 198.83 294.643 198.837 294.593 198.847C294.371 198.893 294.872 198.82 294.544 198.854C294.166 198.89 293.788 198.916 293.41 198.93C292.34 198.973 291.27 198.969 290.203 198.956C288.035 198.93 285.868 198.86 283.701 198.744C282.7 198.691 281.703 198.595 280.699 198.622C278.588 198.681 276.497 199.019 274.389 199.119C273.322 199.168 272.252 199.182 271.182 199.158C270.688 199.148 270.194 199.129 269.7 199.102C269.243 199.076 268.676 199.089 268.282 198.907C268.06 198.804 267.838 198.592 267.702 198.406C267.493 198.121 267.467 197.869 267.321 197.604C267.248 197.468 267.354 197.753 267.334 197.733C267.314 197.714 267.321 197.598 267.321 197.571C267.318 197.485 267.314 197.399 267.314 197.313C267.311 197.018 267.321 196.723 267.331 196.428C267.391 194.761 267.467 193.094 267.331 191.431C267.291 190.927 267.228 190.423 267.155 189.92C267.122 189.701 267.089 189.479 267.043 189.264C266.983 188.975 267.03 189.489 267.043 189.207C267.049 188.975 266.98 189.469 267.039 189.25C267.092 189.048 266.943 189.449 267.006 189.323C267.109 189.108 266.93 189.403 266.976 189.346C267.096 189.197 267.099 189.29 266.963 189.336C267.016 189.32 267.076 189.267 267.122 189.237C267.351 189.098 267.049 189.247 267.136 189.224C267.305 189.181 267.464 189.118 267.636 189.081C267.729 189.061 267.825 189.048 267.921 189.028C267.981 189.015 268.11 189.012 267.838 189.038C267.891 189.035 267.941 189.025 267.994 189.018C268.216 188.998 268.441 188.982 268.663 188.972C269.69 188.935 270.721 189.015 271.738 189.124C272.003 189.154 272.269 189.184 272.534 189.217C272.6 189.224 273.014 189.28 272.769 189.247C272.908 189.267 273.044 189.283 273.183 189.303C273.697 189.376 274.21 189.456 274.724 189.542C275.533 189.674 276.338 189.824 277.15 189.953C278.396 190.155 279.668 190.228 280.927 190.301C282.448 190.387 283.969 190.403 285.494 190.327C287.19 190.244 288.894 190.112 290.58 189.916C291.14 189.85 291.694 189.737 292.25 189.631C292.559 189.572 292.867 189.512 293.178 189.459C293.331 189.433 293.48 189.406 293.632 189.383C293.715 189.37 293.801 189.356 293.884 189.346C293.957 189.336 293.95 189.336 293.871 189.346C293.937 189.336 294.003 189.33 294.07 189.323C294.355 189.29 294.64 189.267 294.925 189.26C295.067 189.26 295.21 189.26 295.355 189.267C295.408 189.267 295.461 189.277 295.514 189.28C295.263 189.264 295.481 189.273 295.544 189.29C295.597 189.303 295.654 189.32 295.71 189.333C295.826 189.356 295.826 189.436 295.677 189.31C295.7 189.33 295.75 189.35 295.776 189.366C295.488 189.191 295.727 189.287 295.733 189.343C295.733 189.356 295.896 189.568 295.766 189.37C295.79 189.409 295.819 189.469 295.849 189.505L295.882 189.575C295.833 189.452 295.826 189.442 295.862 189.549C295.892 189.535 295.882 189.92 295.879 189.575C295.879 189.638 295.872 189.943 295.886 189.824C295.899 189.704 295.843 190.029 295.826 190.089C295.75 190.38 295.64 190.662 295.524 190.94C295.438 191.152 295.283 191.51 295.14 191.865C295.007 192.19 294.888 192.521 294.795 192.859C294.577 193.651 294.54 194.43 294.653 195.238C294.726 195.772 295.405 196.06 295.876 195.934C296.449 195.775 296.644 195.245 296.572 194.711L296.568 194.721Z" fill="white"/>
<path d="M363.577 190.914C366.983 186.052 371.238 181.788 375.957 178.199C380.676 174.61 385.335 171.933 390.425 169.53C393.049 168.291 395.558 167.247 398.282 166.23C398.785 166.041 399.127 165.557 398.978 165.007C398.845 164.523 398.262 164.125 397.755 164.311C392.672 166.21 387.704 168.453 382.999 171.164C377.833 174.14 372.958 177.682 368.693 181.861C366.175 184.329 363.885 187.023 361.86 189.913C361.552 190.354 361.781 191.016 362.218 191.272C362.715 191.563 363.269 191.354 363.577 190.914Z" fill="white"/>
<path d="M357.053 190.913C360.151 186.036 364.326 181.887 368.827 178.268C373.327 174.649 378.509 171.372 383.745 168.595C386.472 167.147 389.256 165.815 392.092 164.596C392.586 164.384 392.695 163.658 392.45 163.237C392.152 162.727 391.585 162.667 391.092 162.879C385.833 165.136 380.733 167.79 375.888 170.842C370.729 174.093 365.798 177.811 361.533 182.185C359.227 184.551 357.112 187.122 355.34 189.913C354.65 190.996 356.37 191.994 357.056 190.917L357.053 190.913Z" fill="white"/>
<path d="M330.529 201.186C330.645 199.639 330.758 198.094 330.804 196.544C330.828 195.755 330.831 194.97 330.804 194.181C330.791 193.8 330.775 193.422 330.748 193.041C330.748 193.001 330.725 192.58 330.722 192.58C330.715 192.58 330.655 192.676 330.642 192.7C330.602 192.776 330.735 192.653 330.698 192.66C331.252 192.521 331.871 192.342 332.494 192.299C333.24 192.249 333.989 192.252 334.735 192.242C336.292 192.222 337.853 192.203 339.41 192.183C345.657 192.103 351.906 192.024 358.153 191.944C359.75 191.924 361.347 191.904 362.945 191.884C363.687 191.875 364.449 191.815 365.191 191.865C365.688 191.898 365.834 192.107 365.957 192.428C366.159 192.975 366.215 193.571 366.285 194.148C366.378 194.903 366.454 195.662 366.52 196.421C366.586 197.18 366.639 197.995 366.676 198.784C366.692 199.108 366.719 199.44 366.712 199.765C366.706 199.98 366.729 199.93 366.523 200.04C365.357 200.656 363.939 200.861 362.643 200.981C361.152 201.12 359.651 201.173 358.156 201.252C355.028 201.418 351.9 201.571 348.772 201.703C345.643 201.836 342.459 201.958 339.301 202.058C337.737 202.107 336.169 202.154 334.605 202.197C333.459 202.227 332.339 202.336 331.315 201.889C331.418 201.932 331.199 201.822 331.169 201.809C331.113 201.776 330.917 201.65 330.924 201.657C330.771 201.534 330.669 201.392 330.569 201.219C329.936 200.106 328.22 201.107 328.853 202.223C330.294 204.758 333.909 204.212 336.335 204.142C339.712 204.046 343.092 203.927 346.469 203.791C349.845 203.655 353.275 203.496 356.678 203.32C358.322 203.234 359.965 203.155 361.606 203.049C363.16 202.949 364.75 202.793 366.235 202.293C366.984 202.038 367.855 201.743 368.329 201.07C368.803 200.398 368.704 199.615 368.671 198.867C368.591 197.183 368.449 195.5 368.237 193.826C368.068 192.501 367.872 190.87 366.527 190.191C365.774 189.81 364.923 189.876 364.108 189.886C363.292 189.896 362.401 189.909 361.546 189.919C354.826 190.006 348.106 190.092 341.385 190.178C339.689 190.201 337.995 190.221 336.299 190.244C334.602 190.267 333.025 190.194 331.418 190.44C330.682 190.552 329.84 190.741 329.28 191.265C328.581 191.918 328.76 192.849 328.8 193.7C328.879 195.384 328.82 197.071 328.714 198.751C328.664 199.566 328.604 200.378 328.541 201.193C328.501 201.73 329.028 202.187 329.535 202.187C330.105 202.187 330.49 201.73 330.529 201.193V201.186Z" fill="white"/>
<path d="M694.102 141.383C694.467 132.963 694.553 124.533 694.351 116.106C694.295 113.737 694.215 111.371 694.116 109.005C694.092 108.468 693.675 108.01 693.121 108.01C692.601 108.01 692.104 108.464 692.127 109.005C692.485 117.425 692.561 125.855 692.356 134.282C692.296 136.651 692.217 139.017 692.114 141.383C692.091 141.92 692.588 142.377 693.108 142.377C693.665 142.377 694.079 141.923 694.102 141.383Z" fill="white"/>
<path d="M632.254 143.401C632.075 139.504 632.098 135.594 632.138 131.694C632.171 128.224 632.24 124.755 632.33 121.285C632.35 120.589 632.366 119.893 632.39 119.197C632.429 117.918 630.441 117.918 630.401 119.197C630.338 121.179 630.292 123.164 630.252 125.146C630.169 129.149 630.113 133.155 630.133 137.161C630.143 139.242 630.169 141.323 630.265 143.401C630.289 143.938 630.706 144.395 631.26 144.395C631.78 144.395 632.277 143.941 632.254 143.401Z" fill="white"/>
<path d="M545.446 147.982C545.707 143.362 545.326 138.743 545.446 134.124C545.479 132.845 543.491 132.845 543.457 134.124C543.338 138.743 543.719 143.366 543.457 147.982C543.428 148.519 543.935 148.976 544.452 148.976C545.015 148.976 545.416 148.519 545.446 147.982Z" fill="white"/>
<path d="M358.332 157.124C358.12 154.327 358.176 151.501 358.554 148.72C358.627 148.19 358.424 147.653 357.858 147.498C357.394 147.372 356.708 147.657 356.635 148.193C356.231 151.159 356.115 154.138 356.34 157.124C356.38 157.661 356.768 158.118 357.334 158.118C357.841 158.118 358.368 157.661 358.328 157.124H358.332Z" fill="white"/>
<path d="M434.325 204.838C434.259 202.379 434.193 199.92 434.123 197.461C434.1 196.659 433.911 195.467 434.504 194.897C435.008 194.413 435.982 194.29 436.764 194.168C439.127 193.8 441.523 193.651 443.909 193.531C446.295 193.412 448.647 193.309 451.02 193.197C455.838 192.971 460.66 192.696 465.481 192.594C467.93 192.54 470.382 192.527 472.831 192.557C474.07 192.57 475.31 192.597 476.549 192.63C477.049 192.643 477.56 192.63 478.053 192.693C478.226 192.713 478.435 192.746 478.594 192.809C478.663 192.835 478.713 192.879 478.776 192.905C478.865 192.965 478.859 192.958 478.753 192.882C478.789 192.915 478.826 192.951 478.862 192.988C479.031 193.14 478.786 192.832 478.902 193.041C478.942 193.117 478.991 193.187 479.031 193.263C479.041 193.283 479.157 193.548 479.081 193.356C479.117 193.445 479.147 193.535 479.177 193.624C479.313 194.045 479.402 194.486 479.458 194.923C479.439 194.764 479.465 194.986 479.468 195.023C479.482 195.142 479.492 195.261 479.505 195.38C479.521 195.576 479.535 195.775 479.545 195.97C479.568 196.408 479.575 196.848 479.575 197.289C479.578 199.34 479.323 201.375 479.286 203.426C479.263 204.705 481.251 204.705 481.274 203.426C481.308 201.524 481.543 199.635 481.563 197.733C481.579 196.096 481.589 194.28 480.966 192.743C480.605 191.851 480.048 191.205 479.114 190.894C478.561 190.711 477.954 190.688 477.374 190.668C476.715 190.645 476.052 190.628 475.393 190.612C472.805 190.552 470.216 190.536 467.628 190.569C462.565 190.628 457.508 190.907 452.451 191.142C447.395 191.377 442.239 191.43 437.195 192.113C436.035 192.269 434.783 192.385 433.755 192.994C432.569 193.697 432.128 194.93 432.108 196.255C432.089 197.581 432.175 199.032 432.214 200.414C432.254 201.889 432.294 203.363 432.334 204.841C432.367 206.117 434.358 206.124 434.322 204.841L434.325 204.838Z" fill="white"/>
<path d="M416.667 206.253C418.218 207.049 419.875 207.526 421.611 207.682C423.348 207.837 425.011 207.572 426.665 207.141C428.315 206.711 429.939 206.18 431.655 206.088C433.372 205.995 434.999 206.21 436.642 206.538C440.128 207.238 443.525 208.328 447.097 208.54C448.883 208.646 450.686 208.54 452.442 208.182C454.199 207.824 455.759 207.188 457.393 206.608C459.196 205.965 461.031 205.478 462.944 205.329C464.856 205.18 466.771 205.312 468.64 205.726C469.163 205.842 469.717 205.567 469.863 205.031C469.998 204.53 469.694 203.924 469.167 203.808C465.737 203.042 462.132 203.112 458.745 204.073C457.082 204.547 455.491 205.229 453.844 205.753C452.197 206.277 450.593 206.545 448.906 206.585C445.374 206.664 442.024 205.717 438.614 204.931C436.904 204.537 435.164 204.202 433.408 204.103C431.652 204.003 429.919 204.219 428.215 204.659C426.416 205.123 424.65 205.723 422.774 205.736C421.005 205.753 419.248 205.339 417.671 204.534C417.194 204.288 416.594 204.408 416.312 204.891C416.054 205.335 416.19 206.005 416.67 206.25L416.667 206.253Z" fill="white"/>
<path d="M145.88 175.879C151.083 165.089 159.387 156.49 170.512 151.834C180.734 147.553 192.018 146.549 202.996 146.416C208.663 146.347 214.326 146.529 219.989 146.728C226.67 146.96 233.353 147.082 240.024 147.48C248.769 148 257.557 148.683 266.305 147.848C273.529 147.158 280.216 144.965 286.685 141.714C292.534 138.775 298.015 135.163 303.887 132.27C307.827 130.328 311.979 129.142 316.21 128.028C322.119 126.477 328.123 125.241 334.214 124.708C347.761 123.525 361.204 125.977 374.314 129.198C398.093 135.043 421.418 142.831 444.777 150.131C448.787 151.383 452.8 152.636 456.809 153.885C458.032 154.266 458.559 152.348 457.339 151.967C431.834 144.017 406.414 135.547 380.57 128.741C366.738 125.095 352.446 121.871 338.051 122.471C331.974 122.723 325.943 123.667 320.021 125.036C316.731 125.798 313.463 126.679 310.222 127.63C304.526 129.304 299.386 132.339 294.273 135.279C288.239 138.745 282.125 142.181 275.411 144.159C267.174 146.585 258.332 146.443 249.829 146.052C236.183 145.419 222.547 144.62 208.885 144.434C197.744 144.282 186.335 144.7 175.588 147.921C164.855 151.138 155.5 157.414 148.992 166.597C147.14 169.208 145.556 171.988 144.167 174.871C143.614 176.018 145.327 177.028 145.884 175.875L145.88 175.879Z" fill="white"/>
<path d="M99.8021 190.599C99.9247 187.206 102.49 184.512 104.995 182.513C107.768 180.3 110.936 178.514 114.24 177.235C117.544 175.956 121.113 175.107 124.688 174.832C128.599 174.531 132.469 174.991 136.34 175.525C140.21 176.058 144.452 176.668 148.521 176.234C152.59 175.8 156.275 174.189 160.126 172.957C167.575 170.574 175.472 170.667 183.093 172.141C190.715 173.616 198.592 176.479 206.048 179.458C206.962 179.823 207.873 180.191 208.785 180.562C209.282 180.764 209.878 180.343 210.007 179.866C210.163 179.296 209.812 178.845 209.312 178.643C201.71 175.558 194.022 172.542 186.003 170.723C177.983 168.904 169.977 168.36 162.124 170.316C158.18 171.296 154.482 173.096 150.499 173.928C146.437 174.773 142.235 174.328 138.165 173.785C134.123 173.245 130.077 172.599 125.984 172.768C122.256 172.92 118.541 173.619 115.019 174.839C111.496 176.058 108.133 177.768 105.111 179.952C102.251 182.02 99.4211 184.568 98.2679 188.011C97.9895 188.846 97.847 189.724 97.8172 190.602C97.7708 191.881 99.7591 191.881 99.8055 190.602L99.8021 190.599Z" fill="white"/>
<path d="M832.859 0.544537C810.942 1.60162 764.442 4.04487 742.525 5.09864C731.852 5.61227 721.108 5.81772 710.455 6.67598C706.929 6.96097 703.231 7.58726 700.374 9.83067C696.805 12.6341 695.867 17.5385 690.907 18.5525C686.596 19.4339 682.099 17.9991 677.768 17.9593C673.834 17.9228 670 18.9799 666.378 20.4512C658.306 23.7318 650.87 28.8814 641.893 29.173C636.813 29.3387 631.743 28.444 626.663 28.8516C622.355 29.1962 618.432 30.6774 614.628 32.6491C610.413 34.8329 606.393 37.4077 601.837 38.8491C596.939 40.4 591.803 40.8274 586.689 40.7844C576.689 40.6982 566.764 38.9486 556.75 39.6014C546.736 40.2542 536.881 42.7163 527.075 44.9034C516.706 47.2164 506.421 48.7539 495.777 48.8202C484.838 48.8898 473.909 48.0282 462.971 48.4126C452.662 48.7738 442.528 50.5765 432.474 52.7934C421.774 55.1528 411.111 57.6812 400.434 60.1367C395.215 61.3362 389.995 62.5358 384.776 63.7387C380.936 64.6235 376.598 65.1371 373.251 67.397C371.727 68.4243 368.708 71.7414 370.461 73.7661C371.376 74.8198 374.06 75.5356 375.359 76.0194C377.446 76.7948 379.594 77.3913 381.777 77.8354C399.602 81.4672 418.222 75.5555 435.821 80.8608C440.315 82.2161 444.53 84.4827 449.176 85.3277C453.822 86.1727 458.752 85.563 463.474 84.7644C474.291 82.9385 485.097 81.5832 496.072 81.2684C501.384 81.116 506.699 81.1756 512.008 81.4142L511.305 79.7176C508.409 82.3553 504.989 83.9691 501.132 84.612C500.701 84.6849 500.409 85.1654 500.403 85.5696C500.323 89.2379 504.194 90.696 507.242 91.2328C512.405 92.1408 517.671 92.5351 522.91 92.6345C533.746 92.8433 544.545 91.7498 555.328 90.8285C566.038 89.9139 576.824 89.1352 587.564 90.0233C593.078 90.4773 598.496 91.4449 603.831 92.9096C609.409 94.4405 614.853 95.945 620.669 96.1571C626.484 96.3691 632.144 95.6931 637.844 95.0602C643.646 94.414 649.455 93.7977 655.264 93.2178C667.19 92.0248 679.133 90.9744 691.082 90.0664C702.777 89.175 714.504 88.2405 726.225 87.8164C732.213 87.601 737.306 88.4029 742.605 91.266C747.012 93.6485 751.031 94.8647 756.092 94.6394C769.121 94.0528 782.177 92.4921 795.177 91.4018C808.177 90.3116 822.048 89.1485 835.482 88.0185C836.748 87.9125 836.758 85.9242 835.482 86.0302C812.581 87.9522 789.68 89.8742 766.778 91.7962C761.301 92.2568 755.131 93.5326 749.703 92.217C744.997 91.0738 741.226 87.6937 736.481 86.5604C731.736 85.4271 726.44 85.7883 721.44 86.07C715.611 86.3981 709.782 86.756 703.956 87.1503C680.966 88.7044 658.044 90.8882 635.136 93.3702C629.589 93.97 623.992 94.4803 618.415 94.0396C612.692 93.5856 607.327 91.6901 601.794 90.3149C591.703 87.8064 581.242 87.3823 570.893 87.7898C559.212 88.2505 547.601 89.7184 535.933 90.3679C530.068 90.6927 524.182 90.812 518.314 90.4773C515.202 90.2983 512.097 89.9968 509.015 89.5229C506.759 89.175 502.328 88.6415 502.394 85.573L501.665 86.5306C505.854 85.8314 509.579 83.979 512.717 81.1259C513.386 80.5162 512.829 79.4657 512.014 79.4293C501.848 78.9687 491.664 79.2072 481.538 80.208C476.613 80.6951 471.709 81.3512 466.831 82.1764C461.95 83.0048 456.989 84.095 452.012 83.6974C447.035 83.2997 442.773 81.1358 438.21 79.5452C434.396 78.2164 430.426 77.4476 426.417 77.0235C417.808 76.1188 409.142 76.8479 400.52 77.0533C390.665 77.2886 380.598 76.8247 371.674 72.2053L372.168 73.0636C371.859 69.8724 375.219 68.2884 377.808 67.4567C381.254 66.3499 384.919 65.7468 388.445 64.9349C396.199 63.1521 403.953 61.3694 411.707 59.5866C427.252 56.011 442.913 51.6667 458.888 50.6063C474.662 49.5592 490.468 51.6634 506.232 50.3909C521.482 49.1582 536.036 44.055 551.169 42.1331C558.549 41.1953 565.859 41.4206 573.259 41.9939C580.456 42.5506 587.72 43.2432 594.921 42.3518C601.674 41.5167 607.354 38.879 613.253 35.6514C616.321 33.9713 619.449 32.3144 622.862 31.4595C626.597 30.5217 630.467 30.6973 634.275 30.916C641.244 31.3137 647.454 31.0652 653.965 28.3512C659.632 25.9885 664.944 22.7013 670.865 20.9781C673.957 20.0801 677.055 19.8051 680.256 20.0867C683.457 20.3684 686.427 20.9615 689.522 20.7263C692.03 20.5341 694.416 19.752 696.272 18.0024C698.601 15.8087 699.629 12.5877 702.412 10.8281C705.186 9.07182 708.655 8.76033 711.856 8.57144C715.75 8.34279 719.647 8.19036 723.544 8.00479C731.726 7.61046 739.907 7.21612 748.086 6.82179C764.137 6.04968 780.192 5.27427 796.244 4.50216C800.257 4.30997 828.85 2.7283 832.862 2.5361C834.135 2.47314 834.145 0.484889 832.862 0.54785L832.859 0.544537Z" fill="white"/>
<path d="M540.907 75.2014C549.171 76.782 557.402 74.6513 565.64 73.9985C569.703 73.6771 573.776 73.7665 577.726 74.8634C579.84 75.4499 581.931 76.1823 584.138 76.3247C586.116 76.4507 588.061 75.9801 589.894 75.2643C591.726 74.5486 593.453 73.6472 595.278 72.9514C597.283 72.1925 599.368 71.8081 601.508 71.7485C605.876 71.6225 610.177 72.5636 614.492 73.064C623.7 74.1277 632.989 72.451 642.108 71.2746C651.377 70.0816 660.645 68.8887 669.914 67.6957C671.09 67.5433 672.263 67.3942 673.44 67.2418C673.973 67.1722 674.434 66.8342 674.434 66.2476C674.434 65.7638 673.977 65.1839 673.44 65.2535C664.171 66.4465 654.903 67.6394 645.634 68.8324C641.041 69.4222 636.448 70.0419 631.849 70.5953C627.25 71.1487 622.733 71.5629 618.153 71.3674C613.574 71.1719 609.345 70.1976 604.908 69.8563C602.761 69.6906 600.61 69.7105 598.48 70.0419C596.349 70.3733 594.549 71.0691 592.671 71.9009C590.911 72.6796 589.171 73.5445 587.299 74.025C585.274 74.5453 583.309 74.3431 581.308 73.8196C579.306 73.296 577.192 72.5769 575.055 72.2455C573.043 71.9307 571.012 71.8114 568.977 71.8446C560.739 71.9771 552.627 74.3796 544.359 73.687C543.375 73.6042 542.401 73.4683 541.433 73.2827C540.184 73.0441 539.647 74.9595 540.903 75.2014H540.907Z" fill="white"/>
<path d="M682.371 38.5604C690.423 38.5472 698.469 38.0667 706.465 37.1123C708.768 36.8373 711.064 36.5258 713.358 36.1779C713.888 36.0983 714.183 35.429 714.053 34.9551C713.898 34.3884 713.364 34.1797 712.831 34.2592C704.987 35.4488 697.07 36.1779 689.141 36.4496C686.884 36.5258 684.627 36.5656 682.371 36.5689C681.092 36.5689 681.088 38.5604 682.371 38.5571V38.5604Z" fill="white"/>
<path d="M318.957 216.042C320.79 215.065 322.874 214.69 324.935 214.899C327.149 215.124 329.087 216.38 331.298 216.632C333.349 216.864 335.224 215.989 337.083 215.27C337.869 214.965 338.797 214.637 339.562 214.561C340.437 214.475 341.242 214.641 342.021 214.995C343.761 215.787 345.451 217.083 347.465 216.904C348.466 216.814 349.364 216.397 350.226 215.903C350.981 215.469 351.674 214.988 352.466 214.803C352.764 214.733 353.079 214.743 353.344 214.81C353.732 214.909 353.921 215.015 354.312 215.254C355.007 215.678 355.634 216.208 356.353 216.586C357.208 217.033 358.146 217.248 359.1 217.017C360.054 216.785 360.753 216.175 361.456 215.582C362.158 214.988 362.745 214.405 363.713 214.501C364.766 214.607 365.744 215.356 366.622 215.903C368.339 216.977 371.086 217.838 372.627 215.993C372.971 215.582 373.031 214.992 372.627 214.588C372.272 214.233 371.566 214.173 371.222 214.588C371.079 214.757 370.956 214.866 370.87 214.916C370.668 215.032 370.774 214.985 370.539 215.042C370.28 215.104 369.84 215.085 369.551 215.025C368.637 214.829 367.954 214.392 367.146 213.885C366.211 213.298 365.22 212.725 364.114 212.563C363.073 212.41 362.079 212.662 361.214 213.255C360.482 213.759 359.892 214.402 359.206 214.823C359.024 214.935 358.871 215.012 358.778 215.042C358.593 215.104 358.51 215.121 358.417 215.128C358.315 215.134 358.212 215.128 358.109 215.128C357.834 215.114 358.238 215.184 357.977 215.101C357.778 215.038 357.622 214.998 357.546 214.962C355.962 214.226 354.795 212.775 352.916 212.768C351.962 212.765 351.067 213.143 350.246 213.593C349.503 214.004 348.728 214.544 347.992 214.783C347.571 214.919 347.323 214.952 346.879 214.922C346.567 214.902 346.05 214.753 345.666 214.601C344.914 214.299 344.085 213.789 343.31 213.411C342.389 212.964 341.448 212.622 340.417 212.556C339.386 212.49 338.435 212.705 337.508 213.01C335.768 213.58 333.992 214.621 332.189 214.684C330.999 214.723 329.876 214.293 328.779 213.888C327.586 213.448 326.413 213.09 325.147 212.934C322.682 212.636 320.143 213.159 317.956 214.326C316.826 214.929 317.83 216.645 318.96 216.042H318.957Z" fill="white"/>
<path d="M1.32203 273.41C3.82722 272.439 6.45171 271.408 9.18887 271.624C11.3693 271.796 13.4702 272.826 15.4817 273.678C17.6157 274.579 19.8724 275.434 22.2318 275.275C24.5912 275.116 26.7617 273.983 28.9918 273.174C30.029 272.797 31.096 272.488 32.183 272.482C33.2699 272.475 34.3137 272.797 35.3376 273.204C37.4618 274.049 39.5362 275.275 41.9022 275.186C44.2682 275.096 46.3658 273.589 48.639 272.817C51.0879 271.985 53.6395 272.485 56.0784 273.092C58.6929 273.744 61.2644 274.43 63.9784 274.483C66.6923 274.536 69.2671 274.109 71.7392 273.227C72.3721 273.002 72.9951 272.744 73.6081 272.465C74.0985 272.243 74.2145 271.534 73.966 271.107C73.6711 270.603 73.0978 270.527 72.6073 270.749C70.3407 271.773 67.8587 272.359 65.3734 272.475C64.1208 272.535 62.8517 272.495 61.609 272.313C60.2935 272.121 59.0011 271.786 57.7121 271.455C55.124 270.789 52.4697 270.119 49.7823 270.504C48.5131 270.686 47.3433 271.16 46.1868 271.7C45.1496 272.187 44.129 272.727 43.0123 273.019C40.865 273.579 38.8999 272.588 36.9415 271.736C35.8645 271.269 34.7644 270.805 33.6012 270.616C32.4381 270.427 31.2054 270.49 30.0191 270.775C27.7525 271.322 25.7211 272.555 23.4512 273.092C21.1813 273.628 19.2096 273.045 17.1617 272.233C15.1138 271.421 12.9864 270.315 10.7331 269.854C7.99592 269.294 5.29521 269.854 2.70386 270.775C2.06431 271.004 1.43139 271.246 0.798459 271.491C0.298084 271.683 -0.0498597 272.16 0.102573 272.714C0.235122 273.191 0.821656 273.602 1.32535 273.41H1.32203Z" fill="white"/>
<path d="M192.204 232.074C202.185 229.224 211.672 224.946 221.09 220.635C223.83 219.379 226.574 218.123 229.315 216.871C229.802 216.649 229.924 215.939 229.672 215.512C229.378 215.012 228.801 214.932 228.314 215.154C218.933 219.449 209.604 223.955 199.898 227.481C197.188 228.465 194.451 229.367 191.677 230.155C190.448 230.507 190.971 232.425 192.207 232.074H192.204Z" fill="white"/>
<path d="M270.495 211.591C269.67 212.764 268.245 213.43 266.933 213.95C265.094 214.676 263.232 215.352 261.383 216.048C257.555 217.493 253.725 218.934 249.897 220.379C246.07 221.824 242.517 223.265 238.73 224.399C236.864 224.955 234.969 225.419 233.04 225.694C231.112 225.969 229.272 225.847 227.553 226.616C225.717 227.434 224.597 229.253 223.52 230.86C222.277 232.716 221.091 234.605 219.954 236.524C219.301 237.627 221.018 238.628 221.671 237.528C222.685 235.814 223.742 234.124 224.842 232.461C225.71 231.145 226.588 229.508 227.963 228.647C229.339 227.785 231.304 227.911 232.924 227.702C234.896 227.447 236.831 227.023 238.74 226.473C242.531 225.383 246.202 223.895 249.891 222.503C253.579 221.111 257.598 219.597 261.452 218.142C263.517 217.364 265.598 216.621 267.642 215.799C269.415 215.084 271.089 214.199 272.215 212.598C272.523 212.158 272.295 211.495 271.857 211.24C271.36 210.948 270.807 211.157 270.499 211.598L270.495 211.591Z" fill="white"/>
<path d="M236.225 242.615C241.657 243.609 247.277 243.344 252.572 241.764C257.867 240.183 262.666 237.409 267.477 234.778C269.982 233.41 272.488 232.038 274.993 230.669C276.245 229.983 277.498 229.301 278.751 228.615C279.311 228.31 279.904 228.022 280.315 227.518C280.726 227.014 280.941 226.418 281.011 225.768C281.279 223.177 278.807 221.46 277.322 219.704C275.758 217.852 274.476 215.757 273.492 213.544C273.237 212.971 273.018 212.407 272.607 211.92C272.196 211.433 271.593 211.118 270.977 211.002C269.674 210.757 268.266 210.956 266.96 211.088C265.655 211.221 264.23 211.281 263.212 212.232C262.437 212.957 262.102 214.008 261.761 214.979C261.592 215.456 261.489 215.754 261.234 216.192C260.588 217.298 262.308 218.302 262.951 217.196C263.203 216.765 263.391 216.301 263.564 215.834C263.71 215.443 263.898 214.856 264.018 214.584C264.193 214.177 264.362 213.882 264.621 213.64C264.69 213.574 264.8 213.484 264.975 213.411C265.244 213.295 265.555 213.249 265.84 213.209C267.083 213.034 268.352 212.934 269.608 212.901C270.032 212.888 270.486 212.858 270.874 213.04C271.228 213.209 271.421 213.736 271.58 214.107C272.521 216.278 273.707 218.306 275.159 220.178C275.854 221.076 276.6 221.921 277.395 222.73C278.098 223.449 278.91 224.234 279.036 225.221C279.069 225.48 279.022 225.894 278.88 226.133C278.684 226.454 278.144 226.689 277.75 226.905C276.547 227.564 275.341 228.22 274.138 228.88C271.825 230.146 269.512 231.408 267.202 232.674C262.739 235.113 258.298 237.741 253.47 239.398C248.108 241.237 242.346 241.731 236.762 240.707C236.235 240.611 235.692 240.852 235.539 241.402C235.407 241.886 235.702 242.529 236.235 242.625L236.225 242.615Z" fill="white"/>
<path d="M263.849 216.755C265.135 219.121 266.394 221.503 267.756 223.826C269.118 226.149 270.553 228.26 272.027 230.43C272.329 230.874 272.902 231.07 273.386 230.788C273.827 230.53 274.045 229.874 273.744 229.43C272.273 227.259 270.801 225.092 269.472 222.825C268.144 220.559 266.851 218.12 265.566 215.754C264.952 214.63 263.236 215.631 263.849 216.758V216.755Z" fill="white"/>
<path d="M251.137 221.317C252.453 224.024 253.666 226.798 255.329 229.313C256.993 231.828 258.749 234.463 260.459 237.034C260.757 237.482 261.337 237.674 261.817 237.392C262.261 237.134 262.474 236.481 262.175 236.033C260.465 233.459 258.752 230.887 257.046 228.312C255.339 225.738 254.169 223.02 252.854 220.316C252.618 219.833 251.932 219.703 251.495 219.958C251.001 220.247 250.902 220.833 251.137 221.317Z" fill="white"/>
<path d="M267.771 245.465C267.787 245.031 267.917 244.623 268.192 244.285C268.377 244.057 268.715 243.861 269.156 243.795C269.686 243.719 270.256 243.765 270.79 243.775C271.492 243.785 272.195 243.808 272.897 243.838C275.492 243.954 278.083 244.186 280.668 244.438C285.884 244.945 291.113 245.518 296.362 245.336C297.078 245.309 297.797 245.276 298.509 245.336C298.831 245.362 299.149 245.422 299.46 245.508C299.676 245.568 299.868 245.637 299.971 245.68C300.958 246.131 301.617 246.87 302.088 247.874C302.317 248.361 303.016 248.484 303.447 248.232C303.944 247.94 304.03 247.36 303.805 246.873C303.311 245.819 302.535 244.915 301.555 244.285C300.491 243.603 299.225 243.354 297.976 243.321C296.607 243.281 295.232 243.394 293.86 243.384C292.488 243.374 290.997 243.318 289.569 243.231C283.892 242.887 278.256 242.065 272.573 241.836C271.79 241.806 271.005 241.783 270.223 241.78C269.511 241.773 268.765 241.77 268.089 242.025C266.651 242.569 265.842 243.964 265.786 245.465C265.74 246.744 267.728 246.744 267.774 245.465H267.771Z" fill="white"/>
<path d="M284.571 248.016C284.667 247.711 284.664 247.347 284.677 247.029C284.693 246.608 284.7 246.187 284.697 245.766C284.693 245.345 284.687 244.925 284.664 244.504C284.647 244.189 284.65 243.818 284.544 243.523C284.369 243.036 283.862 242.655 283.321 242.827C282.841 242.983 282.437 243.526 282.626 244.05C282.639 244.086 282.645 244.123 282.652 244.162C282.695 244.361 282.616 243.841 282.642 244.073C282.659 244.229 282.669 244.384 282.679 244.54C282.702 244.948 282.708 245.359 282.712 245.766C282.715 246.174 282.712 246.585 282.695 246.996C282.689 247.151 282.682 247.307 282.665 247.463C282.665 247.486 282.659 247.513 282.659 247.536C282.642 247.711 282.708 247.251 282.682 247.373C282.675 247.41 282.669 247.45 282.659 247.486C282.503 247.983 282.841 248.593 283.355 248.709C283.895 248.832 284.412 248.547 284.577 248.013L284.571 248.016Z" fill="white"/>
<path d="M301.814 231.722C301.814 231.384 301.794 231.046 301.814 230.708C301.817 230.642 301.82 230.573 301.83 230.503C301.804 230.705 301.86 230.413 301.863 230.394C301.88 230.301 301.946 230.294 301.853 230.407C301.721 230.569 301.688 230.516 301.86 230.5C302.427 230.447 303.086 230.42 303.626 230.695C304.349 231.06 305.028 231.557 305.71 231.991C306.834 232.707 307.951 233.432 309.054 234.175C309.574 234.523 310.091 234.877 310.602 235.238C310.807 235.384 311.012 235.533 311.218 235.682C311.301 235.745 311.384 235.808 311.466 235.868C311.208 235.676 311.496 235.894 311.556 235.944C312.308 236.56 313.269 237.286 313.667 238.204C313.647 238.158 313.62 238.082 313.687 238.27C313.736 238.416 313.776 238.562 313.813 238.714C313.852 238.89 313.892 239.115 313.905 239.221C313.932 239.457 313.942 239.695 313.945 239.934C313.945 240.027 313.945 240.123 313.939 240.216C313.939 240.252 313.899 240.656 313.925 240.461C313.852 240.991 314.055 241.528 314.621 241.684C315.085 241.813 315.771 241.524 315.844 240.988C315.983 239.98 315.953 238.943 315.672 237.959C315.36 236.859 314.601 235.997 313.776 235.242C312.746 234.297 311.602 233.502 310.449 232.72C309.23 231.895 307.997 231.09 306.754 230.298C306.035 229.84 305.323 229.33 304.564 228.939C303.48 228.382 301.691 228.193 300.631 228.896C299.713 229.506 299.825 230.755 299.832 231.719C299.842 232.998 301.83 233.002 301.82 231.719L301.814 231.722Z" fill="white"/>
<path d="M309.674 236.193C309.644 236.047 309.704 236.431 309.701 236.392C309.701 236.355 309.694 236.322 309.691 236.285C309.681 236.179 309.671 236.07 309.661 235.964C309.638 235.662 309.615 235.358 309.595 235.056C309.548 234.407 309.505 233.76 309.465 233.111C309.456 232.965 309.446 232.816 309.439 232.67C309.406 232.153 309.005 231.65 308.445 231.676C307.935 231.699 307.418 232.113 307.451 232.67C307.517 233.75 307.587 234.831 307.673 235.911C307.693 236.179 307.709 236.461 307.762 236.726C307.868 237.237 308.498 237.578 308.985 237.422C309.525 237.246 309.794 236.746 309.681 236.199L309.674 236.193Z" fill="white"/>
<path d="M178.212 235.614C188.133 239.776 198.575 242.463 209.033 244.875C219.491 247.288 230.542 249.803 241.378 251.861C252.254 253.922 263.239 255.529 274.3 256.099C285.362 256.669 296.363 256.232 307.295 254.81C310.036 254.455 312.766 254.045 315.487 253.567C316.826 253.332 318.164 253.084 319.496 252.822C320.653 252.593 321.919 252.461 322.993 251.957C324.066 251.453 324.629 250.426 324.441 249.26C324.252 248.093 323.543 247.046 322.963 246.075C321.74 244.017 320.275 242.092 318.625 240.362C317.813 239.511 316.952 238.712 316.047 237.956C315.073 237.141 313.658 238.54 314.642 239.361C316.408 240.839 318.035 242.503 319.42 244.349C320.103 245.257 320.733 246.204 321.309 247.182C321.597 247.672 321.872 248.166 322.131 248.673C322.323 249.044 322.708 249.664 322.353 250.038C322.104 250.297 321.597 250.36 321.269 250.433C320.597 250.585 319.921 250.714 319.245 250.85C317.956 251.109 316.667 251.351 315.374 251.579C312.736 252.046 310.089 252.457 307.434 252.805C296.877 254.184 286.203 254.644 275.566 254.174C264.82 253.697 254.149 252.215 243.575 250.26C233.071 248.315 222.652 245.939 212.237 243.576C202.124 241.28 192.003 238.841 182.301 235.13C181.104 234.672 179.918 234.195 178.738 233.702C178.238 233.493 177.652 233.927 177.516 234.397C177.353 234.967 177.718 235.415 178.212 235.62V235.614Z" fill="white"/>
<path d="M322.833 250.254C318.83 254.015 314.466 257.368 309.79 260.248C307.47 261.68 305.074 263.108 302.503 264.039C299.799 265.016 296.972 265.242 294.119 265.351C288.078 265.58 282.031 265.682 275.986 265.696C270.048 265.709 264.073 265.745 258.162 265.099C252.25 264.453 246.617 262.959 240.927 261.537C235.303 260.132 229.68 258.714 224.08 257.223C212.979 254.267 201.944 251.016 191.181 246.983C188.47 245.969 185.78 244.905 183.112 243.785C182.767 243.639 182.423 243.494 182.081 243.348C181.773 243.215 181.747 243.219 181.588 242.954C181.236 242.37 181.038 241.621 180.809 240.979C180.338 239.643 179.961 238.278 179.669 236.893C179.295 235.116 178.864 232.777 179.97 231.153C180.557 230.295 181.482 230.239 182.443 230.428C183.901 230.716 185.345 231.1 186.79 231.438C198.196 234.122 209.579 236.916 221.015 239.464C232.45 242.012 244.078 244.349 255.739 246.049C267.265 247.729 278.892 248.812 290.547 248.888C296.379 248.928 302.208 248.706 308.02 248.216C309.432 248.096 310.854 248.007 312.259 247.825C313.336 247.686 314.426 247.447 315.314 246.781C317.368 245.243 316.941 242.662 315.556 240.836C314.058 238.861 311.791 237.489 309.753 236.131C307.556 234.663 305.283 233.304 302.954 232.058C298.291 229.566 293.384 227.518 288.333 225.961C285.888 225.205 283.406 224.572 280.901 224.049C279.651 223.79 279.118 225.705 280.37 225.967C290.776 228.134 300.704 232.34 309.482 238.337C311.304 239.58 313.955 241.038 314.674 243.285C315.496 245.853 311.732 245.896 310.164 246.035C304.286 246.562 298.401 246.88 292.495 246.897C280.745 246.93 269.004 245.936 257.376 244.282C245.748 242.629 234.144 240.329 222.645 237.784C211.11 235.229 199.638 232.419 188.139 229.708C186.684 229.364 185.229 229.023 183.775 228.685C182.466 228.38 181.134 228.108 179.861 228.698C178.078 229.523 177.442 231.587 177.323 233.403C177.164 235.852 177.893 238.44 178.638 240.747C178.844 241.376 179.066 242.002 179.311 242.616C179.556 243.229 179.762 244.017 180.166 244.528C180.54 245.001 181.422 245.204 181.965 245.432C182.678 245.734 183.394 246.032 184.113 246.327C194.826 250.724 205.877 254.24 217.028 257.352C222.658 258.922 228.315 260.394 233.978 261.829C239.641 263.263 245.271 264.784 250.981 265.941C256.823 267.124 262.715 267.548 268.666 267.634C274.618 267.72 280.765 267.674 286.809 267.542C289.788 267.475 292.777 267.426 295.753 267.253C298.599 267.088 301.38 266.653 304.027 265.56C309.077 263.472 313.78 260.235 318.084 256.901C320.218 255.248 322.273 253.498 324.241 251.649C325.176 250.771 323.767 249.366 322.836 250.244L322.833 250.254Z" fill="white"/>
<path d="M216.788 222.372C217.739 220.669 218.69 218.965 219.638 217.259L220.32 216.036C220.367 215.953 220.672 215.532 220.642 215.459L220.231 215.658H220.241C220.291 215.721 220.622 215.718 220.718 215.734C221.676 215.88 222.633 216.026 223.591 216.172C225.96 216.533 228.33 216.881 230.706 217.216C236.193 217.988 241.688 218.717 247.182 219.439C249.71 219.771 252.239 220.102 254.767 220.423C255.3 220.493 255.761 219.916 255.761 219.429C255.761 218.836 255.3 218.505 254.767 218.435C249.737 217.792 244.64 217.12 239.656 216.45C234.523 215.761 229.284 215.039 224.121 214.253C223.058 214.091 221.994 213.929 220.93 213.769C220.314 213.677 219.704 213.574 219.217 214.061C218.843 214.436 218.617 215.009 218.365 215.466C217.269 217.434 216.172 219.403 215.072 221.371C214.449 222.491 216.165 223.492 216.788 222.375V222.372Z" fill="white"/>
<path d="M187.648 222.968C189.371 223.7 191.094 224.432 192.821 225.168C194.371 225.828 195.929 226.583 197.642 226.683C199.355 226.782 200.803 225.967 201.625 224.512C202.447 223.057 202.815 221.132 203.027 219.422C203.239 217.712 203.179 215.929 202.232 214.461C201.463 213.272 200.28 212.423 199.011 211.824C197.669 211.194 196.214 210.677 194.769 210.346C193.019 209.948 191.25 210.044 189.822 211.224C188.393 212.404 187.707 214.206 187.267 215.873C186.75 217.825 186.683 219.843 187.002 221.831C187.088 222.361 187.747 222.656 188.224 222.527C188.788 222.371 189.003 221.838 188.92 221.304C188.695 219.903 188.738 218.438 189.03 217.049C189.301 215.76 189.742 214.405 190.541 213.338C191.293 212.331 192.39 211.963 193.649 212.148C194.908 212.334 196.177 212.798 197.357 213.262C198.335 213.646 199.372 214.19 200.104 214.955C200.952 215.843 201.194 217.096 201.131 218.375C201.059 219.853 200.747 221.361 200.25 222.752C199.862 223.833 199.163 224.664 198.02 224.698C196.568 224.741 195.14 224.008 193.821 223.448C192.098 222.716 190.375 221.984 188.649 221.248C188.155 221.039 187.585 221.099 187.29 221.606C187.045 222.023 187.151 222.756 187.648 222.965V222.968Z" fill="white"/>
<path d="M196.977 224.618C196.808 222.951 196.841 221.035 197.574 219.488C197.879 218.842 198.309 218.235 198.903 217.864C199.201 217.679 199.443 217.566 199.784 217.483C200.069 217.414 200.42 217.41 200.689 217.47C201.212 217.586 201.766 217.311 201.911 216.774C202.047 216.277 201.743 215.667 201.216 215.551C199.098 215.084 197.063 216.297 196.04 218.126C194.963 220.045 194.767 222.464 194.986 224.618C195.039 225.151 195.403 225.612 195.98 225.612C196.474 225.612 197.03 225.154 196.974 224.618H196.977Z" fill="white"/>
<path d="M186.979 221.721C186.399 224.856 186.839 228.051 188.258 230.907C188.496 231.388 189.176 231.52 189.616 231.265C190.107 230.98 190.213 230.387 189.974 229.906C188.811 227.56 188.42 224.83 188.894 222.252C188.99 221.725 188.748 221.178 188.198 221.029C187.714 220.896 187.075 221.191 186.975 221.725L186.979 221.721Z" fill="white"/>
<path d="M201.139 223.227C201.67 223.684 202.186 224.161 202.68 224.658C202.912 224.89 203.141 225.126 203.356 225.374C203.403 225.427 203.449 225.483 203.495 225.54C203.572 225.633 203.36 225.351 203.456 225.49C203.476 225.52 203.499 225.55 203.519 225.58C203.608 225.712 203.684 225.851 203.747 226L203.648 225.762C203.688 225.861 203.721 225.961 203.747 226.063C203.87 226.567 204.47 226.918 204.97 226.759C205.47 226.6 205.798 226.077 205.666 225.536C205.46 224.701 204.867 224.052 204.284 223.452C203.731 222.885 203.154 222.342 202.551 221.825C202.349 221.649 202.124 221.533 201.848 221.533C201.603 221.533 201.315 221.643 201.146 221.825C200.805 222.196 200.725 222.869 201.146 223.23L201.139 223.227Z" fill="white"/>
<path d="M144.875 262.759C147.994 260.145 152.451 259.346 156.271 260.589C157.375 260.947 158.462 261.487 159.658 261.391C160.738 261.305 161.696 260.841 162.624 260.307C163.426 259.847 164.152 259.353 165.043 259.217C165.401 259.164 166.024 259.257 166.481 259.379C167.114 259.552 167.734 259.777 168.37 259.939C171.154 260.655 174.106 260.619 176.876 259.86C178.109 259.522 177.585 257.603 176.346 257.941C173.964 258.591 171.445 258.647 169.043 258.057C167.797 257.749 166.577 257.172 165.268 257.212C164.171 257.242 163.174 257.699 162.233 258.233C161.395 258.707 160.649 259.237 159.724 259.389C159.413 259.442 158.83 259.359 158.409 259.237C157.822 259.061 157.256 258.816 156.669 258.63C154.542 257.964 152.275 257.878 150.085 258.253C147.642 258.67 145.356 259.76 143.461 261.351C143.05 261.696 143.103 262.401 143.461 262.756C143.868 263.164 144.455 263.101 144.866 262.756L144.875 262.759Z" fill="white"/>
<path d="M229.283 216.493L229.79 220.675C229.88 221.404 229.946 222.143 230.059 222.869C230.171 223.595 230.648 223.963 231.311 224.171C233.903 224.983 236.56 225.59 239.241 226.024C239.771 226.11 240.311 225.888 240.464 225.328C240.593 224.854 240.301 224.191 239.768 224.105C237.346 223.714 234.95 223.174 232.597 222.481C232.375 222.415 231.984 222.206 231.765 222.23C231.599 222.16 231.623 222.206 231.841 222.375C232 222.597 232.05 222.624 231.994 222.448C232.014 222.392 231.961 222.167 231.957 222.124L231.732 220.274L231.275 216.497C231.208 215.963 230.864 215.503 230.281 215.503C229.794 215.503 229.22 215.96 229.287 216.497L229.283 216.493Z" fill="white"/>
<path d="M230.572 221.987C226.907 223.19 223.467 224.97 219.981 226.6C216.495 228.23 212.658 229.682 208.884 230.941C206.657 231.683 204.413 232.386 202.173 233.085C200.957 233.466 201.474 235.385 202.704 235.004C206.624 233.778 210.55 232.551 214.394 231.1C218.093 229.705 221.625 227.988 225.204 226.322C227.132 225.424 229.081 224.569 231.102 223.906C231.613 223.74 231.944 223.22 231.798 222.683C231.662 222.183 231.089 221.822 230.575 221.987H230.572Z" fill="white"/>
<path d="M314.539 247.063C315.417 247.328 316.332 247.52 317.25 247.593C318.168 247.666 318.963 247.616 319.818 247.831C321.349 248.219 322.707 249.22 323.062 250.791C323.178 251.314 323.784 251.622 324.285 251.486C324.825 251.337 325.097 250.791 324.981 250.264C324.523 248.216 322.827 246.738 320.898 246.078C319.881 245.73 318.801 245.631 317.734 245.624C316.829 245.618 315.934 245.409 315.073 245.147C313.847 244.776 313.32 246.695 314.542 247.066L314.539 247.063Z" fill="white"/>
<path d="M277.309 29.4548C282.671 28.126 288.499 29.193 293.165 32.1953C294.471 33.037 295.654 34.0245 296.728 35.1545C297.092 35.5389 297.768 35.5355 298.133 35.1545C302.056 31.0554 308.18 30.7372 313.369 32.0992C315.059 32.5432 316.709 33.1397 318.313 33.829C318.807 34.041 319.38 33.9748 319.672 33.4711C319.917 33.0502 319.811 32.3245 319.314 32.1124C316.206 30.7737 312.981 29.7199 309.592 29.4283C306.569 29.1698 303.504 29.6205 300.74 30.893C299.243 31.5822 297.864 32.5532 296.721 33.7461H298.126C293.957 29.3587 287.92 26.88 281.885 26.9032C280.165 26.9099 278.442 27.1253 276.775 27.5395C275.533 27.8477 276.06 29.7663 277.306 29.4581L277.309 29.4548Z" fill="white"/>
<path d="M293.515 36.2116C295.51 35.9829 297.511 35.804 299.516 35.6715C300.033 35.6383 300.536 35.2374 300.51 34.6773C300.487 34.167 300.073 33.6468 299.516 33.6832C297.511 33.8158 295.513 33.9947 293.515 34.2233C293.001 34.283 292.494 34.6376 292.521 35.2175C292.544 35.7046 292.961 36.2746 293.515 36.2116Z" fill="white"/>
<path d="M667.131 6.67032C668.225 6.45161 669.381 6.42841 670.478 6.63055C671.058 6.73659 671.631 6.89565 672.184 7.1011C672.738 7.30656 673.271 7.70752 673.858 7.82019C674.673 7.97925 675.19 7.42254 675.601 6.80618C675.813 6.48475 676.158 6.14012 676.472 5.92472C677.248 5.39452 678.202 5.13936 679.054 5.27523C679.584 5.36139 680.124 5.13936 680.277 4.57934C680.406 4.10548 680.114 3.44273 679.581 3.35657C678.351 3.16106 677.165 3.32674 676.045 3.87351C675.538 4.12204 675.061 4.46667 674.653 4.8577C674.431 5.06978 674.239 5.30837 674.053 5.55358C673.984 5.64637 673.894 5.74578 673.845 5.85182C673.742 6.07053 673.788 5.91147 673.851 5.89821H674.382C674.11 5.86176 673.855 5.66294 673.603 5.55027C673.268 5.39784 672.923 5.25535 672.575 5.12942C671.972 4.91403 671.353 4.75828 670.72 4.66218C669.335 4.44679 667.969 4.4733 666.594 4.74834C666.067 4.85438 665.766 5.48068 665.898 5.97111C666.047 6.5212 666.594 6.77304 667.121 6.667L667.131 6.67032Z" fill="white"/>
<path d="M672.842 9.23851C672.998 9.15898 673.157 9.08276 673.316 9.01649L673.078 9.1159C673.565 8.91707 674.072 8.7779 674.592 8.70831L674.327 8.74476C674.771 8.68842 675.218 8.67848 675.666 8.71493C675.908 8.73482 676.203 8.58901 676.368 8.42333C676.534 8.25764 676.67 7.96934 676.66 7.72081C676.633 7.14422 676.222 6.77639 675.666 6.72669C674.343 6.61071 673.008 6.91557 671.835 7.52199C671.374 7.76058 671.199 8.44652 671.477 8.88062C671.782 9.35117 672.342 9.49367 672.836 9.23851H672.842Z" fill="white"/>
<path d="M476.402 190.068C482.894 185.608 489.833 181.81 497.086 178.739C503.919 175.842 511.027 173.592 518.251 171.896C525.124 170.279 532.109 169.165 539.134 168.466C542.621 168.118 546.13 167.816 549.632 167.724C553.804 167.614 557.98 167.906 562.115 168.446C569.482 169.407 576.683 171.236 583.916 172.88C584.685 173.055 585.454 173.224 586.226 173.39C587.475 173.659 588.006 171.74 586.756 171.472C579.605 169.941 572.537 168.052 565.303 166.912C561.164 166.259 556.986 165.812 552.794 165.725C549.066 165.649 545.338 165.924 541.623 166.242C534.492 166.859 527.384 167.866 520.385 169.374C513.088 170.948 505.911 173.072 498.972 175.829C491.632 178.745 484.564 182.341 477.939 186.648C477.085 187.205 476.24 187.772 475.398 188.348C474.351 189.068 475.345 190.794 476.402 190.065V190.068Z" fill="white"/>
<path d="M436.249 234.25C439.132 231.344 443.755 232.122 447.281 233.209C451.653 234.559 456.36 236.568 460.945 234.917C462.899 234.212 464.605 232.995 466.532 232.244C468.558 231.454 470.199 231.786 471.989 232.949C473.615 234.006 475.15 235.203 477.134 235.447C479.118 235.691 480.843 235.009 482.519 234.162C484.316 233.254 486.019 232.072 487.999 231.599C489.857 231.157 491.765 231.546 493.544 232.137C497.165 233.338 500.486 235.436 504.333 235.901C508.396 236.393 511.698 234.25 515.22 232.595C517.014 231.748 518.983 231.1 520.971 231.576C523.058 232.08 524.802 233.487 526.729 234.379C534.338 237.903 541.428 232.068 548.721 230.558C553.268 229.616 557.259 231.664 561.684 232.236C563.878 232.518 565.95 232.236 567.98 231.367C570.009 230.497 571.712 229.281 573.722 228.568C577.656 227.168 581.727 228.442 585.494 229.773C589.26 231.104 593.095 232.682 597.158 232.663C605.35 232.625 612.003 224.67 620.369 227.16C624.379 228.354 627.898 230.94 632.083 231.607C636.124 232.251 639.936 230.921 643.603 229.342C647.271 227.763 651.045 225.78 655.142 225.826C659.24 225.872 663.357 228.053 667.34 229.372C669.347 230.036 671.407 230.486 673.528 230.524C674.998 230.551 674.998 228.263 673.528 228.236C669.149 228.16 665.219 226.001 661.14 224.663C657.084 223.332 653.151 223.24 649.095 224.613C645.039 225.986 641.661 228.068 637.685 229.063C635.678 229.563 633.626 229.674 631.604 229.185C629.581 228.697 627.552 227.721 625.598 226.817C621.782 225.052 618.02 223.763 613.789 224.701C609.558 225.639 606.271 227.912 602.436 229.311C598.335 230.806 594.53 230.421 590.44 229.09C586.587 227.835 582.832 226.1 578.757 225.719C576.803 225.536 574.789 225.738 572.945 226.428C570.931 227.18 569.149 228.392 567.184 229.243C562.61 231.226 558.249 228.758 553.68 228.125C549.635 227.565 545.812 228.846 542.099 230.322C538.588 231.718 534.821 233.54 530.944 233.212C526.774 232.862 523.808 229.102 519.531 229.117C515.255 229.132 512.269 231.988 508.556 233.205C500.806 235.745 494.26 226.886 486.4 229.693C482.923 230.936 479.301 234.646 475.481 232.499C473.798 231.554 472.332 230.162 470.42 229.674C468.509 229.185 466.601 229.693 464.837 230.505C462.907 231.393 461.121 232.679 459.003 233.094C456.528 233.582 453.995 232.938 451.634 232.213C447.651 230.993 443.69 229.422 439.444 230.162C437.612 230.482 435.948 231.313 434.638 232.637C433.602 233.682 435.217 235.302 436.253 234.254L436.249 234.25Z" fill="white"/>
<path d="M602.76 276.499C606.035 274.809 609.523 272.986 613.278 272.792C616.804 272.609 619.881 274.275 623.126 275.385C626.359 276.495 629.478 276.598 632.643 275.221C635.807 273.844 638.37 271.705 641.562 270.58C644.753 269.455 648.401 269.043 651.855 269.512C653.516 269.737 655.157 270.172 656.722 270.775C658.447 271.438 660.024 272.411 661.669 273.25C664.975 274.931 668.593 275.778 672.306 275.423C675.284 275.141 678.14 274.253 680.908 273.15C686.366 270.981 691.865 267.648 697.874 267.438C701.096 267.323 703.944 268.426 706.797 269.821C709.649 271.217 712.338 272.666 715.441 272.971C718.968 273.318 721.862 271.545 724.73 269.749C727.533 267.995 730.537 266.759 733.793 266.153C737.049 265.546 740.538 265.6 743.813 266.309C747.206 267.045 750.092 268.59 753.078 270.298C756.064 272.006 759.004 273.189 762.401 272.88C765.504 272.597 768.387 271.366 771.194 270.084C774.001 268.803 776.963 267.323 780.105 266.729C783.864 266.015 787.706 266.908 791.252 268.155C793.065 268.792 794.839 269.539 796.602 270.302C797.939 270.878 799.104 268.906 797.756 268.326C794.207 266.797 790.597 265.241 786.77 264.566C783.216 263.941 779.732 264.2 776.331 265.401C770.657 267.407 764.606 272.094 758.303 270.214C754.986 269.226 752.221 266.915 749.045 265.577C745.869 264.238 742.632 263.575 739.285 263.468C735.937 263.361 732.552 263.857 729.391 264.951C727.814 265.497 726.28 266.183 724.832 267.015C723.385 267.846 721.9 268.914 720.346 269.703C713.971 272.941 708.29 267.045 702.303 265.6C696.316 264.154 690.36 266.587 684.899 268.979C679.031 271.553 672.77 274.428 666.25 272.639C662.656 271.652 659.655 269.272 656.105 268.14C652.807 267.091 649.266 266.797 645.838 267.24C642.411 267.682 639.201 268.887 636.204 270.656C633.206 272.426 630.419 274.352 626.927 273.974C623.435 273.597 620.624 271.732 617.402 270.927C613.773 270.02 610.129 270.714 606.716 272.106C604.972 272.819 603.285 273.661 601.613 274.527C600.307 275.202 601.461 277.177 602.767 276.502L602.76 276.499Z" fill="white"/>
<path d="M69.0356 247.189C70.7531 245.366 73.3769 245.18 75.8218 245.431C78.8951 245.748 82.0369 246.968 85.2434 246.808C86.8733 246.728 88.3509 246.247 89.8514 245.645C91.15 245.126 92.5057 244.527 93.9338 244.611C95.0762 244.676 96.1692 245.336 97.1936 245.969C98.3589 246.69 99.5319 247.449 100.869 247.822C103.344 248.516 105.808 247.689 108.051 246.648C110.294 245.607 112.11 244.424 114.441 244.02C114.498 244.009 114.559 244.001 114.616 243.994C114.563 244.001 114.433 244.013 114.666 243.994C114.784 243.982 114.902 243.974 115.02 243.967C115.317 243.952 115.614 243.963 115.907 243.99C116.041 244.001 115.926 243.99 115.9 243.986C115.98 243.997 116.06 244.013 116.14 244.024C116.261 244.047 116.379 244.074 116.498 244.104C116.814 244.184 117.126 244.291 117.423 244.428C118.756 245.057 119.925 245.973 121.288 246.545C124.297 247.803 127.602 247.132 130.58 246.129C132.05 245.633 133.486 245.035 134.956 244.546C135.52 244.36 136.091 244.199 136.666 244.066C136.959 243.997 137.256 243.94 137.553 243.887C137.679 243.864 137.808 243.845 137.938 243.826C138.067 243.807 138.071 243.807 138.273 243.784C138.863 243.719 139.461 243.688 140.055 243.7C140.345 243.708 140.638 243.723 140.927 243.749C141.19 243.776 141.255 243.784 141.59 243.849C141.864 243.902 142.135 243.971 142.397 244.051C142.508 244.085 142.622 244.123 142.732 244.161C142.805 244.188 142.877 244.215 142.95 244.241C142.835 244.196 142.95 244.241 142.995 244.26C143.239 244.371 143.475 244.497 143.704 244.638C143.982 244.81 144.02 244.836 144.21 245C144.416 245.18 144.602 245.37 144.781 245.576C144.899 245.713 144.789 245.568 144.896 245.717C144.991 245.851 145.078 245.984 145.162 246.125C145.924 247.38 147.9 246.232 147.135 244.97C144.29 240.283 137.843 241.053 133.448 242.659C130.523 243.727 127.439 245.157 124.255 244.935C122.789 244.832 121.562 244.199 120.329 243.448C119.095 242.697 117.842 241.972 116.391 241.766C113.801 241.4 111.383 242.472 109.113 243.593C108.07 244.108 106.901 244.714 105.941 245.092C104.833 245.527 103.809 245.813 102.757 245.801C102.617 245.801 102.479 245.793 102.339 245.782C102.259 245.774 102.179 245.771 102.099 245.759C102.125 245.759 102.236 245.778 102.099 245.759C101.771 245.706 101.451 245.622 101.139 245.515C100.56 245.317 100 245.004 99.4443 244.672C98.2409 243.955 97.0908 243.158 95.7617 242.686C94.2956 242.163 92.7304 242.255 91.2604 242.697C89.7904 243.139 88.4461 243.849 86.9761 244.245C83.7658 245.107 80.4717 243.871 77.3147 243.345C74.5651 242.888 71.4995 242.83 69.0165 244.291C68.4262 244.638 67.8817 245.077 67.4133 245.572C66.4041 246.644 68.0188 248.265 69.0279 247.189H69.0356Z" fill="white"/>
</svg>
