<svg width="202" height="55" viewBox="0 0 202 55" fill="none" xmlns="http://www.w3.org/2000/svg">
<g opacity="0.8">
<mask id="mask0_558_563" style="mask-type:alpha" maskUnits="userSpaceOnUse" x="0" y="0" width="202" height="55">
<rect width="202" height="55" fill="#D9D9D9"/>
</mask>
<g mask="url(#mask0_558_563)">
<path d="M-65.9219 5.46006C-48.9273 17.9301 -29.5316 17.9301 -12.537 5.46006C4.45759 17.9301 23.8532 17.9301 40.8478 5.46006C57.8424 17.9301 77.2381 17.9301 94.2327 5.46006L94.4383 5.62006C111.342 19.0801 130.919 19.9801 148.253 8.08006L152.069 5.46006L159.719 10.2701C174.845 19.7801 191.562 19.7401 206.675 10.1701L214.35 5.31006L221.958 10.1401C237.036 19.7101 253.71 19.7801 268.817 10.3501L276.637 5.47005L283.526 9.80006C299.063 19.5701 316.257 19.2601 331.655 8.94006L337.068 5.31006L349.116 12.3301C363.231 20.5601 378.617 20.5901 392.739 12.4201L404.768 5.46006L409.504 8.62006C425.301 19.1501 442.955 19.1501 458.752 8.62006L463.487 5.46006L471.138 10.2701C486.264 19.7801 502.98 19.7401 518.094 10.1701L525.769 5.31006L532.893 9.82006C548.34 19.6101 565.443 19.4201 580.811 9.30006L586.629 5.47005L596.705 11.5201C611.232 20.2501 627.156 20.2501 641.689 11.5201L651.765 5.46006C668.759 17.9301 688.155 17.9301 705.15 5.46006C722.144 17.9301 741.54 17.9301 758.534 5.46006C775.529 17.9301 794.925 17.9301 811.919 5.46006L812.125 5.62006C829.029 19.0801 848.606 19.9801 865.939 8.08006L869.755 5.46006L877.406 10.2701C892.532 19.7801 909.248 19.7401 924.362 10.1701L932.037 5.31006L939.645 10.1401C954.722 19.7101 971.396 19.7801 986.504 10.3501L994.324 5.47005L1001.21 9.80006C1016.75 19.5701 1033.94 19.2601 1049.34 8.94006L1054.75 5.31006L1066.8 12.3301C1080.92 20.5601 1096.3 20.5901 1110.43 12.4201L1122.45 5.46006L1127.19 8.62006C1142.99 19.1501 1160.64 19.1501 1176.44 8.62006L1181.17 5.46006L1188.82 10.2701C1203.95 19.7801 1220.67 19.7401 1235.78 10.1701L1243.46 5.31006L1250.58 9.82006C1266.03 19.6101 1283.13 19.4201 1298.5 9.30006L1304.32 5.47005L1314.39 11.5201C1328.92 20.2501 1344.84 20.2501 1359.38 11.5201L1369.45 5.46006" stroke="#C7C6C7" stroke-width="7" stroke-miterlimit="10"/>
<path d="M-65.9219 22.4601C-48.9273 34.9301 -29.5316 34.9301 -12.537 22.4601C4.45759 34.9301 23.8532 34.9301 40.8478 22.4601C57.8424 34.9301 77.2381 34.9301 94.2327 22.4601L94.4383 22.6201C111.342 36.0801 130.919 36.9801 148.253 25.0801L152.069 22.4601L159.719 27.2701C174.845 36.7801 191.562 36.7401 206.675 27.1701L214.35 22.3101L221.958 27.1401C237.036 36.7101 253.71 36.7801 268.817 27.3501L276.637 22.4701L283.526 26.8001C299.063 36.5701 316.257 36.2601 331.655 25.9401L337.068 22.3101L349.116 29.3301C363.231 37.5601 378.617 37.5901 392.739 29.4201L404.768 22.4601L409.504 25.6201C425.301 36.1501 442.955 36.1501 458.752 25.6201L463.487 22.4601L471.138 27.2701C486.264 36.7801 502.98 36.7401 518.094 27.1701L525.769 22.3101L532.893 26.8201C548.34 36.6101 565.443 36.4201 580.811 26.3001L586.629 22.4701L596.705 28.5201C611.232 37.2501 627.156 37.2501 641.689 28.5201L651.765 22.4601C668.759 34.9301 688.155 34.9301 705.15 22.4601C722.144 34.9301 741.54 34.9301 758.534 22.4601C775.529 34.9301 794.925 34.9301 811.919 22.4601L812.125 22.6201C829.029 36.0801 848.606 36.9801 865.939 25.0801L869.755 22.4601L877.406 27.2701C892.532 36.7801 909.248 36.7401 924.362 27.1701L932.037 22.3101L939.645 27.1401C954.722 36.7101 971.396 36.7801 986.504 27.3501L994.324 22.4701L1001.21 26.8001C1016.75 36.5701 1033.94 36.2601 1049.34 25.9401L1054.75 22.3101L1066.8 29.3301C1080.92 37.5601 1096.3 37.5901 1110.43 29.4201L1122.45 22.4601L1127.19 25.6201C1142.99 36.1501 1160.64 36.1501 1176.44 25.6201L1181.17 22.4601L1188.82 27.2701C1203.95 36.7801 1220.67 36.7401 1235.78 27.1701L1243.46 22.3101L1250.58 26.8201C1266.03 36.6101 1283.13 36.4201 1298.5 26.3001L1304.32 22.4701L1314.39 28.5201C1328.92 37.2501 1344.84 37.2501 1359.38 28.5201L1369.45 22.4601" stroke="#C7C6C7" stroke-width="7" stroke-miterlimit="10"/>
<path d="M-65.9219 39.4601C-48.9273 51.9301 -29.5316 51.9301 -12.537 39.4601C4.45759 51.9301 23.8532 51.9301 40.8478 39.4601C57.8424 51.9301 77.2381 51.9301 94.2327 39.4601L94.4383 39.6201C111.342 53.0801 130.919 53.9801 148.253 42.0801L152.069 39.4601L159.719 44.2701C174.845 53.7801 191.562 53.7401 206.675 44.1701L214.35 39.3101L221.958 44.1401C237.036 53.7101 253.71 53.7801 268.817 44.3501L276.637 39.4701L283.526 43.8001C299.063 53.5701 316.257 53.2601 331.655 42.9401L337.068 39.3101L349.116 46.3301C363.231 54.5601 378.617 54.5901 392.739 46.4201L404.768 39.4601L409.504 42.6201C425.301 53.1501 442.955 53.1501 458.752 42.6201L463.487 39.4601L471.138 44.2701C486.264 53.7801 502.98 53.7401 518.094 44.1701L525.769 39.3101L532.893 43.8201C548.34 53.6101 565.443 53.4201 580.811 43.3001L586.629 39.4701L596.705 45.5201C611.232 54.2501 627.156 54.2501 641.689 45.5201L651.765 39.4601C668.759 51.9301 688.155 51.9301 705.15 39.4601C722.144 51.9301 741.54 51.9301 758.534 39.4601C775.529 51.9301 794.925 51.9301 811.919 39.4601L812.125 39.6201C829.029 53.0801 848.606 53.9801 865.939 42.0801L869.755 39.4601L877.406 44.2701C892.532 53.7801 909.248 53.7401 924.362 44.1701L932.037 39.3101L939.645 44.1401C954.722 53.7101 971.396 53.7801 986.504 44.3501L994.324 39.4701L1001.21 43.8001C1016.75 53.5701 1033.94 53.2601 1049.34 42.9401L1054.75 39.3101L1066.8 46.3301C1080.92 54.5601 1096.3 54.5901 1110.43 46.4201L1122.45 39.4601L1127.19 42.6201C1142.99 53.1501 1160.64 53.1501 1176.44 42.6201L1181.17 39.4601L1188.82 44.2701C1203.95 53.7801 1220.67 53.7401 1235.78 44.1701L1243.46 39.3101L1250.58 43.8201C1266.03 53.6101 1283.13 53.4201 1298.5 43.3001L1304.32 39.4701L1314.39 45.5201C1328.92 54.2501 1344.84 54.2501 1359.38 45.5201L1369.45 39.4601" stroke="#C7C6C7" stroke-width="7" stroke-miterlimit="10"/>
</g>
</g>
</svg>
