<svg width="1440" height="784" viewBox="0 0 1440 784" fill="none" xmlns="http://www.w3.org/2000/svg">
<path d="M1174.39 782.516C1182.69 781.438 1190.81 779.638 1198.64 776.66C1206.48 773.682 1213.91 769.281 1222.13 767.403C1239.11 763.525 1253.88 776.86 1270.9 776.815C1278.19 776.804 1296.55 774.604 1291.92 762.825C1290.26 758.613 1285.48 756.28 1281.63 754.591C1274.16 751.301 1266.14 749.39 1258.84 745.723C1243.14 737.866 1230.6 721.198 1221.92 706.341C1218.6 700.64 1213.69 693.139 1213.14 686.494C1212.32 676.415 1224.61 671.704 1232.79 674.604C1249.62 680.582 1249.82 704.052 1253.85 718.298C1256.29 726.943 1259.67 735.422 1268.9 738C1286.51 742.911 1305.86 735.8 1323.68 735.622C1325.71 735.6 1331.23 735.122 1332.49 737.333C1334.34 740.589 1325.56 745.89 1323.64 747.279C1319.63 750.157 1308.51 755.135 1307.36 760.658C1306.18 766.358 1316.44 772.47 1320.54 774.515C1329.41 778.915 1339.6 780.271 1349.38 780.76C1372.66 781.938 1395.85 777.782 1418.86 774.937C1428.45 773.748 1438.06 770.026 1436.29 758.524C1435.37 752.546 1432.17 747.134 1430.28 741.445C1426.85 731.132 1431.42 723.587 1435.03 714.186C1437.52 707.696 1438.96 700.829 1439.17 693.873C1439.33 688.339 1439.57 679.46 1435.75 674.882C1428.29 665.925 1416.6 677.927 1411.07 682.983C1398.71 694.306 1384.58 703.707 1369.38 710.797C1353.65 718.131 1332.87 725.165 1316.73 715.086C1302.76 706.363 1292.96 687.805 1286.24 673.248C1282.27 664.658 1277.26 654.024 1277.3 644.367C1277.35 634.577 1284.09 626.743 1289.17 618.976C1296.49 607.774 1303.1 594.928 1300.83 581.116C1298.7 568.103 1288.49 559.658 1275.81 557.524C1261.48 555.113 1246.43 560.614 1233.22 565.614C1221.01 570.237 1208.09 577.871 1205.54 591.85C1203.07 605.43 1213.81 612.686 1222.11 621.276C1225.81 625.11 1229.8 630.277 1230.03 635.911C1230.33 642.911 1224.82 646.868 1218.52 647.468C1210.76 648.201 1203.31 644.678 1197.05 640.433C1173.89 624.732 1163.07 596.273 1138.56 581.994C1111.47 566.225 1077.78 567.725 1047.66 563.925C1028.3 561.48 1009.06 557.958 990.083 553.435C981.216 551.324 972.403 548.99 963.658 546.434C956.668 544.39 949.223 541.267 941.8 542.089C932.788 543.089 923.565 552.857 930.421 561.591C933.421 565.414 938.733 566.87 943.267 567.803C952.19 569.637 961.213 570.981 970.137 572.815C1006.05 580.205 1041.38 590.472 1075.66 603.452C1091.49 609.452 1107.29 616.042 1121.45 625.432C1127.99 629.766 1134.14 634.711 1139.57 640.378C1145.53 646.612 1150.23 653.879 1155.96 660.325C1161.42 666.47 1168.05 671.337 1174.04 676.926C1180.64 683.083 1186.24 690.195 1190.65 698.073C1197.15 709.686 1205.25 729.432 1200.68 742.811C1198.7 748.645 1194.46 754.891 1189.86 758.935C1183.53 764.492 1170.83 760.836 1162.87 761.869C1146.89 763.947 1132.19 771.059 1116.44 774.137C1107.93 775.804 1098.95 776.471 1090.44 774.437C1086.52 773.504 1082.69 772.015 1079.32 769.781C1071.8 764.836 1077.38 758.48 1082.06 754.568C1092.81 745.59 1105.2 736.844 1119.56 736.311C1126.81 736.044 1133.34 735.933 1139.99 732.655C1146.38 729.51 1151.77 724.587 1156.69 719.531C1165.25 710.763 1171.47 703.152 1163.39 691.672C1158.64 684.916 1152.69 678.815 1147.36 672.515C1142 666.203 1136.76 659.747 1130.88 653.913C1122.15 645.267 1111.51 637.389 1098.87 636.355C1091.07 635.722 1083.67 638.122 1076.07 639.389C1065.04 641.222 1055.08 638.633 1045.3 633.533C1030.32 625.721 1016.89 615.253 1001.8 607.574C978.282 595.606 944.745 588.45 923.043 608.341C911.441 618.976 922.42 628.021 930.81 636.011C934.377 639.4 937.955 642.778 941.511 646.19C946.634 651.09 951.068 657.335 944.178 662.869C935.988 669.448 919.364 658.347 912.319 653.857C898.651 645.134 880.905 630.399 877.86 613.508C876.148 604.029 881.66 595.14 885.694 586.939C889.083 580.049 892.628 573.237 896.551 566.636C904.129 553.846 913.197 541.389 925.243 532.444C939.367 521.943 955.735 518.809 973.092 519.876C1010.81 522.198 1047.41 530.955 1083.9 540.067C1119.95 549.057 1156.13 552.135 1193.23 550.224C1211.41 549.29 1229.52 547.401 1247.58 545.123C1260.85 543.456 1274.83 542.123 1286.88 535.866C1298.57 529.81 1303.64 520.165 1306.52 507.697C1308.46 499.273 1310.07 490.284 1317.94 485.272C1321.49 483.016 1326.42 481.494 1330.27 484.016C1336.78 488.272 1334.23 497.295 1330.95 502.485C1324.13 513.297 1311.14 518.131 1309.62 532.199C1307.83 548.768 1320.03 563.525 1320.76 579.96C1321.51 596.684 1316.23 613.208 1312.01 629.177C1309.21 639.733 1305.48 652.379 1310.74 662.758C1319.6 680.238 1345.53 698.006 1365.69 693.35C1378.69 690.35 1388.59 679.938 1396.55 669.859C1406.83 656.858 1415.34 642.512 1421.88 627.276C1435.45 595.617 1438.44 561.558 1439.12 527.477C1439.31 517.998 1443.27 497.796 1431.87 492.75C1422.21 488.472 1414.39 499.918 1411.05 507.341C1403.57 523.987 1397.72 541.556 1391.13 558.569C1385.87 572.126 1375.56 597.029 1356.35 587.494C1337.91 578.349 1341.04 553.135 1347.42 537.344C1353.63 521.954 1364.91 509.319 1379.29 501.118C1392.49 493.595 1406.62 488.394 1417.06 476.893C1425.29 467.848 1430.8 456.724 1434.2 445.045C1437.9 432.322 1439.16 418.898 1438.87 405.685C1438.64 395.484 1439.1 381.049 1431.22 373.182C1421.74 363.714 1413.06 378.205 1407.08 384.394C1395.33 396.562 1382.43 407.63 1368.6 417.398C1354.46 427.388 1338.68 437.778 1321.94 442.734C1306.35 447.346 1284.27 444.856 1277.8 427.143C1273.24 414.62 1288.31 410.875 1297.25 407.708C1305.57 404.763 1313.95 402.085 1322.03 398.507C1338.02 391.428 1352.88 382.072 1367.84 373.082C1383.93 363.403 1400.24 354.013 1416.13 344.012C1425.85 337.889 1436.41 330.221 1440.03 318.742C1447.91 293.74 1419.18 276.649 1397.61 281.194C1365.66 287.928 1351.01 320.531 1330.9 342.434C1318.4 356.047 1303.72 365.003 1284.92 365.525C1271.03 365.914 1257.36 365.614 1247.87 377.427C1238.58 388.995 1236.68 407.674 1223.34 415.864C1217.12 419.687 1206.41 419.798 1202.2 412.664C1197.21 404.23 1207.4 395.473 1210.61 388.383C1215.71 377.104 1212.33 364.547 1210.05 353.013C1208.62 345.779 1207.21 338.111 1208.79 330.766C1209.73 326.399 1211.15 320.587 1218.39 322.932C1220.04 323.465 1222.11 325.699 1223.34 326.843C1225.89 329.221 1228.05 331.866 1230.87 333.977C1248.16 346.957 1275.64 343.078 1287.96 325.154C1297.33 311.531 1299.24 295.329 1314.24 285.85C1327.19 277.671 1343.34 275.76 1358.34 275.382C1383.15 274.76 1423.3 278.494 1436.99 251.591C1442.42 240.923 1438.03 229.399 1428.75 222.587C1417.25 214.142 1401.6 214.998 1388.08 215.831C1361.34 217.476 1333.54 223.165 1310.74 237.889C1300.44 244.545 1291.44 253.069 1284.6 263.281C1279.89 270.326 1276.38 278.26 1270.63 284.572C1262.62 293.351 1248.33 298.029 1240.28 286.472C1230.39 272.293 1236.13 250.746 1247.35 239.189C1257.86 228.355 1271.81 222.921 1281.22 210.708C1287.33 202.774 1292.83 196.24 1303.45 195.062C1312.01 194.118 1320.79 195.673 1329.35 195.662C1347.59 195.651 1365.67 192.506 1383.46 188.806C1397.69 185.839 1414.35 183.95 1426.36 175.038C1435.22 168.459 1441.98 156.113 1437.19 145.134C1431.65 132.444 1417.3 138.378 1407.52 141.89C1391.91 147.479 1377.08 155.28 1361.07 159.758C1343.06 164.803 1326.94 162.592 1309.31 157.269C1298.6 154.035 1278.63 145.501 1268.25 153.413C1264.91 155.958 1263.45 160.103 1262.48 164.025C1260.47 172.148 1259.58 179.427 1254.22 186.306C1242.91 200.818 1224.09 204.93 1206.55 204.73C1198.46 204.63 1182.74 201.607 1178.75 211.697C1176.64 217.031 1180.24 222.143 1182.68 226.61C1187.27 235.022 1191.32 243.712 1194.66 252.691C1197.44 260.147 1199.77 267.759 1201.64 275.493C1203.7 284.016 1206.08 305.63 1190.31 298.685C1174.31 291.639 1181.27 268.281 1175.75 254.802C1170.46 241.878 1159.55 232.511 1151.5 221.409C1146.7 214.786 1143.81 207.83 1141.6 199.985C1139.7 193.262 1137.74 186.761 1133.57 181.072C1129.37 175.36 1121.66 168.026 1115.62 175.493C1111.13 181.038 1111.7 188.05 1114.35 194.273C1118.5 203.941 1125.9 212.008 1131.92 220.509C1134.73 224.476 1137.47 228.577 1139.54 232.977C1141.43 237 1145.46 247.012 1141.42 250.913C1137.03 255.169 1126.67 248.857 1122.75 246.501C1115.75 242.278 1110.3 236.633 1105.94 229.699C1097.72 216.631 1093.95 201.041 1090.63 186.128C1088.65 177.26 1086.79 167.615 1089.59 158.714C1093.18 147.312 1104.48 142.334 1115.15 147.979C1121.06 151.113 1125.9 156.725 1131.49 160.525C1137.37 164.525 1143.71 167.837 1150.29 170.526C1174.88 180.561 1209.64 183.861 1233.01 168.681C1243 162.192 1250.16 150.868 1248.59 138.623C1246.72 124.043 1232.22 120.843 1225.15 109.897C1223.09 106.686 1222.13 102.241 1222.88 98.4514C1224.46 90.3394 1232.2 91.4951 1237.81 95.84C1243.19 100.007 1248.25 104.397 1253.96 108.141C1265.07 115.431 1277.19 121.143 1289.82 125.254C1316.19 133.844 1344.84 135.4 1371.99 129.755C1385.35 126.977 1398.36 122.41 1410.44 116.064C1420.7 110.675 1433.47 103.763 1436.62 91.6396C1439.39 81.0051 1434.31 69.526 1426.32 62.4919C1416.5 53.8465 1402.4 52.3908 1389.93 54.1465C1372.21 56.6468 1356.55 65.8256 1339.71 71.2484C1321.84 76.9935 1302.66 78.4159 1284.13 75.4711C1267.19 72.7819 1252.67 65.4144 1237.12 58.7137C1223.72 52.9353 1210.79 50.8128 1196.38 53.7687C1179.73 57.1802 1164.09 64.5588 1146.76 63.9365C1129.78 63.3253 1113.67 56.4801 1101.12 45.1344C1101.12 45.9234 1101.12 46.7013 1101.12 47.4902C1112.74 35.3445 1129.45 49.6127 1142.2 51.6796C1156.01 53.9243 1168.85 46.7902 1181.49 42.5008C1208.77 33.2553 1239.09 33.7109 1266.19 43.3787C1278.78 47.8792 1290.46 57.2358 1303.91 58.9471C1313.45 60.1583 1322.81 57.3802 1331.55 53.7576C1343.24 48.9126 1354.32 42.2674 1366.72 39.3449C1381.76 35.789 1395.69 41.8674 1410.57 42.7453C1420.36 43.3231 1431.05 41.1896 1437.19 32.8886C1442.08 26.2768 1443.13 16.8313 1437.19 10.5195C1430.52 3.44094 1419.4 3.64096 1410.47 4.18547C1396.04 5.06334 1381.65 7.44138 1367.69 11.2196C1353.3 15.12 1339.44 20.9651 1324.82 24.0099C1308.54 27.3991 1293.77 24.9544 1278.43 19.076C1265.54 14.1421 1253.1 8.37482 1239.37 6.13013C1227.09 4.11879 1214.5 4.34104 1202.28 6.71908C1188.83 9.33048 1177.83 15.2422 1165.66 21.1207C1149.46 28.9549 1133.39 23.0098 1117.93 16.4424C1106.97 11.7863 1095.66 7.08579 1083.55 7.08579C1074.93 7.08579 1062.54 10.1861 1058.77 19.0649C1055.41 26.9546 1061.79 37.8781 1066.16 44.1899C1072.28 53.0353 1080.64 60.0583 1089.45 66.0923C1100.05 73.3487 1111.52 79.5049 1122.93 85.3722C1134.72 91.4173 1147.1 96.7401 1160.35 98.4403C1174.54 100.263 1193.54 95.7956 1203.71 108.697C1210.33 117.109 1206.08 127.455 1197.42 132.389C1190.25 136.467 1181.43 136.467 1173.43 136.056C1147.62 134.755 1122.41 125.343 1101.56 110.197C1090.47 102.141 1080.59 92.3952 1072.49 81.3384C1065.27 71.4929 1059.86 60.525 1053.72 50.0016C1043.91 33.1776 1032.5 19.865 1013.87 13.3198C996.395 7.17469 977.504 3.46316 959.013 2.32971C948.456 1.68519 928.288 -0.159457 930.221 15.5867C931.388 25.0989 939.067 31.544 946.645 36.5224C956.846 43.2231 968.492 46.3012 980.604 46.6013C994.828 46.9569 1010.9 44.101 1023.53 52.4352C1029.75 56.5357 1033.87 63.4253 1033.15 71.0373C1032.17 81.6829 1022.35 84.6054 1013.17 83.5053C1001.88 82.1496 990.828 77.5047 980.327 73.4042C964.958 67.4147 949.679 60.6473 935.611 51.9796C927.176 46.7791 909.652 36.3223 912.086 24.0543C913.33 17.7536 919.275 13.6421 911.664 8.7193C903.474 3.41871 891.439 2.99645 882.049 2.15191C866.903 0.807315 851.657 0.629518 836.466 0.707304C822.854 0.785091 809.241 1.16291 795.64 1.67408C790.728 1.86299 781.971 0.518395 777.315 2.64085C767.103 7.30803 799.229 23.4654 801.707 24.7989C829.266 39.556 857.835 52.5241 886.327 65.3478C910.174 76.0823 934.099 86.6723 958.291 96.6179C984.649 107.452 1011.04 120.687 1039.04 126.677C1041.81 127.266 1044.61 127.755 1047.43 127.932C1050.05 128.099 1052.85 127.688 1055.39 128.433C1060.31 129.855 1063.51 135.433 1057.49 137.9C1050.48 140.778 1042.06 137.434 1035.24 135.478C1027.7 133.311 1020.19 131.066 1012.7 128.744C984.049 119.854 955.768 109.753 927.965 98.507C899.44 86.9613 871.404 74.1932 843.967 60.2472C817.52 46.8013 792.217 30.6884 765.003 18.8204C742.756 9.11934 718.764 3.27425 694.473 7.21913C683.094 9.06378 671.937 13.1087 662.48 19.7872C656.813 23.7765 647.801 30.1328 649.123 38.2003C650.368 45.8123 659.769 49.3571 666.259 50.9017C679.049 53.9354 692.862 53.202 705.896 55.3578C734.844 60.1472 762.825 69.5816 789.717 81.1717C816.331 92.6508 841.934 106.319 867.27 120.354C870.381 122.076 873.482 123.81 876.582 125.532C879.015 126.888 883.538 128.399 885.316 130.511C893.495 140.223 879.927 142.378 874.715 142.49C870.181 142.59 865.681 141.69 861.358 140.4C846.278 135.911 832.144 127.477 817.809 121.076C790.595 108.919 762.78 98.1181 734.488 88.717C719.742 83.8165 704.874 79.3049 689.895 75.1822C679.805 72.4041 669.648 69.7371 659.08 70.615C651.735 71.2262 643.823 73.5598 639.433 79.9272C637.667 82.483 636.389 84.8499 637.489 87.6836C639 91.5729 643.434 94.951 646.823 97.1068C656.124 103.041 667.548 104.597 678.115 106.93C692.061 110.008 705.785 114.098 719.153 119.143C747.401 129.799 771.937 145.69 797.406 161.514C817.987 174.293 840.345 185.661 865.147 185.561C886.027 185.472 906.163 177.416 917.664 159.38C921.231 153.791 924.043 147.512 928.721 142.712C935.277 135.978 947.879 131.877 953.268 142.312C961.369 157.98 943.756 170.215 932.055 176.516C907.263 189.884 878.771 195.996 850.679 194.718C820.109 193.329 794.195 181.983 767.759 167.492C750.323 157.936 719.553 138.489 700.674 154.791C693.973 160.581 691.484 169.815 696.162 177.671C700.874 185.583 710.363 189.484 718.576 192.573C748.846 203.974 779.338 214.798 809.719 225.91C837.033 235.9 867.348 251.491 897.217 248.779C920.176 246.701 939.4 233.055 955.168 217.087C964.136 208.008 972.215 198.107 980.193 188.161C984.994 182.183 992.017 172.804 1000.43 179.783C1008.46 186.461 1005.21 197.885 1002.28 206.23C985.583 253.957 993.106 307.663 1028.11 345.545C1044.42 363.192 1065.48 376.349 1088.44 383.427C1093.92 385.116 1099.52 386.439 1105.17 387.394C1109.17 388.072 1115.13 389.839 1119 388.706C1126.9 386.383 1132.55 374.326 1134.5 367.27C1149.12 314.275 1080.8 291.606 1054.59 259.247C1045.19 247.646 1039.68 233.3 1039.08 218.354C1038.8 211.297 1039.54 204.208 1041.38 197.385C1042.21 194.284 1043.11 189.706 1045.24 187.228C1048 184.028 1051.89 181.472 1055.25 185.572C1056.26 186.817 1056.66 188.85 1057.05 190.35C1058.34 195.351 1057.8 200.44 1057.92 205.53C1058.06 211.731 1059.42 217.809 1061.79 223.543C1066.01 233.8 1073.14 242.801 1081.29 250.224C1101.88 268.959 1128.59 279.216 1147.76 299.774C1166.21 319.565 1177.57 346.557 1171.84 373.76C1166.2 400.474 1145.06 419.365 1117.79 421.509C1092.33 423.51 1066.67 413.52 1046.19 398.962C1024.59 383.605 1006.55 363.27 993.428 340.278C986.761 328.599 981.36 316.209 977.382 303.363C974.415 293.762 974.215 280.638 968.181 272.371C961.702 263.492 951.89 268.904 943.645 271.926C930.354 276.782 916.464 279.927 902.385 281.349C875.304 284.094 847.568 280.427 822.154 270.67C808.541 265.448 796.284 258.113 783.994 250.368C773.393 243.679 762.38 236.889 750.101 233.789C730.155 228.755 707.574 234.078 698.984 254.458C691.006 273.393 695.962 297.462 702.274 316.175C708.108 333.466 724.209 352.335 744.312 343.078C744.778 342.856 745.201 342.156 745.134 341.634C743.701 329.977 734.855 315.553 741.345 304.296C747.256 294.051 762.147 292.773 772.281 296.262C784.161 300.352 793.239 310.03 802.718 317.831C811.119 324.743 820.331 330.366 830.477 334.333C853.513 343.334 875.971 341.078 899.684 336.622C913.708 333.977 928.61 331.388 942.534 335.967C950.89 338.711 957.002 345.601 951.779 354.324C947.301 361.792 938 363.247 930.032 363.581C900.529 364.781 870.203 361.647 841.122 356.913C828.965 354.935 804.063 350.524 802.907 369.437C802.496 376.193 807.052 381.972 811.097 386.894C817.998 395.295 824.798 402.163 825.543 413.542C826.087 421.765 827.443 428.488 835.322 432.622C841.878 436.066 850.212 436.255 857.235 434.233C868.892 430.877 877.815 421.643 888.183 415.809C902.351 407.841 918.442 408.975 934.088 407.697C952.657 406.185 977.537 396.551 976.604 374.093C975.771 374.571 974.937 375.049 974.093 375.538C992.595 387.983 988.939 419.865 967.536 426.965C947.712 433.533 923.476 423.165 908.985 442.745C905.04 448.068 902.596 455.191 905.685 461.503C909.797 469.892 920.175 471.115 928.365 472.437C947.967 475.582 969.725 477.638 988.272 468.948C997.806 464.481 1003.92 457.091 1010.92 449.523C1014.82 445.312 1019.24 441.156 1025.02 439.856C1032.18 438.245 1038.88 441.5 1044.68 445.334C1053.95 451.457 1061.85 459.102 1072.34 463.247C1083.04 467.481 1094.72 468.57 1106.14 468.181C1131.57 467.303 1157.17 460.847 1181.86 455.157C1207.04 449.357 1245.13 435.122 1263.2 462.258C1281.4 489.595 1242.36 506.119 1222.33 511.842C1197.96 518.809 1171.98 520.098 1147.01 515.786C1121.4 511.375 1099.48 500.574 1077.52 487.172C1058.14 475.337 1038.27 466.57 1015.79 475.315C1004.55 479.682 994.339 486.494 982.76 490.006C971.192 493.517 959.046 492.717 947.123 493.051C937.922 493.306 928.31 494.128 920.031 498.518C911.141 503.229 905.93 511.464 900.651 519.676C897.595 524.432 894.428 529.21 890.139 532.955C884.872 537.555 878.282 540.178 872.281 543.612C863.458 548.657 856.68 555.657 852.301 564.87C842.534 585.405 845.956 610.375 851.435 631.599C856.669 651.868 865.825 667.87 881.627 681.66C896.462 694.606 913.897 707.208 933.621 710.808C946.134 713.097 971.27 719.142 979.993 706.307C986.127 697.273 979.526 685.338 978.849 675.737C978.326 668.225 980.271 660.525 986.305 655.657C994.784 648.812 1005.83 654.079 1010.8 662.514C1017.55 673.982 1017.6 689.039 1016.69 701.907C1016.06 710.752 1018.55 715.353 1027.11 718.531C1043.24 724.509 1062.99 718.009 1072.24 703.485C1075.77 697.94 1077.55 691.206 1082.02 686.25C1090.94 676.349 1102.28 683.271 1106.07 693.973C1108.66 701.273 1110.53 709.93 1106.7 717.053C1103.52 722.965 1098.28 727.743 1092.71 731.332C1082.32 738.011 1070.06 741.378 1058.16 744.234C1044.03 747.623 1029.39 749.846 1014.83 748.612C1000.08 747.367 986.772 741.622 972.937 736.888C960.68 732.699 947.979 730.077 935.044 729.321C922.154 728.565 909.119 729.621 896.517 732.444C887.916 734.366 878.071 736.677 870.57 741.545C866.503 744.189 862.725 748.523 864.858 753.657C867.37 759.702 874.904 758.791 880.116 757.657C891.428 755.191 901.207 748.701 912.341 745.845C926.51 742.211 941.745 744.356 954.468 751.479C963.814 756.702 972.081 763.503 983.06 764.792C995.239 766.236 1007.11 761.758 1019.23 761.925C1022.34 761.969 1027.44 761.814 1030.02 763.736C1030.65 763.969 1031.28 764.214 1031.91 764.447C1031.63 766.414 1031.35 768.392 1031.08 770.359C1030.05 771.626 1025.99 772.715 1024.45 773.281C1017.36 775.893 1009.84 777.137 1002.33 777.76C988.883 778.893 973.337 779.938 960.624 774.915C949.212 770.403 939.744 763.858 927.076 763.325C914.675 762.803 902.807 766.603 891.139 770.326C878.549 774.348 865.947 777.993 852.679 778.793C842.367 779.415 829.577 779.704 820.253 774.537C805.83 766.536 824.209 748.501 831.288 741.745C840.2 733.233 850.29 728.054 860.88 722.12C866.803 718.809 873.704 713.886 873.459 706.307C873.237 699.34 866.87 694.517 860.336 693.839C850.123 692.773 840.556 700.34 833.51 706.841C825.198 714.497 818.52 723.787 812.608 733.377C805.707 744.589 800.207 757.346 790.506 766.525C785.594 771.17 779.493 774.871 772.781 776.16C768.459 776.993 762.758 776.926 758.924 774.47C753.257 770.848 756.002 764.758 760.925 762.18C778.904 752.779 786.894 735.433 793.217 716.953C798.962 700.162 810.475 685.638 821.454 671.926C829.243 662.191 837.578 654.38 837.2 640.834C836.544 617.309 816.409 601.896 811.175 579.993C805.463 556.057 825.954 530.088 850.579 529.777C860.636 529.655 872.004 534.666 881.171 528.354C888.172 523.532 891.05 513.786 893.55 506.108C899.251 488.617 897.173 466.981 875.082 464.325C854.613 461.869 839.733 479.493 829.065 494.462C800.962 533.877 789.472 582.227 783.094 629.477C779.827 653.746 779.427 678.793 774.137 702.729C768.614 727.699 754.457 746.734 730.944 757.257C720.12 762.102 708.597 765.181 697.018 767.603C686.927 769.714 675.115 773.304 664.803 770.992C655.691 768.948 653.035 761.513 658.958 753.568C661.08 750.712 663.736 748.301 666.659 746.267C672.67 742.089 679.649 739.444 686.616 737.344C700.929 733.021 715.809 731.099 730.299 727.51C739.989 725.109 752.602 721.854 758.18 712.664C762.98 704.752 761.28 692.261 752.246 688.272C738.744 682.305 719.82 690.906 707.852 697.018C687.272 707.53 672.437 725.598 654.324 739.456C634.544 754.579 611.319 764.48 587.117 770.026C562.536 775.659 537.078 776.937 511.953 775.526C509.397 775.382 505.319 775.848 503.041 774.826C502.529 774.759 502.007 774.682 501.496 774.615C500.985 771.337 500.474 768.059 499.962 764.781C500.44 763.747 503.919 761.769 505.319 760.869C511.286 757.024 517.942 754.335 524.743 752.346C536.178 749.001 548.068 747.634 559.836 745.978C584.027 742.567 607.097 735.244 628.154 722.72C637.922 716.909 646.956 710.075 655.502 702.596C665.225 694.073 674.715 684.827 686.461 679.093C705.574 669.759 730.977 673.359 745.412 655.302C759.136 638.144 755.668 614.219 760.636 594.117C762.936 584.827 765.992 574.615 763.469 565.047C762.191 560.202 759.202 553.902 753.302 554.291C740.378 555.146 733.188 576.76 734.211 587.139C735.455 599.818 741.656 611.897 740.7 624.81C739.733 637.844 730.443 649.79 718.153 654.124C706.585 658.202 694.206 656.569 683.016 662.314C673.793 667.059 666.303 674.515 659.28 682.005C651.19 690.628 643.445 699.54 633.833 706.541C623.276 714.242 611.297 719.953 598.673 723.298C576.927 729.065 554.424 725.398 533.055 733.31C516.742 739.344 501.34 747.679 485.95 755.713C473.804 762.058 460.125 771.17 446.334 773.281C441.723 773.982 436.933 772.081 439.667 766.425C442.134 761.336 450.346 759.624 455.213 758.269C467.103 754.935 481.627 753.335 491.228 744.823C498.751 738.155 502.218 721.665 493.517 714.508C485.539 707.941 472.404 712.43 464.259 716.275C446.023 724.876 438.556 744.723 424.432 757.924C408.363 772.948 386.039 780.516 364.203 779.982C352.835 779.704 341.489 777.215 331.199 772.315C329.033 771.281 326.877 770.17 324.832 768.903C323.076 767.825 321.354 766.792 319.82 765.358C316.631 762.369 317.187 762.403 318.698 757.691C320.309 752.668 319.765 753.068 323.799 751.335C325.221 750.723 326.643 750.19 328.099 749.679C331.322 748.545 334.633 747.656 337.967 746.879C362.281 741.245 388.717 743.912 412.064 734.077C418.654 731.299 426.854 725.621 425.288 717.32C423.865 709.763 414.698 703.729 408.341 700.585C391.284 692.15 370.726 694.762 353.58 701.518C332.044 710.019 314.52 726.476 295.951 739.867C274.338 755.457 251.413 769.614 224.677 773.826C197.918 778.038 170.571 774.248 144.223 769.114C131.266 766.592 118.265 763.869 105.041 763.358C92.6397 762.869 80.7273 765.103 68.7704 768.192C45.5679 774.17 23.9432 778.86 -0.0038414 774.748C-9.62712 773.093 -19.6838 770.426 -27.918 765.003C-36.6634 759.247 -43.742 748.323 -47.6758 738.778C-53.2875 725.143 -47.4202 706.896 -29.8405 709.308C-15.7278 711.241 -11.8718 724.821 -8.04918 736.355C-2.40411 753.401 7.6081 769.125 28.1104 765.269C37.0558 763.592 49.2016 758.646 54.78 751.057C59.2805 744.923 57.7581 736.066 54.291 729.754C44.6011 712.097 24.3544 699.273 6.5191 691.35C-3.43756 686.927 -13.7943 683.505 -24.2843 680.582C-30.7739 678.771 -37.8858 677.149 -42.4419 671.792C-46.7646 666.703 -46.2312 658.635 -39.5527 655.902C-36.3745 654.602 -32.2741 654.602 -28.907 654.491C-0.38166 653.557 24.4322 671.592 44.3677 690.039C62.592 706.907 79.4383 725.065 100.641 738.344C120.498 750.779 142.867 759.424 166.181 762.314C208.397 767.547 253.802 751.446 278.838 715.986C291.573 697.962 296.696 669.848 320.62 663.003C333.577 659.302 348.446 660.691 361.625 662.514C374.638 664.314 387.406 667.503 399.94 671.381C446.301 685.716 489.995 709.419 539.245 712.353C559.247 713.542 579.882 711.575 598.562 703.963C618.076 696.006 630.388 682.594 643.223 666.481C650.69 657.102 658.947 650.523 670.292 646.445C678.571 643.478 687.205 641.489 695.24 637.867C709.541 631.421 718.698 617.131 710.864 601.84C701.34 583.249 679.56 579.816 661.18 585.527C649.879 589.05 639.111 595.017 629.221 601.429C621.287 606.585 613.997 612.919 610.608 621.998C606.452 633.144 606.763 644.601 598.796 654.235C592.395 661.969 583.327 667.059 573.926 670.259C553.191 677.304 530.955 676.115 509.641 672.848C483.616 668.859 458.113 661.414 434.022 650.79C410.164 640.267 389.761 625.587 367.926 611.675C350.49 600.573 330.088 594.095 311.319 606.052C292.417 618.098 284.128 639.611 276.082 659.447C265.87 684.627 251.602 706.163 225.199 716.22C201.641 725.198 175.327 721.954 154.358 708.052C133.3 694.095 125.977 672.581 114.787 651.29C105.452 633.533 91.5063 621.176 71.3263 617.853C50.2684 614.397 28.8549 618.953 7.73035 619.198C-4.03762 619.331 -16.4168 618.364 -27.2513 613.397C-39.5415 607.752 -48.9426 594.051 -37.8302 582.227C-17.5169 560.602 12.8976 584.483 33.7554 592.639C57.0469 601.751 82.0163 605.652 106.875 607.152C133.311 608.741 159.936 607.885 186.383 606.841C211.042 605.863 236.033 603.452 258.791 593.262C283.639 582.138 304.852 565.459 333.1 564.036C361.08 562.636 388.384 572.426 413.242 584.349C454.302 604.052 495.929 632.588 543.667 627.176C560.625 625.254 577.782 618.898 589.361 605.885C594.973 599.585 600.596 591.039 600.318 582.26C600.051 574.048 593.995 568.048 587.072 564.503C565.07 553.257 536.611 558.491 512.953 558.391C485.216 558.269 458.013 552.09 431.899 543.089C387.383 527.754 335.6 492.651 286.995 511.097C275.838 515.331 266.137 522.287 256.291 528.866C245.59 536.011 234.366 542.245 222.476 547.19C198.84 557.024 173.271 562.114 147.668 562.047C101.863 561.947 60.6029 542.867 19.8539 524.021C8.17484 518.62 -3.50423 513.219 -15.1833 507.819C-24.351 503.574 -34.5521 500.029 -43.2308 494.851C-48.1203 491.928 -49.0981 486.561 -44.4532 482.594C-39.2193 478.127 -28.9181 476.871 -22.373 476.549C-8.76036 475.882 4.18552 480.005 16.2424 485.994C37.7114 496.662 56.7024 511.186 79.5161 519.187C121.532 533.922 168.426 531.688 210.064 516.798C231.011 509.308 250.546 498.596 268.259 485.172C286.106 471.637 303.485 461.247 326.754 463.381C358.98 466.325 391.773 472.415 423.165 480.171C443.945 485.305 462.014 495.084 480.672 505.385C500.929 516.564 522.898 526.999 546.656 525.565C567.181 524.332 585.038 512.786 592.906 493.551C599.94 476.338 597.062 456.969 585.05 442.745C572.415 427.788 553.491 422.087 534.522 425.554C512.653 429.544 492.762 443.423 470.215 443.89C447.301 444.367 434.6 425.321 416.62 414.731C409.964 410.808 402.496 408.43 394.74 409.93C385.717 411.686 378.927 418.076 372.171 423.843C363.003 431.666 353.746 436.333 341.501 433.611C331.444 431.377 322.376 425.965 312.975 421.976C296.496 414.986 281.261 414.897 269.37 429.799C262.492 438.422 256.891 447.746 249.19 455.746C241.523 463.703 232.866 470.648 223.499 476.504C205.03 488.05 183.916 495.384 162.27 497.762C140.667 500.14 118.72 497.473 98.4737 489.517C76.5602 480.916 56.958 467.57 36.3668 456.38C17.7314 446.245 -2.32632 437.567 -23.8509 436.955C-31.0184 436.755 -40.8861 438 -41.5195 428.255C-42.1641 418.42 -29.596 416.109 -22.3619 416.798C-10.105 417.965 2.36308 422.832 13.8199 427.088C57.3692 443.256 100.974 470.615 149.046 468.281C173.049 467.114 194.54 457.147 214.82 444.945C233.2 433.888 253.935 422.409 266.615 404.563C269.226 400.885 271.437 396.895 273.071 392.684C275.171 387.261 275.649 380.883 278.571 375.815C287.25 360.758 298.096 377.704 303.43 385.394C308.186 392.251 313.386 398.185 321.754 400.407C330.91 402.841 340.856 400.84 349.535 397.573C372.259 389.017 394.429 365.47 419.743 380.783C429.288 386.561 436.622 395.262 445.39 402.063C453.646 408.475 463.281 412.897 473.526 415.031C493.084 419.109 514.253 415.186 530.432 403.263C540.434 395.895 548.735 385.372 560.447 380.616C571.882 375.971 584.827 379.249 591.084 390.228C599.007 404.13 601.396 421.565 603.685 437.144C606.352 455.269 607.83 473.537 609.763 491.75C611.119 504.452 612.475 516.52 618.153 528.121C625.599 543.323 638.311 555.402 655.546 557.813C666.214 559.313 677.571 557.58 688.139 555.946C700.474 554.035 712.675 550.979 724.343 546.523C745.39 538.478 764.747 525.821 778.871 508.097C804.841 475.504 811.13 428.31 782.216 395.44C769.47 380.938 751.024 370.959 731.455 371.004C719.787 371.026 707.074 375.349 695.773 370.993C681.905 365.648 681.449 349.379 679.86 336.833C674.504 294.54 637.633 262.147 594.573 264.781C583.916 265.437 573.393 268.092 563.758 272.715C553.379 277.693 544.201 286.539 532.522 288.439C518.665 290.695 519.765 275.182 509.241 271.271C502.741 268.859 494.973 270.993 489.739 275.249C482.816 280.883 480.349 290.073 479.316 298.574C478.149 308.23 476.515 319.854 480.86 328.932C487.728 343.323 505.241 342.49 517.942 337.267C537.922 329.066 552.035 310.208 568.748 297.218C585.672 284.061 611.908 273.349 632.088 286.417C656.48 302.218 644.301 334.722 637.833 356.724C632.81 373.837 632.299 392.184 647.234 404.419C672.937 425.465 710.619 382.494 734.677 410.319C750.812 428.988 750.301 459.891 726.287 471.548C707.497 480.671 685.227 469.948 669.126 459.802C651.201 448.49 639.3 434.355 628.199 416.609C617.698 399.818 612.875 384.016 616.097 364.125C617.875 353.168 621.365 342.845 624.354 332.211C626.354 325.121 628.699 316.187 625.443 309.097C622.098 301.841 613.82 298.974 606.274 299.596C596.718 300.396 589.183 306.574 583.072 313.508C566.414 332.422 552.19 353.191 528.821 364.636C504.996 376.293 472.871 375.649 457.324 351.246C450.757 340.934 448.979 328.41 453.969 317.098C458.791 306.163 468.003 297.951 473.193 287.239C479.605 273.993 478.882 252.657 460.636 250.213C440.756 247.546 421.465 268.081 411.097 282.494C404.252 292.006 399.718 302.563 395.373 313.375C390.584 325.299 385.439 338.211 374.871 346.212C365.048 353.646 350.024 357.458 340.256 347.779C331.344 338.945 332.811 324.632 335.755 313.575C341.512 292.006 353.857 270.315 368.092 253.224C383.694 234.5 404.563 220.254 429.232 217.576C457.48 214.509 485.105 224.821 511.475 233.5C538.322 242.334 565.659 249.557 593.417 254.913C615.753 259.225 644.023 267.059 666.236 258.591C680.527 253.146 690.439 238.478 686.794 222.91C681.371 199.718 653.302 209.308 636.922 210.564C608.975 212.686 581.294 208.13 555.146 198.196C531.221 189.106 508.197 177.06 482.561 173.449C437.011 167.026 390.395 184.494 355.847 213.853C320.043 244.279 296.229 286.539 280.861 330.421C274.226 349.368 268.226 372.237 251.646 385.205C241.501 393.139 231.411 391.839 219.32 390.561C209.43 389.517 201.43 392.395 193.673 398.44C184.194 405.83 176.571 415.409 164.948 419.654C152.313 424.265 138.267 422.909 125.532 419.42C101.018 412.686 80.1828 396.74 55.5245 390.373C32.1775 384.35 5.20784 392.673 -16.739 381.427C-37.908 370.581 -44.2309 339.378 -26.929 322.198C-18.9726 314.298 -7.30465 310.397 3.80769 311.242C16.2535 312.186 25.4768 319.687 33.2887 328.855C40.6451 337.478 47.2569 346.423 56.3135 353.413C64.8255 359.98 74.4822 364.981 84.7389 368.192C103.652 374.115 124.888 374.115 142.667 364.67C150.391 360.569 157.502 354.591 161.836 346.901C165.248 340.845 168.348 332.866 163.514 327.054C151.824 312.997 130.355 314.52 114.231 317.231C100.907 319.465 86.2279 322.687 73.2487 317.331C61.2585 312.386 54.9578 300.918 48.3793 290.462C39.2783 275.993 21.5541 257.469 3.34097 269.759C-5.17108 275.504 -9.3271 286.194 -18.1503 291.373C-22.1063 293.695 -27.4402 295.251 -32.0296 294.217C-40.1861 292.373 -39.6527 284.372 -37.019 278.138C-28.9626 259.069 -9.94939 246.268 10.1417 242.99C33.1776 239.234 51.0462 249.879 67.937 264.348C82.0386 276.416 96.6402 290.117 116.209 291.073C133.244 291.906 165.881 278.827 174.26 300.774C178.605 312.153 173.371 324.854 176.16 336.578C177.86 343.734 182.405 349.635 188.584 353.568C203.563 363.081 222.865 360.269 236.489 349.857C253.58 336.789 262.47 315.853 270.793 296.696C280.772 273.737 290.05 249.824 305.885 230.122C321.298 210.942 342.512 198.118 364.736 188.239C376.449 183.027 388.495 178.583 400.529 174.182C414.231 169.17 428.199 164.014 442.778 162.336C470.748 159.114 497.44 173.582 524.087 179.972C550.568 186.317 577.771 189.673 604.996 189.917C627.577 190.128 653.913 189.273 671.237 172.637C677.927 166.214 683.016 157.691 684.338 148.424C684.75 145.557 685.694 139.311 683.827 136.689C682.016 134.155 675.504 133.311 672.604 132.577C630.388 121.798 588.061 142.567 545.823 142.423C534.666 142.378 523.465 140.778 513.042 136.667C501.729 132.2 492.095 124.61 481.394 118.976C465.048 110.375 448.968 110.353 432.9 119.398C417.264 128.199 404.763 141.923 388.472 149.635C377.76 154.702 367.603 154.891 356.158 152.124C346.846 149.868 336.556 146.401 327.188 150.357C317.665 154.38 313.431 164.77 308.064 172.849C300.763 183.839 291.828 193.651 282.261 202.685C273.404 211.042 263.959 218.754 254.424 226.321C243.89 234.689 233.422 243.445 221.587 249.946C197.462 263.192 168.481 262.203 141.923 259.102C118.92 256.424 94.0288 250.29 77.4492 233.011C63.4476 218.431 59.0138 194.84 35.8223 191.873C12.7087 188.917 -5.50445 205.352 -19.4727 221.565C-23.0064 225.665 -26.8624 232.444 -31.7407 234.989C-32.2963 235.411 -32.8519 235.844 -33.4075 236.267C-36.9857 235.055 -40.5528 233.833 -44.1309 232.622C-45.4422 230.633 -43.8309 226.154 -42.6863 224.099C-40.8306 220.776 -37.6858 218.265 -34.7188 215.998C-23.2842 207.241 -11.4607 198.918 0.185066 190.45C11.0196 182.572 22.8987 173.982 36.9447 174.349C49.6239 174.682 60.8473 181.661 70.8151 188.873C89.0504 202.052 105.875 214.898 127.588 221.943C148.357 228.677 170.648 230.777 192.329 228.177C231.033 223.532 280.383 201.207 288.695 158.791C291.039 146.801 291.173 131.488 304.208 125.821C315.298 121.009 328.566 125.588 339.723 127.988C358.814 132.088 376.671 129.355 392.339 117.098C407.508 105.241 417.998 86.2834 416.942 66.7146C416.498 58.5359 411.308 35.0555 427.266 40.4228C432.622 42.223 437.8 48.0459 441.778 51.9685C445.601 55.7356 449.19 59.7472 452.691 63.8254C465.814 79.1604 477.927 96.4068 495.751 106.708C514.142 117.331 538.167 120.409 559.113 121.921C576.693 123.187 596.518 122.232 611.464 111.764C618.364 106.93 623.676 100.218 626.799 92.3952C631.355 80.9384 628.566 70.2817 629.499 58.5026C630.044 51.7129 632.033 45.1678 635.4 39.256C638.322 34.1221 643.134 30.4106 645.979 25.3322C649.568 18.9315 648.723 10.4417 642.967 5.57451C636.911 0.451721 629.866 3.41871 624.065 7.34137C620.631 9.67496 617.509 12.5308 613.875 14.5644C607.797 17.9425 600.196 19.3094 593.362 19.9872C567.314 22.5542 544.012 11.8419 518.642 8.95266C501.44 6.99689 480.383 11.2974 470.437 26.9324C466.081 33.7776 464.07 42.7786 470.248 49.1571C476.716 55.8356 488.217 58.3581 497.018 59.5582C508.63 61.1473 520.665 60.0361 531.733 56.1579C543.023 52.2019 552.435 44.6122 563.458 40.1228C576.026 35 594.373 36.0668 596.94 52.5797C598.984 65.7256 590.072 77.5602 579.238 83.9165C558.658 95.9956 531.199 93.3731 509.63 85.5611C497.151 81.0384 485.461 74.0821 475.893 64.8477C466.914 56.1801 460.136 45.6456 452.413 35.9112C440.367 20.8317 422.221 5.30781 401.407 9.73052C392.962 11.5307 384.705 17.0758 383.616 26.2323C382.35 37.0113 390.017 46.8902 389.272 57.9692C387.35 86.6168 359.403 103.563 333.355 105.863C319.665 107.075 306.208 105.052 292.806 102.452C285.25 100.985 276.049 99.4626 269.404 104.463C261.614 110.331 262.47 120.887 261.247 129.51C259.547 141.534 254.169 152.735 246.512 162.092C230.544 181.616 206.597 191.973 181.794 193.984C167.659 195.129 153.38 193.818 139.512 191.017C126.743 188.428 111.031 185.617 101.096 176.593C93.0398 169.281 87.8392 159.903 78.4715 153.913C69.9483 148.457 60.0361 145.457 50.0017 144.534C27.4214 142.445 5.619 151.891 -12.1385 165.181C-16.8057 168.681 -21.4729 174.282 -26.8512 176.471C-32.6297 178.816 -38.2636 176.816 -36.7079 168.97C-36.0634 165.692 -33.852 162.27 -32.0296 159.48C-24.8733 148.579 -13.1053 141.145 -1.09285 136.645C26.8213 126.177 55.3912 130.277 81.983 142.167C93.0731 147.123 104.052 151.513 116.276 152.591C129.199 153.724 142.156 151.924 154.902 149.935C173.06 147.09 193.495 143.579 207.697 130.888C214.842 124.499 218.254 116.609 220.198 107.375C221.576 100.807 222.932 94.5621 227.81 89.606C232.4 84.9499 238.934 82.4719 245.19 81.0495C270.582 75.2822 297.185 83.9387 322.887 80.2939C342.167 77.5602 359.147 68.8482 369.081 51.6685C375.471 40.6228 383.994 20.6651 373.193 9.57495C366.759 2.96311 349.701 -0.292806 342.312 6.55239C339.111 9.51939 340.456 13.0198 343.245 15.7645C350.768 23.1987 370.67 28.0992 363.759 42.4341C358.702 52.9242 344.968 55.2022 334.655 57.1913C321.187 59.7805 307.663 62.203 294.006 63.6031C267.459 66.3257 239.8 65.07 215.842 52.1796C206.275 47.0346 197.396 40.4895 187.128 36.7446C182.061 34.9 171.037 30.9551 168.07 38.1225C165.059 45.4122 174.949 53.0798 179.583 56.9246C189.517 65.17 197.929 73.2486 197.029 87.2613C195.207 115.864 162.814 129.522 138.556 134.078C125.132 136.6 110.82 136.522 97.9848 131.399C86.8613 126.966 77.8936 118.587 66.8147 113.975C47.5792 105.974 25.8768 106.619 6.14128 112.464C-3.85983 115.42 -13.4831 119.698 -22.4619 124.988C-27.1068 127.732 -31.5851 130.755 -35.8745 134.033C-38.0303 135.689 -40.975 138.6 -43.642 135.589C-47.698 131.011 -40.9084 125.01 -37.1857 122.81C-25.1511 115.687 -11.1162 110.475 2.06306 105.941C15.709 101.241 29.9328 97.7625 44.4011 97.1179C58.4359 96.4957 71.6374 99.3404 85.0833 102.996C97.0958 106.263 109.142 109.142 121.676 107.941C138.367 106.341 162.37 97.8625 164.314 78.2047C166.303 58.2359 147.079 44.7788 129.41 42.6342C105.252 39.7005 78.4937 48.3903 56.0468 56.4357C31.733 65.17 8.54155 76.7824 -13.6387 89.9616C-18.6837 92.9619 -23.5731 96.3623 -28.7626 99.0959C-32.1407 100.874 -37.4969 103.163 -41.4862 101.763C-50.8761 98.4848 -47.6869 91.1062 -44.7532 85.7389C-39.2637 75.6934 -30.5406 67.7814 -20.8506 61.8807C-1.11507 49.8572 22.1986 45.1678 44.5677 40.7451C100.374 29.7216 157.502 23.1765 214.431 26.8102C243.979 28.6993 272.182 34.611 300.974 40.9673C311.908 43.3787 351.035 52.013 348.412 29.9216C347.357 21.0095 338.745 16.309 330.91 14.2532C318.354 10.9529 304.941 9.65274 292.04 8.50817C263.581 5.96344 234.967 6.49683 206.452 7.53028C179.983 8.50817 153.535 9.66385 127.077 10.7306C102.919 11.7085 78.9271 12.9642 55.28 18.3648C12.0753 28.2437 -28.2181 48.8904 -61.7329 77.838C-63.3553 79.2382 -60.9884 81.594 -59.3771 80.1939C-20.9506 47.0124 26.6324 24.9989 76.9158 17.7092C105.797 13.5198 135.411 13.731 164.525 12.5531C193.006 11.3974 221.521 9.8861 250.035 10.0306C264.525 10.1083 279.027 10.6417 293.462 11.9863C300.996 12.6864 308.519 13.6087 315.998 14.7977C322.81 15.8868 330.733 16.5979 336.878 19.965C345.901 24.8989 348.312 37.7892 336.556 40.2783C328.121 42.0674 318.676 40.9006 310.297 39.4671C296.662 37.1335 283.35 33.122 269.77 30.4884C214.987 19.8761 158.614 20.7651 103.43 27.7547C76.8491 31.1218 50.235 35.5778 24.121 41.6452C4.93004 46.1012 -14.8055 52.2797 -30.5628 64.5366C-38.9637 71.0817 -62.7885 95.5178 -44.5754 104.174C-35.9856 108.264 -26.929 101.974 -19.906 97.6402C-8.59368 90.6728 2.96315 84.0721 14.7978 78.0269C39.0449 65.6478 64.5811 55.6023 91.1951 49.6572C114.242 44.5121 155.824 39.7561 160.769 72.4486C163.103 87.8836 149.002 97.2735 136.145 101.53C122.054 106.197 107.908 105.374 93.6843 101.83C81.8163 98.8737 70.2039 95.051 57.9359 94.0287C45.1234 92.9508 32.1997 94.4065 19.7094 97.3069C6.96359 100.285 -5.38221 104.83 -17.4058 109.964C-26.1512 113.698 -40.2083 117.531 -45.8756 125.843C-48.987 130.411 -48.5425 138.7 -42.5196 140.812C-39.8305 141.756 -39.3415 140.967 -37.2302 139.334C-32.2074 135.467 -27.1957 131.733 -21.7618 128.466C-1.39289 116.231 23.1209 108.83 46.9902 112.097C58.8916 113.731 69.5483 118.254 79.6049 124.743C89.6727 131.244 99.2516 136.6 111.308 138.311C133.011 141.401 157.636 135.111 176.16 123.599C192.306 113.564 205.297 94.5177 198.885 74.8599C195.707 65.1255 187.717 59.5694 180.294 53.1909C178.394 51.5574 176.516 49.8794 174.882 47.9903C172.982 45.7901 167.848 39.6005 174.86 37.4114C175.982 37.0558 178.338 37.8003 179.505 38.0336C186.328 39.3782 192.617 42.5564 198.607 45.979C208.353 51.5351 217.654 57.5691 228.288 61.3696C239.489 65.3811 251.335 67.3258 263.181 67.9592C288.272 69.2815 313.531 64.8255 338.045 59.9361C350.268 57.4913 374.96 49.2682 367.326 31.6441C365.625 27.7325 362.258 24.7766 358.936 22.2541C355.135 19.3649 348.557 17.1647 345.59 13.4198C339.378 5.59673 358.28 6.26347 362.514 7.41916C385.061 13.5976 371.293 43.7565 362.314 56.0467C346.179 78.127 315.953 78.9159 291.262 77.4491C271.326 76.2601 244.734 71.5929 227.699 85.3166C218.754 92.5174 218.631 102.396 215.564 112.642C212.264 123.665 203.763 131.177 193.706 136.133C184.417 140.712 174.138 143.201 163.992 145.079C150.557 147.568 136.767 149.824 123.065 149.635C95.3622 149.246 72.9264 130.866 45.6456 127.81C22.7987 125.254 -2.50412 129.855 -21.2506 143.734C-27.9291 148.679 -53.6431 177.193 -33.5742 181.027C-24.5288 182.75 -16.8057 172.86 -10.4494 168.092C-0.114967 160.336 11.3974 153.935 23.8766 150.413C36.2446 146.923 49.4461 146.546 61.8474 150.113C74.8266 153.846 83.861 161.57 92.273 171.804C106.997 189.717 131.7 194.084 153.735 196.673C196.24 201.674 245.701 186.472 261.481 142.601C262.97 138.445 264.014 134.133 264.614 129.766C265.57 122.765 264.681 113.72 270.082 108.297C278.76 99.5849 296.94 107.052 307.308 108.397C329.377 111.264 353.935 109.497 371.959 95.0733C387.072 82.9719 396.629 62.9697 390.95 43.7009C388.795 36.389 384.694 29.1549 388.895 21.8096C392.928 14.7311 401.552 12.1197 409.386 12.3975C422.787 12.8753 434.744 21.1762 443.556 30.6995C452.035 39.8561 458.658 50.5239 466.748 60.0027C474.193 68.7259 482.994 76.0601 493.006 81.6718C511.686 92.1285 534.477 97.3402 555.824 94.751C573.437 92.6174 592.739 83.9276 598.862 65.9034C604.741 48.6015 593.651 32.8664 575.182 33.911C564.447 34.5221 555.28 40.2672 546.223 45.4789C533.933 52.5464 521.198 57.0246 506.863 56.9691C495.14 56.9135 466.192 53.3576 469.992 35.9334C472.559 24.0654 484.783 16.6424 495.595 13.7199C520.987 6.86354 546.034 20.4428 571.048 23.0987C581.66 24.221 592.628 24.1321 603.074 21.7874C612.919 19.5761 618.953 14.3533 627.243 9.1749C634.5 4.65218 643.956 5.88565 644.767 16.2979C645.367 23.9543 638.167 28.7882 634.311 34.5333C628.421 43.3009 625.499 53.891 626.054 64.4366C626.788 78.2936 626.443 91.3506 616.82 102.463C610.286 110.019 601.151 114.442 591.561 116.731C570.326 121.798 547.49 118.02 526.465 113.753C514.253 111.275 502.374 107.675 492.062 100.441C482.916 94.0287 475.315 85.6945 468.137 77.2157C461.169 68.9926 454.546 60.4583 447.09 52.6686C441.489 46.8124 432.844 36.6557 424.11 36.0779C406.419 34.9111 414.042 62.6364 413.553 71.9707C412.286 95.8734 393.795 117.598 371.215 124.577C359.703 128.132 348.779 126.61 337.256 124.043C328.021 121.987 318.154 119.332 308.641 120.998C285.517 125.043 289.117 150.779 282.739 167.626C273.882 191.006 250.491 206.63 228.21 215.642C184.561 233.3 132.011 228.099 93.1176 201.385C75.9712 189.606 59.1471 171.504 36.9113 171.004C25.7879 170.759 15.6979 175.738 6.66356 181.761C-4.67103 189.317 -15.4722 197.762 -26.4623 205.808C-33.652 211.064 -44.0198 216.542 -46.9868 225.621C-49.0648 232 -46.409 240 -38.9415 240.9C-29.7293 242.023 -23.0064 230.766 -17.9725 224.899C-9.47156 214.987 -0.203873 204.852 11.8419 199.24C24.8322 193.184 41.2674 192.717 52.1797 203.141C60.2139 210.808 64.0699 221.832 70.8373 230.488C83.4832 246.657 103.085 255.024 122.643 259.314C145.134 264.248 169.915 266.192 192.729 262.87C217.754 259.225 236.5 244.734 255.769 229.466C274.838 214.353 293.795 198.551 308.075 178.649C315.864 167.781 321.076 152.024 336.811 151.88C348.212 151.78 358.847 157.691 370.315 157.547C407.319 157.08 428.788 106.208 467.637 116.887C479.349 120.098 489.217 127.766 499.596 133.733C508.63 138.923 518.176 142.623 528.466 144.356C548.546 147.746 569.048 144.468 588.861 140.856C611.086 136.8 633.655 131.555 656.391 133.322C661.914 133.755 667.381 134.633 672.726 136.078C674.659 136.6 678.504 136.989 679.893 138.367C682.449 140.901 681.305 147.068 680.638 150.135C677.782 163.236 667.525 173.649 655.646 179.183C642.556 185.272 627.754 186.35 613.519 186.572C599.273 186.795 584.994 186.139 570.826 184.65C542.112 181.638 514.475 174.704 487.161 165.559C474.926 161.469 462.592 158.036 449.579 158.503C436.478 158.969 423.743 162.547 411.408 166.77C389.084 174.415 366.414 182.594 345.645 193.895C325.41 204.897 308.086 219.587 295.407 238.934C282.138 259.18 273.826 282.105 263.903 304.063C254.724 324.365 241.923 350.013 217.976 355.235C208.197 357.369 196.985 355.702 188.784 349.757C177.382 341.478 178.483 328.599 179.06 316.031C179.483 306.897 178.76 297.318 171.448 290.85C165.714 285.783 157.825 284.805 150.446 284.994C140.612 285.261 130.933 287.483 121.098 287.795C109.664 288.15 99.6294 284.55 90.2284 278.182C73.6154 266.937 60.5028 250.102 41.3674 242.745C25.3767 236.6 7.19695 238.145 -8.2492 245.168C-23.0175 251.879 -38.8303 265.937 -42.1196 282.638C-45.1644 298.107 -27.518 300.374 -17.2169 294.684C-8.47144 289.861 -4.15985 279.949 3.52988 273.849C16.8202 263.325 31.9441 273.415 40.5229 284.839C53.102 301.585 60.3584 321.087 84.0054 323.332C106.641 325.488 130.944 312.008 152.702 322.876C158.358 325.699 163.692 329.988 162.192 336.811C160.947 342.478 157.991 347.601 154.102 351.857C146.523 360.147 135.8 365.292 124.921 367.614C100.196 372.904 72.6153 363.77 54.0021 347.223C38.9893 333.889 29.7105 312.264 8.07483 308.475C-8.49367 305.563 -27.0402 312.942 -35.4189 327.899C-43.5642 342.434 -41.1639 361.825 -30.6739 374.537C-16.3501 391.895 7.69701 390.506 28.0326 390.717C41.0674 390.85 53.4576 392.551 65.7145 397.151C78.6604 401.996 90.7284 408.819 103.263 414.586C122.988 423.665 146.901 430.799 168.026 422.043C176.827 418.398 183.494 411.83 190.473 405.563C195.007 401.485 199.84 397.34 205.63 395.162C212.464 392.595 219.232 394.051 226.232 394.862C269.081 399.862 278.494 343.745 290.528 314.275C309.341 268.192 339.111 224.665 382.594 198.84C404.53 185.806 429.444 177.316 454.991 175.749C481.305 174.138 505.419 181.383 529.477 191.317C554.168 201.518 578.327 211.042 605.163 213.609C618.464 214.887 631.899 214.731 645.167 213.109C657.369 211.619 675.937 205.73 682.405 220.309C686.505 229.566 683.194 241.701 676.204 248.69C666.603 258.302 651.224 259.225 638.467 258.38C610.475 256.536 582.094 249.868 555.002 242.878C527.443 235.767 500.907 225.132 473.282 218.365C450.357 212.753 426.243 211.253 404.152 220.887C385.094 229.199 369.848 244.156 358.013 260.98C346.334 277.571 335.178 297.785 331.311 317.92C328.244 333.911 332.144 354.213 351.346 356.769C370.704 359.347 385.405 343.234 392.951 327.454C398.34 316.164 401.952 304.085 408.175 293.195C414.386 282.338 422.621 272.582 432.377 264.748C441.923 257.08 461.347 245.812 470.781 259.947C478.005 270.759 471.559 284.816 465.059 294.162C458.858 303.085 451.146 311.508 448.557 322.365C446.546 330.788 447.857 339.678 451.446 347.501C459.814 365.781 478.46 375.738 498.162 375.571C521.209 375.382 541.7 363.214 557.869 347.623C566.57 339.234 574.048 329.81 581.627 320.42C589.439 310.742 600.84 298.985 614.642 303.863C629.01 308.93 622.532 326.943 619.265 337.4C616.131 347.39 613.453 357.524 612.164 367.937C610.141 384.35 613.653 398.651 621.931 412.842C631.31 428.921 641.356 443.401 656.191 454.88C670.281 465.781 687.417 475.638 705.363 477.982C721.62 480.116 738.089 472.059 745.434 457.124C753.413 440.9 748.312 420.298 736.366 407.33C725.687 395.729 710.241 396.584 696.095 399.951C681.16 403.507 662.169 412.953 648.679 401.396C628.432 384.05 641.856 358.091 646.99 337.111C651.379 319.198 652.379 297.518 636 285.183C621.62 274.36 601.074 276.093 585.383 282.938C563.225 292.617 548.112 312.986 528.999 327.054C513.586 338.411 482.183 345.49 481.46 317.076C481.172 305.563 481.494 290.295 488.872 280.883C492.817 275.849 499.951 272.36 506.452 273.937C513.342 275.604 514.042 282.061 517.931 286.783C530.866 302.474 554.102 280.705 566.448 275.104C590.095 264.381 618.653 265.725 640.645 279.783C661.858 293.34 673.893 315.542 676.826 340.123C677.904 349.112 678.638 358.936 684.249 366.437C689.683 373.715 698.229 376.138 706.974 376.138C718.92 376.126 730.432 373.048 742.367 375.415C753.768 377.671 764.336 383.338 773.004 391.028C790.672 406.697 799.829 429.532 798.006 453.057C793.828 506.974 744.978 541.334 695.795 551.224C673.548 555.691 647.679 559.613 630.688 541.111C619.387 528.799 615.531 513.742 613.664 497.729C609.808 464.814 609.763 429.332 598.084 397.929C592.773 383.661 582.683 373.115 566.159 375.582C556.124 377.082 548.057 383.772 540.645 390.25C530.744 398.907 521.176 406.741 508.319 410.508C483.672 417.72 459.236 410.486 440.5 393.673C424.81 379.605 409.908 367.259 387.706 374.815C366.592 382.005 344.012 405.696 319.965 396.329C310.275 392.562 306.108 382.661 300.074 374.949C296.284 370.104 291.206 365.292 284.55 366.781C276.582 368.559 274.126 376.971 272.226 383.839C268.893 395.895 262.781 405.596 253.591 414.097C245.012 422.032 235.089 428.343 225.232 434.544C214.22 441.467 203.13 448.346 191.34 453.88C166.826 465.37 140.878 467.559 114.553 461.703C90.3839 456.324 67.6592 446.001 45.0122 436.278C24.2877 427.388 2.24085 416.875 -20.295 413.742C-28.3625 412.619 -37.8525 413.708 -42.8864 420.987C-46.6201 426.377 -45.8422 434.177 -40.2416 437.967C-37.2524 439.989 -33.7742 440.2 -30.2738 440.3C-23.762 440.478 -17.4947 440.5 -11.0273 441.645C0.607338 443.701 11.7308 447.912 22.3542 453.002C42.9676 462.881 61.8808 475.893 82.3608 486.016C119.587 504.43 161.403 506.974 200.296 491.806C218.809 484.583 235.933 473.737 249.979 459.625C256.913 452.668 262.57 444.934 268.181 436.911C275.816 425.999 285.161 418.109 299.14 420.92C317.087 424.532 332.733 439.456 351.813 437.822C371.948 436.1 381.916 410.019 402.963 413.086C422.554 415.942 434.677 436.855 452.557 444.112C471.726 451.89 491.828 443.345 509.908 436.567C532.688 428.021 557.18 421.998 577.404 439.811C596.395 456.535 598.251 484.883 582.583 504.53C565.003 526.565 534.266 525.01 510.208 516.064C486.161 507.119 465.57 490.873 441.445 482.072C426.665 476.682 410.819 473.804 395.418 470.837C378.271 467.537 361.036 464.659 343.756 462.214C329.055 460.136 314.309 457.969 299.818 462.603C279.627 469.059 264.303 485.272 246.412 495.973C205.686 520.342 156.069 531.266 109.03 523.354C84.7389 519.276 63.0142 509.708 42.0564 497.018C22.2986 485.061 1.54077 472.104 -22.473 473.226C-30.6294 473.604 -43.7309 475.304 -49.1648 482.294C-52.6096 486.728 -51.554 493.262 -47.0979 496.573C-40.6083 501.385 -31.374 504.052 -24.1065 507.408C1.06294 519.042 26.099 531.133 51.5685 542.112C75.1489 552.268 99.5405 560.936 125.154 564.025C148.868 566.881 173.093 565.214 196.24 559.38C220.132 553.357 241.701 542.667 262.058 528.943C272.771 521.72 283.627 514.775 296.329 511.664C310.03 508.308 324.354 509.197 338.045 512.108C364.203 517.675 388.239 529.932 412.964 539.667C437.211 549.212 462.325 556.946 488.261 560.158C516.92 563.714 546.645 557.235 574.882 563.814C588.961 567.103 601.963 576.649 594.373 592.539C589.85 602.007 581.894 609.674 572.848 614.797C529.732 639.244 479.216 614.442 440.156 594.262C397.373 572.159 347.746 547.857 299.585 568.492C287.672 573.593 276.693 580.527 265.181 586.439C252.702 592.839 239.612 597.24 225.81 599.74C199.44 604.541 171.915 604.263 145.179 604.563C118.176 604.874 90.9062 604.018 64.4144 598.307C51.4129 595.506 38.6449 591.528 26.5324 586.039C15.6312 581.094 5.24118 574.515 -6.48234 571.592C-21.6285 567.814 -43.6198 573.371 -46.2312 591.573C-49.0093 610.964 -24.9066 619.487 -9.96049 621.554C11.353 624.498 32.7331 620.042 54.0799 619.976C65.4034 619.942 77.0269 621.176 87.2725 626.354C98.207 631.888 105.619 641.389 111.308 651.99C121.91 671.715 128.521 692.195 146.69 706.641C162.847 719.487 183.828 726.287 204.463 724.398C225.01 722.509 244.757 712.664 258.525 697.262C275.26 678.527 279.594 653.224 291.995 631.999C298.096 621.554 306.486 611.586 317.598 606.296C330.877 599.974 345.179 602.963 357.713 609.575C368.326 615.186 377.782 622.698 387.761 629.321C398.607 636.522 409.941 643 421.632 648.712C443.99 659.647 467.681 667.848 492.028 673.015C512.82 677.426 534.522 680.516 555.735 677.749C572.859 675.515 591.239 669.392 602.174 655.213C607.786 647.945 609.775 639.878 611.608 631.044C614.608 616.586 623.365 608.641 635.655 601.34C656.58 588.906 691.884 574.271 707.463 602.629C721.554 628.299 688.217 636.744 671.115 642.611C662.636 645.523 654.846 649.29 648.334 655.58C640.167 663.48 634.422 673.504 626.454 681.594C611.119 697.151 590.272 705.374 568.87 708.141C520.398 714.408 475.404 695.306 431.055 678.704C406.941 669.681 382.283 661.336 356.547 658.547C335.511 656.268 312.653 656.291 298.64 674.515C292.206 682.894 288.128 692.75 283.261 702.051C277.994 712.108 271.326 721.209 263.047 729.01C245.879 745.212 223.31 755.424 200.029 758.802C173.904 762.602 146.99 757.402 123.076 746.645C99.1849 735.9 79.6272 719.487 60.9696 701.407C43.6232 684.594 26.0101 667.281 3.38542 657.769C-7.59357 653.157 -19.5504 650.446 -31.5073 651.29C-39.0304 651.824 -47.498 653.357 -48.8648 662.169C-50.2427 671.037 -42.9086 677.471 -35.5189 680.56C-25.5067 684.761 -14.5054 686.694 -4.30432 690.528C6.37464 694.551 16.7202 699.562 26.1213 706.063C35.6668 712.664 47.3236 722.254 52.0463 733.133C55.1689 740.322 54.6911 747.712 48.1459 752.624C42.4342 756.902 35.3445 760.369 28.3437 761.791C12.8087 764.936 2.87425 755.835 -2.50412 742.245C-8.48256 727.121 -12.3385 704.763 -33.5075 705.752C-53.0319 706.663 -56.8879 727.721 -49.7649 742.522C-41.5862 759.535 -29.7182 770.548 -11.5496 775.615C6.1524 780.549 25.499 781.338 43.5232 777.882C56.7135 775.359 69.4372 770.881 82.6386 768.392C97.8959 765.514 112.92 766.77 128.11 769.437C153.569 773.915 178.627 779.471 204.641 778.871C229.366 778.293 251.568 771.581 272.837 759.08C294.873 746.123 314.109 729.321 335.178 714.964C353.057 702.774 377.249 694.539 398.818 700.529C410.608 703.807 432.922 718.62 414.231 729.332C402.363 736.133 386.661 737.411 373.36 738.8C361.625 740.011 349.801 740.867 338.256 743.411C330.977 745.012 317.553 747.267 313.709 754.879C305.763 770.603 340.712 780.204 350.357 781.938C369.104 785.305 388.85 782.616 406.03 774.37C414.798 770.17 422.921 764.436 429.655 757.402C437.889 748.801 443.612 738.178 451.779 729.532C459.591 721.265 477.549 709.986 489.495 715.964C497.029 719.742 495.995 732.299 492.295 738.466C488.695 744.467 481.305 747.367 474.993 749.468C464.003 753.113 449.024 753.646 439.789 761.258C434.889 765.303 433.433 774.648 440.967 776.648C450.168 779.093 462.992 771.07 470.759 767.247C486.65 759.424 502.063 750.679 518.131 743.223C526.176 739.489 534.411 735.977 542.956 733.577C554.869 730.232 567.092 730.788 579.316 729.888C602.152 728.199 624.109 719.409 641.623 704.618C658.724 690.183 671.415 666.981 694.606 661.591C706.452 658.836 718.387 659.858 728.632 652.257C735.477 647.179 740.645 639.789 742.845 631.532C745.745 620.687 742.534 609.852 739.889 599.307C736.889 587.294 736.177 577.404 743.078 566.703C745.023 563.692 748.646 558.436 752.613 557.802C760.191 556.602 761.202 569.726 760.913 574.793C760.258 586.172 755.568 596.895 754.391 608.208C753.213 619.587 753.09 631.021 749.012 641.878C743.945 655.413 733.466 662.958 719.787 666.57C708.886 669.448 697.518 670.548 687.105 675.126C677.115 679.505 668.625 686.55 660.502 693.684C640.389 711.33 619.631 726.132 594.051 734.822C570.415 742.856 545.134 742.345 521.476 749.89C512.864 752.635 501.596 756.813 495.918 764.236C491.906 769.481 493.117 775.637 499.685 777.638C509.708 780.682 522.454 779.504 532.822 779.415C544.034 779.315 555.235 778.593 566.348 777.137C589.684 774.07 612.686 767.648 633.566 756.657C655.435 745.145 671.581 727.654 690.606 712.364C704.841 700.918 725.499 688.961 744.49 690.05C753.413 690.561 758.647 697.006 757.124 705.93C756.18 711.519 752.124 715.308 747.368 717.975C735.211 724.809 720.031 726.41 706.574 729.166C692.784 731.988 677.971 734.922 665.981 742.722C657.013 748.556 644.234 764.203 658.024 772.148C664.547 775.904 672.97 775.304 680.093 774.148C690.872 772.404 701.651 770.348 712.175 767.425C731.532 762.058 750.69 753.19 763.069 736.766C777.049 718.231 779.56 694.184 781.682 671.815C784.06 646.845 786.772 621.887 791.672 597.273C796.506 572.993 803.374 548.957 814.064 526.565C819.298 515.598 825.443 505.052 832.566 495.206C840.333 484.483 849.912 472.415 863.225 468.615C877.16 464.636 892.584 471.681 893.373 487.405C893.684 493.484 892.106 499.551 890.25 505.285C888.228 511.508 886.072 519.053 881.382 523.843C872.326 533.099 856.535 525.198 845.156 526.954C836.277 528.332 828.099 532.722 821.587 538.844C807.23 552.346 803.152 571.87 810.975 589.872C819.32 609.074 843.656 632.922 830.51 655.457C828.132 659.524 824.143 663.292 821.176 666.959C816.264 673.004 811.475 679.171 806.93 685.494C802.029 692.328 797.184 699.373 793.517 706.963C789.317 715.664 787.094 725.154 782.86 733.877C777.682 744.545 770.692 753.468 760.002 758.969C754.602 761.747 748.679 766.014 752.379 772.77C756.302 779.927 766.47 780.871 773.57 779.449C783.605 777.426 791.85 770.848 798.107 763.003C814.497 742.422 822.287 715.464 846.178 701.262C852.612 697.44 864.514 693.873 869.048 702.751C873.159 710.808 864.025 716.642 858.213 719.787C848.69 724.943 839.555 729.843 831.399 737.1C822.831 744.723 800.573 766.058 817.142 776.704C832.444 786.538 857.302 782.96 873.87 778.927C887.005 775.726 899.562 770.214 912.886 767.814C920.375 766.458 928.199 766.103 935.655 767.903C943.145 769.714 949.701 773.859 956.657 776.993C967.525 781.871 978.86 781.905 990.572 781.693C1002.67 781.482 1015.05 780.516 1026.43 776.104C1031.42 774.17 1041.36 769.948 1035.63 763.314C1030.1 756.902 1016.76 758.458 1009.52 759.358C995.862 761.047 983.216 764.014 970.359 757.313C959.947 751.879 951.212 744.867 939.478 742.278C928.61 739.878 917.064 740.456 906.552 744.156C896.517 747.679 884.549 756.435 873.404 755.268C868.848 754.791 865.992 750.557 869.492 746.59C870.937 744.956 873.148 743.823 875.071 742.856C879.349 740.722 884.005 739.311 888.594 737.989C902.318 734.01 916.542 732.155 930.821 732.555C945.345 732.977 959.524 735.844 973.215 740.622C985.027 744.745 996.595 749.646 1009.07 751.379C1033.38 754.768 1060.88 749.423 1083.37 739.911C1092.41 736.089 1101.05 730.699 1106.93 722.687C1113.71 713.442 1112.77 703.618 1109.16 693.15C1106.56 685.605 1100.8 677.971 1092.11 677.782C1082.78 677.571 1077.27 686.127 1073.59 693.495C1067.83 705.074 1060.49 713.775 1047.26 716.642C1041.82 717.82 1036.03 717.798 1030.67 716.275C1028.19 715.575 1025.04 714.664 1023.01 712.986C1018.36 709.152 1019.81 704.074 1020.1 699.307C1021.12 682.516 1019 651.757 996.862 649.223C988.283 648.245 980.86 654.091 977.526 661.669C973.092 671.793 976.537 681.827 978.438 692.017C981.771 709.886 965.714 711.063 952.523 710.008C942.9 709.23 932.566 708.297 923.42 704.952C912.719 701.04 902.685 694.162 893.661 687.339C884.516 680.427 874.971 672.593 868.236 663.203C853.935 643.289 848.323 613.286 849.59 589.306C850.257 576.737 854.379 563.636 863.28 554.435C871.537 545.912 883.527 543.112 892.339 535.389C900.14 528.543 904.24 518.764 910.641 510.786C919.264 500.018 931.499 497.073 944.734 496.54C955.413 496.106 966.203 496.807 976.782 494.917C987.639 492.984 997.273 487.65 1007.07 482.872C1020.01 476.56 1032.87 472.604 1047.22 476.449C1059.9 479.849 1071.08 487.317 1082.15 494.117C1122.32 518.82 1169.76 528.021 1216 516.998C1233.93 512.719 1258.41 505.574 1267.71 487.883C1276.61 470.937 1264.2 453.079 1248.3 446.412C1224.79 436.544 1195.82 448.746 1172.56 453.891C1147.13 459.513 1119.94 466.781 1093.72 464.692C1080.1 463.603 1068.25 458.947 1057.37 450.757C1049.56 444.879 1041.36 437.411 1031.2 436.322C1022.64 435.4 1015.62 439.822 1009.87 445.723C1001.43 454.391 994.773 463.169 982.982 467.614C964.014 474.76 938.289 472.948 919.053 467.37C902.385 462.536 906.696 446.557 918.031 438.478C928.199 431.221 941.4 433.177 953.168 432.622C969.203 431.877 983.527 425.699 987.994 409.119C991.606 395.673 987.438 380.671 975.659 372.748C974.626 372.048 973.104 372.971 973.148 374.193C973.793 389.75 958.958 399.54 945.345 402.829C930.332 406.452 914.508 403.918 899.495 407.73C885.561 411.275 875.771 421.443 863.403 428.021C850.746 434.766 830.21 434.344 828.821 416.309C828.421 411.153 828.465 406.708 826.221 401.952C824.032 397.296 820.653 393.284 817.364 389.384C810.163 380.849 797.384 364.203 815.931 358.991C822.276 357.202 829.443 358.425 835.777 359.491C844.123 360.892 852.479 362.147 860.88 363.17C877.86 365.248 894.939 366.503 912.03 366.914C923.998 367.203 940.211 369.292 950.279 361.047C956.624 355.847 959.791 345.723 953.979 338.989C946.156 329.933 929.599 329.644 918.764 330.499C903.263 331.722 888.261 336.444 872.748 337.556C856.768 338.7 840.533 335.722 826.01 328.966C812.008 322.454 801.585 311.864 789.517 302.618C780.727 295.884 770.904 290.662 759.547 291.328C750.712 291.851 741.434 295.851 737.533 304.274C735.422 308.83 735.333 313.82 736.1 318.687C736.822 323.31 744.167 338.211 739.144 341.6C733.122 345.656 721.398 339.056 717.109 335.222C710.675 329.455 707.141 321.187 704.63 313.108C697.129 288.972 690.372 248.068 721.443 237.422C752.39 226.821 779.682 253.98 805.063 266.837C830.132 279.527 858.28 285.861 886.35 285.605C900.373 285.472 914.419 283.705 928.021 280.26C934.755 278.56 941.367 276.427 947.845 273.915C951.112 272.648 955.113 270.359 958.702 270.626C965.214 271.126 967.303 277.327 968.636 282.505C972.092 295.907 975.004 308.997 980.427 321.821C985.627 334.122 992.106 345.868 999.773 356.802C1027.29 396.029 1077.42 434.966 1128.48 423.287C1152.12 417.876 1169.39 399.218 1174.71 375.793C1180.29 351.213 1172.56 326.332 1157.62 306.574C1139.07 282.027 1111.32 270.704 1088.04 251.802C1076.43 242.367 1066.05 230.044 1062.41 215.231C1060.02 205.497 1063.75 192.84 1058.01 183.961C1053.73 177.327 1045.94 179.716 1042.26 185.617C1035.74 196.029 1034.72 211.353 1035.99 223.221C1039 251.457 1058.05 270.382 1079.78 286.494C1102.43 303.274 1132.54 322.487 1132.75 354.213C1132.8 360.747 1131.54 367.381 1128.62 373.26C1127.13 376.249 1125.22 379.016 1122.9 381.416C1119.21 385.228 1116.13 385.639 1111.2 385.039C1096.31 383.205 1081.73 378.649 1068.35 371.882C1013.22 343.99 984.594 279.849 1001.13 220.109C1004.25 208.819 1012.34 195.573 1007.11 183.772C1003.32 175.238 994.028 171.026 986.038 176.838C981.249 180.316 977.826 185.806 974.137 190.35C969.748 195.773 965.303 201.141 960.647 206.33C951.157 216.931 940.789 227.088 928.588 234.555C915.219 242.745 900.14 246.879 884.438 245.545C866.447 244.012 849.401 236.989 832.61 230.844C799.462 218.72 766.325 206.608 733.177 194.484C721.598 190.25 693.284 183.716 697.206 166.059C699.373 156.291 710.075 151.957 719.053 152.246C728.699 152.557 738.255 156.602 746.89 160.581C761.547 167.337 775.182 176.093 789.772 183.005C802.34 188.95 815.586 193.284 829.288 195.729C857.157 200.718 886.338 198.362 912.975 188.706C930.254 182.438 964.169 168.804 957.569 144.59C955.068 135.411 946.356 130.599 937.222 133.389C924.743 137.2 920.098 150.013 913.375 159.803C897.117 183.461 864.158 186.228 838.755 178.271C808.319 168.737 783.505 147.035 755.702 132.188C728.221 117.509 699.284 108.475 669.003 101.685C660.725 99.8294 630.777 91.1284 644.59 79.1271C653.646 71.2484 669.281 73.4487 679.882 76.049C712.542 84.0498 744.734 95.1622 776.048 107.341C792.584 113.775 808.93 120.709 825.065 128.121C838.433 134.266 852.024 142.69 866.714 145.234C873.693 146.446 890.439 146.69 892.428 137.145C893.295 132.966 890.039 129.91 886.939 127.71C880.705 123.287 873.237 119.954 866.547 116.253C812.441 86.3612 755.479 57.5469 693.262 50.3239C682.883 49.1238 658.624 51.6129 652.99 39.6227C649.468 32.1219 661.625 24.221 666.848 20.9206C673.248 16.8646 680.316 13.9754 687.65 12.0975C718.287 4.25214 749.123 14.3088 776.471 27.9881C805.73 42.6342 833.81 59.436 863.325 73.6376C892.15 87.5058 921.587 100.096 951.523 111.375C967.07 117.231 982.76 122.721 998.562 127.855C1013.91 132.833 1030.04 139.256 1046 141.823C1051.63 142.734 1063.47 142.867 1064.6 134.944C1065.83 126.388 1055.09 124.954 1049.21 124.721C1030.99 123.976 1012.42 115.342 995.717 108.686C983.66 103.885 971.781 98.6626 959.769 93.7398C932.321 82.483 905.185 70.3928 878.182 58.1248C849.034 44.8788 819.32 31.8107 791.706 15.4978C787.983 13.2976 784.049 11.0862 780.771 8.24147C780.249 7.78586 778.404 6.56351 778.393 5.78564C778.382 5.2078 777.682 6.44127 778.738 5.77453C780.216 4.82998 784.894 5.50783 786.55 5.44116C792.017 5.23003 797.473 5.00778 802.94 4.81887C834.055 3.7632 867.236 1.52962 897.951 7.69696C901.885 8.48594 908.241 9.36382 911.119 12.5419C914.075 15.7979 910.419 18.2981 909.274 21.6541C905.563 32.5108 916.086 42.123 923.732 47.9903C937.333 58.447 953.335 65.8589 969.07 72.493C980.238 77.2046 991.717 81.9274 1003.44 85.0499C1012.47 87.4502 1024.45 89.5171 1031.78 82.0385C1038.07 75.6156 1037.6 64.9255 1033.21 57.6136C1027.37 47.9014 1015.26 44.3232 1004.65 43.4009C987.75 41.9341 971.381 45.3122 955.413 37.7225C949.279 34.8111 943.323 30.8217 938.711 25.799C934.977 21.7318 929.377 10.6862 936.733 7.34137C944.078 4.00767 954.579 5.31892 962.325 5.96344C982.349 7.63029 1005.14 11.4752 1023.16 20.854C1046.62 33.0664 1054.85 62.9142 1069.56 83.0719C1084.55 103.619 1105.4 119.665 1128.9 129.333C1140.94 134.289 1153.63 137.545 1166.58 138.911C1178.22 140.134 1192.42 140.956 1202.17 133.244C1210.49 126.677 1213.22 115.542 1206.47 106.841C1198.81 96.9624 1185.83 96.0512 1174.33 95.8511C1156.1 95.54 1140.71 90.8284 1124.54 82.5386C1112.16 76.1934 1099.64 69.526 1088.34 61.3584C1077.04 53.1909 1066.19 42.5341 1062.16 28.7882C1055.37 5.61896 1092.35 10.4528 1104 14.4755C1117.82 19.2427 1130.74 27.088 1145.59 28.3437C1161.18 29.6661 1172.4 20.0761 1186.24 14.7755C1200.56 9.29714 1216.12 7.15246 1231.4 8.50817C1247.81 9.95277 1262.29 16.509 1277.48 22.3319C1291.07 27.5436 1304.54 30.4773 1319.12 28.4215C1335.2 26.1434 1350.22 19.6538 1365.75 15.2422C1382.25 10.5528 1400 7.10801 1417.21 7.30803C1424.54 7.39693 1433.68 8.76375 1436.9 16.3535C1441.26 26.6213 1431.71 36.1112 1422.51 38.5448C1406.28 42.8231 1389.98 33.5554 1373.61 34.8777C1361.61 35.8445 1350.57 41.4007 1339.83 46.4123C1326.83 52.4908 1312.65 58.8804 1298.13 54.3243C1291.02 52.0908 1284.67 47.7792 1277.93 44.6677C1270.91 41.4229 1263.61 38.8004 1256.15 36.8557C1229.55 29.9328 1201.33 31.4885 1175.61 41.1007C1167.41 44.1677 1159.11 48.0236 1150.27 48.7126C1142.38 49.3238 1135.61 46.4679 1128.5 43.5454C1118.73 39.5338 1106.94 36.5557 1098.7 45.1678C1098.1 45.7901 1098.02 46.9124 1098.7 47.5236C1109.45 57.2469 1122.56 63.8587 1136.9 66.2812C1151.57 68.7593 1165.31 65.9256 1179.39 61.8029C1188.03 59.2693 1196.71 56.4801 1205.73 55.7467C1215.36 54.9577 1224.39 57.1358 1233.25 60.7584C1248.65 67.0368 1262.71 74.8488 1279.24 78.0381C1294.34 80.9495 1309.92 81.0828 1325.05 78.3603C1343.38 75.0711 1359.5 66.0701 1377.1 60.5584C1393.25 55.5022 1414.36 53.7798 1426.74 67.7369C1432.17 73.8487 1435.42 82.6719 1433.32 90.795C1431.02 99.6849 1422.79 105.03 1415.37 109.464C1364.55 139.845 1295.64 135.744 1248.39 100.252C1241.96 95.4178 1230.59 82.4608 1222.33 91.7285C1216.49 98.2847 1219.45 109.086 1224.82 114.831C1229.17 119.476 1234.85 122.621 1239.22 127.232C1246.61 135.044 1247.01 145.957 1241.73 155.124C1232.59 171.026 1210.79 174.971 1194.01 175.338C1177.96 175.682 1161.82 172.337 1147.23 165.648C1140.28 162.458 1133.7 158.447 1127.71 153.691C1122.52 149.568 1118.14 144.834 1111.53 143.045C1101.51 140.323 1091.82 145.034 1087.58 154.447C1081.68 167.57 1086.25 183.116 1089.56 196.296C1095.52 220.043 1106.06 247.035 1132.07 254.48C1139.16 256.502 1145.42 254.935 1145.98 246.79C1146.61 237.633 1141.58 228.91 1136.64 221.598C1130.92 213.109 1123.85 205.385 1119 196.34C1116.73 192.106 1114.56 187.061 1115.83 182.172C1116.3 180.372 1117.44 177.605 1119.08 176.504C1124 173.182 1129.43 180.894 1131.73 184.361C1136.1 190.906 1137.42 198.551 1139.77 205.919C1141.87 212.531 1145.07 218.409 1149.19 223.988C1157.6 235.344 1169.3 245.212 1173.68 259.058C1177.73 271.848 1172.65 288.317 1183.69 298.385C1190.27 304.374 1201.07 305.574 1205.44 296.407C1210.83 285.094 1203.27 267.559 1199.6 256.836C1197.25 250.013 1194.54 243.312 1191.49 236.778C1188.05 229.377 1175.11 211.897 1188.17 208.408C1195.25 206.519 1203.15 208.23 1210.37 208.064C1218.64 207.875 1226.99 206.774 1234.79 203.941C1246.01 199.863 1256.26 191.973 1261.4 180.994C1263.81 175.86 1264.29 170.37 1265.64 164.937C1269.09 151.002 1282.48 153.613 1293.49 156.28C1308.92 160.014 1323.83 166.637 1339.98 166.426C1354.92 166.237 1369.15 161.092 1382.82 155.48C1390.16 152.468 1397.42 149.257 1404.84 146.434C1413.53 143.134 1430.81 134.933 1434.72 148.246C1440.9 169.259 1414.1 178.649 1398.96 182.072C1380.22 186.306 1361.27 190.45 1342.08 191.873C1333.29 192.517 1324.6 192.328 1315.81 191.828C1308.41 191.417 1300.58 191.039 1293.66 194.195C1288.46 196.562 1284.73 200.652 1281.27 205.097C1275.95 211.931 1271.07 217.609 1263.9 222.654C1252.57 230.633 1241.39 237.433 1235.74 250.746C1231.1 261.692 1230.2 275.782 1236.24 286.417C1242 296.551 1253.13 299.34 1263.45 294.24C1276.7 287.672 1281.54 272.671 1289.89 261.492C1307.93 237.367 1337.83 226.154 1366.64 221.521C1381.72 219.098 1399.18 216.764 1414.25 219.987C1423.28 221.91 1432.53 227.466 1435.33 236.811C1438.47 247.301 1430.94 256.58 1422.59 261.892C1395.45 279.116 1360.32 267.815 1330.57 275.538C1318.52 278.66 1307.01 284.661 1299.67 295.006C1290.84 307.475 1289.16 324.054 1275.33 332.722C1263.45 340.167 1246.84 340.356 1234.97 332.866C1228.41 328.732 1217.92 312.075 1209.07 321.52C1201.71 329.377 1204.96 344.723 1206.77 353.969C1208.24 361.447 1210.25 369.059 1209.87 376.738C1209.43 385.694 1204.57 391.128 1200.44 398.518C1195.86 406.697 1196.84 416.009 1206.07 420.165C1215.79 424.532 1225.56 420.198 1231.98 412.442C1241.7 400.685 1243.39 381.705 1257.19 373.404C1271.01 365.092 1289.17 371.215 1304.13 365.736C1334.33 354.68 1347.01 322.209 1368.85 301.296C1380.94 289.717 1398.95 279.683 1416.12 285.005C1433.09 290.261 1444.07 308.875 1433.25 324.888C1424.24 338.233 1406.71 345.845 1393.33 353.891C1377.08 363.658 1360.94 373.648 1344.51 383.116C1328.58 392.306 1312.23 398.773 1294.98 405.007C1285.12 408.575 1270.83 412.064 1273.69 425.21C1276.09 436.2 1285.95 443.978 1296.37 446.979C1309.84 450.868 1323.99 446.512 1336.2 440.689C1364.98 426.965 1391.24 406.385 1412.89 383.105C1415.59 380.194 1420.86 372.282 1425.63 373.515C1429.65 374.549 1432.1 380.316 1433.17 383.727C1435.3 390.561 1435.3 398.629 1435.45 405.752C1435.77 420.065 1434.25 434.566 1429.67 448.19C1424.88 462.414 1416.42 475.326 1403.97 483.938C1391.03 492.906 1375.66 497.44 1363.8 508.13C1346 524.176 1329.51 557.947 1344.11 580.882C1349.98 590.106 1361.54 595.584 1372.06 591.172C1382.18 586.928 1387.66 575.882 1391.59 566.314C1398.49 549.546 1404.75 532.477 1411.31 515.564C1413.8 509.152 1420.51 490.695 1431 496.084C1438.87 500.118 1435.88 517.931 1435.75 524.754C1435.11 561.836 1431.9 598.829 1415.71 632.755C1403.81 657.68 1379.24 701.229 1345.7 687.994C1333.6 683.216 1320.76 673.982 1314.26 662.48C1306.91 649.468 1314.8 631.666 1318.31 618.498C1322.05 604.474 1325.63 588.706 1323.46 574.159C1321.08 558.135 1306.23 539.567 1315.93 523.643C1322.44 512.975 1336.08 507.741 1337.43 493.973C1338.3 485.116 1331.44 477.86 1322.41 479.782C1309.35 482.56 1305.8 495.662 1303.21 506.874C1301.4 514.731 1299.07 522.198 1292.88 527.788C1287.07 533.044 1279.48 535.889 1272 537.811C1255.31 542.1 1237.47 543.256 1220.35 544.901C1201.8 546.69 1183.14 547.79 1164.48 547.557C1145.58 547.323 1126.69 545.745 1108.11 542.189C1089.59 538.644 1071.49 533.311 1053.17 528.932C1036.47 524.932 1019.56 522.209 1002.54 519.976C985.338 517.709 967.436 514.397 950.157 517.72C923.909 522.754 905.885 543.99 893.006 565.97C889.305 572.281 885.938 578.771 882.716 585.327C879.449 591.973 875.215 599.04 874.282 606.496C872.648 619.509 881.582 631.032 890.006 639.911C900.173 650.635 912.764 659.58 926.465 665.169C934.81 668.581 951.39 669.659 951.757 656.38C951.901 650.968 947.29 647.268 943.756 643.889C937.377 637.778 928.699 631.799 923.654 624.543C915.108 612.253 933.966 603.907 943.245 601.374C951.157 599.207 959.524 598.884 967.647 599.851C985.338 601.963 1001.36 610.63 1016.32 619.831C1029.93 628.21 1043.53 639.189 1059.5 642.578C1075.57 645.99 1091.08 636.1 1106.91 641.556C1122.18 646.823 1132.98 660.88 1143.03 672.748C1149.03 679.827 1157.15 687.172 1161.68 695.284C1167.64 705.952 1158.15 713.708 1150.88 720.565C1144.3 726.765 1136.89 731.821 1127.7 732.81C1120.76 733.555 1114.05 732.499 1107.36 734.933C1096.42 738.911 1086.29 746.334 1077.62 753.968C1074.64 756.591 1070.56 759.791 1070.81 764.225C1071.11 769.548 1077.36 772.937 1081.54 774.948C1111.87 789.528 1142.93 763.58 1173.47 764.692C1178.67 764.88 1184.23 766.403 1189.05 763.714C1193.02 761.502 1196.08 757.291 1198.57 753.624C1205.78 743.023 1205.62 733.477 1202.9 721.176C1199.92 707.763 1193.82 695.006 1185.25 684.272C1180.59 678.427 1175.15 673.526 1169.5 668.67C1162.12 662.314 1156.16 655.613 1150.16 647.945C1131.21 623.776 1104.61 610.964 1076.46 600.296C1042.18 587.305 1006.85 577.049 970.937 569.659C962.647 567.948 954.302 566.559 945.99 564.992C942.434 564.325 938.278 563.692 935.233 561.558C930.877 558.513 930.954 553.613 933.721 549.49C936.577 545.245 942.734 545.201 947.123 545.667C956.102 546.623 965.058 550.468 973.77 552.813C983.038 555.302 992.361 557.558 1001.74 559.558C1018.78 563.192 1035.98 566.003 1053.28 568.003C1070.73 570.026 1088.42 570.626 1105.69 573.993C1121.63 577.104 1136.82 582.905 1148.99 593.951C1159.27 603.285 1167.17 614.831 1176.11 625.365C1184.05 634.711 1193.21 643.801 1204.74 648.512C1212.83 651.813 1225.08 652.802 1230.79 644.656C1238.7 633.366 1227.06 621.52 1219.34 614.297C1212.52 607.93 1206.38 600.574 1209.19 590.606C1212.17 579.938 1222.03 573.726 1231.69 569.792C1247.11 563.514 1266.91 556.058 1283.13 563.269C1304.2 572.637 1298.58 597.195 1289.04 612.908C1281.82 624.787 1271.75 635.288 1274.48 650.212C1277.35 665.892 1285.7 681.782 1294.41 694.962C1301.74 706.085 1310.35 718.02 1323.74 721.898C1337.33 725.832 1352.18 721.754 1364.79 716.475C1378.72 710.652 1391.82 702.929 1403.68 693.606C1409.8 688.805 1415.09 682.505 1421.53 678.238C1425.53 675.593 1426.04 675.36 1430.48 677.704C1435.44 680.327 1434.91 680.605 1435.48 686.305C1435.98 691.217 1435.85 696.217 1435.09 701.096C1432.72 716.12 1421.89 727.821 1427.32 743.4C1429.35 749.223 1433.68 755.768 1433.12 762.147C1432.28 771.892 1419.48 771.537 1412.16 772.492C1388.87 775.548 1364.84 779.716 1341.31 776.826C1331.53 775.626 1318.8 772.904 1312.52 764.447C1310.41 761.614 1310.65 760.991 1313 758.935C1314.86 757.302 1317 755.924 1319.03 754.502C1322.79 751.89 1326.66 749.401 1330.19 746.467C1333.28 743.889 1338.49 739.211 1334.77 735.022C1331.29 731.099 1323.12 732.255 1318.63 732.577C1308.76 733.31 1299 734.988 1289.12 735.7C1281.53 736.244 1269.78 737.578 1263.72 731.766C1257.8 726.087 1256.3 715.242 1254.72 707.585C1253.29 700.618 1251.93 693.628 1248.93 687.116C1244.54 677.615 1236.08 669.037 1224.83 670.603C1194.45 674.837 1219.49 710.519 1228.89 722.631C1237.82 734.144 1247.87 744.912 1261.51 750.623C1268.24 753.446 1275.63 755.091 1282.09 758.491C1283.44 759.202 1285.79 760.236 1286.76 761.491C1292.29 768.714 1285.74 771.092 1281.9 772.181C1277.49 773.437 1272.71 773.682 1268.15 773.437C1252.59 772.626 1239.42 760.947 1223.56 763.703C1216.83 764.88 1210.64 767.937 1204.42 770.637C1194.67 774.871 1184.86 777.826 1174.31 779.193C1172.29 779.46 1172.27 782.794 1174.39 782.516Z" fill="url(#paint0_linear_909_11371)" fill-opacity="0.1"/>
<defs>
<linearGradient id="paint0_linear_909_11371" x1="1250.1" y1="-124.982" x2="1303.17" y2="747.227" gradientUnits="userSpaceOnUse">
<stop offset="0.0517443" stop-color="#002D59" stop-opacity="0"/>
<stop offset="0.137721" stop-color="#002D59" stop-opacity="0.169291"/>
<stop offset="0.416772" stop-color="#002D59" stop-opacity="0.71875"/>
<stop offset="1" stop-color="#002D59"/>
</linearGradient>
</defs>
</svg>
