<svg width="75" height="75" viewBox="0 0 75 75" fill="none" xmlns="http://www.w3.org/2000/svg">
<g clip-path="url(#clip0_932_7227)">
<path fill-rule="evenodd" clip-rule="evenodd" d="M9.19141 37.4757C9.19141 38.3156 9.87273 38.9954 10.7141 38.9954C11.5539 38.9954 12.2352 38.3156 12.2352 37.4757C12.2352 36.6359 11.5539 35.9546 10.7141 35.9546C9.87273 35.9546 9.19141 36.6359 9.19141 37.4757Z" fill="white"/>
<path fill-rule="evenodd" clip-rule="evenodd" d="M62.6484 37.4757C62.6484 38.3156 63.3298 38.9954 64.1696 38.9954C65.011 38.9954 65.6923 38.3156 65.6923 37.4757C65.6923 36.6359 65.011 35.9546 64.1696 35.9546C63.3282 35.9546 62.6484 36.6359 62.6484 37.4757Z" fill="white"/>
<path fill-rule="evenodd" clip-rule="evenodd" d="M46.9712 70.9636C47.7806 72.3796 49.5441 73.3017 51.9355 72.0869C50.1263 71.2685 49.5959 69.7686 46.9712 70.9636ZM43.807 71.7013C46.5307 70.7563 46.9194 72.2988 48.6433 73.2819C46.1497 74.2696 44.4807 73.1874 43.807 71.7013ZM40.6656 72.1342C41.2021 73.6736 42.7644 74.9037 45.3388 74.1492C43.7109 73.0121 43.464 71.4407 40.6656 72.1342ZM37.4724 72.279C40.3242 71.8446 40.4247 73.4328 41.9398 74.7116C39.309 75.2299 37.8641 73.8626 37.4724 72.279ZM33.9362 72.0961C34.1648 73.7102 35.4619 75.2192 38.1339 74.9723C36.7545 73.5441 36.8154 71.9543 33.9362 72.0961ZM30.4351 71.5565C33.3143 71.7074 33.0918 73.2819 34.3188 74.8442C31.6362 74.8183 30.4991 73.1859 30.4351 71.5565ZM27.0087 70.6633C26.9066 72.2912 27.8714 74.0303 30.5372 74.3291C29.4764 72.6509 29.8574 71.1054 27.0087 70.6633ZM23.689 69.4272C23.4222 71.0352 24.2057 72.8643 26.8288 73.4313C25.9433 71.6541 26.4798 70.1573 23.689 69.4272ZM20.5141 67.8603C20.0842 69.4318 20.6787 71.3309 23.2287 72.1616C22.5291 70.3052 23.215 68.8709 20.5141 67.8603ZM17.5144 65.9795C20.098 67.2583 19.2688 68.6148 19.7764 70.5353C17.3254 69.4485 16.9276 67.5006 17.5144 65.9795ZM14.7206 63.8029C13.9813 65.2555 14.1795 67.2354 16.5085 68.563C16.2006 66.6029 17.1623 65.3362 14.7206 63.8029ZM12.1645 61.3535C14.4355 63.1277 13.3518 64.2906 13.4585 66.2721C11.2759 64.7128 11.2804 62.7238 12.1645 61.3535ZM9.86903 58.6572C8.85238 59.9314 8.64357 61.9098 10.657 63.6825C10.75 61.6995 11.948 60.6524 9.86903 58.6572ZM7.86013 55.7414C9.72728 57.9393 8.42865 58.8584 8.13296 60.82C6.31001 58.8538 6.7185 56.9059 7.86013 55.7414ZM6.15759 52.6381C4.90317 53.6807 4.29959 55.5752 5.91219 57.7168C6.40604 55.7947 7.79154 55.0128 6.15759 52.6381ZM4.78123 49.3778C6.16521 51.9065 4.70807 52.5436 4.02066 54.4062C2.63363 52.1107 3.42622 50.2863 4.78123 49.3778ZM3.74173 45.9941C2.30288 46.7608 1.32739 48.4953 2.47511 50.9203C3.34543 49.1355 4.86049 48.6493 3.74173 45.9941ZM3.05279 42.522C3.89567 45.2777 2.33946 45.6085 1.29081 47.2927C0.397623 44.7656 1.54382 43.1377 3.05279 42.522ZM2.72051 38.998C1.15515 39.4583 -0.149566 40.9596 0.482978 43.566C1.69777 41.9946 3.27837 41.8254 2.72051 38.998ZM2.74795 35.4588C3.01621 38.3289 1.42494 38.3365 0.0562013 39.7753C-0.306559 37.1186 1.14448 35.7575 2.74795 35.4588ZM3.13509 31.9394C1.51029 32.0751 -0.0718318 33.2822 0.0196204 35.9603C1.52553 34.6692 3.10918 34.8217 3.13509 31.9394ZM3.87891 28.4795C3.56035 31.3434 2.00109 31.031 0.370187 32.1619C0.550043 29.4885 2.24801 28.4474 3.87891 28.4795ZM4.97024 25.1125C3.35001 24.9159 1.55754 25.777 1.10485 28.42C2.84092 27.4582 4.36208 27.9292 4.97024 25.1125ZM6.39689 21.8736C4.80715 21.5138 2.9339 22.1891 2.216 24.7711C4.042 23.9922 5.50676 24.6141 6.39689 21.8736ZM8.1482 18.7962C6.60113 18.2764 4.67149 18.7581 3.69295 21.2547C5.58906 20.6649 6.98218 21.4315 8.1482 18.7962ZM10.2013 15.9124C8.77465 18.4167 7.46536 17.5113 5.51895 17.9045C6.74593 15.5207 8.71673 15.2372 10.2013 15.9124ZM12.5379 13.2527C11.128 12.4296 9.14046 12.5134 7.67875 14.7586C9.65412 14.565 10.8643 15.5984 12.5379 13.2527ZM15.1336 10.8429C13.2284 13.0073 12.1309 11.855 10.1464 11.8489C11.8292 9.76222 13.8152 9.88264 15.1336 10.8429ZM17.9595 8.71052C16.7462 7.62072 14.7815 7.29911 12.8946 9.20437C14.8684 9.41318 15.8454 10.6691 17.9595 8.71052ZM20.9881 6.87691C18.685 8.61145 17.8421 7.26101 15.8988 6.85404C17.9702 5.14846 19.8922 5.66821 20.9881 6.87691ZM24.1874 5.3588C23.218 4.04646 21.3615 3.33466 19.127 4.81771C21.0201 5.42129 21.7212 6.84947 24.1874 5.3588ZM27.5254 4.17297C24.919 5.40605 24.3673 3.91538 22.5474 3.12279C24.919 1.87142 26.6962 2.76918 27.5254 4.17297ZM30.9671 3.33466C30.2842 1.85465 28.6076 0.780089 26.1201 1.78302C27.8501 2.75546 28.2479 4.29643 30.9671 3.33466ZM34.4743 2.84843C31.6728 3.52975 31.4335 1.95677 29.8117 0.813621C32.3876 0.0667611 33.9469 1.30594 34.4743 2.84843ZM38.0135 2.7204C37.6446 1.13218 36.221 -0.25637 33.5811 0.22223C35.0794 1.52542 35.1571 3.11365 38.0135 2.7204ZM41.5481 2.9536C38.6658 3.0542 38.7496 1.46598 37.3931 0.0179865C40.0666 -0.189305 41.3423 1.33642 41.5481 2.9536ZM45.04 3.545C45.0004 1.9141 43.8877 0.266432 41.2051 0.202415C42.4077 1.77997 42.1623 3.35295 45.04 3.545ZM48.4543 4.48848C45.6116 4.00378 46.0155 2.46586 44.9791 0.772468C47.6403 1.10932 48.5792 2.86215 48.4543 4.48848ZM51.7542 5.77186C52.0453 4.1684 51.2878 2.32716 48.6753 1.72205C49.5334 3.51299 48.9755 5.00214 51.7542 5.77186ZM54.9077 7.38599C55.3604 5.81911 54.7934 3.91233 52.2556 3.04506C52.9278 4.91221 52.2206 6.33734 54.9077 7.38599ZM57.8784 9.30954C55.3117 7.99415 56.1606 6.64828 55.682 4.72168C58.1177 5.8435 58.4881 7.79753 57.8784 9.30954ZM60.6403 11.5273C61.4008 10.0838 61.2317 8.10237 58.921 6.73973C59.2014 8.70443 58.2214 9.95732 60.6403 11.5273ZM63.1613 14.0132C60.9146 12.2055 62.0181 11.0593 61.9389 9.07633C64.0987 10.6661 64.0636 12.6552 63.1613 14.0132ZM65.4171 16.7416C66.4536 15.4826 66.6898 13.5072 64.7038 11.7071C64.5803 13.6871 63.3655 14.7159 65.4171 16.7416ZM67.3833 19.6848C65.5497 17.461 66.8605 16.5617 67.1852 14.6031C68.9777 16.5968 68.5417 18.5371 67.3833 19.6848ZM69.0402 22.814C70.3098 21.7912 70.9393 19.9043 69.3587 17.7384C68.839 19.6528 67.4413 20.4149 69.0402 22.814ZM70.3693 26.0941C69.0234 23.5456 70.4897 22.9283 71.203 21.0764C72.5565 23.3917 71.738 25.2039 70.3693 26.0941ZM71.36 29.4931C72.811 28.7462 73.8109 27.0269 72.6998 24.5866C71.8005 26.3562 70.2793 26.8211 71.36 29.4931ZM71.9971 32.9743C71.1954 30.2064 72.7562 29.8985 73.8292 28.2295C74.6858 30.7703 73.5183 32.3799 71.9971 32.9743ZM72.2791 36.5029C73.8521 36.0654 75.1781 34.5824 74.5852 31.9684C73.346 33.52 71.7624 33.6678 72.2791 36.5029ZM72.1998 40.0406C71.9742 37.1674 73.564 37.1811 74.9541 35.7636C75.2802 38.4249 73.8079 39.7662 72.1998 40.0406ZM71.7624 43.5538C73.3902 43.4426 74.9891 42.2598 74.9358 39.5787C73.4116 40.8484 71.8295 40.6716 71.7624 43.5538ZM70.9698 47.0031C71.328 44.1437 72.8842 44.479 74.5303 43.3709C74.3109 46.0429 72.5992 47.058 70.9698 47.0031ZM69.8297 50.3533C71.4469 50.5743 73.2515 49.7375 73.7423 47.1022C71.991 48.038 70.479 47.5457 69.8297 50.3533ZM68.3543 53.5724C69.9394 53.9565 71.8203 53.3087 72.5763 50.7359C70.7412 51.4873 69.284 50.8441 68.3543 53.5724ZM66.5603 56.6239C68.0982 57.1665 70.0355 56.7123 71.0506 54.2294C69.1453 54.7918 67.7629 54.0038 66.5603 56.6239ZM64.4645 59.4772C65.9293 56.9943 67.2233 57.9179 69.1743 57.5537C67.9138 59.9192 65.9399 60.1722 64.4645 59.4772ZM62.0898 62.1019C63.4875 62.9448 65.4766 62.8914 66.9718 60.6661C64.9919 60.8322 63.7984 59.782 62.0898 62.1019ZM59.459 64.4751C61.3947 62.3381 62.4769 63.5042 64.463 63.5407C62.7482 65.603 60.7637 65.4536 59.459 64.4751ZM56.6011 66.5663C57.8007 67.6729 59.7593 68.0234 61.6737 66.1456C59.7029 65.9093 58.7442 64.6366 56.6011 66.5663ZM53.5466 68.3572C55.8756 66.6562 56.6987 68.0173 58.6359 68.4532C56.5402 70.1268 54.6273 69.5796 53.5466 68.3572ZM50.3275 69.8281C52.815 68.3725 53.4963 69.8098 55.3787 70.4408C53.1244 71.8934 51.2756 71.1526 50.3275 69.8281Z" fill="white"/>
<path fill-rule="evenodd" clip-rule="evenodd" d="M37.5022 4.36572C55.8139 4.36572 70.6582 19.1993 70.6582 37.4989C70.6582 55.7985 55.8139 70.632 37.5022 70.632C19.1904 70.632 4.34766 55.7969 4.34766 37.4989C4.34766 19.2008 19.1904 4.36572 37.5022 4.36572ZM68.5685 44.8166H60.2539C57.1613 54.4252 48.1457 61.3786 37.5022 61.3786C26.8586 61.3786 17.843 54.4236 14.7519 44.8166H6.43582C9.74486 58.9018 22.3973 69.3913 37.5022 69.3913C52.607 69.3913 65.2594 58.9018 68.5685 44.8166ZM60.4155 44.2907C60.4445 44.1962 60.4704 44.1033 60.4978 44.0088C60.4704 44.1033 60.4429 44.1978 60.4155 44.2907ZM60.6441 43.4707H68.8535C69.2193 41.535 69.4144 39.5413 69.4144 37.5004C69.4144 35.4595 69.2193 33.4643 68.8535 31.5301H60.6441H59.2434C56.6248 21.987 47.8835 14.9727 37.5022 14.9727C27.1208 14.9727 18.3795 21.987 15.7609 31.5301H14.3617H6.15231C5.7865 33.4643 5.59141 35.461 5.59141 37.5004C5.59141 39.5413 5.78498 41.5365 6.15231 43.4707H14.3617H15.7609C18.3795 53.0137 27.1208 60.0281 37.5022 60.0281C47.8835 60.0281 56.6248 53.0137 59.2434 43.4707H60.6441ZM60.6441 31.5286C60.606 31.3822 60.5664 31.2344 60.5253 31.0881C60.5649 31.2344 60.606 31.3822 60.6441 31.5286ZM60.4978 30.9905C60.4704 30.896 60.4445 30.803 60.4155 30.7085C60.4429 30.803 60.4704 30.8975 60.4978 30.9905ZM60.2539 30.1842H68.5685C65.2594 16.0975 52.607 5.60947 37.5022 5.60947C22.3973 5.60947 9.74486 16.0975 6.43582 30.1842H14.7519C17.843 20.5756 26.8586 13.6222 37.5022 13.6222C48.1441 13.6207 57.1613 20.5741 60.2539 30.1842ZM14.508 44.0088C14.5354 44.1033 14.5613 44.1978 14.5903 44.2907C14.5613 44.1978 14.5339 44.1033 14.508 44.0088ZM14.508 30.9905C14.5354 30.8975 14.5613 30.803 14.5903 30.7085C14.5613 30.803 14.5339 30.8975 14.508 30.9905Z" fill="white"/>
<path d="M15.9049 17.516L17.2751 18.7049C17.3742 18.7902 17.4489 18.8893 17.5038 19.0021C17.5571 19.1164 17.5891 19.2338 17.5983 19.3557C17.6074 19.4776 17.5937 19.5996 17.5571 19.72C17.522 19.8419 17.4611 19.9517 17.3757 20.0492L17.1639 20.2946L18.2095 21.2L17.7888 21.6832L13.9219 18.3284L14.5544 17.6013C14.6383 17.5023 14.7388 17.4276 14.8516 17.3742C14.9644 17.3209 15.0833 17.2889 15.2053 17.2797C15.3272 17.2721 15.4491 17.2874 15.5711 17.3255C15.6915 17.3636 15.8043 17.4276 15.9049 17.516ZM17.0998 19.3908L15.2449 17.7827L14.8257 18.2659L16.6792 19.8739L17.0998 19.3908Z" fill="white"/>
<path d="M20.2252 17.832L18.2071 15.3445C18.1264 15.2439 18.0654 15.1327 18.0288 15.0123C17.9922 14.8903 17.98 14.7684 17.9938 14.6464C18.006 14.5245 18.041 14.4087 18.0989 14.2959C18.1568 14.1846 18.2376 14.0855 18.3428 14.0017L19.0927 13.3936L19.4966 13.892L18.5013 14.6983L19.3091 15.6936L19.8076 15.2897L20.2115 15.7866L19.7131 16.1905L20.9202 17.6781L21.9155 16.8718L22.3194 17.3687L21.5695 17.9753C21.4644 18.0607 21.3531 18.1201 21.2312 18.1536C21.1092 18.1857 20.9873 18.1963 20.8654 18.1811C20.7419 18.1674 20.6261 18.1293 20.5148 18.0713C20.402 18.0134 20.306 17.9326 20.2252 17.832Z" fill="white"/>
<path d="M25.1499 14.8485L24.8451 14.3013L24.5616 14.4583C24.4473 14.5208 24.3284 14.5604 24.2004 14.5726C24.0723 14.5848 23.9519 14.5772 23.8346 14.5452C23.7172 14.5132 23.609 14.4614 23.5068 14.3852C23.4047 14.3105 23.3224 14.216 23.2584 14.1032L21.8516 11.5745L22.4186 11.2605L23.9687 14.0468L24.5281 13.7359L22.9779 10.9496L23.5389 10.6387L26.0264 15.1107L25.4655 15.4216L25.1499 14.8485Z" fill="white"/>
<path d="M26.582 9.32334L27.1871 9.11148L27.8197 10.9268L28.4248 10.7165L27.7922 8.90114L28.3913 8.69385L30.074 13.5271L29.475 13.7344L28.6351 11.3216L28.03 11.5319L28.8699 13.9447L28.2663 14.1566L26.582 9.32334Z" fill="white"/>
<path d="M34.1853 11.7425C34.2082 11.8797 34.2036 12.0092 34.1731 12.1312C34.1426 12.2531 34.0908 12.3644 34.0192 12.4619C33.9475 12.561 33.8576 12.6448 33.7509 12.7104C33.6427 12.7759 33.5223 12.8201 33.3897 12.8415C33.2571 12.8643 33.1306 12.8597 33.0101 12.8323C32.8882 12.8033 32.7769 12.753 32.6779 12.6814C32.5788 12.6098 32.495 12.5214 32.4294 12.4147C32.3639 12.3095 32.3197 12.1876 32.2968 12.0504L31.7679 8.83279C31.7466 8.70171 31.7496 8.57215 31.7771 8.44565C31.8045 8.31914 31.8548 8.20635 31.9264 8.10422C31.9965 8.0021 32.0849 7.91827 32.1901 7.84816C32.2953 7.77957 32.4142 7.73537 32.5483 7.71403C32.6809 7.69116 32.8089 7.69726 32.9339 7.72775C33.0574 7.75823 33.1702 7.81005 33.2708 7.88474C33.3698 7.9579 33.4552 8.04935 33.5223 8.1591C33.5924 8.26884 33.6381 8.39077 33.6594 8.52338L34.1853 11.7425ZM32.3456 8.44717L32.9675 12.2318L33.6 12.1281L32.9781 8.342L32.3456 8.44717Z" fill="white"/>
<path d="M36.8301 6.86526L36.8377 6.2251L38.7536 6.24644L38.746 6.8866L36.8301 6.86526ZM37.7202 12.5262L38.6835 12.5368L38.7384 7.42007L38.0967 7.41398L38.051 11.889L37.4108 11.8814L37.4596 7.40483L36.827 7.39721L36.7813 11.5568C36.7798 11.6863 36.8042 11.8083 36.8545 11.9256C36.9017 12.0415 36.9703 12.1436 37.0557 12.2335C37.141 12.3234 37.2416 12.3936 37.3559 12.4454C37.4672 12.4972 37.5907 12.5246 37.7202 12.5262Z" fill="white"/>
<path d="M47.8815 9.33271L47.4715 10.5551C47.4288 10.6832 47.3816 10.799 47.3328 10.9026C47.2825 11.0078 47.2216 11.0932 47.1514 11.1618C47.0813 11.2288 46.9975 11.2715 46.903 11.2913C46.8085 11.3096 46.6972 11.2989 46.5692 11.2563C46.6927 11.2974 46.7856 11.3538 46.8496 11.4285C46.9121 11.5032 46.9533 11.5885 46.9685 11.6846C46.9838 11.7821 46.9823 11.8888 46.9594 12.0046C46.9381 12.122 46.906 12.2409 46.8664 12.3644L46.2583 14.1873L45.6562 13.9861L46.2674 12.1632C46.3238 11.9955 46.3406 11.8415 46.3177 11.7059C46.2948 11.5687 46.2445 11.4879 46.1683 11.462L45.8604 11.3584L45.0496 13.7819L44.4414 13.5791L46.0647 8.72607L46.6728 8.92879L46.0632 10.7517L46.3634 10.8523C46.4412 10.8783 46.5311 10.8417 46.6347 10.7456C46.7384 10.6481 46.8176 10.5155 46.874 10.3478L47.2795 9.13304L47.8815 9.33271Z" fill="white"/>
<path d="M51.7863 11.1736L52.6292 11.6416L50.1462 16.1075L49.5853 15.7966L51.7588 11.8915L51.1979 11.5806L49.0259 15.4871L48.4727 15.1793L50.4907 11.5501C50.5547 11.4358 50.6355 11.3428 50.7361 11.2666C50.8352 11.1904 50.9449 11.134 51.0638 11.099C51.1827 11.0624 51.3031 11.0517 51.4296 11.0639C51.5531 11.073 51.6735 11.1112 51.7863 11.1736Z" fill="white"/>
<path d="M53.5918 17.7535L53.9804 17.2627L53.7259 17.063C53.6238 16.9838 53.543 16.8862 53.482 16.7734C53.4211 16.6607 53.383 16.5448 53.3662 16.4259C53.3494 16.3055 53.357 16.1851 53.3875 16.0616C53.418 15.9397 53.4729 15.8269 53.5521 15.7248L55.3446 13.4507L55.8537 13.8515L53.8798 16.3558L54.3828 16.7521L56.3567 14.2478L56.8597 14.6441L54.0887 18.1605C54.0109 18.258 53.9378 18.3297 53.8707 18.3739C53.8021 18.4181 53.732 18.4425 53.6588 18.4455C53.5857 18.4501 53.511 18.4348 53.4363 18.4028C53.3601 18.3708 53.2778 18.3266 53.1879 18.2687L52.1758 17.4715L52.5827 16.9579L53.5918 17.7535Z" fill="white"/>
<path d="M57.4085 21.1879C57.3048 21.2809 57.1936 21.3464 57.0762 21.383C56.9588 21.4211 56.8415 21.4333 56.7241 21.4211C56.6083 21.4089 56.494 21.3739 56.3797 21.3159C56.2684 21.2596 56.1663 21.1803 56.0779 21.0797L55.4453 20.3709L58.541 17.6106C58.6416 17.5222 58.7528 17.4551 58.8717 17.4125C58.9921 17.3698 59.1141 17.3515 59.2375 17.3576C59.361 17.3637 59.4799 17.3911 59.5942 17.4445C59.7085 17.4978 59.8106 17.574 59.9006 17.6731L60.5468 18.3986L60.0682 18.8239L59.2086 17.8636L58.259 18.7111L58.6858 19.1897C58.8077 19.3253 58.8626 19.4808 58.8504 19.6561C58.8382 19.8314 58.765 19.9777 58.6294 20.0996L57.4085 21.1879ZM56.7714 20.8983L58.2011 19.6241L57.7758 19.1455L56.3461 20.4197L56.7714 20.8983Z" fill="white"/>
<path d="M44.892 41.4214V41.42L44.8711 41.4116L44.892 41.4214Z" fill="white"/>
<path d="M44.8921 38.5726L44.875 38.5654L44.8921 38.574V38.5726Z" fill="white"/>
<path d="M15.3712 54.7658C16.5692 53.5921 18.4866 53.6059 19.7472 54.8923C21.0092 56.1802 20.9833 58.0733 19.7731 59.2591C18.5751 60.4328 16.6576 60.4191 15.3971 59.1326C14.135 57.8447 14.161 55.9501 15.3712 54.7658ZM18.6177 58.0794C19.2198 57.4895 19.3173 56.5415 18.6924 55.9028C18.0736 55.2703 17.1453 55.3496 16.5326 55.9516C15.9306 56.5415 15.833 57.4911 16.4518 58.1221C17.0768 58.7592 18.0035 58.6799 18.6177 58.0794Z" fill="white"/>
<path d="M22.5703 61.2093C23.3309 59.6866 25.099 59.0769 26.6826 59.8665C27.7511 60.3999 28.184 61.194 28.3257 62.0674L26.8564 62.3601C26.7436 61.8373 26.5089 61.4303 26.0089 61.1818C25.2773 60.8176 24.4527 61.1788 24.0656 61.9561C23.6738 62.7396 23.8842 63.6099 24.6158 63.9742C25.1615 64.247 25.6081 64.1525 26.1126 63.9285L26.8152 65.2499C25.983 65.6828 25.0685 65.852 23.9116 65.2743C22.4164 64.5275 21.7838 62.7853 22.5703 61.2093Z" fill="white"/>
<path d="M32.5127 63.3917L30.7812 63.1219L30.9992 61.7212L36.0626 62.5046L35.8447 63.9069L34.1132 63.6386L33.4364 68.0085L31.8375 67.7616L32.5127 63.3917Z" fill="white"/>
<path d="M38.6367 62.4757L41.1151 62.119C42.5768 61.9087 43.6254 62.526 43.8129 63.8216C44.008 65.1842 43.063 66.053 41.6257 66.2603L40.8331 66.3746L41.0709 68.0268L39.4689 68.257L38.6367 62.4757ZM41.4108 65.0089C41.9808 64.9266 42.2841 64.5791 42.2171 64.1096C42.1454 63.6143 41.7613 63.3994 41.1837 63.4832L40.4322 63.5914L40.6517 65.1187L41.4108 65.0089Z" fill="white"/>
<path d="M47.0469 63.77C46.2879 62.2747 46.8777 60.4502 48.4842 59.6348C50.0907 58.8193 51.8893 59.4138 52.656 60.9227C53.415 62.418 52.8252 64.2425 51.2187 65.0579C49.6121 65.8734 47.8136 65.2804 47.0469 63.77ZM51.1836 61.6711C50.8025 60.9197 49.9261 60.5402 49.1305 60.9456C48.341 61.3465 48.1382 62.2534 48.5269 63.02C48.908 63.7715 49.7829 64.151 50.5724 63.7501C51.3696 63.3447 51.5723 62.4378 51.1836 61.6711Z" fill="white"/>
<path d="M53.3945 56.659L55.4796 54.5099C55.9918 53.9825 56.4826 53.7387 56.9673 53.7326C57.298 53.728 57.6181 53.8408 57.9168 54.1319C58.4015 54.6029 58.4214 55.1577 58.2232 55.6851C58.8847 55.3391 59.4853 55.2949 60.0675 55.8573C60.7854 56.5539 60.6543 57.5659 59.6834 58.5658L57.5861 60.7271L53.3945 56.659ZM56.8728 56.4167C57.2157 56.0631 57.2874 55.7491 57.0298 55.4991C56.8027 55.2781 56.4963 55.3299 56.1594 55.6774L55.4278 56.4319L56.164 57.1468L56.8728 56.4167ZM58.6226 57.79C58.9655 57.4364 59.0249 57.0995 58.7674 56.8496C58.5402 56.6285 58.2156 56.6636 57.8376 57.0523L56.9779 57.9378L57.7507 58.6877L58.6226 57.79Z" fill="white"/>
<path fill-rule="evenodd" clip-rule="evenodd" d="M42.7737 56.1407C43.2234 56.9288 44.205 57.4439 45.5371 56.7657C44.5296 56.3099 44.2339 55.4747 42.7737 56.1407ZM41.0102 56.5508C42.5268 56.0249 42.7433 56.883 43.7035 57.4318C42.315 57.982 41.3852 57.3784 41.0102 56.5508ZM39.262 56.7931C39.5607 57.6512 40.431 58.3356 41.8638 57.9149C40.9584 57.2809 40.8197 56.406 39.262 56.7931ZM37.4848 56.8739C39.0714 56.6315 39.1278 57.5156 39.9723 58.2289C38.5075 58.517 37.7027 57.7549 37.4848 56.8739ZM35.5155 56.7718C35.642 57.6711 36.3645 58.5109 37.8521 58.3737C37.0854 57.5781 37.1205 56.691 35.5155 56.7718ZM33.566 56.47C35.1695 56.5538 35.046 57.4318 35.7273 58.3005C34.2351 58.2868 33.6026 57.3769 33.566 56.47ZM31.6592 55.9731C31.6013 56.88 32.1394 57.8494 33.6239 58.0155C33.0326 57.0797 33.2459 56.2185 31.6592 55.9731ZM29.8119 55.2841C29.6625 56.1789 30.0985 57.1985 31.5586 57.5141C31.0663 56.5249 31.3651 55.6911 29.8119 55.2841ZM28.0438 54.4108C27.8061 55.2872 28.1353 56.345 29.5558 56.8084C29.1656 55.7734 29.5482 54.9732 28.0438 54.4108ZM26.3748 53.3636C27.8122 54.0754 27.3518 54.833 27.6338 55.8999C26.2697 55.2948 26.0471 54.2096 26.3748 53.3636ZM24.8201 52.1504C24.4086 52.9597 24.5183 54.0617 25.8154 54.8025C25.6432 53.7112 26.1782 53.0055 24.8201 52.1504ZM23.3965 50.7877C24.6616 51.7754 24.0565 52.4232 24.116 53.5267C22.9012 52.6595 22.9042 51.5498 23.3965 50.7877ZM22.1193 49.2849C21.5507 49.9936 21.4364 51.0956 22.5567 52.0833C22.6085 50.9798 23.2761 50.3975 22.1193 49.2849ZM21.002 47.6616C22.04 48.8855 21.316 49.3961 21.1529 50.4905C20.1378 49.3931 20.3649 48.3094 21.002 47.6616ZM20.054 45.9316C19.3543 46.5124 19.019 47.5671 19.9183 48.7621C20.1911 47.6921 20.9624 47.2562 20.054 45.9316ZM19.2873 44.1163C20.057 45.5247 19.2446 45.8798 18.8636 46.9178C18.0908 45.639 18.5328 44.6223 19.2873 44.1163ZM18.7081 42.2309C17.9064 42.6576 17.3637 43.6255 18.0024 44.9744C18.4871 43.9822 19.3315 43.7109 18.7081 42.2309ZM18.3255 40.2982C18.795 41.833 17.9277 42.0175 17.3439 42.9549C16.8455 41.5465 17.4841 40.6411 18.3255 40.2982ZM18.1396 38.335C17.2677 38.5911 16.5407 39.4279 16.8928 40.8789C17.5695 40.004 18.4505 39.9095 18.1396 38.335ZM18.1548 36.3627C18.3042 37.96 17.4171 37.9661 16.6565 38.7663C16.4538 37.2879 17.2616 36.5288 18.1548 36.3627ZM18.3697 34.4041C17.4643 34.4788 16.5849 35.1509 16.6352 36.6447C17.475 35.9237 18.356 36.0075 18.3697 34.4041ZM18.7843 32.476C18.6075 34.0718 17.7387 33.8965 16.8318 34.5275C16.9309 33.0369 17.8759 32.4577 18.7843 32.476ZM19.3909 30.6012C18.4901 30.4914 17.4902 30.9716 17.2403 32.4439C18.2066 31.9074 19.0526 32.1696 19.3909 30.6012ZM20.1866 28.7965C19.301 28.5953 18.2584 28.9718 17.8591 30.4107C18.8742 29.9763 19.6912 30.3223 20.1866 28.7965ZM21.1605 27.0818C20.2994 26.7922 19.2248 27.0605 18.6806 28.4505C19.7354 28.1228 20.5112 28.5496 21.1605 27.0818ZM22.3037 25.4753C21.5096 26.8715 20.781 26.3669 19.6973 26.5864C20.3801 25.2588 21.4776 25.1003 22.3037 25.4753ZM23.6038 23.9938C22.8189 23.5365 21.7123 23.5822 20.8984 24.8336C21.9988 24.7254 22.6725 25.3 23.6038 23.9938ZM25.0488 22.6525C23.9894 23.8566 23.3767 23.2164 22.2732 23.2118C23.2106 22.0504 24.3141 22.1159 25.0488 22.6525ZM26.6233 21.4636C25.9481 20.8569 24.8537 20.6786 23.8035 21.7395C24.9024 21.8553 25.4466 22.5549 26.6233 21.4636ZM28.309 20.4424C27.0257 21.4087 26.5577 20.6573 25.4755 20.4286C26.6294 19.4806 27.6978 19.7702 28.309 20.4424ZM30.0908 19.598C29.5513 18.8663 28.5179 18.47 27.2726 19.2962C28.3258 19.633 28.716 20.4271 30.0908 19.598ZM31.9488 18.9364C30.4978 19.6239 30.1899 18.7932 29.1763 18.3512C30.4963 17.6546 31.4855 18.1545 31.9488 18.9364ZM33.8632 18.47C33.4837 17.6454 32.5509 17.048 31.1654 17.6058C32.1287 18.1469 32.3497 19.005 33.8632 18.47ZM35.8157 18.1987C34.258 18.5783 34.1239 17.7018 33.22 17.0647C34.6543 16.6501 35.5216 17.3391 35.8157 18.1987ZM37.7865 18.1286C37.5808 17.2446 36.7882 16.4703 35.3189 16.737C36.1526 17.4625 36.1968 18.3466 37.7865 18.1286ZM39.7543 18.2582C38.1508 18.3146 38.1966 17.429 37.4406 16.6227C38.9297 16.5053 39.64 17.3558 39.7543 18.2582ZM41.6977 18.5874C41.6763 17.679 41.056 16.7629 39.5622 16.7248C40.2329 17.6043 40.0957 18.4792 41.6977 18.5874ZM43.5968 19.1117C42.0147 18.8419 42.2387 17.9853 41.6641 17.0419C43.1456 17.2293 43.6684 18.2064 43.5968 19.1117ZM45.435 19.8281C45.5966 18.9349 45.1759 17.9107 43.7218 17.5738C44.1989 18.5691 43.8879 19.3983 45.435 19.8281ZM47.1894 20.7259C47.4409 19.8525 47.1269 18.7916 45.7124 18.3085C46.0889 19.348 45.6941 20.1421 47.1894 20.7259ZM48.8446 21.7989C47.4165 21.0658 47.8874 20.3159 47.6222 19.2428C48.9788 19.8662 49.1845 20.956 48.8446 21.7989ZM50.381 23.032C50.8032 22.2287 50.7103 21.1252 49.4238 20.3661C49.5808 21.4605 49.0352 22.1586 50.381 23.032ZM51.7848 24.4175C50.535 23.4115 51.1477 22.7713 51.1035 21.6678C52.3061 22.5534 52.2878 23.6615 51.7848 24.4175ZM53.0393 25.9371C53.6169 25.236 53.7495 24.137 52.6414 23.1341C52.5744 24.2361 51.8992 24.8092 53.0393 25.9371ZM54.1352 27.5772C53.1139 26.3395 53.844 25.8365 54.0239 24.7467C55.0238 25.8563 54.7799 26.9385 54.1352 27.5772ZM55.0573 29.3193C55.763 28.7493 56.1151 27.6976 55.2341 26.4919C54.9445 27.5589 54.1672 27.9841 55.0573 29.3193ZM55.7981 31.1468C55.0482 29.7263 55.8651 29.3833 56.2614 28.3515C57.0159 29.6425 56.5586 30.6515 55.7981 31.1468ZM56.3483 33.0399C57.1561 32.6253 57.7109 31.6666 57.0936 30.307C56.5937 31.2932 55.7462 31.5523 56.3483 33.0399ZM56.7034 34.9787C56.2568 33.4377 57.1256 33.2655 57.7231 32.3373C58.2002 33.7517 57.5494 34.6479 56.7034 34.9787ZM56.8604 36.9449C57.7353 36.701 58.4746 35.8749 58.1438 34.4178C57.4549 35.2835 56.5739 35.3658 56.8604 36.9449ZM56.8178 38.9157C56.6928 37.3168 57.5768 37.3244 58.3496 36.5349C58.531 38.0164 57.7109 38.7633 56.8178 38.9157ZM56.5739 40.8728C57.4793 40.8118 58.3694 40.1518 58.3404 38.6581C57.4899 39.3654 56.6105 39.2678 56.5739 40.8728ZM56.1319 42.7933C56.3315 41.2005 57.1973 41.388 58.1149 40.7707C57.9914 42.2598 57.0388 42.8253 56.1319 42.7933ZM55.4963 44.6604C56.3971 44.7839 57.4015 44.3175 57.6744 42.8497C56.7004 43.3694 55.8575 43.0966 55.4963 44.6604ZM54.6762 46.4529C55.5588 46.6648 56.6044 46.3051 57.0266 44.8723C56.0038 45.2915 55.193 44.9333 54.6762 46.4529ZM53.6779 48.1524C54.533 48.4542 55.6121 48.2012 56.1776 46.8202C55.1152 47.1327 54.347 46.6937 53.6779 48.1524ZM52.5104 49.7421C53.3258 48.3582 54.0452 48.8733 55.132 48.6706C54.4309 49.9875 53.3319 50.1293 52.5104 49.7421ZM51.1889 51.2039C51.9662 51.6733 53.0743 51.6428 53.9065 50.4036C52.8045 50.4966 52.14 49.9113 51.1889 51.2039ZM49.7241 52.5253C50.8017 51.3365 51.4038 51.9858 52.5073 52.0056C51.5547 53.1548 50.4496 53.071 49.7241 52.5253ZM48.1344 53.6898C48.802 54.3071 49.8918 54.5022 50.9572 53.4566C49.8598 53.324 49.3263 52.6153 48.1344 53.6898ZM46.4334 54.6882C47.7289 53.7401 48.1877 54.4992 49.2669 54.7415C48.0993 55.6743 47.0339 55.3695 46.4334 54.6882ZM44.6409 55.5067C46.0264 54.6958 46.4044 55.4975 47.4515 55.8481C46.1956 56.6575 45.1683 56.2459 44.6409 55.5067Z" fill="white"/>
<path d="M47.8498 49.9617C47.4962 50.2116 47.263 50.3762 46.7158 50.3762C46.3103 50.3762 46.0878 50.2802 45.9064 50.1751L45.7266 50.0699L45.9262 51.6749L45.9979 51.6901C46.2265 51.7419 46.4612 51.7663 46.7158 51.7663C47.705 51.7663 48.2308 51.3944 48.6546 51.0972C48.9564 50.8853 49.1713 50.7344 49.566 50.6948C49.9989 50.3016 50.4135 49.8855 50.8052 49.4526C50.5278 49.3566 50.1986 49.291 49.787 49.291C48.7978 49.291 48.272 49.6629 47.8498 49.9617Z" fill="white"/>
<path d="M40.0134 31.3208H37.1875V32.1484H40.0134V31.3208Z" fill="white"/>
<path d="M40.0396 33.6953H37.168V34.4894H40.0396V33.6953Z" fill="white"/>
<path d="M40.0396 36.0625H37.168V36.8581H40.0396V36.0625Z" fill="white"/>
<path d="M40.0396 38.5244H37.168V39.3185H40.0396V38.5244Z" fill="white"/>
<path d="M40.0396 40.9492H37.168V41.7449H40.0396V40.9492Z" fill="white"/>
<path d="M40.0134 43.1987H37.1875V44.0264H40.0134V43.1987Z" fill="white"/>
<path d="M40.0396 45.5737H37.168V46.3678H40.0396V45.5737Z" fill="white"/>
<path d="M40.0396 47.9409H37.168V48.735H40.0396V47.9409Z" fill="white"/>
<path d="M40.0396 50.4023H37.168V51.1965H40.0396V50.4023Z" fill="white"/>
<path d="M45.1049 52.6385L42.587 31.1549L43.3673 29.8212H44.3276V28.3534H41.4072V26.7789H40.9682V23.7625H41.3021L41.3402 22.7016L38.2186 21.2369V20.2446H36.9733V21.2369L33.8502 22.7016L33.8883 23.7625H34.2236V26.7789H33.7847V28.3534H31.003V29.8212H31.8245L32.6065 31.1549L30.09 52.6203C29.8964 52.7254 29.2593 53.0714 29.0703 53.2543C29.5535 53.5119 30.0504 53.7497 30.5595 53.9631C30.8277 53.7832 31.0655 53.6704 31.5167 53.6704C32.0638 53.6704 32.2971 53.835 32.6507 54.085C33.0729 54.3838 33.5987 54.7541 34.5879 54.7541C35.5771 54.7541 36.103 54.3822 36.5252 54.0835C36.8499 53.8549 37.0846 53.6887 37.5769 53.672C38.0753 53.6887 38.3085 53.8533 38.6347 54.0835C39.0569 54.3822 39.5812 54.7526 40.572 54.7526C41.5612 54.7526 42.087 54.3807 42.5107 54.082C42.8644 53.832 43.0976 53.6674 43.6432 53.6674C44.0593 53.6674 44.2941 53.7634 44.5395 53.9189C45.0409 53.7055 45.5302 53.4692 46.0073 53.2116C45.7908 53.0348 45.2848 52.7391 45.1049 52.6385ZM39.7336 23.7625V26.7789H35.4293L35.4278 23.7625H39.7336ZM41.7075 52.948C41.3539 53.1979 41.1207 53.3625 40.5735 53.3625C40.0263 53.3625 39.7931 53.1979 39.4395 52.948C39.1179 52.7193 38.72 52.4389 38.086 52.3276C38.086 52.3276 37.5495 52.2727 37.0754 52.3276C36.574 52.3794 36.0451 52.7209 35.7204 52.9495C35.3683 53.1979 35.1351 53.3625 34.5895 53.3625C34.0423 53.3625 33.8091 53.1979 33.4554 52.948C33.0713 52.6767 32.6019 52.3474 31.7773 52.288L34.2953 30.8287L34.0209 30.3623L37.5982 30.3669L41.1725 30.3623L40.8997 30.8287L43.4146 52.2865C42.5717 52.3383 42.0962 52.6736 41.7075 52.948Z" fill="white"/>
<path d="M28.4475 51.7683C28.7127 51.7683 28.9581 51.7408 29.1943 51.686L29.2644 51.6692L29.4504 50.0627L29.2705 50.1679C29.0861 50.2761 28.859 50.3767 28.4475 50.3767C27.9003 50.3767 27.6671 50.2121 27.3135 49.9621C26.8913 49.6634 26.3654 49.293 25.3762 49.293C24.9052 49.293 24.5409 49.3768 24.2422 49.4972C24.6202 49.9118 25.0165 50.3096 25.4311 50.6861C25.9371 50.6968 26.1688 50.8583 26.5102 51.0992C26.9324 51.3964 27.4583 51.7683 28.4475 51.7683Z" fill="white"/>
<path d="M49.7878 46.3223C48.7986 46.3223 48.2727 46.6942 47.8505 46.9929C47.4969 47.2429 47.2637 47.4075 46.715 47.4075C46.1693 47.4075 45.9346 47.2414 45.5749 46.9868L45.3203 46.8085L45.5398 48.5781L45.5977 48.6009C45.9376 48.7351 46.3034 48.8006 46.715 48.8006C47.7057 48.8006 48.2315 48.4287 48.6538 48.13C49.0074 47.88 49.2406 47.7154 49.7878 47.7154C50.3334 47.7154 50.5681 47.88 50.9233 48.13C51.1123 48.2641 51.3211 48.412 51.5833 48.5339C51.882 48.1544 52.167 47.7642 52.4353 47.3602C52.1594 47.2947 51.9704 47.1636 51.7235 46.9899C51.3013 46.6926 50.7754 46.3223 49.7878 46.3223Z" fill="white"/>
<path d="M52.8599 44.4255C52.3112 44.4255 52.078 44.2609 51.7244 44.0109C51.3022 43.7137 50.7763 43.3418 49.7871 43.3418C48.7979 43.3418 48.2721 43.7137 47.8499 44.0125C47.4963 44.2609 47.2631 44.4255 46.7159 44.4255C46.1702 44.4255 45.937 44.2609 45.5819 44.0109C45.4508 43.9179 45.2877 43.8021 45.1002 43.6985L44.9219 43.5994L45.1444 45.3919L45.1886 45.4178C45.4797 45.59 45.9553 45.8171 46.7159 45.8171C47.7051 45.8171 48.2309 45.4467 48.6546 45.148C49.0083 44.898 49.2399 44.7334 49.7887 44.7334C50.3358 44.7334 50.5691 44.898 50.9242 45.148C51.3464 45.4467 51.8722 45.8171 52.8615 45.8171C53.0489 45.8171 53.2196 45.8034 53.3766 45.7805C53.7089 45.151 54.0046 44.5002 54.2607 43.828C54.1662 43.889 54.0778 43.9515 53.9939 44.0109C53.6388 44.2609 53.4056 44.4255 52.8599 44.4255Z" fill="white"/>
<path d="M22.3026 42.8987C23.2903 42.8987 23.8146 42.5283 24.2398 42.2296C24.5935 41.9796 24.8267 41.815 25.3738 41.815C25.921 41.815 26.1542 41.9796 26.5094 42.2296C26.9316 42.5268 27.4559 42.8987 28.4451 42.8987C29.3505 42.8987 29.8824 42.5801 30.3092 42.2814L30.3473 42.254L30.5424 40.5636L30.3809 40.6276C30.0455 40.7618 29.7864 40.9447 29.5791 41.091C29.227 41.341 28.9938 41.5056 28.4451 41.5056C27.8979 41.5056 27.6647 41.341 27.3081 41.0895C26.8859 40.7923 26.36 40.4219 25.3723 40.4219C24.3846 40.4219 23.8588 40.7923 23.4351 41.091C23.0814 41.341 22.8482 41.5056 22.3011 41.5056C21.7523 41.5056 21.5191 41.341 21.164 41.0895C20.8363 40.8578 20.4446 40.5834 19.8242 40.4722C19.9187 41.0255 20.0391 41.5696 20.1839 42.1046C20.2419 42.1427 20.3013 42.1839 20.3638 42.2296C20.7875 42.5268 21.3134 42.8987 22.3026 42.8987Z" fill="white"/>
<path d="M52.8597 41.5056C52.311 41.5056 52.0778 41.341 51.7242 41.091C51.302 40.7923 50.7761 40.4219 49.7869 40.4219C48.7992 40.4219 48.2734 40.7938 47.8496 41.091C47.496 41.341 47.2613 41.5056 46.7141 41.5056C46.1684 41.5056 45.9352 41.341 45.5801 41.091C45.3423 40.9233 45.071 40.7328 44.6976 40.5972L44.5391 40.5392L44.7464 42.2082L44.7845 42.2342C45.1808 42.5146 45.7249 42.8987 46.7141 42.8987C47.7033 42.8987 48.2292 42.5283 48.6529 42.2296C49.0065 41.9796 49.2397 41.815 49.7869 41.815C50.3341 41.815 50.5673 41.9796 50.9209 42.2296C51.3431 42.5283 51.869 42.8987 52.8582 42.8987C53.8367 42.8987 54.361 42.5344 54.7832 42.2387C54.9402 41.6717 55.0713 41.0956 55.1734 40.5072C54.6445 40.6337 54.2924 40.8807 53.9937 41.0925C53.6401 41.341 53.4054 41.5056 52.8597 41.5056Z" fill="white"/>
<path d="M24.2415 45.1495C24.5951 44.8995 24.8283 44.7349 25.3755 44.7349C25.9227 44.7349 26.1559 44.8995 26.511 45.151C26.9332 45.4483 27.4575 45.8202 28.4468 45.8202C29.0122 45.8202 29.4863 45.6997 29.9389 45.4422L29.9847 45.4162L30.1904 43.6268L30.0121 43.7289C29.849 43.8219 29.7057 43.924 29.5792 44.0125C29.2271 44.2624 28.9939 44.427 28.4452 44.427C27.898 44.427 27.6648 44.2624 27.3097 44.0109C26.8875 43.7137 26.3616 43.3418 25.374 43.3418C24.3878 43.3418 23.8619 43.7122 23.4367 44.0109C23.0831 44.2609 22.8499 44.4255 22.3027 44.4255C21.7555 44.4255 21.5208 44.2609 21.1687 44.0109C21.0284 43.9119 20.876 43.8052 20.6992 43.7061C20.9629 44.4087 21.2677 45.0916 21.6137 45.75C21.8165 45.7927 22.0436 45.8186 22.3027 45.8186C23.2919 45.8186 23.8162 45.4482 24.2415 45.1495Z" fill="white"/>
<path d="M25.3722 47.7139C25.9178 47.7139 26.1526 47.8785 26.5062 48.1285C26.9284 48.4273 27.4527 48.7976 28.4435 48.7976C28.855 48.7976 29.2193 48.7336 29.5592 48.5995L29.6171 48.5766L29.8198 46.8207L29.5775 46.9899C29.2254 47.2399 28.9906 47.4045 28.4435 47.4045C27.8963 47.4045 27.6631 47.2399 27.3079 46.9884C26.8857 46.6912 26.3599 46.3208 25.3722 46.3208C24.3845 46.3208 23.8586 46.6912 23.4349 46.9899C23.1499 47.1911 22.9411 47.3359 22.5859 47.3847C22.8618 47.7962 23.1545 48.1956 23.4608 48.5827C23.7794 48.4516 24.0217 48.2794 24.2397 48.127C24.5933 47.8785 24.8265 47.7139 25.3722 47.7139Z" fill="white"/>
</g>
<defs>
<clipPath id="clip0_932_7227">
<rect width="75" height="75" fill="white"/>
</clipPath>
</defs>
</svg>
