<svg width="76" height="76" viewBox="0 0 76 76" fill="none" xmlns="http://www.w3.org/2000/svg"><g clip-path="url(#a)" fill="#002D59"><path fill-rule="evenodd" clip-rule="evenodd" d="M9.3 38a1.5 1.5 0 1 0 3 0 1.5 1.5 0 0 0-3 0ZM63.5 38a1.5 1.5 0 1 0 3 0 1.5 1.5 0 0 0-3 0ZM47.6 72c.8 1.3 2.6 2.3 5 1-1.8-.8-2.3-2.3-5-1Zm-3.2.7c2.8-1 3.1.6 4.9 1.6-2.5 1-4.2-.1-5-1.6Zm-3.2.4c.6 1.6 2.1 2.8 4.7 2-1.6-1.1-1.9-2.7-4.7-2Zm-3.2.1c2.9-.4 3 1.2 4.5 2.5-2.7.5-4.1-.9-4.5-2.5Zm-3.6-.1c.2 1.6 1.5 3.1 4.2 2.9-1.4-1.5-1.3-3-4.2-3Zm-3.6-.6c3 .2 2.7 1.8 4 3.3-2.7 0-3.9-1.6-4-3.3Zm-3.4-.9c-.1 1.7.8 3.4 3.5 3.7-1-1.7-.6-3.2-3.5-3.7ZM24 70.4c-.3 1.6.5 3.4 3.2 4-1-1.8-.4-3.3-3.2-4Zm-3.2-1.6c-.4 1.6.2 3.5 2.7 4.3-.7-1.9 0-3.3-2.7-4.3Zm-3-2c2.6 1.4 1.7 2.7 2.2 4.7-2.4-1.1-2.8-3.1-2.3-4.6Zm-2.9-2.1c-.7 1.4-.5 3.4 1.8 4.8-.3-2 .7-3.3-1.8-4.8Zm-2.6-2.5c2.3 1.8 1.2 3 1.3 5-2.2-1.6-2.2-3.6-1.3-5ZM10 59.4c-1 1.3-1.2 3.3.8 5.1 0-2 1.3-3-.8-5Zm-2-3c1.9 2.3.5 3.2.2 5.2-1.8-2-1.4-4-.2-5.1Zm-1.8-3c-1.2 1-1.8 3-.2 5 .5-1.9 1.9-2.7.2-5ZM4.8 50c1.4 2.6 0 3.2-.7 5.1-1.4-2.3-.6-4.1.7-5Zm-1-3.4c-1.5.8-2.5 2.5-1.3 5 .9-1.8 2.4-2.3 1.3-5ZM3 43.1c.8 2.8-.7 3.1-1.8 4.8-.9-2.5.3-4.2 1.8-4.8Zm-.3-3.6c-1.6.5-3 2-2.3 4.6 1.2-1.5 2.8-1.7 2.3-4.6Zm0-3.6c.3 3-1.4 3-2.7 4.4-.4-2.7 1-4 2.7-4.4Zm.4-3.5c-1.7.1-3.3 1.3-3.2 4 1.5-1.3 3.2-1.1 3.2-4Zm.7-3.5C3.6 31.8 2 31.4.4 32.6c.2-2.7 1.9-3.8 3.5-3.7ZM5 25.4c-1.6-.2-3.4.7-3.9 3.4 1.8-1 3.3-.5 4-3.4Zm1.5-3.2c-1.6-.4-3.5.3-4.3 2.9 1.9-.8 3.4-.2 4.3-3ZM8.3 19c-1.6-.5-3.6 0-4.6 2.5 2-.6 3.4.2 4.6-2.5Zm2-2.9c-1.4 2.6-2.7 1.6-4.7 2 1.2-2.4 3.2-2.7 4.7-2Zm2.4-2.7c-1.4-.8-3.4-.7-5 1.6 2-.2 3.3.8 5-1.6Zm2.6-2.4c-1.9 2.2-3 1-5 1 1.7-2.1 3.7-2 5-1Zm2.9-2.2c-1.2-1-3.2-1.4-5.1.5 2 .2 3 1.5 5.1-.5Zm3-1.8c-2.3 1.7-3.1.4-5 0 2-1.8 4-1.3 5 0Zm3.3-1.6c-1-1.3-2.9-2-5.1-.5 1.9.6 2.6 2 5.1.5ZM28 4.2c-2.6 1.3-3.2-.2-5-1 2.4-1.3 4.2-.4 5 1Zm3.5-.8c-.7-1.5-2.4-2.6-5-1.6 1.8 1 2.2 2.6 5 1.6Zm3.5-.5c-2.8.7-3-1-4.7-2 2.6-.8 4.2.4 4.7 2Zm3.6-.1C38.1 1 36.7-.2 34 .2c1.5 1.3 1.6 3 4.5 2.6Zm3.6.2c-3 0-2.8-1.5-4.2-3 2.7-.2 4 1.4 4.2 3Zm3.5.6c0-1.7-1.1-3.3-3.8-3.4 1.2 1.6 1 3.2 3.8 3.4Zm3.5 1C46.2 4 46.6 2.4 45.6.7c2.7.3 3.6 2.1 3.5 3.7Zm3.3 1.2c.3-1.6-.4-3.4-3-4 .8 1.8.2 3.3 3 4Zm3.2 1.7c.5-1.6 0-3.5-2.6-4.4.6 1.9 0 3.3 2.6 4.4Zm3 2C56 8 57 6.6 56.5 4.7c2.5 1.1 2.9 3.1 2.3 4.6Zm2.8 2.2c.8-1.5.6-3.5-1.7-4.9.3 2-.7 3.3 1.7 4.9Zm2.6 2.5c-2.3-1.8-1.2-3-1.2-5 2.2 1.6 2.1 3.6 1.2 5Zm2.3 2.8c1-1.3 1.3-3.3-.7-5.1-.2 2-1.4 3 .7 5Zm2 3c-1.9-2.3-.5-3.2-.2-5.2 1.8 2 1.4 4 .2 5.1ZM70 23c1.2-1 1.9-3 .3-5.1-.5 2-2 2.7-.3 5.1Zm1.3 3.3c-1.4-2.5.1-3.2.9-5 1.3 2.3.5 4.1-.9 5Zm1 3.5c1.5-.8 2.5-2.5 1.4-5-1 1.8-2.5 2.3-1.4 5Zm.7 3.5c-.9-2.8.7-3.1 1.8-4.8.9 2.6-.3 4.2-1.8 4.8Zm.2 3.6c1.6-.5 3-2 2.4-4.6-1.3 1.6-2.9 1.7-2.4 4.6Zm0 3.6c-.3-3 1.3-3 2.8-4.4.3 2.7-1.2 4.1-2.8 4.4Zm-.5 3.5c1.7 0 3.3-1.3 3.2-4-1.5 1.3-3.1 1.1-3.2 4Zm-.8 3.5c.4-2.9 2-2.5 3.6-3.7-.2 2.8-2 3.8-3.6 3.7ZM70.8 51c1.6.2 3.4-.6 4-3.3-1.8 1-3.4.5-4 3.3Zm-1.5 3.3c1.6.4 3.5-.3 4.2-2.9-1.8.8-3.3.1-4.2 2.9Zm-1.9 3c1.6.6 3.6.2 4.6-2.3-2 .5-3.3-.3-4.6 2.4Zm-2 3c1.4-2.5 2.7-1.6 4.7-2-1.3 2.4-3.3 2.7-4.8 2Zm-2.5 2.6c1.4.9 3.4.8 5-1.4-2 .1-3.3-1-5 1.4Zm-2.6 2.4c2-2.1 3-1 5-1-1.7 2.2-3.7 2-5 1Zm-3 2.2c1.3 1 3.3 1.4 5.2-.5-2-.2-3-1.5-5.1.5Zm-3 1.8c2.3-1.8 3.2-.4 5.1 0-2.1 1.8-4 1.2-5.1 0ZM51 70.8c2.5-1.5 3.2 0 5.1.6-2.3 1.5-4.1.7-5.1-.6Z"/><path fill-rule="evenodd" clip-rule="evenodd" d="M38 4.4a33.6 33.6 0 1 1 0 67.2 33.6 33.6 0 0 1 0-67.2Zm31.5 41H61a24.2 24.2 0 0 1-46.2 0H6.5a32.3 32.3 0 0 0 63 0Zm-8.3-.5.1-.3v.3Zm.3-.8h8.3a32.5 32.5 0 0 0 0-12.1H60a22.9 22.9 0 0 0-44 0H6.2a32.5 32.5 0 0 0 0 12H16a22.9 22.9 0 0 0 44 0h1.5Zm0-12.2-.2-.4.2.4Zm-.2-.5v-.3.3Zm-.2-.8h8.4a32.3 32.3 0 0 0-63 0H15a24.2 24.2 0 0 1 46.2 0Zm-46.4 14v.3-.3Zm0-13.2v-.3.3Z"/><path d="m16.1 17.7 1.4 1.3a1 1 0 0 1 .3.6v.4l-.2.3-.2.3 1 .9-.4.5-3.9-3.4.7-.8.3-.2h.3c.1-.1.3 0 .4 0l.3.1Zm1.2 2L15.4 18l-.4.5 1.9 1.6.4-.5ZM20.5 18l-2-2.5a1 1 0 0 1-.2-.3v-.7l.3-.3.7-.6.5.5-1 .8.8 1 .5-.4.4.5-.5.4 1.2 1.5 1-.8.4.5-.7.6a1 1 0 0 1-.8.2 1 1 0 0 1-.6-.3ZM25.5 15l-.3-.5-.3.2a1 1 0 0 1-.7 0 1 1 0 0 1-.6-.4L22 11.7l.6-.3 1.6 2.8.6-.3-1.6-2.8.6-.3 2.5 4.5-.6.3-.3-.6ZM27 9.4l.6-.2.6 1.9.6-.2-.6-1.9.6-.2 1.7 5-.6.1-.9-2.4-.6.2.9 2.4-.7.2L27 9.4ZM34.6 11.9a1 1 0 0 1-.8 1.1 1 1 0 0 1-.7-.1 1 1 0 0 1-.4-.7L32.2 9v-.4c0-.2 0-.3.2-.4l.2-.2.4-.2a1 1 0 0 1 .7.2l.3.3.1.3.5 3.3Zm-1.8-3.3.6 3.8.6-.1-.6-3.8h-.6ZM37.3 7v-.7h2V7h-2Zm1 5.7h.9V7.5h-.6V12h-.7V7.5h-.6V12.1a1 1 0 0 0 .6.5h.3ZM48.5 9.5l-.4 1.2-.1.3c0 .2-.1.2-.2.3l-.3.1h-.3l.3.2.1.2v.4l-.1.3-.6 1.9-.6-.2.6-1.9V12l-.1-.3h-.3l-.8 2.4-.7-.2 1.7-5 .6.2-.6 1.9.3.1.3-.1.2-.4.4-1.2.6.2ZM52.5 11.3l.8.5-2.5 4.5-.6-.3 2.2-4-.5-.3-2.2 4-.6-.3 2-3.7.3-.3a1 1 0 0 1 .7-.2l.4.1ZM54.3 18l.4-.5-.3-.2a1 1 0 0 1-.4-.6 1 1 0 0 1 .3-.8l1.8-2.3.5.4-2 2.6.5.4 2-2.6.5.4-2.8 3.6-.2.2h-.7l-1-.9.4-.5 1 .8ZM58.2 21.5a1 1 0 0 1-.7.2 1 1 0 0 1-.7-.3l-.6-.8 3.1-2.8.4-.2a1 1 0 0 1 1 .3l.7.7-.5.5-.9-1-1 .9.5.4.1.5c0 .2 0 .3-.2.5l-1.2 1Zm-.7-.3 1.5-1.3-.5-.5-1.4 1.3.4.5ZM45.5 42ZM45.5 39ZM15.6 55.5a3.1 3.1 0 0 1 4.4.1 3 3 0 1 1-4.4 4.3 3 3 0 0 1 0-4.4Zm3.3 3.4c.6-.6.7-1.6 0-2.3-.6-.6-1.5-.5-2.1.1-.7.6-.8 1.6-.1 2.2.6.6 1.5.6 2.2 0ZM22.9 62a3 3 0 0 1 4.1-1.3c1.1.5 1.6 1.3 1.7 2.2l-1.5.3c-.1-.5-.3-1-.8-1.2-.8-.4-1.6 0-2 .8-.4.8-.2 1.7.5 2 .6.3 1 .2 1.6 0l.7 1.3a3 3 0 0 1-3 0 3 3 0 0 1-1.3-4ZM33 64.2l-1.8-.2.2-1.5 5.1.8-.2 1.5-1.7-.3-.7 4.4-1.6-.2.6-4.5ZM39.2 63.3l2.5-.4c1.4-.2 2.5.5 2.7 1.8.2 1.4-.8 2.2-2.2 2.4l-.8.2.2 1.6-1.6.3-.8-5.9ZM42 66c.5-.1.8-.5.8-1 0-.4-.5-.7-1-.6l-.8.1.2 1.6.8-.1ZM47.7 64.6a3.1 3.1 0 0 1 1.4-4.2A3 3 0 1 1 52 66a3 3 0 0 1-4.2-1.3Zm4.2-2.1c-.4-.8-1.3-1.2-2.1-.7-.8.4-1 1.3-.6 2 .4.8 1.2 1.2 2 .8.9-.4 1-1.3.7-2.1ZM54.1 57.4l2.1-2.2c.5-.5 1-.7 1.5-.8.4 0 .7.2 1 .5.5.4.5 1 .3 1.5.7-.3 1.3-.4 1.9.2.7.7.6 1.7-.4 2.7l-2.1 2.2-4.3-4Zm3.5-.2c.4-.4.5-.7.2-1-.2-.2-.5-.1-.9.2l-.7.8.7.7.7-.7Zm1.8 1.4c.4-.4.4-.7.2-1-.3-.2-.6-.2-1 .2l-.9 1 .8.7 1-1Z"/><path fill-rule="evenodd" clip-rule="evenodd" d="M43.3 56.9c.5.8 1.5 1.3 2.8.6-1-.4-1.3-1.3-2.8-.6Zm-1.7.4c1.5-.5 1.7.3 2.7.9-1.4.6-2.4 0-2.7-.9Zm-1.8.3c.3.8 1.2 1.5 2.6 1-.9-.6-1-1.4-2.6-1Zm-1.8 0c1.6-.2 1.7.7 2.5 1.4-1.5.3-2.3-.5-2.5-1.4Zm-2 0c.1.8.9 1.7 2.4 1.6-.8-.9-.8-1.8-2.4-1.7Zm-2-.4c1.6.1 1.5 1 2.2 1.9-1.5 0-2.1-1-2.2-1.9Zm-2-.5c0 1 .6 2 2 2-.5-.9-.3-1.7-2-2Zm-1.8-.7c-.1 1 .3 2 1.8 2.3-.5-1-.2-1.9-1.8-2.3Zm-1.8-.9c-.2 1 .1 2 1.6 2.5-.4-1 0-1.9-1.6-2.5Zm-1.7-1c1.5.7 1 1.5 1.3 2.5-1.4-.6-1.6-1.7-1.3-2.5Zm-1.5-1.3c-.5.9-.4 2 1 2.7-.2-1 .3-1.8-1-2.7Zm-1.5-1.3c1.3 1 .7 1.6.7 2.7-1.2-.8-1.2-2-.7-2.7Zm-1.3-1.6c-.6.8-.7 1.9.5 2.9 0-1.1.7-1.7-.5-2.9Zm-1.1-1.6c1 1.2.3 1.8.1 2.9-1-1.1-.8-2.2-.1-2.9Zm-1-1.8c-.7.6-1 1.7-.1 3 .3-1.2 1-1.6.1-3Zm-.8-1.8c.8 1.4 0 1.8-.4 2.8-.8-1.3-.3-2.3.4-2.8Zm-.5-2c-.9.5-1.4 1.5-.8 2.9.5-1 1.4-1.3.8-2.8Zm-.4-1.9c.4 1.6-.4 1.8-1 2.7-.5-1.4.1-2.3 1-2.7Zm-.2-2c-.9.3-1.6 1.2-1.3 2.6.7-.9 1.6-1 1.3-2.6Zm0-2c.1 1.7-.7 1.7-1.5 2.5-.2-1.5.6-2.3 1.5-2.5Zm.2-2c-.9.1-1.8.8-1.7 2.3.8-.7 1.7-.6 1.7-2.2ZM19 33c-.1 1.6-1 1.4-2 2 .2-1.4 1.1-2 2-2Zm.7-1.9c-1-.1-2 .4-2.2 1.9 1-.6 1.8-.3 2.2-1.9Zm.8-1.8c-1-.2-2 .2-2.4 1.6 1-.4 1.9 0 2.4-1.6Zm1-1.8c-1-.3-2 0-2.6 1.4 1.1-.3 1.9.1 2.5-1.4Zm1.1-1.6c-.8 1.4-1.5 1-2.6 1.1.7-1.3 1.8-1.5 2.6-1Zm1.3-1.5c-.8-.4-1.9-.4-2.7.9 1-.1 1.8.4 2.7-.9Zm1.5-1.3c-1 1.2-1.7.5-2.8.5 1-1.2 2-1 2.8-.5Zm1.6-1.3c-.7-.6-1.8-.7-2.9.3 1.1.1 1.7.9 2.9-.3Zm1.7-1c-1.3 1-1.8.2-2.9 0 1.2-1 2.3-.7 2.9 0Zm1.8-.8c-.6-.8-1.6-1.2-2.9-.3 1.1.3 1.5 1.1 2.9.3Zm1.9-.7c-1.5.7-1.8-.2-2.8-.6 1.3-.7 2.3-.2 2.8.6Zm2-.5c-.5-.8-1.4-1.4-2.8-.9 1 .6 1.2 1.5 2.7 1Zm1.9-.3c-1.6.4-1.7-.5-2.6-1.1 1.4-.4 2.3.3 2.6 1.1Zm2 0c-.2-1-1-1.7-2.5-1.4.8.7.9 1.6 2.5 1.4Zm2 .1c-1.6 0-1.6-.8-2.4-1.7 1.5 0 2.3.8 2.4 1.7Zm2 .3c0-.9-.7-1.8-2.2-1.9.7 1 .5 1.8 2.2 2Zm1.9.6c-1.6-.3-1.4-1.2-2-2.1 1.5.2 2 1.1 2 2Zm1.8.7c.2-1-.2-2-1.7-2.3.5 1 .2 1.9 1.7 2.3Zm1.8.9c.3-.9 0-2-1.5-2.4.4 1 0 1.8 1.5 2.4Zm1.7 1c-1.5-.7-1-1.4-1.2-2.5 1.3.6 1.5 1.7 1.2 2.6Zm1.6 1.3c.4-.8.3-1.9-1-2.7.1 1.1-.4 1.9 1 2.7Zm1.4 1.4c-1.3-1-.7-1.6-.7-2.7 1.2.9 1.2 2 .7 2.7Zm1.2 1.6c.6-.7.8-1.8-.4-2.9 0 1.2-.7 1.7.4 2.9Zm1.2 1.6c-1-1.2-.3-1.7-.2-2.8 1 1.1.8 2.2.2 2.8Zm.9 1.8c.7-.6 1-1.6.2-2.9-.3 1.1-1.1 1.6-.2 3Zm.7 1.9c-.7-1.5.1-1.8.5-2.9.8 1.3.3 2.4-.5 2.9Zm.6 1.9c.8-.4 1.4-1.4.8-2.8-.6 1-1.4 1.3-.8 2.8Zm.4 2c-.5-1.6.4-1.8 1-2.7.5 1.4-.2 2.3-1 2.6Zm.1 2c1-.3 1.7-1.1 1.3-2.6-.7.9-1.6 1-1.3 2.5Zm0 2c-.2-1.7.7-1.7 1.5-2.5.2 1.5-.6 2.3-1.5 2.4Zm-.3 2c1-.1 1.8-.8 1.8-2.3-.8.7-1.7.6-1.8 2.2Zm-.4 1.9c.2-1.6 1-1.5 2-2-.1 1.4-1.1 2-2 2Zm-.7 1.9c1 0 2-.4 2.2-1.9-1 .5-1.8.3-2.2 1.9Zm-.8 1.8c.9.2 2-.2 2.4-1.6-1 .4-1.9 0-2.4 1.6Zm-1 1.7c.9.3 2 0 2.5-1.4-1 .4-1.8 0-2.5 1.4Zm-1.2 1.6c.8-1.4 1.6-.9 2.7-1-.7 1.3-1.9 1.4-2.7 1ZM52 52c.8.5 1.9.4 2.7-.8-1 0-1.8-.5-2.7.8Zm-1.5 1.3c1-1.2 1.7-.5 2.8-.5-1 1.2-2 1-2.8.5Zm-1.6 1.2c.7.6 1.8.8 2.8-.2-1-.2-1.6-.9-2.8.2Zm-1.7 1c1.3-1 1.7-.2 2.8 0-1.2 1-2.2.7-2.8 0Zm-1.9.8c1.4-.8 1.8 0 2.9.4-1.3.8-2.3.4-2.9-.4Z"/><path d="M48.5 50.6c-.4.3-.6.4-1.2.4-.4 0-.6 0-.8-.2h-.2l.2 1.6H47.3c1 0 1.6-.3 2-.6.3-.2.5-.4 1-.4l1.2-1.3-1-.2a3 3 0 0 0-2 .7ZM40.5 31.7h-2.8v.9h2.8v-.9ZM40.6 34.1h-3v.8h3v-.8ZM40.6 36.5h-3v.8h3v-.8ZM40.6 39h-3v.8h3V39ZM40.6 41.5h-3v.8h3v-.8ZM40.5 43.8h-2.8v.8h2.8v-.8ZM40.6 46.2h-3v.8h3v-.8ZM40.6 48.6h-3v.8h3v-.8ZM40.6 51h-3v.9h3V51Z"/><path d="m45.7 53.3-2.5-21.7.7-1.4h1v-1.5h-3v-1.6h-.4v-3h.4V23l-3.2-1.5v-1h-1.2v1L34.3 23v1h.4v3.1h-.5v1.6h-2.8v1.5h.8l.8 1.4-2.5 21.7c-.2.1-.9.5-1 .7l1.5.7c.2-.2.5-.3 1-.3s.7.2 1 .4c.5.3 1 .7 2 .7a3 3 0 0 0 2-.7c.3-.2.6-.4 1-.4.6 0 .8.2 1.1.4.5.3 1 .7 2 .7s1.5-.4 2-.7c.3-.3.6-.4 1.1-.4.4 0 .7 0 1 .2l1.4-.7-.9-.6Zm-5.4-29.2v3h-4.4v-3h4.4Zm2 29.6c-.4.2-.6.4-1.2.4-.5 0-.8-.2-1.1-.4-.4-.3-.8-.6-1.4-.7h-1c-.5 0-1 .4-1.4.7-.4.2-.6.4-1.2.4-.5 0-.7-.2-1.1-.4a3 3 0 0 0-1.7-.7l2.6-21.8-.3-.4h7.2l-.3.4L44 53a3 3 0 0 0-1.7.7Z"/><path d="m28.8 52.5.8-.1.2-1.7-.1.1-.9.2c-.5 0-.8-.1-1.1-.4a3 3 0 0 0-2-.6 3 3 0 0 0-1.1.2l1.2 1.2c.5 0 .7.1 1 .4.5.3 1 .7 2 .7ZM50.5 47a3 3 0 0 0-2 .6c-.4.3-.6.4-1.2.4-.5 0-.8-.1-1.1-.4l-.3-.2.2 1.8h.1c.4.2.7.3 1.1.3a3 3 0 0 0 2-.7c.4-.3.6-.4 1.2-.4.5 0 .7.1 1.1.4l.7.4.8-1.2a2 2 0 0 1-.7-.4c-.4-.3-1-.7-2-.7ZM53.6 45c-.6 0-.8-.1-1.2-.4-.4-.3-1-.7-2-.7a3 3 0 0 0-2 .7c-.3.3-.5.4-1 .4-.6 0-.9-.1-1.2-.4l-.5-.3-.2-.1.2 1.8c.4.2.9.4 1.6.4a3 3 0 0 0 2-.6c.4-.3.6-.5 1.2-.5.5 0 .7.2 1.1.5.4.3 1 .6 2 .6h.5l.9-2-.3.2c-.3.3-.6.4-1.1.4ZM22.6 43.5c1 0 1.5-.4 2-.7.3-.3.6-.4 1.1-.4.6 0 .8.1 1.2.4.4.3 1 .7 2 .7a3 3 0 0 0 1.8-.7l.3-1.7h-.2l-.8.5c-.4.3-.6.5-1.2.5-.5 0-.8-.2-1.1-.5-.5-.3-1-.6-2-.6a3 3 0 0 0-2 .6c-.3.3-.5.5-1.1.5-.6 0-.8-.2-1.2-.5-.3-.2-.7-.5-1.3-.6 0 .6.2 1.1.4 1.7h.1c.5.4 1 .8 2 .8ZM53.6 42c-.6 0-.8-.1-1.2-.4a3 3 0 0 0-2-.6c-1 0-1.5.3-2 .6-.3.3-.5.5-1 .5-.6 0-.9-.2-1.2-.5l-1-.5.1 1.7c.5.3 1 .7 2 .7a3 3 0 0 0 2-.7c.4-.3.6-.4 1.2-.4.5 0 .7.1 1.1.4.4.3 1 .7 2 .7a3 3 0 0 0 2-.7l.3-1.8-1.2.6c-.3.3-.6.5-1.1.5ZM24.6 45.8c.3-.3.6-.5 1.1-.5.6 0 .8.2 1.2.5.4.3 1 .6 2 .6.5 0 1 0 1.4-.4l.3-1.8-.2.1-.4.3c-.4.3-.6.4-1.2.4-.5 0-.8-.1-1.1-.4-.5-.3-1-.7-2-.7s-1.5.4-2 .7c-.3.3-.5.4-1.1.4-.6 0-.8-.1-1.1-.4l-.5-.3c.2.7.6 1.4.9 2l.7.1c1 0 1.5-.3 2-.6ZM25.7 48.4c.6 0 .8.1 1.2.4.4.3 1 .6 2 .6.3 0 .7 0 1-.2h.1l.2-1.8-.2.2c-.4.3-.6.4-1.2.4-.5 0-.8-.1-1.1-.4-.5-.3-1-.7-2-.7a3 3 0 0 0-2 .7c-.2.2-.5.4-.8.4l.9 1.2.8-.4c.3-.3.6-.4 1.1-.4Z"/></g><defs><clipPath id="a"><path fill="#fff" d="M0 0h76v76H0z"/></clipPath></defs></svg>