<svg width="192" height="191" viewBox="0 0 192 191" fill="none" xmlns="http://www.w3.org/2000/svg">
<g clip-path="url(#clip0_964_1254)">
<path fill-rule="evenodd" clip-rule="evenodd" d="M23.6914 95.1445C23.6914 97.2752 25.4313 98.9998 27.5799 98.9998C29.7246 98.9998 31.4644 97.2752 31.4644 95.1445C31.4644 93.0138 29.7246 91.2853 27.5799 91.2853C25.4313 91.2853 23.6914 93.0138 23.6914 95.1445Z" fill="#002D59"/>
<path fill-rule="evenodd" clip-rule="evenodd" d="M160.195 95.1445C160.195 97.2752 161.935 98.9998 164.08 98.9998C166.228 98.9998 167.968 97.2752 167.968 95.1445C167.968 93.0138 166.228 91.2853 164.08 91.2853C161.931 91.2853 160.195 93.0138 160.195 95.1445Z" fill="#002D59"/>
<path fill-rule="evenodd" clip-rule="evenodd" d="M120.169 180.104C122.236 183.696 126.739 186.036 132.846 182.954C128.226 180.877 126.871 177.072 120.169 180.104ZM112.088 181.976C119.044 179.578 120.037 183.491 124.439 185.986C118.071 188.491 113.809 185.746 112.088 181.976ZM104.066 183.074C105.436 186.979 109.426 190.1 116 188.186C111.843 185.301 111.213 181.314 104.066 183.074ZM95.9117 183.441C103.194 182.339 103.451 186.368 107.32 189.613C100.602 190.928 96.9121 187.459 95.9117 183.441ZM86.8815 182.977C87.4653 187.072 90.7777 190.9 97.601 190.274C94.0784 186.651 94.2341 182.618 86.8815 182.977ZM77.9407 181.608C85.2934 181.991 84.7251 185.986 87.8585 189.949C81.0079 189.883 78.1042 185.742 77.9407 181.608ZM69.1907 179.342C68.9299 183.472 71.3938 187.884 78.2015 188.642C75.4924 184.385 76.4655 180.464 69.1907 179.342ZM60.7132 176.206C60.032 180.286 62.0327 184.926 68.7314 186.365C66.47 181.856 67.8401 178.058 60.7132 176.206ZM52.6054 172.231C51.5078 176.218 53.0258 181.036 59.5377 183.143C57.7511 178.434 59.5027 174.795 52.6054 172.231ZM44.9453 167.459C51.5428 170.704 49.4254 174.145 50.7215 179.017C44.4626 176.26 43.4467 171.318 44.9453 167.459ZM37.8106 161.937C35.9228 165.622 36.4288 170.646 42.3763 174.014C41.5901 169.041 44.0461 165.827 37.8106 161.937ZM31.2831 155.723C37.0827 160.224 34.3153 163.175 34.5877 168.202C29.0139 164.246 29.0256 159.2 31.2831 155.723ZM25.4212 148.883C22.825 152.115 22.2918 157.135 27.4336 161.632C27.671 156.601 30.7304 153.944 25.4212 148.883ZM20.2911 141.485C25.0592 147.061 21.743 149.393 20.9878 154.37C16.3326 149.381 17.3757 144.44 20.2911 141.485ZM15.9434 133.612C12.74 136.257 11.1986 141.064 15.3167 146.497C16.5778 141.621 20.116 139.637 15.9434 133.612ZM12.4286 125.341C15.9628 131.756 12.2417 133.372 10.4863 138.098C6.94424 132.274 8.96826 127.646 12.4286 125.341ZM9.77398 116.756C6.0996 118.701 3.60849 123.102 6.53943 129.254C8.76197 124.726 12.631 123.492 9.77398 116.756ZM8.01464 107.948C10.1671 114.939 6.19301 115.778 3.51508 120.051C1.23416 113.64 4.16121 109.51 8.01464 107.948ZM7.1661 99.0072C3.16866 100.175 -0.163197 103.984 1.45213 110.596C4.55433 106.61 8.5907 106.18 7.1661 99.0072ZM7.23617 90.0282C7.92122 97.3096 3.8576 97.329 0.362271 100.979C-0.564109 94.2393 3.14141 90.7861 7.23617 90.0282ZM8.22482 81.0995C4.07557 81.4437 0.0353135 84.5063 0.268855 91.3004C4.1145 88.0252 8.15865 88.4119 8.22482 81.0995ZM10.1243 72.3216C9.31079 79.5876 5.32891 78.7948 1.1641 81.6641C1.62339 74.8815 5.95947 72.2404 10.1243 72.3216ZM12.9112 63.7796C8.77364 63.2808 4.19624 65.4656 3.04021 72.1708C7.4736 69.7308 11.3582 70.9257 12.9112 63.7796ZM16.5545 55.5624C12.4947 54.6498 7.71103 56.3629 5.87773 62.9134C10.5408 60.9374 14.2813 62.5151 16.5545 55.5624ZM21.0268 47.7551C17.076 46.4365 12.1483 47.6585 9.64942 53.9925C14.4915 52.496 18.0491 54.441 21.0268 47.7551ZM26.2698 40.4389C22.6265 46.7923 19.283 44.4953 14.3125 45.493C17.4458 39.4451 22.4786 38.7259 26.2698 40.4389ZM32.2367 33.6912C28.6363 31.6031 23.5607 31.8157 19.8279 37.5117C24.8724 37.0206 27.9629 39.6424 32.2367 33.6912ZM38.8654 27.5776C34 33.0686 31.1975 30.1452 26.1296 30.1298C30.4268 24.836 35.4985 25.1414 38.8654 27.5776ZM46.0818 22.1678C42.9835 19.4029 37.9663 18.587 33.1476 23.4207C38.1881 23.9504 40.6831 27.1368 46.0818 22.1678ZM53.8159 17.5159C47.9346 21.9164 45.7821 18.4904 40.8194 17.4579C46.1091 13.1308 51.0173 14.4494 53.8159 17.5159ZM61.986 13.6644C59.5104 10.335 54.7696 8.52919 49.0634 12.2917C53.8977 13.823 55.6882 17.4463 61.986 13.6644ZM70.5102 10.656C63.8543 13.7843 62.4453 10.0025 57.7978 7.99169C63.8543 4.81696 68.3928 7.09457 70.5102 10.656ZM79.2992 8.52919C77.5554 4.77442 73.2738 2.04825 66.9215 4.59267C71.3393 7.05976 72.3552 10.9692 79.2992 8.52919ZM88.2555 7.29565C81.1013 9.02416 80.4902 5.0335 76.3488 2.13332C82.9268 0.238532 86.9087 3.38233 88.2555 7.29565ZM97.2935 6.97083C96.3516 2.9415 92.7161 -0.581254 85.9746 0.632957C89.8007 3.93917 89.9992 7.96849 97.2935 6.97083ZM106.32 7.56246C98.9594 7.81768 99.1735 3.78836 95.7093 0.11479C102.537 -0.41111 105.794 3.45967 106.32 7.56246ZM115.237 9.06282C115.136 4.92523 112.295 0.745097 105.444 0.582687C108.515 4.58494 107.888 8.57559 115.237 9.06282ZM123.956 11.4564C116.697 10.2268 117.728 6.32505 115.082 2.02891C121.878 2.8835 124.275 7.33045 123.956 11.4564ZM132.383 14.7124C133.126 10.6444 131.192 5.97316 124.521 4.438C126.712 8.98162 125.287 12.7596 132.383 14.7124ZM140.436 18.8074C141.592 14.8323 140.144 9.99475 133.664 7.79448C135.38 12.5314 133.574 16.147 140.436 18.8074ZM148.023 23.6875C141.468 20.3503 143.636 16.9359 142.414 12.0481C148.634 14.8941 149.579 19.8515 148.023 23.6875ZM155.075 29.3138C157.018 25.6519 156.586 20.6249 150.685 17.1679C151.401 22.1523 148.898 25.3309 155.075 29.3138ZM161.513 35.6208C155.776 31.0346 158.594 28.1267 158.392 23.0958C163.907 27.129 163.818 32.1754 161.513 35.6208ZM167.274 42.5425C169.921 39.3485 170.524 34.337 165.452 29.7701C165.137 34.7933 162.035 37.4034 167.274 42.5425ZM172.295 50.0095C167.613 44.3677 170.96 42.0863 171.789 37.1173C176.367 42.1752 175.253 47.0978 172.295 50.0095ZM176.526 57.9483C179.769 55.3536 181.376 50.5664 177.34 45.0715C176.012 49.9283 172.443 51.8618 176.526 57.9483ZM179.92 66.2699C176.483 59.8044 180.228 58.2383 182.049 53.54C185.506 59.4139 183.416 64.0116 179.92 66.2699ZM182.45 74.8931C186.156 72.9983 188.709 68.6365 185.872 62.4455C183.575 66.935 179.691 68.1144 182.45 74.8931ZM184.077 83.7252C182.03 76.7028 186.016 75.9217 188.756 71.6875C190.943 78.1336 187.962 82.2171 184.077 83.7252ZM184.797 92.6771C188.814 91.5673 192.201 87.8047 190.687 81.173C187.522 85.1095 183.478 85.4846 184.797 92.6771ZM184.595 101.652C184.019 94.363 188.079 94.3978 191.629 90.8016C192.462 97.5532 188.702 100.956 184.595 101.652ZM183.478 110.565C187.635 110.283 191.718 107.282 191.582 100.48C187.689 103.702 183.649 103.253 183.478 110.565ZM181.454 119.316C182.369 112.062 186.343 112.913 190.546 110.101C189.986 116.88 185.615 119.455 181.454 119.316ZM178.542 127.816C182.672 128.376 187.281 126.253 188.534 119.568C184.062 121.942 180.201 120.693 178.542 127.816ZM174.775 135.983C178.823 136.957 183.626 135.314 185.556 128.786C180.87 130.693 177.149 129.061 174.775 135.983ZM170.193 143.724C174.121 145.101 179.068 143.948 181.66 137.649C176.795 139.076 173.264 137.077 170.193 143.724ZM164.841 150.963C168.582 144.664 171.887 147.007 176.869 146.083C173.65 152.084 168.609 152.726 164.841 150.963ZM158.777 157.622C162.346 159.76 167.426 159.625 171.244 153.979C166.188 154.401 163.14 151.736 158.777 157.622ZM152.059 163.643C157.002 158.221 159.766 161.179 164.837 161.272C160.459 166.504 155.391 166.125 152.059 163.643ZM144.761 168.948C147.824 171.755 152.826 172.645 157.714 167.881C152.682 167.281 150.233 164.053 144.761 168.948ZM136.96 173.492C142.908 169.176 145.01 172.629 149.957 173.735C144.605 177.981 139.72 176.593 136.96 173.492ZM128.74 177.223C135.092 173.53 136.832 177.177 141.639 178.778C135.882 182.463 131.161 180.584 128.74 177.223Z" fill="#002D59"/>
<path fill-rule="evenodd" clip-rule="evenodd" d="M95.9868 11.1433C142.749 11.1433 180.657 48.7761 180.657 95.2022C180.657 141.628 142.749 179.261 95.9868 179.261C49.224 179.261 11.3203 141.624 11.3203 95.2022C11.3203 48.7799 49.224 11.1433 95.9868 11.1433ZM175.321 113.767H154.088C146.19 138.144 123.167 155.785 95.9868 155.785C68.8065 155.785 45.7832 138.14 37.8895 113.767H16.6528C25.1031 149.501 57.4136 176.113 95.9868 176.113C134.56 176.113 166.87 149.501 175.321 113.767ZM154.5 112.433C154.574 112.193 154.641 111.958 154.711 111.718C154.641 111.958 154.571 112.197 154.5 112.433ZM155.084 110.353H176.049C176.983 105.442 177.481 100.384 177.481 95.2061C177.481 90.0283 176.983 84.9665 176.049 80.0594H155.084H151.507C144.82 55.8487 122.498 38.0531 95.9868 38.0531C69.4759 38.0531 47.1533 55.8487 40.4662 80.0594H36.8931H15.9289C14.9947 84.9665 14.4965 90.0322 14.4965 95.2061C14.4965 100.384 14.9908 105.446 15.9289 110.353H36.8931H40.4662C47.1533 134.564 69.4759 152.359 95.9868 152.359C122.498 152.359 144.82 134.564 151.507 110.353H155.084ZM155.084 80.0555C154.987 79.6843 154.886 79.3092 154.781 78.938C154.882 79.3092 154.987 79.6843 155.084 80.0555ZM154.711 78.6905C154.641 78.4508 154.574 78.2149 154.5 77.9751C154.571 78.2149 154.641 78.4546 154.711 78.6905ZM154.088 76.6449H175.321C166.87 40.9069 134.56 14.2987 95.9868 14.2987C57.4136 14.2987 25.1031 40.9069 16.6528 76.6449H37.8895C45.7832 52.2679 68.8065 34.627 95.9868 34.627C123.163 34.6232 146.19 52.264 154.088 76.6449ZM37.2667 111.718C37.3368 111.958 37.403 112.197 37.4769 112.433C37.403 112.197 37.3329 111.958 37.2667 111.718ZM37.2667 78.6905C37.3368 78.4546 37.403 78.2149 37.4769 77.9751C37.403 78.2149 37.3329 78.4546 37.2667 78.6905Z" fill="#002D59"/>
<path d="M40.8374 44.5069L44.3366 47.5231C44.5896 47.7396 44.7803 47.991 44.9205 48.2771C45.0567 48.5671 45.1384 48.8649 45.1618 49.1742C45.1851 49.4836 45.1501 49.793 45.0567 50.0984C44.9672 50.4078 44.8115 50.6862 44.5935 50.9337L44.0525 51.5563L46.7226 53.8532L45.6483 55.079L35.7734 46.5679L37.3888 44.7234C37.6028 44.4721 37.8597 44.2826 38.1478 44.1473C38.4358 44.0119 38.7394 43.9307 39.0508 43.9075C39.3622 43.8882 39.6736 43.9268 39.985 44.0235C40.2925 44.1202 40.5805 44.2826 40.8374 44.5069ZM43.889 49.2632L39.152 45.1836L38.0816 46.4094L42.8147 50.489L43.889 49.2632Z" fill="#002D59"/>
<path d="M51.8608 45.3077L46.7073 38.9969C46.5011 38.7416 46.3454 38.4594 46.2519 38.1539C46.1585 37.8445 46.1274 37.5352 46.1624 37.2258C46.1936 36.9165 46.2831 36.6226 46.431 36.3364C46.5789 36.0541 46.7852 35.8028 47.0538 35.5901L48.9688 34.0472L50.0003 35.3117L47.4586 37.3573L49.5215 39.8824L50.7943 38.8576L51.8258 40.1183L50.553 41.143L53.6357 44.9171L56.1774 42.8715L57.2089 44.1321L55.2939 45.6711C55.0253 45.8877 54.7412 46.0385 54.4298 46.1236C54.1184 46.2048 53.807 46.2319 53.4956 46.1932C53.1803 46.1584 52.8845 46.0617 52.6004 45.9148C52.3123 45.7678 52.0671 45.5629 51.8608 45.3077Z" fill="#002D59"/>
<path d="M64.4504 37.7398L63.6719 36.3516L62.9479 36.7499C62.656 36.9084 62.3524 37.009 62.0255 37.0399C61.6985 37.0709 61.391 37.0515 61.0913 36.9703C60.7916 36.8891 60.5152 36.7576 60.2544 36.5643C59.9937 36.3748 59.7835 36.1351 59.62 35.8489L56.0273 29.4337L57.4753 28.6371L61.4338 35.7058L62.8623 34.917L58.9038 27.8483L60.3362 27.0594L66.6885 38.4049L65.2561 39.1938L64.4504 37.7398Z" fill="#002D59"/>
<path d="M68.1055 23.7224L69.6507 23.1849L71.2661 27.7904L72.8113 27.2568L71.196 22.6513L72.7257 22.1254L77.0228 34.3874L75.4932 34.9133L73.3485 28.792L71.8032 29.3256L73.9479 35.4469L72.4065 35.9844L68.1055 23.7224Z" fill="#002D59"/>
<path d="M87.5176 29.859C87.576 30.2071 87.5643 30.5357 87.4865 30.8451C87.4086 31.1545 87.2763 31.4367 87.0934 31.6842C86.9104 31.9356 86.6808 32.1483 86.4083 32.3145C86.1319 32.4808 85.8245 32.5929 85.4858 32.6471C85.1472 32.7051 84.8241 32.6935 84.5166 32.6239C84.2052 32.5504 83.9211 32.4228 83.6681 32.2411C83.4151 32.0593 83.201 31.835 83.0336 31.5643C82.8663 31.2975 82.7534 30.9882 82.695 30.6402L81.3444 22.4771C81.2899 22.1446 81.2976 21.8159 81.3677 21.4949C81.4378 21.174 81.5662 20.8878 81.7492 20.6287C81.9282 20.3696 82.154 20.157 82.4225 19.9791C82.6911 19.8051 82.9947 19.6929 83.3372 19.6388C83.6759 19.5808 84.0028 19.5963 84.322 19.6736C84.6373 19.7509 84.9253 19.8824 85.1822 20.0719C85.4352 20.2575 85.6532 20.4895 85.8245 20.7679C86.0035 21.0463 86.1203 21.3557 86.1748 21.6921L87.5176 29.859ZM82.8196 21.4988L84.4076 31.1003L86.023 30.8374L84.4349 21.232L82.8196 21.4988Z" fill="#002D59"/>
<path d="M94.2732 17.485L94.2926 15.8609L99.1853 15.915L99.1659 17.5391L94.2732 17.485ZM96.5463 31.8467L99.0063 31.8738L99.1464 18.8926L97.5077 18.8771L97.3909 30.2303L95.7561 30.211L95.8807 18.8539L94.2654 18.8346L94.1486 29.3874C94.1447 29.716 94.207 30.0254 94.3354 30.3232C94.4561 30.617 94.6313 30.8761 94.8492 31.1043C95.0672 31.3324 95.3241 31.5103 95.616 31.6418C95.9002 31.7732 96.2154 31.8428 96.5463 31.8467Z" fill="#002D59"/>
<path d="M122.492 23.7464L121.445 26.8476C121.336 27.1725 121.215 27.4663 121.091 27.7293C120.962 27.9961 120.807 28.2127 120.628 28.3867C120.449 28.5568 120.235 28.6651 119.993 28.7154C119.752 28.7618 119.468 28.7347 119.141 28.6264C119.456 28.7308 119.693 28.8739 119.857 29.0634C120.017 29.2529 120.122 29.4694 120.161 29.713C120.199 29.9605 120.196 30.2312 120.137 30.5251C120.083 30.8228 120.001 31.1244 119.9 31.4377L118.347 36.0625L116.809 35.5521L118.37 30.9272C118.514 30.5019 118.557 30.1113 118.499 29.7672C118.44 29.4191 118.312 29.2142 118.117 29.1484L117.331 28.8855L115.26 35.0339L113.707 34.5196L117.852 22.2073L119.405 22.7216L117.848 27.3465L118.615 27.6017C118.814 27.6674 119.043 27.5746 119.308 27.331C119.573 27.0835 119.775 26.7471 119.919 26.3217L120.955 23.2398L122.492 23.7464Z" fill="#002D59"/>
<path d="M132.454 28.4174L134.607 29.6046L128.266 40.9346L126.834 40.1458L132.384 30.2387L130.952 29.4499L125.405 39.3608L123.992 38.5797L129.146 29.3725C129.309 29.0825 129.515 28.8466 129.772 28.6533C130.025 28.46 130.306 28.3169 130.609 28.2279C130.913 28.1351 131.22 28.1081 131.543 28.139C131.859 28.1622 132.166 28.2589 132.454 28.4174Z" fill="#002D59"/>
<path d="M137.081 45.1109L138.073 43.8658L137.423 43.3592C137.163 43.1581 136.956 42.9107 136.801 42.6245C136.645 42.3384 136.548 42.0445 136.505 41.7429C136.462 41.4374 136.481 41.1319 136.559 40.8187C136.637 40.5093 136.777 40.2232 136.98 39.9641L141.557 34.1946L142.857 35.2116L137.816 41.565L139.101 42.5704L144.142 36.217L145.426 37.2224L138.35 46.1434C138.151 46.3909 137.964 46.5726 137.793 46.6848C137.618 46.7969 137.439 46.8588 137.252 46.8665C137.065 46.8781 136.875 46.8394 136.684 46.7582C136.489 46.677 136.279 46.5649 136.049 46.4179L133.465 44.3956L134.504 43.0924L137.081 45.1109Z" fill="#002D59"/>
<path d="M146.822 53.8227C146.557 54.0586 146.273 54.2249 145.973 54.3177C145.674 54.4144 145.374 54.4453 145.074 54.4144C144.778 54.3834 144.487 54.2945 144.195 54.1476C143.91 54.0045 143.65 53.8034 143.424 53.5482L141.809 51.7501L149.714 44.7471C149.971 44.5228 150.255 44.3527 150.559 44.2444C150.866 44.1361 151.177 44.0897 151.493 44.1052C151.808 44.1207 152.112 44.1903 152.404 44.3256C152.696 44.461 152.956 44.6543 153.186 44.9056L154.836 46.7463L153.614 47.8252L151.419 45.389L148.994 47.539L150.084 48.7532C150.395 49.0974 150.535 49.4918 150.504 49.9365C150.473 50.3812 150.286 50.7524 149.94 51.0618L146.822 53.8227ZM145.195 53.088L148.846 49.8553L147.76 48.6411L144.109 51.8738L145.195 53.088Z" fill="#002D59"/>
<path d="M114.868 105.157V105.153L114.809 105.13L114.868 105.157Z" fill="#002D59"/>
<path d="M114.868 97.9291L114.82 97.9093L114.868 97.9331V97.9291Z" fill="#002D59"/>
<path d="M39.479 139.011C42.5384 136.033 47.4349 136.068 50.6539 139.332C53.8768 142.599 53.8106 147.402 50.7201 150.411C47.6607 153.388 42.7641 153.353 39.5451 150.09C36.3223 146.822 36.3884 142.016 39.479 139.011ZM47.7697 147.418C49.3072 145.921 49.5563 143.516 47.9604 141.896C46.3801 140.291 44.0097 140.492 42.4449 142.019C40.9075 143.516 40.6584 145.925 42.2386 147.526C43.8345 149.142 46.2011 148.941 47.7697 147.418Z" fill="#002D59"/>
<path d="M57.8601 155.356C59.8024 151.493 64.3175 149.946 68.3616 151.949C71.0902 153.303 72.1956 155.317 72.5576 157.533L68.8054 158.275C68.5173 156.949 67.9179 155.917 66.6412 155.286C64.7729 154.362 62.6671 155.279 61.6785 157.251C60.6781 159.238 61.2153 161.446 63.0836 162.371C64.4771 163.063 65.6175 162.823 66.9059 162.255L68.7003 165.607C66.575 166.705 64.2396 167.135 61.2853 165.669C57.4669 163.774 55.8516 159.354 57.8601 155.356Z" fill="#002D59"/>
<path d="M83.2498 160.894L78.8281 160.21L79.3847 156.656L92.3151 158.644L91.7585 162.201L87.3368 161.521L85.6086 172.607L81.5255 171.981L83.2498 160.894Z" fill="#002D59"/>
<path d="M98.8867 158.569L105.216 157.664C108.948 157.131 111.626 158.697 112.105 161.984C112.603 165.441 110.19 167.645 106.52 168.171L104.496 168.461L105.103 172.652L101.012 173.236L98.8867 158.569ZM105.971 164.996C107.427 164.787 108.201 163.905 108.03 162.714C107.847 161.458 106.866 160.912 105.391 161.125L103.472 161.4L104.032 165.274L105.971 164.996Z" fill="#002D59"/>
<path d="M120.365 161.853C118.427 158.059 119.933 153.43 124.036 151.362C128.138 149.293 132.731 150.801 134.689 154.629C136.628 158.423 135.121 163.051 131.019 165.12C126.916 167.189 122.323 165.685 120.365 161.853ZM130.929 156.528C129.956 154.621 127.718 153.659 125.686 154.687C123.67 155.704 123.152 158.005 124.145 159.95C125.118 161.856 127.352 162.819 129.368 161.802C131.404 160.774 131.922 158.473 130.929 156.528Z" fill="#002D59"/>
<path d="M136.578 143.813L141.903 138.361C143.211 137.023 144.464 136.404 145.702 136.389C146.546 136.377 147.364 136.664 148.127 137.402C149.364 138.597 149.415 140.005 148.909 141.343C150.598 140.465 152.132 140.353 153.619 141.779C155.452 143.547 155.117 146.114 152.638 148.651L147.282 154.134L136.578 143.813ZM145.46 143.199C146.336 142.302 146.519 141.505 145.861 140.871C145.281 140.31 144.499 140.442 143.639 141.323L141.771 143.237L143.651 145.051L145.46 143.199ZM149.929 146.683C150.805 145.786 150.956 144.931 150.299 144.297C149.719 143.736 148.89 143.825 147.924 144.811L145.729 147.058L147.702 148.96L149.929 146.683Z" fill="#002D59"/>
<path fill-rule="evenodd" clip-rule="evenodd" d="M109.456 142.498C110.604 144.497 113.111 145.804 116.512 144.084C113.94 142.927 113.184 140.808 109.456 142.498ZM104.952 143.538C108.825 142.204 109.378 144.381 111.83 145.774C108.284 147.169 105.91 145.638 104.952 143.538ZM100.488 144.153C101.251 146.33 103.473 148.067 107.132 146.999C104.82 145.391 104.466 143.171 100.488 144.153ZM95.9491 144.358C100.001 143.743 100.145 145.986 102.301 147.796C98.5609 148.527 96.5057 146.593 95.9491 144.358ZM90.9202 144.099C91.2433 146.381 93.0882 148.511 96.8872 148.163C94.9293 146.145 95.0189 143.894 90.9202 144.099ZM85.9419 143.334C90.0366 143.546 89.7214 145.774 91.4612 147.978C87.6506 147.943 86.0353 145.634 85.9419 143.334ZM81.0726 142.073C80.9247 144.374 82.2987 146.833 86.0898 147.255C84.5796 144.88 85.1245 142.695 81.0726 142.073ZM76.355 140.325C75.9736 142.595 77.0868 145.182 80.8157 145.982C79.5584 143.473 80.3213 141.358 76.355 140.325ZM71.8399 138.109C71.2327 140.333 72.0734 143.016 75.7011 144.192C74.7047 141.566 75.6817 139.536 71.8399 138.109ZM67.5778 135.453C71.2483 137.259 70.0728 139.18 70.7929 141.887C67.3092 140.352 66.7409 137.599 67.5778 135.453ZM63.6076 132.375C62.5566 134.428 62.8369 137.224 66.1493 139.103C65.7094 136.334 67.0757 134.544 63.6076 132.375ZM59.9721 128.918C63.2028 131.423 61.6575 133.067 61.8093 135.866C58.7071 133.666 58.7149 130.851 59.9721 128.918ZM56.7103 125.105C55.2585 126.903 54.9666 129.699 57.8274 132.205C57.9598 129.405 59.6646 127.928 56.7103 125.105ZM53.8572 120.987C56.5079 124.092 54.6591 125.387 54.2426 128.164C51.6503 125.379 52.2302 122.63 53.8572 120.987ZM51.4362 116.598C49.6496 118.071 48.7933 120.747 51.0898 123.779C51.7865 121.064 53.756 119.958 51.4362 116.598ZM49.4783 111.992C51.444 115.565 49.3694 116.466 48.3963 119.1C46.4228 115.855 47.5516 113.276 49.4783 111.992ZM47.9992 107.209C45.9519 108.292 44.5662 110.747 46.1971 114.169C47.4349 111.652 49.5912 110.964 47.9992 107.209ZM47.0223 102.306C48.2211 106.2 46.0064 106.667 44.5156 109.046C43.2428 105.473 44.8737 103.176 47.0223 102.306ZM46.5474 97.325C44.321 97.9746 42.4643 100.098 43.3635 103.779C45.0917 101.559 47.3414 101.319 46.5474 97.325ZM46.5863 92.3212C46.9678 96.3737 44.7024 96.3892 42.7601 98.4193C42.2425 94.6684 44.3054 92.7427 46.5863 92.3212ZM47.1351 87.3522C44.8231 87.5417 42.5772 89.247 42.7056 93.0366C44.8503 91.2075 47.1001 91.4202 47.1351 87.3522ZM48.1939 82.4606C47.7423 86.5092 45.5237 86.0645 43.2078 87.6654C43.4608 83.8836 45.874 82.4142 48.1939 82.4606ZM49.743 77.7043C47.4426 77.4258 44.8893 78.6439 44.2509 82.3794C46.7187 81.0182 48.8789 81.6833 49.743 77.7043ZM51.7748 73.1258C49.5134 72.6154 46.851 73.5705 45.8312 77.2209C48.4235 76.1188 50.5098 76.9966 51.7748 73.1258ZM54.262 68.7756C52.0629 68.0409 49.3188 68.7214 47.9292 72.2481C50.6227 71.4167 52.6039 72.4994 54.262 68.7756ZM57.1813 64.6998C55.1534 68.2419 53.2928 66.962 50.5254 67.5188C52.2692 64.1507 55.0716 63.7486 57.1813 64.6998ZM60.5015 60.9412C58.4969 59.7811 55.6711 59.8971 53.5926 63.0719C56.4028 62.7973 58.1233 64.2551 60.5015 60.9412ZM64.1914 57.5383C61.4862 60.5932 59.9215 58.9691 57.1035 58.9575C59.4973 56.0109 62.3153 56.1772 64.1914 57.5383ZM68.2122 54.5221C66.4879 52.9831 63.6932 52.5307 61.0114 55.222C63.8178 55.5159 65.2073 57.2908 68.2122 54.5221ZM72.5172 51.9313C69.2398 54.3829 68.0449 52.4765 65.2813 51.8965C68.2278 49.4913 70.9563 50.226 72.5172 51.9313ZM77.0673 49.789C75.6894 47.9329 73.0504 46.9275 69.8704 49.0234C72.56 49.878 73.5564 51.8926 77.0673 49.789ZM81.8121 48.1108C78.1066 49.8548 77.3203 47.7473 74.7319 46.6259C78.1027 44.8587 80.6288 46.1271 81.8121 48.1108ZM86.7009 46.9275C85.7317 44.8355 83.3496 43.3197 79.8114 44.735C82.2714 46.1077 82.8358 48.2848 86.7009 46.9275ZM91.687 46.2392C87.709 47.2021 87.3665 44.9786 85.0583 43.3622C88.721 42.3104 90.9358 44.0583 91.687 46.2392ZM96.7198 46.0613C96.1944 43.8185 94.1703 41.8541 90.4181 42.5308C92.5472 44.3715 92.6601 46.6143 96.7198 46.0613ZM101.745 46.39C97.6501 46.5331 97.7669 44.2864 95.8363 42.2408C99.6391 41.9431 101.453 44.1008 101.745 46.39ZM106.708 47.2253C106.653 44.9206 105.069 42.5966 101.254 42.4999C102.967 44.7311 102.617 46.9507 106.708 47.2253ZM111.557 48.5555C107.517 47.871 108.089 45.6978 106.622 43.3042C110.405 43.7798 111.74 46.2585 111.557 48.5555ZM116.252 50.3729C116.664 48.1069 115.59 45.5084 111.877 44.6538C113.095 47.1789 112.301 49.2825 116.252 50.3729ZM120.732 52.6505C121.374 50.4348 120.572 47.7434 116.96 46.5176C117.921 49.1549 116.913 51.1695 120.732 52.6505ZM124.959 55.3729C121.312 53.5129 122.514 51.6103 121.837 48.888C125.301 50.4696 125.827 53.2344 124.959 55.3729ZM128.882 58.5012C129.961 56.4633 129.723 53.6637 126.438 51.738C126.839 54.5144 125.445 56.2854 128.882 58.5012ZM132.467 62.0162C129.275 59.464 130.84 57.8399 130.727 55.0403C133.798 57.287 133.752 60.0982 132.467 62.0162ZM135.671 65.8715C137.146 64.0927 137.484 61.3047 134.655 58.7603C134.483 61.556 132.759 63.01 135.671 65.8715ZM138.469 70.0323C135.861 66.8924 137.726 65.6163 138.185 62.8515C140.738 65.6666 140.116 68.4121 138.469 70.0323ZM140.824 74.4522C142.626 73.006 143.525 70.3378 141.276 67.2791C140.536 69.9859 138.551 71.0648 140.824 74.4522ZM142.716 79.0886C140.801 75.4847 142.887 74.6146 143.899 71.9967C145.826 75.272 144.658 77.8319 142.716 79.0886ZM144.121 83.8913C146.184 82.8395 147.601 80.4072 146.024 76.958C144.748 79.4598 142.583 80.1172 144.121 83.8913ZM145.028 88.81C143.887 84.9006 146.106 84.4636 147.632 82.1087C148.85 85.6972 147.188 87.9709 145.028 88.81ZM145.429 93.7984C147.663 93.1796 149.551 91.0838 148.706 87.387C146.947 89.5834 144.697 89.7922 145.429 93.7984ZM145.32 98.7983C145.001 94.7419 147.258 94.7612 149.232 92.7582C149.695 96.5168 147.601 98.4116 145.32 98.7983ZM144.697 103.763C147.009 103.609 149.282 101.934 149.208 98.1448C147.036 99.939 144.79 99.6915 144.697 103.763ZM143.568 108.636C144.078 104.595 146.289 105.07 148.632 103.504C148.317 107.282 145.884 108.717 143.568 108.636ZM141.945 113.373C144.245 113.686 146.811 112.503 147.507 108.779C145.02 110.097 142.868 109.405 141.945 113.373ZM139.851 117.92C142.105 118.458 144.775 117.545 145.853 113.91C143.241 114.974 141.17 114.065 139.851 117.92ZM137.301 122.232C139.485 122.997 142.241 122.355 143.685 118.852C140.972 119.645 139.01 118.531 137.301 122.232ZM134.32 126.265C136.402 122.754 138.24 124.061 141.015 123.547C139.224 126.888 136.418 127.247 134.32 126.265ZM130.945 129.973C132.93 131.164 135.76 131.087 137.885 127.943C135.071 128.179 133.374 126.694 130.945 129.973ZM127.205 133.326C129.957 130.31 131.494 131.957 134.312 132.007C131.879 134.923 129.057 134.71 127.205 133.326ZM123.145 136.28C124.85 137.846 127.633 138.341 130.354 135.689C127.551 135.352 126.189 133.554 123.145 136.28ZM118.801 138.813C122.11 136.408 123.281 138.334 126.037 138.948C123.055 141.315 120.335 140.542 118.801 138.813ZM114.224 140.89C117.762 138.832 118.727 140.866 121.401 141.756C118.194 143.809 115.57 142.765 114.224 140.89Z" fill="#002D59"/>
<path d="M122.414 126.823C121.511 127.457 120.916 127.875 119.518 127.875C118.483 127.875 117.915 127.631 117.451 127.364L116.992 127.097L117.502 131.169L117.685 131.208C118.269 131.339 118.868 131.401 119.518 131.401C122.044 131.401 123.387 130.458 124.469 129.704C125.24 129.166 125.789 128.783 126.797 128.683C127.902 127.685 128.961 126.629 129.962 125.531C129.253 125.288 128.412 125.121 127.361 125.121C124.835 125.121 123.492 126.065 122.414 126.823Z" fill="#002D59"/>
<path d="M102.404 79.5303H95.1875V81.63H102.404V79.5303Z" fill="#002D59"/>
<path d="M102.462 85.5543H95.1289V87.5689H102.462V85.5543Z" fill="#002D59"/>
<path d="M102.462 91.5595H95.1289V93.5781H102.462V91.5595Z" fill="#002D59"/>
<path d="M102.462 97.8043H95.1289V99.8189H102.462V97.8043Z" fill="#002D59"/>
<path d="M102.462 103.957H95.1289V105.976H102.462V103.957Z" fill="#002D59"/>
<path d="M102.404 109.664H95.1875V111.764H102.404V109.664Z" fill="#002D59"/>
<path d="M102.462 115.689H95.1289V117.704H102.462V115.689Z" fill="#002D59"/>
<path d="M102.462 121.695H95.1289V123.71H102.462V121.695Z" fill="#002D59"/>
<path d="M102.462 127.94H95.1289V129.955H102.462V127.94Z" fill="#002D59"/>
<path d="M115.401 133.612L108.971 79.1081L110.963 75.7245H113.416V72.0007H105.958V68.0062H104.837V60.3536H105.689L105.787 57.6622L97.815 53.9461V51.4287H94.635V53.9461L86.6595 57.6622L86.7569 60.3536H87.6132V68.0062H86.4922V72.0007H79.3886V75.7245H81.4866L83.4834 79.1081L77.0571 133.566C76.5628 133.833 74.9358 134.71 74.4531 135.174C75.687 135.828 76.9559 136.431 78.256 136.973C78.941 136.516 79.5482 136.23 80.7004 136.23C82.0977 136.23 82.6932 136.648 83.5963 137.282C84.6744 138.04 86.0173 138.979 88.5434 138.979C91.0696 138.979 92.4124 138.036 93.4906 137.278C94.3197 136.698 94.9191 136.277 96.1763 136.234C97.4491 136.277 98.0447 136.694 98.8776 137.278C99.9558 138.036 101.295 138.976 103.825 138.976C106.351 138.976 107.694 138.032 108.776 137.274C109.679 136.64 110.274 136.222 111.668 136.222C112.731 136.222 113.33 136.466 113.957 136.86C115.237 136.319 116.487 135.72 117.705 135.066C117.152 134.618 115.86 133.867 115.401 133.612ZM101.684 60.3536V68.0062H90.692L90.6881 60.3536H101.684ZM106.725 134.397C105.822 135.031 105.226 135.449 103.829 135.449C102.431 135.449 101.836 135.031 100.933 134.397C100.112 133.817 99.0956 133.106 97.4764 132.823C97.4764 132.823 96.1063 132.684 94.8958 132.823C93.6152 132.955 92.2645 133.821 91.4355 134.401C90.5363 135.031 89.9408 135.449 88.5473 135.449C87.15 135.449 86.5544 135.031 85.6514 134.397C84.6706 133.709 83.4717 132.874 81.3659 132.723L87.7961 78.2806L87.0955 77.0973L96.2308 77.1089L105.358 77.0973L104.662 78.2806L111.084 132.719C108.932 132.85 107.717 133.701 106.725 134.397Z" fill="#002D59"/>
<path d="M72.864 131.405C73.5413 131.405 74.1679 131.335 74.7712 131.196L74.9503 131.153L75.4252 127.077L74.9659 127.344C74.4949 127.619 73.9149 127.874 72.864 127.874C71.4666 127.874 70.8711 127.456 69.9681 126.822C68.8899 126.064 67.547 125.125 65.0209 125.125C63.8182 125.125 62.8879 125.337 62.125 125.643C63.0903 126.695 64.1023 127.704 65.161 128.659C66.4533 128.686 67.0449 129.096 67.9168 129.707C68.995 130.461 70.3379 131.405 72.864 131.405Z" fill="#002D59"/>
<path d="M127.362 117.588C124.835 117.588 123.493 118.531 122.414 119.289C121.511 119.923 120.916 120.341 119.515 120.341C118.121 120.341 117.522 119.919 116.603 119.274L115.953 118.821L116.514 123.311L116.662 123.369C117.53 123.709 118.464 123.875 119.515 123.875C122.045 123.875 123.388 122.932 124.466 122.174C125.369 121.54 125.964 121.122 127.362 121.122C128.755 121.122 129.354 121.54 130.261 122.174C130.744 122.514 131.277 122.889 131.947 123.199C132.71 122.236 133.438 121.246 134.123 120.221C133.418 120.055 132.935 119.722 132.305 119.281C131.227 118.527 129.884 117.588 127.362 117.588Z" fill="#002D59"/>
<path d="M135.209 112.778C133.808 112.778 133.212 112.36 132.309 111.726C131.231 110.972 129.888 110.029 127.362 110.029C124.836 110.029 123.493 110.972 122.415 111.73C121.512 112.36 120.916 112.778 119.519 112.778C118.125 112.778 117.53 112.36 116.623 111.726C116.288 111.49 115.872 111.197 115.393 110.934L114.938 110.682L115.506 115.23L115.619 115.295C116.362 115.732 117.577 116.309 119.519 116.309C122.045 116.309 123.388 115.369 124.47 114.611C125.373 113.977 125.965 113.559 127.366 113.559C128.763 113.559 129.359 113.977 130.266 114.611C131.344 115.369 132.687 116.309 135.213 116.309C135.692 116.309 136.127 116.274 136.528 116.216C137.377 114.619 138.132 112.968 138.786 111.262C138.545 111.417 138.319 111.575 138.105 111.726C137.198 112.36 136.602 112.778 135.209 112.778Z" fill="#002D59"/>
<path d="M57.1805 108.903C59.7028 108.903 61.0417 107.963 62.1277 107.205C63.0307 106.571 63.6263 106.154 65.0236 106.154C66.421 106.154 67.0165 106.571 67.9234 107.205C69.0016 107.959 70.3406 108.903 72.8667 108.903C75.1788 108.903 76.5372 108.095 77.6271 107.337L77.7244 107.267L78.2226 102.979L77.81 103.141C76.9537 103.482 76.292 103.946 75.7626 104.317C74.8635 104.951 74.268 105.369 72.8667 105.369C71.4694 105.369 70.8738 104.951 69.963 104.313C68.8848 103.559 67.542 102.619 65.0197 102.619C62.4975 102.619 61.1546 103.559 60.0725 104.317C59.1695 104.951 58.574 105.369 57.1766 105.369C55.7754 105.369 55.1799 104.951 54.2729 104.313C53.4361 103.725 52.4358 103.029 50.8516 102.747C51.0929 104.151 51.4004 105.531 51.7702 106.888C51.9181 106.985 52.0699 107.089 52.2295 107.205C53.3115 107.959 54.6544 108.903 57.1805 108.903Z" fill="#002D59"/>
<path d="M135.209 105.369C133.808 105.369 133.213 104.951 132.309 104.317C131.231 103.559 129.888 102.619 127.362 102.619C124.84 102.619 123.497 103.563 122.415 104.317C121.512 104.951 120.913 105.369 119.515 105.369C118.122 105.369 117.526 104.951 116.619 104.317C116.012 103.891 115.319 103.408 114.366 103.064L113.961 102.917L114.49 107.151L114.588 107.217C115.6 107.928 116.989 108.903 119.515 108.903C122.041 108.903 123.384 107.963 124.466 107.205C125.369 106.571 125.965 106.154 127.362 106.154C128.76 106.154 129.355 106.571 130.258 107.205C131.336 107.963 132.679 108.903 135.205 108.903C137.704 108.903 139.043 107.979 140.121 107.229C140.522 105.79 140.857 104.328 141.118 102.836C139.767 103.157 138.868 103.783 138.105 104.321C137.202 104.951 136.603 105.369 135.209 105.369Z" fill="#002D59"/>
<path d="M62.1279 114.614C63.0309 113.98 63.6264 113.563 65.0238 113.563C66.4211 113.563 67.0167 113.98 67.9236 114.618C69.0018 115.372 70.3407 116.316 72.8669 116.316C74.3109 116.316 75.5214 116.01 76.6775 115.357L76.7942 115.291L77.3197 110.751L76.8643 111.011C76.4478 111.246 76.0819 111.505 75.7589 111.73C74.8597 112.364 74.2642 112.782 72.863 112.782C71.4656 112.782 70.8701 112.364 69.9632 111.726C68.885 110.972 67.5421 110.028 65.0199 110.028C62.5015 110.028 61.1587 110.968 60.0727 111.726C59.1697 112.36 58.5741 112.778 57.1768 112.778C55.7794 112.778 55.18 112.36 54.2809 111.726C53.9228 111.475 53.5335 111.204 53.082 110.953C53.7554 112.735 54.5339 114.468 55.4174 116.138C55.9351 116.246 56.5151 116.312 57.1768 116.312C59.7029 116.312 61.0419 115.372 62.1279 114.614Z" fill="#002D59"/>
<path d="M65.0215 121.119C66.4149 121.119 67.0144 121.537 67.9174 122.171C68.9956 122.929 70.3345 123.868 72.8646 123.868C73.9155 123.868 74.8458 123.706 75.7138 123.366L75.8617 123.308L76.3794 118.853L75.7605 119.282C74.8613 119.916 74.2619 120.334 72.8646 120.334C71.4672 120.334 70.8717 119.916 69.9648 119.278C68.8866 118.524 67.5437 117.585 65.0215 117.585C62.4992 117.585 61.1564 118.524 60.0743 119.282C59.3464 119.793 58.8132 120.16 57.9062 120.284C58.6108 121.328 59.3581 122.341 60.1405 123.323C60.954 122.991 61.5728 122.554 62.1295 122.167C63.0325 121.537 63.628 121.119 65.0215 121.119Z" fill="#002D59"/>
</g>
<defs>
<clipPath id="clip0_964_1254">
<rect width="191.527" height="190.275" fill="white" transform="translate(0.21875 0.0690918)"/>
</clipPath>
</defs>
</svg>
