<svg width="153" height="154" viewBox="0 0 153 154" fill="none" xmlns="http://www.w3.org/2000/svg">
<path fill-rule="evenodd" clip-rule="evenodd" d="M95.4758 145.338C97.1195 148.219 100.704 150.095 105.565 147.621C101.889 145.957 100.808 142.905 95.4758 145.338ZM89.0424 146.84C94.5774 144.917 95.3698 148.054 98.8751 150.054C93.8056 152.063 90.4122 149.86 89.0424 146.84ZM82.6561 147.721C83.746 150.853 86.9215 153.353 92.1531 151.819C88.845 149.506 88.3443 146.31 82.6561 147.721ZM76.1668 148.016C81.9609 147.132 82.1642 150.361 85.2484 152.965C79.899 154.016 76.965 151.235 76.1668 148.016ZM68.9763 147.645C69.4417 150.929 72.0781 153.996 77.5071 153.495C74.7057 150.587 74.8294 147.356 68.9763 147.645ZM61.8624 146.546C67.7156 146.852 67.2619 150.054 69.754 153.233C64.3015 153.18 61.9891 149.863 61.8624 146.546ZM54.8959 144.728C54.6867 148.039 56.6515 151.577 62.0686 152.184C59.9124 148.77 60.6871 145.63 54.8959 144.728ZM48.1502 142.216C47.6082 145.488 49.1989 149.206 54.5306 150.358C52.7308 146.743 53.8207 143.697 48.1502 142.216ZM41.6962 139.028C40.8213 142.228 42.0291 146.089 47.2135 147.777C45.7937 144.001 47.187 141.082 41.6962 139.028ZM35.5986 135.202C40.8508 137.803 39.1659 140.563 40.1968 144.469C35.2127 142.26 34.4027 138.298 35.5986 135.202ZM29.9193 130.778C28.417 133.732 28.8176 137.759 33.5543 140.46C32.9269 136.475 34.8828 133.897 29.9193 130.778ZM24.7231 125.793C29.342 129.402 27.1356 131.767 27.3536 135.797C22.9174 132.627 22.9262 128.583 24.7231 125.793ZM20.0601 120.309C17.9922 122.901 17.5709 126.925 21.6596 130.53C21.851 126.497 24.2842 124.368 20.0601 120.309ZM15.9773 114.379C19.7714 118.848 17.132 120.718 16.5311 124.709C12.8284 120.709 13.6561 116.747 15.9773 114.379ZM12.5161 108.066C9.96515 110.187 8.73975 114.04 12.0183 118.397C13.0198 114.488 15.8359 112.897 12.5161 108.066ZM9.71772 101.433C12.5309 106.576 9.56748 107.872 8.17122 111.66C5.35514 106.991 6.96349 103.282 9.71772 101.433ZM7.60565 94.5485C4.68057 96.1097 2.69812 99.6357 5.02816 104.567C6.79853 100.941 9.87973 99.9509 7.60565 94.5485ZM6.20644 87.4876C7.92084 93.0933 4.75716 93.7649 2.62448 97.1937C0.809926 92.0535 3.13703 88.7425 6.20644 87.4876ZM5.52893 80.3207C2.34758 81.2575 -0.303547 84.3122 0.980777 89.6115C3.44927 86.4183 6.66303 86.0707 5.52893 80.3207ZM5.5849 73.1215C6.12986 78.9598 2.89548 78.9746 0.114742 81.8996C-0.624628 76.4972 2.32696 73.7283 5.5849 73.1215ZM6.3714 65.9634C3.06633 66.2374 -0.147425 68.6941 0.0381537 74.1407C3.10168 71.5131 6.32133 71.8253 6.3714 65.9634ZM7.88255 58.9261C7.23744 64.7527 4.06492 64.1135 0.751012 66.417C1.11922 60.9763 4.56864 58.8613 7.88255 58.9261ZM10.1007 52.0774C6.81031 51.6768 3.16354 53.4295 2.24448 58.8054C5.77637 56.8494 8.86641 57.8068 10.1007 52.0774ZM13.0022 45.4879C9.76779 44.7573 5.9649 46.13 4.50383 51.3822C8.21541 49.7974 11.1935 51.0611 13.0022 45.4879ZM16.5606 39.2283C13.4175 38.1708 9.49384 39.1517 7.5055 44.2271C11.3585 43.0282 14.1922 44.5894 16.5606 39.2283ZM20.7376 33.3634C17.8361 38.4565 15.1761 36.6154 11.22 37.4167C13.7121 32.568 17.7153 31.9907 20.7376 33.3634ZM25.486 27.9521C22.6199 26.279 18.5813 26.4469 15.6062 31.0157C19.6241 30.6209 22.0808 32.7242 25.486 27.9521ZM30.7588 23.0534C26.8882 27.4543 24.6553 25.1125 20.6197 25.0978C24.0397 20.853 28.0782 21.0975 30.7588 23.0534ZM36.5059 18.7144C34.0374 16.4993 30.046 15.8453 26.2107 19.7189C30.2227 20.1431 32.2081 22.697 36.5059 18.7144ZM42.6624 14.9822C37.9817 18.5082 36.2673 15.7658 32.3171 14.9351C36.5265 11.468 40.4325 12.5285 42.6624 14.9822ZM49.1665 11.8951C47.1988 9.22634 43.4224 7.77706 38.8801 10.7964C42.7243 12.0248 44.15 14.9292 49.1665 11.8951ZM55.9504 9.48556C50.6541 11.9953 49.5288 8.96123 45.829 7.34699C50.6541 4.80485 54.2626 6.62824 55.9504 9.48556ZM62.9435 7.77706C61.5561 4.76656 58.1479 2.5838 53.0931 4.61927C56.6103 6.59878 57.4203 9.733 62.9435 7.77706ZM70.0751 6.79025C64.381 8.17473 63.895 4.9757 60.5987 2.6486C65.8362 1.13451 69.0028 3.65014 70.0751 6.79025ZM77.2714 6.53103C76.5232 3.30255 73.6276 0.474678 68.2605 1.4497C71.3034 4.10083 71.4625 7.33226 77.2714 6.53103ZM84.456 7.00529C78.597 7.21149 78.7678 3.98006 76.0106 1.03436C81.4454 0.61018 84.0377 3.71494 84.456 7.00529ZM91.5551 8.20713C91.4726 4.89028 89.2103 1.53807 83.7608 1.40846C86.2057 4.61927 85.7079 7.81535 91.5551 8.20713ZM98.4922 10.1248C92.7127 9.14092 93.5346 6.00964 91.4314 2.56907C96.8397 3.25247 98.7485 6.81971 98.4922 10.1248ZM105.2 12.7376C105.792 9.47378 104.254 5.73275 98.9399 4.50145C100.687 8.13938 99.5527 11.1705 105.2 12.7376ZM111.609 16.0191C112.528 12.8319 111.38 8.95239 106.219 7.19087C107.586 10.9879 106.151 13.8864 111.609 16.0191ZM117.648 19.934C112.434 17.2593 114.157 14.5198 113.182 10.6049C118.134 12.882 118.885 16.8586 117.648 19.934ZM123.26 24.4438C124.806 21.5099 124.464 17.4772 119.766 14.7083C120.337 18.7056 118.343 21.2536 123.26 24.4438ZM128.385 29.4986C123.819 25.8224 126.061 23.4894 125.899 19.4567C130.288 22.6911 130.22 26.7356 128.385 29.4986ZM132.972 35.0483C135.078 32.4856 135.558 28.4706 131.519 24.8061C131.269 28.8329 128.803 30.9273 132.972 35.0483ZM136.966 41.0369C133.24 36.5153 135.905 34.686 136.562 30.7005C140.206 34.7567 139.323 38.701 136.966 41.0369ZM140.336 47.3996C142.916 45.317 144.198 41.4788 140.984 37.075C139.926 40.9692 137.09 42.5186 140.336 47.3996ZM143.04 54.0746C140.303 48.8902 143.284 47.6353 144.734 43.8677C147.485 48.575 145.818 52.263 143.04 54.0746ZM145.052 60.9852C148.001 59.4652 150.033 55.9687 147.774 51.0052C145.95 54.6048 142.854 55.5504 145.052 60.9852ZM146.348 68.0666C144.716 62.4374 147.892 61.8129 150.071 58.4136C151.812 63.5803 149.438 66.856 146.348 68.0666ZM146.922 75.2424C150.118 74.3528 152.814 71.3364 151.606 66.0194C149.09 69.1772 145.871 69.4776 146.922 75.2424ZM146.763 82.4387C146.304 76.5944 149.535 76.6239 152.36 73.7401C153.02 79.1542 150.03 81.879 146.763 82.4387ZM145.871 89.582C149.179 89.3552 152.431 86.9486 152.325 81.4961C149.223 84.0795 146.009 83.7201 145.871 89.582ZM144.26 96.5987C144.99 90.7839 148.151 91.4643 151.5 89.2109C151.052 94.6457 147.573 96.7106 144.26 96.5987ZM141.941 103.415C145.226 103.866 148.896 102.163 149.895 96.8019C146.333 98.7048 143.258 97.7004 141.941 103.415ZM138.943 109.96C142.165 110.741 145.992 109.421 147.526 104.19C143.791 105.719 140.834 104.414 138.943 109.96ZM135.296 116.167C138.424 117.272 142.36 116.347 144.422 111.298C140.551 112.441 137.741 110.841 135.296 116.167ZM131.036 121.97C134.011 116.921 136.642 118.8 140.607 118.058C138.044 122.868 134.032 123.387 131.036 121.97ZM126.208 127.311C129.048 129.025 133.092 128.916 136.129 124.388C132.109 124.724 129.681 122.589 126.208 127.311ZM120.862 132.136C124.797 127.791 126.995 130.162 131.03 130.236C127.546 134.433 123.513 134.127 120.862 132.136ZM115.053 136.389C117.489 138.64 121.472 139.353 125.363 135.535C121.357 135.055 119.41 132.468 115.053 136.389ZM108.843 140.033C113.574 136.572 115.25 139.341 119.189 140.23C114.929 143.633 111.038 142.522 108.843 140.033ZM102.298 143.026C107.356 140.065 108.74 142.99 112.567 144.272C107.986 147.226 104.227 145.721 102.298 143.026Z" fill="white"/>
<path fill-rule="evenodd" clip-rule="evenodd" d="M76.2227 9.8804C113.442 9.8804 143.617 40.0532 143.617 77.2721C143.617 114.491 113.445 144.664 76.2227 144.664C39.0009 144.664 8.82812 114.494 8.82812 77.2721C8.82812 40.0502 39.0009 9.8804 76.2227 9.8804ZM139.37 92.1537H122.467C116.181 111.695 97.8559 125.841 76.2227 125.841C54.5895 125.841 36.2614 111.695 29.9782 92.1537H13.0758C19.8038 120.804 45.5197 142.136 76.2227 142.136C106.926 142.136 132.642 120.804 139.37 92.1537ZM122.794 91.0844C122.853 90.893 122.906 90.7015 122.962 90.51C122.906 90.7015 122.85 90.893 122.794 91.0844ZM123.26 89.4172H139.947C140.692 85.4817 141.087 81.4255 141.087 77.2721C141.087 73.1186 140.692 69.0624 139.947 65.127H120.414C115.091 45.7178 97.3257 31.4517 76.2227 31.4517C55.1198 31.4517 37.3513 45.7178 32.0314 65.127H12.4985C11.7532 69.0624 11.3585 73.1216 11.3585 77.2721C11.3585 81.4226 11.7532 85.4817 12.4985 89.4172H32.0284C37.3513 108.826 55.1198 123.092 76.2198 123.092C97.3198 123.092 115.088 108.826 120.411 89.4172H123.257H123.26ZM123.26 65.127C123.183 64.8294 123.104 64.529 123.018 64.2315C123.101 64.529 123.183 64.8265 123.26 65.127ZM122.965 64.0312C122.909 63.8397 122.853 63.6482 122.797 63.4567C122.856 63.6482 122.909 63.8397 122.965 64.0312ZM122.467 62.3875H139.37C132.642 33.7376 106.923 12.4049 76.2227 12.4049C45.5227 12.4049 19.8008 33.7435 13.0758 62.3904H29.9782C36.2614 42.8486 54.5895 28.7034 76.2227 28.7034C97.8559 28.7034 116.184 42.8457 122.467 62.3904V62.3875ZM29.4804 90.51C29.5334 90.7015 29.5894 90.893 29.6483 91.0844C29.5923 90.893 29.5364 90.7015 29.4804 90.51ZM29.1829 65.127C29.2595 64.8294 29.342 64.529 29.4244 64.2315C29.342 64.529 29.2595 64.8265 29.1829 65.127ZM29.4804 64.0312C29.5334 63.8397 29.5894 63.6482 29.6483 63.4567C29.5923 63.6482 29.5364 63.8397 29.4804 64.0312Z" fill="white"/>
<path fill-rule="evenodd" clip-rule="evenodd" d="M86.6862 114.258C87.5788 115.822 89.5259 116.844 92.1682 115.498C90.171 114.594 89.5848 112.936 86.6862 114.258ZM83.1897 115.074C86.2002 114.028 86.6273 115.734 88.5332 116.821C85.779 117.911 83.935 116.715 83.1897 115.074ZM79.7197 115.551C80.3118 117.254 82.0409 118.612 84.8805 117.775C83.0837 116.52 82.8127 114.782 79.7197 115.551ZM76.1937 115.71C79.3426 115.23 79.4546 116.986 81.1277 118.4C78.2203 118.971 76.6237 117.46 76.1937 115.71ZM72.2877 115.51C72.5381 117.292 73.9726 118.959 76.9213 118.686C75.4013 117.11 75.469 115.351 72.2877 115.51ZM68.42 114.912C71.6013 115.077 71.3568 116.818 72.7089 118.544C69.7455 118.515 68.4907 116.712 68.42 114.912ZM64.6348 113.925C64.5199 115.725 65.5862 117.646 68.5319 117.976C67.3595 116.123 67.7808 114.411 64.6348 113.925ZM60.9703 112.558C60.6757 114.335 61.5418 116.355 64.4374 116.983C63.4594 115.021 64.0545 113.366 60.9703 112.558ZM57.462 110.823C56.9877 112.564 57.6417 114.662 60.4607 115.581C59.686 113.528 60.443 111.943 57.462 110.823ZM54.151 108.747C57.0054 110.161 56.0893 111.66 56.649 113.781C53.9389 112.582 53.5 110.429 54.151 108.747ZM51.0639 106.343C50.248 107.948 50.466 110.137 53.0405 111.607C52.6988 109.439 53.7622 108.04 51.0639 106.343ZM48.239 103.636C50.7487 105.598 49.5498 106.882 49.6677 109.074C47.2551 107.35 47.264 105.15 48.239 103.636ZM45.7057 100.655C44.5805 102.063 44.3507 104.249 46.5747 106.208C46.6778 104.016 48.0004 102.858 45.7057 100.655ZM43.4876 97.4323C45.5466 99.8596 44.1121 100.876 43.7881 103.044C41.7762 100.87 42.2268 98.7166 43.4876 97.4323ZM41.6053 94.0006C40.2179 95.1523 39.5521 97.2467 41.3343 99.6151C41.8763 97.4912 43.4081 96.6281 41.6053 94.0006ZM40.0853 90.395C41.6112 93.1905 40.0028 93.8945 39.2458 95.9536C37.714 93.4173 38.5889 91.4025 40.0853 90.395ZM38.9365 86.6569C37.3458 87.5053 36.2706 89.423 37.5343 92.1006C38.4976 90.1299 40.1707 89.5909 38.9365 86.6569ZM38.1736 82.8187C39.1044 85.8646 37.3871 86.2298 36.2265 88.0915C35.2396 85.299 36.5063 83.5021 38.1736 82.8187ZM37.8083 78.9245C36.0792 79.4312 34.6358 81.0925 35.3369 83.9734C36.6771 82.2384 38.4269 82.0499 37.8083 78.9245ZM37.8378 75.0126C38.1323 78.1851 36.3767 78.194 34.8655 79.7817C34.462 76.8478 36.0674 75.3425 37.8378 75.0126ZM38.2649 71.1243C36.471 71.2745 34.7242 72.606 34.8243 75.5693C36.4886 74.1407 38.2384 74.3086 38.2649 71.1243ZM39.0867 67.3008C38.7362 70.4674 37.013 70.1198 35.2102 71.3717C35.4105 68.4142 37.284 67.2654 39.0867 67.3008ZM40.2915 63.5804C38.5035 63.3624 36.521 64.3138 36.0232 67.236C37.9409 66.1726 39.6199 66.694 40.2915 63.5804ZM41.8704 60.0013C40.1118 59.6037 38.0469 60.3519 37.2545 63.2033C39.2694 62.3432 40.8895 63.0295 41.8704 60.0013ZM43.8028 56.5991C42.0943 56.0246 39.9616 56.5578 38.8805 59.315C40.9749 58.664 42.5155 59.5123 43.8028 56.5991ZM46.0739 53.4118C44.498 56.1808 43.0516 55.1822 40.9013 55.6152C42.2534 52.9817 44.4332 52.6665 46.0739 53.4118ZM48.6543 50.472C47.0961 49.5647 44.9015 49.6531 43.2873 52.1393C45.4701 51.9242 46.8074 53.0672 48.6543 50.472ZM51.5205 47.812C49.4173 50.201 48.2037 48.9314 46.0121 48.9226C47.8708 46.6161 50.0653 46.7486 51.5205 47.812ZM54.643 45.4525C53.3027 44.2477 51.1346 43.8943 49.0491 45.9975C51.2289 46.2273 52.31 47.6147 54.643 45.4525ZM57.9893 43.4259C55.4442 45.3435 54.5133 43.8501 52.3689 43.3994C54.6577 41.5171 56.7786 42.0915 57.9893 43.4259ZM61.5241 41.7498C60.4548 40.2976 58.4017 39.5111 55.9332 41.1518C58.0246 41.8205 58.7964 43.3964 61.5241 41.7498ZM65.2092 40.439C62.3283 41.8028 61.7215 40.1532 59.7096 39.2784C62.3312 37.8968 64.2931 38.8895 65.2092 40.439ZM69.0091 39.5111C68.255 37.8733 66.4051 36.6891 63.6538 37.7967C65.5656 38.8718 66.0045 40.5745 69.0091 39.5111ZM72.8827 38.972C69.7897 39.7261 69.5246 37.9881 67.7336 36.7215C70.5792 35.8996 72.2995 37.2664 72.8827 38.972ZM76.7946 38.8335C76.3881 37.0779 74.8151 35.5432 71.8988 36.0705C73.5543 37.5109 73.6397 39.2666 76.7946 38.8335ZM80.6976 39.0898C77.5133 39.2018 77.6076 37.4461 76.1082 35.8466C79.0628 35.6139 80.4708 37.3018 80.6976 39.0898ZM84.5536 39.7438C84.5123 37.941 83.281 36.1206 80.3176 36.0499C81.6462 37.7967 81.3751 39.5317 84.5536 39.7438ZM88.3241 40.7865C85.1839 40.2504 85.6317 38.5508 84.4888 36.6802C87.4256 37.0514 88.4654 38.9897 88.3241 40.7865ZM91.9708 42.2064C92.2919 40.4331 91.4553 38.4005 88.5715 37.7319C89.52 39.7084 88.9014 41.3551 91.9708 42.2064ZM95.4526 43.9885C95.9534 42.2564 95.326 40.1503 92.5246 39.1929C93.2669 41.2579 92.4863 42.8309 95.4526 43.9885ZM98.7371 46.1153C95.9033 44.6631 96.8401 43.1726 96.3098 41.0458C99.0022 42.283 99.4087 44.4451 98.7371 46.1153ZM101.786 48.5632C102.625 46.9696 102.44 44.778 99.8888 43.2727C100.198 45.4437 99.1171 46.8282 101.786 48.5632ZM104.57 51.3115C102.089 49.3143 103.306 48.0447 103.217 45.8561C105.604 47.6117 105.565 49.8092 104.57 51.3115ZM107.062 54.325C108.207 52.9346 108.47 50.7518 106.272 48.7606C106.137 50.9463 104.796 52.0862 107.062 54.325ZM109.236 57.58C107.209 55.1233 108.658 54.1276 109.015 51.9625C110.994 54.1659 110.514 56.3104 109.236 57.58ZM111.065 61.0382C112.467 59.9071 113.165 57.8215 111.418 55.4267C110.844 57.5446 109.3 58.3841 111.065 61.0382ZM112.535 64.6644C111.047 61.8483 112.667 61.1649 113.454 59.1176C114.947 61.6745 114.043 63.6805 112.535 64.6644ZM113.628 68.4201C115.23 67.5953 116.332 65.6954 115.106 62.9971C114.114 64.9531 112.432 65.4656 113.628 68.4201ZM114.332 72.2672C113.445 69.2096 115.168 68.8679 116.355 67.0268C117.301 69.8341 116.011 71.6133 114.332 72.2672ZM114.641 76.1703C116.379 75.6872 117.843 74.0464 117.186 71.1567C115.819 72.8711 114.069 73.036 114.641 76.1703ZM114.555 80.0792C114.305 76.9037 116.061 76.9185 117.595 75.3543C117.955 78.2941 116.329 79.7758 114.555 80.0792ZM114.072 83.9616C115.869 83.8379 117.637 82.53 117.578 79.5696C115.893 80.9718 114.146 80.7773 114.072 83.9616ZM113.198 87.7734C113.595 84.6126 115.313 84.9838 117.133 83.7584C116.888 86.7129 115 87.8352 113.198 87.7734ZM111.937 91.4761C113.722 91.7206 115.716 90.7957 116.258 87.8824C114.326 88.9163 112.653 88.3743 111.937 91.4761ZM110.308 95.0345C112.06 95.4557 114.137 94.7399 114.971 91.8973C112.941 92.728 111.336 92.0181 110.308 95.0345ZM108.325 98.4044C110.025 99.0053 112.164 98.5016 113.283 95.7592C111.18 96.3807 109.651 95.5117 108.325 98.4044ZM106.01 101.559C107.627 98.8138 109.059 99.836 111.212 99.4324C109.819 102.045 107.639 102.328 106.01 101.559ZM103.385 104.461C104.929 105.392 107.126 105.333 108.776 102.873C106.59 103.056 105.274 101.895 103.385 104.461ZM100.481 107.079C102.62 104.72 103.815 106.01 106.004 106.048C104.113 108.328 101.921 108.161 100.481 107.079ZM97.3261 109.392C98.6487 110.617 100.814 111.003 102.926 108.929C100.749 108.667 99.6915 107.262 97.3261 109.392ZM93.9503 111.371C96.5219 109.492 97.4321 110.994 99.5707 111.477C97.2554 113.327 95.1404 112.723 93.9503 111.371ZM90.3919 112.997C93.1403 111.386 93.8914 112.977 95.9711 113.675C93.482 115.28 91.4406 114.464 90.3919 112.997Z" fill="white"/>
<path d="M32.4846 37.5744L35.3213 39.9339C35.5246 40.1018 35.6837 40.3021 35.7985 40.5289C35.9134 40.7587 35.9812 40.9973 36.0047 41.2447C36.0283 41.4922 36.0047 41.7396 35.937 41.99C35.8692 42.2374 35.7514 42.4643 35.5835 42.6675L35.1623 43.1742L37.3244 44.971L36.4908 45.9726L28.4844 39.3212L29.7392 37.813C29.9071 37.6097 30.1045 37.4507 30.3343 37.3358C30.5611 37.2209 30.7997 37.1502 31.0471 37.1296C31.2946 37.106 31.542 37.1296 31.7924 37.2062C32.0428 37.2798 32.2725 37.4035 32.4817 37.5773L32.4846 37.5744ZM34.9944 41.3331L31.1561 38.1459L30.3225 39.1474L34.1607 42.3376L34.9944 41.3331Z" fill="white"/>
<path d="M41.2691 38.0244L37.0567 33.055C36.8859 32.8547 36.7622 32.6308 36.6826 32.3863C36.6031 32.1389 36.5736 31.8944 36.5943 31.647C36.6149 31.3995 36.6797 31.1609 36.7916 30.9312C36.9036 30.7014 37.0656 30.4981 37.2718 30.3243L38.7682 29.0547L39.6107 30.0474L37.6223 31.7324L39.3072 33.7207L40.2999 32.8783L41.1424 33.871L40.1497 34.7134L42.6683 37.6827L44.6566 36.0007L45.4991 36.9934L44.0027 38.2601C43.7935 38.4368 43.5667 38.5635 43.3222 38.6371C43.0777 38.7107 42.8303 38.7343 42.5799 38.7107C42.3295 38.6872 42.0909 38.6165 41.8641 38.5016C41.6373 38.3867 41.4399 38.2277 41.2691 38.0273V38.0244Z" fill="white"/>
<path d="M51.1573 31.7415L50.5151 30.6428L49.9466 30.9756C49.7198 31.1082 49.4753 31.1936 49.219 31.2231C48.9598 31.2555 48.7124 31.2437 48.4738 31.1818C48.2352 31.1229 48.0113 31.0198 47.8022 30.8725C47.5901 30.7252 47.4192 30.5367 47.2837 30.3099L44.3145 25.2315L45.4515 24.5658L48.7242 30.1626L49.8494 29.5057L46.5738 23.9089L47.6991 23.252L52.9542 32.2364L51.8289 32.8933L51.1573 31.7445V31.7415Z" fill="white"/>
<path d="M53.8213 20.4422L55.0408 19.9857L56.4047 23.6501L57.6271 23.1935L56.2633 19.532L57.471 19.0813L61.1031 28.8345L59.8953 29.2852L58.0808 24.416L56.8583 24.8696L58.6729 29.7389L57.4533 30.1954L53.8184 20.4422H53.8213Z" fill="white"/>
<path d="M69.3804 25.0248C69.4334 25.3017 69.4305 25.5668 69.3716 25.8142C69.3127 26.0617 69.2155 26.2914 69.0741 26.4947C68.9327 26.7009 68.7559 26.8717 68.5379 27.0131C68.32 27.1516 68.0755 27.2458 67.8074 27.2959C67.5393 27.346 67.2801 27.346 67.0327 27.293C66.7853 27.24 66.5555 27.1427 66.3522 27.0014C66.146 26.86 65.9752 26.6862 65.8367 26.4711C65.6983 26.259 65.604 26.0145 65.551 25.7376L64.3344 19.2159C64.2844 18.9478 64.2844 18.6856 64.3344 18.4264C64.3875 18.1701 64.4817 17.9345 64.6231 17.7253C64.7616 17.5162 64.9383 17.3395 65.1504 17.1951C65.3625 17.0508 65.604 16.9565 65.8721 16.9064C66.1401 16.8564 66.4023 16.8593 66.6556 16.9182C66.909 16.9742 67.1387 17.0743 67.3449 17.2216C67.5511 17.366 67.7249 17.5486 67.8722 17.7695C68.0195 17.9905 68.1167 18.235 68.1668 18.503L69.3804 25.0218V25.0248ZM65.495 18.4058L66.9266 26.0764L68.208 25.8378L66.7764 18.1672L65.495 18.4058Z" fill="white"/>
<path d="M74.5372 14.992L74.5254 13.69L78.4196 13.6487L78.4343 14.9507L74.5401 14.992H74.5372ZM76.5962 26.4595L78.5581 26.4389L78.4461 16.0318L77.1412 16.0465L77.2413 25.1517L75.9393 25.1664L75.8392 16.0612L74.5519 16.076L74.6432 24.536C74.6462 24.7982 74.6992 25.0486 74.8052 25.2813C74.9083 25.514 75.0497 25.7202 75.2294 25.8999C75.4062 26.0796 75.6124 26.218 75.848 26.3182C76.0837 26.4183 76.3341 26.4684 76.5962 26.4625V26.4595Z" fill="white"/>
<path d="M97.0995 19.5224L96.3218 22.0262C96.2393 22.2884 96.1509 22.5241 96.0537 22.7391C95.9565 22.9541 95.8357 23.1309 95.6973 23.2723C95.5589 23.4107 95.3909 23.505 95.1995 23.5462C95.008 23.5875 94.7812 23.5698 94.519 23.4903C94.7724 23.5668 94.9638 23.6817 95.0964 23.829C95.2289 23.9792 95.3114 24.1501 95.3497 24.3445C95.3851 24.5419 95.3851 24.7569 95.3497 24.9955C95.3114 25.2341 95.2525 25.4786 95.1759 25.7319L94.0182 29.4641L92.787 29.0841L93.9476 25.3519C94.0565 25.0073 94.0801 24.695 94.03 24.4182C93.977 24.1413 93.8739 23.9792 93.7148 23.9292L93.0845 23.7348L91.5439 28.6983L90.3008 28.3124L93.3849 18.3706L94.628 18.7565L93.4704 22.4887L94.086 22.6802C94.2451 22.7273 94.4277 22.6507 94.6339 22.4504C94.8401 22.2472 94.9933 21.9762 95.1023 21.6315L95.874 19.1424L97.1053 19.5253L97.0995 19.5224Z" fill="white"/>
<path d="M105.111 23.0931L106.843 24.0092L101.994 33.1998L100.843 32.5929L105.084 24.5541L103.933 23.9444L99.6908 31.9832L98.5508 31.3823L102.492 23.912C102.616 23.6793 102.775 23.4819 102.975 23.3228C103.176 23.1638 103.394 23.0459 103.632 22.9664C103.874 22.8869 104.118 22.8574 104.374 22.878C104.631 22.8957 104.872 22.9664 105.108 23.0901L105.111 23.0931Z" fill="white"/>
<path d="M109.081 36.3923L109.847 35.376L109.32 34.9784C109.108 34.8193 108.94 34.6278 108.81 34.404C108.681 34.1771 108.598 33.9444 108.56 33.7029C108.521 33.4613 108.53 33.2139 108.586 32.9606C108.642 32.7102 108.748 32.4775 108.907 32.2683L112.448 27.567L113.5 28.3594L109.6 33.5379L110.639 34.3215L114.54 29.1429L115.579 29.9265L110.103 37.1994C109.95 37.4027 109.806 37.55 109.67 37.6413C109.535 37.7326 109.39 37.7856 109.243 37.7945C109.093 37.8062 108.943 37.7797 108.787 37.7179C108.63 37.656 108.463 37.5676 108.28 37.4557L106.186 35.8797L106.987 34.8163L109.078 36.3923H109.081Z" fill="white"/>
<path d="M116.985 43.2089C116.779 43.4004 116.555 43.5388 116.319 43.6213C116.08 43.7038 115.842 43.7333 115.606 43.7156C115.371 43.695 115.135 43.6302 114.905 43.5182C114.672 43.4063 114.466 43.2502 114.281 43.0528L112.961 41.6389L119.129 35.8889C119.33 35.7033 119.55 35.5648 119.789 35.4735C120.031 35.3822 120.278 35.338 120.531 35.3439C120.782 35.3498 121.026 35.4028 121.259 35.503C121.495 35.6061 121.704 35.7563 121.889 35.9537L123.236 37.4L122.284 38.2867L120.496 36.372L118.602 38.1394L119.489 39.0908C119.742 39.3619 119.86 39.677 119.845 40.0305C119.83 40.387 119.686 40.6874 119.415 40.9407L116.985 43.206V43.2089ZM115.68 42.6463L118.528 39.9922L117.642 39.0408L114.793 41.6948L115.68 42.6493V42.6463Z" fill="white"/>
<path d="M31.0389 112.376C37.1601 106.461 45.9353 115.542 39.8112 121.457C33.6783 127.384 24.9031 118.302 31.0389 112.376ZM37.5754 119.142C40.7627 116.061 36.4738 111.622 33.2865 114.703C30.0757 117.808 34.3646 122.247 37.5754 119.142Z" fill="white"/>
<path d="M53.9359 122.721C56.2188 123.858 58.0717 126.332 57.0289 129.487C56.0686 129.01 55.2202 128.583 54.2599 128.109C54.4219 126.795 53.8387 125.876 52.6575 125.287C51.0049 124.462 49.2994 125.166 48.3892 126.992C47.582 128.612 47.9473 130.565 49.6087 131.411C50.8046 132.006 52.0624 131.885 52.9491 130.854C53.8917 131.325 54.7607 131.756 55.7181 132.236C53.7562 135.149 50.675 135.146 48.3273 133.977C45.52 132.598 43.626 129.299 45.4759 125.543C47.3582 121.802 51.1316 121.328 53.933 122.721H53.9359Z" fill="white"/>
<path d="M63.1113 129.424C63.2616 128.488 63.4059 127.566 63.5532 126.647L72.5847 128.081C72.4374 129.003 72.2901 129.922 72.1428 130.862L69.1736 130.39L67.6831 139.77C66.6579 139.605 65.6358 139.443 64.6107 139.281L66.0983 129.902L63.1113 129.427V129.424Z" fill="white"/>
<path d="M79.5681 140.359C79.0467 136.294 78.5253 132.229 78.0039 128.147C79.7654 127.92 81.58 127.69 83.3739 127.457C89.2211 126.727 90.3847 135.797 84.5404 136.545L82.2899 136.833L82.6905 139.956C81.6448 140.088 80.5961 140.227 79.5681 140.357V140.359ZM83.7156 130.253C82.9792 130.329 82.1986 130.447 81.4828 130.539C81.6094 131.534 81.8039 133.034 81.9305 134.029L84.1634 133.743C85.8748 133.525 85.5331 130.041 83.7156 130.256V130.253Z" fill="white"/>
<path d="M95.2436 131.183C91.4908 123.545 102.823 117.977 106.576 125.616C110.337 133.271 99.0023 138.839 95.2436 131.183ZM103.689 127.035C101.733 123.059 96.1951 125.781 98.1481 129.757C100.119 133.766 105.66 131.044 103.689 127.035Z" fill="white"/>
<path d="M118.226 114.988C119.295 114.643 120.276 114.956 121.048 115.73C122.547 117.262 122.854 119.415 121.068 121.189L116.977 125.257L108.299 116.526L112.028 112.82C113.536 111.321 115.913 111.288 117.413 112.799C117.931 113.321 118.302 114.219 118.226 114.991V114.988ZM112.44 116.375L113.843 117.786L115.251 116.384C116.137 115.503 114.735 114.095 113.837 114.988L112.44 116.375ZM115.69 119.642L117.165 121.127L118.95 119.354C119.846 118.461 118.361 116.988 117.46 117.884L115.69 119.642Z" fill="white"/>
<path fill-rule="evenodd" clip-rule="evenodd" d="M127.213 77.2575C127.213 78.966 128.597 80.3475 130.306 80.3475C132.014 80.3475 133.399 78.9631 133.399 77.2575C133.399 75.5519 132.014 74.1645 130.306 74.1645C128.597 74.1645 127.213 75.549 127.213 77.2575Z" fill="white"/>
<path d="M89.5277 109.899L85.3683 73.9524H87.1417V70.1789H88.8855V60.1842H85.7572V62.0458H85.2564V54.5373H86.3404V51.4119H85.2564V49.6975L77.9835 45.3084V40.0503H74.8581V45.3437L67.5822 49.7004V51.4148H66.4982V54.5402H67.5822V62.0488H67.0815V60.1871H63.9561V70.1819H65.697V73.9553H67.4762L63.5938 109.902C76.9319 115.18 89.6308 109.902 89.5247 109.902L89.5277 109.899ZM76.49 48.0538L82.0515 51.4119H70.7901L76.4046 48.0538H76.49ZM78.1101 60.1842V62.0458H74.7314V60.1842H71.606V62.0458H70.7076V54.5373H82.131V62.0458H81.2355V60.1842H78.1101ZM85.7601 64.2846V69.7989H67.0815V64.2846H85.7601ZM82.2282 73.9553L82.3902 75.5047H79.2501V78.6301H82.7172L82.9558 80.9101H79.2501V84.0384H83.2828L83.5214 86.3213H79.2501V89.4467H83.8484L84.087 91.7296H79.2501V94.855H84.4139L84.6525 97.1379H79.2501V100.263H84.9795L85.2152 102.546H79.2472V105.672H85.5421L85.7336 108.273C85.7336 108.273 75.2999 111.289 67.0962 107.902L70.6133 73.9612H82.2253L82.2282 73.9553Z" fill="white"/>
<path d="M90.6953 92.4423L90.6983 92.4483L90.7467 92.4725V92.4695L90.6983 92.4483L90.6953 92.4423Z" fill="white"/>
<path d="M90.7467 86.5576V86.5546L90.7074 86.5365L90.6953 86.5304L90.6983 86.5334L90.7467 86.5576Z" fill="white"/>
<path d="M90.6982 86.5333L90.6953 86.5304L90.707 86.5363L90.6982 86.5333Z" fill="white"/>
<path d="M62.1912 99.3949C62.0145 99.3154 61.8613 99.2712 61.6316 99.2683C61.393 99.2624 61.2221 99.3066 61.0306 99.392C59.8848 99.9104 58.8479 100.37 57.8846 100.756C56.9155 101.148 55.9876 101.483 55.0568 101.76L53.5957 102.193C54.6149 103.018 55.6783 103.787 56.7859 104.494C57.6578 104.205 58.5032 103.881 59.3339 103.54C60.1381 103.21 60.8863 102.88 61.6139 102.553C62.1264 102.782 62.6213 103 63.0985 103.207L63.4491 99.9517C63.0426 99.769 62.6272 99.5864 62.1942 99.392L62.1912 99.3949Z" fill="white"/>
<path d="M62.1909 93.4529C62.0171 93.3734 61.8639 93.3321 61.6401 93.3262H61.6312C61.4015 93.3233 61.2277 93.3645 61.0362 93.45H61.0303C58.9624 94.3867 57.2186 95.1408 55.5277 95.6769C53.8516 96.2071 52.1608 96.5577 50.14 96.702L48.2695 96.8375C49.0973 97.8714 49.981 98.8583 50.9177 99.792H50.9236C51.9281 99.6978 52.8619 99.5593 53.7603 99.3738C54.6558 99.1911 55.5218 98.9584 56.3879 98.6815C57.304 98.3899 58.2201 98.0482 59.1774 97.6564C60.014 97.3147 60.8035 96.9701 61.6076 96.6107C62.3441 96.9406 63.0393 97.244 63.705 97.5239L64.0555 94.2806C63.4575 94.0214 62.839 93.7475 62.188 93.4529H62.1909Z" fill="white"/>
<path d="M62.1918 87.5371C62.0209 87.4575 61.8648 87.4163 61.635 87.4134H61.6321C61.3994 87.4104 61.2256 87.4487 61.0312 87.5371C58.8248 88.5357 56.9897 89.3251 55.1427 89.8789C53.3193 90.4268 51.4635 90.7538 49.1865 90.8422C48.6209 90.8657 48.0671 90.8746 47.5222 90.8716C47.0155 90.8657 46.4824 90.851 45.9286 90.8156L44.3379 90.7214C44.9064 91.8437 45.5309 92.9307 46.2114 93.9734L46.3351 93.9793C46.5589 93.9882 46.8123 93.994 47.0921 93.9999C47.3307 94.0029 47.5841 94.0058 47.8374 94.0058C49.3191 94.0058 50.6417 93.9263 51.873 93.7702C53.122 93.6111 54.2708 93.3755 55.3872 93.0691C56.5125 92.7569 57.5817 92.3857 58.6775 91.9527C59.5966 91.5904 60.5628 91.1691 61.6144 90.6978C62.5776 91.1308 63.4731 91.5197 64.3245 91.8614L64.675 88.627C63.8914 88.2971 63.0725 87.9347 62.1977 87.5371H62.1918Z" fill="white"/>
<path d="M62.1926 81.5926C62.0188 81.516 61.8627 81.4718 61.6418 81.466H61.6329C61.4002 81.463 61.2235 81.5042 61.032 81.5926C58.8257 82.5912 56.9905 83.3777 55.1435 83.9344C53.3202 84.4823 51.4644 84.8093 49.1873 84.9006C48.0974 84.9419 46.9898 84.936 45.8793 84.8682C44.7983 84.8034 43.7172 84.6738 42.6567 84.4647L41.8496 84.3056C42.1736 85.4692 42.5566 86.6062 42.9896 87.7167C43.7437 87.8375 44.5007 87.9229 45.2607 87.9759C46.0855 88.0378 46.9486 88.0643 47.8353 88.0643C49.317 88.0643 50.6396 87.9848 51.8709 87.8287C53.1198 87.6696 54.2687 87.4339 55.3851 87.1246C56.5103 86.8153 57.5796 86.4412 58.6754 86.0082V86.0023C59.6505 85.6164 60.6049 85.204 61.6123 84.7504C62.661 85.2217 63.6301 85.643 64.5462 86.0053C64.6758 86.0583 64.8084 86.1025 64.9409 86.1526L65.2885 82.9359C64.3194 82.5411 63.3031 82.0934 62.1955 81.5926H62.1926Z" fill="white"/>
<path d="M90.7487 86.5543L90.707 86.5364L90.7458 86.5543H90.7487Z" fill="white"/>
<path d="M90.7871 99.5613C90.9638 99.4817 91.117 99.4405 91.3468 99.4346C91.5824 99.4317 91.7562 99.47 91.9477 99.5583C93.0936 100.077 94.1305 100.536 95.0937 100.925C96.0658 101.317 96.9907 101.65 97.9216 101.927L99.3827 102.363C98.3664 103.187 97.3 103.956 96.1925 104.663C95.3235 104.372 94.4751 104.051 93.6444 103.706C92.8432 103.376 92.095 103.046 91.3674 102.719C90.8549 102.949 90.36 103.167 89.8828 103.373L89.5293 100.118C89.9358 99.9383 90.3511 99.7528 90.7871 99.5583V99.5613Z" fill="white"/>
<path d="M90.7865 93.6171C90.9603 93.5376 91.1135 93.4964 91.3374 93.4934H91.3462C91.573 93.4875 91.7468 93.5288 91.9413 93.6171H91.9471C94.015 94.5539 95.7559 95.305 97.4497 95.8441C99.1258 96.3773 100.82 96.7249 102.837 96.8692L104.708 97.0047C103.883 98.0386 102.996 99.0255 102.06 99.9592H102.051C101.046 99.865 100.113 99.7265 99.2171 99.5439C98.3216 99.3613 97.4585 99.1285 96.5896 98.8517C95.6705 98.56 94.7544 98.2183 93.8 97.8266C92.9605 97.4849 92.171 97.1402 91.3698 96.7808C90.6334 97.1137 89.9352 97.4171 89.2666 97.6969L88.916 94.4508C89.514 94.1945 90.1326 93.9176 90.7865 93.623V93.6171Z" fill="white"/>
<path d="M90.787 87.7028C90.9578 87.6262 91.1139 87.582 91.3407 87.5761H91.3466C91.5793 87.5732 91.7531 87.6144 91.9476 87.6998C94.1539 88.6984 95.9891 89.4879 97.836 90.0417C99.6594 90.5896 101.518 90.9165 103.795 91.0049C104.355 91.0255 104.915 91.0344 105.457 91.0314C105.963 91.0255 106.496 91.0108 107.05 90.9784L108.641 90.8871C108.072 92.0065 107.448 93.0934 106.77 94.1391L106.647 94.145C106.423 94.1539 106.169 94.1598 105.89 94.1656C105.648 94.1686 105.398 94.1715 105.141 94.1715C103.657 94.1715 102.337 94.092 101.106 93.9359C99.8568 93.7768 98.7109 93.5412 97.5915 93.2348C96.4663 92.9226 95.394 92.5514 94.3012 92.1184C93.3821 91.7561 92.4159 91.3348 91.3643 90.8635C90.3981 91.2965 89.5056 91.6854 88.6513 92.0271L88.3008 88.7927C89.0843 88.4628 89.9032 88.1005 90.7811 87.7028H90.787Z" fill="white"/>
<path d="M90.7873 81.7607C90.9582 81.6812 91.1172 81.6399 91.3382 81.634H91.347C91.5797 81.6311 91.7535 81.6723 91.9479 81.7578C94.1543 82.7563 95.9924 83.5458 97.8364 84.0996C99.6598 84.6475 101.519 84.9745 103.796 85.0658C104.882 85.107 105.993 85.1011 107.101 85.0363C108.185 84.9686 109.263 84.8419 110.326 84.6328L111.133 84.4737C110.809 85.6372 110.429 86.7743 109.99 87.8819C109.236 88.0026 108.482 88.0881 107.719 88.144C106.894 88.2059 106.031 88.2324 105.145 88.2324C103.66 88.2324 102.34 88.1529 101.109 87.9967C99.8601 87.8377 98.7142 87.602 97.5948 87.2927C96.4696 86.9834 95.3973 86.6093 94.3045 86.1763V86.1704C93.3295 85.7845 92.3751 85.3721 91.3676 84.9185C90.319 85.3898 89.3498 85.811 88.4308 86.1734C88.3012 86.2234 88.1686 86.2676 88.039 86.3206L87.6914 83.101C88.6605 82.7092 89.6768 82.2585 90.7844 81.7578L90.7873 81.7607Z" fill="white"/>
<path fill-rule="evenodd" clip-rule="evenodd" d="M17.7559 77.2575C17.7559 78.966 19.1403 80.3475 20.8488 80.3475C22.5573 80.3475 23.9389 78.9631 23.9389 77.2575C23.9389 75.5519 22.5544 74.1645 20.8488 74.1645C19.1433 74.1645 17.7559 75.549 17.7559 77.2575Z" fill="white"/>
</svg>
