<svg width="523" height="158" viewBox="0 0 523 158" fill="none" xmlns="http://www.w3.org/2000/svg">
<path d="M0.410156 44.0266C0.410156 19.7466 19.9802 0.0566406 46.0802 0.0566406C72.1802 0.0566406 91.5002 19.5066 91.5002 44.0266C91.5002 68.5466 71.9302 88.0066 45.8402 88.0066C19.7502 88.0066 0.420158 68.5566 0.420158 44.0266M67.5902 44.0266C67.5902 31.8266 58.7702 21.1966 45.8402 21.1966C32.9102 21.1966 24.4602 31.5866 24.4602 44.0266C24.4602 56.4666 33.2802 66.8566 46.0802 66.8566C58.8802 66.8566 67.5802 56.4666 67.5802 44.0266" fill="white"/>
<path d="M99.7578 44.0266C99.7578 19.3866 118.728 0.0566406 144.338 0.0566406C161.608 0.0566406 172.368 7.54665 179.858 17.9366L162.698 31.2266C157.868 25.1866 152.188 21.4466 144.098 21.4466C132.258 21.4466 123.918 31.4766 123.918 44.0366C123.918 56.5966 132.258 66.6266 144.098 66.6266C152.918 66.6266 158.118 62.5166 163.188 56.3566L180.828 68.9266C172.858 79.9166 162.108 88.0166 143.378 88.0166C119.218 88.0166 99.7678 69.5366 99.7678 44.0366" fill="white"/>
<path d="M211.651 22.2866H186.281V1.74658H260.461V22.2866H235.091V86.3066H211.651V22.2866Z" fill="white"/>
<path d="M269.688 1.74658H305.927C327.307 1.74658 341.087 12.7366 341.087 31.7066C341.087 51.6366 325.747 62.1466 304.717 62.1466H293.128V86.3066H269.688V1.74658ZM304.237 43.7866C312.577 43.7866 317.647 39.4366 317.647 32.5466C317.647 25.2966 312.577 21.4366 304.117 21.4366H293.117V43.7866H304.228H304.237Z" fill="white"/>
<path d="M346.859 44.0266C346.859 19.7466 366.429 0.0566406 392.529 0.0566406C418.629 0.0566406 437.949 19.5066 437.949 44.0266C437.949 68.5466 418.379 88.0066 392.279 88.0066C366.179 88.0066 346.859 68.5566 346.859 44.0266ZM414.029 44.0266C414.029 31.8266 405.209 21.1966 392.289 21.1966C379.369 21.1966 370.909 31.5866 370.909 44.0266C370.909 56.4666 379.729 66.8566 392.529 66.8566C405.329 66.8566 414.029 56.4666 414.029 44.0266Z" fill="white"/>
<path d="M446.561 1.74658H489.931C500.561 1.74658 508.051 4.40658 513.001 9.35658C516.381 12.7366 518.441 17.2066 518.441 23.2466C518.441 33.0266 512.881 38.8266 505.391 42.0966C515.661 45.4766 522.181 51.2766 522.181 62.9966C522.181 77.4966 510.341 86.3166 490.161 86.3166H446.551V1.74658H446.561ZM484.141 35.4466C491.271 35.4466 495.251 33.0266 495.251 27.8366C495.251 23.2466 491.631 20.5866 484.621 20.5866H469.401V35.4466H484.141ZM487.521 67.4666C494.651 67.4666 498.751 64.6866 498.751 59.4866C498.751 54.8966 495.131 51.8766 487.271 51.8766H469.391V67.4666H487.511H487.521Z" fill="white"/>
<path d="M74.7305 131.977C74.7305 135.417 77.5205 138.207 80.9605 138.207C84.4005 138.207 87.1905 135.417 87.1905 131.977C87.1905 128.537 84.4005 125.747 80.9605 125.747C77.5205 125.747 74.7305 128.537 74.7305 131.977Z" fill="white"/>
<path d="M435.422 131.977C435.422 135.417 438.212 138.207 441.652 138.207C445.092 138.207 447.872 135.417 447.872 131.977C447.872 128.537 445.082 125.747 441.652 125.747C438.222 125.747 435.422 128.537 435.422 131.977Z" fill="white"/>
<path d="M117.731 116.827V134.607C117.731 135.877 117.481 137.077 116.991 138.207C116.501 139.337 115.831 140.327 114.981 141.167C114.131 142.017 113.141 142.697 112.021 143.217C110.891 143.737 109.691 143.997 108.421 143.997H105.241V157.547H98.9609V107.367H108.421C109.691 107.367 110.891 107.617 112.021 108.107C113.151 108.597 114.141 109.267 114.981 110.117C115.831 110.967 116.501 111.967 116.991 113.117C117.481 114.267 117.731 115.507 117.731 116.827ZM111.521 113.647H105.241V137.717H111.521V113.647Z" fill="white"/>
<path d="M130.57 148.167V116.757C130.57 115.487 130.8 114.277 131.28 113.117C131.75 111.967 132.41 110.967 133.26 110.117C134.11 109.267 135.09 108.597 136.22 108.107C137.35 107.617 138.57 107.367 139.89 107.367H149.35V113.647H136.79V126.207H143.07V132.487H136.79V151.257H149.35V157.537H139.89C138.57 157.537 137.35 157.287 136.22 156.797C135.09 156.307 134.1 155.617 133.26 154.747C132.41 153.877 131.75 152.877 131.28 151.747C130.81 150.617 130.57 149.417 130.57 148.147" fill="white"/>
<path d="M174.679 151.127V144.987H171.499C170.229 144.987 169.019 144.737 167.869 144.247C166.719 143.757 165.719 143.097 164.869 142.267C164.019 141.447 163.339 140.467 162.819 139.337C162.299 138.207 162.039 137.007 162.039 135.737V107.367H168.389V138.627H174.669V107.367H180.949V157.547H174.669V151.127H174.679Z" fill="white"/>
<path d="M193.73 107.376H200.01V126.216H206.3V107.376H212.51V157.546H206.3V132.496H200.01V157.546H193.73V107.376Z" fill="white"/>
<path d="M244.12 148.446C244.12 149.806 243.87 151.056 243.38 152.186C242.89 153.316 242.22 154.306 241.37 155.146C240.52 155.996 239.52 156.656 238.37 157.126C237.22 157.596 235.98 157.826 234.66 157.826C233.34 157.826 232.12 157.586 230.99 157.126C229.86 156.656 228.87 155.996 228.03 155.146C227.18 154.296 226.52 153.306 226.05 152.186C225.58 151.056 225.34 149.806 225.34 148.446V116.476C225.34 115.156 225.57 113.916 226.05 112.736C226.52 111.556 227.18 110.536 228.03 109.666C228.88 108.796 229.86 108.116 230.99 107.616C232.12 107.126 233.34 106.876 234.66 106.876C235.98 106.876 237.21 107.126 238.37 107.616C239.52 108.106 240.52 108.796 241.37 109.666C242.22 110.536 242.89 111.556 243.38 112.736C243.87 113.916 244.12 115.156 244.12 116.476V148.446ZM231.56 151.266H237.84V113.646H231.56V151.266Z" fill="white"/>
<path d="M256.969 95.8667H275.739V102.147H256.969V95.8667ZM266.279 157.547H275.739V107.367H269.459V151.267H263.179V107.367H256.969V148.157C256.969 149.427 257.219 150.627 257.709 151.757C258.199 152.887 258.869 153.887 259.719 154.757C260.569 155.627 261.549 156.307 262.679 156.807C263.809 157.297 265.009 157.547 266.279 157.547Z" fill="white"/>
<path d="M329.44 107.377V120.007C329.44 121.327 329.37 122.547 329.23 123.677C329.09 124.807 328.8 125.797 328.35 126.637C327.9 127.487 327.27 128.147 326.45 128.617C325.62 129.087 324.55 129.327 323.24 129.327C324.51 129.327 325.56 129.577 326.38 130.067C327.2 130.557 327.84 131.237 328.28 132.077C328.73 132.927 329.03 133.927 329.2 135.077C329.36 136.227 329.45 137.437 329.45 138.707V157.547H323.24V138.707C323.24 136.967 322.92 135.497 322.29 134.297C321.65 133.097 320.94 132.497 320.14 132.497H316.96V157.547H310.68V107.367H316.96V126.207H320.07C320.87 126.207 321.6 125.597 322.26 124.367C322.92 123.147 323.25 121.667 323.25 119.927V107.367H329.46L329.44 107.377Z" fill="white"/>
<path d="M351.599 107.447H361.059V157.557H354.779V113.727H348.499V157.557H342.289V116.837C342.289 115.567 342.539 114.367 343.029 113.237C343.519 112.107 344.199 111.107 345.039 110.237C345.879 109.367 346.869 108.687 347.999 108.187C349.129 107.687 350.329 107.447 351.599 107.447Z" fill="white"/>
<path d="M386.468 151.127V144.987H383.298C382.028 144.987 380.818 144.737 379.658 144.247C378.508 143.757 377.508 143.097 376.658 142.267C375.808 141.447 375.128 140.467 374.608 139.337C374.088 138.207 373.828 137.007 373.828 135.737V107.367H380.178V138.627H386.458V107.367H392.738V151.267C392.738 152.487 392.608 153.477 392.348 154.227C392.088 154.977 391.688 155.597 391.148 156.057C390.608 156.527 389.948 156.867 389.178 157.077C388.398 157.287 387.498 157.447 386.458 157.537H373.828V151.117H386.458L386.468 151.127Z" fill="white"/>
<path d="M424.51 148.516C424.51 149.886 424.26 151.116 423.77 152.216C423.28 153.326 422.61 154.266 421.76 155.036C420.91 155.816 419.91 156.426 418.76 156.866C417.61 157.316 416.37 157.536 415.05 157.536H405.73V116.886C405.73 115.566 405.97 114.336 406.44 113.176C406.91 112.026 407.57 111.016 408.41 110.146C409.26 109.276 410.25 108.596 411.37 108.096C412.5 107.606 413.72 107.356 415.04 107.356H424.57V113.636H411.94V126.126H418.22C420.01 126.126 421.5 126.736 422.7 127.956C423.9 129.186 424.5 130.686 424.5 132.476V148.496L424.51 148.516ZM418.23 132.496H411.95V151.266H418.23V132.496Z" fill="white"/>
</svg>
