<svg width="75" height="76" viewBox="0 0 75 76" fill="none" xmlns="http://www.w3.org/2000/svg">
<g clip-path="url(#clip0_964_1405)">
<path fill-rule="evenodd" clip-rule="evenodd" d="M9.19141 37.9435C9.19141 38.7834 9.87273 39.4632 10.7141 39.4632C11.5539 39.4632 12.2352 38.7834 12.2352 37.9435C12.2352 37.1037 11.5539 36.4224 10.7141 36.4224C9.87273 36.4224 9.19141 37.1037 9.19141 37.9435Z" fill="#002D59"/>
<path fill-rule="evenodd" clip-rule="evenodd" d="M62.6484 37.9438C62.6484 38.7836 63.3298 39.4634 64.1696 39.4634C65.011 39.4634 65.6923 38.7836 65.6923 37.9438C65.6923 37.1039 65.011 36.4226 64.1696 36.4226C63.3282 36.4226 62.6484 37.1039 62.6484 37.9438Z" fill="#002D59"/>
<path fill-rule="evenodd" clip-rule="evenodd" d="M46.9712 71.4316C47.7806 72.8476 49.5441 73.7698 51.9355 72.555C50.1263 71.7365 49.5959 70.2366 46.9712 71.4316ZM43.807 72.1693C46.5307 71.2243 46.9194 72.7668 48.6433 73.7499C46.1497 74.7376 44.4807 73.6554 43.807 72.1693ZM40.6656 72.6022C41.2021 74.1417 42.7644 75.3717 45.3388 74.6172C43.7109 73.4802 43.464 71.9087 40.6656 72.6022ZM37.4724 72.747C40.3242 72.3126 40.4247 73.9008 41.9398 75.1796C39.309 75.6979 37.8641 74.3307 37.4724 72.747ZM33.9362 72.5641C34.1648 74.1782 35.4619 75.6872 38.1339 75.4403C36.7545 74.0121 36.8154 72.4224 33.9362 72.5641ZM30.4351 72.0245C33.3143 72.1754 33.0918 73.7499 34.3188 75.3123C31.6362 75.2863 30.4991 73.6539 30.4351 72.0245ZM27.0087 71.1314C26.9066 72.7592 27.8714 74.4983 30.5372 74.7971C29.4764 73.1189 29.8574 71.5734 27.0087 71.1314ZM23.689 69.8952C23.4222 71.5033 24.2057 73.3323 26.8288 73.8993C25.9433 72.1221 26.4798 70.6253 23.689 69.8952ZM20.5141 68.3283C20.0842 69.8998 20.6787 71.799 23.2287 72.6297C22.5291 70.7732 23.215 69.3389 20.5141 68.3283ZM17.5144 66.4475C20.098 67.7263 19.2688 69.0828 19.7764 71.0033C17.3254 69.9166 16.9276 67.9686 17.5144 66.4475ZM14.7206 64.2709C13.9813 65.7235 14.1795 67.7034 16.5085 69.031C16.2006 67.0709 17.1623 65.8043 14.7206 64.2709ZM12.1645 61.8215C14.4355 63.5957 13.3518 64.7587 13.4585 66.7401C11.2759 65.1809 11.2804 63.1918 12.1645 61.8215ZM9.86903 59.1252C8.85238 60.3994 8.64357 62.3779 10.657 64.1505C10.75 62.1675 11.948 61.1204 9.86903 59.1252ZM7.86013 56.2094C9.72728 58.4073 8.42865 59.3264 8.13296 61.288C6.31001 59.3218 6.7185 57.3739 7.86013 56.2094ZM6.15759 53.1061C4.90317 54.1487 4.29959 56.0433 5.91219 58.1848C6.40604 56.2627 7.79154 55.4808 6.15759 53.1061ZM4.78123 49.8458C6.16521 52.3745 4.70807 53.0116 4.02066 54.8742C2.63363 52.5787 3.42622 50.7543 4.78123 49.8458ZM3.74173 46.4621C2.30288 47.2288 1.32739 48.9633 2.47511 51.3883C3.34543 49.6035 4.86049 49.1173 3.74173 46.4621ZM3.05279 42.99C3.89567 45.7457 2.33946 46.0765 1.29081 47.7607C0.397623 45.2336 1.54382 43.6058 3.05279 42.99ZM2.72051 39.466C1.15515 39.9263 -0.149566 41.4277 0.482978 44.034C1.69777 42.4626 3.27837 42.2934 2.72051 39.466ZM2.74795 35.9268C3.01621 38.7969 1.42494 38.8045 0.0562013 40.2434C-0.306559 37.5867 1.14448 36.2256 2.74795 35.9268ZM3.13509 32.4074C1.51029 32.5431 -0.0718318 33.7502 0.0196204 36.4283C1.52553 35.1373 3.10918 35.2897 3.13509 32.4074ZM3.87891 28.9475C3.56035 31.8115 2.00109 31.499 0.370187 32.63C0.550043 29.9565 2.24801 28.9155 3.87891 28.9475ZM4.97024 25.5805C3.35001 25.3839 1.55754 26.2451 1.10485 28.888C2.84092 27.9263 4.36208 28.3972 4.97024 25.5805ZM6.39689 22.3416C4.80715 21.9819 2.9339 22.6571 2.216 25.2391C4.042 24.4602 5.50676 25.0821 6.39689 22.3416ZM8.1482 19.2642C6.60113 18.7444 4.67149 19.2261 3.69295 21.7227C5.58906 21.1329 6.98218 21.8996 8.1482 19.2642ZM10.2013 16.3804C8.77465 18.8847 7.46536 17.9793 5.51895 18.3725C6.74593 15.9887 8.71673 15.7052 10.2013 16.3804ZM12.5379 13.7207C11.128 12.8976 9.14046 12.9814 7.67875 15.2266C9.65411 15.033 10.8643 16.0664 12.5379 13.7207ZM15.1336 11.3109C13.2284 13.4753 12.1309 12.323 10.1464 12.3169C11.8292 10.2302 13.8152 10.3507 15.1336 11.3109ZM17.9595 9.17854C16.7462 8.08874 14.7815 7.76713 12.8946 9.67238C14.8684 9.8812 15.8454 11.1371 17.9595 9.17854ZM20.9881 7.34492C18.685 9.07947 17.8421 7.72902 15.8988 7.32206C17.9702 5.61648 19.8922 6.13623 20.9881 7.34492ZM24.1874 5.82682C23.218 4.51448 21.3615 3.80267 19.127 5.28572C21.0201 5.88931 21.7212 7.31749 24.1874 5.82682ZM27.5254 4.64099C24.919 5.87407 24.3673 4.38339 22.5474 3.59081C24.919 2.33944 26.6962 3.23719 27.5254 4.64099ZM30.9671 3.80267C30.2842 2.32267 28.6076 1.24811 26.1201 2.25103C27.8501 3.22348 28.2479 4.76445 30.9671 3.80267ZM34.4743 3.31645C31.6728 3.99777 31.4335 2.42479 29.8117 1.28164C32.3876 0.534779 33.9469 1.77396 34.4743 3.31645ZM38.0135 3.18842C37.6446 1.6002 36.221 0.211647 33.5811 0.690248C35.0794 1.99344 35.1571 3.58166 38.0135 3.18842ZM41.5481 3.42162C38.6658 3.52222 38.7496 1.934 37.3931 0.486004C40.0666 0.278712 41.3423 1.80444 41.5481 3.42162ZM45.04 4.01301C45.0004 2.38211 43.8877 0.734449 41.2051 0.670433C42.4077 2.24798 42.1623 3.82096 45.04 4.01301ZM48.4543 4.9565C45.6116 4.4718 46.0155 2.93388 44.9791 1.24049C47.6403 1.57733 48.5792 3.33017 48.4543 4.9565ZM51.7542 6.23988C52.0453 4.63641 51.2878 2.79517 48.6753 2.19006C49.5334 3.981 48.9755 5.47015 51.7542 6.23988ZM54.9077 7.85401C55.3604 6.28713 54.7934 4.38035 52.2556 3.51307C52.9278 5.38022 52.2206 6.80536 54.9077 7.85401ZM57.8784 9.77755C55.3116 8.46217 56.1606 7.11629 55.682 5.1897C58.1177 6.31151 58.4881 8.26554 57.8784 9.77755ZM60.6403 11.9953C61.4008 10.5518 61.2317 8.57038 58.921 7.20775C59.2014 9.17245 58.2214 10.4253 60.6403 11.9953ZM63.1613 14.4812C60.9146 12.6735 62.0181 11.5273 61.9389 9.54435C64.0987 11.1341 64.0636 13.1232 63.1613 14.4812ZM65.4171 17.2096C66.4536 15.9506 66.6898 13.9752 64.7038 12.1751C64.5803 14.1551 63.3655 15.1839 65.4171 17.2096ZM67.3833 20.1528C65.5497 17.929 66.8605 17.0297 67.1852 15.0711C68.9777 17.0648 68.5417 19.0051 67.3833 20.1528ZM69.0402 23.282C70.3098 22.2593 70.9393 20.3723 69.3587 18.2064C68.839 20.1208 67.4413 20.8829 69.0402 23.282ZM70.3693 26.5621C69.0234 24.0136 70.4897 23.3963 71.203 21.5444C72.5565 23.8597 71.738 25.672 70.3693 26.5621ZM71.36 29.9611C72.811 29.2142 73.8109 27.4949 72.6998 25.0547C71.8005 26.8243 70.2793 27.2891 71.36 29.9611ZM71.9971 33.4424C71.1954 30.6744 72.7562 30.3665 73.8292 28.6975C74.6858 31.2384 73.5183 32.8479 71.9971 33.4424ZM72.2791 36.9709C73.8521 36.5334 75.1781 35.0504 74.5852 32.4364C73.346 33.988 71.7624 34.1359 72.2791 36.9709ZM72.1998 40.5086C71.9743 37.6354 73.564 37.6492 74.9541 36.2316C75.2803 38.8929 73.8079 40.2342 72.1998 40.5086ZM71.7624 44.0219C73.3902 43.9106 74.9891 42.7278 74.9358 40.0467C73.4116 41.3164 71.8295 41.1396 71.7624 44.0219ZM70.9698 47.4711C71.328 44.6117 72.8842 44.947 74.5303 43.839C74.3109 46.5109 72.5992 47.526 70.9698 47.4711ZM69.8297 50.8213C71.4469 51.0423 73.2515 50.2056 73.7423 47.5702C71.991 48.5061 70.479 48.0137 69.8297 50.8213ZM68.3543 54.0405C69.9394 54.4246 71.8203 53.7768 72.5763 51.2039C70.7412 51.9553 69.284 51.3121 68.3543 54.0405ZM66.5603 57.0919C68.0982 57.6345 70.0355 57.1803 71.0506 54.6974C69.1453 55.2598 67.7629 54.4718 66.5603 57.0919ZM64.4645 59.9452C65.9293 57.4623 67.2233 58.386 69.1743 58.0217C67.9138 60.3872 65.9399 60.6403 64.4645 59.9452ZM62.0898 62.5699C63.4875 63.4128 65.4766 63.3594 66.9718 61.1341C64.9919 61.3002 63.7984 60.2501 62.0898 62.5699ZM59.459 64.9431C61.3947 62.8062 62.4769 63.9722 64.463 64.0088C62.7482 66.071 60.7637 65.9216 59.459 64.9431ZM56.6011 67.0343C57.8007 68.1409 59.7593 68.4914 61.6737 66.6136C59.7029 66.3774 58.7442 65.1047 56.6011 67.0343ZM53.5466 68.8252C55.8756 67.1242 56.6987 68.4853 58.6359 68.9213C56.5402 70.5948 54.6273 70.0477 53.5466 68.8252ZM50.3275 70.2961C52.815 68.8405 53.4963 70.2778 55.3787 70.9088C53.1244 72.3614 51.2756 71.6206 50.3275 70.2961Z" fill="#002D59"/>
<path fill-rule="evenodd" clip-rule="evenodd" d="M37.5022 4.83374C55.8139 4.83374 70.6582 19.6673 70.6582 37.9669C70.6582 56.2665 55.8139 71.1 37.5022 71.1C19.1904 71.1 4.34766 56.265 4.34766 37.9669C4.34766 19.6688 19.1904 4.83374 37.5022 4.83374ZM68.5685 45.2846H60.2539C57.1613 54.8932 48.1457 61.8466 37.5022 61.8466C26.8586 61.8466 17.843 54.8917 14.7519 45.2846H6.43582C9.74486 59.3698 22.3973 69.8593 37.5022 69.8593C52.607 69.8593 65.2594 59.3698 68.5685 45.2846ZM60.4155 44.7587C60.4445 44.6642 60.4704 44.5713 60.4978 44.4768C60.4704 44.5713 60.443 44.6658 60.4155 44.7587ZM60.6441 43.9387H68.8535C69.2193 42.003 69.4144 40.0093 69.4144 37.9684C69.4144 35.9275 69.2193 33.9323 68.8535 31.9981H60.6441H59.2434C56.6248 22.4551 47.8835 15.4407 37.5022 15.4407C27.1208 15.4407 18.3795 22.4551 15.7609 31.9981H14.3617H6.15231C5.7865 33.9323 5.59141 35.929 5.59141 37.9684C5.59141 40.0093 5.78498 42.0045 6.15231 43.9387H14.3617H15.7609C18.3795 53.4818 27.1208 60.4962 37.5022 60.4962C47.8835 60.4962 56.6248 53.4818 59.2434 43.9387H60.6441ZM60.6441 31.9966C60.606 31.8503 60.5664 31.7024 60.5253 31.5561C60.5649 31.7024 60.606 31.8503 60.6441 31.9966ZM60.4978 31.4585C60.4704 31.364 60.4445 31.2711 60.4155 31.1766C60.443 31.2711 60.4704 31.3656 60.4978 31.4585ZM60.2539 30.6522H68.5685C65.2594 16.5655 52.607 6.07749 37.5022 6.07749C22.3973 6.07749 9.74486 16.5655 6.43582 30.6522H14.7519C17.843 21.0437 26.8586 14.0902 37.5022 14.0902C48.1441 14.0887 57.1613 21.0421 60.2539 30.6522ZM14.508 44.4768C14.5354 44.5713 14.5613 44.6658 14.5903 44.7587C14.5613 44.6658 14.5339 44.5713 14.508 44.4768ZM14.508 31.4585C14.5354 31.3656 14.5613 31.2711 14.5903 31.1766C14.5613 31.2711 14.5339 31.3656 14.508 31.4585Z" fill="#002D59"/>
<path d="M15.9049 17.984L17.2751 19.1729C17.3742 19.2582 17.4489 19.3573 17.5038 19.4701C17.5571 19.5844 17.5891 19.7018 17.5983 19.8237C17.6074 19.9457 17.5937 20.0676 17.5571 20.188C17.522 20.3099 17.4611 20.4197 17.3757 20.5172L17.1639 20.7626L18.2095 21.668L17.7888 22.1512L13.9219 18.7964L14.5544 18.0694C14.6383 17.9703 14.7388 17.8956 14.8516 17.8423C14.9644 17.7889 15.0833 17.7569 15.2053 17.7478C15.3272 17.7401 15.4491 17.7554 15.5711 17.7935C15.6915 17.8316 15.8043 17.8956 15.9049 17.984ZM17.0998 19.8588L15.2449 18.2507L14.8257 18.7339L16.6792 20.342L17.0998 19.8588Z" fill="#002D59"/>
<path d="M20.2252 18.3001L18.2071 15.8126C18.1264 15.712 18.0654 15.6007 18.0288 15.4803C17.9922 15.3583 17.98 15.2364 17.9938 15.1145C18.006 14.9925 18.041 14.8767 18.0989 14.7639C18.1568 14.6526 18.2376 14.5536 18.3428 14.4697L19.0927 13.8616L19.4966 14.36L18.5013 15.1663L19.3091 16.1616L19.8076 15.7577L20.2115 16.2546L19.7131 16.6585L20.9202 18.1461L21.9155 17.3398L22.3194 17.8367L21.5695 18.4433C21.4644 18.5287 21.3531 18.5881 21.2312 18.6217C21.1092 18.6537 20.9873 18.6643 20.8654 18.6491C20.7419 18.6354 20.6261 18.5973 20.5148 18.5394C20.402 18.4814 20.306 18.4007 20.2252 18.3001Z" fill="#002D59"/>
<path d="M25.1499 15.3165L24.8451 14.7694L24.5616 14.9263C24.4473 14.9888 24.3284 15.0285 24.2004 15.0407C24.0723 15.0529 23.9519 15.0452 23.8346 15.0132C23.7172 14.9812 23.609 14.9294 23.5068 14.8532C23.4047 14.7785 23.3224 14.684 23.2584 14.5712L21.8516 12.0426L22.4186 11.7286L23.9687 14.5148L24.5281 14.2039L22.9779 11.4176L23.5389 11.1067L26.0264 15.5787L25.4655 15.8896L25.1499 15.3165Z" fill="#002D59"/>
<path d="M26.582 9.79136L27.1871 9.5795L27.8197 11.3948L28.4248 11.1845L27.7922 9.36916L28.3913 9.16187L30.074 13.9951L29.475 14.2024L28.6351 11.7896L28.03 11.9999L28.8699 14.4127L28.2663 14.6246L26.582 9.79136Z" fill="#002D59"/>
<path d="M34.1853 12.2105C34.2082 12.3477 34.2036 12.4773 34.1731 12.5992C34.1426 12.7211 34.0908 12.8324 34.0192 12.9299C33.9475 13.029 33.8576 13.1128 33.7509 13.1784C33.6427 13.2439 33.5223 13.2881 33.3897 13.3095C33.2571 13.3323 33.1306 13.3278 33.0101 13.3003C32.8882 13.2714 32.7769 13.2211 32.6779 13.1494C32.5788 13.0778 32.495 12.9894 32.4294 12.8827C32.3639 12.7775 32.3197 12.6556 32.2968 12.5184L31.7679 9.30081C31.7466 9.16973 31.7496 9.04017 31.7771 8.91366C31.8045 8.78715 31.8548 8.67436 31.9264 8.57224C31.9965 8.47012 32.0849 8.38629 32.1901 8.31618C32.2953 8.24759 32.4142 8.20338 32.5483 8.18205C32.6809 8.15918 32.8089 8.16528 32.9339 8.19576C33.0574 8.22625 33.1702 8.27807 33.2708 8.35276C33.3698 8.42592 33.4552 8.51737 33.5223 8.62711C33.5924 8.73686 33.6381 8.85879 33.6594 8.9914L34.1853 12.2105ZM32.3456 8.91519L32.9675 12.6998L33.6 12.5961L32.9781 8.81002L32.3456 8.91519Z" fill="#002D59"/>
<path d="M36.8301 7.33328L36.8377 6.69312L38.7536 6.71445L38.746 7.35462L36.8301 7.33328ZM37.7202 12.9942L38.6835 13.0048L38.7384 7.88809L38.0967 7.88199L38.051 12.3571L37.4108 12.3494L37.4596 7.87285L36.827 7.86523L36.7813 12.0248C36.7798 12.1543 36.8042 12.2763 36.8545 12.3936C36.9017 12.5095 36.9703 12.6116 37.0557 12.7015C37.141 12.7915 37.2416 12.8616 37.3559 12.9134C37.4672 12.9652 37.5907 12.9927 37.7202 12.9942Z" fill="#002D59"/>
<path d="M47.8815 9.80073L47.4715 11.0231C47.4288 11.1512 47.3816 11.267 47.3328 11.3707C47.2825 11.4758 47.2216 11.5612 47.1514 11.6298C47.0813 11.6968 46.9975 11.7395 46.903 11.7593C46.8085 11.7776 46.6972 11.7669 46.5692 11.7243C46.6927 11.7654 46.7856 11.8218 46.8496 11.8965C46.9121 11.9712 46.9533 12.0565 46.9685 12.1526C46.9838 12.2501 46.9823 12.3568 46.9594 12.4727C46.9381 12.59 46.906 12.7089 46.8664 12.8324L46.2583 14.6553L45.6562 14.4541L46.2674 12.6312C46.3238 12.4635 46.3406 12.3096 46.3177 12.1739C46.2948 12.0367 46.2445 11.9559 46.1683 11.93L45.8604 11.8264L45.0496 14.2499L44.4414 14.0472L46.0647 9.19409L46.6728 9.39681L46.0632 11.2198L46.3634 11.3204C46.4412 11.3463 46.5311 11.3097 46.6347 11.2137C46.7384 11.1161 46.8176 10.9835 46.874 10.8158L47.2795 9.60105L47.8815 9.80073Z" fill="#002D59"/>
<path d="M51.7863 11.6417L52.6292 12.1096L50.1462 16.5755L49.5853 16.2646L51.7588 12.3596L51.1979 12.0486L49.0259 15.9552L48.4727 15.6473L50.4907 12.0181C50.5547 11.9038 50.6355 11.8109 50.7361 11.7346C50.8352 11.6584 50.9449 11.602 51.0638 11.567C51.1827 11.5304 51.3031 11.5197 51.4296 11.5319C51.5531 11.5411 51.6735 11.5792 51.7863 11.6417Z" fill="#002D59"/>
<path d="M53.5918 18.2215L53.9804 17.7307L53.7259 17.5311C53.6238 17.4518 53.543 17.3543 53.482 17.2415C53.4211 17.1287 53.383 17.0128 53.3662 16.8939C53.3494 16.7735 53.357 16.6531 53.3875 16.5297C53.418 16.4077 53.4729 16.2949 53.5521 16.1928L55.3446 13.9187L55.8537 14.3196L53.8798 16.8238L54.3828 17.2201L56.3567 14.7159L56.8597 15.1122L54.0887 18.6285C54.0109 18.726 53.9378 18.7977 53.8707 18.8419C53.8021 18.8861 53.732 18.9105 53.6588 18.9135C53.5857 18.9181 53.511 18.9028 53.4363 18.8708C53.3601 18.8388 53.2778 18.7946 53.1879 18.7367L52.1758 17.9396L52.5827 17.4259L53.5918 18.2215Z" fill="#002D59"/>
<path d="M57.4085 21.6559C57.3048 21.7489 57.1936 21.8144 57.0762 21.851C56.9588 21.8891 56.8415 21.9013 56.7241 21.8891C56.6083 21.8769 56.494 21.8419 56.3797 21.784C56.2684 21.7276 56.1663 21.6483 56.0779 21.5477L55.4453 20.839L58.541 18.0786C58.6416 17.9902 58.7528 17.9232 58.8717 17.8805C58.9921 17.8378 59.1141 17.8195 59.2375 17.8256C59.361 17.8317 59.4799 17.8591 59.5942 17.9125C59.7085 17.9658 59.8106 18.042 59.9006 18.1411L60.5468 18.8666L60.0682 19.2919L59.2086 18.3316L58.259 19.1791L58.6858 19.6577C58.8077 19.7934 58.8626 19.9488 58.8504 20.1241C58.8382 20.2994 58.765 20.4457 58.6294 20.5676L57.4085 21.6559ZM56.7714 21.3663L58.2011 20.0921L57.7758 19.6135L56.3461 20.8877L56.7714 21.3663Z" fill="#002D59"/>
<path d="M44.892 41.8892V41.8878L44.8711 41.8794L44.892 41.8892Z" fill="#002D59"/>
<path d="M44.8921 39.0406L44.875 39.0334L44.8921 39.042V39.0406Z" fill="#002D59"/>
<path d="M15.3712 55.2338C16.5692 54.0602 18.4866 54.0739 19.7472 55.3603C21.0092 56.6483 20.9833 58.5413 19.7731 59.7272C18.5751 60.9008 16.6576 60.8871 15.3971 59.6006C14.135 58.3127 14.161 56.4181 15.3712 55.2338ZM18.6177 58.5474C19.2198 57.9575 19.3173 57.0095 18.6924 56.3709C18.0736 55.7383 17.1453 55.8176 16.5326 56.4196C15.9306 57.0095 15.833 57.9591 16.4518 58.5901C17.0768 59.2272 18.0035 59.148 18.6177 58.5474Z" fill="#002D59"/>
<path d="M22.5703 61.6773C23.3309 60.1546 25.099 59.5449 26.6826 60.3345C27.7511 60.8679 28.184 61.6621 28.3257 62.5354L26.8564 62.8281C26.7436 62.3053 26.5089 61.8983 26.0089 61.6499C25.2773 61.2856 24.4527 61.6468 24.0656 62.4242C23.6738 63.2076 23.8842 64.0779 24.6158 64.4422C25.1615 64.715 25.6081 64.6205 26.1126 64.3965L26.8152 65.718C25.983 66.1508 25.0685 66.32 23.9116 65.7424C22.4164 64.9955 21.7838 63.2533 22.5703 61.6773Z" fill="#002D59"/>
<path d="M32.5127 63.8597L30.7812 63.59L30.9992 62.1892L36.0626 62.9726L35.8447 64.3749L34.1132 64.1067L33.4364 68.4766L31.8375 68.2296L32.5127 63.8597Z" fill="#002D59"/>
<path d="M38.6367 62.9437L41.1151 62.587C42.5768 62.3767 43.6254 62.994 43.8129 64.2896C44.008 65.6522 43.063 66.521 41.6257 66.7283L40.8331 66.8426L41.0709 68.4949L39.4689 68.725L38.6367 62.9437ZM41.4108 65.4769C41.9808 65.3946 42.2841 65.0471 42.2171 64.5776C42.1454 64.0823 41.7613 63.8674 41.1837 63.9512L40.4322 64.0594L40.6517 65.5867L41.4108 65.4769Z" fill="#002D59"/>
<path d="M47.0469 64.238C46.2879 62.7427 46.8777 60.9183 48.4842 60.1028C50.0907 59.2874 51.8893 59.8818 52.656 61.3908C53.415 62.886 52.8252 64.7105 51.2187 65.5259C49.6121 66.3414 47.8136 65.7485 47.0469 64.238ZM51.1836 62.1391C50.8025 61.3877 49.9261 61.0082 49.1305 61.4136C48.341 61.8145 48.1382 62.7214 48.5269 63.4881C48.908 64.2395 49.7829 64.619 50.5724 64.2182C51.3696 63.8127 51.5723 62.9058 51.1836 62.1391Z" fill="#002D59"/>
<path d="M53.3945 57.127L55.4796 54.9779C55.9918 54.4505 56.4826 54.2067 56.9673 54.2006C57.298 54.196 57.6181 54.3088 57.9168 54.5999C58.4015 55.0709 58.4214 55.6257 58.2232 56.1531C58.8847 55.8071 59.4853 55.7629 60.0675 56.3253C60.7854 57.0219 60.6543 58.0339 59.6834 59.0338L57.5861 61.1951L53.3945 57.127ZM56.8728 56.8847C57.2157 56.5311 57.2874 56.2171 57.0298 55.9671C56.8027 55.7461 56.4963 55.7979 56.1594 56.1455L55.4278 56.8999L56.164 57.6148L56.8728 56.8847ZM58.6226 58.258C58.9655 57.9044 59.0249 57.5675 58.7674 57.3176C58.5402 57.0966 58.2156 57.1316 57.8376 57.5203L56.9779 58.4059L57.7507 59.1558L58.6226 58.258Z" fill="#002D59"/>
<path fill-rule="evenodd" clip-rule="evenodd" d="M42.7737 56.6088C43.2234 57.3968 44.205 57.912 45.5371 57.2337C44.5296 56.778 44.2339 55.9427 42.7737 56.6088ZM41.0102 57.0188C42.5268 56.4929 42.7433 57.3511 43.7035 57.8998C42.315 58.45 41.3852 57.8464 41.0102 57.0188ZM39.262 57.2611C39.5607 58.1193 40.431 58.8036 41.8638 58.3829C40.9584 57.7489 40.8197 56.874 39.262 57.2611ZM37.4848 57.3419C39.0714 57.0996 39.1278 57.9836 39.9723 58.6969C38.5075 58.985 37.7027 58.2229 37.4848 57.3419ZM35.5155 57.2398C35.642 58.1391 36.3645 58.9789 37.8521 58.8417C37.0854 58.0461 37.1205 57.159 35.5155 57.2398ZM33.566 56.938C35.1695 57.0218 35.046 57.8998 35.7273 58.7686C34.2351 58.7548 33.6026 57.8449 33.566 56.938ZM31.6592 56.4411C31.6013 57.348 32.1394 58.3174 33.6239 58.4835C33.0326 57.5477 33.2459 56.6865 31.6592 56.4411ZM29.8119 55.7522C29.6625 56.6469 30.0985 57.6666 31.5586 57.9821C31.0663 56.9929 31.3651 56.1591 29.8119 55.7522ZM28.0438 54.8788C27.8061 55.7552 28.1353 56.813 29.5558 57.2764C29.1656 56.2414 29.5482 55.4412 28.0438 54.8788ZM26.3748 53.8317C27.8122 54.5435 27.3518 55.301 27.6338 56.3679C26.2697 55.7628 26.0471 54.6776 26.3748 53.8317ZM24.8201 52.6184C24.4086 53.4277 24.5183 54.5298 25.8154 55.2705C25.6432 54.1792 26.1782 53.4735 24.8201 52.6184ZM23.3965 51.2558C24.6616 52.2434 24.0565 52.8912 24.116 53.9948C22.9012 53.1275 22.9042 52.0179 23.3965 51.2558ZM22.1193 49.7529C21.5507 50.4617 21.4364 51.5636 22.5567 52.5513C22.6085 51.4478 23.2761 50.8656 22.1193 49.7529ZM21.002 48.1296C22.04 49.3536 21.316 49.8642 21.1529 50.9585C20.1378 49.8611 20.3649 48.7774 21.002 48.1296ZM20.054 46.3996C19.3543 46.9804 19.019 48.0351 19.9183 49.2301C20.1911 48.1601 20.9624 47.7242 20.054 46.3996ZM19.2873 44.5843C20.057 45.9927 19.2446 46.3478 18.8636 47.3858C18.0908 46.107 18.5328 45.0904 19.2873 44.5843ZM18.7081 42.6989C17.9064 43.1257 17.3637 44.0935 18.0024 45.4424C18.4871 44.4502 19.3315 44.1789 18.7081 42.6989ZM18.3255 40.7662C18.795 42.3011 17.9277 42.4855 17.3439 43.4229C16.8455 42.0145 17.4841 41.1091 18.3255 40.7662ZM18.1396 38.803C17.2677 39.0591 16.5407 39.8959 16.8928 41.3469C17.5695 40.472 18.4505 40.3775 18.1396 38.803ZM18.1548 36.8307C18.3042 38.4281 17.4171 38.4342 16.6565 39.2344C16.4538 37.7559 17.2616 36.9968 18.1548 36.8307ZM18.3697 34.8721C17.4643 34.9468 16.5849 35.6189 16.6352 37.1127C17.475 36.3917 18.356 36.4756 18.3697 34.8721ZM18.7843 32.944C18.6075 34.5398 17.7387 34.3645 16.8318 34.9955C16.9309 33.5049 17.8759 32.9257 18.7843 32.944ZM19.3909 31.0692C18.4901 30.9595 17.4902 31.4396 17.2403 32.912C18.2066 32.3754 19.0526 32.6376 19.3909 31.0692ZM20.1866 29.2645C19.301 29.0633 18.2584 29.4398 17.8591 30.8787C18.8742 30.4443 19.6912 30.7903 20.1866 29.2645ZM21.1605 27.5498C20.2994 27.2602 19.2248 27.5285 18.6806 28.9185C19.7354 28.5908 20.5112 29.0176 21.1605 27.5498ZM22.3037 25.9433C21.5096 27.3395 20.781 26.835 19.6973 27.0544C20.3801 25.7269 21.4776 25.5683 22.3037 25.9433ZM23.6038 24.4618C22.8189 24.0045 21.7123 24.0502 20.8984 25.3016C21.9988 25.1934 22.6725 25.768 23.6038 24.4618ZM25.0488 23.1205C23.9894 24.3246 23.3767 23.6844 22.2732 23.6799C23.2106 22.5184 24.3141 22.584 25.0488 23.1205ZM26.6233 21.9316C25.9481 21.325 24.8537 21.1466 23.8035 22.2075C24.9024 22.3233 25.4466 23.0229 26.6233 21.9316ZM28.309 20.9104C27.0257 21.8767 26.5577 21.1253 25.4755 20.8967C26.6294 19.9486 27.6978 20.2382 28.309 20.9104ZM30.0908 20.066C29.5513 19.3344 28.5179 18.9381 27.2726 19.7642C28.3258 20.101 28.716 20.8951 30.0908 20.066ZM31.9488 19.4045C30.4978 20.0919 30.1899 19.2612 29.1763 18.8192C30.4963 18.1226 31.4855 18.6225 31.9488 19.4045ZM33.8632 18.9381C33.4837 18.1135 32.5509 17.516 31.1654 18.0738C32.1287 18.6149 32.3497 19.4731 33.8632 18.9381ZM35.8157 18.6667C34.258 19.0463 34.1239 18.1699 33.22 17.5327C34.6543 17.1182 35.5216 17.8071 35.8157 18.6667ZM37.7865 18.5966C37.5808 17.7126 36.7882 16.9383 35.3189 17.205C36.1526 17.9306 36.1968 18.8146 37.7865 18.5966ZM39.7543 18.7262C38.1508 18.7826 38.1966 17.897 37.4405 17.0907C38.9297 16.9734 39.64 17.8239 39.7543 18.7262ZM41.6977 19.0554C41.6763 18.147 41.056 17.2309 39.5622 17.1928C40.2329 18.0723 40.0957 18.9472 41.6977 19.0554ZM43.5968 19.5797C42.0147 19.31 42.2387 18.4534 41.6641 17.5099C43.1456 17.6974 43.6684 18.6744 43.5968 19.5797ZM45.435 20.2961C45.5966 19.4029 45.1759 18.3787 43.7218 18.0418C44.1989 19.0371 43.8879 19.8663 45.435 20.2961ZM47.1894 21.1939C47.4409 20.3205 47.1269 19.2597 45.7124 18.7765C46.0889 19.816 45.6941 20.6101 47.1894 21.1939ZM48.8446 22.2669C47.4165 21.5338 47.8874 20.7839 47.6222 19.7108C48.9788 20.3342 49.1845 21.424 48.8446 22.2669ZM50.381 23.5C50.8032 22.6967 50.7103 21.5932 49.4238 20.8342C49.5808 21.9285 49.0352 22.6266 50.381 23.5ZM51.7848 24.8855C50.535 23.8795 51.1477 23.2394 51.1035 22.1358C52.3061 23.0214 52.2878 24.1295 51.7848 24.8855ZM53.0393 26.4051C53.6169 25.704 53.7495 24.605 52.6414 23.6021C52.5744 24.7041 51.8992 25.2772 53.0393 26.4051ZM54.1352 28.0452C53.1139 26.8075 53.844 26.3045 54.0239 25.2147C55.0238 26.3244 54.7799 27.4065 54.1352 28.0452ZM55.0573 29.7873C55.763 29.2173 56.1151 28.1656 55.2341 26.9599C54.9445 28.0269 54.1672 28.4521 55.0573 29.7873ZM55.7981 31.6149C55.0482 30.1943 55.8651 29.8514 56.2614 28.8195C57.0159 30.1105 56.5586 31.1195 55.7981 31.6149ZM56.3483 33.5079C57.1561 33.0933 57.7109 32.1346 57.0936 30.775C56.5937 31.7612 55.7462 32.0203 56.3483 33.5079ZM56.7034 35.4467C56.2568 33.9057 57.1256 33.7335 57.7231 32.8053C58.2002 34.2197 57.5494 35.116 56.7034 35.4467ZM56.8604 37.4129C57.7353 37.1691 58.4746 36.3429 58.1438 34.8858C57.4549 35.7516 56.5739 35.8339 56.8604 37.4129ZM56.8178 39.3837C56.6928 37.7848 57.5768 37.7925 58.3496 37.0029C58.531 38.4845 57.7109 39.2313 56.8178 39.3837ZM56.5739 41.3408C57.4793 41.2798 58.3694 40.6199 58.3404 39.1261C57.4899 39.8334 56.6105 39.7358 56.5739 41.3408ZM56.1319 43.2613C56.3315 41.6685 57.1973 41.856 58.1149 41.2387C57.9914 42.7278 57.0388 43.2933 56.1319 43.2613ZM55.4963 45.1285C56.3971 45.2519 57.4015 44.7855 57.6744 43.3177C56.7004 43.8375 55.8575 43.5646 55.4963 45.1285ZM54.6763 46.9209C55.5588 47.1328 56.6044 46.7731 57.0266 45.3403C56.0038 45.7595 55.193 45.4013 54.6763 46.9209ZM53.6779 48.6204C54.533 48.9222 55.6121 48.6692 56.1776 47.2883C55.1152 47.6007 54.347 47.1618 53.6779 48.6204ZM52.5104 50.2102C53.3258 48.8262 54.0452 49.3414 55.132 49.1386C54.4309 50.4556 53.3319 50.5973 52.5104 50.2102ZM51.1889 51.6719C51.9662 52.1413 53.0743 52.1108 53.9065 50.8717C52.8045 50.9646 52.14 50.3793 51.1889 51.6719ZM49.7241 52.9934C50.8017 51.8045 51.4038 52.4538 52.5073 52.4736C51.5547 53.6229 50.4496 53.539 49.7241 52.9934ZM48.1344 54.1578C48.802 54.7752 49.8918 54.9702 50.9572 53.9246C49.8598 53.792 49.3263 53.0833 48.1344 54.1578ZM46.4334 55.1562C47.7289 54.2081 48.1877 54.9672 49.2668 55.2095C48.0993 56.1424 47.0339 55.8375 46.4334 55.1562ZM44.6409 55.9747C46.0264 55.1638 46.4044 55.9656 47.4515 56.3161C46.1956 57.1255 45.1683 56.7139 44.6409 55.9747Z" fill="#002D59"/>
<path d="M47.8498 50.4297C47.4962 50.6797 47.263 50.8443 46.7158 50.8443C46.3103 50.8443 46.0878 50.7482 45.9064 50.6431L45.7266 50.5379L45.9262 52.1429L45.9979 52.1581C46.2265 52.21 46.4612 52.2343 46.7158 52.2343C47.705 52.2343 48.2308 51.8624 48.6546 51.5652C48.9564 51.3533 49.1713 51.2025 49.566 51.1628C49.9989 50.7696 50.4135 50.3535 50.8052 49.9206C50.5278 49.8246 50.1986 49.759 49.787 49.759C48.7978 49.759 48.272 50.1309 47.8498 50.4297Z" fill="#002D59"/>
<path d="M40.0134 31.7888H37.1875V32.6165H40.0134V31.7888Z" fill="#002D59"/>
<path d="M40.0396 34.1633H37.168V34.9574H40.0396V34.1633Z" fill="#002D59"/>
<path d="M40.0396 36.5305H37.168V37.3262H40.0396V36.5305Z" fill="#002D59"/>
<path d="M40.0396 38.9924H37.168V39.7865H40.0396V38.9924Z" fill="#002D59"/>
<path d="M40.0396 41.4172H37.168V42.2129H40.0396V41.4172Z" fill="#002D59"/>
<path d="M40.0134 43.6667H37.1875V44.4944H40.0134V43.6667Z" fill="#002D59"/>
<path d="M40.0396 46.0417H37.168V46.8359H40.0396V46.0417Z" fill="#002D59"/>
<path d="M40.0396 48.4089H37.168V49.203H40.0396V48.4089Z" fill="#002D59"/>
<path d="M40.0396 50.8704H37.168V51.6645H40.0396V50.8704Z" fill="#002D59"/>
<path d="M45.1049 53.1066L42.587 31.6229L43.3673 30.2892H44.3276V28.8214H41.4072V27.2469H40.9683V24.2305H41.3021L41.3402 23.1697L38.2186 21.7049V20.7126H36.9733V21.7049L33.8502 23.1697L33.8883 24.2305H34.2236V27.2469H33.7847V28.8214H31.003V30.2892H31.8245L32.6065 31.6229L30.09 53.0883C29.8964 53.1934 29.2593 53.5394 29.0703 53.7223C29.5535 53.9799 30.0504 54.2177 30.5595 54.4311C30.8277 54.2512 31.0655 54.1384 31.5167 54.1384C32.0638 54.1384 32.2971 54.3031 32.6507 54.553C33.0729 54.8518 33.5987 55.2222 34.5879 55.2222C35.5771 55.2222 36.103 54.8503 36.5252 54.5515C36.8499 54.3229 37.0846 54.1567 37.5769 54.14C38.0753 54.1567 38.3085 54.3214 38.6347 54.5515C39.0569 54.8503 39.5812 55.2206 40.572 55.2206C41.5612 55.2206 42.087 54.8487 42.5107 54.55C42.8644 54.3 43.0976 54.1354 43.6432 54.1354C44.0593 54.1354 44.2941 54.2314 44.5395 54.3869C45.0409 54.1735 45.5302 53.9373 46.0073 53.6797C45.7908 53.5029 45.2848 53.2072 45.1049 53.1066ZM39.7336 24.2305V27.2469H35.4293L35.4278 24.2305H39.7336ZM41.7075 53.416C41.3539 53.6659 41.1207 53.8306 40.5735 53.8306C40.0263 53.8306 39.7931 53.6659 39.4395 53.416C39.1179 53.1873 38.72 52.9069 38.086 52.7956C38.086 52.7956 37.5495 52.7408 37.0754 52.7956C36.574 52.8474 36.0451 53.1889 35.7204 53.4175C35.3683 53.6659 35.1351 53.8306 34.5895 53.8306C34.0423 53.8306 33.8091 53.6659 33.4554 53.416C33.0713 53.1447 32.6019 52.8154 31.7773 52.756L34.2953 31.2967L34.0209 30.8303L37.5982 30.8349L41.1725 30.8303L40.8997 31.2967L43.4146 52.7545C42.5717 52.8063 42.0962 53.1416 41.7075 53.416Z" fill="#002D59"/>
<path d="M28.4475 52.2363C28.7127 52.2363 28.9581 52.2089 29.1943 52.154L29.2644 52.1372L29.4504 50.5307L29.2705 50.6359C29.0861 50.7441 28.859 50.8447 28.4475 50.8447C27.9003 50.8447 27.6671 50.6801 27.3135 50.4301C26.8913 50.1314 26.3654 49.761 25.3762 49.761C24.9052 49.761 24.5409 49.8448 24.2422 49.9652C24.6202 50.3798 25.0165 50.7776 25.4311 51.1541C25.9371 51.1648 26.1688 51.3263 26.5102 51.5672C26.9324 51.8644 27.4583 52.2363 28.4475 52.2363Z" fill="#002D59"/>
<path d="M49.7878 46.7903C48.7986 46.7903 48.2727 47.1622 47.8505 47.4609C47.4969 47.7109 47.2637 47.8755 46.715 47.8755C46.1693 47.8755 45.9346 47.7094 45.5749 47.4548L45.3203 47.2765L45.5398 49.0461L45.5977 49.069C45.9376 49.2031 46.3034 49.2686 46.715 49.2686C47.7057 49.2686 48.2315 48.8967 48.6538 48.598C49.0074 48.348 49.2406 48.1834 49.7878 48.1834C50.3334 48.1834 50.5682 48.348 50.9233 48.598C51.1123 48.7321 51.3211 48.88 51.5833 49.0019C51.882 48.6224 52.167 48.2322 52.4353 47.8283C52.1594 47.7627 51.9704 47.6316 51.7235 47.4579C51.3013 47.1607 50.7754 46.7903 49.7878 46.7903Z" fill="#002D59"/>
<path d="M52.8599 44.8935C52.3112 44.8935 52.078 44.7289 51.7244 44.4789C51.3022 44.1817 50.7763 43.8098 49.7871 43.8098C48.7979 43.8098 48.2721 44.1817 47.8499 44.4805C47.4963 44.7289 47.2631 44.8935 46.7159 44.8935C46.1702 44.8935 45.937 44.7289 45.5819 44.4789C45.4508 44.386 45.2877 44.2701 45.1002 44.1665L44.9219 44.0674L45.1444 45.8599L45.1886 45.8858C45.4797 46.058 45.9553 46.2851 46.7159 46.2851C47.7051 46.2851 48.2309 45.9147 48.6546 45.616C49.0083 45.366 49.2399 45.2014 49.7887 45.2014C50.3358 45.2014 50.5691 45.366 50.9242 45.616C51.3464 45.9147 51.8722 46.2851 52.8615 46.2851C53.0489 46.2851 53.2196 46.2714 53.3766 46.2485C53.7089 45.619 54.0046 44.9682 54.2607 44.296C54.1662 44.357 54.0778 44.4195 53.9939 44.4789C53.6388 44.7289 53.4056 44.8935 52.8599 44.8935Z" fill="#002D59"/>
<path d="M22.3026 43.3667C23.2903 43.3667 23.8146 42.9963 24.2398 42.6976C24.5935 42.4476 24.8267 42.283 25.3738 42.283C25.921 42.283 26.1542 42.4476 26.5094 42.6976C26.9316 42.9948 27.4559 43.3667 28.4451 43.3667C29.3505 43.3667 29.8824 43.0482 30.3092 42.7494L30.3473 42.722L30.5424 41.0316L30.3809 41.0957C30.0455 41.2298 29.7864 41.4127 29.5791 41.559C29.227 41.809 28.9938 41.9736 28.4451 41.9736C27.8979 41.9736 27.6647 41.809 27.3081 41.5575C26.8859 41.2603 26.36 40.8899 25.3723 40.8899C24.3846 40.8899 23.8588 41.2603 23.4351 41.559C23.0814 41.809 22.8482 41.9736 22.3011 41.9736C21.7523 41.9736 21.5191 41.809 21.164 41.5575C20.8363 41.3258 20.4446 41.0515 19.8242 40.9402C19.9187 41.4935 20.0391 42.0376 20.1839 42.5726C20.2419 42.6107 20.3013 42.6519 20.3638 42.6976C20.7875 42.9948 21.3134 43.3667 22.3026 43.3667Z" fill="#002D59"/>
<path d="M52.8597 41.9736C52.311 41.9736 52.0778 41.809 51.7242 41.559C51.302 41.2603 50.7761 40.8899 49.7869 40.8899C48.7992 40.8899 48.2734 41.2618 47.8496 41.559C47.496 41.809 47.2613 41.9736 46.7141 41.9736C46.1684 41.9736 45.9352 41.809 45.5801 41.559C45.3423 41.3914 45.071 41.2008 44.6976 41.0652L44.5391 41.0073L44.7464 42.6763L44.7845 42.7022C45.1808 42.9826 45.7249 43.3667 46.7141 43.3667C47.7033 43.3667 48.2292 42.9963 48.6529 42.6976C49.0065 42.4476 49.2397 42.283 49.7869 42.283C50.3341 42.283 50.5673 42.4476 50.9209 42.6976C51.3431 42.9963 51.869 43.3667 52.8582 43.3667C53.8367 43.3667 54.361 43.0024 54.7832 42.7067C54.9402 42.1397 55.0713 41.5636 55.1734 40.9752C54.6445 41.1018 54.2924 41.3487 53.9937 41.5605C53.6401 41.809 53.4054 41.9736 52.8597 41.9736Z" fill="#002D59"/>
<path d="M24.2415 45.6175C24.5951 45.3676 24.8283 45.2029 25.3755 45.2029C25.9227 45.2029 26.1559 45.3676 26.511 45.619C26.9332 45.9163 27.4575 46.2882 28.4468 46.2882C29.0122 46.2882 29.4863 46.1678 29.9389 45.9102L29.9847 45.8843L30.1904 44.0948L30.0121 44.197C29.849 44.2899 29.7057 44.3921 29.5792 44.4805C29.2271 44.7304 28.9939 44.8951 28.4452 44.8951C27.898 44.8951 27.6648 44.7304 27.3097 44.4789C26.8875 44.1817 26.3616 43.8098 25.374 43.8098C24.3878 43.8098 23.8619 44.1802 23.4367 44.4789C23.0831 44.7289 22.8499 44.8935 22.3027 44.8935C21.7555 44.8935 21.5208 44.7289 21.1687 44.4789C21.0284 44.3799 20.876 44.2732 20.6992 44.1741C20.9629 44.8768 21.2677 45.5596 21.6137 46.2181C21.8165 46.2607 22.0436 46.2866 22.3027 46.2866C23.2919 46.2866 23.8162 45.9163 24.2415 45.6175Z" fill="#002D59"/>
<path d="M25.3722 48.1819C25.9178 48.1819 26.1526 48.3466 26.5062 48.5965C26.9284 48.8953 27.4527 49.2657 28.4435 49.2657C28.855 49.2657 29.2193 49.2016 29.5592 49.0675L29.6171 49.0446L29.8198 47.2888L29.5775 47.4579C29.2254 47.7079 28.9906 47.8725 28.4435 47.8725C27.8963 47.8725 27.6631 47.7079 27.3079 47.4564C26.8857 47.1592 26.3599 46.7888 25.3722 46.7888C24.3845 46.7888 23.8586 47.1592 23.4349 47.4579C23.1499 47.6591 22.9411 47.8039 22.5859 47.8527C22.8618 48.2642 23.1545 48.6636 23.4608 49.0507C23.7794 48.9197 24.0217 48.7474 24.2397 48.595C24.5933 48.3466 24.8265 48.1819 25.3722 48.1819Z" fill="#002D59"/>
</g>
<defs>
<clipPath id="clip0_964_1405">
<rect width="75" height="75" fill="white" transform="translate(0 0.468018)"/>
</clipPath>
</defs>
</svg>
