<svg width="47" height="47" viewBox="0 0 47 47" fill="none" xmlns="http://www.w3.org/2000/svg">
<path d="M23.6072 46.5088C22.8571 46.5088 22.1001 46.4722 21.3577 46.3991C15.7046 45.8505 10.4726 43.2277 6.62675 39.0145C2.75712 34.7732 0.625 29.2724 0.625 23.5258C0.625 21.306 0.941374 19.111 1.56477 17.0018C1.76378 16.3274 1.9968 15.6538 2.2579 15.0015C3.94437 10.7832 6.81895 7.18573 10.5721 4.59691C14.4145 1.946 18.922 0.544434 23.6072 0.544434C28.2924 0.544434 32.8484 1.96046 36.7044 4.63943C40.4719 7.25717 43.3448 10.8895 45.0117 15.1436C45.2813 15.8307 45.5195 16.5383 45.7202 17.2485C46.2968 19.2794 46.5885 21.3919 46.5885 23.5266C46.5885 29.2732 44.4564 34.774 40.5859 39.0153C36.7401 43.2285 31.508 45.8514 25.8541 46.3999C25.1091 46.4722 24.3539 46.5088 23.6072 46.5088ZM23.6072 1.3949C19.0954 1.3949 14.7547 2.74374 11.0551 5.29684C7.44064 7.79041 4.67152 11.2552 3.04798 15.317C2.79709 15.9455 2.57257 16.5936 2.38036 17.2434C1.77993 19.2743 1.47547 21.3885 1.47547 23.5266C1.47547 29.0606 3.5285 34.3573 7.25609 38.4413C10.9599 42.4988 15.9972 45.0247 21.441 45.5529C22.8681 45.6923 24.3343 45.6932 25.7725 45.5537C31.2163 45.0256 36.2545 42.4997 39.9583 38.4421C43.6859 34.3573 45.7389 29.0606 45.7389 23.5266C45.7389 21.471 45.4574 19.4367 44.9029 17.4806C44.709 16.7969 44.4802 16.1156 44.2208 15.454C42.6151 11.3573 39.8485 7.8593 36.2196 5.33767C32.5065 2.7582 28.1461 1.3949 23.608 1.3949H23.6072Z" fill="white"/>
<path fill-rule="evenodd" clip-rule="evenodd" d="M45.2102 23.5261C45.2102 34.7446 36.6596 43.9662 25.72 45.0276C25.0252 45.0948 24.3202 45.1296 23.6075 45.1296C22.8948 45.1296 22.1889 45.0948 21.4932 45.0267C10.5545 43.9653 2.00391 34.7437 2.00391 23.5261C2.00391 21.3956 2.31263 19.3375 2.88754 17.3933C3.07635 16.7538 3.29406 16.1261 3.539 15.513C6.7223 7.55003 14.5075 1.92334 23.6075 1.92334C32.7075 1.92334 40.5794 7.61297 43.7278 15.6465C43.9804 16.2911 44.2032 16.9519 44.3937 17.6247C44.9261 19.5008 45.2102 21.4798 45.2102 23.5261Z" fill="white"/>
<path d="M23.6069 45.5548C22.8883 45.5548 22.1637 45.5191 21.451 45.4502C16.0318 44.9246 11.0175 42.4106 7.33154 38.3718C3.6218 34.3065 1.57812 29.0345 1.57812 23.526C1.57812 21.399 1.88089 19.2949 2.47962 17.2725C2.67012 16.6262 2.8938 15.9807 3.14384 15.3547C4.75972 11.3116 7.51524 7.86294 11.1127 5.38128C14.7961 2.84179 19.1165 1.49805 23.6069 1.49805C28.0974 1.49805 32.4645 2.85539 36.1607 5.42295C39.7718 7.93183 42.5256 11.4136 44.1236 15.4908C44.3813 16.149 44.6101 16.8277 44.8031 17.5081C45.3559 19.4548 45.6357 21.4789 45.6357 23.5251C45.6357 29.0336 43.5921 34.3057 39.8815 38.3718C36.1955 42.4106 31.1803 44.9246 25.7612 45.4502C25.0468 45.5191 24.3222 45.5539 23.6078 45.5539L23.6069 45.5548ZM23.6069 2.34851C19.2891 2.34851 15.1354 3.63952 11.5958 6.08207C8.13693 8.46848 5.48772 11.7836 3.93392 15.6711C3.69409 16.2724 3.47892 16.8924 3.29522 17.514C2.7203 19.4582 2.42859 21.4806 2.42859 23.526C2.42859 28.821 4.39317 33.8898 7.96003 37.7985C11.5039 41.6818 16.3244 44.0979 21.5335 44.604C22.9002 44.7375 24.3018 44.7384 25.6787 44.604C30.8878 44.0988 35.7091 41.6818 39.253 37.7985C42.8198 33.8898 44.7844 28.821 44.7844 23.5251C44.7844 21.558 44.5148 19.6113 43.9841 17.7403C43.7987 17.0863 43.5793 16.434 43.331 15.8012C41.7942 11.8806 39.1467 8.53311 35.6751 6.12119C32.1227 3.65313 27.9494 2.34851 23.6069 2.34851Z" fill="#002D59"/>
<path d="M37.9246 14.627L6.73027 22.2897C6.02778 22.4623 5.74542 23.3085 6.20383 23.8681L8.5273 26.707C9.6108 28.0312 11.3594 28.6146 13.0212 28.2064L28.4665 24.4124C31.6141 23.6394 34.3271 21.651 36.0127 18.8827L38.2962 15.1321C38.4535 14.8736 38.2197 14.5538 37.9254 14.6261L37.9246 14.627Z" fill="white"/>
<path d="M34.8477 29.1475L23.6057 17.9062L12.3645 29.1475" stroke="#002D59" stroke-width="3" stroke-linecap="round" stroke-linejoin="round"/>
</svg>
