<svg width="54" height="53" viewBox="0 0 54 53" fill="none" xmlns="http://www.w3.org/2000/svg">
<g filter="url(#filter0_d_964_2270)">
<path d="M27.0525 46.5654C26.3024 46.5654 25.5455 46.5289 24.803 46.4557C19.1499 45.9072 13.9179 43.2843 10.0721 39.0711C6.20243 34.8298 4.07031 29.329 4.07031 23.5824C4.07031 21.3627 4.38669 19.1676 5.01008 17.0585C5.20909 16.384 5.44212 15.7105 5.70321 15.0582C7.38969 10.8398 10.2643 7.24237 14.0174 4.65355C17.8598 2.00264 22.3673 0.601074 27.0525 0.601074C31.7377 0.601074 36.2937 2.0171 40.1497 4.69607C43.9173 7.31381 46.7901 10.9462 48.457 15.2002C48.7266 15.8874 48.9648 16.595 49.1655 17.3051C49.7421 19.336 50.0338 21.4486 50.0338 23.5833C50.0338 29.3299 47.9017 34.8307 44.0312 39.072C40.1854 43.2852 34.9533 45.908 29.2994 46.4566C28.5544 46.5289 27.7992 46.5654 27.0525 46.5654ZM27.0525 1.45154C22.5408 1.45154 18.2 2.80038 14.5004 5.35349C10.886 7.84705 8.11684 11.3119 6.49329 15.3737C6.24241 16.0022 6.01788 16.6502 5.82568 17.3C5.22525 19.3309 4.92078 21.4452 4.92078 23.5833C4.92078 29.1172 6.97381 34.414 10.7014 38.4979C14.4052 42.5555 19.4425 45.0814 24.8863 45.6095C26.3134 45.749 27.7796 45.7498 29.2178 45.6104C34.6616 45.0822 39.6998 42.5563 43.4036 38.4987C47.1312 34.4139 49.1842 29.1172 49.1842 23.5833C49.1842 21.5277 48.9027 19.4934 48.3482 17.5373C48.1543 16.8535 47.9255 16.1723 47.6661 15.5106C46.0604 11.4139 43.2939 7.91594 39.6649 5.39431C35.9518 2.81484 31.5914 1.45154 27.0533 1.45154H27.0525Z" fill="white"/>
<mask id="mask0_964_2270" style="mask-type:alpha" maskUnits="userSpaceOnUse" x="5" y="1" width="44" height="45">
<circle cx="26.9791" cy="23.5829" r="21.8229" fill="#D9D9D9"/>
</mask>
<g mask="url(#mask0_964_2270)">
<g filter="url(#filter1_d_964_2270)">
<path fill-rule="evenodd" clip-rule="evenodd" d="M48.6555 23.5825C48.6555 34.801 40.1049 44.0226 29.1653 45.084C28.4705 45.1511 27.7655 45.186 27.0528 45.186C26.3401 45.186 25.6342 45.1512 24.9385 45.0831C13.9998 44.0217 5.44922 34.8001 5.44922 23.5825C5.44922 21.452 5.75794 19.3939 6.33285 17.4497C6.52166 16.8102 6.73938 16.1825 6.98431 15.5694C10.1676 7.60643 17.9528 1.97974 27.0528 1.97974C36.1528 1.97974 44.0247 7.66936 47.1731 15.7029C47.4257 16.3475 47.6486 17.0083 47.8391 17.6811C48.3714 19.5572 48.6555 21.5362 48.6555 23.5825Z" fill="white"/>
<path d="M27.0522 45.6112C26.3336 45.6112 25.609 45.5755 24.8963 45.5066C19.4771 44.981 14.4628 42.467 10.7768 38.4282C7.06711 34.3629 5.02344 29.0909 5.02344 23.5824C5.02344 21.4554 5.3262 19.3513 5.92493 17.3289C6.11544 16.6826 6.33911 16.037 6.58915 15.4111C8.20504 11.368 10.9605 7.91934 14.558 5.43768C18.2414 2.89818 22.5618 1.55444 27.0522 1.55444C31.5427 1.55444 35.9099 2.91179 39.606 5.47935C43.2171 7.98823 45.9709 11.47 47.5689 15.5472C47.8266 16.2054 48.0554 16.8841 48.2484 17.5645C48.8012 19.5112 49.081 21.5353 49.081 23.5815C49.081 29.09 47.0374 34.3621 43.3268 38.4282C39.6409 42.467 34.6256 44.981 29.2065 45.5066C28.4921 45.5755 27.7675 45.6103 27.0531 45.6103L27.0522 45.6112ZM27.0522 2.40491C22.7344 2.40491 18.5807 3.69592 15.0411 6.13846C11.5822 8.52487 8.93304 11.84 7.37923 15.7275C7.1394 16.3288 6.92423 16.9488 6.74053 17.5704C6.16561 19.5146 5.8739 21.537 5.8739 23.5824C5.8739 28.8774 7.83848 33.9462 11.4053 37.8549C14.9492 41.7382 19.7697 44.1543 24.9788 44.6604C26.3455 44.7939 27.7471 44.7948 29.124 44.6604C34.3331 44.1552 39.1544 41.7382 42.6983 37.8549C46.2651 33.9462 48.2297 28.8774 48.2297 23.5815C48.2297 21.6144 47.9601 19.6677 47.4294 17.7967C47.244 17.1427 47.0246 16.4903 46.7763 15.8576C45.2395 11.9369 42.592 8.58951 39.1204 6.17758C35.568 3.70953 31.3947 2.40491 27.0522 2.40491Z" fill="#002D59"/>
<path d="M41.3699 14.6834L10.1756 22.3461C9.47309 22.5187 9.19074 23.3649 9.64914 23.9245L11.9726 26.7634C13.0561 28.0876 14.8047 28.671 16.4665 28.2628L31.9118 24.4688C35.0594 23.6958 37.7724 21.7074 39.458 18.9391L41.7415 15.1885C41.8989 14.93 41.665 14.6102 41.3707 14.6825L41.3699 14.6834Z" fill="white"/>
</g>
</g>
</g>
<path d="M38.293 29.2039L27.051 17.9626L15.8098 29.2039" stroke="#002D59" stroke-width="3" stroke-linecap="round" stroke-linejoin="round"/>
<defs>
<filter id="filter0_d_964_2270" x="0.864987" y="0.601074" width="52.3755" height="52.375" filterUnits="userSpaceOnUse" color-interpolation-filters="sRGB">
<feFlood flood-opacity="0" result="BackgroundImageFix"/>
<feColorMatrix in="SourceAlpha" type="matrix" values="0 0 0 0 0 0 0 0 0 0 0 0 0 0 0 0 0 0 127 0" result="hardAlpha"/>
<feOffset dy="3.20533"/>
<feGaussianBlur stdDeviation="1.60266"/>
<feComposite in2="hardAlpha" operator="out"/>
<feColorMatrix type="matrix" values="0 0 0 0 0 0 0 0 0 0 0 0 0 0 0 0 0 0 0.25 0"/>
<feBlend mode="normal" in2="BackgroundImageFix" result="effect1_dropShadow_964_2270"/>
<feBlend mode="normal" in="SourceGraphic" in2="effect1_dropShadow_964_2270" result="shape"/>
</filter>
<filter id="filter1_d_964_2270" x="2.10507" y="1.55444" width="49.8953" height="49.8934" filterUnits="userSpaceOnUse" color-interpolation-filters="sRGB">
<feFlood flood-opacity="0" result="BackgroundImageFix"/>
<feColorMatrix in="SourceAlpha" type="matrix" values="0 0 0 0 0 0 0 0 0 0 0 0 0 0 0 0 0 0 127 0" result="hardAlpha"/>
<feOffset dy="2.91837"/>
<feGaussianBlur stdDeviation="1.45919"/>
<feComposite in2="hardAlpha" operator="out"/>
<feColorMatrix type="matrix" values="0 0 0 0 0 0 0 0 0 0 0 0 0 0 0 0 0 0 0.25 0"/>
<feBlend mode="normal" in2="BackgroundImageFix" result="effect1_dropShadow_964_2270"/>
<feBlend mode="normal" in="SourceGraphic" in2="effect1_dropShadow_964_2270" result="shape"/>
</filter>
</defs>
</svg>
