<svg width="170" height="308" viewBox="0 0 170 308" fill="none" xmlns="http://www.w3.org/2000/svg">
<path d="M87.2285 306.775L85.9482 303.874C85.6902 303.285 79.5323 289.25 74.489 268.741C69.8109 249.727 65.2983 221.386 70.361 194.354C78.2666 152.124 98.4346 121.694 113.959 103.61C113.959 103.61 114.489 102.997 114.708 102.743L118.413 98.5132L122.069 102.787L122.774 103.605C138.308 121.694 158.476 152.114 166.382 194.359C169.176 209.279 170.724 234.296 162.254 268.751C157.211 289.26 151.053 303.294 150.795 303.883L149.514 306.785H87.2285V306.775Z" fill="white"/>
<path d="M150.152 307.748H86.5955L85.0572 304.268C84.7943 303.679 78.6023 289.557 73.5445 268.975C68.8469 249.868 64.3099 221.376 69.4018 194.174C77.3463 151.73 97.6166 121.149 113.218 102.972C113.218 102.972 113.754 102.354 113.978 102.096L118.422 97.0186L123.514 102.962C139.121 121.139 159.396 151.715 167.341 194.169C170.149 209.186 171.712 234.354 163.198 268.97C158.135 289.562 151.943 303.669 151.685 304.263L150.147 307.743L150.152 307.748ZM87.866 305.801H148.881L149.908 303.479C150.166 302.895 156.29 288.938 161.314 268.508C169.745 234.227 168.207 209.357 165.432 194.529C157.566 152.499 137.495 122.225 122.039 104.233L118.408 99.9929L115.443 103.376C115.224 103.629 114.698 104.238 114.698 104.238C99.2522 122.235 79.1864 152.509 71.3198 194.529C66.2912 221.39 70.7843 249.586 75.4381 268.508C80.457 288.924 86.5858 302.895 86.8438 303.479L87.8709 305.801H87.866Z" fill="#C7C6C7"/>
<path d="M146.341 301.907H90.3979C90.3979 301.907 65.6588 245.925 75.1416 195.25C83.4951 150.625 105.82 120.56 117.649 106.779C117.892 106.497 118.131 106.219 118.369 105.947C118.603 106.219 118.841 106.497 119.085 106.779C130.919 120.56 153.243 150.625 161.597 195.25C171.08 245.925 146.341 301.907 146.341 301.907Z" fill="white"/>
<path d="M146.973 302.88H89.7595L89.5015 302.301C89.4382 302.16 83.2267 287.994 78.2614 267.816C73.6757 249.172 69.2459 221.42 74.1771 195.074C81.9221 153.692 101.686 123.875 116.903 106.151L117.025 106.005C117.23 105.771 117.429 105.537 117.629 105.309L118.369 104.462L119.814 106.146C135.032 123.87 154.796 153.682 162.545 195.074C167.477 221.425 163.047 249.177 158.461 267.816C153.501 287.994 147.284 302.16 147.221 302.301L146.963 302.88H146.973ZM91.0398 300.933H145.697C146.9 298.085 152.23 285.044 156.587 267.31C161.119 248.865 165.5 221.42 160.637 195.43C152.97 154.48 133.425 124.98 118.364 107.436C103.307 124.985 83.7573 154.49 76.0951 195.43C71.232 221.424 75.6132 248.865 80.1453 267.31C84.5021 285.044 89.8325 298.085 91.0349 300.933H91.0398Z" fill="#C7C6C7"/>
<path d="M16.078 306.775L15.2942 302.866C8.6884 269.915 0.972656 216.42 0.972656 174.079C0.972656 128.802 4.8427 86.1827 11.8769 54.0784C19.5878 18.8391 29.9517 0.973633 42.6766 0.973633C55.4015 0.973633 65.7654 18.8391 73.4811 54.0735C80.5105 86.1827 84.3805 128.797 84.3805 174.074C84.3805 216.411 76.6648 269.91 70.0638 302.856L69.2801 306.765H16.078V306.775Z" fill="white"/>
<path d="M70.0794 307.749H15.2806L14.3411 303.056C7.72548 270.065 0 216.489 0 174.079C0 128.734 3.87978 86.0415 10.9237 53.869C18.7514 18.1235 29.4318 0 42.6775 0C55.9233 0 66.6036 18.1235 74.4313 53.869C81.4753 86.0415 85.3551 128.734 85.3551 174.079C85.3551 216.484 77.6296 270.061 71.0189 303.056L70.0794 307.749ZM16.8773 305.801H68.4827L69.1106 302.671C75.7067 269.764 83.4128 216.343 83.4128 174.079C83.4128 128.87 79.5476 86.3238 72.5328 54.2828C64.9242 19.5547 54.8815 1.94719 42.6775 1.94719C30.4735 1.94719 20.4309 19.5547 12.8271 54.2828C5.81236 86.3287 1.94719 128.87 1.94719 174.079C1.94719 216.347 9.64833 269.769 16.2493 302.671L16.8773 305.801Z" fill="#C7C6C7"/>
<path d="M65.2895 301.907C71.2917 271.979 79.5137 217.856 79.5137 174.079C79.5137 81.1637 63.021 5.84155 42.6778 5.84155C22.3345 5.84155 5.8418 81.1637 5.8418 174.079C5.8418 217.856 14.0638 271.979 20.066 301.907H65.2895Z" fill="white"/>
<path d="M66.0868 302.881H19.2667L19.1109 302.097C12.5391 269.326 4.86719 216.129 4.86719 174.079C4.86719 129.075 8.70802 86.7524 15.679 54.9109C19.7729 36.2228 28.7203 4.86816 42.6767 4.86816C56.6332 4.86816 65.5806 36.2179 69.6745 54.9109C76.6455 86.7524 80.4863 129.075 80.4863 174.079C80.4863 216.133 72.8144 269.326 66.2426 302.097L66.0868 302.881ZM20.8634 300.934H64.4901C71.0084 268.187 78.5391 215.656 78.5391 174.079C78.5391 129.211 74.7178 87.0347 67.7712 55.3247C61.0241 24.4958 51.8772 6.81535 42.6767 6.81535C33.4763 6.81535 24.3293 24.4958 17.5823 55.3247C10.6406 87.0347 6.81438 129.206 6.81438 174.079C6.81438 215.656 14.3451 268.187 20.8634 300.934Z" fill="#C7C6C7"/>
<path d="M42.6772 251.061C34.7959 251.061 28.4043 244.708 28.4043 236.243C28.4043 227.778 34.7181 221.503 42.6772 221.503C50.6363 221.503 56.9501 227.855 56.9501 236.321C56.9501 244.786 50.6363 251.061 42.6772 251.061ZM42.6772 229.262C38.7195 229.262 35.2681 232.125 35.2681 236.321C35.2681 240.517 38.6416 243.263 42.6772 243.263C46.7128 243.263 50.0863 240.4 50.0863 236.243C50.0863 232.086 46.7128 229.262 42.6772 229.262Z" fill="#C7C6C7"/>
<path d="M42.6772 219.263C34.6791 219.263 28.4043 213.11 28.4043 204.796C28.4043 199.188 30.8334 195.697 34.2069 193.268L38.5199 198.837C36.5582 200.405 35.346 202.25 35.346 204.874C35.346 208.714 38.5978 211.421 42.6772 211.421C46.7566 211.421 50.0084 208.714 50.0084 204.874C50.0084 202.011 48.6745 200.327 46.6738 198.677L50.7532 192.952C54.3214 195.542 56.9452 199.027 56.9452 205.107C56.9452 212.95 50.9479 219.258 42.6723 219.258L42.6772 219.263Z" fill="#C7C6C7"/>
<path d="M35.6193 183.781V192.013H28.9551V167.94H35.6193V176.172H56.4007V183.781H35.6193Z" fill="#C7C6C7"/>
<path d="M28.9551 165.39V153.629C28.9551 146.687 32.5233 142.218 38.6764 142.218C45.146 142.218 48.5584 147.198 48.5584 154.018V157.781H56.4007V165.385H28.9551V165.39ZM42.6 154.179C42.6 151.472 41.1883 149.827 38.9539 149.827C36.6027 149.827 35.3467 151.472 35.3467 154.218V157.786H42.6V154.179Z" fill="#C7C6C7"/>
<path d="M42.6772 140.728C34.7959 140.728 28.4043 134.376 28.4043 125.905C28.4043 117.435 34.7181 111.165 42.6772 111.165C50.6363 111.165 56.9501 117.518 56.9501 125.988C56.9501 134.458 50.6363 140.728 42.6772 140.728ZM42.6772 118.929C38.7195 118.929 35.2681 121.792 35.2681 125.988C35.2681 130.184 38.6416 132.925 42.6772 132.925C46.7128 132.925 50.0863 130.063 50.0863 125.905C50.0863 121.748 46.7128 118.925 42.6772 118.925V118.929Z" fill="#C7C6C7"/>
<path d="M28.9551 107.986V93.908C28.9551 90.4566 29.8167 88.0275 31.4231 86.4211C32.5184 85.3258 33.9691 84.6589 35.9309 84.6589C39.1048 84.6589 40.9887 86.46 42.0451 88.894C43.1452 85.5595 45.0243 83.4419 48.8262 83.4419C53.5286 83.4419 56.391 87.2827 56.391 93.8302V107.986H28.9551ZM39.8934 95.7919C39.8934 93.4797 39.1097 92.1848 37.4254 92.1848C35.9358 92.1848 35.0741 93.3628 35.0741 95.6362V100.577H39.8983V95.7919H39.8934ZM50.2817 94.6967C50.2817 92.3844 49.3811 91.0505 47.6919 91.0505C46.2023 91.0505 45.2239 92.2286 45.2239 94.7745V100.577H50.2817V94.6967Z" fill="#C7C6C7"/>
</svg>
