<svg width="23" height="26" viewBox="0 0 23 26" fill="none" xmlns="http://www.w3.org/2000/svg">
<path d="M2.32911 8.13874C2.80964 8.2328 2.87749 8.25533 2.8581 8.33747C2.85256 8.39577 2.91903 8.48851 3.0589 8.5998L3.27216 8.77469L3.08382 9.18806C2.07846 11.4325 2.04246 13.9802 2.97996 16.1783C3.10875 16.4697 3.22369 16.7493 3.23615 16.7904C3.25415 16.842 3.18768 16.9242 3.05336 17.0236C2.91349 17.1348 2.85256 17.2104 2.86503 17.2793C2.87749 17.3667 2.82764 17.3905 2.32911 17.4833C1.33068 17.6754 0.940165 17.8861 0.721367 18.3405C0.587042 18.6201 0.574579 18.7486 0.678439 18.9407C0.825227 19.2083 1.44561 19.2838 1.88459 19.0798C2.13386 18.9632 2.55483 18.5909 2.96335 18.1298C3.1586 17.902 3.20707 17.8728 3.268 17.9258C3.33586 17.9775 3.39679 17.9722 3.60866 17.9139C3.75406 17.8728 3.88839 17.8556 3.90778 17.8728C3.92578 17.89 4.06564 18.0715 4.21797 18.269C5.089 19.3938 6.35609 20.3795 7.73257 20.9983C8.5676 21.3772 9.72529 21.6978 10.5589 21.7853C11.1807 21.8555 11.1433 21.8316 11.2167 22.1284C11.2596 22.3205 11.3026 22.408 11.369 22.4199C11.4355 22.4371 11.4549 22.4729 11.43 22.5246C11.412 22.5656 11.3206 22.8213 11.2292 23.085C10.9121 23.9886 10.9425 24.4258 11.3566 24.8392C11.6792 25.1545 11.8385 25.1545 12.1611 24.8339C12.6306 24.3728 12.6126 23.8309 12.0822 22.514C12.0642 22.4729 12.0947 22.4384 12.1556 22.4212C12.229 22.404 12.2595 22.3391 12.283 22.1827C12.301 22.0661 12.3315 21.9495 12.3564 21.9151C12.3744 21.886 12.6555 21.8277 12.9712 21.7919C15.3891 21.4885 17.5881 20.3106 19.1045 18.5088C19.3178 18.2584 19.5185 18.0013 19.5615 17.943C19.6349 17.8384 19.6404 17.8384 19.9021 17.9073C20.1154 17.9709 20.1819 17.9709 20.2428 17.9245C20.3037 17.8781 20.3591 17.9126 20.5474 18.1285C20.974 18.6068 21.388 18.9619 21.6373 19.0851C22.0818 19.2891 22.6911 19.2136 22.8434 18.9327C22.9404 18.7459 22.9279 18.6174 22.795 18.3379C22.5762 17.8834 22.1857 17.6728 21.1872 17.4806C20.7067 17.3866 20.6388 17.364 20.6568 17.2819C20.6624 17.2236 20.5959 17.1309 20.4561 17.0196L20.2428 16.8447L20.4256 16.4419C20.913 15.3462 21.1498 14.326 21.1997 13.1191C21.2482 11.7147 21.0114 10.4785 20.4325 9.18409L20.2442 8.77072L20.4574 8.59583C20.5918 8.47924 20.6638 8.3865 20.6527 8.3282C20.6402 8.25268 20.7136 8.22883 21.1886 8.13609C22.187 7.94398 22.5776 7.73332 22.7964 7.2855C22.9307 7.00065 22.9431 6.87213 22.8448 6.68532C22.698 6.41769 22.0956 6.33554 21.6511 6.52765C21.4129 6.62702 20.92 7.06424 20.5239 7.51338C20.3536 7.71079 20.3106 7.73994 20.2442 7.69357C20.1832 7.6472 20.1168 7.6472 19.9035 7.71079C19.6418 7.78631 19.6349 7.78101 19.5629 7.67634C19.5199 7.61805 19.3191 7.36102 19.1059 7.11061C17.602 5.31537 15.396 4.13752 12.9726 3.83412C12.6555 3.79305 12.3758 3.73475 12.3578 3.70561C12.3342 3.67116 12.3038 3.55457 12.2844 3.43798C12.2595 3.28031 12.229 3.21671 12.157 3.19949C12.0961 3.18227 12.0656 3.1465 12.0836 3.11205C12.0961 3.07098 12.1875 2.82587 12.2844 2.55161C12.607 1.64273 12.5766 1.19358 12.1625 0.785514C11.8399 0.464887 11.6806 0.464887 11.358 0.785514C10.9439 1.19358 10.9134 1.63081 11.2306 2.53439C11.322 2.80202 11.4134 3.05375 11.4314 3.0935C11.4563 3.1465 11.4369 3.18094 11.3704 3.19817C11.304 3.21009 11.261 3.29753 11.2181 3.48965C11.1821 3.63538 11.1447 3.75728 11.1322 3.75728C11.1198 3.75728 10.8525 3.79305 10.5354 3.8328C8.53714 4.0832 6.70367 4.92319 5.22471 6.264C4.85359 6.60185 4.18335 7.34909 3.95763 7.67502C3.88423 7.77969 3.8787 7.78631 3.61697 7.70947C3.39817 7.64587 3.33724 7.64587 3.26939 7.69224C3.20846 7.74524 3.15999 7.71609 2.96473 7.49483C2.55068 7.01654 2.10616 6.6257 1.86798 6.52765C1.42346 6.33554 0.819688 6.41636 0.674284 6.68532C0.577349 6.87213 0.589812 7.00065 0.722752 7.2855C0.941549 7.73464 1.33206 7.94398 2.3305 8.13609M11.1378 16.2631C10.6877 17.0037 10.6573 18.0186 11.0339 19.5051C11.1004 19.7727 11.1558 20.0072 11.1558 20.0178C11.1558 20.0589 10.7847 20.0298 10.3817 19.9595C9.85823 19.8721 8.92073 19.5687 8.42082 19.3302C7.78104 19.0215 7.11773 18.5671 6.59289 18.0821C6.14145 17.6675 5.5086 16.9454 5.55706 16.9096C5.56953 16.8977 5.78279 16.8341 6.03205 16.7639C7.66472 16.2922 8.46236 15.8192 8.95535 15.0322C9.02874 14.9223 9.10767 14.8454 9.14368 14.8573C9.18107 14.8693 9.29601 14.8401 9.4054 14.799L9.6062 14.7235L9.88039 14.9395C10.185 15.178 10.4523 15.3184 10.8304 15.4469C11.0741 15.5291 11.0796 15.5397 11.1225 15.7622C11.1461 15.8908 11.1904 16.0073 11.2139 16.0193C11.2389 16.0365 11.2015 16.1478 11.135 16.2644M16.9151 18.0888C15.8862 19.0334 14.6192 19.6694 13.2053 19.9423C12.614 20.0589 12.3342 20.0708 12.3702 19.9715C12.3882 19.937 12.4561 19.6628 12.5226 19.3647C12.8577 17.9483 12.8148 17.0328 12.3938 16.3094C12.3149 16.1637 12.2664 16.0418 12.2913 16.0232C12.3218 16.006 12.3647 15.8894 12.3882 15.7609C12.4312 15.5397 12.4367 15.5277 12.6804 15.4456C13.0585 15.3171 13.3258 15.1766 13.6249 14.9381L13.8991 14.7275L14.0819 14.7977C14.1857 14.8388 14.3006 14.8613 14.3491 14.856C14.4045 14.8441 14.4765 14.9143 14.5679 15.06C15.0069 15.7887 15.9389 16.3306 17.4552 16.7572C17.7169 16.8275 17.9427 16.8977 17.9551 16.9083C18.0036 16.9494 17.3583 17.6728 16.9138 18.0861M18.5644 9.7432C18.5824 9.7432 18.6683 9.91279 18.7472 10.1168C19.1308 11.0615 19.2707 11.7849 19.2776 12.7574C19.2776 13.7603 19.1197 14.5884 18.7597 15.4853C18.6738 15.6947 18.5838 15.8696 18.5644 15.8696C18.545 15.8696 18.4481 15.794 18.3567 15.7C18.0825 15.4257 17.4123 14.8958 17.0162 14.6334C16.5052 14.3009 15.9929 14.1021 15.4445 14.0385C15.018 13.9869 14.982 13.9683 14.7687 13.7881L14.5499 13.596L14.6053 13.3801C14.6662 13.1058 14.6662 12.5109 14.6053 12.2314L14.5499 12.022L14.7812 11.818C14.9695 11.655 15.0554 11.6087 15.2008 11.6087C16.0109 11.6087 16.9179 11.1542 17.9842 10.2268C18.2819 9.96446 18.5437 9.7485 18.563 9.7432M12.3924 9.30598C12.8134 8.58921 12.8563 7.6737 12.5212 6.25737C12.4547 5.95397 12.3869 5.67972 12.3689 5.64527C12.3329 5.55782 12.5212 5.55782 13.0876 5.65189C13.6484 5.74463 14.5735 6.04274 15.0914 6.28785C15.7436 6.60317 16.4014 7.05761 16.9484 7.56505C17.4538 8.03804 17.9537 8.621 17.9053 8.6846C17.8928 8.70182 17.5521 8.81841 17.1561 8.94693C15.8405 9.3603 15.1343 9.78029 14.6773 10.4215C14.5125 10.6494 14.3976 10.7713 14.3422 10.7594C14.2993 10.7541 14.1843 10.7766 14.0805 10.8177C13.9766 10.8588 13.8921 10.8932 13.8852 10.8932C13.8852 10.8932 13.7758 10.8058 13.6539 10.7011C13.3978 10.4851 12.9352 10.2347 12.6306 10.1526C12.4423 10.0943 12.4243 10.0824 12.3869 9.86111C12.3619 9.7326 12.3204 9.61071 12.2899 9.59348C12.265 9.58156 12.3149 9.45304 12.3924 9.3073M11.7526 11.4695C12.5073 11.4695 13.154 12.0883 13.154 12.8104C13.154 13.3403 12.7455 13.9007 12.2345 14.0703C11.6931 14.2452 11.1752 14.1286 10.7722 13.7497C10.4925 13.4755 10.3526 13.1667 10.3526 12.8104C10.3526 12.087 10.9979 11.4695 11.754 11.4695M6.57073 7.5571C7.62456 6.5833 8.87918 5.95397 10.3041 5.67442C10.5714 5.62274 10.8761 5.58167 10.9799 5.58167C11.1572 5.58167 11.1627 5.58697 11.1322 5.71019C10.6517 7.50543 10.6517 8.56138 11.1322 9.3603C11.1987 9.47689 11.2361 9.58156 11.2112 9.59878C11.1862 9.61071 11.1433 9.7326 11.1198 9.86111C11.0838 10.0771 11.0644 10.0943 10.8761 10.1526C10.5659 10.24 10.1823 10.4441 9.88316 10.6773C9.73083 10.8005 9.59651 10.8932 9.59097 10.8932C9.58543 10.8932 9.49957 10.8588 9.40264 10.8177C9.30431 10.7766 9.18938 10.7541 9.14091 10.766C9.07998 10.7832 9.01905 10.7197 8.90965 10.5448C8.49559 9.84521 7.71596 9.36693 6.24808 8.91248C5.90049 8.80782 5.6083 8.70315 5.59584 8.68592C5.55291 8.6157 6.07082 8.02082 6.57073 7.56108M4.47554 10.9595C4.5974 10.5156 4.88959 9.74717 4.93252 9.74717C4.95053 9.74717 5.21917 9.96843 5.52937 10.2374C6.22453 10.827 6.61366 11.0946 7.09557 11.3106C7.47362 11.4854 7.99707 11.614 8.30726 11.614C8.45405 11.614 8.53852 11.6603 8.72686 11.818L8.95812 12.0273L8.90965 12.2367C8.84318 12.5109 8.84318 13.1111 8.90965 13.3854L8.95812 13.5947L8.73932 13.7921C8.52606 13.9736 8.49006 13.9908 8.06908 14.0425C7.82536 14.0717 7.5027 14.1419 7.35037 14.1949C6.79645 14.3936 6.08882 14.86 5.39504 15.4893C5.15686 15.6986 4.95053 15.8735 4.93252 15.8735C4.89513 15.8735 4.63479 15.2031 4.50601 14.7951C4.14596 13.6225 4.13488 12.2128 4.47554 10.9581" fill="#002D59"/>
</svg>
