<svg width="20" height="25" viewBox="0 0 20 25" fill="none" xmlns="http://www.w3.org/2000/svg">
<path d="M1.86325 18.3788L2.18597 17.9187L2.74403 18.7698C3.82914 20.4408 5.59491 21.838 7.81445 22.7949C8.46552 23.0744 9.26456 23.5655 9.65633 23.9127L10.3384 24.5337L10.9458 23.9748C11.2798 23.6699 12.3719 23.0179 13.3753 22.5338C14.8325 21.8324 15.4215 21.4471 16.2952 20.6398C16.897 20.0809 17.634 19.2426 17.9384 18.7712L18.4908 17.9201L18.8135 18.3802C19.2166 18.9462 19.3646 18.8206 19.6323 17.6844C19.8367 16.8151 19.917 14.8279 19.7493 14.8279C19.2166 14.8279 16.601 16.7911 16.601 17.1877C16.601 17.2498 16.8491 17.3485 17.1464 17.405L17.6918 17.5109L17.3324 17.7959C16.2544 18.6399 13.8305 19.6095 12.014 19.9144L11.4742 20.0019L11.3883 18.4861C11.3446 17.6534 11.2643 15.0269 11.2149 12.6544L11.129 8.33854H12.4494C13.4415 8.33854 13.8136 8.39358 13.9503 8.55589C14.0489 8.68008 14.3279 8.77888 14.5577 8.77888C15.4441 8.77888 15.9091 7.64274 15.2764 7.00905C14.9297 6.66186 14.2096 6.61811 13.9503 6.93425C13.8136 7.1022 13.4415 7.15724 12.4748 7.15724H11.1797L11.074 6.23846C10.9881 5.44952 11.0064 5.30133 11.222 5.17007C12.2507 4.55473 12.6594 3.90269 12.6594 2.85971C12.6594 1.93387 12.2127 1.21973 11.3953 0.82314C10.6202 0.4449 10.0805 0.437841 9.29415 0.799145C7.50865 1.61208 7.58898 4.13415 9.44353 5.17148C9.68451 5.30274 9.70424 5.43258 9.61123 6.23987L9.50554 7.15866H8.20904C7.2423 7.15866 6.87027 7.1022 6.73357 6.93566C6.63493 6.81146 6.36153 6.71267 6.12619 6.71267C5.23978 6.71267 4.77474 7.85586 5.40749 8.48814C5.75416 8.83533 6.47427 8.87344 6.73357 8.55589C6.87027 8.39358 7.24231 8.33854 8.24005 8.33854H9.5605L9.47313 12.5062C9.4238 14.7983 9.34347 17.4248 9.29274 18.3379L9.20537 20.0019L8.66564 19.9144C6.82518 19.6039 4.48725 18.6724 3.34717 17.7903L2.98782 17.5109L3.5332 17.405C3.83618 17.3485 4.07857 17.2498 4.07857 17.1806C4.07857 16.7826 1.45739 14.8265 0.930341 14.8265C0.762642 14.8265 0.842963 16.8136 1.04871 17.683C1.31506 18.8192 1.46444 18.9434 1.86608 18.3788M9.01935 2.85265C9.01935 2.37985 9.10532 2.1752 9.42803 1.90282C10.1411 1.28888 11.0952 1.47377 11.5236 2.30082C11.8082 2.847 11.7039 3.46235 11.2516 3.87164C10.3285 4.70998 9.02076 4.11439 9.02076 2.85265" fill="white"/>
</svg>
