<svg width="41" height="41" viewBox="0 0 41 41" fill="none" xmlns="http://www.w3.org/2000/svg">
<path fill-rule="evenodd" clip-rule="evenodd" d="M39.9153 20.2699C39.9153 30.5225 32.101 38.9502 22.1035 39.9202C21.4685 39.9816 20.8242 40.0135 20.1729 40.0135C19.5216 40.0135 18.8765 39.9816 18.2407 39.9194C8.24396 38.9494 0.429688 30.5218 0.429688 20.2699C0.429688 18.3229 0.711822 16.442 1.23723 14.6652C1.40977 14.0807 1.60874 13.5071 1.83259 12.9467C4.74176 5.66935 11.8565 0.5271 20.1729 0.5271C28.4892 0.5271 35.6833 5.72687 38.5606 13.0687C38.7914 13.6579 38.995 14.2618 39.1691 14.8766C39.6557 16.5912 39.9153 18.3998 39.9153 20.2699Z" fill="white"/>
<path d="M20.1709 40.402C19.5141 40.402 18.8519 40.3694 18.2006 40.3064C13.2481 39.8261 8.66554 37.5286 5.29702 33.8374C1.90675 30.1222 0.0390625 25.3041 0.0390625 20.2698C0.0390625 18.326 0.315756 16.403 0.862926 14.5548C1.0378 13.9633 1.24144 13.3741 1.46994 12.8021C2.94668 9.10705 5.4649 5.95533 8.75259 3.68733C12.118 1.3657 16.0663 0.138428 20.1709 0.138428C24.2754 0.138428 28.2657 1.37891 31.6436 3.72541C34.9437 6.01828 37.4603 9.20032 38.9208 12.9264C39.1563 13.528 39.3653 14.1483 39.5418 14.7701C40.047 16.5492 40.3027 18.3998 40.3027 20.2691C40.3027 25.3033 38.435 30.1214 35.0439 33.8374C31.6754 37.5286 27.0921 39.8261 22.1396 40.3064C21.4867 40.3694 20.8245 40.4013 20.1716 40.4013L20.1709 40.402ZM20.1709 0.915672C16.2249 0.915672 12.4289 2.09553 9.19405 4.32778C6.03306 6.50872 3.61199 9.53842 2.19199 13.0912C1.97281 13.6407 1.77617 14.2073 1.60829 14.7755C1.08288 16.5523 0.816292 18.4006 0.816292 20.2698C0.816292 25.109 2.61169 29.7413 5.87139 33.3136C9.11011 36.8625 13.5154 39.0706 18.276 39.5331C19.525 39.6551 20.8059 39.6559 22.0642 39.5331C26.8247 39.0714 31.2308 36.8625 34.4696 33.3136C37.7293 29.7413 39.5247 25.109 39.5247 20.2691C39.5247 18.4713 39.2783 16.6922 38.7933 14.9815C38.6239 14.3838 38.4233 13.7876 38.1964 13.2094C36.7919 9.62625 34.3724 6.56702 31.1998 4.36275C27.9533 2.10719 24.1394 0.914895 20.1709 0.914895V0.915672Z" fill="#002D59"/>
<path d="M11.0518 23.7729H9.79431L10.0055 24.4793L11.0518 26.0513L12.3827 27.2591L13.9163 28.1792C14.6065 28.5563 16.0213 29.318 16.1593 29.3486C16.3318 29.387 17.9613 29.773 18.1338 29.9053C18.2719 30.0112 18.6514 29.8612 18.824 29.773V19.0302H13.7821C13.6288 19.0302 13.3348 18.8288 13.207 18.7282C13.0728 18.5045 12.8044 18.0227 12.8044 17.8847C12.8044 17.7121 12.9386 17.5522 12.9961 17.3671C13.0422 17.2189 13.1559 16.8994 13.207 16.7581L18.824 16.5596V14.3757H21.111V16.5596H26.0523L26.8905 16.7581L27.464 17.5522V18.3464C27.1699 18.5302 26.5552 18.8978 26.4493 18.8978H21.3096V29.9053C21.611 29.8759 22.2405 29.8083 22.3463 29.773C22.4522 29.7377 24.1699 29.3465 25.0155 29.1553L28.1479 26.9935L29.9788 25.0964L30.5082 23.7729L29.2949 23.5744L29.9788 21.8758L31.9641 18.8978L34.5229 23.5744H32.8906L32.0964 24.8758L30.9053 26.817C30.0376 27.5597 28.2714 29.0671 28.1479 29.1553C27.9935 29.2656 24.9052 30.7877 24.7728 30.8318C24.667 30.8671 22.4199 31.3906 21.3096 31.648C21.2581 32.3392 21.1463 33.7657 21.111 33.9421C21.0757 34.1186 20.6698 34.3392 20.4713 34.4274C20.236 34.4495 19.7301 34.4804 19.589 34.4274C19.4478 34.3745 19.1919 34.0818 19.0816 33.9421L18.7728 31.648L17.7581 31.4053C16.6036 31.1259 14.2551 30.5539 14.0962 30.5009C13.8977 30.4347 11.758 28.9788 11.6697 28.8906C11.5815 28.8024 9.30942 26.7509 9.22119 26.6626C9.1506 26.592 8.00059 24.7067 7.4344 23.7729L5.75781 23.5744L8.1405 19.2287L8.47109 19.0302L11.0518 23.7729Z" fill="white"/>
<mask id="mask0_909_6329" style="mask-type:alpha" maskUnits="userSpaceOnUse" x="0" y="0" width="40" height="40">
<path fill-rule="evenodd" clip-rule="evenodd" d="M39.5803 20.2698C39.5803 30.3653 31.8857 38.6637 22.0412 39.6189C21.416 39.6793 20.7815 39.7107 20.1402 39.7107C19.4988 39.7107 18.8636 39.6793 18.2375 39.6181C8.39386 38.663 0.699219 30.3645 0.699219 20.2698C0.699219 18.3526 0.977034 16.5005 1.4944 14.751C1.6643 14.1754 1.86023 13.6106 2.08064 13.0588C4.94528 5.89302 11.9511 0.82959 20.1402 0.82959C28.3292 0.82959 35.4131 5.94966 38.2464 13.179C38.4737 13.7591 38.6742 14.3538 38.8456 14.9591C39.3247 16.6475 39.5803 18.4284 39.5803 20.2698Z" fill="white"/>
</mask>
<g mask="url(#mask0_909_6329)">
<path d="M-2.17578 29.3373V28.9799C-1.76068 28.9799 -1.34558 28.8664 -0.961685 28.6385C-0.728133 28.5005 -0.493635 28.3615 -0.259136 28.2234C0.509602 27.7686 1.40032 27.7686 2.16906 28.2234C2.40355 28.3615 2.63711 28.5005 2.8716 28.6385C3.64034 29.0933 4.53106 29.0933 5.2998 28.6385C5.53429 28.5005 5.76879 28.3615 6.00234 28.2234C6.77108 27.7686 7.6618 27.7686 8.43054 28.2234C8.66503 28.3615 8.89953 28.5005 9.13309 28.6385C9.90182 29.0933 10.7925 29.0933 11.5613 28.6385C11.7958 28.5005 12.0303 28.3615 12.2638 28.2234C13.0326 27.7686 13.9233 27.7686 14.692 28.2234C14.9265 28.3615 15.1601 28.5005 15.3946 28.6385C16.1633 29.0933 17.054 29.0933 17.8237 28.6385C18.0582 28.5005 18.2918 28.3615 18.5263 28.2234C19.295 27.7686 20.1857 27.7686 20.9544 28.2234C21.1889 28.3615 21.4225 28.5005 21.657 28.6385C22.4257 29.0933 23.3164 29.0933 24.0861 28.6385C24.3206 28.5005 24.5542 28.3615 24.7887 28.2234C25.5574 27.7686 26.4481 27.7686 27.2178 28.2234C27.4523 28.3615 27.6859 28.5005 27.9204 28.6385C28.6891 29.0933 29.5798 29.0933 30.3486 28.6385C30.5831 28.5005 30.8166 28.3615 31.0511 28.2234C31.8198 27.7686 32.7106 27.7686 33.4793 28.2234C33.7138 28.3615 33.9474 28.5005 34.1818 28.6385C34.9506 29.0933 35.8413 29.0933 36.61 28.6385C36.8445 28.5005 37.0781 28.3615 37.3126 28.2234C38.0813 27.7686 38.972 27.7686 39.7408 28.2234C39.9753 28.3615 40.2088 28.5005 40.4433 28.6385C40.8282 28.8664 41.2423 28.9799 41.6574 28.9799V29.3373C41.2423 29.3373 40.8272 29.2238 40.4433 28.996C40.2088 28.8579 39.9753 28.7189 39.7408 28.5809C38.972 28.126 38.0813 28.126 37.3126 28.5809C37.0781 28.7189 36.8436 28.8579 36.61 28.996C35.8413 29.4508 34.9506 29.4508 34.1818 28.996C33.9474 28.8579 33.7138 28.7189 33.4793 28.5809C32.7106 28.126 31.8198 28.126 31.0511 28.5809C30.8166 28.7189 30.5821 28.8579 30.3486 28.996C29.5789 29.4508 28.6891 29.4508 27.9204 28.996C27.6859 28.8579 27.4523 28.7189 27.2178 28.5809C26.4481 28.126 25.5584 28.126 24.7887 28.5809C24.5542 28.7189 24.3206 28.8579 24.0861 28.996C23.3174 29.4508 22.4267 29.4508 21.657 28.996C21.4225 28.8579 21.1889 28.7189 20.9544 28.5809C20.1857 28.126 19.295 28.126 18.5263 28.5809C18.2918 28.7189 18.0582 28.8579 17.8237 28.996C17.055 29.4508 16.1642 29.4508 15.3946 28.996C15.161 28.8579 14.9265 28.7189 14.692 28.5809C13.9233 28.126 13.0326 28.126 12.2638 28.5809C12.0293 28.7189 11.7958 28.8579 11.5613 28.996C10.7925 29.4508 9.90182 29.4508 9.13309 28.996C8.89859 28.8579 8.66409 28.7189 8.43054 28.5809C7.6618 28.126 6.77108 28.126 6.00234 28.5809C5.76785 28.7189 5.53429 28.8579 5.2998 28.996C4.53106 29.4508 3.64034 29.4508 2.8716 28.996C2.63711 28.8579 2.40355 28.7189 2.16906 28.5809C1.40032 28.126 0.509602 28.126 -0.259136 28.5809C-0.493635 28.7189 -0.727187 28.8579 -0.961685 28.996C-1.34653 29.2238 -1.76163 29.3373 -2.17578 29.3373Z" stroke="#002D59" stroke-width="0.39808" stroke-miterlimit="10"/>
<path d="M-2.17578 33.0832C-1.76068 33.0832 -1.34558 32.9697 -0.961685 32.7418C-0.728133 32.6038 -0.493635 32.4648 -0.259136 32.3267C0.509602 31.8719 1.40032 31.8719 2.16906 32.3267C2.40355 32.4648 2.63711 32.6038 2.8716 32.7418C3.64034 33.1966 4.53106 33.1966 5.2998 32.7418C5.53429 32.6038 5.76879 32.4648 6.00234 32.3267C6.77108 31.8719 7.6618 31.8719 8.43054 32.3267C8.66503 32.4648 8.89953 32.6038 9.13309 32.7418C9.90182 33.1966 10.7925 33.1966 11.5613 32.7418C11.7958 32.6038 12.0303 32.4648 12.2638 32.3267C13.0326 31.8719 13.9233 31.8719 14.692 32.3267C14.9265 32.4648 15.1601 32.6038 15.3946 32.7418C16.1642 33.1966 17.054 33.1966 17.8237 32.7418C18.0582 32.6038 18.2918 32.4648 18.5263 32.3267C19.295 31.8719 20.1857 31.8719 20.9544 32.3267C21.1889 32.4648 21.4225 32.6038 21.657 32.7418C22.4257 33.1966 23.3164 33.1966 24.0861 32.7418C24.3206 32.6038 24.5542 32.4648 24.7887 32.3267C25.5574 31.8719 26.4481 31.8719 27.2178 32.3267C27.4523 32.4648 27.6859 32.6038 27.9204 32.7418C28.6891 33.1966 29.5798 33.1966 30.3486 32.7418C30.5831 32.6038 30.8166 32.4648 31.0511 32.3267C31.8198 31.8719 32.7106 31.8719 33.4793 32.3267C33.7138 32.4648 33.9474 32.6038 34.1818 32.7418C34.9506 33.1966 35.8413 33.1966 36.61 32.7418C36.8445 32.6038 37.0781 32.4648 37.3126 32.3267C38.0813 31.8719 38.972 31.8719 39.7408 32.3267C39.9753 32.4648 40.2088 32.6038 40.4433 32.7418C40.8282 32.9687 41.2423 33.0832 41.6574 33.0832V32.7257C41.2423 32.7257 40.8272 32.6123 40.4433 32.3844C40.2088 32.2463 39.9753 32.1073 39.7408 31.9693C38.972 31.5145 38.0813 31.5145 37.3126 31.9693C37.0781 32.1073 36.8436 32.2463 36.61 32.3844C35.8413 32.8392 34.9506 32.8392 34.1818 32.3844C33.9474 32.2463 33.7138 32.1073 33.4793 31.9693C32.7106 31.5145 31.8198 31.5145 31.0511 31.9693C30.8166 32.1073 30.5821 32.2463 30.3486 32.3844C29.5789 32.8392 28.6891 32.8392 27.9204 32.3844C27.6859 32.2463 27.4523 32.1073 27.2178 31.9693C26.4481 31.5145 25.5584 31.5145 24.7887 31.9693C24.5542 32.1073 24.3206 32.2463 24.0861 32.3844C23.3174 32.8392 22.4267 32.8392 21.657 32.3844C21.4225 32.2463 21.1889 32.1073 20.9544 31.9693C20.1857 31.5145 19.295 31.5145 18.5263 31.9693C18.2918 32.1073 18.0582 32.2463 17.8237 32.3844C17.055 32.8392 16.1642 32.8392 15.3946 32.3844C15.161 32.2463 14.9265 32.1073 14.692 31.9693C13.9233 31.5145 13.0326 31.5145 12.2638 31.9693C12.0293 32.1073 11.7958 32.2463 11.5613 32.3844C10.7925 32.8392 9.90182 32.8392 9.13309 32.3844C8.89859 32.2463 8.66409 32.1073 8.43054 31.9693C7.6618 31.5145 6.77108 31.5145 6.00234 31.9693C5.76785 32.1073 5.53429 32.2463 5.2998 32.3844C4.53106 32.8392 3.64034 32.8392 2.8716 32.3844C2.63711 32.2463 2.40355 32.1073 2.16906 31.9693C1.40032 31.5145 0.509602 31.5145 -0.259136 31.9693C-0.493635 32.1073 -0.727187 32.2463 -0.961685 32.3844C-1.34653 32.6123 -1.76163 32.7257 -2.17578 32.7257V33.0832Z" stroke="#002D59" stroke-width="0.39808" stroke-miterlimit="10"/>
<path d="M-2.17578 36.8288V36.4713C-1.76068 36.4713 -1.34558 36.3579 -0.961685 36.13C-0.728133 35.9919 -0.493635 35.8529 -0.259136 35.7149C0.509602 35.2601 1.40032 35.2601 2.16906 35.7149C2.40355 35.8529 2.63711 35.9919 2.8716 36.13C3.64034 36.5848 4.53106 36.5848 5.2998 36.13C5.53429 35.9919 5.76879 35.8529 6.00234 35.7149C6.77108 35.2601 7.6618 35.2601 8.43054 35.7149C8.66503 35.8529 8.89953 35.9919 9.13309 36.13C9.90182 36.5848 10.7925 36.5848 11.5613 36.13C11.7958 35.9919 12.0303 35.8529 12.2638 35.7149C13.0326 35.2601 13.9233 35.2601 14.692 35.7149C14.9265 35.8529 15.1601 35.9919 15.3946 36.13C16.1633 36.5848 17.054 36.5848 17.8237 36.13C18.0582 35.9919 18.2918 35.8529 18.5263 35.7149C19.295 35.2601 20.1857 35.2601 20.9544 35.7149C21.1889 35.8529 21.4225 35.9919 21.657 36.13C22.4257 36.5848 23.3164 36.5848 24.0861 36.13C24.3206 35.9919 24.5542 35.8529 24.7887 35.7149C25.5574 35.2601 26.4481 35.2601 27.2178 35.7149C27.4523 35.8529 27.6859 35.9919 27.9204 36.13C28.6891 36.5848 29.5798 36.5848 30.3486 36.13C30.5831 35.9919 30.8166 35.8529 31.0511 35.7149C31.8198 35.2601 32.7106 35.2601 33.4793 35.7149C33.7138 35.8529 33.9474 35.9919 34.1818 36.13C34.9506 36.5848 35.8413 36.5848 36.61 36.13C36.8445 35.9919 37.0781 35.8529 37.3126 35.7149C38.0813 35.2601 38.972 35.2601 39.7408 35.7149C39.9753 35.8529 40.2088 35.9919 40.4433 36.13C40.8282 36.3579 41.2423 36.4713 41.6574 36.4713V36.8288C41.2423 36.8288 40.8272 36.7153 40.4433 36.4874C40.2088 36.3494 39.9753 36.2104 39.7408 36.0723C38.972 35.6175 38.0813 35.6175 37.3126 36.0723C37.0781 36.2113 36.8436 36.3494 36.61 36.4874C35.8413 36.9422 34.9506 36.9422 34.1818 36.4874C33.9474 36.3494 33.7138 36.2104 33.4793 36.0723C32.7106 35.6175 31.8198 35.6175 31.0511 36.0723C30.8166 36.2113 30.5821 36.3494 30.3486 36.4874C29.5789 36.9422 28.6891 36.9422 27.9204 36.4874C27.6859 36.3494 27.4523 36.2104 27.2178 36.0723C26.4481 35.6175 25.5584 35.6175 24.7887 36.0723C24.5542 36.2113 24.3206 36.3494 24.0861 36.4874C23.3174 36.9422 22.4267 36.9422 21.657 36.4874C21.4225 36.3494 21.1889 36.2104 20.9544 36.0723C20.1857 35.6175 19.295 35.6175 18.5263 36.0723C18.2918 36.2113 18.0582 36.3494 17.8237 36.4874C17.055 36.9422 16.1642 36.9422 15.3946 36.4874C15.161 36.3494 14.9265 36.2104 14.692 36.0723C13.9233 35.6175 13.0326 35.6175 12.2638 36.0723C12.0293 36.2113 11.7958 36.3494 11.5613 36.4874C10.7925 36.9422 9.90182 36.9422 9.13309 36.4874C8.89859 36.3494 8.66409 36.2104 8.43054 36.0723C7.6618 35.6175 6.77108 35.6175 6.00234 36.0723C5.76785 36.2113 5.53429 36.3494 5.2998 36.4874C4.53106 36.9422 3.64034 36.9422 2.8716 36.4874C2.63711 36.3494 2.40355 36.2104 2.16906 36.0723C1.40032 35.6175 0.509602 35.6175 -0.259136 36.0723C-0.493635 36.2113 -0.727187 36.3494 -0.961685 36.4874C-1.34653 36.7143 -1.76163 36.8288 -2.17578 36.8288Z" stroke="#002D59" stroke-width="0.39808" stroke-miterlimit="10"/>
</g>
<path d="M34.6299 22.2262L33.5161 20.2979L33.3685 20.0421L32.2438 18.0944L32.107 17.8573C32.0223 17.7104 31.8101 17.7104 31.7254 17.8573L30.464 20.0421L29.2033 22.2262C29.1186 22.3731 29.2243 22.5573 29.3937 22.5573H30.7546C28.8294 25.9438 25.3311 28.319 21.253 28.689V17.7415H26.3757C26.6843 17.7415 26.9633 17.6164 27.1654 17.4143C27.3675 17.2122 27.4926 16.9332 27.4926 16.6246C27.4926 16.0075 26.9929 15.5077 26.3757 15.5077H21.253V13.1799C21.3439 13.1526 21.4341 13.1223 21.5235 13.0881C23.542 12.3218 24.5562 10.0647 23.7907 8.04693C23.0243 6.02842 20.7672 5.01412 18.7488 5.77971C16.7311 6.54607 15.716 8.80319 16.4824 10.8217C16.9316 12.0047 17.8938 12.8433 19.0192 13.1791V15.5077H13.8981C13.281 15.5077 12.7812 16.0075 12.7812 16.6246C12.7812 17.2417 13.281 17.7415 13.8981 17.7415H19.0192V28.689C14.9419 28.319 11.4436 25.9438 9.51839 22.5573H10.8793C11.0488 22.5573 11.1545 22.3731 11.0697 22.2262L9.8083 20.0421L8.54686 17.8573C8.46214 17.7104 8.25073 17.7104 8.16524 17.8573L8.02922 18.0928L6.90457 20.0421L6.75612 20.2994L5.64313 22.2262C5.55841 22.3731 5.66411 22.5573 5.83355 22.5573H7.61029C9.70104 26.8982 13.982 29.9854 19.0192 30.3857V32.2037C19.0192 32.8208 19.7413 33.3206 20.1361 33.3206C20.531 33.3206 21.253 32.8208 21.253 32.2037V30.3857C26.291 29.9854 30.5712 26.8982 32.662 22.5573H34.4387C34.6089 22.5573 34.7146 22.3731 34.6299 22.2262ZM20.8582 11.3339C20.224 11.5748 19.5454 11.4777 19.0192 11.1318C18.6734 10.9056 18.3944 10.5714 18.2366 10.1556C17.8915 9.24777 18.2397 8.24746 19.0192 7.73681C19.1413 7.65598 19.2734 7.58758 19.4149 7.53395C20.0483 7.293 20.7268 7.39016 21.253 7.73603C21.5989 7.96221 21.8787 8.29643 22.0365 8.71225C22.3815 9.62085 22.0326 10.6219 21.253 11.1326C21.1318 11.2126 20.9996 11.2803 20.8582 11.3339Z" fill="white"/>
<path d="M20.1377 33.7093C19.5455 33.7093 18.6322 33.0626 18.6322 32.2038V30.7402C13.8227 30.2342 9.55107 27.2815 7.37016 22.946H5.83513C5.61829 22.946 5.41698 22.8294 5.30817 22.6421C5.19936 22.454 5.19936 22.2208 5.30817 22.0327L7.83028 17.6638C7.93987 17.4757 8.14195 17.3592 8.35802 17.3592H8.35958C8.57875 17.3592 8.77539 17.4734 8.88576 17.6638L11.4086 22.0327C11.5175 22.2208 11.5175 22.4548 11.4086 22.6429C11.3006 22.8302 11.0985 22.9468 10.8817 22.9468H10.2109C12.1012 25.8692 15.1837 27.817 18.633 28.2569V18.1302H13.9004C13.0704 18.1302 12.395 17.4548 12.395 16.6247C12.395 15.7946 13.0704 15.1191 13.9004 15.1191H18.633V13.4589C17.4718 13.0268 16.5656 12.1299 16.1218 10.9601C15.2808 8.74496 16.3985 6.25777 18.6136 5.41679C20.8294 4.57659 23.3158 5.69427 24.1568 7.90942C24.997 10.1246 23.8793 12.611 21.6642 13.4519C21.658 13.4543 21.651 13.4566 21.6448 13.4597V15.1199H26.3789C27.209 15.1199 27.8844 15.7953 27.8844 16.6254C27.8844 17.0273 27.7274 17.4058 27.4437 17.6903C27.1592 17.9747 26.7815 18.131 26.3789 18.131H21.6448V28.2569C25.0941 27.8178 28.1774 25.87 30.0676 22.9468H29.3969C29.18 22.9468 28.9787 22.8302 28.8699 22.6429C28.7611 22.4548 28.7611 22.2216 28.8699 22.0335L31.392 17.6646C31.5 17.4765 31.7021 17.3599 31.9197 17.3599C32.1366 17.3599 32.3387 17.4765 32.4475 17.6646L34.9704 22.0335C35.0784 22.2216 35.0784 22.4548 34.9704 22.6429C34.8616 22.831 34.6595 22.9475 34.4426 22.9475H32.9076C30.7267 27.2822 26.455 30.2358 21.6455 30.7418V32.2053C21.6455 33.0642 20.7323 33.7108 20.14 33.7108L20.1377 33.7093ZM6.1266 22.1687H7.85593L7.96163 22.3887C10.0399 26.704 14.2891 29.6202 19.0511 29.9987L19.4087 30.0275V32.2045C19.4087 32.5869 19.9333 32.9328 20.1369 32.9328C20.3406 32.9328 20.8652 32.5862 20.8652 32.2045V30.0275L21.2227 29.9987C25.9848 29.6202 30.2339 26.7047 32.3122 22.3887L32.4179 22.1687H34.1481L31.9166 18.3043L29.686 22.1687H31.4231L31.0928 22.7493C29.0518 26.3394 25.3871 28.7046 21.2888 29.0761L20.8652 29.1142V17.3529H26.3765C26.5708 17.3529 26.7535 17.2768 26.8911 17.1392C27.0286 17.0016 27.1048 16.819 27.1048 16.6247C27.1048 16.2228 26.7784 15.8964 26.3765 15.8964H20.8652V12.8908L21.1427 12.8076C21.2266 12.7827 21.3082 12.7548 21.3859 12.7252C23.2008 12.0358 24.1171 9.99943 23.4285 8.18456C22.7399 6.37047 20.7028 5.45488 18.8879 6.14274C17.0739 6.83216 16.1583 8.86854 16.8469 10.6834C17.2394 11.7164 18.0718 12.4905 19.1312 12.8061L19.4087 12.8892V15.8964H13.8989C13.4971 15.8964 13.1706 16.2228 13.1706 16.6247C13.1706 17.0265 13.4971 17.3529 13.8989 17.3529H19.4087V29.1142L18.9851 29.0753C14.8875 28.7038 11.2221 26.3387 9.18189 22.7486L8.85156 22.168H10.5887L8.35724 18.3035L6.12582 22.168L6.1266 22.1687ZM20.14 11.8539C19.6722 11.8539 19.2074 11.7195 18.8071 11.456C18.3796 11.177 18.0571 10.7743 17.8744 10.2924C17.4741 9.23928 17.8667 8.02756 18.8079 7.41043C18.954 7.31327 19.1133 7.23244 19.2789 7.16948C20.0017 6.89434 20.8201 6.9845 21.4683 7.41043C21.8958 7.69023 22.2191 8.09285 22.4018 8.57318C22.8021 9.62713 22.4096 10.8396 21.4676 11.4568C21.323 11.5524 21.1652 11.6332 20.9981 11.6962C20.7214 11.8011 20.43 11.8532 20.14 11.8532V11.8539ZM20.1362 7.7905C19.9395 7.7905 19.7421 7.82547 19.5548 7.89698C19.4429 7.93973 19.3356 7.99414 19.2354 8.0602C18.5957 8.47914 18.3299 9.30224 18.6011 10.0173C18.7255 10.3445 18.9439 10.6173 19.233 10.8062C19.6737 11.0961 20.2294 11.1567 20.7214 10.9702C20.8349 10.9267 20.9421 10.8723 21.0401 10.8078C21.6797 10.3888 21.9463 9.56573 21.6743 8.84988C21.5507 8.52344 21.3315 8.25063 21.0416 8.06098C20.7696 7.88221 20.4533 7.7905 20.1362 7.7905Z" fill="#002D59"/>
</svg>
