<svg width="41" height="41" viewBox="0 0 41 41" fill="none" xmlns="http://www.w3.org/2000/svg">
<path fill-rule="evenodd" clip-rule="evenodd" d="M40.4112 20.6072C40.4112 30.8067 32.6372 39.1906 22.6912 40.1556C22.0594 40.2167 21.4184 40.2484 20.7705 40.2484C20.1225 40.2484 19.4807 40.2167 18.8482 40.1548C8.90295 39.1898 1.12891 30.8059 1.12891 20.6072C1.12891 18.6703 1.40959 16.7991 1.93229 15.0315C2.10395 14.4501 2.30189 13.8795 2.52458 13.322C5.41878 6.08238 12.4969 0.966797 20.7705 0.966797C29.044 0.966797 36.201 6.1396 39.0635 13.4434C39.2931 14.0295 39.4957 14.6302 39.6689 15.2419C40.153 16.9476 40.4112 18.7468 40.4112 20.6072Z" fill="white"/>
<path d="M20.7704 40.6351C20.117 40.6351 19.4574 40.6027 18.8102 40.54C13.8832 40.0622 9.32425 37.7766 5.97308 34.1046C2.60026 30.4086 0.742188 25.6155 0.742188 20.6074C0.742188 18.6736 1.01746 16.7606 1.56104 14.9219C1.73424 14.3343 1.9376 13.7474 2.16493 13.1783C3.63406 9.50247 6.13932 6.36709 9.41008 4.11085C12.7589 1.80049 16.6869 0.57959 20.7696 0.57959C24.8522 0.57959 28.8228 1.81363 32.1832 4.14796C35.4663 6.42894 37.97 9.59449 39.4229 13.3013C39.6572 13.8997 39.8652 14.5175 40.0408 15.1353C40.5434 16.9052 40.7977 18.7462 40.7977 20.6058C40.7977 25.6139 38.9397 30.4079 35.5661 34.1038C32.2149 37.7758 27.6552 40.0614 22.7282 40.5393C22.0794 40.6019 21.4206 40.6336 20.7704 40.6336V40.6351ZM20.7704 1.35358C16.8447 1.35358 13.0682 2.52731 9.85005 4.74798C6.70533 6.91761 4.29672 9.93237 2.88403 13.466C2.66598 14.0126 2.47035 14.5763 2.30334 15.1415C1.78063 16.9091 1.51542 18.7478 1.51542 20.6074C1.51542 25.4214 3.30157 30.0298 6.54449 33.5834C9.76654 37.1139 14.1492 39.3106 18.8852 39.7707C20.1278 39.8921 21.4021 39.8921 22.6539 39.7707C27.39 39.3114 31.7734 37.1139 34.9954 33.5834C38.2384 30.0298 40.0245 25.4214 40.0245 20.6066C40.0245 18.8182 39.7794 17.0483 39.2969 15.3472C39.1283 14.7526 38.9289 14.1595 38.7038 13.5843C37.3066 10.0197 34.8996 6.97717 31.7432 4.78356C28.5127 2.5397 24.7192 1.35358 20.7711 1.35358H20.7704Z" fill="#002D59"/>
<path d="M30.3318 31.1501H11.2052C10.6949 31.1501 10.2773 30.7326 10.2773 30.2223V16.8751L20.7685 10.1682L31.2597 16.8751V30.2223C31.2597 30.7326 30.8421 31.1501 30.3318 31.1501Z" fill="white"/>
<path d="M30.3317 31.5368H11.2051C10.4806 31.5368 9.89062 30.9468 9.89062 30.2223V16.6633L20.7684 9.70898L31.6462 16.6633V30.2223C31.6462 30.9468 31.0562 31.5368 30.3317 31.5368ZM10.6639 17.087V30.2223C10.6639 30.5208 10.9066 30.7636 11.2051 30.7636H30.3317C30.6302 30.7636 30.8729 30.5208 30.8729 30.2223V17.087L20.7684 10.6268L10.6639 17.087Z" fill="#002D59"/>
<path d="M20.771 17.0483C20.2962 17.0483 19.8491 16.8634 19.5135 16.5278C19.1778 16.1921 18.9922 15.7451 18.9922 15.2702C18.9922 14.7954 19.177 14.3483 19.5135 14.0127C19.8491 13.677 20.2962 13.4922 20.771 13.4922C21.2459 13.4922 21.693 13.677 22.0286 14.0127C22.3643 14.3483 22.5491 14.7954 22.5491 15.2702C22.5491 15.7451 22.3643 16.1921 22.0278 16.5278C21.6922 16.8634 21.2451 17.0483 20.7703 17.0483H20.771ZM20.771 14.2648C20.5027 14.2648 20.2505 14.3692 20.0603 14.5595C19.8708 14.749 19.7656 15.0019 19.7656 15.2702C19.7656 15.5386 19.87 15.7907 20.0603 15.981C20.2505 16.1705 20.5027 16.2757 20.771 16.2757C21.0394 16.2757 21.2915 16.1712 21.4818 15.981C21.6721 15.7915 21.7765 15.5386 21.7765 15.2702C21.7765 15.0019 21.6721 14.7497 21.4818 14.5595C21.2923 14.37 21.0394 14.2648 20.771 14.2648Z" fill="#002D59"/>
<path d="M32.9146 18.3692L21.4763 11.0816C21.0456 10.8071 20.4943 10.8071 20.0628 11.0816L8.62442 18.3692C7.71974 18.9452 6.53516 18.2957 6.53516 17.2233C6.53516 16.9062 6.69676 16.6109 6.9643 16.4407L19.9453 8.17124C20.4479 7.85112 21.0912 7.85112 21.5938 8.17124L34.5747 16.4407C34.8423 16.6109 35.0039 16.9062 35.0039 17.2233C35.0039 18.2957 33.8193 18.946 32.9146 18.3692Z" fill="white"/>
<path d="M33.6429 18.9723C33.3189 18.9723 32.9957 18.8795 32.7065 18.6954L21.2681 11.4079C20.965 11.2146 20.5738 11.2146 20.2707 11.4079L8.83231 18.6954C8.28641 19.0434 7.62221 19.065 7.05466 18.7534C6.48711 18.4418 6.14844 17.8696 6.14844 17.2232C6.14844 16.7717 6.37577 16.3572 6.75697 16.1144L19.7379 7.84493C20.365 7.44518 21.1754 7.44596 21.8024 7.84493L34.7834 16.1144C35.1638 16.3572 35.3919 16.7717 35.3919 17.2232C35.3919 17.8704 35.0533 18.4426 34.4857 18.7534C34.2189 18.8996 33.9313 18.9723 33.6444 18.9723H33.6429ZM33.1217 18.0429C33.4256 18.2362 33.796 18.2485 34.1122 18.0753C34.4285 17.9021 34.6172 17.5836 34.6172 17.2225C34.6172 17.0369 34.5236 16.866 34.3666 16.7663L21.3857 8.49675C21.0107 8.25782 20.5266 8.25782 20.1524 8.49675L7.17142 16.7663C7.01445 16.866 6.92089 17.0369 6.92089 17.2225C6.92089 17.5828 7.10956 17.9014 7.42581 18.0753C7.74206 18.2485 8.11244 18.2369 8.41632 18.0429L19.8547 10.7553C20.4099 10.4012 21.1282 10.4012 21.6834 10.7553L33.1217 18.0429Z" fill="#002D59"/>
<path d="M24.5109 20.178H20.668V27.8637H24.5109V20.178Z" fill="white"/>
<path d="M24.8974 28.2505H20.2812V19.7915H24.8974V28.2505ZM21.0545 27.4773H24.1242V20.5647H21.0545V27.4773Z" fill="#002D59"/>
<path d="M28.3547 20.178H24.5117V27.8637H28.3547V20.178Z" fill="white"/>
<path d="M28.7412 28.2505H24.125V19.7915H28.7412V28.2505ZM24.8982 27.4773H27.9679V20.5647H24.8982V27.4773Z" fill="#002D59"/>
<path d="M28.3578 23.6345H20.6719V24.4077H28.3578V23.6345Z" fill="#002D59"/>
<path d="M18.0509 20.178H13.2422V31.1491H18.0509V20.178Z" fill="white"/>
<path d="M18.4374 31.5366H12.8555V19.7922H18.4374V31.5366ZM13.6287 30.7634H17.6642V20.5654H13.6287V30.7634Z" fill="#002D59"/>
</svg>
