<svg width="41" height="41" viewBox="0 0 41 41" fill="none" xmlns="http://www.w3.org/2000/svg">
<path fill-rule="evenodd" clip-rule="evenodd" d="M40.4105 20.3305C40.4105 30.5301 32.6366 38.9142 22.6907 39.8792C22.059 39.9403 21.418 39.972 20.7701 39.972C20.1221 39.972 19.4804 39.9403 18.8479 39.8785C8.9028 38.9135 1.12891 30.5294 1.12891 20.3305C1.12891 18.3935 1.40958 16.5223 1.93228 14.7547C2.10393 14.1733 2.30187 13.6026 2.52456 13.0451C5.4187 5.80538 12.4967 0.689697 20.7701 0.689697C29.0435 0.689697 36.2003 5.8626 39.0628 13.1665C39.2924 13.7526 39.495 14.3534 39.6682 14.965C40.1522 16.6708 40.4105 18.4701 40.4105 20.3305Z" fill="white"/>
<path d="M20.77 40.3588C20.1166 40.3588 19.4571 40.3263 18.8099 40.2637C13.883 39.7858 9.32409 37.5002 5.97298 33.8281C2.60022 30.1321 0.742188 25.338 0.742188 20.3306C0.742188 18.3968 1.01822 16.4838 1.56179 14.6451C1.73499 14.0574 1.93835 13.4705 2.16567 12.9014C3.63478 9.22551 6.13999 6.09006 9.41069 3.83378C12.7587 1.52415 16.6874 0.303223 20.77 0.303223C24.8525 0.303223 28.823 1.5373 32.1834 3.87167C35.4664 6.1527 37.9701 9.31829 39.423 13.0252C39.6573 13.6236 39.8653 14.2414 40.0408 14.8592C40.5434 16.6292 40.7977 18.4695 40.7977 20.3298C40.7977 25.338 38.9397 30.1321 35.5662 33.8281C32.2151 37.5002 27.6554 39.7858 22.7285 40.2637C22.0798 40.3263 21.421 40.358 20.7707 40.358L20.77 40.3588ZM20.77 1.07645C16.8444 1.07645 13.068 2.25021 9.84987 4.47092C6.70521 6.6406 4.29665 9.65542 2.88399 13.1891C2.66594 13.7357 2.47032 14.2994 2.30331 14.8647C1.78061 16.6323 1.5154 18.471 1.5154 20.3306C1.5154 25.1447 3.30152 29.7532 6.54438 33.3069C9.76636 36.8375 14.1489 39.0342 18.8849 39.4943C20.1274 39.6157 21.4017 39.6157 22.6535 39.4943C27.3895 39.035 31.7728 36.8375 34.9948 33.3069C38.2376 29.7532 40.0238 25.1447 40.0238 20.3298C40.0238 18.5414 39.7787 16.7714 39.2962 15.0703C39.1276 14.4757 38.9281 13.8827 38.7031 13.3074C37.3059 9.7428 34.8989 6.70014 31.7426 4.50649C28.5122 2.26258 24.7188 1.07645 20.7707 1.07645H20.77Z" fill="#002D59"/>
<path d="M15.9605 9.89038H25.5769C28.7131 9.89038 31.26 12.4366 31.26 15.5736V29.9448C31.26 30.4567 30.8441 30.8727 30.3322 30.8727H11.2052C10.6933 30.8727 10.2773 30.4567 10.2773 29.9448V15.5736C10.2773 12.4374 12.8235 9.89038 15.9605 9.89038Z" fill="white"/>
<path d="M30.3313 31.2595H11.2051C10.4806 31.2595 9.89062 30.6695 9.89062 29.945V15.5738C9.89062 12.2272 12.6131 9.50391 15.9604 9.50391H25.5768C28.9233 9.50391 31.6465 12.2264 31.6465 15.5738V29.945C31.6465 30.6695 31.0566 31.2595 30.3321 31.2595H30.3313ZM15.9604 10.2771C13.0399 10.2771 10.6638 12.6533 10.6638 15.5738V29.945C10.6638 30.2434 10.9066 30.4862 11.2051 30.4862H30.3313C30.6298 30.4862 30.8725 30.2434 30.8725 29.945V15.5738C30.8725 12.6533 28.4965 10.2771 25.576 10.2771H15.9596H15.9604Z" fill="#002D59"/>
<path d="M31.2632 26.2947H10.2812V27.0679H31.2632V26.2947Z" fill="#002D59"/>
<path d="M31.2632 14.8979H10.2812V15.6712H31.2632V14.8979Z" fill="#002D59"/>
<path d="M20.7687 21.8157H16.9258V30.8725H20.7687V21.8157Z" fill="white"/>
<path d="M21.1551 31.2593H16.5391V21.4292H21.1551V31.2593ZM17.3123 30.486H20.3819V22.2024H17.3123V30.486Z" fill="#002D59"/>
<path d="M24.6124 21.8159H20.7695V30.8727H24.6124V21.8159Z" fill="white"/>
<path d="M24.9989 31.2593H20.3828V21.4292H24.9989V31.2593ZM21.156 30.486H24.2257V22.2024H21.156V30.486Z" fill="#002D59"/>
<path d="M20.771 20.2881C20.3155 20.2881 19.8599 20.1149 19.5135 19.7684C19.1778 19.4327 18.9922 18.9857 18.9922 18.5108C18.9922 18.0359 19.177 17.5889 19.5135 17.2532C20.2064 16.5595 21.3348 16.5595 22.0286 17.2532C22.3642 17.5889 22.5498 18.0359 22.5498 18.5108C22.5498 18.9857 22.365 19.4327 22.0286 19.7684C21.6821 20.1149 21.2265 20.2881 20.771 20.2881ZM20.771 17.5061C20.5135 17.5061 20.2559 17.6044 20.0603 17.8C19.8708 17.9895 19.7656 18.2424 19.7656 18.5108C19.7656 18.7792 19.87 19.0313 20.0603 19.2216C20.4524 19.6137 21.0896 19.6137 21.4818 19.2216C21.6712 19.0321 21.7764 18.7792 21.7764 18.5108C21.7764 18.2424 21.672 17.9903 21.4818 17.8C21.2861 17.6044 21.0285 17.5061 20.771 17.5061Z" fill="#002D59"/>
</svg>
