<svg width="41" height="42" viewBox="0 0 41 42" fill="none" xmlns="http://www.w3.org/2000/svg">
<path fill-rule="evenodd" clip-rule="evenodd" d="M40.5753 20.9817C40.5753 31.1812 32.8013 39.5651 22.8552 40.5301C22.2235 40.5912 21.5825 40.6229 20.9345 40.6229C20.2866 40.6229 19.6448 40.5911 19.0123 40.5293C9.06701 39.5643 1.29297 31.1804 1.29297 20.9817C1.29297 19.0448 1.57365 17.1736 2.09635 15.4061C2.26801 14.8246 2.46596 14.254 2.68865 13.6965C5.58284 6.45689 12.661 1.34131 20.9345 1.34131C29.2081 1.34131 36.3651 6.51411 39.2276 13.8179C39.4572 14.404 39.6598 15.0048 39.833 15.6164C40.317 17.3221 40.5753 19.1213 40.5753 20.9817Z" fill="white"/>
<path d="M20.9344 41.0097C20.281 41.0097 19.6215 40.9772 18.9743 40.9146C14.048 40.4367 9.48831 38.1511 6.13714 34.4791C2.76432 30.7831 0.90625 25.99 0.90625 20.9819C0.90625 19.0481 1.18152 17.1351 1.7251 15.2964C1.8983 14.7088 2.10166 14.1219 2.32899 13.5529C3.79812 9.877 6.30338 6.74162 9.57414 4.48538C12.9222 2.17502 16.851 0.954102 20.9336 0.954102C25.0163 0.954102 28.9868 2.18816 32.3473 4.52249C35.6304 6.80347 38.1341 9.969 39.587 13.6758C39.8213 14.275 40.0293 14.892 40.2048 15.5098C40.7074 17.2797 40.9618 19.12 40.9618 20.9803C40.9618 25.9884 39.1037 30.7824 35.7301 34.4783C32.379 38.1503 27.8192 40.4359 22.8922 40.9138C22.2435 40.9764 21.5847 41.0081 20.9344 41.0081V41.0097ZM20.9344 1.72809C17.0087 1.72809 13.2323 2.90184 10.0141 5.12251C6.86939 7.29214 4.46078 10.3061 3.04809 13.8405C2.83004 14.3871 2.63442 14.9508 2.4674 15.516C1.9447 17.2836 1.67948 19.1223 1.67948 20.9819C1.67948 25.7959 3.46564 30.4043 6.70856 33.9579C9.9306 37.4884 14.3133 39.6851 19.0493 40.1452C20.2911 40.2666 21.5661 40.2666 22.818 40.146C27.554 39.6867 31.9375 37.4892 35.1595 33.9587C38.4024 30.405 40.1886 25.7967 40.1886 20.9819C40.1886 19.1934 39.9435 17.4235 39.461 15.7225C39.2924 15.1279 39.0929 14.5348 38.8679 13.9595C37.4707 10.395 35.0636 7.35245 31.9073 5.15884C28.6768 2.91498 24.8833 1.72886 20.9352 1.72886L20.9344 1.72809Z" fill="#002D59"/>
<path d="M25.3045 13.6655H16.8555V18.5778H25.3045V13.6655Z" fill="white"/>
<path d="M30.5588 36.9038H25.5298L20.9314 37.3708L16.9137 37.0692L12.0586 36.6981L11.6797 35.7354C11.9782 35.6496 12.2735 35.546 12.5635 35.4254L13.0514 35.2228L14.0295 35.5947C15.9641 36.33 18.1013 36.3269 20.0329 35.587L21.0149 35.2104L21.9868 35.5839C23.9145 36.3238 26.0463 36.33 27.9778 35.6001L28.9776 35.2228L29.8583 35.5576C29.9093 35.5769 29.9604 35.5955 30.0122 35.614L30.5588 36.9038Z" fill="white"/>
<path d="M26.3959 10.7817H15.4814C14.9739 10.7817 14.5625 11.1931 14.5625 11.7006V30.6422C14.5625 31.1497 14.9739 31.5611 15.4814 31.5611H26.3959C26.9034 31.5611 27.3148 31.1497 27.3148 30.6422V11.7006C27.3148 11.1931 26.9034 10.7817 26.3959 10.7817Z" fill="white"/>
<path d="M26.3959 31.944H15.4815C14.764 31.944 14.1797 31.3598 14.1797 30.6423V11.7007C14.1797 10.9832 14.764 10.3989 15.4815 10.3989H26.3959C27.1135 10.3989 27.6977 10.9832 27.6977 11.7007V30.6423C27.6977 31.3598 27.1135 31.944 26.3959 31.944ZM15.4815 11.1647C15.1859 11.1647 14.9455 11.4051 14.9455 11.7007V30.6423C14.9455 30.9378 15.1859 31.1783 15.4815 31.1783H26.3959C26.6915 31.1783 26.932 30.9378 26.932 30.6423V11.7007C26.932 11.4051 26.6915 11.1647 26.3959 11.1647H15.4815Z" fill="#002D59"/>
<path d="M25.5067 20.9805H16.375V21.7462H25.5067V20.9805Z" fill="#002D59"/>
<path d="M25.1253 13.9258H16.7578V18.7906H25.1253V13.9258Z" fill="white"/>
<path d="M25.5083 19.1733H16.375V13.5427H25.5083V19.1733ZM17.1408 18.4075H24.7425V14.3085H17.1408V18.4075Z" fill="#002D59"/>
<path d="M34.1564 26.7051L28.7961 36.1881H12.79L7.42969 26.7051H34.1564Z" fill="white"/>
<path d="M29.0189 36.5708H12.5664L6.77344 26.322H34.8127L29.0197 36.5708H29.0189ZM13.0129 35.8051H28.5725L33.5002 27.0878H8.08596L13.0137 35.8051H13.0129Z" fill="#002D59"/>
<path d="M27.5703 25.3461V24.5803C29.6004 24.5803 31.2521 22.9286 31.2521 20.8986V13.516C31.2521 12.751 31.0944 12.009 30.7827 11.3106L28.7067 6.65564L29.4058 6.34399L31.4818 10.999C31.8372 11.7961 32.0179 12.643 32.0179 13.516V20.8986C32.0179 23.3513 30.0223 25.3461 27.5703 25.3461Z" fill="#002D59"/>
<path d="M31.4392 15.2351L30.3189 14.5712C29.024 13.8039 28.5684 12.1645 29.2821 10.8389L29.292 10.8213L30.1305 9.44604L30.7845 9.845L29.9513 11.2111C29.4398 12.1721 29.7714 13.3575 30.7087 13.9126L31.829 14.5766L31.4385 15.2351H31.4392Z" fill="#002D59"/>
<mask id="mask0_1015_5" style="mask-type:alpha" maskUnits="userSpaceOnUse" x="1" y="2" width="40" height="39">
<circle cx="20.9337" cy="21.5407" r="19.0822" fill="#D9D9D9"/>
</mask>
<g mask="url(#mask0_1015_5)">
<path d="M14.114 33.6426L11.3945 34.8647L11.8422 37.0679C17.2584 37.0162 28.1183 36.9439 28.2284 37.0679C28.3661 37.2228 29.6743 37.0506 29.9153 36.9129C30.1562 36.7752 30.4661 35.3294 30.5005 35.2261C30.528 35.1435 30.1218 34.8704 29.9153 34.7442C29.3874 34.4745 28.3111 33.9283 28.2284 33.9008C28.1252 33.8663 27.299 33.7975 27.1957 33.7975C27.0924 33.7975 25.0269 34.5721 24.7859 34.7442C24.5932 34.8819 24.1319 34.8819 23.9253 34.8647C23.3745 34.5893 22.2523 34.0385 22.1697 34.0385C22.087 34.0385 21.1828 33.8778 20.741 33.7975L19.2435 34.5721L17.1436 34.7442L14.114 33.6426Z" fill="white"/>
<path d="M-1.62109 35.0279C-1.18978 35.0279 -0.758471 34.91 -0.359582 34.6732C-0.116908 34.5298 0.126748 34.3854 0.370405 34.2419C1.16917 33.7693 2.09467 33.7693 2.89343 34.2419C3.13709 34.3854 3.37976 34.5298 3.62342 34.6732C4.42218 35.1458 5.34768 35.1458 6.14644 34.6732C6.3901 34.5298 6.63375 34.3854 6.87643 34.2419C7.67519 33.7693 8.60069 33.7693 9.39945 34.2419C9.64311 34.3854 9.88676 34.5298 10.1294 34.6732C10.9282 35.1458 11.8537 35.1458 12.6525 34.6732C12.8961 34.5298 13.1398 34.3854 13.3824 34.2419C14.1812 33.7693 15.1067 33.7693 15.9055 34.2419C16.1491 34.3854 16.3918 34.5298 16.6355 34.6732C17.4352 35.1458 18.3597 35.1458 19.1595 34.6732C19.4031 34.5298 19.6458 34.3854 19.8895 34.2419C20.6882 33.7693 21.6137 33.7693 22.4125 34.2419C22.6561 34.3854 22.8988 34.5298 23.1425 34.6732C23.9412 35.1458 24.8667 35.1458 25.6665 34.6732C25.9101 34.5298 26.1528 34.3854 26.3965 34.2419C27.1952 33.7693 28.1207 33.7693 28.9205 34.2419C29.1641 34.3854 29.4068 34.5298 29.6504 34.6732C30.4492 35.1458 31.3747 35.1458 32.1735 34.6732C32.4171 34.5298 32.6598 34.3854 32.9035 34.2419C33.7022 33.7693 34.6277 33.7693 35.4265 34.2419C35.6701 34.3854 35.9128 34.5298 36.1565 34.6732C36.9552 35.1458 37.8807 35.1458 38.6795 34.6732C38.9232 34.5298 39.1658 34.3854 39.4095 34.2419C40.2082 33.7693 41.1337 33.7693 41.9325 34.2419C42.1762 34.3854 42.4188 34.5298 42.6625 34.6732C43.0624 34.909 43.4927 35.0279 43.924 35.0279V34.6565C43.4927 34.6565 43.0614 34.5386 42.6625 34.3019C42.4188 34.1584 42.1762 34.014 41.9325 33.8705C41.1337 33.398 40.2082 33.398 39.4095 33.8705C39.1658 34.014 38.9222 34.1584 38.6795 34.3019C37.8807 34.7744 36.9552 34.7744 36.1565 34.3019C35.9128 34.1584 35.6701 34.014 35.4265 33.8705C34.6277 33.398 33.7022 33.398 32.9035 33.8705C32.6598 34.014 32.4161 34.1584 32.1735 34.3019C31.3737 34.7744 30.4492 34.7744 29.6504 34.3019C29.4068 34.1584 29.1641 34.014 28.9205 33.8705C28.1207 33.398 27.1962 33.398 26.3965 33.8705C26.1528 34.014 25.9101 34.1584 25.6665 34.3019C24.8677 34.7744 23.9422 34.7744 23.1425 34.3019C22.8988 34.1584 22.6561 34.014 22.4125 33.8705C21.6137 33.398 20.6882 33.398 19.8895 33.8705C19.6458 34.014 19.4031 34.1584 19.1595 34.3019C18.3607 34.7744 17.4352 34.7744 16.6355 34.3019C16.3928 34.1584 16.1491 34.014 15.9055 33.8705C15.1067 33.398 14.1812 33.398 13.3824 33.8705C13.1388 34.014 12.8961 34.1584 12.6525 34.3019C11.8537 34.7744 10.9282 34.7744 10.1294 34.3019C9.88578 34.1584 9.64212 34.014 9.39945 33.8705C8.60069 33.398 7.67519 33.398 6.87643 33.8705C6.63277 34.014 6.3901 34.1584 6.14644 34.3019C5.34768 34.7744 4.42218 34.7744 3.62342 34.3019C3.37976 34.1584 3.13709 34.014 2.89343 33.8705C2.09467 33.398 1.16917 33.398 0.370405 33.8705C0.126748 34.014 -0.115925 34.1584 -0.359582 34.3019C-0.759454 34.5386 -1.19076 34.6565 -1.62109 34.6565V35.0279Z" stroke="#002D59" stroke-width="0.396689" stroke-miterlimit="10"/>
<path d="M-1.62109 38.9198V38.5484C-1.18978 38.5484 -0.758471 38.4305 -0.359582 38.1937C-0.116908 38.0503 0.126748 37.9058 0.370405 37.7624C1.16917 37.2898 2.09467 37.2898 2.89343 37.7624C3.13709 37.9058 3.37976 38.0503 3.62342 38.1937C4.42218 38.6663 5.34768 38.6663 6.14644 38.1937C6.3901 38.0503 6.63375 37.9058 6.87643 37.7624C7.67519 37.2898 8.60069 37.2898 9.39945 37.7624C9.64311 37.9058 9.88676 38.0503 10.1294 38.1937C10.9282 38.6663 11.8537 38.6663 12.6525 38.1937C12.8961 38.0503 13.1398 37.9058 13.3824 37.7624C14.1812 37.2898 15.1067 37.2898 15.9055 37.7624C16.1491 37.9058 16.3918 38.0503 16.6355 38.1937C17.4342 38.6663 18.3597 38.6663 19.1595 38.1937C19.4031 38.0503 19.6458 37.9058 19.8895 37.7624C20.6882 37.2898 21.6137 37.2898 22.4125 37.7624C22.6561 37.9058 22.8988 38.0503 23.1425 38.1937C23.9412 38.6663 24.8667 38.6663 25.6665 38.1937C25.9101 38.0503 26.1528 37.9058 26.3965 37.7624C27.1952 37.2898 28.1207 37.2898 28.9205 37.7624C29.1641 37.9058 29.4068 38.0503 29.6504 38.1937C30.4492 38.6663 31.3747 38.6663 32.1735 38.1937C32.4171 38.0503 32.6598 37.9058 32.9035 37.7624C33.7022 37.2898 34.6277 37.2898 35.4265 37.7624C35.6701 37.9058 35.9128 38.0503 36.1565 38.1937C36.9552 38.6663 37.8807 38.6663 38.6795 38.1937C38.9232 38.0503 39.1658 37.9058 39.4095 37.7624C40.2082 37.2898 41.1337 37.2898 41.9325 37.7624C42.1762 37.9058 42.4188 38.0503 42.6625 38.1937C43.0624 38.4305 43.4927 38.5484 43.924 38.5484V38.9198C43.4927 38.9198 43.0614 38.8019 42.6625 38.5651C42.4188 38.4216 42.1762 38.2772 41.9325 38.1338C41.1337 37.6612 40.2082 37.6612 39.4095 38.1338C39.1658 38.2782 38.9222 38.4216 38.6795 38.5651C37.8807 39.0377 36.9552 39.0377 36.1565 38.5651C35.9128 38.4216 35.6701 38.2772 35.4265 38.1338C34.6277 37.6612 33.7022 37.6612 32.9035 38.1338C32.6598 38.2782 32.4161 38.4216 32.1735 38.5651C31.3737 39.0377 30.4492 39.0377 29.6504 38.5651C29.4068 38.4216 29.1641 38.2772 28.9205 38.1338C28.1207 37.6612 27.1962 37.6612 26.3965 38.1338C26.1528 38.2782 25.9101 38.4216 25.6665 38.5651C24.8677 39.0377 23.9422 39.0377 23.1425 38.5651C22.8988 38.4216 22.6561 38.2772 22.4125 38.1338C21.6137 37.6612 20.6882 37.6612 19.8895 38.1338C19.6458 38.2782 19.4031 38.4216 19.1595 38.5651C18.3607 39.0377 17.4352 39.0377 16.6355 38.5651C16.3928 38.4216 16.1491 38.2772 15.9055 38.1338C15.1067 37.6612 14.1812 37.6612 13.3824 38.1338C13.1388 38.2782 12.8961 38.4216 12.6525 38.5651C11.8537 39.0377 10.9282 39.0377 10.1294 38.5651C9.88578 38.4216 9.64212 38.2772 9.39945 38.1338C8.60069 37.6612 7.67519 37.6612 6.87643 38.1338C6.63277 38.2782 6.3901 38.4216 6.14644 38.5651C5.34768 39.0377 4.42218 39.0377 3.62342 38.5651C3.37976 38.4216 3.13709 38.2772 2.89343 38.1338C2.09467 37.6612 1.16917 37.6612 0.370405 38.1338C0.126748 38.2782 -0.115925 38.4216 -0.359582 38.5651C-0.759454 38.8009 -1.19076 38.9198 -1.62109 38.9198Z" stroke="#002D59" stroke-width="0.396689" stroke-miterlimit="10"/>
</g>
</svg>
