<svg width="40" height="41" viewBox="0 0 40 41" fill="none" xmlns="http://www.w3.org/2000/svg">
<path fill-rule="evenodd" clip-rule="evenodd" d="M39.5997 20.3406C39.5997 30.4177 31.929 38.7011 22.1153 39.6545C21.492 39.7149 20.8595 39.7462 20.2201 39.7462C19.5808 39.7462 18.9475 39.7148 18.3235 39.6537C8.51048 38.7003 0.839844 30.417 0.839844 20.3406C0.839844 18.4269 1.11679 16.5782 1.63254 14.8318C1.80192 14.2574 1.99723 13.6936 2.21696 13.1428C5.07266 5.99001 12.0567 0.935791 20.2201 0.935791C28.3836 0.935791 35.4454 6.04654 38.2699 13.2627C38.4964 13.8418 38.6963 14.4354 38.8672 15.0396C39.3448 16.7249 39.5997 18.5026 39.5997 20.3406Z" fill="white"/>
<path d="M20.2188 40.1281C19.5741 40.1281 18.9241 40.096 18.2847 40.0341C13.4233 39.562 8.92494 37.3038 5.61835 33.6758C2.28962 30.0242 0.457031 25.2886 0.457031 20.3405C0.457031 18.4291 0.728647 16.5399 1.26576 14.7233C1.43742 14.1419 1.63731 13.5629 1.86161 13.0006C3.31121 9.36883 5.78314 6.27106 9.01039 4.04189C12.3147 1.75924 16.1905 0.552979 20.2188 0.552979C24.2472 0.552979 28.1649 1.77222 31.4806 4.07856C34.7201 6.33218 37.1905 9.45974 38.6241 13.1221C38.8552 13.7134 39.0605 14.323 39.2337 14.9341C39.7296 16.6828 39.9806 18.5017 39.9806 20.339C39.9806 25.287 38.1472 30.0227 34.8185 33.6751C31.5119 37.303 27.0128 39.5612 22.1513 40.0333C21.5105 40.0952 20.8604 40.1265 20.2196 40.1265L20.2188 40.1281ZM20.2188 1.31768C16.3453 1.31768 12.6191 2.47734 9.44376 4.67137C6.34087 6.81498 3.96429 9.79282 2.57039 13.2848C2.35524 13.8249 2.16222 14.3818 1.99742 14.9402C1.48167 16.6866 1.21997 18.5033 1.21997 20.3405C1.21997 25.0968 2.98239 29.6499 6.18217 33.1609C9.36136 36.6491 13.6857 38.8194 18.3587 39.274C19.5848 39.3939 20.8421 39.3947 22.0773 39.274C26.7504 38.8202 31.0755 36.6491 34.2547 33.1609C37.4545 29.6499 39.2169 25.0968 39.2169 20.3398C39.2169 18.5728 38.975 16.8241 38.4989 15.1427C38.3326 14.5552 38.1358 13.9693 37.9138 13.4009C36.5351 9.87914 34.1601 6.87228 31.0457 4.70575C27.8589 2.4888 24.1152 1.31692 20.2196 1.31692L20.2188 1.31768Z" fill="#002F5B"/>
<rect x="13.0382" y="14.0492" width="14.3599" height="15.3172" rx="0.401462" stroke="#002D59" stroke-width="0.802925"/>
<rect x="22.8311" y="17.2843" width="4.56816" height="9.51519" stroke="#002D59" stroke-width="0.802925"/>
<rect x="11.6163" y="11.3158" width="17.2033" height="2.7619" rx="1.20439" stroke="#002D59" stroke-width="0.802925"/>
<rect x="15.8858" y="20.9439" width="3.39361" height="8.42248" stroke="#002D59" stroke-width="0.802925"/>
</svg>
