<svg width="41" height="41" viewBox="0 0 41 41" fill="none" xmlns="http://www.w3.org/2000/svg">
<path fill-rule="evenodd" clip-rule="evenodd" d="M40.4542 20.3819C40.4542 30.5813 32.6802 38.9653 22.7341 39.9302C22.1024 39.9913 21.4614 40.023 20.8134 40.023C20.1655 40.023 19.5237 39.9913 18.8912 39.9295C8.94591 38.9645 1.17188 30.5806 1.17188 20.3819C1.17188 18.445 1.45256 16.5738 1.97526 14.8062C2.14692 14.2248 2.34486 13.6541 2.56755 13.0966C5.46175 5.85704 12.5399 0.741455 20.8134 0.741455C29.087 0.741455 36.244 5.91428 39.1065 13.2181C39.3361 13.8041 39.5387 14.4049 39.7119 15.0165C40.1959 16.7222 40.4542 18.5215 40.4542 20.3819Z" fill="white"/>
<path d="M20.8133 40.4096C20.1599 40.4096 19.5012 40.3771 18.8532 40.3145C13.9262 39.8366 9.36722 37.551 6.01605 33.879C2.64322 30.183 0.785156 25.3891 0.785156 20.3818C0.785156 18.448 1.06043 16.535 1.60401 14.6963C1.77721 14.1087 1.98057 13.5218 2.2079 12.9527C3.67703 9.27688 6.18229 6.1415 9.45305 3.88526C12.8011 1.5749 16.7299 0.354004 20.8125 0.354004C24.8952 0.354004 28.8657 1.58805 32.2262 3.92238C35.5093 6.20336 38.013 9.36888 39.4659 13.0757C39.7002 13.6741 39.9082 14.292 40.0837 14.9097C40.5863 16.6796 40.8407 18.5199 40.8407 20.3802C40.8407 25.3883 38.9826 30.1822 35.609 33.8782C32.2579 37.5502 27.6981 39.8358 22.7711 40.3137C22.1216 40.3763 21.4628 40.408 20.8133 40.408V40.4096ZM20.8133 1.12797C16.8876 1.12797 13.1112 2.30174 9.89301 4.52241C6.74829 6.69205 4.33969 9.70603 2.927 13.2404C2.70895 13.7871 2.51332 14.3507 2.3463 14.9159C1.8236 16.6835 1.55838 18.5222 1.55838 20.3818C1.55838 25.1958 3.34454 29.8041 6.58746 33.3578C9.80951 36.8883 14.1922 39.085 18.9282 39.5451C20.1708 39.6665 21.445 39.6665 22.6969 39.5451C27.4329 39.0858 31.8164 36.8883 35.0384 33.3578C38.2813 29.8041 40.0675 25.1958 40.0675 20.381C40.0675 18.5925 39.8224 16.8227 39.3399 15.1208C39.1713 14.5262 38.9718 13.9332 38.7468 13.3579C37.3496 9.79341 34.9425 6.75079 31.7862 4.55718C28.5557 2.31332 24.7622 1.12722 20.8141 1.12722L20.8133 1.12797Z" fill="#002D59"/>
<path d="M19.6873 16.998V27.1411C19.4963 25.0503 17.4434 23.4049 14.9396 23.4049C12.7398 23.4049 11.0325 24.6745 10.4851 26.3996L10.4023 26.3926L11.9944 16.9184L12.0509 16.6107C12.2434 15.8204 12.7692 15.1331 13.4976 14.6614C14.1471 14.24 14.9574 13.9902 15.8366 13.9902C16.9369 13.9902 17.9289 14.3815 18.6334 15.0093C19.2241 15.5359 19.6107 16.2295 19.6873 16.998Z" fill="white"/>
<path d="M19.3006 27.1767C19.1274 25.2785 17.2114 23.7923 14.9381 23.7923C13.0112 23.7923 11.3689 24.8872 10.8516 26.5172L10.758 26.811L9.94922 26.7429L11.6109 16.8543L11.6727 16.5195C11.8854 15.6481 12.4576 14.8733 13.2849 14.3375C14.0241 13.8581 14.9056 13.6045 15.8343 13.6045C16.9956 13.6045 18.0797 14.0011 18.8885 14.7218C19.5666 15.3264 19.9865 16.1213 20.07 16.961L20.0716 16.9996V27.1427L19.2999 27.1775L19.3006 27.1767ZM14.9381 23.0191C16.2317 23.0191 17.4673 23.4336 18.4192 24.1867C18.7617 24.4581 19.0571 24.7635 19.2991 25.096V17.019C19.2303 16.3795 18.9024 15.7695 18.3743 15.2986C17.7078 14.7047 16.8062 14.3777 15.835 14.3777C15.0564 14.3777 14.3203 14.588 13.7063 14.9862C13.0483 15.4122 12.5944 16.0177 12.4274 16.6919L12.3733 16.9881L11.0913 24.6173C12.0176 23.6207 13.4025 23.0184 14.9381 23.0184V23.0191Z" fill="#002D59"/>
<path d="M21.7578 12.8604C21.7578 12.9517 21.7625 13.0421 21.7725 13.1318V16.9762C21.8491 16.2077 22.2357 15.5141 22.8264 14.9875C23.5308 14.3597 24.5229 13.9685 25.6232 13.9685C26.5023 13.9685 27.3127 14.2182 27.9622 14.6396C28.6906 15.1112 29.2164 15.7987 29.4089 16.5889L28.6798 12.6099C28.4169 11.0944 27.0204 9.91992 25.2118 9.91992C23.3043 9.91992 21.7578 11.2359 21.7578 12.8604Z" fill="white"/>
<path d="M22.1575 17.0143L21.3858 16.9757V13.1521C21.3757 13.0578 21.3711 12.9596 21.3711 12.8598C21.3711 11.025 23.0938 9.53271 25.2117 9.53271C27.1394 9.53271 28.7585 10.7992 29.0609 12.5436L29.7892 16.5187L29.033 16.6795C28.8675 16.0007 28.4129 15.3914 27.7518 14.963C27.1378 14.5648 26.4017 14.3537 25.6231 14.3537C24.6519 14.3537 23.7503 14.6808 23.0838 15.2746C22.551 15.7501 22.2216 16.3672 22.1575 17.0128V17.0143ZM25.2117 10.3059C23.5207 10.3059 22.1443 11.4518 22.1443 12.8598C22.1443 12.9387 22.1482 13.0153 22.1567 13.0879L22.159 13.1313V15.1246C22.2827 14.9746 22.4196 14.8316 22.5688 14.6986C23.3768 13.9779 24.4617 13.5813 25.6231 13.5813C26.5517 13.5813 27.4332 13.8349 28.1724 14.315C28.3495 14.4295 28.515 14.5555 28.668 14.6908L28.2992 12.6797C28.0603 11.3034 26.762 10.3067 25.2117 10.3067V10.3059Z" fill="#002D59"/>
<path d="M21.7773 16.9978L21.8601 27.1408C22.0511 25.05 24.0213 23.4047 26.525 23.4047C28.7248 23.4047 30.5751 24.6743 31.1226 26.3993L31.2053 26.3923L29.4702 16.9182L29.4137 16.6104C29.2212 15.8202 28.6954 15.1328 27.967 14.6612C27.3175 14.2398 26.5072 13.99 25.628 13.99C24.5277 13.99 23.5357 14.3812 22.8313 15.0091C22.2405 15.5357 21.8539 16.2292 21.7773 16.9978Z" fill="white"/>
<path d="M22.245 27.1765L21.4734 27.1448L21.3906 16.9809L21.3929 16.96C21.4765 16.1211 21.8963 15.3255 22.5744 14.7208C23.3825 14.0002 24.4673 13.6035 25.6287 13.6035C26.5573 13.6035 27.4388 13.8571 28.178 14.3373C29.0054 14.8732 29.5776 15.6479 29.7902 16.5193L29.7948 16.541L31.663 26.742L30.848 26.8108L30.7544 26.517C30.2456 24.9126 28.5059 23.7922 26.5256 23.7922C24.2616 23.7922 22.4221 25.2473 22.2458 27.1765H22.245ZM22.1639 17.0165L22.2296 25.0881C23.1242 23.8332 24.7093 23.0182 26.5249 23.0182C28.0899 23.0182 29.5312 23.6321 30.4884 24.6249L29.0355 16.6917C28.8677 16.0175 28.4146 15.4113 27.7566 14.986C27.1427 14.5878 26.4066 14.3767 25.6279 14.3767C24.6567 14.3767 23.7552 14.7038 23.0886 15.2976C22.5613 15.7678 22.2334 16.3778 22.1639 17.0165Z" fill="#002D59"/>
<path d="M21.8438 27.4598C21.8438 29.699 23.9763 31.5137 26.6061 31.5137C29.2366 31.5137 31.3684 29.699 31.3684 27.4598C31.3684 27.0933 31.3112 26.7376 31.2037 26.3997C30.6562 24.6746 28.8059 23.405 26.6061 23.405C24.1023 23.405 22.0494 25.0504 21.8584 27.1412C21.8484 27.2463 21.8438 27.3523 21.8438 27.4598Z" fill="white"/>
<path d="M26.606 31.9002C23.7667 31.9002 21.457 29.9085 21.457 27.4597C21.457 27.3383 21.4624 27.2192 21.4733 27.104C21.5753 25.9844 22.1622 24.9475 23.1249 24.1851C24.076 23.432 25.3123 23.0176 26.606 23.0176C28.9202 23.0176 30.9623 24.3599 31.5724 26.2821C31.6938 26.6633 31.7557 27.0592 31.7557 27.4589C31.7557 29.9077 29.446 31.8995 26.6067 31.8995L26.606 31.9002ZM26.606 23.7916C24.3327 23.7916 22.4166 25.2785 22.2434 27.1759C22.2349 27.268 22.2303 27.3623 22.2303 27.4597C22.2303 29.4817 24.1935 31.127 26.606 31.127C29.0184 31.127 30.9817 29.4817 30.9817 27.4597C30.9817 27.1396 30.9322 26.8226 30.8347 26.5172C30.3252 24.9127 28.5862 23.7916 26.6052 23.7916H26.606Z" fill="#002D59"/>
<path d="M26.6101 29.8984C28.1919 29.8984 29.4742 28.8066 29.4742 27.4597C29.4742 26.1128 28.1919 25.021 26.6101 25.021C25.0284 25.021 23.7461 26.1128 23.7461 27.4597C23.7461 28.8066 25.0284 29.8984 26.6101 29.8984Z" fill="white"/>
<path d="M26.61 30.2849C24.8177 30.2849 23.3594 29.0176 23.3594 27.4596C23.3594 25.9016 24.8177 24.6343 26.61 24.6343C28.4024 24.6343 29.8607 25.9016 29.8607 27.4596C29.8607 29.0176 28.4024 30.2849 26.61 30.2849ZM26.61 25.4082C25.2437 25.4082 24.1326 26.3284 24.1326 27.4604C24.1326 28.5923 25.2437 29.5125 26.61 29.5125C27.9763 29.5125 29.0875 28.5923 29.0875 27.4604C29.0875 26.3284 27.9763 25.4082 26.61 25.4082Z" fill="#002D59"/>
<path d="M19.8698 12.8607C19.8698 12.9519 19.8652 13.0424 19.8552 13.1321V16.9765C19.7786 16.2079 19.392 15.5143 18.8012 14.9878C18.0968 14.3599 17.1048 13.9687 16.0045 13.9687C15.1253 13.9687 14.315 14.2184 13.6655 14.6398C12.9371 15.1115 12.4113 15.7989 12.2188 16.5891L12.9479 12.6101C13.2108 11.0946 14.6073 9.92017 16.4158 9.92017C18.3234 9.92017 19.8698 11.2362 19.8698 12.8607Z" fill="white"/>
<path d="M19.4716 17.0143C19.4074 16.3687 19.078 15.7508 18.5453 15.2761C17.8788 14.6822 16.9772 14.3552 16.006 14.3552C15.2274 14.3552 14.4912 14.5655 13.8773 14.9637C13.2162 15.3921 12.7608 16.0014 12.5961 16.6802L11.8398 16.5194L12.569 12.5404C12.8706 10.7999 14.4897 9.53345 16.4174 9.53345C18.5352 9.53345 20.258 11.0257 20.258 12.8606C20.258 12.9603 20.2533 13.0585 20.2433 13.1528V16.9764L19.4716 17.015V17.0143ZM16.006 13.5812C17.1674 13.5812 18.2515 13.9779 19.0603 14.6985C19.2095 14.8315 19.3471 14.9745 19.4701 15.1245L19.4724 13.0887C19.4801 13.016 19.4848 12.9394 19.4848 12.8606C19.4848 11.4525 18.1084 10.3067 16.4174 10.3067C14.867 10.3067 13.5688 11.3033 13.3306 12.6758L12.961 14.6908C13.1141 14.5554 13.2796 14.4294 13.4567 14.315C14.1959 13.8356 15.0774 13.582 16.006 13.582V13.5812Z" fill="#002D59"/>
<path d="M19.8498 16.998L19.7671 27.1411C19.5761 25.0503 17.6059 23.4049 15.1022 23.4049C12.9024 23.4049 11.0521 24.6745 10.5046 26.3996L10.4219 26.3926L12.157 16.9184L12.2134 16.6107C12.406 15.8204 12.9318 15.1331 13.6602 14.6614C14.3097 14.24 15.12 13.9902 15.9992 13.9902C17.0995 13.9902 18.0915 14.3815 18.7959 15.0093C19.3867 15.5359 19.7733 16.2295 19.8498 16.998Z" fill="white"/>
<path d="M19.382 27.1767C19.2057 25.2467 17.3662 23.7923 15.1022 23.7923C13.1212 23.7923 11.3822 24.9127 10.8734 26.5172L10.7798 26.811L9.96484 26.7429L11.8376 16.5195C12.0502 15.6481 12.6224 14.8733 13.4498 14.3375C14.189 13.8581 15.0705 13.6045 15.9991 13.6045C17.1605 13.6045 18.2446 14.0011 19.0534 14.7218C19.7315 15.3264 20.1514 16.1213 20.2349 16.961L20.2372 16.9819V17.0027L20.1544 27.1458L19.3828 27.1775L19.382 27.1767ZM15.1022 23.0191C16.9169 23.0191 18.5028 23.8333 19.3975 25.089L19.4632 17.0174C19.3944 16.3788 19.0665 15.7695 18.5384 15.2986C17.8719 14.7047 16.9703 14.3777 15.9991 14.3777C15.2205 14.3777 14.4844 14.588 13.8704 14.9862C13.2124 15.4122 12.7593 16.0177 12.5915 16.6919L11.1386 24.6251C12.0959 23.6331 13.5372 23.0184 15.1022 23.0184V23.0191Z" fill="#002D59"/>
<path d="M19.7824 27.4598C19.7824 29.699 17.6499 31.5137 15.0201 31.5137C12.3904 31.5137 10.2578 29.699 10.2578 27.4598C10.2578 27.0933 10.315 26.7376 10.4225 26.3997C10.97 24.6746 12.8203 23.405 15.0201 23.405C17.5238 23.405 19.5768 25.0504 19.7677 27.1412C19.7778 27.2463 19.7824 27.3523 19.7824 27.4598Z" fill="white"/>
<path d="M15.02 31.9004C12.1807 31.9004 9.87109 29.9087 9.87109 27.4599C9.87109 27.0601 9.93295 26.6643 10.0543 26.2823C10.6644 24.3609 12.7065 23.0186 15.02 23.0186C16.3136 23.0186 17.5493 23.433 18.5011 24.1861C19.4638 24.9477 20.0506 25.9846 20.1527 27.1065C20.1635 27.2186 20.1689 27.3377 20.1689 27.4599C20.1689 29.9087 17.8593 31.9004 15.02 31.9004ZM15.02 23.7918C13.039 23.7918 11.3 24.9121 10.7912 26.5166C10.6938 26.822 10.6443 27.1398 10.6443 27.4599C10.6443 29.4818 12.6075 31.1272 15.02 31.1272C17.4325 31.1272 19.3957 29.4818 19.3957 27.4599C19.3957 27.3609 19.3919 27.2689 19.3826 27.1784C19.2086 25.2786 17.2925 23.7918 15.02 23.7918Z" fill="#002D59"/>
<path d="M15.0203 29.8987C16.6021 29.8987 17.8843 28.8068 17.8843 27.46C17.8843 26.1131 16.6021 25.0212 15.0203 25.0212C13.4385 25.0212 12.1562 26.1131 12.1562 27.46C12.1562 28.8068 13.4385 29.8987 15.0203 29.8987Z" fill="white"/>
<path d="M15.0202 30.2852C13.2278 30.2852 11.7695 29.0179 11.7695 27.4598C11.7695 25.9018 13.2278 24.6345 15.0202 24.6345C16.8125 24.6345 18.2708 25.9018 18.2708 27.4598C18.2708 29.0179 16.8125 30.2852 15.0202 30.2852ZM15.0202 25.4085C13.6539 25.4085 12.5428 26.3286 12.5428 27.4606C12.5428 28.5926 13.6539 29.5127 15.0202 29.5127C16.3865 29.5127 17.4976 28.5926 17.4976 27.4606C17.4976 26.3286 16.3865 25.4085 15.0202 25.4085Z" fill="#002D59"/>
<path d="M21.7839 14.7441H19.8516V21.7595H21.7839V14.7441Z" fill="white"/>
<path d="M22.1704 22.1453H19.4648V14.3567H22.1704V22.1453ZM20.2381 21.3721H21.3971V15.1299H20.2381V21.3721Z" fill="#002D59"/>
<path d="M21.7843 21.7588H19.8516V24.3079H21.7843V21.7588Z" fill="white"/>
<path d="M22.171 24.6948H19.4648V21.3723H22.171V24.6948ZM20.2383 23.9214H21.3976V22.1457H20.2383V23.9214Z" fill="#002D59"/>
</svg>
