<svg width="42" height="41" viewBox="0 0 42 41" fill="none" xmlns="http://www.w3.org/2000/svg">
<path fill-rule="evenodd" clip-rule="evenodd" d="M40.6222 20.3533C40.6222 30.5527 32.8481 38.9367 22.9021 39.9017C22.2704 39.9628 21.6294 39.9945 20.9814 39.9945C20.3334 39.9945 19.6916 39.9628 19.0591 39.9009C9.11388 38.9359 1.33984 30.552 1.33984 20.3533C1.33984 18.4164 1.62053 16.5452 2.14323 14.7776C2.31488 14.1962 2.51283 13.6256 2.73552 13.0681C5.62971 5.82847 12.7078 0.712891 20.9814 0.712891C29.2549 0.712891 36.4119 5.88569 39.2744 13.1895C39.5041 13.7756 39.7067 14.3763 39.8799 14.988C40.3639 16.6937 40.6222 18.4929 40.6222 20.3533Z" fill="white"/>
<path d="M20.9813 40.381C20.3279 40.381 19.6683 40.3485 19.0212 40.2859C14.0941 39.808 9.53519 37.5224 6.18402 33.8504C2.81119 30.1545 0.953125 25.3605 0.953125 20.3532C0.953125 18.4194 1.22839 16.5065 1.77197 14.6678C1.94518 14.0801 2.14854 13.4933 2.37587 12.9242C3.845 9.24833 6.35026 6.11294 9.62102 3.8567C12.9699 1.54634 16.8979 0.325439 20.9805 0.325439C25.0632 0.325439 29.0337 1.55949 32.3941 3.89382C35.6773 6.1748 38.181 9.34033 39.6339 13.0471C39.8682 13.6456 40.0762 14.2634 40.2517 14.8812C40.7543 16.6511 41.0087 18.4913 41.0087 20.3517C41.0087 25.3598 39.1506 30.1537 35.777 33.8497C32.4258 37.5217 27.8661 39.8073 22.9391 40.2851C22.2904 40.3478 21.6316 40.3795 20.9813 40.3795V40.381ZM20.9813 1.09943C17.0556 1.09943 13.2792 2.27316 10.061 4.49383C6.91626 6.66347 4.50766 9.67823 3.09497 13.2118C2.87692 13.7585 2.68129 14.3221 2.51427 14.8874C1.99157 16.6549 1.72635 18.4936 1.72635 20.3532C1.72635 25.1672 3.51251 29.7756 6.75543 33.3293C9.97747 36.8598 14.3601 39.0565 19.0962 39.5165C20.3387 39.6379 21.613 39.6379 22.8649 39.5165C27.6009 39.0573 31.9843 36.8598 35.2064 33.3293C38.4493 29.7756 40.2355 25.1672 40.2355 20.3524C40.2355 18.564 39.9903 16.7941 39.5078 15.0923C39.3393 14.4977 39.1398 13.9046 38.9148 13.3293C37.5176 9.76483 35.1105 6.72223 31.9542 4.52863C28.7236 2.28476 24.9302 1.09865 20.9821 1.09865L20.9813 1.09943Z" fill="#002D59"/>
<path d="M31.2288 22.3848V18.3216H29.0351C28.8357 17.5275 28.5217 16.779 28.1119 16.0955L29.6638 14.5437L26.7912 11.6712L25.2394 13.223C24.5551 12.8132 23.8073 12.4993 23.0132 12.3006V10.1062H18.9499V12.2998C18.1558 12.4993 17.4073 12.8132 16.7238 13.223L15.1719 11.6712L12.2994 14.5437L13.8513 16.0955C13.4414 16.779 13.1275 17.5275 12.928 18.3216H10.7344V22.3848H12.9288C13.1275 23.1782 13.4407 23.9258 13.8513 24.6101L12.2994 26.162L15.1719 29.0352L16.7238 27.4834C17.4073 27.8932 18.1558 28.2071 18.9499 28.4066V30.5995H23.0132V28.4058C23.8073 28.2071 24.5551 27.894 25.2394 27.4834L26.7912 29.0352L29.6638 26.162L28.1119 24.6101C28.5217 23.9258 28.8357 23.1782 29.0344 22.3848H31.2288ZM24.944 21.4415C24.9123 21.5567 24.8759 21.6696 24.8342 21.7802C24.7979 21.8776 24.7584 21.9743 24.7151 22.067C24.6649 22.1761 24.6107 22.2812 24.552 22.3848C24.187 23.0251 23.6543 23.5578 23.0132 23.9235C22.9096 23.9831 22.8045 24.0372 22.6954 24.0867C22.6027 24.13 22.5068 24.1686 22.4094 24.2058C22.2988 24.2475 22.1859 24.2831 22.0707 24.3155C21.7235 24.4099 21.3585 24.4609 20.9812 24.4609C20.6039 24.4609 20.2389 24.4099 19.8933 24.3155C19.7773 24.2846 19.6652 24.2475 19.5538 24.2058C19.4564 24.1694 19.3605 24.13 19.2677 24.0867C19.1587 24.0364 19.0535 23.9815 18.9499 23.9235C18.3089 23.5593 17.7762 23.0266 17.4104 22.3848C17.3517 22.282 17.2968 22.1761 17.2481 22.067C17.2048 21.9743 17.1653 21.8776 17.129 21.7802C17.088 21.6696 17.0517 21.5567 17.0192 21.4415C16.9248 21.0951 16.8738 20.7302 16.8738 20.3528C16.8738 19.9755 16.9248 19.6105 17.0192 19.2641C17.0509 19.1489 17.088 19.036 17.129 18.9255C17.1653 18.8281 17.2048 18.7322 17.2481 18.6394C17.2975 18.5304 17.3517 18.4252 17.4104 18.3216C17.7754 17.6806 18.3081 17.1479 18.9499 16.7821C19.0528 16.7234 19.1587 16.6685 19.2677 16.6198C19.3605 16.5765 19.4564 16.537 19.5538 16.5007C19.6652 16.4597 19.7773 16.4234 19.8933 16.3909C20.2389 16.2965 20.6039 16.2455 20.9812 16.2455C21.3585 16.2455 21.7235 16.2965 22.0699 16.3917C22.1851 16.4226 22.298 16.4597 22.4086 16.5007C22.506 16.537 22.6027 16.5765 22.6954 16.6198C22.8045 16.6692 22.9096 16.7241 23.0132 16.7821C23.6543 17.1471 24.187 17.6798 24.552 18.3216C24.6107 18.4252 24.6656 18.5304 24.7151 18.6394C24.7584 18.7322 24.7979 18.8281 24.8342 18.9255C24.8759 19.036 24.9115 19.1489 24.944 19.2641C25.0383 19.6105 25.0894 19.9755 25.0894 20.3528C25.0894 20.7302 25.0383 21.0951 24.944 21.4415Z" fill="white"/>
<path d="M23.4029 30.9861H18.5663V28.7028C17.9485 28.5242 17.3531 28.2775 16.791 27.9667L15.1757 29.582L11.7565 26.162L13.3718 24.5468C13.061 23.9831 12.8143 23.3885 12.6365 22.7723H10.3516V17.9358H12.6357C12.8143 17.318 13.061 16.7226 13.3718 16.1605L11.7565 14.5453L15.1757 11.1261L16.791 12.7414C17.3531 12.4305 17.9485 12.1839 18.5663 12.0053V9.72119H23.4029V12.006C24.0191 12.1839 24.6145 12.4305 25.1782 12.7414L26.7935 11.1253L30.2127 14.5445L28.5974 16.1597C28.9083 16.7226 29.1549 17.3172 29.3335 17.935H31.6177V22.7715H29.3328C29.1549 23.3877 28.9083 23.9823 28.5974 24.546L30.2127 26.1613L26.7935 29.5812L25.1782 27.9652C24.6145 28.2768 24.0199 28.5227 23.4029 28.7005V30.9846V30.9861ZM19.3396 30.2129H22.6297V28.1043L22.9227 28.0309C23.6681 27.8445 24.3818 27.5484 25.0437 27.1525L25.3027 26.9979L26.7943 28.4894L29.1201 26.1628L27.6286 24.6713L27.7832 24.4123C28.1799 23.7496 28.4753 23.0367 28.6616 22.2921L28.7351 21.9991H30.8452V18.709H28.7366L28.6632 18.4168C28.4753 17.6698 28.1799 16.9562 27.784 16.2958L27.6286 16.0368L29.1201 14.5453L26.7943 12.2194L25.3027 13.711L25.0437 13.5563C24.3818 13.1597 23.6681 12.8643 22.9227 12.678L22.6297 12.6045V10.4952H19.3396V12.6037L19.0473 12.6772C18.2996 12.8651 17.5859 13.1612 16.9263 13.5563L16.6673 13.7118L15.1757 12.2202L12.8499 14.546L14.3414 16.0376L14.186 16.2966C13.7901 16.9569 13.494 17.6706 13.3068 18.4175L13.2334 18.7098H11.1248V21.9998H13.2342L13.3076 22.2929C13.494 23.0375 13.7901 23.7512 14.186 24.413L14.3406 24.672L12.8491 26.1636L15.175 28.4902L16.6665 26.9987L16.9256 27.1541C17.5859 27.55 18.2996 27.8461 19.0465 28.0332L19.3388 28.1067V30.2144L19.3396 30.2129ZM20.9842 24.8476C20.5806 24.8476 20.1801 24.7942 19.7942 24.6883C19.6713 24.655 19.5491 24.6156 19.4215 24.5684C19.3187 24.5306 19.2128 24.4865 19.1084 24.4385C18.9947 24.386 18.878 24.3264 18.762 24.2599C18.0599 23.861 17.4776 23.2795 17.0779 22.5766C17.0091 22.456 16.9511 22.3424 16.8993 22.2271C16.8529 22.1274 16.8088 22.0207 16.7701 21.914C16.7253 21.7934 16.6859 21.6697 16.6511 21.546C16.5451 21.157 16.4918 20.7565 16.4918 20.3537C16.4918 19.9508 16.5451 19.5495 16.6511 19.1629C16.6859 19.0369 16.7261 18.9132 16.7709 18.7925C16.8088 18.6889 16.8529 18.583 16.9016 18.4778C16.9526 18.3657 17.0106 18.2521 17.0787 18.1314C17.4784 17.4294 18.0607 16.8471 18.7627 16.4474C18.8834 16.3786 18.997 16.3206 19.1122 16.2688C19.2143 16.2216 19.3202 16.1775 19.4246 16.1389C19.5514 16.0925 19.6721 16.0538 19.7942 16.0198C20.569 15.8079 21.4056 15.8079 22.1765 16.0198C22.2972 16.053 22.4224 16.0925 22.5461 16.1389C22.6521 16.1775 22.7588 16.2216 22.8616 16.2695C22.9737 16.3206 23.0874 16.3786 23.208 16.4474C23.9109 16.8479 24.4931 17.4301 24.8914 18.1314C24.9571 18.2466 25.0166 18.3634 25.07 18.4786C25.1179 18.583 25.162 18.6889 25.2006 18.7933C25.2432 18.9054 25.2818 19.0268 25.3197 19.1614C25.4257 19.5503 25.479 19.9508 25.479 20.3537C25.479 20.7565 25.4257 21.1578 25.3197 21.5444V21.5467C25.2818 21.6813 25.2424 21.8027 25.1991 21.9171C25.1604 22.0215 25.1164 22.1282 25.0692 22.2302C25.012 22.354 24.9532 22.4676 24.8898 22.5782C24.4908 23.2779 23.9093 23.8594 23.208 24.2592C23.0982 24.3226 22.9846 24.3813 22.8609 24.4378C22.765 24.4818 22.6629 24.5244 22.5492 24.5677C22.434 24.611 22.3126 24.6504 22.1781 24.6875C21.7884 24.7934 21.3879 24.8476 20.985 24.8476H20.9842ZM20.9842 16.6337C20.6494 16.6337 20.3177 16.6778 19.9984 16.7652C19.8978 16.793 19.7965 16.8255 19.6898 16.8649C19.6056 16.8958 19.519 16.9322 19.4331 16.9716C19.3373 17.0149 19.2437 17.0629 19.1447 17.1193C18.564 17.4502 18.0815 17.9327 17.7506 18.5134C17.6941 18.6124 17.6462 18.7059 17.6044 18.7995C17.5635 18.8884 17.5271 18.975 17.4962 19.0593C17.4583 19.1606 17.4251 19.265 17.3964 19.3686C17.3098 19.6864 17.265 20.0189 17.265 20.3537C17.265 20.6885 17.3091 21.0202 17.3964 21.3403C17.4251 21.4416 17.4583 21.5459 17.4954 21.6472C17.5279 21.7354 17.5635 21.822 17.6021 21.9055C17.6454 22.0014 17.6934 22.0949 17.7498 22.1939C18.0808 22.7754 18.5632 23.2571 19.1439 23.5872C19.2406 23.6421 19.338 23.6924 19.4324 23.7357C19.5182 23.7759 19.6056 23.8115 19.6906 23.8432C19.7965 23.8826 19.8971 23.9151 19.9968 23.9421C20.6378 24.1177 21.3291 24.1177 21.9716 23.9421C22.0822 23.9112 22.182 23.8787 22.2763 23.8439C22.3722 23.8076 22.4572 23.7728 22.5361 23.7357C22.6389 23.6885 22.7325 23.6406 22.823 23.588C23.4052 23.2563 23.8869 22.7738 24.2186 22.1931C24.2712 22.1019 24.3192 22.0083 24.3671 21.9055C24.4058 21.8212 24.4421 21.7346 24.4746 21.6465C24.5101 21.5506 24.5426 21.4508 24.5743 21.3387C24.6617 21.0186 24.7058 20.6869 24.7058 20.3529C24.7058 20.0189 24.6617 19.6864 24.5743 19.3663C24.5434 19.2557 24.5109 19.1552 24.4761 19.0616C24.4437 18.9742 24.4081 18.8876 24.3679 18.8018C24.3238 18.7059 24.2743 18.6093 24.2194 18.5134C23.8892 17.9327 23.4075 17.4502 22.8261 17.1193C22.7271 17.0629 22.6328 17.0149 22.54 16.9724C22.4534 16.9322 22.366 16.8966 22.2794 16.8641C22.1758 16.8263 22.0729 16.793 21.9724 16.7659C21.6523 16.6778 21.3206 16.6329 20.985 16.6329L20.9842 16.6337Z" fill="#002D59"/>
<path d="M15.4217 20.3528H14.6484C14.6484 19.7837 14.7242 19.2193 14.8727 18.6742C14.9222 18.4979 14.9786 18.3224 15.0412 18.1522C15.0954 18.0061 15.1572 17.8569 15.2253 17.7092C15.2972 17.5499 15.3799 17.3891 15.4758 17.2205C16.0395 16.2308 16.8599 15.4104 17.8496 14.8468C18.0189 14.7501 18.1798 14.6681 18.3414 14.5947C18.4867 14.5274 18.636 14.4656 18.7821 14.4122C18.9615 14.3465 19.1316 14.2916 19.304 14.2437L19.5105 14.989C19.3589 15.0308 19.2074 15.0795 19.0489 15.1383C18.9221 15.1846 18.7929 15.2388 18.6638 15.2983C18.5215 15.3625 18.3816 15.4344 18.2331 15.5195C17.3648 16.0143 16.6441 16.7349 16.1493 17.6033C16.065 17.7509 15.9931 17.8917 15.9297 18.0316C15.8686 18.1631 15.8152 18.293 15.7681 18.4198C15.7124 18.5713 15.6621 18.726 15.6188 18.8806C15.4889 19.3569 15.4224 19.8533 15.4224 20.3536L15.4217 20.3528Z" fill="#002D59"/>
<path d="M22.6651 26.4629L22.457 25.7181C22.6249 25.671 22.7749 25.623 22.9157 25.5696C23.0587 25.5163 23.1856 25.4629 23.3039 25.4088C23.4578 25.3384 23.5978 25.2657 23.7332 25.1876C24.6025 24.6918 25.3233 23.971 25.8183 23.1033L26.4904 23.4861C25.9266 24.4745 25.106 25.2951 24.1176 25.8589C23.9629 25.9478 23.802 26.0306 23.628 26.111C23.4926 26.1737 23.3488 26.2332 23.1879 26.2935C23.0263 26.3546 22.8553 26.4096 22.6651 26.4629Z" fill="#002D59"/>
<path d="M20.9813 35.4249C17.1198 35.4249 13.2583 33.955 10.3193 31.0153C4.44044 25.1365 4.44044 15.5703 10.3193 9.6908C16.1989 3.81205 25.7645 3.81205 31.6442 9.6908C37.523 15.5695 37.523 25.1357 31.6442 31.0153C28.7044 33.955 24.8428 35.4249 20.9813 35.4249ZM20.9813 6.05514C17.3178 6.05514 13.655 7.44925 10.866 10.2382C5.28867 15.8162 5.28867 24.8914 10.866 30.4686C16.444 36.0466 25.5194 36.0466 31.0967 30.4686C36.674 24.8906 36.674 15.8154 31.0967 10.2382C28.3077 7.44925 24.6441 6.05514 20.9813 6.05514Z" fill="#002D59"/>
<path d="M10.5924 33.5846C12.1622 33.5846 13.4348 32.312 13.4348 30.7422C13.4348 29.1725 12.1622 27.8999 10.5924 27.8999C9.02258 27.8999 7.75 29.1725 7.75 30.7422C7.75 32.312 9.02258 33.5846 10.5924 33.5846Z" fill="white"/>
<path d="M10.5914 32.5199C10.1358 32.5199 9.68027 32.3467 9.33378 32.0002C8.99812 31.6645 8.8125 31.2175 8.8125 30.7427C8.8125 30.2678 8.99735 29.8208 9.33378 29.4851C10.0275 28.7914 11.1552 28.7921 11.8489 29.4851C12.1846 29.8208 12.3702 30.2678 12.3702 30.7427C12.3702 31.2175 12.1854 31.6645 11.8489 32.0002C11.5024 32.3467 11.0469 32.5199 10.5914 32.5199ZM10.5914 29.738C10.3338 29.738 10.0763 29.8362 9.88059 30.0319C9.6911 30.2214 9.58591 30.4743 9.58591 30.7427C9.58591 31.011 9.69033 31.2632 9.88059 31.4534C10.2727 31.8455 10.91 31.8455 11.3021 31.4534C11.4916 31.2639 11.5968 31.011 11.5968 30.7427C11.5968 30.4743 11.4924 30.2222 11.3021 30.0319C11.1064 29.8362 10.8489 29.738 10.5914 29.738Z" fill="#002D59"/>
<path d="M31.3697 12.8072C32.9395 12.8072 34.2121 11.5347 34.2121 9.96489C34.2121 8.39512 32.9395 7.12256 31.3697 7.12256C29.7999 7.12256 28.5273 8.39512 28.5273 9.96489C28.5273 11.5347 29.7999 12.8072 31.3697 12.8072Z" fill="white"/>
<path d="M31.3718 11.7434C30.897 11.7434 30.4499 11.5585 30.1143 11.2221C29.7786 10.8865 29.5938 10.4394 29.5938 9.96457C29.5938 9.4897 29.7786 9.04268 30.115 8.70702C30.4507 8.37136 30.8977 8.18652 31.3726 8.18652C31.8475 8.18652 32.2945 8.37136 32.6302 8.70702C32.9658 9.04268 33.1515 9.4897 33.1515 9.96457C33.1515 10.4394 32.9666 10.8865 32.6302 11.2221C32.2945 11.5578 31.8475 11.7426 31.3726 11.7426L31.3718 11.7434ZM31.3718 8.95992C31.1035 8.95992 30.8513 9.06433 30.6611 9.25459C30.4708 9.44407 30.3664 9.69697 30.3664 9.96534C30.3664 10.2337 30.4708 10.4858 30.6611 10.6761C30.8513 10.8664 31.1035 10.9708 31.3718 10.9708C31.6402 10.9708 31.8923 10.8664 32.0826 10.6761C32.2721 10.4866 32.3773 10.2337 32.3773 9.96534C32.3773 9.69697 32.2729 9.44484 32.0826 9.25459C31.8923 9.06511 31.6402 8.95992 31.3718 8.95992Z" fill="#002D59"/>
</svg>
