<svg width="42" height="42" viewBox="0 0 42 42" fill="none" xmlns="http://www.w3.org/2000/svg">
<mask id="mask0_909_6374" style="mask-type:alpha" maskUnits="userSpaceOnUse" x="0" y="0" width="42" height="42">
<circle cx="20.7961" cy="21.3694" r="20.3899" fill="#D9D9D9"/>
</mask>
<g mask="url(#mask0_909_6374)">
<g filter="url(#filter0_d_909_6374)">
<path fill-rule="evenodd" clip-rule="evenodd" d="M41.045 21.3688C41.045 31.8506 33.0559 40.4667 22.8346 41.4584C22.1854 41.5212 21.5267 41.5538 20.8608 41.5538C20.1949 41.5538 19.5354 41.5212 18.8853 41.4576C8.66492 40.4659 0.675781 31.8498 0.675781 21.3688C0.675781 19.3782 0.964229 17.4553 1.50139 15.6388C1.6778 15.0412 1.88122 14.4548 2.11007 13.8818C5.08435 6.44179 12.3583 1.18457 20.8608 1.18457C29.3632 1.18457 36.7183 6.5006 39.66 14.0066C39.896 14.6089 40.1042 15.2263 40.2822 15.8549C40.7796 17.6078 41.045 19.4569 41.045 21.3688Z" fill="white"/>
<path d="M20.8597 41.9512C20.1882 41.9512 19.5112 41.9178 18.8453 41.8534C13.782 41.3624 9.09686 39.0135 5.65296 35.2398C2.18682 31.4415 0.277344 26.5156 0.277344 21.3689C0.277344 19.3815 0.560229 17.4156 1.11964 15.526C1.29764 14.9221 1.50662 14.319 1.74024 13.7341C3.25003 9.9565 5.8246 6.73431 9.18586 4.4156C12.6274 2.04286 16.664 0.787354 20.8597 0.787354C25.0553 0.787354 29.1356 2.05557 32.5891 4.45454C35.963 6.79867 38.536 10.0519 40.0291 13.8613C40.2699 14.4763 40.4837 15.1104 40.664 15.7461C41.1805 17.565 41.442 19.4562 41.442 21.3681C41.442 26.5148 39.5325 31.4407 36.0656 35.2398C32.6217 39.0135 27.9358 41.3624 22.8724 41.8534C22.205 41.9178 21.5279 41.9504 20.8604 41.9504L20.8597 41.9512ZM20.8597 1.58198C16.8254 1.58198 12.9444 2.78821 9.6372 5.07037C6.40547 7.30008 3.93022 10.3975 2.47845 14.0297C2.25436 14.5915 2.05332 15.1708 1.88169 15.7517C1.34452 17.5682 1.07197 19.4578 1.07197 21.3689C1.07197 26.3162 2.90754 31.0521 6.24019 34.7042C9.55138 38.3325 14.0553 40.59 18.9224 41.0628C20.1993 41.1876 21.5089 41.1883 22.7954 41.0628C27.6624 40.5908 32.1671 38.3325 35.4783 34.7042C38.811 31.0521 40.6465 26.3162 40.6465 21.3681C40.6465 19.5301 40.3947 17.7112 39.8988 15.9631C39.7256 15.352 39.5206 14.7425 39.2885 14.1513C37.8527 10.4881 35.379 7.36047 32.1353 5.10692C28.8162 2.80093 24.917 1.58198 20.8597 1.58198Z" fill="#002D59"/>
<path d="M34.2371 13.0542L5.09119 20.2137C4.43483 20.3751 4.17101 21.1657 4.59932 21.6886L6.77023 24.341C7.78257 25.5782 9.41632 26.1234 10.969 25.7419L25.4001 22.1971C28.341 21.4748 30.8759 19.617 32.4508 17.0305L34.5844 13.5262C34.7314 13.2846 34.5129 12.9859 34.2379 13.0534L34.2371 13.0542Z" fill="white"/>
<path d="M9.9893 26.2576C8.64321 26.2576 7.33288 25.6577 6.46118 24.5921L4.29027 21.9397C4.00262 21.5876 3.9168 21.1204 4.06063 20.6889C4.20445 20.2574 4.55409 19.9356 4.9951 19.8276L34.1411 12.668C34.4232 12.5989 34.7164 12.7054 34.8872 12.9398C35.0589 13.1742 35.0724 13.4857 34.9214 13.7336L32.7878 17.2379C31.1469 19.9324 28.5565 21.8308 25.4924 22.5833L11.0613 26.1281C10.7061 26.2155 10.3461 26.2576 9.98771 26.2576H9.9893ZM34.1419 13.4865L5.18502 20.5999C5.00782 20.6436 4.87273 20.7684 4.81472 20.9416C4.75672 21.1148 4.79009 21.296 4.9061 21.4375L7.07701 24.0899C7.98765 25.2024 9.47757 25.6998 10.8737 25.3565L25.3049 21.8117C28.1631 21.1093 30.5804 19.3381 32.1108 16.8247L34.1427 13.4873L34.1419 13.4865Z" fill="#002D59"/>
<path d="M14.5113 18.3097L13.8509 15.1853C13.7723 14.8126 13.9439 14.4383 14.2784 14.2548L14.288 14.25L23.299 9.62611C23.6907 9.41474 24.185 9.54109 24.4274 9.91456L27.76 15.0558L14.5113 18.3105V18.3097ZM14.6575 14.9525C14.6344 14.9668 14.6225 14.9938 14.6281 15.02L15.1191 17.3419L26.4854 14.5496L23.7599 10.346C23.7416 10.3182 23.7042 10.3087 23.6756 10.3246L23.6661 10.3294L14.6583 14.9517L14.6575 14.9525Z" fill="#002D59"/>
<path d="M5.68329 23.639L4.26807 21.9171C3.98359 21.5706 3.89857 21.1105 4.03922 20.6854C4.18066 20.2603 4.52473 19.9432 4.95939 19.836L33.325 12.8679L27.3256 17.3695C26.0566 18.3214 24.6327 18.9953 23.0919 19.3727L5.6817 23.6382L5.68329 23.639ZM29.7365 14.5684L5.1501 20.6083C4.97925 20.6505 4.84973 20.7704 4.79411 20.9365C4.73848 21.1034 4.77106 21.2766 4.88231 21.4125L5.97968 22.7483L22.9036 18.6011C24.3394 18.2491 25.6673 17.6214 26.8497 16.7338L29.7357 14.5684H29.7365Z" fill="#002D59"/>
<path d="M8.71876 19.7323L8.07432 17.11C7.93209 16.5308 8.28728 15.9443 8.86656 15.8021L11.341 15.1942C11.9203 15.052 12.5067 15.4072 12.649 15.9864L13.2934 18.6087L8.71876 19.7323ZM11.5993 15.9578C11.577 15.9578 11.554 15.9602 11.5309 15.9658L9.05648 16.5737C8.90311 16.6118 8.80855 16.7668 8.8467 16.9209L9.30122 18.7708L12.3327 18.0262L11.8782 16.1756C11.8464 16.0452 11.7288 15.957 11.5993 15.957V15.9578Z" fill="#002D59"/>
<path d="M-2.30859 30.7834V30.4123C-1.87761 30.4123 -1.44662 30.2945 -1.04803 30.0579C-0.80554 29.9145 -0.562067 29.7702 -0.318594 29.6269C0.479566 29.1547 1.40437 29.1547 2.20253 29.6269C2.446 29.7702 2.6885 29.9145 2.93197 30.0579C3.73013 30.5301 4.65493 30.5301 5.45309 30.0579C5.69657 29.9145 5.94004 29.7702 6.18253 29.6269C6.98069 29.1547 7.9055 29.1547 8.70366 29.6269C8.94713 29.7702 9.1906 29.9145 9.43309 30.0579C10.2313 30.5301 11.1561 30.5301 11.9542 30.0579C12.1977 29.9145 12.4412 29.7702 12.6837 29.6269C13.4818 29.1547 14.4066 29.1547 15.2048 29.6269C15.4483 29.7702 15.6907 29.9145 15.9342 30.0579C16.7324 30.5301 17.6572 30.5301 18.4563 30.0579C18.6998 29.9145 18.9423 29.7702 19.1858 29.6269C19.9839 29.1547 20.9087 29.1547 21.7069 29.6269C21.9504 29.7702 22.1929 29.9145 22.4363 30.0579C23.2345 30.5301 24.1593 30.5301 24.9584 30.0579C25.2019 29.9145 25.4444 29.7702 25.6879 29.6269C26.486 29.1547 27.4108 29.1547 28.21 29.6269C28.4535 29.7702 28.6959 29.9145 28.9394 30.0579C29.7376 30.5301 30.6624 30.5301 31.4605 30.0579C31.704 29.9145 31.9465 29.7702 32.19 29.6269C32.9881 29.1547 33.9129 29.1547 34.7111 29.6269C34.9546 29.7702 35.1971 29.9145 35.4405 30.0579C36.2387 30.5301 37.1635 30.5301 37.9617 30.0579C38.2051 29.9145 38.4476 29.7702 38.6911 29.6269C39.4893 29.1547 40.4141 29.1547 41.2122 29.6269C41.4557 29.7702 41.6982 29.9145 41.9417 30.0579C42.3412 30.2945 42.7712 30.4123 43.2022 30.4123V30.7834C42.7712 30.7834 42.3403 30.6656 41.9417 30.429C41.6982 30.2856 41.4557 30.1413 41.2122 29.998C40.4141 29.5258 39.4893 29.5258 38.6911 29.998C38.4476 30.1413 38.2042 30.2856 37.9617 30.429C37.1635 30.9012 36.2387 30.9012 35.4405 30.429C35.1971 30.2856 34.9546 30.1413 34.7111 29.998C33.9129 29.5258 32.9881 29.5258 32.19 29.998C31.9465 30.1413 31.703 30.2856 31.4605 30.429C30.6614 30.9012 29.7376 30.9012 28.9394 30.429C28.6959 30.2856 28.4535 30.1413 28.21 29.998C27.4108 29.5258 26.487 29.5258 25.6879 29.998C25.4444 30.1413 25.2019 30.2856 24.9584 30.429C24.1603 30.9012 23.2355 30.9012 22.4363 30.429C22.1929 30.2856 21.9504 30.1413 21.7069 29.998C20.9087 29.5258 19.9839 29.5258 19.1858 29.998C18.9423 30.1413 18.6998 30.2856 18.4563 30.429C17.6582 30.9012 16.7334 30.9012 15.9342 30.429C15.6917 30.2856 15.4483 30.1413 15.2048 29.998C14.4066 29.5258 13.4818 29.5258 12.6837 29.998C12.4402 30.1413 12.1977 30.2856 11.9542 30.429C11.1561 30.9012 10.2313 30.9012 9.43309 30.429C9.18962 30.2856 8.94615 30.1413 8.70366 29.998C7.9055 29.5258 6.98069 29.5258 6.18253 29.998C5.93906 30.1413 5.69657 30.2856 5.45309 30.429C4.65493 30.9012 3.73013 30.9012 2.93197 30.429C2.6885 30.2856 2.446 30.1413 2.20253 29.998C1.40437 29.5258 0.479566 29.5258 -0.318594 29.998C-0.562067 30.1413 -0.804558 30.2856 -1.04803 30.429C-1.4476 30.6656 -1.87859 30.7834 -2.30859 30.7834Z" stroke="#002D59" stroke-width="0.413315" stroke-miterlimit="10"/>
<path d="M-2.30859 34.6723C-1.87761 34.6723 -1.44662 34.5545 -1.04803 34.3179C-0.80554 34.1745 -0.562067 34.0302 -0.318594 33.8869C0.479566 33.4147 1.40437 33.4147 2.20253 33.8869C2.446 34.0302 2.6885 34.1745 2.93197 34.3179C3.73013 34.7901 4.65493 34.7901 5.45309 34.3179C5.69657 34.1745 5.94004 34.0302 6.18253 33.8869C6.98069 33.4147 7.9055 33.4147 8.70366 33.8869C8.94713 34.0302 9.1906 34.1745 9.43309 34.3179C10.2313 34.7901 11.1561 34.7901 11.9542 34.3179C12.1977 34.1745 12.4412 34.0302 12.6837 33.8869C13.4818 33.4147 14.4066 33.4147 15.2048 33.8869C15.4483 34.0302 15.6907 34.1745 15.9342 34.3179C16.7334 34.7901 17.6572 34.7901 18.4563 34.3179C18.6998 34.1745 18.9423 34.0302 19.1858 33.8869C19.9839 33.4147 20.9087 33.4147 21.7069 33.8869C21.9504 34.0302 22.1929 34.1745 22.4363 34.3179C23.2345 34.7901 24.1593 34.7901 24.9584 34.3179C25.2019 34.1745 25.4444 34.0302 25.6879 33.8869C26.486 33.4147 27.4108 33.4147 28.21 33.8869C28.4535 34.0302 28.6959 34.1745 28.9394 34.3179C29.7376 34.7901 30.6624 34.7901 31.4605 34.3179C31.704 34.1745 31.9465 34.0302 32.19 33.8869C32.9881 33.4147 33.9129 33.4147 34.7111 33.8869C34.9546 34.0302 35.1971 34.1745 35.4405 34.3179C36.2387 34.7901 37.1635 34.7901 37.9617 34.3179C38.2051 34.1745 38.4476 34.0302 38.6911 33.8869C39.4893 33.4147 40.4141 33.4147 41.2122 33.8869C41.4557 34.0302 41.6982 34.1745 41.9417 34.3179C42.3412 34.5535 42.7712 34.6723 43.2022 34.6723V34.3012C42.7712 34.3012 42.3403 34.1834 41.9417 33.9468C41.6982 33.8034 41.4557 33.6591 41.2122 33.5158C40.4141 33.0436 39.4893 33.0436 38.6911 33.5158C38.4476 33.6591 38.2042 33.8034 37.9617 33.9468C37.1635 34.419 36.2387 34.419 35.4405 33.9468C35.1971 33.8034 34.9546 33.6591 34.7111 33.5158C33.9129 33.0436 32.9881 33.0436 32.19 33.5158C31.9465 33.6591 31.703 33.8034 31.4605 33.9468C30.6614 34.419 29.7376 34.419 28.9394 33.9468C28.6959 33.8034 28.4535 33.6591 28.21 33.5158C27.4108 33.0436 26.487 33.0436 25.6879 33.5158C25.4444 33.6591 25.2019 33.8034 24.9584 33.9468C24.1603 34.419 23.2355 34.419 22.4363 33.9468C22.1929 33.8034 21.9504 33.6591 21.7069 33.5158C20.9087 33.0436 19.9839 33.0436 19.1858 33.5158C18.9423 33.6591 18.6998 33.8034 18.4563 33.9468C17.6582 34.419 16.7334 34.419 15.9342 33.9468C15.6917 33.8034 15.4483 33.6591 15.2048 33.5158C14.4066 33.0436 13.4818 33.0436 12.6837 33.5158C12.4402 33.6591 12.1977 33.8034 11.9542 33.9468C11.1561 34.419 10.2313 34.419 9.43309 33.9468C9.18962 33.8034 8.94615 33.6591 8.70366 33.5158C7.9055 33.0436 6.98069 33.0436 6.18253 33.5158C5.93906 33.6591 5.69657 33.8034 5.45309 33.9468C4.65493 34.419 3.73013 34.419 2.93197 33.9468C2.6885 33.8034 2.446 33.6591 2.20253 33.5158C1.40437 33.0436 0.479566 33.0436 -0.318594 33.5158C-0.562067 33.6591 -0.804558 33.8034 -1.04803 33.9468C-1.4476 34.1834 -1.87859 34.3012 -2.30859 34.3012V34.6723Z" stroke="#002D59" stroke-width="0.413315" stroke-miterlimit="10"/>
<path d="M-2.30859 38.5614V38.1903C-1.87761 38.1903 -1.44662 38.0725 -1.04803 37.8359C-0.80554 37.6926 -0.562067 37.5483 -0.318594 37.4049C0.479566 36.9327 1.40437 36.9327 2.20253 37.4049C2.446 37.5483 2.6885 37.6926 2.93197 37.8359C3.73013 38.3082 4.65493 38.3082 5.45309 37.8359C5.69657 37.6926 5.94004 37.5483 6.18253 37.4049C6.98069 36.9327 7.9055 36.9327 8.70366 37.4049C8.94713 37.5483 9.1906 37.6926 9.43309 37.8359C10.2313 38.3082 11.1561 38.3082 11.9542 37.8359C12.1977 37.6926 12.4412 37.5483 12.6837 37.4049C13.4818 36.9327 14.4066 36.9327 15.2048 37.4049C15.4483 37.5483 15.6907 37.6926 15.9342 37.8359C16.7324 38.3082 17.6572 38.3082 18.4563 37.8359C18.6998 37.6926 18.9423 37.5483 19.1858 37.4049C19.9839 36.9327 20.9087 36.9327 21.7069 37.4049C21.9504 37.5483 22.1929 37.6926 22.4363 37.8359C23.2345 38.3082 24.1593 38.3082 24.9584 37.8359C25.2019 37.6926 25.4444 37.5483 25.6879 37.4049C26.486 36.9327 27.4108 36.9327 28.21 37.4049C28.4535 37.5483 28.6959 37.6926 28.9394 37.8359C29.7376 38.3082 30.6624 38.3082 31.4605 37.8359C31.704 37.6926 31.9465 37.5483 32.19 37.4049C32.9881 36.9327 33.9129 36.9327 34.7111 37.4049C34.9546 37.5483 35.1971 37.6926 35.4405 37.8359C36.2387 38.3082 37.1635 38.3082 37.9617 37.8359C38.2051 37.6926 38.4476 37.5483 38.6911 37.4049C39.4893 36.9327 40.4141 36.9327 41.2122 37.4049C41.4557 37.5483 41.6982 37.6926 41.9417 37.8359C42.3412 38.0725 42.7712 38.1903 43.2022 38.1903V38.5614C42.7712 38.5614 42.3403 38.4436 41.9417 38.207C41.6982 38.0637 41.4557 37.9194 41.2122 37.776C40.4141 37.3038 39.4893 37.3038 38.6911 37.776C38.4476 37.9204 38.2042 38.0637 37.9617 38.207C37.1635 38.6793 36.2387 38.6793 35.4405 38.207C35.1971 38.0637 34.9546 37.9194 34.7111 37.776C33.9129 37.3038 32.9881 37.3038 32.19 37.776C31.9465 37.9204 31.703 38.0637 31.4605 38.207C30.6614 38.6793 29.7376 38.6793 28.9394 38.207C28.6959 38.0637 28.4535 37.9194 28.21 37.776C27.4108 37.3038 26.487 37.3038 25.6879 37.776C25.4444 37.9204 25.2019 38.0637 24.9584 38.207C24.1603 38.6793 23.2355 38.6793 22.4363 38.207C22.1929 38.0637 21.9504 37.9194 21.7069 37.776C20.9087 37.3038 19.9839 37.3038 19.1858 37.776C18.9423 37.9204 18.6998 38.0637 18.4563 38.207C17.6582 38.6793 16.7334 38.6793 15.9342 38.207C15.6917 38.0637 15.4483 37.9194 15.2048 37.776C14.4066 37.3038 13.4818 37.3038 12.6837 37.776C12.4402 37.9204 12.1977 38.0637 11.9542 38.207C11.1561 38.6793 10.2313 38.6793 9.43309 38.207C9.18962 38.0637 8.94615 37.9194 8.70366 37.776C7.9055 37.3038 6.98069 37.3038 6.18253 37.776C5.93906 37.9204 5.69657 38.0637 5.45309 38.207C4.65493 38.6793 3.73013 38.6793 2.93197 38.207C2.6885 38.0637 2.446 37.9194 2.20253 37.776C1.40437 37.3038 0.479566 37.3038 -0.318594 37.776C-0.562067 37.9204 -0.804558 38.0637 -1.04803 38.207C-1.4476 38.4427 -1.87859 38.5614 -2.30859 38.5614Z" stroke="#002D59" stroke-width="0.413315" stroke-miterlimit="10"/>
<path d="M40.7268 17.9884L1.78516 27.8711L1.98062 28.6413L40.9223 18.7586L40.7268 17.9884Z" fill="#002D59"/>
</g>
</g>
<defs>
<filter id="filter0_d_909_6374" x="-5.24237" y="0.787354" width="51.3793" height="46.6173" filterUnits="userSpaceOnUse" color-interpolation-filters="sRGB">
<feFlood flood-opacity="0" result="BackgroundImageFix"/>
<feColorMatrix in="SourceAlpha" type="matrix" values="0 0 0 0 0 0 0 0 0 0 0 0 0 0 0 0 0 0 127 0" result="hardAlpha"/>
<feOffset dy="2.72674"/>
<feGaussianBlur stdDeviation="1.36337"/>
<feComposite in2="hardAlpha" operator="out"/>
<feColorMatrix type="matrix" values="0 0 0 0 0 0 0 0 0 0 0 0 0 0 0 0 0 0 0.25 0"/>
<feBlend mode="normal" in2="BackgroundImageFix" result="effect1_dropShadow_909_6374"/>
<feBlend mode="normal" in="SourceGraphic" in2="effect1_dropShadow_909_6374" result="shape"/>
</filter>
</defs>
</svg>
