<svg width="41" height="41" viewBox="0 0 41 41" fill="none" xmlns="http://www.w3.org/2000/svg">
<path fill-rule="evenodd" clip-rule="evenodd" d="M40.3912 20.3896C40.3912 30.7737 32.4766 39.3094 22.3507 40.2919C21.7075 40.3541 21.0549 40.3863 20.3952 40.3863C19.7355 40.3863 19.0822 40.3541 18.4382 40.2911C8.31308 39.3087 0.398438 30.7729 0.398438 20.3896C0.398438 18.4176 0.684196 16.5125 1.21635 14.713C1.39111 14.121 1.59264 13.54 1.81936 12.9724C4.7659 5.60176 11.972 0.393555 20.3952 0.393555C28.8184 0.393555 36.1049 5.66001 39.0191 13.096C39.2529 13.6927 39.4592 14.3044 39.6355 14.9271C40.1283 16.6637 40.3912 18.4955 40.3912 20.3896Z" fill="white"/>
<path d="M20.3904 40.78C19.7252 40.78 19.0545 40.7469 18.3948 40.6832C13.3787 40.1967 8.73728 37.8697 5.3255 34.1312C1.89167 30.3683 0 25.4884 0 20.3896C0 18.4208 0.280248 16.4732 0.834446 14.6012C1.01078 14.0029 1.21782 13.4055 1.44926 12.8261C2.94496 9.08365 5.49554 5.8915 8.82545 3.59442C12.2349 1.2438 16.2339 0 20.3904 0C24.5469 0 28.5892 1.25639 32.0104 3.63299C35.353 5.95527 37.902 9.17812 39.3811 12.952C39.6197 13.5613 39.8314 14.1895 40.0101 14.8193C40.5218 16.6212 40.7808 18.4948 40.7808 20.3888C40.7808 25.4876 38.8891 30.3675 35.4545 34.1312C32.0427 37.8697 27.4005 40.1967 22.3844 40.6832C21.7231 40.7469 21.0524 40.7792 20.3912 40.7792L20.3904 40.78ZM20.3904 0.787213C16.3937 0.787213 12.549 1.9822 9.27258 4.24308C6.07099 6.452 3.61882 9.52056 2.18058 13.1189C1.95859 13.6755 1.75942 14.2493 1.58938 14.8248C1.05723 16.6244 0.787213 18.4964 0.787213 20.3896C0.787213 25.2908 2.60568 29.9826 5.90725 33.6006C9.18756 37.195 13.6495 39.4315 18.4712 39.8999C19.7362 40.0235 21.0335 40.0243 22.308 39.8999C27.1297 39.4323 31.5924 37.195 34.8728 33.6006C38.1743 29.9826 39.9928 25.2908 39.9928 20.3888C39.9928 18.568 39.7432 16.7661 39.252 15.0342C39.0804 14.4288 38.8773 13.825 38.6474 13.2394C37.2249 9.6103 34.7744 6.51183 31.561 4.27929C28.2728 1.9948 24.4099 0.787213 20.3904 0.787213Z" fill="#002D59"/>
<path d="M33.6346 12.1513L4.76044 19.2441C4.1102 19.4039 3.84884 20.1871 4.27315 20.7051L6.42382 23.3328C7.42673 24.5585 9.04524 25.0986 10.5835 24.7207L24.88 21.2089C27.7935 20.4934 30.3047 18.6529 31.865 16.0905L33.9786 12.6189C34.1243 12.3796 33.9078 12.0836 33.6354 12.1505L33.6346 12.1513Z" fill="white"/>
<path d="M9.60917 25.2318C8.27563 25.2318 6.97751 24.6375 6.11394 23.5818L3.96327 20.9541C3.6783 20.6054 3.59328 20.1425 3.73577 19.715C3.87825 19.2876 4.22463 18.9687 4.66153 18.8617L33.5357 11.7689C33.8152 11.7004 34.1057 11.8059 34.2749 12.0381C34.445 12.2703 34.4583 12.5789 34.3088 12.8245L32.1951 16.2962C30.5695 18.9656 28.0032 20.8462 24.9677 21.5917L10.6711 25.1035C10.3192 25.1901 9.96263 25.2318 9.60759 25.2318H9.60917ZM33.5365 12.5797L4.84968 19.6269C4.67413 19.6701 4.5403 19.7937 4.48283 19.9654C4.42537 20.137 4.45843 20.3164 4.57336 20.4566L6.72403 23.0843C7.62618 24.1864 9.1022 24.6792 10.4853 24.3391L24.7819 20.8274C27.6135 20.1315 30.0082 18.3768 31.5244 15.8868L33.5373 12.5805L33.5365 12.5797Z" fill="#002D59"/>
<path d="M14.0909 17.3589L13.4367 14.2634C13.3588 13.8942 13.5288 13.5234 13.8602 13.3415L13.8697 13.3368L22.7971 8.75578C23.1852 8.54637 23.6749 8.67154 23.915 9.04155L27.2168 14.1351L14.0909 17.3597V17.3589ZM14.2358 14.0327C14.2129 14.0469 14.2011 14.0737 14.2066 14.0997L14.6931 16.4L25.954 13.6336L23.2537 9.46903C23.2356 9.44148 23.1986 9.43203 23.1703 9.44777L23.1608 9.4525L14.2365 14.032L14.2358 14.0327Z" fill="#002D59"/>
<path d="M5.34703 22.6384L3.945 20.9326C3.66318 20.5893 3.57895 20.1335 3.71828 19.7124C3.85841 19.2912 4.19927 18.9771 4.62988 18.8708L32.731 11.9678L26.7876 16.4273C25.5304 17.3704 24.1197 18.038 22.5933 18.4119L5.34545 22.6377L5.34703 22.6384ZM29.176 13.6524L4.81881 19.636C4.64956 19.6777 4.52124 19.7966 4.46613 19.9611C4.41103 20.1265 4.44331 20.2981 4.55352 20.4327L5.64066 21.756L22.4067 17.6475C23.8292 17.2988 25.1447 16.6769 26.316 15.7976L29.1752 13.6524H29.176Z" fill="#002D59"/>
<path d="M8.35312 18.7671L7.71466 16.1691C7.57374 15.5952 7.92564 15.0142 8.49955 14.8733L10.9511 14.2711C11.525 14.1301 12.106 14.482 12.2469 15.0559L12.8853 17.6539L8.35312 18.7671ZM11.2069 15.0276C11.1849 15.0276 11.162 15.03 11.1392 15.0355L8.6877 15.6377C8.53576 15.6755 8.44208 15.829 8.47987 15.9818L8.93018 17.8145L11.9335 17.0768L11.4832 15.2433C11.4517 15.1142 11.3352 15.0268 11.2069 15.0268V15.0276Z" fill="#002D59"/>
<path d="M2.10938 28.7115C2.10938 28.7115 2.3871 28.8529 2.62831 28.9949C3.41902 29.4627 4.33521 29.4627 5.12592 28.9949C5.36713 28.8529 5.60833 28.7099 5.84856 28.5679C6.63928 28.1001 7.55546 28.1001 8.34618 28.5679C8.58738 28.7099 8.82858 28.8529 9.06881 28.9949C9.85953 29.4627 10.7757 29.4627 11.5664 28.9949C11.8076 28.8529 12.0488 28.7099 12.2891 28.5679C13.0798 28.1001 13.996 28.1001 14.7867 28.5679C15.0279 28.7099 15.2681 28.8529 15.5093 28.9949C16.3 29.4627 17.2162 29.4627 18.0079 28.9949C18.2491 28.8529 18.4893 28.7099 18.7305 28.5679C19.5213 28.1001 20.4374 28.1001 21.2282 28.5679C21.4694 28.7099 21.7096 28.8529 21.9508 28.9949C22.7415 29.4627 23.6577 29.4627 24.4494 28.9949C24.6906 28.8529 24.9308 28.7099 25.172 28.5679C25.9627 28.1001 26.8789 28.1001 27.6706 28.5679C27.9118 28.7099 28.152 28.8529 28.3933 28.9949C29.184 29.4627 30.1002 29.4627 30.8909 28.9949C31.1321 28.8529 31.3723 28.7099 31.6135 28.5679C32.4042 28.1001 33.3204 28.1001 34.1111 28.5679C34.3523 28.7099 34.5926 28.8529 34.8338 28.9949C35.6245 29.4627 36.5407 29.4627 37.3314 28.9949C37.5726 28.8529 37.8128 28.7099 38.054 28.5679C38.953 28.0387 38.054 28.9355 38.054 28.9355C38.054 28.9355 37.5716 29.2205 37.3314 29.3625C36.5407 29.8303 35.6245 29.8303 34.8338 29.3625C34.5926 29.2205 34.3523 29.0775 34.1111 28.9355C33.3204 28.4677 32.4042 28.4677 31.6135 28.9355C31.3723 29.0775 31.1311 29.2205 30.8909 29.3625C30.0992 29.8303 29.184 29.8303 28.3933 29.3625C28.152 29.2205 27.9118 29.0775 27.6706 28.9355C26.8789 28.4677 25.9637 28.4677 25.172 28.9355C24.9308 29.0775 24.6906 29.2205 24.4494 29.3625C23.6587 29.8303 22.7425 29.8303 21.9508 29.3625C21.7096 29.2205 21.4694 29.0775 21.2282 28.9355C20.4374 28.4677 19.5213 28.4677 18.7305 28.9355C18.4893 29.0775 18.2491 29.2205 18.0079 29.3625C17.2172 29.8303 16.301 29.8303 15.5093 29.3625C15.2691 29.2205 15.0279 29.0775 14.7867 28.9355C13.996 28.4677 13.0798 28.4677 12.2891 28.9355C12.0479 29.0775 11.8076 29.2205 11.5664 29.3625C10.7757 29.8303 9.85953 29.8303 9.06881 29.3625C8.82761 29.2205 8.58641 29.0775 8.34618 28.9355C7.55546 28.4677 6.63928 28.4677 5.84856 28.9355C5.60736 29.0775 5.36713 29.2205 5.12592 29.3625C4.33521 29.8303 3.41902 29.8303 2.62831 29.3625C2.3871 29.2205 2.19868 28.9949 2.19868 28.9949L2.10938 28.7115Z" fill="#002D59"/>
<path d="M5.12574 33.2156C5.12574 33.2156 5.60815 32.9307 5.84838 32.7887C6.6391 32.3208 7.55528 32.3208 8.346 32.7887C8.5872 32.9307 8.8284 33.0736 9.06863 33.2156C9.85935 33.6834 10.7755 33.6834 11.5663 33.2156C11.8075 33.0736 12.0487 32.9307 12.2889 32.7887C13.0796 32.3208 13.9958 32.3208 14.7865 32.7887C15.0277 32.9307 15.2679 33.0736 15.5091 33.2156C16.3008 33.6834 17.216 33.6834 18.0077 33.2156C18.2489 33.0736 18.4892 32.9307 18.7304 32.7887C19.5211 32.3208 20.4373 32.3208 21.228 32.7887C21.4692 32.9307 21.7094 33.0736 21.9506 33.2156C22.7413 33.6834 23.6575 33.6834 24.4492 33.2156C24.6904 33.0736 24.9306 32.9307 25.1718 32.7887C25.9626 32.3208 26.8787 32.3208 27.6704 32.7887C27.9116 32.9307 28.1519 33.0736 28.3931 33.2156C29.1838 33.6834 30.1 33.6834 30.8907 33.2156C31.1319 33.0736 31.3721 32.9307 31.6133 32.7887C32.404 32.3208 33.3202 32.3208 34.1109 32.7887C34.3521 32.9307 34.5924 33.0736 34.8336 33.2156C35.6243 33.6834 35.9956 33.2156 35.9956 33.2156V32.848C35.9956 32.848 35.6243 33.3158 34.8336 32.848C34.5924 32.706 34.3521 32.563 34.1109 32.421C33.3202 31.9532 32.404 31.9532 31.6133 32.421C31.3721 32.563 31.1309 32.706 30.8907 32.848C30.099 33.3158 29.1838 33.3158 28.3931 32.848C28.1519 32.706 27.9116 32.563 27.6704 32.421C26.8787 31.9532 25.9635 31.9532 25.1718 32.421C24.9306 32.563 24.6904 32.706 24.4492 32.848C23.6585 33.3158 22.7423 33.3158 21.9506 32.848C21.7094 32.706 21.4692 32.563 21.228 32.421C20.4373 31.9532 19.5211 31.9532 18.7304 32.421C18.4892 32.563 18.2489 32.706 18.0077 32.848C17.217 33.3158 16.3008 33.3158 15.5091 32.848C15.2689 32.706 15.0277 32.563 14.7865 32.421C13.9958 31.9532 13.0796 31.9532 12.2889 32.421C12.0477 32.563 11.8075 32.706 11.5663 32.848C10.7755 33.3158 9.85935 33.3158 9.06863 32.848C8.82743 32.706 8.58623 32.563 8.346 32.421C7.55528 31.9532 6.6391 31.9532 5.84838 32.421C5.60718 32.563 5.12574 32.848 5.12574 32.848V33.2156Z" fill="#002D59"/>
<path d="M8.1445 36.1103C8.38571 36.2523 8.8284 36.5577 9.06863 36.6997C9.85935 37.1675 10.7755 37.1675 11.5663 36.6997C11.8075 36.5577 12.0487 36.4147 12.2889 36.2727C13.0796 35.8049 13.9958 35.8049 14.7865 36.2727C15.0277 36.4147 15.2679 36.5577 15.5091 36.6997C16.2999 37.1675 17.216 37.1675 18.0077 36.6997C18.2489 36.5577 18.4892 36.4147 18.7304 36.2727C19.5211 35.8049 20.4373 35.8049 21.228 36.2727C21.4692 36.4147 21.7094 36.5577 21.9506 36.6997C22.7413 37.1675 23.6575 37.1675 24.4492 36.6997C24.6904 36.5577 24.9306 36.4147 25.1718 36.2727C25.9626 35.8049 26.8787 35.8049 27.6704 36.2727C27.9116 36.4147 28.1519 36.5577 28.3931 36.6997C29.1838 37.1675 30.1 37.1675 30.8907 36.6997C31.1319 36.5577 31.3721 36.4147 31.6133 36.2727C32.404 35.8049 32.4828 36.1103 32.4828 36.1103C32.4828 36.1103 32.404 36.1726 31.6133 36.6404C31.3721 36.7834 31.1309 36.9254 30.8907 37.0674C30.099 37.5352 29.1838 37.5352 28.3931 37.0674C28.1519 36.9254 27.9116 36.7824 27.6704 36.6404C26.8787 36.1726 25.9635 36.1726 25.1718 36.6404C24.9306 36.7834 24.6904 36.9254 24.4492 37.0674C23.6585 37.5352 22.7423 37.5352 21.9506 37.0674C21.7094 36.9254 21.4692 36.7824 21.228 36.6404C20.4373 36.1726 19.5211 36.1726 18.7304 36.6404C18.4892 36.7834 18.2489 36.9254 18.0077 37.0674C17.217 37.5352 16.3008 37.5352 15.5091 37.0674C15.2689 36.9254 15.0277 36.7824 14.7865 36.6404C13.9958 36.1726 13.0796 36.1726 12.2889 36.6404C12.0477 36.7834 11.8075 36.9254 11.5663 37.0674C10.7755 37.5352 9.85935 37.5352 9.06863 37.0674C8.82743 36.9254 8.58623 36.6098 8.346 36.4678C7.12531 35.7456 6.57262 35.1804 8.1445 36.1103Z" fill="#002D59"/>
<path d="M2.10938 28.7115C2.10938 28.7115 2.3871 28.8529 2.62831 28.9949C3.41902 29.4627 4.33521 29.4627 5.12592 28.9949C5.36713 28.8529 5.60833 28.7099 5.84856 28.5679C6.63928 28.1001 7.55546 28.1001 8.34618 28.5679C8.58738 28.7099 8.82858 28.8529 9.06881 28.9949C9.85953 29.4627 10.7757 29.4627 11.5664 28.9949C11.8076 28.8529 12.0488 28.7099 12.2891 28.5679C13.0798 28.1001 13.996 28.1001 14.7867 28.5679C15.0279 28.7099 15.2681 28.8529 15.5093 28.9949C16.3 29.4627 17.2162 29.4627 18.0079 28.9949C18.2491 28.8529 18.4893 28.7099 18.7305 28.5679C19.5213 28.1001 20.4374 28.1001 21.2282 28.5679C21.4694 28.7099 21.7096 28.8529 21.9508 28.9949C22.7415 29.4627 23.6577 29.4627 24.4494 28.9949C24.6906 28.8529 24.9308 28.7099 25.172 28.5679C25.9627 28.1001 26.8789 28.1001 27.6706 28.5679C27.9118 28.7099 28.152 28.8529 28.3933 28.9949C29.184 29.4627 30.1002 29.4627 30.8909 28.9949C31.1321 28.8529 31.3723 28.7099 31.6135 28.5679C32.4042 28.1001 33.3204 28.1001 34.1111 28.5679C34.3523 28.7099 34.5926 28.8529 34.8338 28.9949C35.6245 29.4627 36.5407 29.4627 37.3314 28.9949C37.5726 28.8529 37.8128 28.7099 38.054 28.5679C38.953 28.0387 38.054 28.9355 38.054 28.9355C38.054 28.9355 37.5716 29.2205 37.3314 29.3625C36.5407 29.8303 35.6245 29.8303 34.8338 29.3625C34.5926 29.2205 34.3523 29.0775 34.1111 28.9355C33.3204 28.4677 32.4042 28.4677 31.6135 28.9355C31.3723 29.0775 31.1311 29.2205 30.8909 29.3625C30.0992 29.8303 29.184 29.8303 28.3933 29.3625C28.152 29.2205 27.9118 29.0775 27.6706 28.9355C26.8789 28.4677 25.9637 28.4677 25.172 28.9355C24.9308 29.0775 24.6906 29.2205 24.4494 29.3625C23.6587 29.8303 22.7425 29.8303 21.9508 29.3625C21.7096 29.2205 21.4694 29.0775 21.2282 28.9355C20.4374 28.4677 19.5213 28.4677 18.7305 28.9355C18.4893 29.0775 18.2491 29.2205 18.0079 29.3625C17.2172 29.8303 16.301 29.8303 15.5093 29.3625C15.2691 29.2205 15.0279 29.0775 14.7867 28.9355C13.996 28.4677 13.0798 28.4677 12.2891 28.9355C12.0479 29.0775 11.8076 29.2205 11.5664 29.3625C10.7757 29.8303 9.85953 29.8303 9.06881 29.3625C8.82761 29.2205 8.58641 29.0775 8.34618 28.9355C7.55546 28.4677 6.63928 28.4677 5.84856 28.9355C5.60736 29.0775 5.36713 29.2205 5.12592 29.3625C4.33521 29.8303 3.41902 29.8303 2.62831 29.3625C2.3871 29.2205 2.19868 28.9949 2.19868 28.9949L2.10938 28.7115Z" stroke="#002D59" stroke-width="0.47" stroke-miterlimit="10"/>
<path d="M5.12574 33.2156C5.12574 33.2156 5.60815 32.9307 5.84838 32.7887C6.6391 32.3208 7.55528 32.3208 8.346 32.7887C8.5872 32.9307 8.8284 33.0736 9.06863 33.2156C9.85935 33.6834 10.7755 33.6834 11.5663 33.2156C11.8075 33.0736 12.0487 32.9307 12.2889 32.7887C13.0796 32.3208 13.9958 32.3208 14.7865 32.7887C15.0277 32.9307 15.2679 33.0736 15.5091 33.2156C16.3008 33.6834 17.216 33.6834 18.0077 33.2156C18.2489 33.0736 18.4892 32.9307 18.7304 32.7887C19.5211 32.3208 20.4373 32.3208 21.228 32.7887C21.4692 32.9307 21.7094 33.0736 21.9506 33.2156C22.7413 33.6834 23.6575 33.6834 24.4492 33.2156C24.6904 33.0736 24.9306 32.9307 25.1718 32.7887C25.9626 32.3208 26.8787 32.3208 27.6704 32.7887C27.9116 32.9307 28.1519 33.0736 28.3931 33.2156C29.1838 33.6834 30.1 33.6834 30.8907 33.2156C31.1319 33.0736 31.3721 32.9307 31.6133 32.7887C32.404 32.3208 33.3202 32.3208 34.1109 32.7887C34.3521 32.9307 34.5924 33.0736 34.8336 33.2156C35.6243 33.6834 35.9956 33.2156 35.9956 33.2156V32.848C35.9956 32.848 35.6243 33.3158 34.8336 32.848C34.5924 32.706 34.3521 32.563 34.1109 32.421C33.3202 31.9532 32.404 31.9532 31.6133 32.421C31.3721 32.563 31.1309 32.706 30.8907 32.848C30.099 33.3158 29.1838 33.3158 28.3931 32.848C28.1519 32.706 27.9116 32.563 27.6704 32.421C26.8787 31.9532 25.9635 31.9532 25.1718 32.421C24.9306 32.563 24.6904 32.706 24.4492 32.848C23.6585 33.3158 22.7423 33.3158 21.9506 32.848C21.7094 32.706 21.4692 32.563 21.228 32.421C20.4373 31.9532 19.5211 31.9532 18.7304 32.421C18.4892 32.563 18.2489 32.706 18.0077 32.848C17.217 33.3158 16.3008 33.3158 15.5091 32.848C15.2689 32.706 15.0277 32.563 14.7865 32.421C13.9958 31.9532 13.0796 31.9532 12.2889 32.421C12.0477 32.563 11.8075 32.706 11.5663 32.848C10.7755 33.3158 9.85935 33.3158 9.06863 32.848C8.82743 32.706 8.58623 32.563 8.346 32.421C7.55528 31.9532 6.6391 31.9532 5.84838 32.421C5.60718 32.563 5.12574 32.848 5.12574 32.848V33.2156Z" stroke="#002D59" stroke-width="0.47" stroke-miterlimit="10"/>
<path d="M8.1445 36.1103C8.38571 36.2523 8.8284 36.5577 9.06863 36.6997C9.85935 37.1675 10.7755 37.1675 11.5663 36.6997C11.8075 36.5577 12.0487 36.4147 12.2889 36.2727C13.0796 35.8049 13.9958 35.8049 14.7865 36.2727C15.0277 36.4147 15.2679 36.5577 15.5091 36.6997C16.2999 37.1675 17.216 37.1675 18.0077 36.6997C18.2489 36.5577 18.4892 36.4147 18.7304 36.2727C19.5211 35.8049 20.4373 35.8049 21.228 36.2727C21.4692 36.4147 21.7094 36.5577 21.9506 36.6997C22.7413 37.1675 23.6575 37.1675 24.4492 36.6997C24.6904 36.5577 24.9306 36.4147 25.1718 36.2727C25.9626 35.8049 26.8787 35.8049 27.6704 36.2727C27.9116 36.4147 28.1519 36.5577 28.3931 36.6997C29.1838 37.1675 30.1 37.1675 30.8907 36.6997C31.1319 36.5577 31.3721 36.4147 31.6133 36.2727C32.404 35.8049 32.4828 36.1103 32.4828 36.1103C32.4828 36.1103 32.404 36.1726 31.6133 36.6404C31.3721 36.7834 31.1309 36.9254 30.8907 37.0674C30.099 37.5352 29.1838 37.5352 28.3931 37.0674C28.1519 36.9254 27.9116 36.7824 27.6704 36.6404C26.8787 36.1726 25.9635 36.1726 25.1718 36.6404C24.9306 36.7834 24.6904 36.9254 24.4492 37.0674C23.6585 37.5352 22.7423 37.5352 21.9506 37.0674C21.7094 36.9254 21.4692 36.7824 21.228 36.6404C20.4373 36.1726 19.5211 36.1726 18.7304 36.6404C18.4892 36.7834 18.2489 36.9254 18.0077 37.0674C17.217 37.5352 16.3008 37.5352 15.5091 37.0674C15.2689 36.9254 15.0277 36.7824 14.7865 36.6404C13.9958 36.1726 13.0796 36.1726 12.2889 36.6404C12.0477 36.7834 11.8075 36.9254 11.5663 37.0674C10.7755 37.5352 9.85935 37.5352 9.06863 37.0674C8.82743 36.9254 8.58623 36.6098 8.346 36.4678C7.12531 35.7456 6.57262 35.1804 8.1445 36.1103Z" stroke="#002D59" stroke-width="0.47" stroke-miterlimit="10"/>
<path d="M40.0668 17.0405L1.48828 26.8311L1.68192 27.5941L40.2605 17.8035L40.0668 17.0405Z" fill="#002D59"/>
</svg>
