<svg width="40" height="41" viewBox="0 0 40 41" fill="none" xmlns="http://www.w3.org/2000/svg">
<path fill-rule="evenodd" clip-rule="evenodd" d="M39.4883 20.5415C39.4883 30.5449 31.8636 38.7677 22.1088 39.7142C21.4892 39.7741 20.8605 39.8052 20.225 39.8052C19.5895 39.8052 18.96 39.7741 18.3397 39.7134C8.58556 38.767 0.960938 30.5442 0.960938 20.5415C0.960938 18.6418 1.23622 16.8066 1.74888 15.073C1.91724 14.5027 2.11138 13.9431 2.32979 13.3963C5.16836 6.29583 12.1104 1.27856 20.225 1.27856C28.3395 1.27856 35.3589 6.35195 38.1664 13.5153C38.3917 14.0902 38.5903 14.6794 38.7602 15.2793C39.235 16.9522 39.4883 18.7169 39.4883 20.5415Z" fill="white"/>
<path d="M20.2253 40.1844C19.5844 40.1844 18.9383 40.1525 18.3028 40.0911C13.4705 39.6224 8.99914 37.3807 5.71238 33.7793C2.40439 30.1544 0.582031 25.4534 0.582031 20.5415C0.582031 18.6441 0.852768 16.7687 1.3859 14.9653C1.55653 14.3882 1.75522 13.8126 1.97818 13.2553C3.41908 9.65005 5.87695 6.57493 9.08408 4.36205C12.3686 2.09761 16.2211 0.899414 20.2253 0.899414C24.2294 0.899414 28.1236 2.10975 31.4195 4.39921C34.6395 6.63635 37.0951 9.74105 38.5201 13.3766C38.7506 13.9643 38.9539 14.5695 39.126 15.1754C39.619 16.9113 39.8685 18.7169 39.8685 20.5408C39.8685 25.4526 38.0461 30.1536 34.7374 33.7793C31.4506 37.3807 26.9785 39.6224 22.1462 40.0911C21.5092 40.1525 20.863 40.1836 20.226 40.1836L20.2253 40.1844ZM20.2253 1.65777C16.375 1.65777 12.6712 2.80895 9.51483 4.98694C6.43056 7.11487 4.06824 10.0709 2.68271 13.5374C2.46885 14.0728 2.27698 14.6256 2.11317 15.1807C1.60052 16.9135 1.3404 18.7177 1.3404 20.5415C1.3404 25.263 3.09223 29.7828 6.27282 33.2682C9.43293 36.7308 13.7314 38.8853 18.3764 39.3365C19.595 39.4556 20.8448 39.4563 22.0726 39.3365C26.7176 38.8861 31.0168 36.7308 34.1769 33.2682C37.3575 29.7828 39.1093 25.263 39.1093 20.5408C39.1093 18.7867 38.8689 17.0508 38.3957 15.3817C38.2304 14.7985 38.0347 14.2168 37.814 13.6526C36.4437 10.1566 34.0829 7.17175 30.9872 5.02106C27.8195 2.82032 24.0982 1.65701 20.226 1.65701L20.2253 1.65777Z" fill="#002D59"/>
<path d="M20.229 11.5831C21.2572 11.5831 22.0908 10.7496 22.0908 9.72138C22.0908 8.69316 21.2572 7.85962 20.229 7.85962C19.2007 7.85962 18.3672 8.69316 18.3672 9.72138C18.3672 10.7496 19.2007 11.5831 20.229 11.5831Z" fill="white"/>
<path d="M15.082 32.6577C15.082 32.6577 22.9393 35.3097 23.1626 24.7505C23.1626 24.7505 23.2373 21.1316 24.7737 17.8595C24.7737 17.8595 17.0898 15.9297 16.6684 25.2723C16.6684 25.2729 16.3211 31.2694 15.082 32.6577Z" stroke="#002D59" stroke-width="0.714635" stroke-miterlimit="10"/>
<path d="M21.2451 15.1136C23.1947 15.1136 24.7753 13.5331 24.7753 11.5834C24.7753 9.63375 23.1947 8.05322 21.2451 8.05322C19.2954 8.05322 17.7148 9.63375 17.7148 11.5834C17.7148 13.5331 19.2954 15.1136 21.2451 15.1136Z" stroke="#002D59" stroke-width="0.714635" stroke-miterlimit="10"/>
</svg>
