<svg width="56" height="56" viewBox="0 0 56 56" fill="none" xmlns="http://www.w3.org/2000/svg">
<g filter="url(#filter0_d_909_13675)">
<path fill-rule="evenodd" clip-rule="evenodd" d="M51.4185 24.1853C51.4185 36.3335 42.1595 46.3192 30.3137 47.4686C29.5613 47.5413 28.7978 47.5791 28.0261 47.5791C27.2544 47.5791 26.49 47.5413 25.7367 47.4676C13.8918 46.3183 4.63281 36.3325 4.63281 24.1853C4.63281 21.8784 4.96711 19.6497 5.58965 17.5444C5.7941 16.8519 6.02985 16.1722 6.29508 15.5082C9.7421 6.88543 18.1722 0.79248 28.0261 0.79248C37.88 0.79248 46.4041 6.95358 49.8133 15.6528C50.0868 16.3509 50.3281 17.0664 50.5344 17.7949C51.1109 19.8265 51.4185 21.9695 51.4185 24.1853Z" fill="white"/>
<path d="M17.2219 28.3361H15.732L15.9823 29.1732L17.2219 31.0358L18.7989 32.4668L20.6161 33.5571C21.4338 34.0039 23.1102 34.9064 23.2737 34.9427C23.4781 34.9882 25.4089 35.4455 25.6133 35.6024C25.7769 35.7278 26.2266 35.5501 26.4311 35.4455V22.7166H20.4571C20.2754 22.7166 19.9271 22.4781 19.7756 22.3588C19.6166 22.0938 19.2986 21.5229 19.2986 21.3593C19.2986 21.1549 19.4576 20.9654 19.5258 20.746C19.5803 20.5705 19.7151 20.1919 19.7756 20.0245L26.4311 19.7893V17.2017H29.1409V19.7893H34.9957L35.9889 20.0245L36.6685 20.9654V21.9064C36.32 22.1242 35.5916 22.5598 35.4662 22.5598H29.3762V35.6024C29.7334 35.5675 30.4792 35.4874 30.6046 35.4455C30.7301 35.4037 32.7653 34.9402 33.7672 34.7137L37.4788 32.1522L39.6481 29.9044L40.2754 28.3361L38.8379 28.1009L39.6481 26.0884L42.0005 22.5598L45.0324 28.1009H43.0983L42.1573 29.643L40.7459 31.9431C39.7178 32.8231 37.6251 34.6091 37.4788 34.7137C37.2958 34.8444 33.6366 36.6478 33.4797 36.7001C33.3543 36.7419 30.6917 37.3623 29.3762 37.6672C29.3152 38.4862 29.1828 40.1764 29.1409 40.3855C29.0991 40.5946 28.6182 40.856 28.3829 40.9605C28.1042 40.9866 27.5047 41.0232 27.3375 40.9605C27.1702 40.8978 26.867 40.551 26.7363 40.3855L26.3704 37.6672L25.1681 37.3797C23.8002 37.0486 21.0174 36.3708 20.8293 36.3081C20.594 36.2296 18.0587 34.5046 17.9541 34.4C17.8496 34.2955 15.1575 31.8647 15.0529 31.7602C14.9693 31.6765 13.6066 29.4426 12.9358 28.3361L10.9492 28.1009L13.7724 22.9519L14.1641 22.7166L17.2219 28.3361Z" fill="white"/>
<mask id="mask0_909_13675" style="mask-type:alpha" maskUnits="userSpaceOnUse" x="4" y="1" width="48" height="47">
<path fill-rule="evenodd" clip-rule="evenodd" d="M51.4184 24.3644C51.4184 36.4194 42.1595 46.3286 30.3136 47.4691C29.5612 47.5413 28.7978 47.5788 28.0261 47.5788C27.2543 47.5788 26.49 47.5413 25.7367 47.4682C13.8918 46.3277 4.63281 36.4185 4.63281 24.3644C4.63281 22.0751 4.96711 19.8635 5.58965 17.7744C5.7941 17.0871 6.02985 16.4127 6.29508 15.7538C9.74209 7.19712 18.1722 1.15088 28.0261 1.15088C37.8799 1.15088 46.404 7.26475 49.8132 15.8973C50.0868 16.59 50.328 17.3001 50.5343 18.023C51.1108 20.039 51.4184 22.1656 51.4184 24.3644Z" fill="white"/>
</mask>
<g mask="url(#mask0_909_13675)">
<path d="M1.17578 35.4541V35.0241C1.67527 35.0241 2.17476 34.8875 2.6367 34.6133C2.91773 34.4472 3.19991 34.2799 3.48208 34.1138C4.4071 33.5666 5.4789 33.5666 6.40392 34.1138C6.68609 34.2799 6.96712 34.4472 7.24929 34.6133C8.17432 35.1606 9.24611 35.1606 10.1711 34.6133C10.4533 34.4472 10.7355 34.2799 11.0165 34.1138C11.9415 33.5666 13.0133 33.5666 13.9383 34.1138C14.2205 34.2799 14.5027 34.4472 14.7837 34.6133C15.7087 35.1606 16.7805 35.1606 17.7056 34.6133C17.9877 34.4472 18.2699 34.2799 18.5509 34.1138C19.476 33.5666 20.5478 33.5666 21.4728 34.1138C21.755 34.2799 22.036 34.4472 22.3182 34.6133C23.2432 35.1606 24.315 35.1606 25.2411 34.6133C25.5233 34.4472 25.8043 34.2799 26.0865 34.1138C27.0115 33.5666 28.0833 33.5666 29.0084 34.1138C29.2905 34.2799 29.5716 34.4472 29.8537 34.6133C30.7787 35.1606 31.8505 35.1606 32.7767 34.6133C33.0589 34.4472 33.3399 34.2799 33.6221 34.1138C34.5471 33.5666 35.6189 33.5666 36.5451 34.1138C36.8272 34.2799 37.1083 34.4472 37.3904 34.6133C38.3155 35.1606 39.3873 35.1606 40.3123 34.6133C40.5944 34.4472 40.8755 34.2799 41.1577 34.1138C42.0827 33.5666 43.1545 33.5666 44.0795 34.1138C44.3617 34.2799 44.6427 34.4472 44.9249 34.6133C45.8499 35.1606 46.9217 35.1606 47.8467 34.6133C48.1289 34.4472 48.4099 34.2799 48.6921 34.1138C49.6171 33.5666 50.6889 33.5666 51.6139 34.1138C51.8961 34.2799 52.1771 34.4472 52.4593 34.6133C52.9224 34.8875 53.4207 35.0241 53.9202 35.0241V35.4541C53.4207 35.4541 52.9212 35.3176 52.4593 35.0434C52.1771 34.8773 51.8961 34.71 51.6139 34.5439C50.6889 33.9966 49.6171 33.9966 48.6921 34.5439C48.4099 34.71 48.1277 34.8773 47.8467 35.0434C46.9217 35.5907 45.8499 35.5907 44.9249 35.0434C44.6427 34.8773 44.3617 34.71 44.0795 34.5439C43.1545 33.9966 42.0827 33.9966 41.1577 34.5439C40.8755 34.71 40.5933 34.8773 40.3123 35.0434C39.3861 35.5907 38.3155 35.5907 37.3904 35.0434C37.1083 34.8773 36.8272 34.71 36.5451 34.5439C35.6189 33.9966 34.5482 33.9966 33.6221 34.5439C33.3399 34.71 33.0589 34.8773 32.7767 35.0434C31.8517 35.5907 30.7799 35.5907 29.8537 35.0434C29.5716 34.8773 29.2905 34.71 29.0084 34.5439C28.0833 33.9966 27.0115 33.9966 26.0865 34.5439C25.8043 34.71 25.5233 34.8773 25.2411 35.0434C24.3161 35.5907 23.2443 35.5907 22.3182 35.0434C22.0371 34.8773 21.755 34.71 21.4728 34.5439C20.5478 33.9966 19.476 33.9966 18.5509 34.5439C18.2688 34.71 17.9877 34.8773 17.7056 35.0434C16.7805 35.5907 15.7087 35.5907 14.7837 35.0434C14.5016 34.8773 14.2194 34.71 13.9383 34.5439C13.0133 33.9966 11.9415 33.9966 11.0165 34.5439C10.7343 34.71 10.4533 34.8773 10.1711 35.0434C9.24611 35.5907 8.17432 35.5907 7.24929 35.0434C6.96712 34.8773 6.68609 34.71 6.40392 34.5439C5.4789 33.9966 4.4071 33.9966 3.48208 34.5439C3.19991 34.71 2.91887 34.8773 2.6367 35.0434C2.17362 35.3176 1.67413 35.4541 1.17578 35.4541Z" stroke="#002D59" stroke-width="0.466042" stroke-miterlimit="10"/>
<path d="M1.17578 39.9613C1.67527 39.9613 2.17476 39.8248 2.6367 39.5506C2.91773 39.3845 3.19991 39.2172 3.48208 39.0511C4.4071 38.5038 5.4789 38.5038 6.40392 39.0511C6.68609 39.2172 6.96712 39.3845 7.24929 39.5506C8.17432 40.0979 9.24611 40.0979 10.1711 39.5506C10.4533 39.3845 10.7355 39.2172 11.0165 39.0511C11.9415 38.5038 13.0133 38.5038 13.9383 39.0511C14.2205 39.2172 14.5027 39.3845 14.7837 39.5506C15.7087 40.0979 16.7805 40.0979 17.7056 39.5506C17.9877 39.3845 18.2699 39.2172 18.5509 39.0511C19.476 38.5038 20.5478 38.5038 21.4728 39.0511C21.755 39.2172 22.036 39.3845 22.3182 39.5506C23.2443 40.0979 24.315 40.0979 25.2411 39.5506C25.5233 39.3845 25.8043 39.2172 26.0865 39.0511C27.0115 38.5038 28.0833 38.5038 29.0084 39.0511C29.2905 39.2172 29.5716 39.3845 29.8537 39.5506C30.7787 40.0979 31.8505 40.0979 32.7767 39.5506C33.0589 39.3845 33.3399 39.2172 33.6221 39.0511C34.5471 38.5038 35.6189 38.5038 36.5451 39.0511C36.8272 39.2172 37.1083 39.3845 37.3904 39.5506C38.3155 40.0979 39.3873 40.0979 40.3123 39.5506C40.5944 39.3845 40.8755 39.2172 41.1577 39.0511C42.0827 38.5038 43.1545 38.5038 44.0795 39.0511C44.3617 39.2172 44.6427 39.3845 44.9249 39.5506C45.8499 40.0979 46.9217 40.0979 47.8467 39.5506C48.1289 39.3845 48.4099 39.2172 48.6921 39.0511C49.6171 38.5038 50.6889 38.5038 51.6139 39.0511C51.8961 39.2172 52.1771 39.3845 52.4593 39.5506C52.9224 39.8237 53.4207 39.9613 53.9202 39.9613V39.5313C53.4207 39.5313 52.9212 39.3947 52.4593 39.1205C52.1771 38.9544 51.8961 38.7871 51.6139 38.621C50.6889 38.0738 49.6171 38.0738 48.6921 38.621C48.4099 38.7871 48.1277 38.9544 47.8467 39.1205C46.9217 39.6678 45.8499 39.6678 44.9249 39.1205C44.6427 38.9544 44.3617 38.7871 44.0795 38.621C43.1545 38.0738 42.0827 38.0738 41.1577 38.621C40.8755 38.7871 40.5933 38.9544 40.3123 39.1205C39.3861 39.6678 38.3155 39.6678 37.3904 39.1205C37.1083 38.9544 36.8272 38.7871 36.5451 38.621C35.6189 38.0738 34.5482 38.0738 33.6221 38.621C33.3399 38.7871 33.0589 38.9544 32.7767 39.1205C31.8517 39.6678 30.7799 39.6678 29.8537 39.1205C29.5716 38.9544 29.2905 38.7871 29.0084 38.621C28.0833 38.0738 27.0115 38.0738 26.0865 38.621C25.8043 38.7871 25.5233 38.9544 25.2411 39.1205C24.3161 39.6678 23.2443 39.6678 22.3182 39.1205C22.0371 38.9544 21.755 38.7871 21.4728 38.621C20.5478 38.0738 19.476 38.0738 18.5509 38.621C18.2688 38.7871 17.9877 38.9544 17.7056 39.1205C16.7805 39.6678 15.7087 39.6678 14.7837 39.1205C14.5016 38.9544 14.2194 38.7871 13.9383 38.621C13.0133 38.0738 11.9415 38.0738 11.0165 38.621C10.7343 38.7871 10.4533 38.9544 10.1711 39.1205C9.24611 39.6678 8.17432 39.6678 7.24929 39.1205C6.96712 38.9544 6.68609 38.7871 6.40392 38.621C5.4789 38.0738 4.4071 38.0738 3.48208 38.621C3.19991 38.7871 2.91887 38.9544 2.6367 39.1205C2.17362 39.3947 1.67413 39.5313 1.17578 39.5313V39.9613Z" stroke="#002D59" stroke-width="0.466042" stroke-miterlimit="10"/>
<path d="M1.17578 44.4681V44.038C1.67527 44.038 2.17476 43.9014 2.6367 43.6272C2.91773 43.4611 3.19991 43.2939 3.48208 43.1277C4.4071 42.5805 5.4789 42.5805 6.40392 43.1277C6.68609 43.2939 6.96712 43.4611 7.24929 43.6272C8.17432 44.1745 9.24611 44.1745 10.1711 43.6272C10.4533 43.4611 10.7355 43.2939 11.0165 43.1277C11.9415 42.5805 13.0133 42.5805 13.9383 43.1277C14.2205 43.2939 14.5027 43.4611 14.7837 43.6272C15.7087 44.1745 16.7805 44.1745 17.7056 43.6272C17.9877 43.4611 18.2699 43.2939 18.5509 43.1277C19.476 42.5805 20.5478 42.5805 21.4728 43.1277C21.755 43.2939 22.036 43.4611 22.3182 43.6272C23.2432 44.1745 24.315 44.1745 25.2411 43.6272C25.5233 43.4611 25.8043 43.2939 26.0865 43.1277C27.0115 42.5805 28.0833 42.5805 29.0084 43.1277C29.2905 43.2939 29.5716 43.4611 29.8537 43.6272C30.7787 44.1745 31.8505 44.1745 32.7767 43.6272C33.0589 43.4611 33.3399 43.2939 33.6221 43.1277C34.5471 42.5805 35.6189 42.5805 36.5451 43.1277C36.8272 43.2939 37.1083 43.4611 37.3904 43.6272C38.3155 44.1745 39.3873 44.1745 40.3123 43.6272C40.5944 43.4611 40.8755 43.2939 41.1577 43.1277C42.0827 42.5805 43.1545 42.5805 44.0795 43.1277C44.3617 43.2939 44.6427 43.4611 44.9249 43.6272C45.8499 44.1745 46.9217 44.1745 47.8467 43.6272C48.1289 43.4611 48.4099 43.2939 48.6921 43.1277C49.6171 42.5805 50.6889 42.5805 51.6139 43.1277C51.8961 43.2939 52.1771 43.4611 52.4593 43.6272C52.9224 43.9014 53.4207 44.038 53.9202 44.038V44.4681C53.4207 44.4681 52.9212 44.3315 52.4593 44.0573C52.1771 43.8912 51.8961 43.7239 51.6139 43.5578C50.6889 43.0105 49.6171 43.0105 48.6921 43.5578C48.4099 43.7251 48.1277 43.8912 47.8467 44.0573C46.9217 44.6046 45.8499 44.6046 44.9249 44.0573C44.6427 43.8912 44.3617 43.7239 44.0795 43.5578C43.1545 43.0105 42.0827 43.0105 41.1577 43.5578C40.8755 43.7251 40.5933 43.8912 40.3123 44.0573C39.3861 44.6046 38.3155 44.6046 37.3904 44.0573C37.1083 43.8912 36.8272 43.7239 36.5451 43.5578C35.6189 43.0105 34.5482 43.0105 33.6221 43.5578C33.3399 43.7251 33.0589 43.8912 32.7767 44.0573C31.8517 44.6046 30.7799 44.6046 29.8537 44.0573C29.5716 43.8912 29.2905 43.7239 29.0084 43.5578C28.0833 43.0105 27.0115 43.0105 26.0865 43.5578C25.8043 43.7251 25.5233 43.8912 25.2411 44.0573C24.3161 44.6046 23.2443 44.6046 22.3182 44.0573C22.0371 43.8912 21.755 43.7239 21.4728 43.5578C20.5478 43.0105 19.476 43.0105 18.5509 43.5578C18.2688 43.7251 17.9877 43.8912 17.7056 44.0573C16.7805 44.6046 15.7087 44.6046 14.7837 44.0573C14.5016 43.8912 14.2194 43.7239 13.9383 43.5578C13.0133 43.0105 11.9415 43.0105 11.0165 43.5578C10.7343 43.7251 10.4533 43.8912 10.1711 44.0573C9.24611 44.6046 8.17432 44.6046 7.24929 44.0573C6.96712 43.8912 6.68609 43.7239 6.40392 43.5578C5.4789 43.0105 4.4071 43.0105 3.48208 43.5578C3.19991 43.7251 2.91887 43.8912 2.6367 44.0573C2.17362 44.3304 1.67413 44.4681 1.17578 44.4681Z" stroke="#002D59" stroke-width="0.466042" stroke-miterlimit="10"/>
</g>
<path d="M45.1625 26.504L43.8428 24.2191L43.6678 23.9161L42.3352 21.6082L42.1731 21.3274C42.0728 21.1533 41.8213 21.1533 41.721 21.3274L40.2263 23.9161L38.7326 26.504C38.6322 26.678 38.7574 26.8963 38.9582 26.8963H40.5707C38.2896 30.9088 34.1445 33.7232 29.3124 34.1616V21.1901H35.3822C35.7479 21.1901 36.0785 21.0419 36.3179 20.8024C36.5573 20.563 36.7056 20.2324 36.7056 19.8667C36.7056 19.1355 36.1135 18.5433 35.3822 18.5433H29.3124V15.7851C29.4202 15.7529 29.527 15.717 29.6329 15.6765C32.0246 14.7684 33.2264 12.094 32.3193 9.70323C31.4112 7.31155 28.7369 6.10972 26.3452 7.01685C23.9545 7.92489 22.7518 10.5993 23.6598 12.991C24.1921 14.3927 25.3322 15.3864 26.6657 15.7842V18.5433H20.5977C19.8665 18.5433 19.2744 19.1355 19.2744 19.8667C19.2744 20.598 19.8665 21.1901 20.5977 21.1901H26.6657V34.1616C21.8345 33.7232 17.6895 30.9088 15.4083 26.8963H17.0209C17.2216 26.8963 17.3469 26.678 17.2465 26.504L15.7518 23.9161L14.2572 21.3274C14.1568 21.1533 13.9063 21.1533 13.805 21.3274L13.6438 21.6064L12.3113 23.9161L12.1354 24.221L10.8166 26.504C10.7162 26.678 10.8415 26.8963 11.0422 26.8963H13.1475C15.6248 32.0397 20.6972 35.6977 26.6657 36.172V38.3261C26.6657 39.0573 27.5212 39.6495 27.9891 39.6495C28.4569 39.6495 29.3124 39.0573 29.3124 38.3261V36.172C35.2819 35.6977 40.3534 32.0397 42.8307 26.8963H44.9359C45.1376 26.8963 45.2628 26.678 45.1625 26.504ZM28.8446 13.5979C28.0931 13.8834 27.2892 13.7683 26.6657 13.3584C26.2559 13.0905 25.9253 12.6944 25.7383 12.2017C25.3294 11.1261 25.742 9.94083 26.6657 9.33578C26.8103 9.24 26.9668 9.15896 27.1345 9.09541C27.885 8.80992 28.689 8.92504 29.3124 9.33486C29.7222 9.60285 30.0538 9.99885 30.2407 10.4916C30.6496 11.5681 30.2361 12.7543 29.3124 13.3594C29.1688 13.4542 29.0122 13.5343 28.8446 13.5979Z" fill="white"/>
<path d="M27.9882 40.1096C27.2865 40.1096 26.2044 39.3434 26.2044 38.3257V36.5916C20.5057 35.9921 15.4443 32.4934 12.8602 27.3564H11.0414C10.7845 27.3564 10.5459 27.2182 10.417 26.9963C10.2881 26.7734 10.2881 26.4972 10.417 26.2743L13.4054 21.0977C13.5353 20.8748 13.7747 20.7367 14.0307 20.7367H14.0326C14.2923 20.7367 14.5252 20.872 14.656 21.0977L17.6453 26.2743C17.7743 26.4972 17.7743 26.7744 17.6453 26.9972C17.5173 27.2192 17.2779 27.3573 17.021 27.3573H16.2262C18.4659 30.82 22.1183 33.1279 26.2053 33.6492V21.6502H20.5978C19.6143 21.6502 18.814 20.8499 18.814 19.8664C18.814 18.8828 19.6143 18.0825 20.5978 18.0825H26.2053V16.1154C24.8295 15.6033 23.7557 14.5406 23.2298 13.1546C22.2334 10.5299 23.5577 7.58286 26.1823 6.5864C28.8079 5.59087 31.7539 6.91518 32.7503 9.53986C33.7458 12.1645 32.4216 15.1106 29.7969 16.1071C29.7896 16.1099 29.7813 16.1126 29.7739 16.1163V18.0834H35.3832C36.3668 18.0834 37.1671 18.8837 37.1671 19.8673C37.1671 20.3434 36.9811 20.7919 36.6449 21.129C36.3079 21.4661 35.8603 21.6512 35.3832 21.6512H29.7739V33.6492C33.861 33.1288 37.5143 30.821 39.754 27.3573H38.9592C38.7023 27.3573 38.4637 27.2192 38.3348 26.9972C38.2059 26.7744 38.2059 26.4981 38.3348 26.2752L41.3232 21.0986C41.4512 20.8757 41.6907 20.7376 41.9485 20.7376C42.2055 20.7376 42.4449 20.8757 42.5738 21.0986L45.5631 26.2752C45.6911 26.4981 45.6911 26.7744 45.5631 26.9972C45.4342 27.2201 45.1948 27.3582 44.9378 27.3582H43.119C40.5349 32.4943 35.4735 35.9939 29.7748 36.5934V38.3276C29.7748 39.3452 28.6927 40.1114 27.991 40.1114L27.9882 40.1096ZM11.3867 26.4354H13.4358L13.561 26.6961C16.0236 31.8091 21.0583 35.2645 26.7008 35.713L27.1244 35.7471V38.3266C27.1244 38.7797 27.746 39.1896 27.9873 39.1896C28.2286 39.1896 28.8502 38.7788 28.8502 38.3266V35.7471L29.2738 35.713C34.9163 35.2645 39.951 31.8101 42.4136 26.6961L42.5388 26.4354H44.5888L41.9448 21.8565L39.3018 26.4354H41.36L40.9687 27.1234C38.5503 31.3772 34.2081 34.1796 29.3521 34.6199L28.8502 34.665V20.7293H35.3805C35.6107 20.7293 35.8271 20.639 35.9901 20.476C36.1531 20.313 36.2434 20.0966 36.2434 19.8664C36.2434 19.3902 35.8566 19.0035 35.3805 19.0035H28.8502V15.4422L29.179 15.3436C29.2784 15.3142 29.3751 15.281 29.4672 15.246C31.6176 14.4291 32.7034 12.0163 31.8874 9.86588C31.0715 7.7164 28.6577 6.63153 26.5074 7.44656C24.358 8.26344 23.2731 10.6763 24.089 12.8267C24.5541 14.0506 25.5404 14.9679 26.7956 15.3418L27.1244 15.4403V19.0035H20.596C20.1199 19.0035 19.7331 19.3902 19.7331 19.8664C19.7331 20.3425 20.1199 20.7293 20.596 20.7293H27.1244V34.665L26.6225 34.6189C21.7674 34.1787 17.4243 31.3763 15.0069 27.1225L14.6155 26.4345H16.6738L14.0298 21.8556L11.3858 26.4345L11.3867 26.4354ZM27.991 14.2136C27.4366 14.2136 26.8859 14.0543 26.4116 13.7421C25.9051 13.4115 25.5229 12.9345 25.3065 12.3635C24.8322 11.1156 25.2973 9.67985 26.4125 8.94862C26.5857 8.8335 26.7745 8.73772 26.9706 8.66313C27.8271 8.33711 28.7968 8.44394 29.5649 8.94862C30.0714 9.28016 30.4545 9.7572 30.6709 10.3263C31.1452 11.5751 30.6801 13.0118 29.5639 13.743C29.3926 13.8563 29.2057 13.9521 29.0077 14.0267C28.6798 14.151 28.3345 14.2127 27.991 14.2127V14.2136ZM27.9864 9.39896C27.7534 9.39896 27.5195 9.4404 27.2975 9.52513C27.1649 9.57578 27.0378 9.64024 26.919 9.71852C26.1611 10.2149 25.8462 11.1902 26.1676 12.0375C26.3149 12.4252 26.5737 12.7484 26.9163 12.9722C27.4384 13.3157 28.0969 13.3876 28.6798 13.1665C28.8143 13.115 28.9414 13.0505 29.0574 12.9741C29.8153 12.4777 30.1312 11.5024 29.8089 10.6542C29.6625 10.2674 29.4028 9.94415 29.0593 9.71944C28.7369 9.50763 28.3621 9.39896 27.9864 9.39896Z" fill="#002D59"/>
</g>
<defs>
<filter id="filter0_d_909_13675" x="0.561931" y="0.79248" width="54.9269" height="54.9284" filterUnits="userSpaceOnUse" color-interpolation-filters="sRGB">
<feFlood flood-opacity="0" result="BackgroundImageFix"/>
<feColorMatrix in="SourceAlpha" type="matrix" values="0 0 0 0 0 0 0 0 0 0 0 0 0 0 0 0 0 0 127 0" result="hardAlpha"/>
<feOffset dy="4.07088"/>
<feGaussianBlur stdDeviation="2.03544"/>
<feComposite in2="hardAlpha" operator="out"/>
<feColorMatrix type="matrix" values="0 0 0 0 0 0 0 0 0 0 0 0 0 0 0 0 0 0 0.25 0"/>
<feBlend mode="normal" in2="BackgroundImageFix" result="effect1_dropShadow_909_13675"/>
<feBlend mode="normal" in="SourceGraphic" in2="effect1_dropShadow_909_13675" result="shape"/>
</filter>
</defs>
</svg>
