<svg width="22" height="22" viewBox="0 0 22 22" fill="none" xmlns="http://www.w3.org/2000/svg">
<path d="M11.7783 21.2435C11.439 21.2763 11.0947 21.2933 10.7467 21.2933C10.3986 21.2933 10.054 21.2763 9.71439 21.2431L9.71424 21.243C4.37431 20.7249 0.2 16.2228 0.2 10.7464C0.2 9.70606 0.350746 8.70132 0.631353 7.75238L0.631379 7.7523C0.723534 7.44012 0.8298 7.13378 0.94934 6.8345C2.50355 2.94662 6.30445 0.2 10.7467 0.2C15.1887 0.2 19.0322 2.97761 20.5693 6.89966C20.6926 7.21432 20.8013 7.53688 20.8943 7.86524L20.8943 7.86534C21.1542 8.78101 21.2929 9.74713 21.2929 10.7464C21.2929 16.2232 17.1186 20.7253 11.7783 21.2435ZM11.7783 21.2435L11.7975 21.4425L11.7782 21.2435C11.7783 21.2435 11.7783 21.2435 11.7783 21.2435Z" fill="white" stroke="#002D59" stroke-width="0.4"/>
<path d="M1.5 15.5088C1.5 15.5088 2.1224 15.7886 2.54734 15.5372C2.67697 15.4608 2.8066 15.384 2.9357 15.3077C3.36065 15.0563 3.85302 15.0563 4.27796 15.3077C4.40759 15.384 4.53722 15.4608 4.66632 15.5372C5.09127 15.7886 5.58364 15.7886 6.00859 15.5372C6.13821 15.4608 6.26784 15.384 6.39695 15.3077C6.82189 15.0563 7.31426 15.0563 7.73921 15.3077C7.86884 15.384 7.99794 15.4608 8.12757 15.5372C8.55251 15.7886 9.04489 15.7886 9.47035 15.5372C9.59998 15.4608 9.72909 15.384 9.85871 15.3077C10.2837 15.0563 10.776 15.0563 11.201 15.3077C11.3306 15.384 11.4597 15.4608 11.5893 15.5372C12.0143 15.7886 12.5067 15.7886 12.9321 15.5372C13.0617 15.4608 13.1909 15.384 13.3205 15.3077C13.7454 15.0563 14.2378 15.0563 14.6633 15.3077C14.7929 15.384 14.922 15.4608 15.0516 15.5372C15.4766 15.7886 15.9689 15.7886 16.3939 15.5372C16.5235 15.4608 16.6526 15.384 16.7823 15.3077C17.2072 15.0563 17.6996 15.0563 18.1245 15.3077C18.2541 15.384 18.3832 15.4608 18.5129 15.5372C18.9378 15.7886 19.4302 15.7886 19.8551 15.5372C19.9848 15.4608 20.2435 15.3077 20.2435 15.3077V15.5053C20.2435 15.5053 19.9842 15.6584 19.8551 15.7347C19.4302 15.9862 18.9378 15.9862 18.5129 15.7347C18.3832 15.6584 18.2541 15.5816 18.1245 15.5053C17.6996 15.2539 17.2072 15.2539 16.7823 15.5053C16.6526 15.5816 16.523 15.6584 16.3939 15.7347C15.9684 15.9862 15.4766 15.9862 15.0516 15.7347C14.922 15.6584 14.7929 15.5816 14.6633 15.5053C14.2378 15.2539 13.7459 15.2539 13.3205 15.5053C13.1909 15.5816 13.0617 15.6584 12.9321 15.7347C12.5072 15.9862 12.0148 15.9862 11.5893 15.7347C11.4597 15.6584 11.3306 15.5816 11.201 15.5053C10.776 15.2539 10.2837 15.2539 9.85871 15.5053C9.72909 15.5816 9.59998 15.6584 9.47035 15.7347C9.04541 15.9862 8.55304 15.9862 8.12757 15.7347C7.99846 15.6584 7.86884 15.5816 7.73921 15.5053C7.31426 15.2539 6.82189 15.2539 6.39695 15.5053C6.26732 15.5816 6.13821 15.6584 6.00859 15.7347C5.58364 15.9862 5.09127 15.9862 4.66632 15.7347C4.5367 15.6584 4.40707 15.5816 4.27796 15.5053C3.85302 15.2539 3.36065 15.2539 2.9357 15.5053C2.80607 15.5816 2.67697 15.6584 2.54734 15.7347C2.1224 15.9862 1.5204 15.7347 1.5204 15.7347L1.5 15.5088Z" stroke="#002D59" stroke-width="0.313411" stroke-miterlimit="10"/>
<path d="M2.84414 17.605C2.84414 17.605 2.80339 17.6519 2.9325 17.5756C3.35744 17.3242 3.84982 17.3242 4.27476 17.5756C4.40439 17.6519 4.53402 17.7287 4.66312 17.805C5.08807 18.0565 5.58044 18.0565 6.00539 17.805C6.13501 17.7287 6.26464 17.6519 6.39374 17.5756C6.81869 17.3242 7.31106 17.3242 7.73601 17.5756C7.86564 17.6519 7.99474 17.7287 8.12436 17.805C8.54983 18.0565 9.04168 18.0565 9.46715 17.805C9.59678 17.7287 9.72588 17.6519 9.85551 17.5756C10.2805 17.3242 10.7728 17.3242 11.1978 17.5756C11.3274 17.6519 11.4565 17.7287 11.5861 17.805C12.0111 18.0565 12.5035 18.0565 12.9289 17.805C13.0585 17.7287 13.1877 17.6519 13.3173 17.5756C13.7422 17.3242 14.2346 17.3242 14.6601 17.5756C14.7897 17.6519 14.9188 17.7287 15.0484 17.805C15.4734 18.0565 15.9657 18.0565 16.3907 17.805C16.5203 17.7287 16.6494 17.6519 16.779 17.5756C17.204 17.3242 17.6964 17.3242 18.1213 17.5756C18.2509 17.6519 18.446 17.805 18.446 17.805L18.5097 17.6075C18.5097 17.6075 18.2509 17.4543 18.1213 17.378C17.6964 17.1266 17.204 17.1266 16.779 17.378C16.6494 17.4543 16.5198 17.5312 16.3907 17.6075C15.9652 17.8589 15.4734 17.8589 15.0484 17.6075C14.9188 17.5312 14.7897 17.4543 14.6601 17.378C14.2346 17.1266 13.7427 17.1266 13.3173 17.378C13.1877 17.4543 13.0585 17.5312 12.9289 17.6075C12.504 17.8589 12.0116 17.8589 11.5861 17.6075C11.4565 17.5312 11.3274 17.4543 11.1978 17.378C10.7728 17.1266 10.2805 17.1266 9.85551 17.378C9.72588 17.4543 9.59678 17.5312 9.46715 17.6075C9.04221 17.8589 8.54983 17.8589 8.12436 17.6075C7.99526 17.5312 7.86564 17.4543 7.73601 17.378C7.31106 17.1266 6.81869 17.1266 6.39374 17.378C6.26412 17.4543 6.13501 17.5312 6.00539 17.6075C5.58044 17.8589 5.08807 17.8589 4.66312 17.6075C4.53349 17.5312 4.40387 17.4543 4.27476 17.378C3.84982 17.1266 3.35744 17.1266 2.9325 17.378C2.80287 17.4543 2.74414 17.4075 2.74414 17.4075L2.84414 17.605Z" stroke="#002D59" stroke-width="0.313411" stroke-miterlimit="10"/>
<path d="M5.5 19.9088C5.5 19.9088 5.56458 19.9292 5.98953 19.6778C6.11916 19.6015 6.24878 19.5246 6.37789 19.4483C6.80283 19.1969 7.29521 19.1969 7.72015 19.4483C7.84978 19.5246 7.97888 19.6015 8.10851 19.6778C8.53346 19.9292 9.02583 19.9292 9.4513 19.6778C9.58093 19.6015 9.71003 19.5246 9.83966 19.4483C10.2646 19.1969 10.757 19.1969 11.1819 19.4483C11.3115 19.5246 11.4407 19.6015 11.5703 19.6778C11.9952 19.9292 12.4876 19.9292 12.9131 19.6778C13.0427 19.6015 13.1718 19.5246 13.3014 19.4483C13.7264 19.1969 14.2187 19.1969 14.6442 19.4483C14.7738 19.5246 14.9029 19.6015 15.0326 19.6778C15.4575 19.9292 16.1567 19.7778 16.1567 19.7778L15.7404 20.0754C15.7404 20.0754 15.4575 20.1268 15.0326 19.8754C14.9029 19.799 14.7738 19.7222 14.6442 19.6459C14.2187 19.3945 13.7269 19.3945 13.3014 19.6459C13.1718 19.7227 13.0427 19.799 12.9131 19.8754C12.4881 20.1268 11.9957 20.1268 11.5703 19.8754C11.4407 19.799 11.3115 19.7222 11.1819 19.6459C10.757 19.3945 10.2646 19.3945 9.83966 19.6459C9.71003 19.7227 9.58093 19.799 9.4513 19.8754C9.02635 20.1268 8.53398 20.1268 8.10851 19.8754C7.97941 19.799 7.84978 19.7222 7.72015 19.6459C7.29521 19.3945 6.80283 19.3945 6.37789 19.6459C6.24826 19.7227 6.11916 19.799 5.98953 19.8754C5.67443 20.0618 5.5 19.9088 5.5 19.9088Z" stroke="#002D59" stroke-width="0.313411" stroke-miterlimit="10"/>
<path d="M18.6147 11.8119L18.0085 10.7622L17.9281 10.623L17.3159 9.56281L17.2414 9.43377C17.1953 9.35381 17.0798 9.35381 17.0337 9.43377L16.3471 10.623L15.6609 11.8119C15.6148 11.8918 15.6723 11.9921 15.7645 11.9921H16.5053C15.4574 13.8354 13.5532 15.1283 11.3334 15.3297V9.37073H14.1218C14.2897 9.37073 14.4416 9.30262 14.5516 9.19262C14.6616 9.08262 14.7297 8.93074 14.7297 8.76278C14.7297 8.42686 14.4577 8.15483 14.1218 8.15483H11.3334V6.88773C11.3829 6.87292 11.4319 6.85642 11.4806 6.83781C12.5793 6.42066 13.1314 5.19206 12.7147 4.09376C12.2975 2.99505 11.0689 2.44294 9.97025 2.85966C8.87198 3.27681 8.31946 4.50541 8.7366 5.60413C8.98113 6.24804 9.50488 6.70454 10.1175 6.8873V8.15483H7.32991C6.994 8.15483 6.72197 8.42686 6.72197 8.76278C6.72197 9.0987 6.994 9.37073 7.32991 9.37073H10.1175V15.3297C7.89809 15.1283 5.99388 13.8354 4.94595 11.9921H5.68674C5.77896 11.9921 5.8365 11.8918 5.79039 11.8119L5.10375 10.623L4.41712 9.43377C4.37101 9.35381 4.25594 9.35381 4.2094 9.43377L4.13536 9.56196L3.52319 10.623L3.44238 10.7631L2.83656 11.8119C2.79044 11.8918 2.84798 11.9921 2.94021 11.9921H3.90733C5.04537 14.3549 7.3756 16.0354 10.1175 16.2533V17.2428C10.1175 17.5787 10.5105 17.8508 10.7254 17.8508C10.9403 17.8508 11.3334 17.5787 11.3334 17.2428V16.2533C14.0757 16.0354 16.4055 14.3549 17.5435 11.9921H18.5106C18.6033 11.9921 18.6608 11.8918 18.6147 11.8119ZM11.1184 5.88293C10.7732 6.01409 10.4039 5.9612 10.1175 5.77293C9.92921 5.64982 9.77733 5.4679 9.69145 5.24156C9.50361 4.74741 9.69314 4.20292 10.1175 3.92496C10.1839 3.88096 10.2558 3.84373 10.3328 3.81454C10.6776 3.68338 11.0469 3.73627 11.3334 3.92454C11.5216 4.04765 11.6739 4.22957 11.7598 4.45591C11.9476 4.95048 11.7577 5.4954 11.3334 5.77336C11.2674 5.81693 11.1954 5.85374 11.1184 5.88293Z" fill="white"/>
<path d="M10.7258 18.0622C10.4035 18.0622 9.90637 17.7102 9.90637 17.2427V16.446C7.28846 16.1706 4.9633 14.5634 3.77618 12.2035H2.94063C2.8226 12.2035 2.71303 12.14 2.6538 12.0381C2.59457 11.9357 2.59457 11.8088 2.6538 11.7064L4.02664 9.32829C4.08629 9.2259 4.19629 9.16244 4.3139 9.16244H4.31474C4.43405 9.16244 4.54108 9.22464 4.60116 9.32829L5.97442 11.7064C6.03365 11.8088 6.03365 11.9361 5.97442 12.0385C5.91562 12.1404 5.80562 12.2039 5.68758 12.2039H5.32248C6.35137 13.7947 8.02924 14.8549 9.90679 15.0943V9.58213H7.33076C6.87893 9.58213 6.51129 9.21448 6.51129 8.76264C6.51129 8.3108 6.87893 7.94315 7.33076 7.94315H9.90679V7.03947C9.27474 6.80424 8.78145 6.31602 8.53988 5.6793C8.08212 4.47354 8.69049 3.11971 9.89622 2.66195C11.1024 2.20461 12.4558 2.81299 12.9135 4.01874C13.3708 5.22449 12.7625 6.5779 11.5567 7.03566C11.5534 7.03693 11.5495 7.0382 11.5462 7.03989V7.94357H14.123C14.5749 7.94357 14.9425 8.31122 14.9425 8.76306C14.9425 8.98179 14.8571 9.18783 14.7026 9.34267C14.5478 9.49752 14.3422 9.58255 14.123 9.58255H11.5462V15.0943C13.4237 14.8553 15.102 13.7951 16.1309 12.2039H15.7658C15.6478 12.2039 15.5382 12.1404 15.479 12.0385C15.4197 11.9361 15.4197 11.8092 15.479 11.7068L16.8518 9.32871C16.9106 9.22633 17.0206 9.16287 17.1391 9.16287C17.2571 9.16287 17.3671 9.22633 17.4263 9.32871L18.7996 11.7068C18.8584 11.8092 18.8584 11.9361 18.7996 12.0385C18.7404 12.1409 18.6304 12.2043 18.5123 12.2043H17.6768C16.4897 14.5638 14.1645 16.1715 11.5466 16.4469V17.2435C11.5466 17.711 11.0495 18.063 10.7271 18.063L10.7258 18.0622ZM3.09928 11.7804H4.0406L4.09813 11.9001C5.22941 14.249 7.54229 15.8364 10.1344 16.0424L10.329 16.0581V17.2431C10.329 17.4513 10.6146 17.6395 10.7254 17.6395C10.8363 17.6395 11.1218 17.4508 11.1218 17.2431V16.0581L11.3164 16.0424C13.9086 15.8364 16.2214 14.2495 17.3527 11.9001L17.4102 11.7804H18.352L17.1374 9.6769L15.9232 11.7804H16.8687L16.6889 12.0964C15.578 14.0506 13.5832 15.338 11.3524 15.5402L11.1218 15.561V9.15906H14.1218C14.2275 9.15906 14.327 9.1176 14.4018 9.04271C14.4767 8.96783 14.5182 8.86841 14.5182 8.76264C14.5182 8.54391 14.3405 8.36622 14.1218 8.36622H11.1218V6.73021L11.2729 6.68494C11.3186 6.6714 11.363 6.65617 11.4053 6.64009C12.3931 6.26483 12.8919 5.15638 12.5171 4.16851C12.1423 3.18106 11.0334 2.68268 10.0456 3.0571C9.05813 3.43236 8.55976 4.54081 8.93459 5.52868C9.14824 6.09094 9.60134 6.51232 10.178 6.68409L10.329 6.72936V8.36622H7.32992C7.11119 8.36622 6.93351 8.54391 6.93351 8.76264C6.93351 8.98137 7.11119 9.15906 7.32992 9.15906H10.329V15.561L10.0984 15.5398C7.86805 15.3376 5.87289 14.0502 4.76234 12.096L4.58254 11.78H5.52809L4.31347 9.67648L3.09886 11.78L3.09928 11.7804ZM10.7271 6.16583C10.4724 6.16583 10.2194 6.09264 10.0016 5.94922C9.76888 5.79733 9.5933 5.57818 9.49388 5.31588C9.27601 4.74262 9.48965 4.08305 10.002 3.74713C10.0815 3.69425 10.1682 3.65025 10.2584 3.61598C10.6518 3.46621 11.0973 3.51529 11.4501 3.74713C11.6828 3.89943 11.8588 4.11859 11.9582 4.38004C12.1761 4.95373 11.9625 5.61372 11.4497 5.94964C11.371 6.00168 11.2851 6.04568 11.1942 6.07994C11.0436 6.13706 10.8849 6.16541 10.7271 6.16541V6.16583ZM10.725 3.95401C10.618 3.95401 10.5105 3.97305 10.4085 4.01197C10.3476 4.03524 10.2892 4.06486 10.2347 4.10082C9.88649 4.32885 9.7418 4.77688 9.88945 5.16611C9.95714 5.34422 10.076 5.49272 10.2334 5.59553C10.4733 5.75333 10.7758 5.78633 11.0436 5.6848C11.1053 5.6611 11.1637 5.63149 11.217 5.59637C11.5652 5.36834 11.7103 4.92031 11.5622 4.53066C11.495 4.35297 11.3757 4.20447 11.2179 4.10124C11.0698 4.00393 10.8976 3.95401 10.725 3.95401Z" fill="#002D59"/>
</svg>
