<svg width="34" height="34" viewBox="0 0 34 34" fill="none" xmlns="http://www.w3.org/2000/svg">
<path fill-rule="evenodd" clip-rule="evenodd" d="M1.25915 16.9376C1.25915 25.3385 7.66209 32.244 15.854 33.0388C16.3743 33.0891 16.9022 33.1152 17.4359 33.1152C17.9696 33.1152 18.4982 33.0891 19.0191 33.0382C27.2103 32.2434 33.6133 25.3378 33.6133 16.9376C33.6133 15.3422 33.3821 13.801 32.9516 12.3451C32.8102 11.8662 32.6472 11.3962 32.4638 10.937C30.08 4.97401 24.2502 0.760498 17.4359 0.760498C10.6216 0.760498 4.72683 5.02114 2.36919 11.037C2.18004 11.5197 2.01319 12.0146 1.87053 12.5183C1.47186 13.9233 1.25915 15.4053 1.25915 16.9376Z" fill="white"/>
<path d="M17.4378 33.4335C17.9766 33.4335 18.5192 33.4068 19.0522 33.3552C23.1102 32.9616 26.8651 31.079 29.6253 28.0545C32.4032 25.0103 33.9336 21.0617 33.9336 16.9374C33.9336 15.3446 33.7069 13.769 33.2585 12.2545C33.1159 11.7705 32.9484 11.2871 32.7611 10.8184C31.5511 7.7907 29.4877 5.20821 26.7938 3.34983C24.0362 1.44751 20.801 0.441895 17.4378 0.441895C14.0746 0.441895 10.8049 1.45833 8.03717 3.38104C5.33309 5.25979 3.27095 7.86713 2.0743 10.9203C1.88134 11.4132 1.71002 11.9214 1.56546 12.4309C1.1515 13.8887 0.941978 15.4044 0.941978 16.9367C0.941978 21.0617 2.47234 25.0097 5.25093 28.0545C8.01106 31.079 11.7666 32.9616 15.8246 33.3552C16.359 33.4068 16.9016 33.4329 17.4371 33.4329L17.4378 33.4335ZM17.4378 1.07876C20.6711 1.07876 23.7815 2.04553 26.4321 3.87461C29.0222 5.66166 31.006 8.14416 32.1695 11.0553C32.3491 11.5055 32.5102 11.9698 32.6478 12.4354C33.0783 13.8912 33.2967 15.4057 33.2967 16.9374C33.2967 20.9025 31.8256 24.6982 29.1546 27.6253C26.5009 30.5332 22.8912 32.3426 18.9904 32.7215C17.9683 32.8215 16.9168 32.8215 15.8864 32.7221C11.9857 32.3438 8.37535 30.5339 5.72157 27.6259C3.0506 24.6989 1.57947 20.9032 1.57947 16.9374C1.57947 15.4643 1.78135 14.0065 2.17875 12.6054C2.31758 12.1157 2.48189 11.6272 2.66785 11.1534C3.81865 8.2174 5.80118 5.71069 8.40082 3.90454C11.061 2.05635 14.186 1.0794 17.4378 1.0794V1.07876Z" fill="#002D59"/>
<path d="M10.0807 21.1944H24.808C25.4047 21.1944 25.8906 20.7085 25.8906 20.1117V13.7641C25.8906 13.1673 25.4047 12.6814 24.808 12.6814H10.0807C9.48397 12.6814 8.99805 13.1673 8.99805 13.7641V20.1117C8.99805 20.7085 9.48397 21.1944 10.0807 21.1944ZM24.808 13.3183C25.0538 13.3183 25.2538 13.5182 25.2538 13.7641V20.1117C25.2538 20.3576 25.0538 20.5575 24.808 20.5575H10.0807C9.83488 20.5575 9.63491 20.3576 9.63491 20.1117V13.7641C9.63491 13.5182 9.83488 13.3183 10.0807 13.3183H24.808Z" fill="#002D59"/>
<path d="M7.77583 19.9102H8.55407C9.1508 19.9102 9.63672 19.4243 9.63672 18.8276V15.0478C9.63672 14.451 9.1508 13.9651 8.55407 13.9651H7.77583C7.1791 13.9651 6.69318 14.451 6.69318 15.0478V18.8276C6.69318 19.4243 7.1791 19.9102 7.77583 19.9102ZM8.55407 14.602C8.79989 14.602 8.99986 14.8019 8.99986 15.0478V18.8276C8.99986 19.0734 8.79989 19.2734 8.55407 19.2734H7.77583C7.53001 19.2734 7.33003 19.0734 7.33003 18.8276V15.0478C7.33003 14.8019 7.53001 14.602 7.77583 14.602H8.55407Z" fill="#002D59"/>
<path d="M9.77117 13.0092L16.8203 20.6592L16.352 21.0908L9.30284 13.4408L9.77117 13.0092Z" fill="#002D59"/>
<path d="M12.0964 15.5396H25.5703V16.1764H12.0964V15.5396Z" fill="#002D59"/>
<path d="M18.9251 16.7324H24.5352V17.3693H18.9251V16.7324Z" fill="#002D59"/>
<path d="M32.4543 22.1993L32.9453 21.7942L28.7637 16.7324H25.5674V17.3693H28.4638L32.4543 22.1993Z" fill="#002D59"/>
<path d="M28.6158 18.5075C27.9893 18.5075 27.4815 17.9997 27.4815 17.3733C27.4815 16.7468 27.9893 16.239 28.6158 16.239C29.2422 16.239 29.75 16.7468 29.75 17.3733C29.75 17.9997 29.2422 18.5075 28.6158 18.5075Z" fill="white"/>
<path d="M28.6137 18.8251C29.4149 18.8251 30.0664 18.1735 30.0664 17.3724C30.0664 16.5712 29.4149 15.9197 28.6137 15.9197C27.8126 15.9197 27.1611 16.5712 27.1611 17.3724C27.1611 18.1735 27.8126 18.8251 28.6137 18.8251ZM28.6137 16.5572C29.0634 16.5572 29.4296 16.9234 29.4296 17.373C29.4296 17.8226 29.0634 18.1888 28.6137 18.1888C28.1641 18.1888 27.7979 17.8226 27.7979 17.373C27.7979 16.9234 28.1641 16.5572 28.6137 16.5572Z" fill="#002D59"/>
</svg>
