<svg width="57" height="57" viewBox="0 0 57 57" fill="none" xmlns="http://www.w3.org/2000/svg">
<g filter="url(#filter0_d_909_13615)">
<path fill-rule="evenodd" clip-rule="evenodd" d="M5.28399 24.8307C5.28399 37.0702 14.6127 47.1312 26.5477 48.2892C27.3057 48.3625 28.0749 48.4005 28.8525 48.4005C29.63 48.4005 30.4001 48.3625 31.1591 48.2882C43.0932 47.1302 52.4219 37.0693 52.4219 24.8307C52.4219 22.5063 52.0851 20.2609 51.4578 18.1397C51.2518 17.442 51.0143 16.7572 50.7471 16.0882C47.2741 7.40053 38.7805 1.26172 28.8525 1.26172C18.9244 1.26172 10.3362 7.4692 6.90124 16.2339C6.62567 16.9372 6.38257 17.6582 6.17473 18.3921C5.59389 20.439 5.28399 22.5982 5.28399 24.8307Z" fill="white"/>
<path d="M28.8534 48.8644C29.6384 48.8644 30.4289 48.8254 31.2055 48.7503C37.1178 48.1768 42.5884 45.434 46.6098 41.0276C50.6571 36.5923 52.8867 30.8395 52.8867 24.8306C52.8867 22.51 52.5564 20.2144 51.9032 18.0079C51.6954 17.3028 51.4513 16.5985 51.1785 15.9156C49.4156 11.5045 46.4094 7.74194 42.4845 5.0344C38.4669 2.26284 33.7534 0.797729 28.8534 0.797729C23.9534 0.797729 19.1898 2.27862 15.1573 5.07987C11.2176 7.8171 8.21322 11.6158 6.46978 16.064C6.18864 16.7822 5.93905 17.5227 5.72842 18.265C5.12532 20.3889 4.82005 22.5972 4.82005 24.8297C4.82005 30.8395 7.04969 36.5914 11.0979 41.0276C15.1193 45.434 20.5908 48.1768 26.5031 48.7503C27.2816 48.8254 28.0721 48.8635 28.8525 48.8635L28.8534 48.8644ZM28.8534 1.7256C33.5641 1.7256 38.0958 3.13412 41.9575 5.79897C45.7311 8.40259 48.6214 12.0194 50.3166 16.2608C50.5782 16.9168 50.813 17.5932 51.0134 18.2715C51.6406 20.3926 51.9589 22.5991 51.9589 24.8306C51.9589 30.6075 49.8155 36.1377 45.9241 40.4022C42.0577 44.6389 36.7986 47.2749 31.1155 47.827C29.6263 47.9727 28.0944 47.9727 26.5931 47.828C20.91 47.2768 15.65 44.6398 11.7836 40.4031C7.89219 36.1386 5.74884 30.6085 5.74884 24.8306C5.74884 22.6844 6.04297 20.5605 6.62195 18.5192C6.82422 17.8057 7.06361 17.094 7.33454 16.4036C9.01118 12.1261 11.8996 8.47403 15.6871 5.84258C19.5628 3.14989 24.1158 1.72653 28.8534 1.72653V1.7256Z" fill="#002D59"/>
<path d="M18.1261 31.0325H39.5828C40.4522 31.0325 41.1602 30.3246 41.1602 29.4551V20.207C41.1602 19.3376 40.4522 18.6296 39.5828 18.6296H18.1261C17.2567 18.6296 16.5488 19.3376 16.5488 20.207V29.4551C16.5488 30.3246 17.2567 31.0325 18.1261 31.0325ZM39.5828 19.5575C39.941 19.5575 40.2323 19.8489 40.2323 20.207V29.4551C40.2323 29.8133 39.941 30.1047 39.5828 30.1047H18.1261C17.768 30.1047 17.4766 29.8133 17.4766 29.4551V20.207C17.4766 19.8489 17.768 19.5575 18.1261 19.5575H39.5828Z" fill="#002D59"/>
<path d="M14.7654 29.1617H15.8992C16.7686 29.1617 17.4766 28.4537 17.4766 27.5843V22.0774C17.4766 21.208 16.7686 20.5 15.8992 20.5H14.7654C13.896 20.5 13.188 21.208 13.188 22.0774V27.5843C13.188 28.4537 13.896 29.1617 14.7654 29.1617ZM15.8992 21.4279C16.2574 21.4279 16.5487 21.7192 16.5487 22.0774V27.5843C16.5487 27.9425 16.2574 28.2338 15.8992 28.2338H14.7654C14.4072 28.2338 14.1159 27.9425 14.1159 27.5843V22.0774C14.1159 21.7192 14.4072 21.4279 14.7654 21.4279H15.8992Z" fill="#002D59"/>
<path d="M17.6791 19.1073L27.9492 30.2527L27.2669 30.8815L16.9967 19.7361L17.6791 19.1073Z" fill="#002D59"/>
<path d="M21.0647 22.7942H40.6953V23.7221H21.0647V22.7942Z" fill="#002D59"/>
<path d="M31.014 24.532H39.1875V25.4599H31.014V24.532Z" fill="#002D59"/>
<path d="M50.7299 32.4969L51.4453 31.9067L45.353 24.532H40.6961V25.4599H44.916L50.7299 32.4969Z" fill="#002D59"/>
<path d="M45.1365 27.1176C44.2239 27.1176 43.484 26.3777 43.484 25.465C43.484 24.5524 44.2239 23.8125 45.1365 23.8125C46.0492 23.8125 46.7891 24.5524 46.7891 25.465C46.7891 26.3777 46.0492 27.1176 45.1365 27.1176Z" fill="white"/>
<path d="M45.1336 27.5805C46.3008 27.5805 47.25 26.6313 47.25 25.464C47.25 24.2967 46.3008 23.3475 45.1336 23.3475C43.9663 23.3475 43.0171 24.2967 43.0171 25.464C43.0171 26.6313 43.9663 27.5805 45.1336 27.5805ZM45.1336 24.2763C45.7886 24.2763 46.3221 24.8099 46.3221 25.4649C46.3221 26.12 45.7886 26.6536 45.1336 26.6536C44.4785 26.6536 43.945 26.12 43.945 25.4649C43.945 24.8099 44.4785 24.2763 45.1336 24.2763Z" fill="#002D59"/>
</g>
<defs>
<filter id="filter0_d_909_13615" x="0.814757" y="0.797729" width="56.0775" height="56.0778" filterUnits="userSpaceOnUse" color-interpolation-filters="sRGB">
<feFlood flood-opacity="0" result="BackgroundImageFix"/>
<feColorMatrix in="SourceAlpha" type="matrix" values="0 0 0 0 0 0 0 0 0 0 0 0 0 0 0 0 0 0 127 0" result="hardAlpha"/>
<feOffset dy="4.00556"/>
<feGaussianBlur stdDeviation="2.00278"/>
<feComposite in2="hardAlpha" operator="out"/>
<feColorMatrix type="matrix" values="0 0 0 0 0 0 0 0 0 0 0 0 0 0 0 0 0 0 0.25 0"/>
<feBlend mode="normal" in2="BackgroundImageFix" result="effect1_dropShadow_909_13615"/>
<feBlend mode="normal" in="SourceGraphic" in2="effect1_dropShadow_909_13615" result="shape"/>
</filter>
</defs>
</svg>
