<svg width="34" height="34" viewBox="0 0 34 34" fill="none" xmlns="http://www.w3.org/2000/svg">
<path fill-rule="evenodd" clip-rule="evenodd" d="M33.3157 17.2898C33.3157 25.6908 26.9126 32.5963 18.7206 33.3911C18.2003 33.4414 17.6723 33.4675 17.1386 33.4675C16.6049 33.4675 16.0763 33.4414 15.5554 33.3905C7.364 32.5957 0.960938 25.6901 0.960938 17.2898C0.960938 15.6945 1.19212 14.1533 1.62264 12.6974C1.76403 12.2185 1.92706 11.7485 2.11048 11.2893C4.49427 5.3263 10.3242 1.11279 17.1386 1.11279C23.9531 1.11279 29.8479 5.37343 32.2056 11.3893C32.3948 11.872 32.5616 12.3669 32.7043 12.8706C33.103 14.2756 33.3157 15.7575 33.3157 17.2898Z" fill="white"/>
<path d="M17.1368 33.7858C16.598 33.7858 16.0554 33.7591 15.5223 33.7075C11.4648 33.3139 7.70921 31.4313 4.94903 28.4068C2.17102 25.3626 0.640625 21.414 0.640625 17.2897C0.640625 15.6969 0.86735 14.1213 1.31507 12.6068C1.45773 12.1228 1.62522 11.6394 1.81246 11.1707C3.02251 8.143 5.08596 5.5605 7.7799 3.70212C10.5382 1.7998 13.7735 0.794189 17.1368 0.794189C20.5 0.794189 23.7697 1.81063 26.5375 3.73333C29.2417 5.61209 31.3039 8.21942 32.5005 11.2726C32.6935 11.7655 32.8648 12.2744 33.0094 12.7832C33.4233 14.241 33.6329 15.7567 33.6329 17.289C33.6329 21.414 32.1025 25.362 29.3238 28.4068C26.5637 31.4313 22.8081 33.3139 18.7499 33.7075C18.2156 33.7591 17.673 33.7852 17.1374 33.7852L17.1368 33.7858ZM17.1368 1.43106C13.9034 1.43106 10.7929 2.39782 8.14228 4.2269C5.55214 6.01395 3.5683 8.49646 2.40475 11.4076C2.22515 11.8578 2.06402 12.3221 1.92646 12.7877C1.49594 14.2435 1.27749 15.758 1.27749 17.2897C1.27749 21.2548 2.74865 25.0505 5.41967 27.9776C8.0735 30.8855 11.6833 32.6948 15.5841 33.0738C16.6062 33.1738 17.6577 33.1744 18.6882 33.0744C22.589 32.6961 26.1994 30.8861 28.8532 27.9782C31.5242 25.0512 32.9954 21.2554 32.9954 17.2897C32.9954 15.8166 32.7935 14.3588 32.3961 12.9577C32.2572 12.468 32.0929 11.9795 31.9076 11.5057C30.7568 8.5697 28.7742 6.06299 26.1745 4.25683C23.5137 2.40865 20.3892 1.43169 17.1374 1.43169L17.1368 1.43106Z" fill="#243959"/>
<path d="M22.2934 27.8068C21.1203 27.8068 20.0153 27.3724 19.1524 26.5662C18.2238 25.6981 17.6914 24.4715 17.6914 23.2003C17.6914 22.8067 17.7417 22.4138 17.8404 22.0323C17.8557 21.9744 17.8716 21.9183 17.8888 21.8623C17.9754 21.5782 18.0984 21.2935 18.2652 20.9929L21.7712 14.6676C21.8775 14.4765 22.0788 14.3574 22.2972 14.3574C22.5157 14.3574 22.7176 14.4765 22.8233 14.6676L26.3337 21.0019C26.5006 21.3037 26.6235 21.5878 26.7088 21.8705C26.7247 21.9234 26.74 21.9769 26.754 22.0304C26.8859 22.5386 26.9304 23.0602 26.8878 23.5824C26.7043 25.8325 24.8676 27.6444 22.6157 27.796C22.5074 27.803 22.3998 27.8068 22.2928 27.8068H22.2934ZM22.2972 15.0319L18.8218 21.3018C18.6773 21.5629 18.5709 21.8069 18.4977 22.0476C18.483 22.0954 18.469 22.1444 18.4563 22.1928C18.3716 22.5208 18.3283 22.8602 18.3283 23.1997C18.3283 24.311 18.7754 25.3408 19.5874 26.1C20.3987 26.8585 21.4585 27.2342 22.5736 27.1597C24.5135 27.0292 26.0955 25.4682 26.2534 23.5296C26.2904 23.0787 26.2515 22.6278 26.1382 22.1909C26.1261 22.1463 26.1133 22.0998 26.0993 22.054C26.0274 21.8151 25.9216 21.5712 25.7764 21.3095L24.1626 18.3971L22.2972 15.0306V15.0319Z" fill="#243959"/>
<path d="M11.0974 21.2961C11.042 21.2961 10.986 21.2897 10.9299 21.2757C10.5987 21.1954 10.386 20.9019 10.4128 20.5618L10.4191 20.5178L11.4872 15.6967C11.4859 15.6891 11.4821 15.6821 11.4763 15.6764C11.4681 15.6674 11.4572 15.663 11.4451 15.663H8.76902C8.30347 15.663 7.86977 15.4331 7.60865 15.0478C7.34754 14.6625 7.29468 14.1746 7.46727 13.7422L7.47746 13.7193L10.6987 7.17801C10.8293 6.86785 11.1477 6.70418 11.4776 6.7806C11.812 6.85766 12.0279 7.15126 12.0024 7.49326L11.9967 7.53465L11.0477 12.0653C11.0477 12.122 11.0687 12.1755 11.1076 12.2175C11.1503 12.2634 11.2082 12.2889 11.2713 12.2889H13.9066C14.3773 12.2889 14.8135 12.5226 15.074 12.9143C15.3345 13.3059 15.3816 13.7989 15.1995 14.2326L15.188 14.2574L11.712 20.8917C11.5999 21.1439 11.3623 21.2948 11.0993 21.2954L11.0974 21.2961ZM11.0471 20.628C11.0484 20.6401 11.0547 20.6509 11.0796 20.6573C11.1146 20.6656 11.1222 20.649 11.1293 20.6325L11.1407 20.6083L14.6148 13.9766C14.7104 13.7396 14.6836 13.4824 14.5416 13.269C14.3977 13.0518 14.1652 12.9276 13.9047 12.9276H11.2694C11.0312 12.9276 10.8013 12.8277 10.6389 12.6525C10.4765 12.478 10.3937 12.2411 10.4115 12.0035L10.4172 11.9622L11.3662 7.43275C11.3649 7.42002 11.3585 7.40919 11.333 7.40282C11.2974 7.39454 11.2904 7.41174 11.284 7.4283L11.2738 7.45122L8.05382 13.9899C7.96339 14.2262 7.99268 14.4816 8.13534 14.6918C8.27991 14.9051 8.51045 15.0274 8.76839 15.0274H11.4445C11.6337 15.0274 11.8152 15.107 11.9438 15.2458C12.0718 15.3847 12.1368 15.5719 12.1221 15.7604L12.1158 15.8044L11.0465 20.6293L11.0471 20.628Z" fill="#243959"/>
<path d="M9.77545 32.0196C9.72705 32.0196 9.67737 32.0081 9.63088 31.9846C9.47421 31.905 9.4118 31.7126 9.49205 31.556L24.2049 2.73391C24.2846 2.57724 24.4762 2.51483 24.6336 2.59507C24.7902 2.67468 24.8526 2.86702 24.7724 3.02369L10.0595 31.8457C10.0035 31.9559 9.89136 32.0196 9.77545 32.0196Z" fill="#243959"/>
</svg>
