<svg width="57" height="57" viewBox="0 0 57 57" fill="none" xmlns="http://www.w3.org/2000/svg">
<g filter="url(#filter0_d_909_13668)">
<path fill-rule="evenodd" clip-rule="evenodd" d="M52.4279 24.5184C52.4279 36.758 43.099 46.8189 31.1638 47.9769C30.4057 48.0502 29.6365 48.0883 28.8589 48.0883C28.0814 48.0883 27.3112 48.0502 26.5522 47.976C14.6179 46.818 5.28906 36.7571 5.28906 24.5184C5.28906 22.1941 5.62588 19.9486 6.25312 17.8275C6.45911 17.1297 6.69665 16.445 6.96388 15.776C10.4369 7.08828 18.9307 0.949463 28.8589 0.949463C38.7872 0.949463 47.3756 7.15694 50.8106 15.9216C51.0861 16.625 51.3292 17.3459 51.5371 18.0799C52.1179 20.1268 52.4279 22.2859 52.4279 24.5184Z" fill="white"/>
<path d="M28.858 48.5521C28.073 48.5521 27.2825 48.5132 26.5059 48.438C20.5944 47.8646 15.1227 45.1218 11.1013 40.7153C7.0539 36.2801 4.82422 30.5273 4.82422 24.5183C4.82422 22.1977 5.15454 19.9022 5.80684 17.6957C6.01468 16.9905 6.25871 16.2862 6.53151 15.6033C8.29447 11.1922 11.3008 7.42968 15.2257 4.72215C19.2443 1.95059 23.9579 0.485474 28.858 0.485474C33.7581 0.485474 38.5218 1.96636 42.5544 4.76761C46.4941 7.50484 49.4986 11.3036 51.2421 15.7518C51.5232 16.47 51.7728 17.2113 51.9834 17.9527C52.5865 20.0766 52.8918 22.2849 52.8918 24.5174C52.8918 30.5273 50.6621 36.2791 46.6138 40.7153C42.5924 45.1218 37.1207 47.8646 31.2083 48.438C30.4298 48.5132 29.6393 48.5512 28.8589 48.5512L28.858 48.5521ZM28.858 1.41335C24.1472 1.41335 19.6155 2.82186 15.7536 5.48672C11.98 8.09033 9.08966 11.7072 7.39443 15.9485C7.13277 16.6045 6.89802 17.2809 6.6976 17.9592C6.07035 20.0803 5.75209 22.2868 5.75209 24.5183C5.75209 30.2953 7.89548 35.8254 11.787 40.0899C15.6534 44.3266 20.9126 46.9627 26.5959 47.5148C28.0851 47.6604 29.617 47.6614 31.1183 47.5157C36.8015 46.9645 42.0617 44.3275 45.9281 40.0909C49.8196 35.8263 51.963 30.2962 51.963 24.5183C51.963 22.3722 51.6689 20.2483 51.0899 18.2069C50.8876 17.4934 50.6482 16.7817 50.3782 16.0914C48.7015 11.8139 45.8131 8.16178 42.0255 5.53033C38.1488 2.83763 33.5967 1.41428 28.8589 1.41428L28.858 1.41335Z" fill="#243959"/>
<path d="M36.3767 39.8411C34.6676 39.8411 33.0577 39.2083 31.8004 38.0336C30.4476 36.7689 29.6719 34.9818 29.6719 33.1298C29.6719 32.5564 29.7452 31.9839 29.889 31.4281C29.9113 31.3437 29.9345 31.262 29.9595 31.1803C30.0857 30.7665 30.2648 30.3518 30.5079 29.9138L35.6158 20.6982C35.7708 20.4198 36.064 20.2463 36.3823 20.2463C36.7005 20.2463 36.9947 20.4198 37.1487 20.6982L42.2631 29.9268C42.5062 30.3666 42.6853 30.7804 42.8096 31.1924C42.8328 31.2694 42.8551 31.3474 42.8755 31.4253C43.0676 32.1658 43.1325 32.9257 43.0704 33.6865C42.8032 36.9647 40.1272 39.6045 36.8462 39.8254C36.6885 39.8356 36.5316 39.8411 36.3758 39.8411H36.3767ZM36.3823 21.2289L31.3189 30.3638C31.1082 30.7442 30.9533 31.0996 30.8466 31.4504C30.8252 31.5199 30.8048 31.5914 30.7863 31.6619C30.6628 32.1398 30.5997 32.6343 30.5997 33.1289C30.5997 34.748 31.2511 36.2484 32.4342 37.3544C33.6163 38.4595 35.1603 39.007 36.785 38.8984C39.6113 38.7082 41.9161 36.434 42.1462 33.6095C42.2 32.9526 42.1434 32.2957 41.9783 31.6591C41.9606 31.5942 41.9421 31.5264 41.9217 31.4596C41.8168 31.1117 41.6628 30.7563 41.4512 30.375L39.1 26.1318L36.3823 21.227V21.2289Z" fill="#243959"/>
<path d="M20.0597 30.3554C19.979 30.3554 19.8973 30.3462 19.8157 30.3257C19.3332 30.2088 19.0233 29.7811 19.0622 29.2856L19.0715 29.2216L20.6276 22.1976C20.6257 22.1864 20.6201 22.1762 20.6118 22.1679C20.5997 22.1549 20.5839 22.1484 20.5663 22.1484H16.6674C15.9891 22.1484 15.3572 21.8134 14.9768 21.2521C14.5964 20.6907 14.5194 19.98 14.7708 19.3499L14.7857 19.3165L19.4788 9.78633C19.6691 9.33445 20.133 9.09599 20.6136 9.20733C21.1008 9.31961 21.4153 9.74736 21.3782 10.2456L21.3699 10.3059L19.9873 16.9068C19.9873 16.9894 20.0179 17.0674 20.0745 17.1286C20.1367 17.1954 20.2211 17.2325 20.313 17.2325H24.1525C24.8382 17.2325 25.4738 17.573 25.8533 18.1437C26.2328 18.7143 26.3015 19.4325 26.0361 20.0644L26.0194 20.1006L20.9551 29.7662C20.7918 30.1337 20.4457 30.3536 20.0625 30.3545L20.0597 30.3554ZM19.9864 29.3821C19.9882 29.3997 19.9975 29.4155 20.0337 29.4248C20.0847 29.4368 20.0959 29.4127 20.1061 29.3886L20.1228 29.3533L25.1843 19.6914C25.3235 19.3462 25.2846 18.9714 25.0776 18.6605C24.8679 18.3441 24.5293 18.1632 24.1498 18.1632H20.3102C19.9632 18.1632 19.6282 18.0175 19.3916 17.7623C19.155 17.5081 19.0344 17.1629 19.0604 16.8168L19.0687 16.7565L20.4513 10.1575C20.4494 10.1389 20.4401 10.1231 20.403 10.1139C20.351 10.1018 20.3408 10.1269 20.3316 10.151L20.3167 10.1844L15.6254 19.7109C15.4936 20.0551 15.5363 20.4272 15.7441 20.7334C15.9548 21.0442 16.2907 21.2224 16.6665 21.2224H20.5654C20.841 21.2224 21.1054 21.3384 21.2928 21.5406C21.4793 21.7429 21.574 22.0157 21.5526 22.2904L21.5434 22.3544L19.9855 29.384L19.9864 29.3821Z" fill="#243959"/>
<path d="M18.1397 45.9791C18.0692 45.9791 17.9968 45.9624 17.9291 45.928C17.7008 45.812 17.6099 45.5318 17.7268 45.3036L39.1625 3.3117C39.2785 3.08345 39.5578 2.99251 39.787 3.10943C40.0153 3.22541 40.1062 3.50563 39.9893 3.73389L18.5535 45.7258C18.4719 45.8863 18.3086 45.9791 18.1397 45.9791Z" fill="#243959"/>
</g>
<defs>
<filter id="filter0_d_909_13668" x="0.818663" y="0.485474" width="56.0775" height="56.0778" filterUnits="userSpaceOnUse" color-interpolation-filters="sRGB">
<feFlood flood-opacity="0" result="BackgroundImageFix"/>
<feColorMatrix in="SourceAlpha" type="matrix" values="0 0 0 0 0 0 0 0 0 0 0 0 0 0 0 0 0 0 127 0" result="hardAlpha"/>
<feOffset dy="4.00556"/>
<feGaussianBlur stdDeviation="2.00278"/>
<feComposite in2="hardAlpha" operator="out"/>
<feColorMatrix type="matrix" values="0 0 0 0 0 0 0 0 0 0 0 0 0 0 0 0 0 0 0.25 0"/>
<feBlend mode="normal" in2="BackgroundImageFix" result="effect1_dropShadow_909_13668"/>
<feBlend mode="normal" in="SourceGraphic" in2="effect1_dropShadow_909_13668" result="shape"/>
</filter>
</defs>
</svg>
