<svg width="57" height="57" viewBox="0 0 57 57" fill="none" xmlns="http://www.w3.org/2000/svg">
<g filter="url(#filter0_d_909_13570)">
<path fill-rule="evenodd" clip-rule="evenodd" d="M52.4191 24.6224C52.4191 36.862 43.0905 46.9229 31.1555 48.0809C30.3974 48.1542 29.6282 48.1923 28.8507 48.1923C28.0731 48.1923 27.303 48.1542 26.544 48.08C14.6099 46.922 5.28125 36.8611 5.28125 24.6224C5.28125 22.2981 5.61806 20.0526 6.24529 17.9315C6.45128 17.2337 6.68881 16.549 6.95603 15.88C10.429 7.19228 18.9226 1.05347 28.8507 1.05347C38.7787 1.05347 47.367 7.26094 50.8019 16.0256C51.0775 16.729 51.3206 17.4499 51.5284 18.1839C52.1092 20.2308 52.4191 22.3899 52.4191 24.6224Z" fill="white"/>
<path d="M28.8536 48.6561C28.0696 48.6561 27.2791 48.6172 26.5015 48.542C20.5892 47.9686 15.1186 45.2258 11.0973 40.8193C7.04995 36.3841 4.82031 30.6313 4.82031 24.6223C4.82031 22.3017 5.15156 20.0062 5.80384 17.7997C6.01168 17.0945 6.25571 16.3902 6.5285 15.7073C8.29142 11.2962 11.2977 7.53369 15.2225 4.82615C19.2401 2.05459 23.9546 0.589478 28.8536 0.589478C33.7527 0.589478 38.5173 2.07036 42.5497 4.87162C46.4894 7.60885 49.4938 11.4076 51.2373 15.8558C51.5184 16.574 51.768 17.3144 51.9786 18.0567C52.5817 20.1806 52.887 22.389 52.887 24.6214C52.887 30.6313 50.6573 36.3841 46.6091 40.8193C42.5878 45.2258 37.1162 47.9686 31.2039 48.542C30.4245 48.6172 29.634 48.6552 28.8546 48.6552L28.8536 48.6561ZM28.8536 1.51735C24.1429 1.51735 19.6113 2.92586 15.7495 5.59072C11.9759 8.19433 9.08567 11.8112 7.39047 16.0525C7.12882 16.7085 6.89407 17.3849 6.69365 18.0632C6.06642 20.1843 5.74817 22.3908 5.74817 24.6223C5.74817 30.3993 7.89152 35.9294 11.7829 40.1939C15.6493 44.4306 20.9084 47.0667 26.5915 47.6188C28.0826 47.7645 29.6117 47.7645 31.1139 47.6188C36.797 47.0676 42.057 44.4306 45.9234 40.1939C49.8148 35.9294 51.9582 30.3993 51.9582 24.6214C51.9582 22.4752 51.6641 20.3513 51.0851 18.31C50.8828 17.5965 50.6434 16.8848 50.3725 16.1945C48.6959 11.917 45.8074 8.26485 42.0199 5.6334C38.1443 2.94071 33.5913 1.51735 28.8536 1.51735Z" fill="#002D59"/>
<path d="M39.6602 19.5153C39.6648 22.054 38.7963 24.3895 37.3396 26.2396C36.8376 26.8762 36.2661 27.4561 35.637 27.9655C33.7943 29.4584 32.6948 31.6798 32.6948 34.0514H25.2144C25.2144 31.7494 24.1288 29.5846 22.2907 28.1993C21.3564 27.4951 20.5389 26.6423 19.8746 25.6764C18.673 23.9302 17.9688 21.8146 17.9688 19.5339C17.9688 13.4925 22.9068 8.60632 28.9666 8.6889C34.8613 8.76962 39.65 13.6196 39.6602 19.5153Z" fill="white"/>
<path d="M33.1617 34.5154H24.7534V34.0515C24.7534 31.9118 23.7291 29.863 22.0144 28.5696C21.0374 27.8329 20.1893 26.9477 19.4953 25.94C18.1954 24.0508 17.5078 21.836 17.5078 19.5339C17.5078 16.4831 18.7038 13.6234 20.8759 11.4819C23.0471 9.34032 25.9244 8.18233 28.9761 8.22502C35.1139 8.30945 40.1169 13.3738 40.1271 19.5145C40.1317 22.0865 39.2948 24.5111 37.7072 26.5264C37.1849 27.1898 36.5873 27.7948 35.9323 28.3265C34.1721 29.7526 33.1626 31.8394 33.1626 34.0515V34.5154H33.1617ZM25.6674 33.5875H32.2468C32.3786 31.2678 33.492 29.1078 35.3477 27.6055C35.9499 27.1175 36.4982 26.5617 36.978 25.953C38.4347 24.1028 39.203 21.8778 39.1992 19.5163C39.19 13.8795 34.598 9.23083 28.9631 9.15382C26.161 9.11392 23.5203 10.1773 21.5273 12.1434C19.5333 14.1096 18.4357 16.7345 18.4357 19.5349C18.4357 21.6476 19.0666 23.6806 20.2589 25.4148C20.8963 26.3408 21.6748 27.1527 22.5721 27.8301C24.3944 29.2043 25.5291 31.33 25.6665 33.5894L25.6674 33.5875Z" fill="#002D59"/>
<path d="M31.8384 37.5364H25.7999C25.2459 37.5364 24.7969 37.9855 24.7969 38.5395V38.6137C24.7969 39.1677 25.2459 39.6167 25.7999 39.6167H31.8384C32.3923 39.6167 32.8414 39.1677 32.8414 38.6137V38.5395C32.8414 37.9855 32.3923 37.5364 31.8384 37.5364Z" fill="white"/>
<path d="M31.8365 40.0796H25.799C24.9899 40.0796 24.332 39.4218 24.332 38.6127V38.5394C24.332 37.7303 24.9899 37.0715 25.799 37.0715H31.8365C32.6456 37.0715 33.3035 37.7293 33.3035 38.5394V38.6127C33.3035 39.4218 32.6456 40.0796 31.8365 40.0796ZM25.799 37.9993C25.5011 37.9993 25.2599 38.2415 25.2599 38.5394V38.6127C25.2599 38.9105 25.5021 39.1518 25.799 39.1518H31.8365C32.1344 39.1518 32.3756 38.9096 32.3756 38.6127V38.5394C32.3756 38.2415 32.1334 37.9993 31.8365 37.9993H25.799Z" fill="#002D59"/>
<path d="M32.157 33.4143H25.4718C24.9178 33.4143 24.4688 33.8634 24.4688 34.4173V36.5329C24.4688 37.0868 24.9178 37.5359 25.4718 37.5359H32.157C32.7109 37.5359 33.16 37.0868 33.16 36.5329V34.4173C33.16 33.8634 32.7109 33.4143 32.157 33.4143Z" fill="white"/>
<path d="M32.159 38.0006H25.4748C24.6657 38.0006 24.0078 37.3427 24.0078 36.5336V34.419C24.0078 33.6099 24.6657 32.952 25.4748 32.952H32.159C32.9681 32.952 33.626 33.6099 33.626 34.419V36.5336C33.626 37.3427 32.9681 38.0006 32.159 38.0006ZM25.4748 33.879C25.1769 33.879 24.9357 34.1211 24.9357 34.4181V36.5327C24.9357 36.8305 25.1778 37.0718 25.4748 37.0718H32.159C32.4569 37.0718 32.6981 36.8296 32.6981 36.5327V34.4181C32.6981 34.1202 32.4559 33.879 32.159 33.879H25.4748Z" fill="#002D59"/>
<path d="M21.1484 19.5701C21.3164 20.5017 21.7562 22.3361 22.9986 24.1278C24.3069 26.0151 25.8211 26.8697 26.5634 27.2204" fill="white"/>
<path d="M26.5655 27.6843C26.4987 27.6843 26.4319 27.6704 26.3679 27.6398C25.3519 27.1601 23.8775 26.2062 22.6203 24.3922C21.4252 22.6682 20.9139 20.8635 20.695 19.6526C20.6495 19.4003 20.8165 19.159 21.0689 19.1135C21.3213 19.0681 21.5625 19.2351 21.608 19.4875C21.8102 20.6074 22.2825 22.2757 23.383 23.8633C24.5233 25.5084 25.8511 26.3686 26.7641 26.801C26.996 26.9105 27.0944 27.187 26.9849 27.4189C26.906 27.5869 26.739 27.6843 26.5655 27.6843Z" fill="#002D59"/>
<path d="M34.227 14.0114C33.1646 12.8552 32.1032 12.2679 31.5195 11.9923L34.227 14.0114Z" fill="white"/>
<path d="M34.2293 14.4752C34.104 14.4752 33.9787 14.4251 33.8878 14.3249C33.1418 13.513 32.2548 12.8514 31.3241 12.4116C31.0922 12.3021 30.9938 12.0256 31.1033 11.7936C31.2128 11.5617 31.4893 11.4633 31.7213 11.5728C32.7595 12.0636 33.7449 12.7985 34.5716 13.6976C34.7451 13.886 34.7331 14.1801 34.5438 14.3527C34.4547 14.4344 34.3425 14.4752 34.2302 14.4752H34.2293Z" fill="#002D59"/>
</g>
<defs>
<filter id="filter0_d_909_13570" x="0.814757" y="0.589478" width="56.0775" height="56.0778" filterUnits="userSpaceOnUse" color-interpolation-filters="sRGB">
<feFlood flood-opacity="0" result="BackgroundImageFix"/>
<feColorMatrix in="SourceAlpha" type="matrix" values="0 0 0 0 0 0 0 0 0 0 0 0 0 0 0 0 0 0 127 0" result="hardAlpha"/>
<feOffset dy="4.00556"/>
<feGaussianBlur stdDeviation="2.00278"/>
<feComposite in2="hardAlpha" operator="out"/>
<feColorMatrix type="matrix" values="0 0 0 0 0 0 0 0 0 0 0 0 0 0 0 0 0 0 0.25 0"/>
<feBlend mode="normal" in2="BackgroundImageFix" result="effect1_dropShadow_909_13570"/>
<feBlend mode="normal" in="SourceGraphic" in2="effect1_dropShadow_909_13570" result="shape"/>
</filter>
</defs>
</svg>
