<svg width="34" height="34" viewBox="0 0 34 34" fill="none" xmlns="http://www.w3.org/2000/svg">
<path fill-rule="evenodd" clip-rule="evenodd" d="M33.6158 16.8397C33.6158 25.2406 27.2129 32.1461 19.021 32.9409C18.5007 32.9912 17.9728 33.0173 17.4391 33.0173C16.9054 33.0173 16.3768 32.9912 15.8559 32.9403C7.66466 32.1455 1.26172 25.2399 1.26172 16.8397C1.26172 15.2443 1.4929 13.7031 1.92341 12.2472C2.06479 11.7683 2.22783 11.2983 2.41124 10.8391C4.79499 4.87611 10.6248 0.662598 17.4391 0.662598C24.2534 0.662598 30.1482 4.92324 32.5058 10.9391C32.695 11.4218 32.8618 11.9167 33.0045 12.4204C33.4031 13.8254 33.6158 15.3074 33.6158 16.8397Z" fill="white"/>
<path d="M17.4411 33.3356C16.903 33.3356 16.3604 33.3089 15.8267 33.2573C11.7687 32.8637 8.01376 30.9811 5.25363 27.9566C2.47567 24.9124 0.945312 20.9638 0.945312 16.8395C0.945312 15.2467 1.17267 13.6711 1.62038 12.1566C1.76303 11.6726 1.93053 11.1892 2.11776 10.7205C3.32779 7.6928 5.39119 5.11031 8.08509 3.25193C10.8427 1.34961 14.0785 0.343994 17.4411 0.343994C20.8037 0.343994 24.074 1.36043 26.8417 3.28313C29.5458 5.16189 31.608 7.76922 32.8046 10.8224C32.9976 11.3153 33.1689 11.8235 33.3134 12.333C33.7274 13.7908 33.9369 15.3065 33.9369 16.8388C33.9369 20.9638 32.4066 24.9124 29.628 27.9566C26.8678 30.9811 23.1123 32.8637 19.0543 33.2573C18.5193 33.3089 17.9767 33.335 17.4418 33.335L17.4411 33.3356ZM17.4411 0.980861C14.2078 0.980861 11.0974 1.94762 8.44682 3.77671C5.85674 5.56376 3.87293 8.04626 2.7094 10.9574C2.52981 11.4076 2.36868 11.8719 2.23112 12.3375C1.80061 13.7933 1.58217 15.3078 1.58217 16.8395C1.58217 20.8046 3.0533 24.6003 5.72427 27.5274C8.37804 30.4353 11.9877 32.2447 15.8885 32.6236C16.9119 32.7236 17.9614 32.7236 18.9925 32.6236C22.8932 32.2453 26.5036 30.4353 29.1573 27.5274C31.8283 24.6003 33.2994 20.8046 33.2994 16.8388C33.2994 15.3658 33.0976 13.908 32.7002 12.5069C32.5613 12.0171 32.397 11.5286 32.2111 11.0548C31.0603 8.11886 29.0777 5.61216 26.4781 3.806C23.8179 1.95781 20.6929 0.980861 17.4411 0.980861Z" fill="#002D59"/>
<path d="M24.8532 13.3338C24.8564 15.0762 24.2603 16.6792 23.2605 17.9491C22.9159 18.386 22.5236 18.7841 22.0918 19.1337C20.827 20.1584 20.0724 21.6831 20.0724 23.3109H14.938C14.938 21.7309 14.1929 20.2451 12.9313 19.2942C12.29 18.8108 11.7289 18.2255 11.2729 17.5626C10.4482 16.364 9.96484 14.9119 9.96484 13.3465C9.96484 9.19987 13.3542 5.84613 17.5135 5.90281C21.5594 5.95822 24.8462 9.28712 24.8532 13.3338Z" fill="white"/>
<path d="M20.3928 23.6295H14.6216V23.3111C14.6216 21.8425 13.9185 20.4363 12.7416 19.5485C12.071 19.0428 11.4889 18.4352 11.0126 17.7436C10.1203 16.4469 9.64844 14.9267 9.64844 13.3467C9.64844 11.2526 10.4693 9.28981 11.9602 7.81992C13.4505 6.35004 15.4253 5.55523 17.52 5.58452C21.7328 5.64248 25.1667 9.1185 25.1737 13.3333C25.1769 15.0987 24.6024 16.7628 23.5128 18.1461C23.1542 18.6014 22.7441 19.0167 22.2945 19.3816C21.0863 20.3605 20.3935 21.7928 20.3935 23.3111V23.6295H20.3928ZM15.2489 22.9926H19.7649C19.8553 21.4005 20.6195 19.9178 21.8932 18.8868C22.3066 18.5518 22.6829 18.1703 23.0122 17.7525C24.0121 16.4826 24.5394 14.9554 24.5368 13.3346C24.5305 9.46559 21.3787 6.27489 17.511 6.22203C15.5877 6.19464 13.7753 6.92449 12.4073 8.27401C11.0387 9.62353 10.2853 11.4252 10.2853 13.3473C10.2853 14.7974 10.7184 16.1928 11.5367 17.3831C11.9742 18.0187 12.5086 18.576 13.1244 19.0409C14.3752 19.9841 15.154 21.4431 15.2483 22.9939L15.2489 22.9926Z" fill="#002D59"/>
<path d="M19.4893 25.7031H15.3447C14.9645 25.7031 14.6562 26.0114 14.6562 26.3916V26.4425C14.6562 26.8227 14.9645 27.131 15.3447 27.131H19.4893C19.8696 27.131 20.1778 26.8227 20.1778 26.4425V26.3916C20.1778 26.0114 19.8696 25.7031 19.4893 25.7031Z" fill="white"/>
<path d="M19.4868 27.4488H15.3428C14.7875 27.4488 14.3359 26.9972 14.3359 26.4419V26.3916C14.3359 25.8362 14.7875 25.384 15.3428 25.384H19.4868C20.0422 25.384 20.4937 25.8356 20.4937 26.3916V26.4419C20.4937 26.9972 20.0422 27.4488 19.4868 27.4488ZM15.3428 26.0209C15.1384 26.0209 14.9728 26.1871 14.9728 26.3916V26.4419C14.9728 26.6463 15.139 26.8119 15.3428 26.8119H19.4868C19.6912 26.8119 19.8568 26.6457 19.8568 26.4419V26.3916C19.8568 26.1871 19.6906 26.0209 19.4868 26.0209H15.3428Z" fill="#002D59"/>
<path d="M19.7028 22.874H15.1142C14.734 22.874 14.4258 23.1823 14.4258 23.5625V25.0145C14.4258 25.3948 14.734 25.703 15.1142 25.703H19.7028C20.083 25.703 20.3912 25.3948 20.3912 25.0145V23.5625C20.3912 23.1823 20.083 22.874 19.7028 22.874Z" fill="white"/>
<path d="M19.7041 26.0218H15.1162C14.5609 26.0218 14.1094 25.5703 14.1094 25.0149V23.5635C14.1094 23.0082 14.5609 22.5566 15.1162 22.5566H19.7041C20.2595 22.5566 20.711 23.0082 20.711 23.5635V25.0149C20.711 25.5703 20.2595 26.0218 19.7041 26.0218ZM15.1162 23.1929C14.9118 23.1929 14.7462 23.3591 14.7462 23.5629V25.0143C14.7462 25.2187 14.9124 25.3843 15.1162 25.3843H19.7041C19.9086 25.3843 20.0742 25.2181 20.0742 25.0143V23.5629C20.0742 23.3585 19.9079 23.1929 19.7041 23.1929H15.1162Z" fill="#002D59"/>
<path d="M12.1523 13.3713C12.2676 14.0108 12.5695 15.2698 13.4222 16.4996C14.3202 17.795 15.3595 18.3816 15.869 18.6223" fill="white"/>
<path d="M15.8704 18.9406C15.8246 18.9406 15.7787 18.931 15.7348 18.91C15.0374 18.5808 14.0255 17.9261 13.1625 16.681C12.3423 15.4977 11.9914 14.259 11.8411 13.4279C11.8099 13.2546 11.9245 13.0891 12.0977 13.0579C12.2709 13.0266 12.4365 13.1413 12.4677 13.3145C12.6066 14.0832 12.9307 15.2283 13.686 16.318C14.4687 17.4471 15.3801 18.0375 16.0067 18.3343C16.1659 18.4094 16.2334 18.5992 16.1583 18.7585C16.1042 18.8737 15.9895 18.9406 15.8704 18.9406Z" fill="#002D59"/>
<path d="M21.1279 9.55672C20.3987 8.76318 19.6701 8.36005 19.2695 8.1709L21.1279 9.55672Z" fill="white"/>
<path d="M21.1294 9.87486C21.0434 9.87486 20.9574 9.84047 20.895 9.77169C20.383 9.21443 19.7742 8.76035 19.1354 8.45847C18.9762 8.38332 18.9087 8.19354 18.9838 8.03432C19.059 7.8751 19.2488 7.8076 19.408 7.88275C20.1206 8.21965 20.7969 8.72405 21.3644 9.34117C21.4835 9.47045 21.4752 9.67234 21.3453 9.7908C21.2841 9.84684 21.2071 9.87486 21.13 9.87486H21.1294Z" fill="#002D59"/>
</svg>
