<svg width="34" height="34" viewBox="0 0 34 34" fill="none" xmlns="http://www.w3.org/2000/svg">
<path fill-rule="evenodd" clip-rule="evenodd" d="M32.9205 17.3885C32.9205 25.7894 26.5176 32.6949 18.3257 33.4897C17.8054 33.5401 17.2775 33.5662 16.7438 33.5662C16.2101 33.5662 15.6815 33.5401 15.1606 33.4891C6.96934 32.6943 0.566406 25.7888 0.566406 17.3885C0.566406 15.7931 0.797585 14.2519 1.2281 12.796C1.36948 12.3171 1.53251 11.8471 1.71593 11.3879C4.09968 5.42494 9.92944 1.21143 16.7438 1.21143C23.5581 1.21143 29.4529 5.47207 31.8105 11.4879C31.9996 11.9707 32.1665 12.4655 32.3092 12.9693C32.7078 14.3742 32.9205 15.8562 32.9205 17.3885Z" fill="white"/>
<path d="M16.7458 33.8844C16.2077 33.8844 15.6651 33.8577 15.1314 33.8061C11.0733 33.4125 7.31845 31.5299 4.55832 28.5055C1.78036 25.4612 0.25 21.5133 0.25 17.3883C0.25 15.7955 0.47672 14.2199 0.925066 12.7054C1.06836 12.2208 1.23521 11.738 1.42245 11.2693C2.63247 8.24163 4.69588 5.65913 7.38978 3.80076C10.1474 1.89843 13.3826 0.892822 16.7458 0.892822C20.109 0.892822 23.3786 1.90926 26.1464 3.83196C28.8505 5.71072 30.9126 8.31805 32.1093 11.3712C32.3023 11.8641 32.4736 12.3723 32.6181 12.8818C33.0321 14.3396 33.2416 15.856 33.2416 17.3877C33.2416 21.5127 31.7113 25.4606 28.9327 28.5055C26.1725 31.5299 22.417 33.4125 18.359 33.8061C17.824 33.8577 17.2814 33.8838 16.7464 33.8838L16.7458 33.8844ZM16.7458 1.52969C13.5125 1.52969 10.4021 2.49645 7.75151 4.32553C5.16142 6.11258 3.17762 8.59509 2.01409 11.5062C1.83449 11.9565 1.67337 12.4207 1.53581 12.8863C1.1053 14.3422 0.886855 15.8566 0.886855 17.3883C0.886855 21.3534 2.35799 25.1492 5.02896 28.0762C7.68273 30.9841 11.2924 32.7935 15.1932 33.1724C16.2166 33.2724 17.2661 33.2724 18.2972 33.1724C22.1979 32.7941 25.8082 30.9841 28.462 28.0762C31.133 25.1492 32.6041 21.3534 32.6041 17.3877C32.6041 15.9146 32.4022 14.4568 32.0048 13.0551C31.866 12.5653 31.7017 12.0768 31.5157 11.603C30.3649 8.66706 28.3824 6.16035 25.7828 4.35419C23.1226 2.50601 19.9976 1.52905 16.7458 1.52905V1.52969Z" fill="#002D59"/>
<path d="M16.7415 29.4896C23.4246 29.4896 28.8424 24.0717 28.8424 17.3885C28.8424 10.7052 23.4246 5.28735 16.7415 5.28735C10.0584 5.28735 4.64062 10.7052 4.64062 17.3885C4.64062 24.0717 10.0584 29.4896 16.7415 29.4896Z" fill="white"/>
<path d="M16.7435 29.8078C9.89542 29.8078 4.32422 24.2365 4.32422 17.3883C4.32422 10.5401 9.89606 4.96875 16.7435 4.96875C23.591 4.96875 29.1628 10.5401 29.1628 17.3883C29.1628 24.2365 23.5916 29.8078 16.7435 29.8078ZM16.7435 5.60562C10.2463 5.60562 4.96107 10.8916 4.96107 17.3883C4.96107 23.885 10.247 29.171 16.7435 29.171C23.2401 29.171 28.526 23.885 28.526 17.3883C28.526 10.8916 23.2401 5.60562 16.7435 5.60562Z" fill="#002D59"/>
<path d="M23.6199 17.3891C23.6199 18.6794 23.2639 19.8869 22.6455 20.9179C22.064 21.8866 21.2508 22.6999 20.2821 23.2807C19.2504 23.9004 18.0436 24.2558 16.7533 24.2558C15.463 24.2558 14.2555 23.8991 13.2245 23.2807C12.2558 22.6993 11.4432 21.886 10.8617 20.9173C10.2427 19.8862 9.88672 18.6787 9.88672 17.3884C9.88672 16.0981 10.2421 14.8913 10.8617 13.8602C11.4426 12.8915 12.2558 12.0782 13.2238 11.4968C14.2549 10.8777 15.4624 10.5217 16.7533 10.5217C18.0442 10.5217 19.251 10.8777 20.2821 11.4968C21.2508 12.0782 22.064 12.8909 22.6455 13.8595C23.2639 14.8906 23.6199 16.0981 23.6199 17.3891Z" fill="white"/>
<path d="M16.7514 24.5743C15.449 24.5743 14.1721 24.2214 13.0589 23.554C12.0489 22.9477 11.1942 22.0924 10.5866 21.0811C9.91922 19.9691 9.56641 18.6922 9.56641 17.3885C9.56641 16.0848 9.91922 14.8073 10.5866 13.6959C11.1923 12.6859 12.047 11.8306 13.0576 11.2236C14.1696 10.5562 15.4465 10.2034 16.7508 10.2034C18.055 10.2034 19.3313 10.5562 20.4432 11.2236C21.4546 11.8306 22.3092 12.6852 22.9155 13.6953C23.5829 14.8079 23.9351 16.0848 23.9351 17.3885C23.9351 18.6922 23.5823 19.9691 22.9155 21.0811C22.3086 22.0924 21.4533 22.9471 20.4426 23.5534C19.3313 24.2208 18.0544 24.5736 16.7501 24.5736L16.7514 24.5743ZM16.7514 10.8402C15.5624 10.8402 14.3989 11.1619 13.3856 11.7701C12.4641 12.3235 11.6852 13.103 11.1324 14.0239C10.5242 15.0359 10.2026 16.1995 10.2026 17.3885C10.2026 18.5775 10.5242 19.7404 11.1324 20.7537C11.6859 21.6759 12.4654 22.4554 13.3863 23.0082C14.4001 23.6164 15.5637 23.938 16.7514 23.938C17.9391 23.938 19.1039 23.6164 20.1165 23.0082C21.0381 22.4554 21.8176 21.6765 22.371 20.7543C22.9786 19.7411 23.3002 18.5775 23.3002 17.3891C23.3002 16.2007 22.9792 15.0366 22.371 14.0233C21.8182 13.1024 21.0387 12.3229 20.1165 11.7701C19.1033 11.1619 17.9398 10.8402 16.7514 10.8402Z" fill="#002D59"/>
<path d="M16.7481 24.5743C15.4445 24.5743 14.1676 24.2214 13.055 23.554C12.0443 22.9477 11.1897 22.0924 10.5827 21.0817C9.91532 19.9691 9.5625 18.6922 9.5625 17.3885C9.5625 16.0842 9.91532 14.8073 10.5827 13.6959C11.1884 12.6859 12.043 11.8312 13.0537 11.2236C14.1663 10.5562 15.4432 10.2034 16.7469 10.2034C18.0505 10.2034 19.3274 10.5562 20.44 11.2236C21.4507 11.8299 22.3053 12.6852 22.9122 13.6959C23.5797 14.8086 23.9325 16.0855 23.9325 17.3891C23.9325 18.6928 23.5797 19.9697 22.9122 21.0823C22.3053 22.0937 21.45 22.9483 20.4393 23.554C19.3287 24.2214 18.0518 24.5743 16.7475 24.5743H16.7481ZM16.7481 10.8402C15.5598 10.8402 14.3962 11.1619 13.383 11.7701C12.4615 12.3241 11.6826 13.103 11.1298 14.0239C10.5216 15.0359 10.2 16.1995 10.2 17.3885C10.2 18.5769 10.5216 19.7404 11.1298 20.7537C11.6826 21.6753 12.4621 22.4541 13.3836 23.0076C14.3975 23.6158 15.561 23.9374 16.7488 23.9374C17.9365 23.9374 19.1013 23.6158 20.1133 23.0082C21.0348 22.456 21.8143 21.6765 22.3677 20.755C22.9759 19.7417 23.2975 18.5775 23.2975 17.3898C23.2975 16.202 22.9759 15.0378 22.3677 14.0246C21.8149 13.103 21.0354 12.3235 20.1139 11.7707C19.1007 11.1625 17.9365 10.8409 16.7488 10.8409L16.7481 10.8402Z" fill="#002D59"/>
<path d="M10.9171 14.373L6.66797 10.1238L6.83546 9.90284C7.52836 8.98702 8.34417 8.1712 9.25997 7.47829L9.48096 7.31079L13.7294 11.5593L13.3798 11.7695C12.4583 12.3236 11.6787 13.1031 11.1266 14.024L10.9171 14.3736V14.373ZM7.51244 10.0678L10.7986 13.354C11.3087 12.6038 11.9602 11.9523 12.7111 11.4409L9.42491 8.15464C8.71673 8.71699 8.07478 9.35895 7.51244 10.0672V10.0678Z" fill="#002D59"/>
<path d="M24.0115 27.4672L19.7617 23.2174L20.112 23.0079C21.0335 22.4557 21.8124 21.6769 22.3658 20.7547L22.576 20.405L26.8251 24.6542L26.6576 24.8752C25.9647 25.791 25.1489 26.6068 24.2331 27.2998L24.0121 27.4672H24.0115ZM20.7807 23.3359L24.0675 26.6228C24.7757 26.0604 25.4176 25.4184 25.98 24.7102L22.6938 21.424C22.183 22.1749 21.5315 22.8264 20.7807 23.3365V23.3359Z" fill="#002D59"/>
<path d="M9.48096 27.4665L9.25997 27.299C8.34417 26.6061 7.52836 25.7903 6.83546 24.8745L6.66797 24.6535L10.9171 20.4043L11.1272 20.7539C11.68 21.6755 12.4595 22.455 13.3811 23.0078L13.7307 23.2173L9.48159 27.4665H9.48096ZM7.51244 24.7089C8.07478 25.4171 8.71673 26.059 9.42491 26.6214L12.7111 23.3352C11.9609 22.8244 11.3087 22.1729 10.7986 21.4226L7.51244 24.7089Z" fill="#002D59"/>
<path d="M22.5753 14.373L22.3652 14.0234C21.8124 13.1018 21.0329 12.3223 20.1114 11.7695L19.7617 11.56L24.0108 7.31079L24.2318 7.47829C25.1476 8.1712 25.9634 8.98702 26.6563 9.90284L26.8238 10.1238L22.5747 14.373H22.5753ZM20.7807 11.4415C21.5309 11.9523 22.183 12.6038 22.6932 13.354L25.9793 10.0678C25.417 9.35959 24.775 8.71763 24.0669 8.15528L20.7807 11.4415Z" fill="#002D59"/>
<path d="M10.1324 26.8878C9.08417 27.2271 7.6027 26.2092 7.41797 26.2092L10.5088 30.0659L17.6254 30.825L26.8612 29.0854L27.0495 26.0789H26.1346C25.8196 26.0789 24.3497 26.9713 24.2223 26.9713C24.0948 26.9713 23.8548 26.9488 23.1124 26.5589C22.5184 26.2469 21.97 26.1089 21.77 26.0789C21.3657 26.184 20.335 26.493 19.4467 26.8878C18.3363 27.3813 17.9045 26.2092 17.2876 25.9625C16.6707 25.7158 15.5604 26.6719 14.7584 26.8878C13.9565 27.1037 13.4938 26.5176 12.5994 26.2092C11.7049 25.9008 11.1806 26.5485 10.1324 26.8878Z" fill="white"/>
<mask id="mask0_955_64" style="mask-type:alpha" maskUnits="userSpaceOnUse" x="0" y="2" width="33" height="32">
<circle cx="16.7456" cy="18.0884" r="15.7964" fill="#D9D9D9"/>
</mask>
<g mask="url(#mask0_955_64)">
<path d="M0.492188 27.1233V26.8546C0.804243 26.8546 1.1163 26.7693 1.4049 26.598C1.58047 26.4942 1.75676 26.3898 1.93305 26.286C2.51095 25.9441 3.18056 25.9441 3.75847 26.286C3.93475 26.3898 4.11033 26.4942 4.28662 26.598C4.86452 26.9399 5.53413 26.9399 6.11204 26.598C6.28832 26.4942 6.46461 26.3898 6.64018 26.286C7.21809 25.9441 7.8877 25.9441 8.46561 26.286C8.64189 26.3898 8.81818 26.4942 8.99375 26.598C9.57166 26.9399 10.2413 26.9399 10.8192 26.598C10.9955 26.4942 11.1717 26.3898 11.3473 26.286C11.9252 25.9441 12.5948 25.9441 13.1727 26.286C13.349 26.3898 13.5246 26.4942 13.7009 26.598C14.2788 26.9399 14.9484 26.9399 15.527 26.598C15.7033 26.4942 15.8789 26.3898 16.0552 26.286C16.6331 25.9441 17.3027 25.9441 17.8806 26.286C18.0569 26.3898 18.2325 26.4942 18.4087 26.598C18.9866 26.9399 19.6563 26.9399 20.2349 26.598C20.4112 26.4942 20.5867 26.3898 20.763 26.286C21.3409 25.9441 22.0105 25.9441 22.5892 26.286C22.7654 26.3898 22.941 26.4942 23.1173 26.598C23.6952 26.9399 24.3648 26.9399 24.9427 26.598C25.119 26.4942 25.2946 26.3898 25.4709 26.286C26.0488 25.9441 26.7184 25.9441 27.2963 26.286C27.4726 26.3898 27.6482 26.4942 27.8244 26.598C28.4023 26.9399 29.072 26.9399 29.6499 26.598C29.8261 26.4942 30.0017 26.3898 30.178 26.286C30.7559 25.9441 31.4255 25.9441 32.0034 26.286C32.1797 26.3898 32.3553 26.4942 32.5316 26.598C32.8209 26.7693 33.1322 26.8546 33.4443 26.8546V27.1233C33.1322 27.1233 32.8202 27.038 32.5316 26.8667C32.3553 26.7629 32.1797 26.6585 32.0034 26.5547C31.4255 26.2128 30.7559 26.2128 30.178 26.5547C30.0017 26.6585 29.8254 26.7629 29.6499 26.8667C29.072 27.2086 28.4023 27.2086 27.8244 26.8667C27.6482 26.7629 27.4726 26.6585 27.2963 26.5547C26.7184 26.2128 26.0488 26.2128 25.4709 26.5547C25.2946 26.6585 25.1183 26.7629 24.9427 26.8667C24.3641 27.2086 23.6952 27.2086 23.1173 26.8667C22.941 26.7629 22.7654 26.6585 22.5892 26.5547C22.0105 26.2128 21.3416 26.2128 20.763 26.5547C20.5867 26.6585 20.4112 26.7629 20.2349 26.8667C19.657 27.2086 18.9874 27.2086 18.4087 26.8667C18.2325 26.7629 18.0569 26.6585 17.8806 26.5547C17.3027 26.2128 16.6331 26.2128 16.0552 26.5547C15.8789 26.6585 15.7033 26.7629 15.527 26.8667C14.9491 27.2086 14.2795 27.2086 13.7009 26.8667C13.5253 26.7629 13.349 26.6585 13.1727 26.5547C12.5948 26.2128 11.9252 26.2128 11.3473 26.5547C11.171 26.6585 10.9955 26.7629 10.8192 26.8667C10.2413 27.2086 9.57166 27.2086 8.99375 26.8667C8.81747 26.7629 8.64118 26.6585 8.46561 26.5547C7.8877 26.2128 7.21809 26.2128 6.64018 26.5547C6.4639 26.6585 6.28832 26.7629 6.11204 26.8667C5.53413 27.2086 4.86452 27.2086 4.28662 26.8667C4.11033 26.7629 3.93475 26.6585 3.75847 26.5547C3.18056 26.2128 2.51095 26.2128 1.93305 26.5547C1.75676 26.6585 1.58118 26.7629 1.4049 26.8667C1.11559 27.038 0.803533 27.1233 0.492188 27.1233Z" stroke="#002D59" stroke-width="0.299261" stroke-miterlimit="10"/>
<path d="M0.492188 29.939C0.804243 29.939 1.1163 29.8537 1.4049 29.6824C1.58047 29.5786 1.75676 29.4741 1.93305 29.3703C2.51095 29.0284 3.18056 29.0284 3.75847 29.3703C3.93475 29.4741 4.11033 29.5786 4.28662 29.6824C4.86452 30.0243 5.53413 30.0243 6.11204 29.6824C6.28832 29.5786 6.46461 29.4741 6.64019 29.3703C7.21809 29.0284 7.8877 29.0284 8.46561 29.3703C8.64189 29.4741 8.81818 29.5786 8.99375 29.6824C9.57166 30.0243 10.2413 30.0243 10.8192 29.6824C10.9955 29.5786 11.1717 29.4741 11.3473 29.3703C11.9252 29.0284 12.5948 29.0284 13.1727 29.3703C13.349 29.4741 13.5246 29.5786 13.7009 29.6824C14.2795 30.0243 14.9484 30.0243 15.527 29.6824C15.7033 29.5786 15.8789 29.4741 16.0552 29.3703C16.6331 29.0284 17.3027 29.0284 17.8806 29.3703C18.0569 29.4741 18.2325 29.5786 18.4087 29.6824C18.9867 30.0243 19.6563 30.0243 20.2349 29.6824C20.4112 29.5786 20.5867 29.4741 20.763 29.3703C21.3409 29.0284 22.0105 29.0284 22.5892 29.3703C22.7654 29.4741 22.941 29.5786 23.1173 29.6824C23.6952 30.0243 24.3648 30.0243 24.9427 29.6824C25.119 29.5786 25.2946 29.4741 25.4709 29.3703C26.0488 29.0284 26.7184 29.0284 27.2963 29.3703C27.4726 29.4741 27.6482 29.5786 27.8244 29.6824C28.4023 30.0243 29.072 30.0243 29.6499 29.6824C29.8261 29.5786 30.0017 29.4741 30.178 29.3703C30.7559 29.0284 31.4255 29.0284 32.0034 29.3703C32.1797 29.4741 32.3553 29.5786 32.5316 29.6824C32.8209 29.853 33.1322 29.939 33.4443 29.939V29.6703C33.1322 29.6703 32.8202 29.585 32.5316 29.4137C32.3553 29.3099 32.1797 29.2054 32.0034 29.1016C31.4255 28.7597 30.7559 28.7597 30.178 29.1016C30.0017 29.2054 29.8254 29.3099 29.6499 29.4137C29.072 29.7556 28.4023 29.7556 27.8244 29.4137C27.6482 29.3099 27.4726 29.2054 27.2963 29.1016C26.7184 28.7597 26.0488 28.7597 25.4709 29.1016C25.2946 29.2054 25.1183 29.3099 24.9427 29.4137C24.3641 29.7556 23.6952 29.7556 23.1173 29.4137C22.941 29.3099 22.7654 29.2054 22.5892 29.1016C22.0105 28.7597 21.3416 28.7597 20.763 29.1016C20.5867 29.2054 20.4112 29.3099 20.2349 29.4137C19.657 29.7556 18.9874 29.7556 18.4087 29.4137C18.2325 29.3099 18.0569 29.2054 17.8806 29.1016C17.3027 28.7597 16.6331 28.7597 16.0552 29.1016C15.8789 29.2054 15.7033 29.3099 15.527 29.4137C14.9491 29.7556 14.2795 29.7556 13.7009 29.4137C13.5253 29.3099 13.349 29.2054 13.1727 29.1016C12.5948 28.7597 11.9252 28.7597 11.3473 29.1016C11.171 29.2054 10.9955 29.3099 10.8192 29.4137C10.2413 29.7556 9.57166 29.7556 8.99375 29.4137C8.81747 29.3099 8.64118 29.2054 8.46561 29.1016C7.8877 28.7597 7.21809 28.7597 6.64019 29.1016C6.4639 29.2054 6.28832 29.3099 6.11204 29.4137C5.53413 29.7556 4.86452 29.7556 4.28662 29.4137C4.11033 29.3099 3.93475 29.2054 3.75847 29.1016C3.18056 28.7597 2.51095 28.7597 1.93305 29.1016C1.75676 29.2054 1.58118 29.3099 1.4049 29.4137C1.11559 29.585 0.803533 29.6703 0.492188 29.6703V29.939Z" stroke="#002D59" stroke-width="0.299261" stroke-miterlimit="10"/>
<path d="M0.492188 32.7552V32.4865C0.804243 32.4865 1.1163 32.4012 1.4049 32.2299C1.58047 32.1261 1.75676 32.0216 1.93305 31.9178C2.51095 31.5759 3.18056 31.5759 3.75847 31.9178C3.93475 32.0216 4.11033 32.1261 4.28662 32.2299C4.86452 32.5718 5.53413 32.5718 6.11204 32.2299C6.28832 32.1261 6.46461 32.0216 6.64019 31.9178C7.21809 31.5759 7.8877 31.5759 8.46561 31.9178C8.64189 32.0216 8.81818 32.1261 8.99375 32.2299C9.57166 32.5718 10.2413 32.5718 10.8192 32.2299C10.9955 32.1261 11.1717 32.0216 11.3473 31.9178C11.9252 31.5759 12.5948 31.5759 13.1727 31.9178C13.349 32.0216 13.5246 32.1261 13.7009 32.2299C14.2788 32.5718 14.9484 32.5718 15.527 32.2299C15.7033 32.1261 15.8789 32.0216 16.0552 31.9178C16.6331 31.5759 17.3027 31.5759 17.8806 31.9178C18.0569 32.0216 18.2325 32.1261 18.4087 32.2299C18.9867 32.5718 19.6563 32.5718 20.2349 32.2299C20.4112 32.1261 20.5867 32.0216 20.763 31.9178C21.3409 31.5759 22.0105 31.5759 22.5892 31.9178C22.7654 32.0216 22.941 32.1261 23.1173 32.2299C23.6952 32.5718 24.3648 32.5718 24.9427 32.2299C25.119 32.1261 25.2946 32.0216 25.4709 31.9178C26.0488 31.5759 26.7184 31.5759 27.2963 31.9178C27.4726 32.0216 27.6482 32.1261 27.8244 32.2299C28.4023 32.5718 29.072 32.5718 29.6499 32.2299C29.8261 32.1261 30.0017 32.0216 30.178 31.9178C30.7559 31.5759 31.4255 31.5759 32.0034 31.9178C32.1797 32.0216 32.3553 32.1261 32.5316 32.2299C32.8209 32.4012 33.1322 32.4865 33.4443 32.4865V32.7552C33.1322 32.7552 32.8202 32.6699 32.5316 32.4986C32.3553 32.3948 32.1797 32.2903 32.0034 32.1865C31.4255 31.8446 30.7559 31.8446 30.178 32.1865C30.0017 32.291 29.8254 32.3948 29.6499 32.4986C29.072 32.8405 28.4023 32.8405 27.8244 32.4986C27.6482 32.3948 27.4726 32.2903 27.2963 32.1865C26.7184 31.8446 26.0488 31.8446 25.4709 32.1865C25.2946 32.291 25.1183 32.3948 24.9427 32.4986C24.3641 32.8405 23.6952 32.8405 23.1173 32.4986C22.941 32.3948 22.7654 32.2903 22.5892 32.1865C22.0105 31.8446 21.3416 31.8446 20.763 32.1865C20.5867 32.291 20.4112 32.3948 20.2349 32.4986C19.657 32.8405 18.9874 32.8405 18.4087 32.4986C18.2325 32.3948 18.0569 32.2903 17.8806 32.1865C17.3027 31.8446 16.6331 31.8446 16.0552 32.1865C15.8789 32.291 15.7033 32.3948 15.527 32.4986C14.9491 32.8405 14.2795 32.8405 13.7009 32.4986C13.5253 32.3948 13.349 32.2903 13.1727 32.1865C12.5948 31.8446 11.9252 31.8446 11.3473 32.1865C11.171 32.291 10.9955 32.3948 10.8192 32.4986C10.2413 32.8405 9.57166 32.8405 8.99375 32.4986C8.81747 32.3948 8.64118 32.2903 8.46561 32.1865C7.8877 31.8446 7.21809 31.8446 6.64019 32.1865C6.4639 32.291 6.28832 32.3948 6.11204 32.4986C5.53413 32.8405 4.86452 32.8405 4.28662 32.4986C4.11033 32.3948 3.93475 32.2903 3.75847 32.1865C3.18056 31.8446 2.51095 31.8446 1.93305 32.1865C1.75676 32.291 1.58118 32.3948 1.4049 32.4986C1.11559 32.6692 0.803533 32.7552 0.492188 32.7552Z" stroke="#002D59" stroke-width="0.299261" stroke-miterlimit="10"/>
</g>
</svg>
