<svg width="57" height="57" viewBox="0 0 57 57" fill="none" xmlns="http://www.w3.org/2000/svg">
<g filter="url(#filter0_d_909_13590)">
<path fill-rule="evenodd" clip-rule="evenodd" d="M52.4191 24.7267C52.4191 36.9663 43.0905 47.0272 31.1555 48.1852C30.3974 48.2585 29.6282 48.2966 28.8507 48.2966C28.0731 48.2966 27.303 48.2585 26.544 48.1843C14.6099 47.0263 5.28125 36.9654 5.28125 24.7267C5.28125 22.4024 5.61806 20.1569 6.24529 18.0358C6.45128 17.338 6.68881 16.6533 6.95603 15.9843C10.429 7.29659 18.9226 1.15778 28.8507 1.15778C38.7787 1.15778 47.367 7.36525 50.8019 16.13C51.0775 16.8333 51.3206 17.5542 51.5284 18.2882C52.1092 20.3351 52.4191 22.4942 52.4191 24.7267Z" fill="white"/>
<path d="M28.8536 48.7605C28.0696 48.7605 27.2791 48.7215 26.5015 48.6463C20.5892 48.0729 15.1186 45.3301 11.0973 40.9236C7.04995 36.4884 4.82031 30.7365 4.82031 24.7267C4.82031 22.406 5.15063 20.1105 5.80384 17.904C6.01261 17.1979 6.25571 16.4946 6.5285 15.8116C8.29142 11.4005 11.2977 7.638 15.2225 4.93046C19.2401 2.1589 23.9536 0.693787 28.8536 0.693787C33.7537 0.693787 38.5173 2.17467 42.5497 4.97593C46.4894 7.71315 49.4938 11.5119 51.2373 15.9601C51.5184 16.6783 51.768 17.4187 51.9786 18.161C52.5817 20.2849 52.887 22.4942 52.887 24.7257C52.887 30.7356 50.6573 36.4875 46.6091 40.9236C42.5878 45.3301 37.1162 48.0729 31.2039 48.6463C30.4245 48.7215 29.634 48.7595 28.8546 48.7595L28.8536 48.7605ZM28.8536 1.62166C24.1429 1.62166 19.6113 3.03017 15.7495 5.69503C11.9759 8.29864 9.08567 11.9155 7.39047 16.1568C7.12882 16.8128 6.89407 17.4892 6.69365 18.1675C6.06642 20.2886 5.74817 22.4951 5.74817 24.7267C5.74817 30.5036 7.89152 36.0337 11.7829 40.2982C15.6493 44.5349 20.9084 47.171 26.5915 47.7231C28.0826 47.8688 29.6117 47.8688 31.1139 47.7231C36.797 47.1719 42.057 44.5349 45.9234 40.2982C49.8148 36.0337 51.9582 30.5036 51.9582 24.7257C51.9582 22.5796 51.6641 20.4557 51.0851 18.4134C50.8828 17.6999 50.6434 16.9882 50.3725 16.2978C48.6959 12.0203 45.8074 8.36823 42.0199 5.73678C38.1443 3.04409 33.5913 1.62073 28.8536 1.62073V1.62166Z" fill="#002D59"/>
<path d="M28.8489 42.3573C38.5858 42.3573 46.4791 34.4639 46.4791 24.7268C46.4791 14.9897 38.5858 7.09625 28.8489 7.09625C19.1121 7.09625 11.2188 14.9897 11.2188 24.7268C11.2188 34.4639 19.1121 42.3573 28.8489 42.3573Z" fill="white"/>
<path d="M28.8519 42.8212C18.8747 42.8212 10.7578 34.7042 10.7578 24.7267C10.7578 14.7493 18.8756 6.63226 28.8519 6.63226C38.8282 6.63226 46.9461 14.7493 46.9461 24.7267C46.9461 34.7042 38.8292 42.8212 28.8519 42.8212ZM28.8519 7.56014C19.3859 7.56014 11.6857 15.2615 11.6857 24.7267C11.6857 34.192 19.3869 41.8933 28.8519 41.8933C38.317 41.8933 46.0182 34.192 46.0182 24.7267C46.0182 15.2615 38.317 7.56014 28.8519 7.56014Z" fill="#002D59"/>
<path d="M38.8599 24.7277C38.8599 26.6076 38.3412 28.3669 37.4402 29.8691C36.5931 31.2804 35.4082 32.4653 33.997 33.3115C32.4938 34.2143 30.7355 34.7321 28.8557 34.7321C26.9759 34.7321 25.2167 34.2125 23.7145 33.3115C22.3032 32.4644 21.1192 31.2795 20.2721 29.8682C19.3702 28.3659 18.8516 26.6067 18.8516 24.7268C18.8516 22.8469 19.3693 21.0886 20.2721 19.5864C21.1183 18.1751 22.3032 16.9902 23.7135 16.143C25.2157 15.2412 26.9749 14.7225 28.8557 14.7225C30.7365 14.7225 32.4948 15.2412 33.997 16.143C35.4082 16.9902 36.5931 18.1742 37.4402 19.5855C38.3412 21.0877 38.8599 22.8469 38.8599 24.7277Z" fill="white"/>
<path d="M28.8548 35.196C26.9573 35.196 25.097 34.6819 23.4751 33.7095C22.0035 32.8262 20.7583 31.58 19.8731 30.1066C18.9008 28.4865 18.3867 26.6261 18.3867 24.7268C18.3867 22.8274 18.9008 20.9661 19.8731 19.3469C20.7555 17.8753 22.0007 16.6292 23.4732 15.7449C25.0933 14.7725 26.9536 14.2585 28.8539 14.2585C30.7541 14.2585 32.6135 14.7725 34.2336 15.7449C35.707 16.6292 36.9522 17.8744 37.8355 19.346C38.8079 20.967 39.321 22.8274 39.321 24.7268C39.321 26.6261 38.807 28.4865 37.8355 30.1066C36.9513 31.58 35.7052 32.8252 34.2326 33.7086C32.6135 34.681 30.7532 35.195 28.8529 35.195L28.8548 35.196ZM28.8548 15.1864C27.1225 15.1864 25.4273 15.6549 23.9511 16.5411C22.6085 17.3474 21.4737 18.4831 20.6683 19.8248C19.7822 21.2992 19.3136 22.9944 19.3136 24.7268C19.3136 26.4591 19.7822 28.1534 20.6683 29.6296C21.4746 30.9732 22.6103 32.1089 23.952 32.9143C25.4291 33.8004 27.1243 34.269 28.8548 34.269C30.5852 34.269 32.2823 33.8004 33.7576 32.9143C35.1002 32.1089 36.2359 30.9741 37.0422 29.6306C37.9274 28.1543 38.3959 26.4591 38.3959 24.7277C38.3959 22.9963 37.9283 21.3001 37.0422 19.8239C36.2368 18.4822 35.1011 17.3464 33.7576 16.5411C32.2814 15.6549 30.5862 15.1864 28.8548 15.1864Z" fill="#002D59"/>
<path d="M28.8557 35.196C26.9564 35.196 25.096 34.682 23.4751 33.7096C22.0026 32.8262 20.7574 31.5801 19.8731 30.1076C18.9008 28.4866 18.3867 26.6262 18.3867 24.7268C18.3867 22.8265 18.9008 20.9661 19.8731 19.347C20.7555 17.8754 22.0007 16.6302 23.4732 15.745C25.0942 14.7726 26.9545 14.2585 28.8539 14.2585C30.7532 14.2585 32.6135 14.7726 34.2345 15.745C35.707 16.6283 36.9522 17.8745 37.8364 19.347C38.8088 20.968 39.3229 22.8284 39.3229 24.7277C39.3229 26.6271 38.8088 28.4875 37.8364 30.1085C36.9522 31.582 35.7061 32.8272 34.2336 33.7096C32.6154 34.682 30.755 35.196 28.8548 35.196H28.8557ZM28.8557 15.1864C27.1243 15.1864 25.4291 15.655 23.9529 16.5411C22.6103 17.3484 21.4756 18.4832 20.6702 19.8249C19.7841 21.2993 19.3155 22.9945 19.3155 24.7268C19.3155 26.4582 19.7841 28.1535 20.6702 29.6297C21.4756 30.9723 22.6112 32.1071 23.9539 32.9135C25.431 33.7996 27.1262 34.2682 28.8566 34.2682C30.5871 34.2682 32.2841 33.7996 33.7585 32.9144C35.1011 32.1099 36.2368 30.9742 37.0431 29.6316C37.9292 28.1553 38.3978 26.4592 38.3978 24.7287C38.3978 22.9982 37.9292 21.302 37.0431 19.8258C36.2377 18.4832 35.102 17.3474 33.7594 16.542C32.2832 15.6559 30.5871 15.1873 28.8566 15.1873L28.8557 15.1864Z" fill="#002D59"/>
<path d="M20.3625 20.3338L14.1719 14.143L14.4159 13.8211C15.4254 12.4868 16.614 11.2982 17.9483 10.2886L18.2702 10.0446L24.4599 16.2345L23.9506 16.5407C22.6079 17.3479 21.4722 18.4836 20.6678 19.8253L20.3625 20.3347V20.3338ZM15.4022 14.0614L20.19 18.8492C20.9332 17.7562 21.8824 16.807 22.9763 16.0619L18.1886 11.274C17.1568 12.0934 16.2215 13.0287 15.4022 14.0605V14.0614Z" fill="#002D59"/>
<path d="M39.4377 39.4111L33.2461 33.2194L33.7564 32.9141C35.099 32.1096 36.2338 30.9749 37.0401 29.6313L37.3463 29.1219L43.5369 35.3127L43.2929 35.6346C42.2834 36.9689 41.0948 38.1575 39.7606 39.1671L39.4386 39.4111H39.4377ZM34.7307 33.392L39.5193 38.1807C40.5511 37.3614 41.4864 36.4261 42.3057 35.3943L37.5179 30.6065C36.7738 31.7004 35.8246 32.6497 34.7307 33.3929V33.392Z" fill="#002D59"/>
<path d="M18.2702 39.4101L17.9483 39.1661C16.614 38.1566 15.4254 36.9679 14.4159 35.6337L14.1719 35.3117L20.3625 29.1209L20.6687 29.6303C21.4741 30.9729 22.6098 32.1087 23.9524 32.9141L24.4618 33.2193L18.2711 39.4101H18.2702ZM15.4022 35.3924C16.2215 36.4242 17.1568 37.3595 18.1886 38.1788L22.9763 33.391C21.8833 32.6468 20.9332 31.6976 20.19 30.6046L15.4022 35.3924Z" fill="#002D59"/>
<path d="M37.3454 20.3338L37.0392 19.8244C36.2338 18.4818 35.0981 17.3461 33.7555 16.5407L33.2461 16.2354L39.4368 10.0446L39.7587 10.2886C41.093 11.2982 42.2816 12.4868 43.2911 13.8211L43.5351 14.143L37.3444 20.3338H37.3454ZM34.7307 16.0628C35.8237 16.807 36.7738 17.7562 37.517 18.8492L42.3048 14.0614C41.4855 13.0296 40.5502 12.0943 39.5184 11.275L34.7307 16.0628Z" fill="#002D59"/>
<path d="M19.2125 38.5665C17.6854 39.0609 15.527 37.5779 15.2578 37.5779L19.7609 43.1968L30.1294 44.3028L43.5854 41.7683L43.8597 37.388H42.5267C42.0678 37.388 39.9263 38.6882 39.7406 38.6882C39.5548 38.6882 39.2052 38.6555 38.1235 38.0873C37.2582 37.6328 36.4591 37.4318 36.1678 37.388C35.5787 37.5412 34.077 37.9913 32.7828 38.5665C31.1651 39.2855 30.536 37.5779 29.6372 37.2184C28.7385 36.859 27.1208 38.252 25.9524 38.5665C24.784 38.8811 24.11 38.0272 22.8068 37.5779C21.5036 37.1285 20.7397 38.0722 19.2125 38.5665Z" fill="white"/>
<mask id="mask0_909_13590" style="mask-type:alpha" maskUnits="userSpaceOnUse" x="5" y="2" width="47" height="47">
<circle cx="28.8503" cy="25.7462" r="23.0143" fill="#D9D9D9"/>
</mask>
<g mask="url(#mask0_909_13590)">
<path d="M5.16406 38.9096V38.5181C5.61871 38.5181 6.07335 38.3938 6.49382 38.1442C6.74963 37.993 7.00646 37.8408 7.2633 37.6896C8.10528 37.1914 9.08085 37.1914 9.92282 37.6896C10.1797 37.8408 10.4355 37.993 10.6923 38.1442C11.5343 38.6424 12.5098 38.6424 13.3518 38.1442C13.6087 37.993 13.8655 37.8408 14.1213 37.6896C14.9633 37.1914 15.9388 37.1914 16.7808 37.6896C17.0377 37.8408 17.2945 37.993 17.5503 38.1442C18.3923 38.6424 19.3678 38.6424 20.2098 38.1442C20.4667 37.993 20.7235 37.8408 20.9793 37.6896C21.8213 37.1914 22.7968 37.1914 23.6388 37.6896C23.8957 37.8408 24.1515 37.993 24.4083 38.1442C25.2503 38.6424 26.2258 38.6424 27.0689 38.1442C27.3257 37.993 27.5815 37.8408 27.8383 37.6896C28.6803 37.1914 29.6559 37.1914 30.4979 37.6896C30.7547 37.8408 31.0105 37.993 31.2673 38.1442C32.1093 38.6424 33.0849 38.6424 33.9279 38.1442C34.1847 37.993 34.4405 37.8408 34.6974 37.6896C35.5393 37.1914 36.5149 37.1914 37.3579 37.6896C37.6148 37.8408 37.8706 37.993 38.1274 38.1442C38.9694 38.6424 39.9449 38.6424 40.7869 38.1442C41.0438 37.993 41.2996 37.8408 41.5564 37.6896C42.3984 37.1914 43.3739 37.1914 44.2159 37.6896C44.4728 37.8408 44.7286 37.993 44.9854 38.1442C45.8274 38.6424 46.8029 38.6424 47.6449 38.1442C47.9018 37.993 48.1576 37.8408 48.4144 37.6896C49.2564 37.1914 50.2319 37.1914 51.0739 37.6896C51.3308 37.8408 51.5866 37.993 51.8434 38.1442C52.2649 38.3938 52.7185 38.5181 53.1732 38.5181V38.9096C52.7185 38.9096 52.2639 38.7853 51.8434 38.5357C51.5866 38.3845 51.3308 38.2323 51.0739 38.0811C50.2319 37.5829 49.2564 37.5829 48.4144 38.0811C48.1576 38.2323 47.9007 38.3845 47.6449 38.5357C46.8029 39.0338 45.8274 39.0338 44.9854 38.5357C44.7286 38.3845 44.4728 38.2323 44.2159 38.0811C43.3739 37.5829 42.3984 37.5829 41.5564 38.0811C41.2996 38.2323 41.0427 38.3845 40.7869 38.5357C39.9439 39.0338 38.9694 39.0338 38.1274 38.5357C37.8706 38.3845 37.6148 38.2323 37.3579 38.0811C36.5149 37.5829 35.5404 37.5829 34.6974 38.0811C34.4405 38.2323 34.1847 38.3845 33.9279 38.5357C33.0859 39.0338 32.1103 39.0338 31.2673 38.5357C31.0105 38.3845 30.7547 38.2323 30.4979 38.0811C29.6559 37.5829 28.6803 37.5829 27.8383 38.0811C27.5815 38.2323 27.3257 38.3845 27.0689 38.5357C26.2269 39.0338 25.2513 39.0338 24.4083 38.5357C24.1525 38.3845 23.8957 38.2323 23.6388 38.0811C22.7968 37.5829 21.8213 37.5829 20.9793 38.0811C20.7225 38.2323 20.4667 38.3845 20.2098 38.5357C19.3678 39.0338 18.3923 39.0338 17.5503 38.5357C17.2935 38.3845 17.0366 38.2323 16.7808 38.0811C15.9388 37.5829 14.9633 37.5829 14.1213 38.0811C13.8645 38.2323 13.6087 38.3845 13.3518 38.5357C12.5098 39.0338 11.5343 39.0338 10.6923 38.5357C10.4355 38.3845 10.1797 38.2323 9.92282 38.0811C9.08085 37.5829 8.10528 37.5829 7.2633 38.0811C7.00646 38.2323 6.75066 38.3845 6.49382 38.5357C6.07232 38.7853 5.61767 38.9096 5.16406 38.9096Z" stroke="#002D59" stroke-width="0.436004" stroke-miterlimit="10"/>
<path d="M5.16406 43.0119C5.61871 43.0119 6.07335 42.8876 6.49382 42.6381C6.74963 42.4869 7.00646 42.3346 7.2633 42.1834C8.10528 41.6853 9.08085 41.6853 9.92282 42.1834C10.1797 42.3346 10.4355 42.4869 10.6923 42.6381C11.5343 43.1362 12.5098 43.1362 13.3518 42.6381C13.6087 42.4869 13.8655 42.3346 14.1213 42.1834C14.9633 41.6853 15.9388 41.6853 16.7808 42.1834C17.0377 42.3346 17.2945 42.4869 17.5503 42.6381C18.3923 43.1362 19.3678 43.1362 20.2098 42.6381C20.4667 42.4869 20.7235 42.3346 20.9793 42.1834C21.8213 41.6853 22.7968 41.6853 23.6388 42.1834C23.8957 42.3346 24.1515 42.4869 24.4083 42.6381C25.2513 43.1362 26.2258 43.1362 27.0689 42.6381C27.3257 42.4869 27.5815 42.3346 27.8383 42.1834C28.6803 41.6853 29.6559 41.6853 30.4979 42.1834C30.7547 42.3346 31.0105 42.4869 31.2673 42.6381C32.1093 43.1362 33.0849 43.1362 33.9279 42.6381C34.1847 42.4869 34.4405 42.3346 34.6974 42.1834C35.5393 41.6853 36.5149 41.6853 37.3579 42.1834C37.6148 42.3346 37.8706 42.4869 38.1274 42.6381C38.9694 43.1362 39.9449 43.1362 40.7869 42.6381C41.0438 42.4869 41.2996 42.3346 41.5564 42.1834C42.3984 41.6853 43.374 41.6853 44.2159 42.1834C44.4728 42.3346 44.7286 42.4869 44.9854 42.6381C45.8274 43.1362 46.8029 43.1362 47.6449 42.6381C47.9018 42.4869 48.1576 42.3346 48.4144 42.1834C49.2564 41.6853 50.2319 41.6853 51.0739 42.1834C51.3308 42.3346 51.5866 42.4869 51.8434 42.6381C52.2649 42.8866 52.7185 43.0119 53.1732 43.0119V42.6205C52.7185 42.6205 52.2639 42.4962 51.8434 42.2466C51.5866 42.0954 51.3308 41.9431 51.0739 41.7919C50.2319 41.2938 49.2564 41.2938 48.4144 41.7919C48.1576 41.9431 47.9007 42.0954 47.6449 42.2466C46.8029 42.7447 45.8274 42.7447 44.9854 42.2466C44.7286 42.0954 44.4728 41.9431 44.2159 41.7919C43.374 41.2938 42.3984 41.2938 41.5564 41.7919C41.2996 41.9431 41.0427 42.0954 40.7869 42.2466C39.9439 42.7447 38.9694 42.7447 38.1274 42.2466C37.8706 42.0954 37.6148 41.9431 37.3579 41.7919C36.5149 41.2938 35.5404 41.2938 34.6974 41.7919C34.4405 41.9431 34.1847 42.0954 33.9279 42.2466C33.0859 42.7447 32.1103 42.7447 31.2673 42.2466C31.0105 42.0954 30.7547 41.9431 30.4979 41.7919C29.6559 41.2938 28.6803 41.2938 27.8383 41.7919C27.5815 41.9431 27.3257 42.0954 27.0689 42.2466C26.2269 42.7447 25.2513 42.7447 24.4083 42.2466C24.1525 42.0954 23.8957 41.9431 23.6388 41.7919C22.7968 41.2938 21.8213 41.2938 20.9793 41.7919C20.7225 41.9431 20.4667 42.0954 20.2098 42.2466C19.3678 42.7447 18.3923 42.7447 17.5503 42.2466C17.2935 42.0954 17.0366 41.9431 16.7808 41.7919C15.9388 41.2938 14.9633 41.2938 14.1213 41.7919C13.8645 41.9431 13.6087 42.0954 13.3518 42.2466C12.5098 42.7447 11.5343 42.7447 10.6923 42.2466C10.4355 42.0954 10.1797 41.9431 9.92282 41.7919C9.08085 41.2938 8.10528 41.2938 7.2633 41.7919C7.00646 41.9431 6.75066 42.0954 6.49382 42.2466C6.07232 42.4962 5.61767 42.6205 5.16406 42.6205V43.0119Z" stroke="#002D59" stroke-width="0.436004" stroke-miterlimit="10"/>
<path d="M5.16406 47.1148V46.7233C5.61871 46.7233 6.07335 46.599 6.49382 46.3494C6.74963 46.1982 7.00646 46.046 7.2633 45.8948C8.10528 45.3966 9.08085 45.3966 9.92282 45.8948C10.1797 46.046 10.4355 46.1982 10.6923 46.3494C11.5343 46.8476 12.5098 46.8476 13.3518 46.3494C13.6087 46.1982 13.8655 46.046 14.1213 45.8948C14.9633 45.3966 15.9388 45.3966 16.7808 45.8948C17.0377 46.046 17.2945 46.1982 17.5503 46.3494C18.3923 46.8476 19.3678 46.8476 20.2098 46.3494C20.4667 46.1982 20.7235 46.046 20.9793 45.8948C21.8213 45.3966 22.7968 45.3966 23.6388 45.8948C23.8957 46.046 24.1515 46.1982 24.4083 46.3494C25.2503 46.8476 26.2258 46.8476 27.0689 46.3494C27.3257 46.1982 27.5815 46.046 27.8383 45.8948C28.6803 45.3966 29.6559 45.3966 30.4979 45.8948C30.7547 46.046 31.0105 46.1982 31.2673 46.3494C32.1093 46.8476 33.0849 46.8476 33.9279 46.3494C34.1847 46.1982 34.4405 46.046 34.6974 45.8948C35.5393 45.3966 36.5149 45.3966 37.3579 45.8948C37.6148 46.046 37.8706 46.1982 38.1274 46.3494C38.9694 46.8476 39.9449 46.8476 40.7869 46.3494C41.0438 46.1982 41.2996 46.046 41.5564 45.8948C42.3984 45.3966 43.374 45.3966 44.2159 45.8948C44.4728 46.046 44.7286 46.1982 44.9854 46.3494C45.8274 46.8476 46.8029 46.8476 47.6449 46.3494C47.9018 46.1982 48.1576 46.046 48.4144 45.8948C49.2564 45.3966 50.2319 45.3966 51.0739 45.8948C51.3308 46.046 51.5866 46.1982 51.8434 46.3494C52.2649 46.599 52.7185 46.7233 53.1732 46.7233V47.1148C52.7185 47.1148 52.2639 46.9905 51.8434 46.7409C51.5866 46.5897 51.3308 46.4375 51.0739 46.2863C50.2319 45.7881 49.2564 45.7881 48.4144 46.2863C48.1576 46.4385 47.9007 46.5897 47.6449 46.7409C46.8029 47.239 45.8274 47.239 44.9854 46.7409C44.7286 46.5897 44.4728 46.4375 44.2159 46.2863C43.374 45.7881 42.3984 45.7881 41.5564 46.2863C41.2996 46.4385 41.0427 46.5897 40.7869 46.7409C39.9439 47.239 38.9694 47.239 38.1274 46.7409C37.8706 46.5897 37.6148 46.4375 37.3579 46.2863C36.5149 45.7881 35.5404 45.7881 34.6974 46.2863C34.4405 46.4385 34.1847 46.5897 33.9279 46.7409C33.0859 47.239 32.1103 47.239 31.2673 46.7409C31.0105 46.5897 30.7547 46.4375 30.4979 46.2863C29.6559 45.7881 28.6803 45.7881 27.8383 46.2863C27.5815 46.4385 27.3257 46.5897 27.0689 46.7409C26.2269 47.239 25.2513 47.239 24.4083 46.7409C24.1525 46.5897 23.8957 46.4375 23.6388 46.2863C22.7968 45.7881 21.8213 45.7881 20.9793 46.2863C20.7225 46.4385 20.4667 46.5897 20.2098 46.7409C19.3678 47.239 18.3923 47.239 17.5503 46.7409C17.2935 46.5897 17.0366 46.4375 16.7808 46.2863C15.9388 45.7881 14.9633 45.7881 14.1213 46.2863C13.8645 46.4385 13.6087 46.5897 13.3518 46.7409C12.5098 47.239 11.5343 47.239 10.6923 46.7409C10.4355 46.5897 10.1797 46.4375 9.92282 46.2863C9.08085 45.7881 8.10528 45.7881 7.2633 46.2863C7.00646 46.4385 6.75066 46.5897 6.49382 46.7409C6.07232 46.9895 5.61767 47.1148 5.16406 47.1148Z" stroke="#002D59" stroke-width="0.436004" stroke-miterlimit="10"/>
</g>
</g>
<defs>
<filter id="filter0_d_909_13590" x="0.814757" y="0.693787" width="56.0775" height="56.0778" filterUnits="userSpaceOnUse" color-interpolation-filters="sRGB">
<feFlood flood-opacity="0" result="BackgroundImageFix"/>
<feColorMatrix in="SourceAlpha" type="matrix" values="0 0 0 0 0 0 0 0 0 0 0 0 0 0 0 0 0 0 127 0" result="hardAlpha"/>
<feOffset dy="4.00556"/>
<feGaussianBlur stdDeviation="2.00278"/>
<feComposite in2="hardAlpha" operator="out"/>
<feColorMatrix type="matrix" values="0 0 0 0 0 0 0 0 0 0 0 0 0 0 0 0 0 0 0.25 0"/>
<feBlend mode="normal" in2="BackgroundImageFix" result="effect1_dropShadow_909_13590"/>
<feBlend mode="normal" in="SourceGraphic" in2="effect1_dropShadow_909_13590" result="shape"/>
</filter>
</defs>
</svg>
