<svg width="57" height="57" viewBox="0 0 57 57" fill="none" xmlns="http://www.w3.org/2000/svg">
<g filter="url(#filter0_d_909_13655)">
<path fill-rule="evenodd" clip-rule="evenodd" d="M52.427 24.4141C52.427 36.6537 43.0983 46.7147 31.1633 47.8727C30.4052 47.946 29.636 47.984 28.8585 47.984C28.0809 47.984 27.3108 47.946 26.5518 47.8717C14.6177 46.7137 5.28906 36.6528 5.28906 24.4141C5.28906 22.0898 5.62587 19.8444 6.25311 17.7232C6.45909 17.0255 6.69662 16.3407 6.96384 15.6717C10.4368 6.98403 18.9304 0.845215 28.8585 0.845215C38.7865 0.845215 47.3748 7.05269 50.8097 15.8174C51.0853 16.5207 51.3284 17.2417 51.5362 17.9756C52.117 20.0225 52.427 22.1817 52.427 24.4141Z" fill="white"/>
<path d="M28.8576 48.4479C28.0735 48.4479 27.283 48.4089 26.5054 48.3338C20.5931 47.7603 15.1225 45.0175 11.1012 40.6111C7.05386 36.1758 4.82422 30.423 4.82422 24.4141C4.82422 22.0926 5.15454 19.7979 5.80775 17.5914C6.01651 16.8853 6.25961 16.182 6.5324 15.4991C8.29533 11.088 11.3016 7.32544 15.2264 4.6179C19.244 1.84634 23.9575 0.381226 28.8576 0.381226C33.7576 0.381226 38.5212 1.86211 42.5536 4.66336C46.4933 7.40059 49.4977 11.1993 51.2412 15.6475C51.5223 16.3657 51.7719 17.1062 51.9825 17.8485C52.5856 19.9724 52.8909 22.1816 52.8909 24.4132C52.8909 30.423 50.6612 36.1749 46.613 40.6111C42.5917 45.0175 37.1201 47.7603 31.2078 48.3338C30.4284 48.4089 29.6379 48.447 28.8585 48.447L28.8576 48.4479ZM28.8576 1.3091C24.1468 1.3091 19.6152 2.71761 15.7534 5.38247C11.9798 7.98608 9.08957 11.6029 7.39438 15.8442C7.13273 16.5003 6.89798 17.1767 6.69756 17.855C6.07033 19.9761 5.75208 22.1826 5.75208 24.4141C5.75208 30.191 7.89542 35.7212 11.7869 39.9857C15.6532 44.2224 20.9123 46.8584 26.5954 47.4105C28.0865 47.5562 29.6156 47.5571 31.1178 47.4105C36.8009 46.8594 42.0609 44.2224 45.9273 39.9857C49.8188 35.7212 51.9621 30.191 51.9621 24.4132C51.9621 22.267 51.668 20.1431 51.089 18.1008C50.8867 17.3873 50.6473 16.6756 50.3773 15.9853C48.7007 11.7078 45.8123 8.05567 42.0248 5.42422C38.1491 2.73153 33.5961 1.30817 28.8585 1.30817L28.8576 1.3091Z" fill="#002D59"/>
<path d="M39.9706 34.3766L29.9395 42.489C29.5424 42.81 28.9783 42.8193 28.57 42.5122L17.7716 34.3757C17.4924 34.165 17.3281 33.8366 17.3281 33.4868V12.1002C17.3281 11.4859 17.8264 10.9877 18.4406 10.9877H39.2701C39.8843 10.9877 40.3826 11.4859 40.3826 12.1002V33.5118C40.3826 33.8477 40.2304 34.166 39.9697 34.3766H39.9706Z" fill="white"/>
<path d="M29.242 43.2006C28.9089 43.2006 28.5749 43.0948 28.2937 42.8824L17.4953 34.7458C17.1019 34.4498 16.8672 33.9785 16.8672 33.4867V12.1001C16.8672 11.2307 17.5742 10.5237 18.4436 10.5237H39.2731C40.1425 10.5237 40.8495 11.2307 40.8495 12.1001V33.5108C40.8495 33.9887 40.6361 34.4359 40.264 34.7366L30.233 42.849C29.9435 43.0828 29.5927 43.2006 29.242 43.2006ZM18.4436 11.4516C18.0864 11.4516 17.795 11.7429 17.795 12.1001V33.4876C17.795 33.6899 17.8915 33.8838 18.053 34.0054L28.8514 42.1419C29.0898 42.321 29.4174 42.3154 29.6493 42.128L39.6804 34.0156C39.8335 33.8922 39.9207 33.7085 39.9207 33.5108V12.1001C39.9207 11.742 39.6294 11.4516 39.2721 11.4516H18.4436Z" fill="#002D59"/>
<path d="M37.9325 33.4553L29.7386 40.0822C29.4147 40.3448 28.9536 40.3522 28.6205 40.1016L19.7994 33.4553C19.5711 33.2836 19.4375 33.0145 19.4375 32.7297V14.3494C19.4375 13.8474 19.8448 13.441 20.3459 13.441H37.3609C37.8629 13.441 38.2693 13.8484 38.2693 14.3494V32.7482C38.2693 33.0229 38.1449 33.2827 37.9315 33.4553H37.9325Z" fill="white"/>
<path d="M29.1691 40.7483C28.8786 40.7483 28.5882 40.6565 28.3433 40.4718L19.5231 33.8255C19.1807 33.5675 18.9766 33.1574 18.9766 32.7287V14.3494C18.9766 13.5922 19.5927 12.9771 20.3489 12.9771H37.3639C38.121 12.9771 38.7362 13.5932 38.7362 14.3494V32.7482C38.7362 33.1648 38.5506 33.5536 38.2268 33.8152L30.0329 40.4421C29.7815 40.6453 29.4753 40.7483 29.17 40.7483H29.1691ZM20.3489 13.904C20.1039 13.904 19.9044 14.1035 19.9044 14.3484V32.7278C19.9044 32.867 19.9703 32.9996 20.0816 33.0832L28.9028 39.7295C29.0661 39.8529 29.2915 39.8492 29.4502 39.7202L37.6441 33.0934C37.749 33.008 37.8093 32.8827 37.8093 32.7473V14.3494C37.8093 14.1044 37.6098 13.9049 37.3648 13.9049H20.3489V13.904Z" fill="#002D59"/>
<path d="M29.1088 18.4532L30.7428 21.7648L34.3976 22.2955C34.6323 22.3298 34.7251 22.6175 34.5563 22.7826L31.9119 25.3603L32.5363 29.0003C32.5762 29.2342 32.3313 29.4114 32.1216 29.3019L28.8527 27.5835L25.5839 29.3019C25.3742 29.4123 25.1292 29.2342 25.1691 29.0003L25.7936 25.3603L23.1492 22.7826C22.9794 22.6175 23.0731 22.3298 23.3079 22.2955L26.9627 21.7648L28.5966 18.4532C28.7015 18.2407 29.004 18.2407 29.1088 18.4532Z" fill="white"/>
<path d="M32.2581 29.7994C32.1393 29.7994 32.0197 29.7706 31.9083 29.7121L28.8557 28.1069L25.803 29.7121C25.5488 29.8458 25.2463 29.8244 25.0134 29.6546C24.7805 29.4857 24.6664 29.2046 24.7156 28.9216L25.2983 25.5219L22.8283 23.114C22.6223 22.9136 22.55 22.6185 22.639 22.3457C22.7281 22.072 22.9601 21.8772 23.244 21.8354L26.6566 21.339L28.183 18.2464C28.3101 17.9885 28.568 17.8289 28.8547 17.8289C29.1424 17.8289 29.3994 17.9894 29.5265 18.2464L31.0528 21.339L34.4664 21.8354C34.7503 21.8762 34.9823 22.072 35.0714 22.3457C35.1604 22.6195 35.0871 22.9136 34.8821 23.114L32.4121 25.5219L32.9948 28.9216C33.0431 29.2046 32.929 29.4857 32.697 29.6546C32.5652 29.7502 32.4121 29.7984 32.2572 29.7984L32.2581 29.7994ZM23.7348 22.703L26.2948 25.199L25.6907 28.723L28.8557 27.0593L32.0206 28.723L31.4165 25.199L33.9765 22.703L30.4386 22.1889L28.8566 18.9822L27.2746 22.1889L23.7367 22.703H23.7348Z" fill="#002D59"/>
</g>
<defs>
<filter id="filter0_d_909_13655" x="0.818663" y="0.381226" width="56.0775" height="56.0778" filterUnits="userSpaceOnUse" color-interpolation-filters="sRGB">
<feFlood flood-opacity="0" result="BackgroundImageFix"/>
<feColorMatrix in="SourceAlpha" type="matrix" values="0 0 0 0 0 0 0 0 0 0 0 0 0 0 0 0 0 0 127 0" result="hardAlpha"/>
<feOffset dy="4.00556"/>
<feGaussianBlur stdDeviation="2.00278"/>
<feComposite in2="hardAlpha" operator="out"/>
<feColorMatrix type="matrix" values="0 0 0 0 0 0 0 0 0 0 0 0 0 0 0 0 0 0 0.25 0"/>
<feBlend mode="normal" in2="BackgroundImageFix" result="effect1_dropShadow_909_13655"/>
<feBlend mode="normal" in="SourceGraphic" in2="effect1_dropShadow_909_13655" result="shape"/>
</filter>
</defs>
</svg>
