<svg width="22" height="22" viewBox="0 0 22 22" fill="none" xmlns="http://www.w3.org/2000/svg">
<path fill-rule="evenodd" clip-rule="evenodd" d="M21.3103 10.8519C21.3103 16.2442 17.2004 20.6767 11.9422 21.1869C11.6083 21.2192 11.2694 21.2359 10.9268 21.2359C10.5843 21.2359 10.245 21.2192 9.91059 21.1865C4.65285 20.6763 0.542969 16.2438 0.542969 10.8519C0.542969 9.82788 0.691356 8.83862 0.967692 7.90412C1.05844 7.59672 1.16309 7.29503 1.28082 7.00029C2.81088 3.17281 6.55286 0.468262 10.9268 0.468262C15.3008 0.468262 19.0844 3.20306 20.5977 7.06447C20.7192 7.37433 20.8263 7.69196 20.9178 8.01532C21.1737 8.9171 21.3103 9.86835 21.3103 10.8519Z" fill="white"/>
<path d="M10.9281 21.4401C10.5827 21.4401 10.2344 21.423 9.89182 21.3899C7.28707 21.1372 4.8769 19.9289 3.10524 17.9875C1.32214 16.0335 0.339844 13.499 0.339844 10.8517C0.339844 9.82891 0.48537 8.81798 0.773151 7.84588C0.865127 7.53479 0.972227 7.22493 1.09241 6.92406C1.86909 4.98068 3.19354 3.32304 4.92268 2.1302C6.6927 0.909149 8.76931 0.263672 10.9281 0.263672C13.0868 0.263672 15.1855 0.916098 16.9621 2.15023C18.6978 3.35616 20.0214 5.02974 20.7895 6.98947C20.9134 7.30587 21.0233 7.63208 21.1161 7.95912C21.3818 8.89483 21.5163 9.86816 21.5163 10.8513C21.5163 13.499 20.534 16.0331 18.7505 17.9875C16.9788 19.9289 14.5683 21.1372 11.9635 21.3899C11.6201 21.423 11.2719 21.4397 10.9285 21.4397L10.9281 21.4401ZM10.9281 0.67246C8.8527 0.67246 6.85622 1.293 5.15487 2.46704C3.49236 3.6141 2.21901 5.20756 1.47217 7.07613C1.35689 7.36515 1.25347 7.66315 1.16517 7.96198C0.888836 8.89647 0.748624 9.86857 0.748624 10.8517C0.748624 13.3968 1.69291 15.8332 3.40733 17.712C5.11072 19.5785 7.42769 20.7399 9.93147 20.9831C10.5884 21.0473 11.2621 21.0477 11.9239 20.9831C14.4277 20.7403 16.745 19.5785 18.4484 17.712C20.1628 15.8332 21.1071 13.3968 21.1071 10.8513C21.1071 9.90577 20.9775 8.97005 20.7225 8.07031C20.6333 7.75595 20.5279 7.44241 20.4089 7.13827C19.6703 5.25375 18.3977 3.64476 16.7291 2.48544C15.0216 1.29913 13.0157 0.672052 10.9285 0.672052L10.9281 0.67246Z" fill="#002D59"/>
<path d="M15.8231 15.2413L11.4038 18.8154C11.2288 18.9568 10.9803 18.9609 10.8004 18.8256L6.04305 15.2409C5.92001 15.1481 5.84766 15.0034 5.84766 14.8493V5.42715C5.84766 5.15653 6.06717 4.93701 6.33778 4.93701H15.5145C15.7851 4.93701 16.0046 5.15653 16.0046 5.42715V14.8604C16.0046 15.0083 15.9376 15.1485 15.8227 15.2413H15.8231Z" fill="white"/>
<path d="M11.0964 19.1287C10.9497 19.1287 10.8025 19.0821 10.6787 18.9885L5.92128 15.4038C5.74795 15.2734 5.64453 15.0658 5.64453 14.8491V5.42695C5.64453 5.04392 5.95602 4.73242 6.33905 4.73242H15.5158C15.8988 4.73242 16.2103 5.04392 16.2103 5.42695V14.8597C16.2103 15.0703 16.1163 15.2673 15.9523 15.3998L11.533 18.9738C11.4055 19.0768 11.251 19.1287 11.0964 19.1287ZM6.33905 5.14121C6.18167 5.14121 6.05331 5.26957 6.05331 5.42695V14.8495C6.05331 14.9386 6.09582 15.0241 6.16695 15.0776L10.9243 18.6623C11.0294 18.7412 11.1737 18.7387 11.2759 18.6562L15.6952 15.0821C15.7627 15.0278 15.8011 14.9468 15.8011 14.8597V5.42695C15.8011 5.26916 15.6727 5.14121 15.5154 5.14121H6.33905Z" fill="#002D59"/>
<path d="M14.9256 14.8351L11.3156 17.7547C11.173 17.8704 10.9698 17.8737 10.823 17.7633L6.93677 14.8351C6.83621 14.7595 6.77734 14.641 6.77734 14.5155V6.41778C6.77734 6.19663 6.9568 6.01758 7.17754 6.01758H14.6738C14.8949 6.01758 15.074 6.19704 15.074 6.41778V14.5236C15.074 14.6446 15.0192 14.7591 14.9252 14.8351H14.9256Z" fill="white"/>
<path d="M11.0647 18.048C10.9367 18.048 10.8088 18.0076 10.7009 17.9262L6.81499 14.9981C6.66415 14.8844 6.57422 14.7037 6.57422 14.5149V6.41759C6.57422 6.08401 6.84565 5.81299 7.17881 5.81299H14.675C15.0086 5.81299 15.2796 6.08442 15.2796 6.41759V14.5235C15.2796 14.707 15.1979 14.8783 15.0552 14.9936L11.4452 17.9131C11.3345 18.0027 11.1996 18.048 11.0651 18.048H11.0647ZM7.17881 6.22137C7.07089 6.22137 6.983 6.30926 6.983 6.41718V14.5145C6.983 14.5758 7.01202 14.6342 7.06108 14.671L10.9474 17.5992C11.0193 17.6535 11.1186 17.6519 11.1885 17.5951L14.7985 14.6755C14.8447 14.6379 14.8712 14.5827 14.8712 14.523V6.41759C14.8712 6.30967 14.7834 6.22178 14.6754 6.22178H7.17881V6.22137Z" fill="#002D59"/>
<path d="M11.0388 8.22597L11.7587 9.68494L13.3688 9.91876C13.4723 9.93389 13.5131 10.0606 13.4387 10.1334L12.2737 11.269L12.5488 12.8727C12.5664 12.9757 12.4585 13.0538 12.3661 13.0055L10.926 12.2484L9.48584 13.0055C9.39345 13.0542 9.28553 12.9757 9.30311 12.8727L9.57822 11.269L8.4132 10.1334C8.33839 10.0606 8.37968 9.93389 8.4831 9.91876L10.0933 9.68494L10.8131 8.22597C10.8593 8.13236 10.9926 8.13236 11.0388 8.22597Z" fill="white"/>
<path d="M12.4262 13.2245C12.3739 13.2245 12.3212 13.2118 12.2721 13.186L10.9272 12.4788L9.58232 13.186C9.47032 13.2449 9.33705 13.2355 9.23445 13.1607C9.13185 13.0863 9.08157 12.9624 9.10323 12.8377L9.35995 11.3399L8.27177 10.2791C8.18102 10.1908 8.14914 10.0608 8.18838 9.94067C8.22762 9.82007 8.32982 9.73423 8.45491 9.71583L9.9584 9.49713L10.6308 8.13464C10.6868 8.021 10.8005 7.95068 10.9268 7.95068C11.0535 7.95068 11.1668 8.0214 11.2228 8.13464L11.8952 9.49713L13.3991 9.71583C13.5242 9.73382 13.6264 9.82007 13.6656 9.94067C13.7049 10.0613 13.6726 10.1908 13.5822 10.2791L12.4941 11.3399L12.7508 12.8377C12.772 12.9624 12.7218 13.0863 12.6196 13.1607C12.5615 13.2028 12.4941 13.2241 12.4258 13.2241L12.4262 13.2245ZM8.67115 10.0981L9.79898 11.1977L9.53286 12.7503L10.9272 12.0173L12.3216 12.7503L12.0554 11.1977L13.1833 10.0981L11.6246 9.87158L10.9276 8.45881L10.2306 9.87158L8.67197 10.0981H8.67115Z" fill="#002D59"/>
</svg>
