<svg width="21" height="21" viewBox="0 0 21 21" fill="none" xmlns="http://www.w3.org/2000/svg">
<path fill-rule="evenodd" clip-rule="evenodd" d="M20.7432 10.472C20.7432 15.8052 16.6783 20.1891 11.4777 20.6937C11.1473 20.7256 10.8122 20.7422 10.4734 20.7422C10.1346 20.7422 9.79898 20.7257 9.46826 20.6933C4.26804 20.1887 0.203125 15.8048 0.203125 10.472C0.203125 9.45919 0.349889 8.48077 0.623201 7.55652C0.712958 7.25248 0.816461 6.9541 0.932902 6.66259C2.44623 2.87705 6.14727 0.202148 10.4734 0.202148C14.7995 0.202148 18.5417 2.90697 20.0385 6.72607C20.1586 7.03253 20.2645 7.34668 20.3551 7.66649C20.6082 8.55839 20.7432 9.49922 20.7432 10.472Z" fill="white"/>
<path d="M10.4724 20.9444C10.1308 20.9444 9.78628 20.9274 9.44747 20.8947C6.87122 20.6448 4.48742 19.4497 2.73515 17.5296C0.971553 15.597 0 13.0907 0 10.472C0 9.46082 0.143934 8.46056 0.428567 7.49911C0.519132 7.19184 0.625465 6.88497 0.744332 6.5874C1.51252 4.66531 2.82248 3.02584 4.5327 1.84607C6.28376 0.638807 8.33765 0 10.4724 0C12.6071 0 14.6833 0.645276 16.4404 1.86588C18.1571 3.05859 19.4662 4.71383 20.2259 6.65208C20.3484 6.96502 20.4572 7.28766 20.549 7.6111C20.8118 8.53657 20.9448 9.49882 20.9448 10.4716C20.9448 13.0903 19.9732 15.5966 18.2092 17.5296C16.457 19.4497 14.0728 20.6448 11.4965 20.8947C11.1569 20.9274 10.8124 20.944 10.4728 20.944L10.4724 20.9444ZM10.4724 0.404308C8.41972 0.404308 6.44508 1.01805 4.76235 2.17922C3.11803 3.31371 1.85861 4.8897 1.11993 6.7378C1.00592 7.02364 0.903629 7.31838 0.816298 7.61393C0.542986 8.53818 0.404308 9.49963 0.404308 10.472C0.404308 12.9892 1.33826 15.3989 3.03393 17.2571C4.71868 19.1032 7.0103 20.2518 9.48669 20.4924C10.1364 20.5558 10.8027 20.5562 11.4573 20.4924C13.9337 20.2522 16.2257 19.1032 17.9105 17.2571C19.6061 15.3989 20.5401 12.9892 20.5401 10.4716C20.5401 9.53642 20.4119 8.61096 20.1596 7.72148C20.0715 7.41057 19.9672 7.10046 19.8491 6.79966C19.1185 4.9358 17.8599 3.34444 16.2095 2.19782C14.5207 1.02452 12.5368 0.404308 10.4724 0.404308Z" fill="#002D59"/>
<path d="M17.272 6.24069L2.44239 9.88351C2.10843 9.96558 1.9742 10.3679 2.19212 10.6339L3.29669 11.9835C3.81178 12.613 4.64304 12.8904 5.43306 12.6963L12.7757 10.8927C14.272 10.5251 15.5618 9.57987 16.3631 8.26385L17.4487 6.48085C17.5235 6.35794 17.4123 6.20592 17.2724 6.24029L17.272 6.24069Z" fill="white"/>
<path d="M4.93418 12.9588C4.24928 12.9588 3.58258 12.6535 3.13905 12.1113L2.03448 10.7617C1.88812 10.5826 1.84445 10.3449 1.91763 10.1254C1.99081 9.90582 2.16871 9.74207 2.3931 9.68709L17.2227 6.04427C17.3663 6.00909 17.5154 6.06327 17.6024 6.18254C17.6897 6.30181 17.6966 6.4603 17.6198 6.58645L16.5342 8.36945C15.6993 9.74046 14.3812 10.7063 12.8222 11.0892L5.47959 12.8928C5.29887 12.9373 5.11571 12.9588 4.93337 12.9588H4.93418ZM17.2231 6.46071L2.48973 10.0801C2.39957 10.1023 2.33084 10.1658 2.30132 10.2539C2.27181 10.3421 2.28879 10.4342 2.34782 10.5062L3.45239 11.8558C3.91573 12.4218 4.6738 12.6749 5.38417 12.5003L12.7268 10.6966C14.1811 10.3392 15.411 9.43803 16.1897 8.15921L17.2235 6.46111L17.2231 6.46071Z" fill="#002D59"/>
<path d="M7.23624 8.91533L6.90024 7.3255C6.86021 7.13587 6.94755 6.94544 7.11777 6.85204L7.12262 6.84961L11.7077 4.49682C11.907 4.38927 12.1585 4.45356 12.2819 4.64359L13.9776 7.2596L7.23624 8.91573V8.91533ZM7.31063 7.20704C7.29891 7.21431 7.29284 7.22806 7.29567 7.2414L7.54555 8.42285L13.3291 7.00204L11.9422 4.86314C11.9329 4.84899 11.9139 4.84414 11.8994 4.85222L11.8945 4.85465L7.31104 7.20663L7.31063 7.20704Z" fill="#002D59"/>
<path d="M2.74538 11.6269L2.02531 10.7507C1.88056 10.5745 1.8373 10.3404 1.90887 10.1241C1.98083 9.90776 2.1559 9.74645 2.37705 9.69186L16.8097 6.14648L13.7571 8.43689C13.1114 8.92125 12.3869 9.26411 11.603 9.45615L2.74457 11.6265L2.74538 11.6269ZM14.9838 7.0117L2.47409 10.0849C2.38716 10.1063 2.32126 10.1673 2.29296 10.2518C2.26466 10.3367 2.28123 10.4249 2.33784 10.494L2.89619 11.1737L11.5071 9.06357C12.2377 8.88446 12.9133 8.56506 13.5149 8.11344L14.9834 7.0117H14.9838Z" fill="#002D59"/>
<path d="M4.28918 9.63855L3.96127 8.30427C3.88889 8.00951 4.06963 7.71112 4.36438 7.63874L5.62346 7.32943C5.91822 7.25706 6.21661 7.43779 6.28899 7.73255L6.6169 9.06683L4.28918 9.63855ZM5.75487 7.71799C5.74355 7.71799 5.73182 7.7192 5.7201 7.72203L4.46102 8.03135C4.38298 8.05075 4.33487 8.1296 4.35427 8.20804L4.58555 9.14931L6.12806 8.77046L5.89679 7.82878C5.88062 7.76247 5.82077 7.71759 5.75487 7.71759V7.71799Z" fill="#002D59"/>
<path d="M1.08398 14.7461C1.08398 14.7461 1.22662 14.8187 1.3505 14.8917C1.75661 15.1319 2.22716 15.1319 2.63327 14.8917C2.75715 14.8187 2.88103 14.7453 3.00441 14.6724C3.41052 14.4321 3.88106 14.4321 4.28717 14.6724C4.41105 14.7453 4.53493 14.8187 4.65831 14.8917C5.06442 15.1319 5.53497 15.1319 5.94108 14.8917C6.06496 14.8187 6.18884 14.7453 6.31222 14.6724C6.71833 14.4321 7.18887 14.4321 7.59498 14.6724C7.71886 14.7453 7.84224 14.8187 7.96612 14.8917C8.37223 15.1319 8.84278 15.1319 9.24938 14.8917C9.37326 14.8187 9.49665 14.7453 9.62053 14.6724C10.0266 14.4321 10.4972 14.4321 10.9033 14.6724C11.0272 14.7453 11.1506 14.8187 11.2744 14.8917C11.6805 15.1319 12.1511 15.1319 12.5577 14.8917C12.6816 14.8187 12.805 14.7453 12.9288 14.6724C13.3349 14.4321 13.8055 14.4321 14.2121 14.6724C14.336 14.7453 14.4594 14.8187 14.5832 14.8917C14.9893 15.1319 15.4599 15.1319 15.866 14.8917C15.9899 14.8187 16.1133 14.7453 16.2371 14.6724C16.6433 14.4321 17.1138 14.4321 17.5199 14.6724C17.6438 14.7453 17.7672 14.8187 17.8911 14.8917C18.2972 15.1319 18.7677 15.1319 19.1738 14.8917C19.2977 14.8187 19.4211 14.7453 19.545 14.6724C20.0067 14.4006 19.545 14.8612 19.545 14.8612C19.545 14.8612 19.2972 15.0076 19.1738 15.0805C18.7677 15.3208 18.2972 15.3208 17.8911 15.0805C17.7672 15.0076 17.6438 14.9341 17.5199 14.8612C17.1138 14.6209 16.6433 14.6209 16.2371 14.8612C16.1133 14.9341 15.9894 15.0076 15.866 15.0805C15.4594 15.3208 14.9893 15.3208 14.5832 15.0805C14.4594 15.0076 14.336 14.9341 14.2121 14.8612C13.8055 14.6209 13.3354 14.6209 12.9288 14.8612C12.805 14.9341 12.6816 15.0076 12.5577 15.0805C12.1516 15.3208 11.681 15.3208 11.2744 15.0805C11.1506 15.0076 11.0272 14.9341 10.9033 14.8612C10.4972 14.6209 10.0266 14.6209 9.62053 14.8612C9.49665 14.9341 9.37326 15.0076 9.24938 15.0805C8.84328 15.3208 8.37273 15.3208 7.96612 15.0805C7.84274 15.0076 7.71886 14.9341 7.59498 14.8612C7.18887 14.6209 6.71833 14.6209 6.31222 14.8612C6.18834 14.9341 6.06496 15.0076 5.94108 15.0805C5.53497 15.3208 5.06442 15.3208 4.65831 15.0805C4.53443 15.0076 4.41055 14.9341 4.28717 14.8612C3.88106 14.6209 3.41052 14.6209 3.00441 14.8612C2.88053 14.9341 2.75715 15.0076 2.63327 15.0805C2.22716 15.3208 1.75661 15.3208 1.3505 15.0805C1.22662 15.0076 1.12985 14.8917 1.12985 14.8917L1.08398 14.7461Z" stroke="#002D59" stroke-width="0.210297" stroke-miterlimit="10"/>
<path d="M2.63317 17.0594C2.63317 17.0594 2.88094 16.9131 3.00432 16.8401C3.41042 16.5999 3.88097 16.5999 4.28708 16.8401C4.41096 16.9131 4.53484 16.9865 4.65822 17.0594C5.06433 17.2997 5.53488 17.2997 5.94098 17.0594C6.06486 16.9865 6.18875 16.9131 6.31213 16.8401C6.71823 16.5999 7.18878 16.5999 7.59489 16.8401C7.71877 16.9131 7.84215 16.9865 7.96603 17.0594C8.37264 17.2997 8.84268 17.2997 9.24929 17.0594C9.37317 16.9865 9.49655 16.9131 9.62043 16.8401C10.0265 16.5999 10.4971 16.5999 10.9032 16.8401C11.0271 16.9131 11.1505 16.9865 11.2743 17.0594C11.6804 17.2997 12.151 17.2997 12.5576 17.0594C12.6815 16.9865 12.8049 16.9131 12.9287 16.8401C13.3349 16.5999 13.8054 16.5999 14.212 16.8401C14.3359 16.9131 14.4593 16.9865 14.5831 17.0594C14.9893 17.2997 15.4598 17.2997 15.8659 17.0594C15.9898 16.9865 16.1132 16.9131 16.2371 16.8401C16.6432 16.5999 17.1137 16.5999 17.5198 16.8401C17.6437 16.9131 17.7671 16.9865 17.891 17.0594C18.2971 17.2997 18.4877 17.0594 18.4877 17.0594V16.8706C18.4877 16.8706 18.2971 17.1109 17.891 16.8706C17.7671 16.7977 17.6437 16.7243 17.5198 16.6513C17.1137 16.4111 16.6432 16.4111 16.2371 16.6513C16.1132 16.7243 15.9893 16.7977 15.8659 16.8706C15.4593 17.1109 14.9893 17.1109 14.5831 16.8706C14.4593 16.7977 14.3359 16.7243 14.212 16.6513C13.8054 16.4111 13.3354 16.4111 12.9287 16.6513C12.8049 16.7243 12.6815 16.7977 12.5576 16.8706C12.1515 17.1109 11.6809 17.1109 11.2743 16.8706C11.1505 16.7977 11.0271 16.7243 10.9032 16.6513C10.4971 16.4111 10.0265 16.4111 9.62043 16.6513C9.49655 16.7243 9.37317 16.7977 9.24929 16.8706C8.84318 17.1109 8.37264 17.1109 7.96603 16.8706C7.84265 16.7977 7.71877 16.7243 7.59489 16.6513C7.18878 16.4111 6.71823 16.4111 6.31213 16.6513C6.18825 16.7243 6.06486 16.7977 5.94098 16.8706C5.53488 17.1109 5.06433 17.1109 4.65822 16.8706C4.53434 16.7977 4.41046 16.7243 4.28708 16.6513C3.88097 16.4111 3.41042 16.4111 3.00432 16.6513C2.88044 16.7243 2.63317 16.8706 2.63317 16.8706V17.0594Z" stroke="#002D59" stroke-width="0.210297" stroke-miterlimit="10"/>
<path d="M4.18359 18.5461C4.30747 18.6191 4.53484 18.7759 4.65822 18.8488C5.06433 19.0891 5.53488 19.0891 5.94098 18.8488C6.06486 18.7759 6.18875 18.7025 6.31213 18.6296C6.71823 18.3893 7.18878 18.3893 7.59489 18.6296C7.71877 18.7025 7.84215 18.7759 7.96603 18.8488C8.37214 19.0891 8.84268 19.0891 9.24929 18.8488C9.37317 18.7759 9.49655 18.7025 9.62043 18.6296C10.0265 18.3893 10.4971 18.3893 10.9032 18.6296C11.0271 18.7025 11.1505 18.7759 11.2743 18.8488C11.6804 19.0891 12.151 19.0891 12.5576 18.8488C12.6815 18.7759 12.8049 18.7025 12.9287 18.6296C13.3349 18.3893 13.8054 18.3893 14.212 18.6296C14.3359 18.7025 14.4593 18.7759 14.5831 18.8488C14.9893 19.0891 15.4598 19.0891 15.8659 18.8488C15.9898 18.7759 16.1132 18.7025 16.2371 18.6296C16.6432 18.3893 16.6836 18.5461 16.6836 18.5461C16.6836 18.5461 16.6432 18.5781 16.2371 18.8184C16.1132 18.8918 15.9893 18.9647 15.8659 19.0377C15.4593 19.2779 14.9893 19.2779 14.5831 19.0377C14.4593 18.9647 14.3359 18.8913 14.212 18.8184C13.8054 18.5781 13.3354 18.5781 12.9287 18.8184C12.8049 18.8918 12.6815 18.9647 12.5576 19.0377C12.1515 19.2779 11.6809 19.2779 11.2743 19.0377C11.1505 18.9647 11.0271 18.8913 10.9032 18.8184C10.4971 18.5781 10.0265 18.5781 9.62043 18.8184C9.49655 18.8918 9.37317 18.9647 9.24929 19.0377C8.84318 19.2779 8.37264 19.2779 7.96603 19.0377C7.84265 18.9647 7.71877 18.8913 7.59489 18.8184C7.18878 18.5781 6.71823 18.5781 6.31213 18.8184C6.18825 18.8918 6.06486 18.9647 5.94098 19.0377C5.53488 19.2779 5.06433 19.2779 4.65822 19.0377C4.53434 18.9647 4.41046 18.8027 4.28708 18.7297C3.66014 18.3588 3.37628 18.0685 4.18359 18.5461Z" stroke="#002D59" stroke-width="0.210297" stroke-miterlimit="10"/>
<path d="M20.5794 8.75191L0.765625 13.7803L0.865078 14.1722L20.6788 9.14379L20.5794 8.75191Z" fill="#002D59"/>
</svg>
