<svg width="54" height="54" viewBox="0 0 54 54" fill="none" xmlns="http://www.w3.org/2000/svg">
<g filter="url(#filter0_d_909_13688)">
<mask id="mask0_909_13688" style="mask-type:alpha" maskUnits="userSpaceOnUse" x="4" y="0" width="46" height="46">
<ellipse cx="26.9102" cy="22.8082" rx="22.5977" ry="22.6525" fill="#D9D9D9"/>
</mask>
<g mask="url(#mask0_909_13688)">
<path fill-rule="evenodd" clip-rule="evenodd" d="M49.4493 22.928C49.4493 34.6353 40.5136 44.2586 29.0813 45.3662C28.3551 45.4363 27.6184 45.4727 26.8736 45.4727C26.1288 45.4727 25.3911 45.4363 24.6641 45.3653C13.2326 44.2577 4.29688 34.6344 4.29688 22.928C4.29688 20.7048 4.6195 18.557 5.22031 16.5282C5.41762 15.8608 5.64515 15.2058 5.90112 14.5659C9.2278 6.25608 17.3637 0.384277 26.8736 0.384277C36.3835 0.384277 44.61 6.32175 47.9002 14.7052C48.1642 15.378 48.397 16.0676 48.5961 16.7696C49.1525 18.7274 49.4493 20.7927 49.4493 22.928Z" fill="white"/>
<path d="M41.6848 13.6059L9.21789 21.5812C8.48674 21.7609 8.19287 22.6417 8.66997 23.2241L11.0882 26.1788C12.2159 27.557 14.0358 28.1642 15.7654 27.7393L31.8409 23.7906C35.1169 22.986 37.9405 20.9165 39.6949 18.0353L42.0716 14.1317C42.2353 13.8626 41.9919 13.5298 41.6856 13.605L41.6848 13.6059Z" fill="white"/>
<path d="M14.6726 28.3138C13.1732 28.3138 11.7135 27.6455 10.7425 26.4585L8.32424 23.5038C8.00381 23.1117 7.90821 22.5912 8.06842 22.1106C8.22864 21.6299 8.61811 21.2714 9.10937 21.1511L41.5763 13.1757C41.8905 13.0987 42.2171 13.2173 42.4074 13.4785C42.5986 13.7396 42.6137 14.0866 42.4455 14.3628L40.0688 18.2663C38.241 21.2679 35.3553 23.3826 31.9421 24.2208L15.8667 28.1695C15.471 28.2669 15.0701 28.3138 14.6709 28.3138H14.6726ZM41.5771 14.0875L9.32093 22.0114C9.12354 22.0601 8.97306 22.1991 8.90844 22.3921C8.84383 22.585 8.881 22.7868 9.01024 22.9444L11.4285 25.8991C12.4429 27.1383 14.1026 27.6924 15.6578 27.31L31.7332 23.3613C34.9172 22.5788 37.6098 20.6058 39.3147 17.806L41.578 14.0883L41.5771 14.0875Z" fill="#002D59"/>
<path d="M19.7019 19.4605L18.9664 15.98C18.8787 15.5649 19.0699 15.148 19.4426 14.9435L19.4532 14.9382L29.4909 9.78741C29.9273 9.55196 30.4779 9.6927 30.7479 10.1087L34.4602 15.8357L19.7019 19.4614V19.4605ZM19.8648 15.7207C19.8391 15.7366 19.8259 15.7667 19.8321 15.7959L20.3791 18.3823L33.0405 15.2719L30.0043 10.5894C29.984 10.5584 29.9424 10.5478 29.9105 10.5655L29.8999 10.5708L19.8657 15.7198L19.8648 15.7207Z" fill="#002D59"/>
<path d="M9.87039 25.3973L8.29391 23.4792C7.97702 23.0932 7.88231 22.5807 8.03899 22.1072C8.19655 21.6336 8.57982 21.2804 9.06401 21.1609L40.6617 13.3989L33.9787 18.4134C32.5651 19.4738 30.9789 20.2244 29.2625 20.6449L9.86862 25.3964L9.87039 25.3973ZM36.6643 15.2932L9.27644 22.0213C9.08613 22.0682 8.94185 22.2019 8.87989 22.3869C8.81793 22.5728 8.85422 22.7657 8.97814 22.9171L10.2006 24.405L29.0528 19.7854C30.6522 19.3932 32.1313 18.694 33.4485 17.7052L36.6634 15.2932H36.6643Z" fill="#002D59"/>
<path d="M13.2528 21.0449L12.5349 18.1239C12.3765 17.4786 12.7721 16.8254 13.4174 16.6669L16.1738 15.9898C16.8191 15.8313 17.4724 16.227 17.6308 16.8723L18.3487 19.7933L13.2528 21.0449ZM16.4615 16.8404C16.4367 16.8404 16.4111 16.8431 16.3854 16.8493L13.629 17.5264C13.4582 17.5689 13.3528 17.7415 13.3953 17.9132L13.9016 19.9739L17.2785 19.1445L16.7722 17.0829C16.7368 16.9378 16.6058 16.8395 16.4615 16.8395V16.8404Z" fill="#002D59"/>
<path d="M0.976562 33.3556V32.9423C1.45666 32.9423 1.93675 32.811 2.38075 32.5475C2.65088 32.3878 2.92209 32.227 3.19331 32.0674C4.08241 31.5413 5.11259 31.5413 6.00169 32.0674C6.2729 32.227 6.54303 32.3878 6.81424 32.5475C7.70334 33.0735 8.73352 33.0735 9.62262 32.5475C9.89384 32.3878 10.1651 32.227 10.4352 32.0674C11.3243 31.5413 12.3545 31.5413 13.2436 32.0674C13.5148 32.227 13.786 32.3878 14.0561 32.5475C14.9452 33.0735 15.9754 33.0735 16.8645 32.5475C17.1357 32.3878 17.4069 32.227 17.677 32.0674C18.5661 31.5413 19.5963 31.5413 20.4854 32.0674C20.7566 32.227 21.0268 32.3878 21.298 32.5475C22.1871 33.0735 23.2173 33.0735 24.1075 32.5475C24.3787 32.3878 24.6488 32.227 24.92 32.0674C25.8091 31.5413 26.8393 31.5413 27.7284 32.0674C27.9996 32.227 28.2697 32.3878 28.5409 32.5475C29.43 33.0735 30.4602 33.0735 31.3504 32.5475C31.6216 32.3878 31.8918 32.227 32.163 32.0674C33.0521 31.5413 34.0823 31.5413 34.9725 32.0674C35.2437 32.227 35.5138 32.3878 35.785 32.5475C36.6741 33.0735 37.7043 33.0735 38.5934 32.5475C38.8646 32.3878 39.1347 32.227 39.4059 32.0674C40.295 31.5413 41.3252 31.5413 42.2143 32.0674C42.4855 32.227 42.7557 32.3878 43.0269 32.5475C43.916 33.0735 44.9462 33.0735 45.8353 32.5475C46.1065 32.3878 46.3766 32.227 46.6478 32.0674C47.5369 31.5413 48.5671 31.5413 49.4562 32.0674C49.7274 32.227 49.9975 32.3878 50.2687 32.5475C50.7138 32.811 51.1928 32.9423 51.6729 32.9423V33.3556C51.1928 33.3556 50.7128 33.2244 50.2687 32.9608C49.9975 32.8012 49.7274 32.6404 49.4562 32.4808C48.5671 31.9547 47.5369 31.9547 46.6478 32.4808C46.3766 32.6404 46.1054 32.8012 45.8353 32.9608C44.9462 33.4869 43.916 33.4869 43.0269 32.9608C42.7557 32.8012 42.4855 32.6404 42.2143 32.4808C41.3252 31.9547 40.295 31.9547 39.4059 32.4808C39.1347 32.6404 38.8635 32.8012 38.5934 32.9608C37.7032 33.4869 36.6741 33.4869 35.785 32.9608C35.5138 32.8012 35.2437 32.6404 34.9725 32.4808C34.0823 31.9547 33.0532 31.9547 32.163 32.4808C31.8918 32.6404 31.6216 32.8012 31.3504 32.9608C30.4613 33.4869 29.4311 33.4869 28.5409 32.9608C28.2697 32.8012 27.9996 32.6404 27.7284 32.4808C26.8393 31.9547 25.8091 31.9547 24.92 32.4808C24.6488 32.6404 24.3787 32.8012 24.1075 32.9608C23.2184 33.4869 22.1882 33.4869 21.298 32.9608C21.0279 32.8012 20.7566 32.6404 20.4854 32.4808C19.5963 31.9547 18.5661 31.9547 17.677 32.4808C17.4058 32.6404 17.1357 32.8012 16.8645 32.9608C15.9754 33.4869 14.9452 33.4869 14.0561 32.9608C13.7849 32.8012 13.5137 32.6404 13.2436 32.4808C12.3545 31.9547 11.3243 31.9547 10.4352 32.4808C10.164 32.6404 9.89384 32.8012 9.62262 32.9608C8.73352 33.4869 7.70334 33.4869 6.81424 32.9608C6.54303 32.8012 6.2729 32.6404 6.00169 32.4808C5.11259 31.9547 4.08241 31.9547 3.19331 32.4808C2.92209 32.6404 2.65197 32.8012 2.38075 32.9608C1.93566 33.2244 1.45556 33.3556 0.976562 33.3556Z" stroke="#002D59" stroke-width="0.460409" stroke-miterlimit="10"/>
<path d="M0.976562 37.6882C1.45666 37.6882 1.93675 37.5569 2.38075 37.2934C2.65088 37.1337 2.92209 36.9729 3.19331 36.8133C4.08241 36.2872 5.11259 36.2872 6.00169 36.8133C6.2729 36.9729 6.54303 37.1337 6.81424 37.2934C7.70334 37.8194 8.73352 37.8194 9.62262 37.2934C9.89384 37.1337 10.1651 36.9729 10.4352 36.8133C11.3243 36.2872 12.3545 36.2872 13.2436 36.8133C13.5148 36.9729 13.786 37.1337 14.0561 37.2934C14.9452 37.8194 15.9754 37.8194 16.8645 37.2934C17.1357 37.1337 17.4069 36.9729 17.677 36.8133C18.5661 36.2872 19.5963 36.2872 20.4854 36.8133C20.7566 36.9729 21.0268 37.1337 21.298 37.2934C22.1882 37.8194 23.2173 37.8194 24.1075 37.2934C24.3787 37.1337 24.6488 36.9729 24.92 36.8133C25.8091 36.2872 26.8393 36.2872 27.7284 36.8133C27.9996 36.9729 28.2697 37.1337 28.5409 37.2934C29.43 37.8194 30.4602 37.8194 31.3504 37.2934C31.6216 37.1337 31.8918 36.9729 32.163 36.8133C33.0521 36.2872 34.0823 36.2872 34.9725 36.8133C35.2437 36.9729 35.5138 37.1337 35.785 37.2934C36.6741 37.8194 37.7043 37.8194 38.5934 37.2934C38.8646 37.1337 39.1347 36.9729 39.4059 36.8133C40.295 36.2872 41.3252 36.2872 42.2143 36.8133C42.4855 36.9729 42.7557 37.1337 43.0269 37.2934C43.916 37.8194 44.9462 37.8194 45.8353 37.2934C46.1065 37.1337 46.3766 36.9729 46.6478 36.8133C47.5369 36.2872 48.5671 36.2872 49.4562 36.8133C49.7274 36.9729 49.9975 37.1337 50.2687 37.2934C50.7138 37.5558 51.1928 37.6882 51.6729 37.6882V37.2748C51.1928 37.2748 50.7127 37.1435 50.2687 36.88C49.9975 36.7203 49.7274 36.5596 49.4562 36.3999C48.5671 35.8739 47.5369 35.8739 46.6478 36.3999C46.3766 36.5596 46.1054 36.7203 45.8353 36.88C44.9462 37.406 43.916 37.406 43.0269 36.88C42.7557 36.7203 42.4855 36.5596 42.2143 36.3999C41.3252 35.8739 40.295 35.8739 39.4059 36.3999C39.1347 36.5596 38.8635 36.7203 38.5934 36.88C37.7032 37.406 36.6741 37.406 35.785 36.88C35.5138 36.7203 35.2437 36.5596 34.9725 36.3999C34.0823 35.8739 33.0532 35.8739 32.163 36.3999C31.8918 36.5596 31.6216 36.7203 31.3504 36.88C30.4613 37.406 29.4311 37.406 28.5409 36.88C28.2697 36.7203 27.9996 36.5596 27.7284 36.3999C26.8393 35.8739 25.8091 35.8739 24.92 36.3999C24.6488 36.5596 24.3787 36.7203 24.1075 36.88C23.2184 37.406 22.1882 37.406 21.298 36.88C21.0279 36.7203 20.7566 36.5596 20.4854 36.3999C19.5963 35.8739 18.5661 35.8739 17.677 36.3999C17.4058 36.5596 17.1357 36.7203 16.8645 36.88C15.9754 37.406 14.9452 37.406 14.0561 36.88C13.7849 36.7203 13.5137 36.5596 13.2436 36.3999C12.3545 35.8739 11.3243 35.8739 10.4352 36.3999C10.164 36.5596 9.89384 36.7203 9.62262 36.88C8.73352 37.406 7.70334 37.406 6.81424 36.88C6.54303 36.7203 6.2729 36.5596 6.00169 36.3999C5.11259 35.8739 4.08241 35.8739 3.19331 36.3999C2.92209 36.5596 2.65197 36.7203 2.38075 36.88C1.93566 37.1435 1.45556 37.2748 0.976562 37.2748V37.6882Z" stroke="#002D59" stroke-width="0.460409" stroke-miterlimit="10"/>
<path d="M0.976562 42.0202V41.6068C1.45666 41.6068 1.93675 41.4756 2.38075 41.212C2.65088 41.0523 2.92209 40.8916 3.19331 40.7319C4.08241 40.2059 5.11259 40.2059 6.00169 40.7319C6.2729 40.8916 6.54303 41.0523 6.81424 41.212C7.70334 41.738 8.73352 41.738 9.62262 41.212C9.89384 41.0523 10.1651 40.8916 10.4352 40.7319C11.3243 40.2059 12.3545 40.2059 13.2436 40.7319C13.5148 40.8916 13.786 41.0523 14.0561 41.212C14.9452 41.738 15.9754 41.738 16.8645 41.212C17.1357 41.0523 17.4069 40.8916 17.677 40.7319C18.5661 40.2059 19.5963 40.2059 20.4854 40.7319C20.7566 40.8916 21.0268 41.0523 21.298 41.212C22.1871 41.738 23.2173 41.738 24.1075 41.212C24.3787 41.0523 24.6488 40.8916 24.92 40.7319C25.8091 40.2059 26.8393 40.2059 27.7284 40.7319C27.9996 40.8916 28.2697 41.0523 28.5409 41.212C29.43 41.738 30.4602 41.738 31.3504 41.212C31.6216 41.0523 31.8918 40.8916 32.163 40.7319C33.0521 40.2059 34.0823 40.2059 34.9725 40.7319C35.2437 40.8916 35.5138 41.0523 35.785 41.212C36.6741 41.738 37.7043 41.738 38.5934 41.212C38.8646 41.0523 39.1347 40.8916 39.4059 40.7319C40.295 40.2059 41.3252 40.2059 42.2143 40.7319C42.4855 40.8916 42.7557 41.0523 43.0269 41.212C43.916 41.738 44.9462 41.738 45.8353 41.212C46.1065 41.0523 46.3766 40.8916 46.6478 40.7319C47.5369 40.2059 48.5671 40.2059 49.4562 40.7319C49.7274 40.8916 49.9975 41.0523 50.2687 41.212C50.7138 41.4756 51.1928 41.6068 51.6729 41.6068V42.0202C51.1928 42.0202 50.7127 41.889 50.2687 41.6254C49.9975 41.4657 49.7274 41.305 49.4562 41.1453C48.5671 40.6193 47.5369 40.6193 46.6478 41.1453C46.3766 41.3061 46.1054 41.4657 45.8353 41.6254C44.9462 42.1514 43.916 42.1514 43.0269 41.6254C42.7557 41.4657 42.4855 41.305 42.2143 41.1453C41.3252 40.6193 40.295 40.6193 39.4059 41.1453C39.1347 41.3061 38.8635 41.4657 38.5934 41.6254C37.7032 42.1514 36.6741 42.1514 35.785 41.6254C35.5138 41.4657 35.2437 41.305 34.9725 41.1453C34.0823 40.6193 33.0532 40.6193 32.163 41.1453C31.8918 41.3061 31.6216 41.4657 31.3504 41.6254C30.4613 42.1514 29.4311 42.1514 28.5409 41.6254C28.2697 41.4657 27.9996 41.305 27.7284 41.1453C26.8393 40.6193 25.8091 40.6193 24.92 41.1453C24.6488 41.3061 24.3787 41.4657 24.1075 41.6254C23.2184 42.1514 22.1882 42.1514 21.298 41.6254C21.0279 41.4657 20.7566 41.305 20.4854 41.1453C19.5963 40.6193 18.5661 40.6193 17.677 41.1453C17.4058 41.3061 17.1357 41.4657 16.8645 41.6254C15.9754 42.1514 14.9452 42.1514 14.0561 41.6254C13.7849 41.4657 13.5137 41.305 13.2436 41.1453C12.3545 40.6193 11.3243 40.6193 10.4352 41.1453C10.164 41.3061 9.89384 41.4657 9.62262 41.6254C8.73352 42.1514 7.70334 42.1514 6.81424 41.6254C6.54303 41.4657 6.2729 41.305 6.00169 41.1453C5.11259 40.6193 4.08241 40.6193 3.19331 41.1453C2.92209 41.3061 2.65197 41.4657 2.38075 41.6254C1.93566 41.8879 1.45556 42.0202 0.976562 42.0202Z" stroke="#002D59" stroke-width="0.460409" stroke-miterlimit="10"/>
<path d="M48.91 19.1027L5.53125 30.1115L5.74899 30.9694L49.1277 19.9607L48.91 19.1027Z" fill="#002D59"/>
</g>
</g>
<defs>
<filter id="filter0_d_909_13688" x="0.3125" y="0.384277" width="53.1953" height="53.0764" filterUnits="userSpaceOnUse" color-interpolation-filters="sRGB">
<feFlood flood-opacity="0" result="BackgroundImageFix"/>
<feColorMatrix in="SourceAlpha" type="matrix" values="0 0 0 0 0 0 0 0 0 0 0 0 0 0 0 0 0 0 127 0" result="hardAlpha"/>
<feOffset dy="4"/>
<feGaussianBlur stdDeviation="2"/>
<feComposite in2="hardAlpha" operator="out"/>
<feColorMatrix type="matrix" values="0 0 0 0 0 0 0 0 0 0 0 0 0 0 0 0 0 0 0.25 0"/>
<feBlend mode="normal" in2="BackgroundImageFix" result="effect1_dropShadow_909_13688"/>
<feBlend mode="normal" in="SourceGraphic" in2="effect1_dropShadow_909_13688" result="shape"/>
</filter>
</defs>
</svg>
