<svg width="57" height="57" viewBox="0 0 57 57" fill="none" xmlns="http://www.w3.org/2000/svg">
<g filter="url(#filter0_d_955_30)">
<path fill-rule="evenodd" clip-rule="evenodd" d="M52.4191 24.6684C52.4191 36.908 43.0905 46.9689 31.1555 48.1269C30.3974 48.2002 29.6282 48.2383 28.8507 48.2383C28.0731 48.2383 27.303 48.2002 26.544 48.126C14.6099 46.968 5.28125 36.9071 5.28125 24.6684C5.28125 22.3441 5.61806 20.0986 6.24529 17.9775C6.45128 17.2798 6.68881 16.595 6.95603 15.926C10.429 7.2383 18.9226 1.09949 28.8507 1.09949C38.7787 1.09949 47.367 7.30697 50.8019 16.0717C51.0775 16.775 51.3206 17.496 51.5284 18.2299C52.1092 20.2768 52.4191 22.436 52.4191 24.6684Z" fill="white"/>
<path d="M28.8536 48.7022C28.0687 48.7022 27.2781 48.6632 26.5015 48.588C20.5892 48.0146 15.1186 45.2718 11.0973 40.8653C7.04995 36.4301 4.82031 30.6773 4.82031 24.6684C4.82031 22.3478 5.15063 20.0522 5.80384 17.8457C6.01261 17.1405 6.25571 16.4363 6.5285 15.7534C8.29142 11.3422 11.2977 7.57971 15.2225 4.87217C19.2401 2.10061 23.9536 0.635498 28.8536 0.635498C33.7537 0.635498 38.5173 2.11639 42.5497 4.91764C46.4894 7.65487 49.4938 11.4536 51.2373 15.9018C51.5184 16.62 51.768 17.3604 51.9786 18.1027C52.5817 20.2266 52.887 22.435 52.887 24.6674C52.887 30.6773 50.6573 36.4292 46.6091 40.8653C42.5878 45.2718 37.1162 48.0146 31.2039 48.588C30.4254 48.6632 29.6349 48.7012 28.8546 48.7012L28.8536 48.7022ZM28.8536 1.56337C24.1429 1.56337 19.6113 2.97189 15.7495 5.63674C11.9759 8.24035 9.08567 11.8572 7.39047 16.0985C7.12882 16.7545 6.89407 17.4309 6.69365 18.1092C6.06642 20.2303 5.74817 22.4368 5.74817 24.6684C5.74817 30.4453 7.89152 35.9754 11.7829 40.2399C15.6493 44.4766 20.9084 47.1127 26.5915 47.6648C28.0807 47.8105 29.6126 47.8105 31.1139 47.6657C36.797 47.1146 42.057 44.4776 45.9234 40.2409C49.8148 35.9764 51.9582 30.4462 51.9582 24.6684C51.9582 22.5222 51.6641 20.3983 51.0851 18.357C50.8828 17.6434 50.6434 16.9318 50.3725 16.2414C48.6959 11.9639 45.8074 8.3118 42.0199 5.68035C38.1443 2.98766 33.5913 1.5643 28.8536 1.5643V1.56337Z" fill="#002D59"/>
<path d="M22.4307 1.98352V40.8318H20.125V2.76665C20.8747 2.46694 21.6448 2.20528 22.4307 1.98352Z" fill="white"/>
<path d="M22.8976 41.2959H19.6641V2.45226L19.9554 2.33535C20.7172 2.03101 21.5086 1.76192 22.3075 1.53645L22.8976 1.37036V41.2959ZM20.5919 40.368H21.9698V2.60536C21.504 2.75011 21.0438 2.91063 20.5919 3.08322V40.368Z" fill="#002D59"/>
<path d="M38.1026 2.98438V40.8314H35.7969V2.14001C36.5837 2.38219 37.3538 2.66426 38.1026 2.98438Z" fill="white"/>
<path d="M38.5656 41.2957H35.332V1.51221L35.9324 1.69685C36.7322 1.94274 37.5236 2.23317 38.2835 2.55792L38.5647 2.67854V41.2957H38.5656ZM36.2599 40.3679H37.6378V3.2928C37.1868 3.10722 36.7257 2.93464 36.2599 2.7769V40.3679Z" fill="#002D59"/>
<path d="M42.9175 29.9969H15.3203V34.6085H42.9175V29.9969Z" fill="white"/>
<path d="M43.3796 35.0724H14.8555V29.533H43.3796V35.0724ZM15.7824 34.1445H42.4518V30.4608H15.7833V34.1445H15.7824Z" fill="#002D59"/>
<path d="M42.9175 20.6173H15.3203V25.2288H42.9175V20.6173Z" fill="white"/>
<path d="M43.3796 25.6927H14.8555V20.1533H43.3796V25.6927ZM15.7824 24.7649H42.4518V21.0812H15.7833V24.7649H15.7824Z" fill="#002D59"/>
<path d="M42.9175 10.4523H15.3203V15.0638H42.9175V10.4523Z" fill="white"/>
<path d="M43.3796 15.5277H14.8555V9.98828H43.3796V15.5277ZM15.7824 14.5998H42.4518V10.9162H15.7833V14.5998H15.7824Z" fill="#002D59"/>
</g>
<mask id="mask0_955_30" style="mask-type:alpha" maskUnits="userSpaceOnUse" x="6" y="3" width="46" height="46">
<ellipse cx="28.8126" cy="26.0496" rx="22.5977" ry="22.6525" fill="#D9D9D9"/>
</mask>
<g mask="url(#mask0_955_30)">
<path d="M20.9184 37.0515L19.0545 37.697L18.5039 42.214H38.7233L38.9145 38.3661C38.7791 38.3103 38.4556 38.1988 38.2453 38.1988C37.9824 38.1988 37.2893 37.8403 37.1459 37.697C37.0025 37.5536 35.9509 37.2906 35.8075 37.0515C35.6928 36.8603 35.0427 36.9718 34.732 37.0515L33.0829 38.1988H30.8841C30.4459 37.9518 29.517 37.4244 29.3067 37.2906C29.0438 37.1233 27.4664 37.2667 27.3469 37.2906C27.2274 37.3145 24.7418 38.3661 24.6223 38.3661C24.5267 38.3661 23.8814 38.1749 23.5707 38.0793L20.9184 37.0515Z" fill="white"/>
<path d="M2.87891 38.5998V38.1864C3.359 38.1864 3.83909 38.0552 4.2831 37.7916C4.55322 37.6319 4.82443 37.4712 5.09565 37.3115C5.98475 36.7855 7.01493 36.7855 7.90403 37.3115C8.17525 37.4712 8.44537 37.6319 8.71658 37.7916C9.60569 38.3176 10.6359 38.3176 11.525 37.7916C11.7962 37.6319 12.0674 37.4712 12.3375 37.3115C13.2266 36.7855 14.2568 36.7855 15.1459 37.3115C15.4171 37.4712 15.6883 37.6319 15.9585 37.7916C16.8476 38.3176 17.8777 38.3176 18.7668 37.7916C19.0381 37.6319 19.3093 37.4712 19.5794 37.3115C20.4685 36.7855 21.4987 36.7855 22.3878 37.3115C22.659 37.4712 22.9291 37.6319 23.2003 37.7916C24.0894 38.3176 25.1196 38.3176 26.0098 37.7916C26.281 37.6319 26.5511 37.4712 26.8224 37.3115C27.7115 36.7855 28.7416 36.7855 29.6307 37.3115C29.902 37.4712 30.1721 37.6319 30.4433 37.7916C31.3324 38.3176 32.3626 38.3176 33.2528 37.7916C33.524 37.6319 33.7941 37.4712 34.0653 37.3115C34.9544 36.7855 35.9846 36.7855 36.8748 37.3115C37.146 37.4712 37.4161 37.6319 37.6873 37.7916C38.5764 38.3176 39.6066 38.3176 40.4957 37.7916C40.7669 37.6319 41.0371 37.4712 41.3083 37.3115C42.1974 36.7855 43.2276 36.7855 44.1167 37.3115C44.3879 37.4712 44.658 37.6319 44.9292 37.7916C45.8183 38.3176 46.8485 38.3176 47.7376 37.7916C48.0088 37.6319 48.2789 37.4712 48.5502 37.3115C49.4393 36.7855 50.4694 36.7855 51.3585 37.3115C51.6298 37.4712 51.8999 37.6319 52.1711 37.7916C52.6162 38.0552 53.0952 38.1864 53.5753 38.1864V38.5998C53.0952 38.5998 52.6151 38.4685 52.1711 38.205C51.8999 38.0453 51.6298 37.8846 51.3585 37.7249C50.4694 37.1989 49.4393 37.1989 48.5502 37.7249C48.2789 37.8846 48.0077 38.0453 47.7376 38.205C46.8485 38.731 45.8183 38.731 44.9292 38.205C44.658 38.0453 44.3879 37.8846 44.1167 37.7249C43.2276 37.1989 42.1974 37.1989 41.3083 37.7249C41.0371 37.8846 40.7659 38.0453 40.4957 38.205C39.6055 38.731 38.5764 38.731 37.6873 38.205C37.4161 38.0453 37.146 37.8846 36.8748 37.7249C35.9846 37.1989 34.9555 37.1989 34.0653 37.7249C33.7941 37.8846 33.524 38.0453 33.2528 38.205C32.3637 38.731 31.3335 38.731 30.4433 38.205C30.1721 38.0453 29.902 37.8846 29.6307 37.7249C28.7416 37.1989 27.7115 37.1989 26.8224 37.7249C26.5511 37.8846 26.281 38.0453 26.0098 38.205C25.1207 38.731 24.0905 38.731 23.2003 38.205C22.9302 38.0453 22.659 37.8846 22.3878 37.7249C21.4987 37.1989 20.4685 37.1989 19.5794 37.7249C19.3082 37.8846 19.0381 38.0453 18.7668 38.205C17.8777 38.731 16.8476 38.731 15.9585 38.205C15.6872 38.0453 15.416 37.8846 15.1459 37.7249C14.2568 37.1989 13.2266 37.1989 12.3375 37.7249C12.0663 37.8846 11.7962 38.0453 11.525 38.205C10.6359 38.731 9.60569 38.731 8.71658 38.205C8.44537 38.0453 8.17525 37.8846 7.90403 37.7249C7.01493 37.1989 5.98475 37.1989 5.09565 37.7249C4.82443 37.8846 4.55431 38.0453 4.2831 38.205C3.838 38.4685 3.35791 38.5998 2.87891 38.5998Z" stroke="#002D59" stroke-width="0.460409" stroke-miterlimit="10"/>
<path d="M2.87891 41.736C3.359 41.736 3.83909 41.6048 4.2831 41.3412C4.55322 41.1816 4.82443 41.0208 5.09565 40.8611C5.98475 40.3351 7.01493 40.3351 7.90403 40.8611C8.17525 41.0208 8.44537 41.1816 8.71658 41.3412C9.60569 41.8672 10.6359 41.8672 11.525 41.3412C11.7962 41.1816 12.0674 41.0208 12.3375 40.8611C13.2266 40.3351 14.2568 40.3351 15.1459 40.8611C15.4171 41.0208 15.6883 41.1816 15.9585 41.3412C16.8476 41.8672 17.8777 41.8672 18.7668 41.3412C19.0381 41.1816 19.3093 41.0208 19.5794 40.8611C20.4685 40.3351 21.4987 40.3351 22.3878 40.8611C22.659 41.0208 22.9291 41.1816 23.2003 41.3412C24.0905 41.8672 25.1196 41.8672 26.0098 41.3412C26.281 41.1816 26.5511 41.0208 26.8224 40.8611C27.7115 40.3351 28.7416 40.3351 29.6307 40.8611C29.902 41.0208 30.1721 41.1816 30.4433 41.3412C31.3324 41.8672 32.3626 41.8672 33.2528 41.3412C33.524 41.1816 33.7941 41.0208 34.0653 40.8611C34.9544 40.3351 35.9846 40.3351 36.8748 40.8611C37.146 41.0208 37.4161 41.1816 37.6873 41.3412C38.5764 41.8672 39.6066 41.8672 40.4957 41.3412C40.7669 41.1816 41.0371 41.0208 41.3083 40.8611C42.1974 40.3351 43.2276 40.3351 44.1167 40.8611C44.3879 41.0208 44.658 41.1816 44.9292 41.3412C45.8183 41.8672 46.8485 41.8672 47.7376 41.3412C48.0088 41.1816 48.2789 41.0208 48.5502 40.8611C49.4393 40.3351 50.4694 40.3351 51.3585 40.8611C51.6298 41.0208 51.8999 41.1816 52.1711 41.3412C52.6162 41.6037 53.0952 41.736 53.5753 41.736V41.3226C53.0952 41.3226 52.6151 41.1914 52.1711 40.9278C51.8999 40.7682 51.6298 40.6074 51.3585 40.4477C50.4694 39.9217 49.4393 39.9217 48.5502 40.4477C48.2789 40.6074 48.0077 40.7682 47.7376 40.9278C46.8485 41.4539 45.8183 41.4539 44.9292 40.9278C44.658 40.7682 44.3879 40.6074 44.1167 40.4477C43.2276 39.9217 42.1974 39.9217 41.3083 40.4477C41.0371 40.6074 40.7659 40.7682 40.4957 40.9278C39.6055 41.4539 38.5764 41.4539 37.6873 40.9278C37.4161 40.7682 37.146 40.6074 36.8748 40.4477C35.9846 39.9217 34.9555 39.9217 34.0653 40.4477C33.7941 40.6074 33.524 40.7682 33.2528 40.9278C32.3637 41.4539 31.3335 41.4539 30.4433 40.9278C30.1721 40.7682 29.902 40.6074 29.6307 40.4477C28.7416 39.9217 27.7115 39.9217 26.8224 40.4477C26.5511 40.6074 26.281 40.7682 26.0098 40.9278C25.1207 41.4539 24.0905 41.4539 23.2003 40.9278C22.9302 40.7682 22.659 40.6074 22.3878 40.4477C21.4987 39.9217 20.4685 39.9217 19.5794 40.4477C19.3082 40.6074 19.0381 40.7682 18.7668 40.9278C17.8777 41.4539 16.8476 41.4539 15.9585 40.9278C15.6872 40.7682 15.416 40.6074 15.1459 40.4477C14.2568 39.9217 13.2266 39.9217 12.3375 40.4477C12.0663 40.6074 11.7962 40.7682 11.525 40.9278C10.6359 41.4539 9.60569 41.4539 8.71658 40.9278C8.44537 40.7682 8.17525 40.6074 7.90403 40.4477C7.01493 39.9217 5.98475 39.9217 5.09565 40.4477C4.82443 40.6074 4.55431 40.7682 4.2831 40.9278C3.838 41.1914 3.35791 41.3226 2.87891 41.3226V41.736Z" stroke="#002D59" stroke-width="0.460409" stroke-miterlimit="10"/>
<path d="M2.87891 44.8716V44.4582C3.359 44.4582 3.83909 44.327 4.2831 44.0635C4.55322 43.9038 4.82443 43.743 5.09565 43.5834C5.98475 43.0573 7.01493 43.0573 7.90403 43.5834C8.17525 43.743 8.44537 43.9038 8.71658 44.0635C9.60569 44.5895 10.6359 44.5895 11.525 44.0635C11.7962 43.9038 12.0674 43.743 12.3375 43.5834C13.2266 43.0573 14.2568 43.0573 15.1459 43.5834C15.4171 43.743 15.6883 43.9038 15.9585 44.0635C16.8476 44.5895 17.8777 44.5895 18.7668 44.0635C19.0381 43.9038 19.3093 43.743 19.5794 43.5834C20.4685 43.0573 21.4987 43.0573 22.3878 43.5834C22.659 43.743 22.9291 43.9038 23.2003 44.0635C24.0894 44.5895 25.1196 44.5895 26.0098 44.0635C26.281 43.9038 26.5511 43.743 26.8224 43.5834C27.7115 43.0573 28.7416 43.0573 29.6307 43.5834C29.902 43.743 30.1721 43.9038 30.4433 44.0635C31.3324 44.5895 32.3626 44.5895 33.2528 44.0635C33.524 43.9038 33.7941 43.743 34.0653 43.5834C34.9544 43.0573 35.9846 43.0573 36.8748 43.5834C37.146 43.743 37.4161 43.9038 37.6873 44.0635C38.5764 44.5895 39.6066 44.5895 40.4957 44.0635C40.7669 43.9038 41.0371 43.743 41.3083 43.5834C42.1974 43.0573 43.2276 43.0573 44.1167 43.5834C44.3879 43.743 44.658 43.9038 44.9292 44.0635C45.8183 44.5895 46.8485 44.5895 47.7376 44.0635C48.0088 43.9038 48.2789 43.743 48.5502 43.5834C49.4393 43.0573 50.4694 43.0573 51.3585 43.5834C51.6298 43.743 51.8999 43.9038 52.1711 44.0635C52.6162 44.327 53.0952 44.4582 53.5753 44.4582V44.8716C53.0952 44.8716 52.6151 44.7404 52.1711 44.4768C51.8999 44.3172 51.6298 44.1564 51.3585 43.9967C50.4694 43.4707 49.4393 43.4707 48.5502 43.9967C48.2789 44.1575 48.0077 44.3172 47.7376 44.4768C46.8485 45.0029 45.8183 45.0029 44.9292 44.4768C44.658 44.3172 44.3879 44.1564 44.1167 43.9967C43.2276 43.4707 42.1974 43.4707 41.3083 43.9967C41.0371 44.1575 40.7659 44.3172 40.4957 44.4768C39.6055 45.0029 38.5764 45.0029 37.6873 44.4768C37.4161 44.3172 37.146 44.1564 36.8748 43.9967C35.9846 43.4707 34.9555 43.4707 34.0653 43.9967C33.7941 44.1575 33.524 44.3172 33.2528 44.4768C32.3637 45.0029 31.3335 45.0029 30.4433 44.4768C30.1721 44.3172 29.902 44.1564 29.6307 43.9967C28.7416 43.4707 27.7115 43.4707 26.8224 43.9967C26.5511 44.1575 26.281 44.3172 26.0098 44.4768C25.1207 45.0029 24.0905 45.0029 23.2003 44.4768C22.9302 44.3172 22.659 44.1564 22.3878 43.9967C21.4987 43.4707 20.4685 43.4707 19.5794 43.9967C19.3082 44.1575 19.0381 44.3172 18.7668 44.4768C17.8777 45.0029 16.8476 45.0029 15.9585 44.4768C15.6872 44.3172 15.416 44.1564 15.1459 43.9967C14.2568 43.4707 13.2266 43.4707 12.3375 43.9967C12.0663 44.1575 11.7962 44.3172 11.525 44.4768C10.6359 45.0029 9.60569 45.0029 8.71658 44.4768C8.44537 44.3172 8.17525 44.1564 7.90403 43.9967C7.01493 43.4707 5.98475 43.4707 5.09565 43.9967C4.82443 44.1575 4.55431 44.3172 4.2831 44.4768C3.838 44.7393 3.35791 44.8716 2.87891 44.8716Z" stroke="#002D59" stroke-width="0.460409" stroke-miterlimit="10"/>
</g>
<defs>
<filter id="filter0_d_955_30" x="0.814757" y="0.635498" width="56.0775" height="56.0778" filterUnits="userSpaceOnUse" color-interpolation-filters="sRGB">
<feFlood flood-opacity="0" result="BackgroundImageFix"/>
<feColorMatrix in="SourceAlpha" type="matrix" values="0 0 0 0 0 0 0 0 0 0 0 0 0 0 0 0 0 0 127 0" result="hardAlpha"/>
<feOffset dy="4.00556"/>
<feGaussianBlur stdDeviation="2.00278"/>
<feComposite in2="hardAlpha" operator="out"/>
<feColorMatrix type="matrix" values="0 0 0 0 0 0 0 0 0 0 0 0 0 0 0 0 0 0 0.25 0"/>
<feBlend mode="normal" in2="BackgroundImageFix" result="effect1_dropShadow_955_30"/>
<feBlend mode="normal" in="SourceGraphic" in2="effect1_dropShadow_955_30" result="shape"/>
</filter>
</defs>
</svg>
