<svg width="34" height="34" viewBox="0 0 34 34" fill="none" xmlns="http://www.w3.org/2000/svg">
<path fill-rule="evenodd" clip-rule="evenodd" d="M33.6198 17.2723C33.6198 25.6732 27.2168 32.5787 19.025 33.3735C18.5046 33.4239 17.9767 33.45 17.443 33.45C16.9093 33.45 16.3807 33.4239 15.8598 33.3729C7.66856 32.5781 1.26562 25.6725 1.26562 17.2723C1.26562 15.6769 1.4968 14.1357 1.92732 12.6798C2.0687 12.2009 2.23173 11.7309 2.41515 11.2717C4.79889 5.30873 10.6287 1.09521 17.443 1.09521C24.2574 1.09521 30.1521 5.35585 32.5097 11.3717C32.6989 11.8544 32.8657 12.3493 33.0084 12.8531C33.407 14.258 33.6198 15.74 33.6198 17.2723Z" fill="white"/>
<path d="M17.445 33.7685C16.9062 33.7685 16.3636 33.7417 15.8306 33.6901C11.7726 33.2966 8.01767 31.414 5.25754 28.3895C2.47958 25.3453 0.949219 21.3967 0.949219 17.2723C0.949219 15.6795 1.17594 14.1039 1.62428 12.5895C1.76758 12.1054 1.93443 11.6221 2.12167 11.1533C3.33169 8.12566 5.3951 5.54317 8.089 3.68479C10.8466 1.78247 14.0818 0.776855 17.445 0.776855C20.8083 0.776855 24.0779 1.7933 26.8456 3.716C29.5497 5.59475 31.6119 8.20209 32.8085 11.2552C33.0015 11.7482 33.1728 12.2564 33.3174 12.7659C33.7313 14.2237 33.9408 15.7394 33.9408 17.2717C33.9408 21.3967 32.4105 25.3446 29.6319 28.3895C26.8717 31.414 23.1162 33.2966 19.0582 33.6901C18.5239 33.7417 17.9813 33.7678 17.4457 33.7678L17.445 33.7685ZM17.445 1.41372C14.2117 1.41372 11.1013 2.38049 8.45073 4.20957C5.86064 5.99662 3.87684 8.47912 2.71331 11.3902C2.53371 11.8405 2.37259 12.3048 2.23503 12.7703C1.80451 14.2262 1.58607 15.7407 1.58607 17.2723C1.58607 21.2375 3.05721 25.0332 5.72818 27.9602C8.38195 30.8682 11.9916 32.6775 15.8924 33.0564C16.9145 33.1564 17.966 33.1564 18.9964 33.0571C22.8971 32.6788 26.5075 30.8688 29.1612 27.9609C31.8322 25.0338 33.3033 21.2381 33.3033 17.2723C33.3033 15.7993 33.1015 14.3415 32.7041 12.9404C32.5652 12.4506 32.4009 11.9621 32.215 11.4883C31.0642 8.55236 29.0816 6.04565 26.482 4.2395C23.8219 2.39131 20.6968 1.41436 17.445 1.41436V1.41372Z" fill="#002D59"/>
<path d="M13.0318 1.70215V28.3665H11.4492V2.23966C11.9638 2.03396 12.4924 1.85436 13.0318 1.70215Z" fill="white"/>
<path d="M13.3523 28.685H11.1328V2.02384L11.3328 1.94359C11.8556 1.7347 12.3989 1.55001 12.9472 1.39525L13.3523 1.28125V28.685ZM11.7697 28.0481H12.7154V2.12892C12.3957 2.22827 12.0798 2.33845 11.7697 2.45691V28.0481Z" fill="#002D59"/>
<path d="M23.7896 2.38888V28.366H22.207V1.80933C22.7471 1.97555 23.2757 2.16916 23.7896 2.38888Z" fill="white"/>
<path d="M24.1062 28.6847H21.8867V1.37842L22.2988 1.50515C22.8477 1.67392 23.391 1.87326 23.9126 2.09617L24.1055 2.17896V28.6847H24.1062ZM22.5236 28.0479H23.4693V2.60057C23.1598 2.47319 22.8433 2.35473 22.5236 2.24647V28.0479Z" fill="#002D59"/>
<path d="M27.0943 20.9294H8.15234V24.0947H27.0943V20.9294Z" fill="white"/>
<path d="M27.4102 24.4132H7.83203V20.6111H27.4102V24.4132ZM8.46825 23.7763H26.7734V21.248H8.46889V23.7763H8.46825Z" fill="#002D59"/>
<path d="M27.0943 14.4917H8.15234V17.6569H27.0943V14.4917Z" fill="white"/>
<path d="M27.4102 17.9752H7.83203V14.1731H27.4102V17.9752ZM8.46825 17.3383H26.7734V14.81H8.46889V17.3383H8.46825Z" fill="#002D59"/>
<path d="M27.0943 7.51489H8.15234V10.6801H27.0943V7.51489Z" fill="white"/>
<path d="M27.4102 10.9984H7.83203V7.19629H27.4102V10.9984ZM8.46825 10.3615H26.7734V7.83316H8.46889V10.3615H8.46825Z" fill="#002D59"/>
<mask id="mask0_955_168" style="mask-type:alpha" maskUnits="userSpaceOnUse" x="1" y="2" width="32" height="32">
<ellipse cx="17.4167" cy="18.2202" rx="15.5105" ry="15.5481" fill="#D9D9D9"/>
</mask>
<g mask="url(#mask0_955_168)">
<path d="M11.9932 25.7717L10.7139 26.2147L10.3359 29.3151H24.214L24.3452 26.674C24.2523 26.6357 24.0302 26.5592 23.8859 26.5592C23.7054 26.5592 23.2297 26.3131 23.1313 26.2147C23.0329 26.1163 22.3111 25.9358 22.2127 25.7717C22.1339 25.6404 21.6877 25.717 21.4745 25.7717L20.3426 26.5592H18.8334C18.5326 26.3897 17.895 26.0277 17.7507 25.9358C17.5702 25.821 16.4876 25.9194 16.4055 25.9358C16.3235 25.9522 14.6175 26.674 14.5354 26.674C14.4698 26.674 14.0269 26.5428 13.8136 26.4771L11.9932 25.7717Z" fill="white"/>
<path d="M-0.382812 26.834V26.5502C-0.0532895 26.5502 0.276233 26.4602 0.580986 26.2793C0.76639 26.1697 0.952544 26.0593 1.1387 25.9497C1.74895 25.5887 2.45604 25.5887 3.06629 25.9497C3.25245 26.0593 3.43785 26.1697 3.62401 26.2793C4.23426 26.6403 4.94135 26.6403 5.5516 26.2793C5.73776 26.1697 5.92391 26.0593 6.10932 25.9497C6.71957 25.5887 7.42666 25.5887 8.03691 25.9497C8.22307 26.0593 8.40922 26.1697 8.59462 26.2793C9.20488 26.6403 9.91197 26.6403 10.5222 26.2793C10.7084 26.1697 10.8945 26.0593 11.0799 25.9497C11.6902 25.5887 12.3973 25.5887 13.0075 25.9497C13.1937 26.0593 13.3791 26.1697 13.5652 26.2793C14.1755 26.6403 14.8826 26.6403 15.4936 26.2793C15.6797 26.1697 15.8651 26.0593 16.0513 25.9497C16.6616 25.5887 17.3686 25.5887 17.9789 25.9497C18.1651 26.0593 18.3505 26.1697 18.5366 26.2793C19.1469 26.6403 19.854 26.6403 20.465 26.2793C20.6511 26.1697 20.8365 26.0593 21.0227 25.9497C21.6329 25.5887 22.34 25.5887 22.951 25.9497C23.1372 26.0593 23.3226 26.1697 23.5087 26.2793C24.119 26.6403 24.8261 26.6403 25.4363 26.2793C25.6225 26.1697 25.8079 26.0593 25.994 25.9497C26.6043 25.5887 27.3114 25.5887 27.9216 25.9497C28.1078 26.0593 28.2932 26.1697 28.4793 26.2793C29.0896 26.6403 29.7967 26.6403 30.4069 26.2793C30.5931 26.1697 30.7785 26.0593 30.9647 25.9497C31.5749 25.5887 32.282 25.5887 32.8923 25.9497C33.0784 26.0593 33.2638 26.1697 33.45 26.2793C33.7555 26.4602 34.0842 26.5502 34.4138 26.5502V26.834C34.0842 26.834 33.7547 26.7439 33.45 26.563C33.2638 26.4534 33.0784 26.3431 32.8923 26.2335C32.282 25.8724 31.5749 25.8724 30.9647 26.2335C30.7785 26.3431 30.5923 26.4534 30.4069 26.563C29.7967 26.924 29.0896 26.924 28.4793 26.563C28.2932 26.4534 28.1078 26.3431 27.9216 26.2335C27.3114 25.8724 26.6043 25.8724 25.994 26.2335C25.8079 26.3431 25.6217 26.4534 25.4363 26.563C24.8253 26.924 24.119 26.924 23.5087 26.563C23.3226 26.4534 23.1372 26.3431 22.951 26.2335C22.34 25.8724 21.6337 25.8724 21.0227 26.2335C20.8365 26.3431 20.6511 26.4534 20.465 26.563C19.8547 26.924 19.1476 26.924 18.5366 26.563C18.3505 26.4534 18.1651 26.3431 17.9789 26.2335C17.3686 25.8724 16.6616 25.8724 16.0513 26.2335C15.8651 26.3431 15.6797 26.4534 15.4936 26.563C14.8833 26.924 14.1762 26.924 13.5652 26.563C13.3798 26.4534 13.1937 26.3431 13.0075 26.2335C12.3973 25.8724 11.6902 25.8724 11.0799 26.2335C10.8938 26.3431 10.7084 26.4534 10.5222 26.563C9.91197 26.924 9.20488 26.924 8.59462 26.563C8.40847 26.4534 8.22232 26.3431 8.03691 26.2335C7.42666 25.8724 6.71957 25.8724 6.10932 26.2335C5.92316 26.3431 5.73776 26.4534 5.5516 26.563C4.94135 26.924 4.23426 26.924 3.62401 26.563C3.43785 26.4534 3.25245 26.3431 3.06629 26.2335C2.45604 25.8724 1.74895 25.8724 1.1387 26.2335C0.952544 26.3431 0.76714 26.4534 0.580986 26.563C0.275483 26.7439 -0.0540401 26.834 -0.382812 26.834Z" stroke="#002D59" stroke-width="0.316012" stroke-miterlimit="10"/>
<path d="M-0.382812 28.9866C-0.0532895 28.9866 0.276234 28.8965 0.580986 28.7156C0.76639 28.606 0.952544 28.4957 1.1387 28.3861C1.74895 28.025 2.45604 28.025 3.06629 28.3861C3.25245 28.4957 3.43785 28.606 3.62401 28.7156C4.23426 29.0766 4.94135 29.0766 5.5516 28.7156C5.73776 28.606 5.92391 28.4957 6.10932 28.3861C6.71957 28.025 7.42666 28.025 8.03691 28.3861C8.22307 28.4957 8.40922 28.606 8.59462 28.7156C9.20488 29.0766 9.91197 29.0766 10.5222 28.7156C10.7084 28.606 10.8945 28.4957 11.0799 28.3861C11.6902 28.025 12.3973 28.025 13.0075 28.3861C13.1937 28.4957 13.3791 28.606 13.5652 28.7156C14.1762 29.0766 14.8826 29.0766 15.4936 28.7156C15.6797 28.606 15.8651 28.4957 16.0513 28.3861C16.6616 28.025 17.3686 28.025 17.9789 28.3861C18.1651 28.4957 18.3505 28.606 18.5366 28.7156C19.1469 29.0766 19.854 29.0766 20.465 28.7156C20.6511 28.606 20.8365 28.4957 21.0227 28.3861C21.6329 28.025 22.34 28.025 22.951 28.3861C23.1372 28.4957 23.3226 28.606 23.5087 28.7156C24.119 29.0766 24.8261 29.0766 25.4363 28.7156C25.6225 28.606 25.8079 28.4957 25.994 28.3861C26.6043 28.025 27.3114 28.025 27.9216 28.3861C28.1078 28.4957 28.2932 28.606 28.4793 28.7156C29.0896 29.0766 29.7967 29.0766 30.4069 28.7156C30.5931 28.606 30.7785 28.4957 30.9647 28.3861C31.5749 28.025 32.282 28.025 32.8923 28.3861C33.0784 28.4957 33.2638 28.606 33.45 28.7156C33.7555 28.8957 34.0842 28.9866 34.4138 28.9866V28.7028C34.0842 28.7028 33.7547 28.6128 33.45 28.4319C33.2638 28.3223 33.0784 28.2119 32.8923 28.1023C32.282 27.7413 31.5749 27.7413 30.9647 28.1023C30.7785 28.2119 30.5923 28.3223 30.4069 28.4319C29.7967 28.7929 29.0896 28.7929 28.4793 28.4319C28.2932 28.3223 28.1078 28.2119 27.9216 28.1023C27.3114 27.7413 26.6043 27.7413 25.994 28.1023C25.8079 28.2119 25.6217 28.3223 25.4363 28.4319C24.8253 28.7929 24.119 28.7929 23.5087 28.4319C23.3226 28.3223 23.1372 28.2119 22.951 28.1023C22.34 27.7413 21.6337 27.7413 21.0227 28.1023C20.8365 28.2119 20.6511 28.3223 20.465 28.4319C19.8547 28.7929 19.1476 28.7929 18.5366 28.4319C18.3505 28.3223 18.1651 28.2119 17.9789 28.1023C17.3686 27.7413 16.6616 27.7413 16.0513 28.1023C15.8651 28.2119 15.6797 28.3223 15.4936 28.4319C14.8833 28.7929 14.1762 28.7929 13.5652 28.4319C13.3798 28.3223 13.1937 28.2119 13.0075 28.1023C12.3973 27.7413 11.6902 27.7413 11.0799 28.1023C10.8938 28.2119 10.7084 28.3223 10.5222 28.4319C9.91197 28.7929 9.20488 28.7929 8.59462 28.4319C8.40847 28.3223 8.22232 28.2119 8.03691 28.1023C7.42666 27.7413 6.71957 27.7413 6.10932 28.1023C5.92316 28.2119 5.73776 28.3223 5.5516 28.4319C4.94135 28.7929 4.23426 28.7929 3.62401 28.4319C3.43785 28.3223 3.25245 28.2119 3.06629 28.1023C2.45604 27.7413 1.74895 27.7413 1.1387 28.1023C0.952544 28.2119 0.76714 28.3223 0.580986 28.4319C0.275483 28.6128 -0.0540401 28.7028 -0.382812 28.7028V28.9866Z" stroke="#002D59" stroke-width="0.316012" stroke-miterlimit="10"/>
<path d="M-0.382812 31.1389V30.8552C-0.0532895 30.8552 0.276234 30.7651 0.580986 30.5842C0.76639 30.4746 0.952544 30.3643 1.1387 30.2547C1.74895 29.8936 2.45604 29.8936 3.06629 30.2547C3.25245 30.3643 3.43785 30.4746 3.62401 30.5842C4.23426 30.9452 4.94135 30.9452 5.5516 30.5842C5.73776 30.4746 5.92391 30.3643 6.10932 30.2547C6.71957 29.8936 7.42666 29.8936 8.03691 30.2547C8.22307 30.3643 8.40922 30.4746 8.59462 30.5842C9.20488 30.9452 9.91197 30.9452 10.5222 30.5842C10.7084 30.4746 10.8945 30.3643 11.0799 30.2547C11.6902 29.8936 12.3973 29.8936 13.0075 30.2547C13.1937 30.3643 13.3791 30.4746 13.5652 30.5842C14.1755 30.9452 14.8826 30.9452 15.4936 30.5842C15.6797 30.4746 15.8651 30.3643 16.0513 30.2547C16.6616 29.8936 17.3686 29.8936 17.9789 30.2547C18.1651 30.3643 18.3505 30.4746 18.5366 30.5842C19.1469 30.9452 19.854 30.9452 20.465 30.5842C20.6511 30.4746 20.8365 30.3643 21.0227 30.2547C21.6329 29.8936 22.34 29.8936 22.951 30.2547C23.1372 30.3643 23.3226 30.4746 23.5087 30.5842C24.119 30.9452 24.8261 30.9452 25.4363 30.5842C25.6225 30.4746 25.8079 30.3643 25.994 30.2547C26.6043 29.8936 27.3114 29.8936 27.9216 30.2547C28.1078 30.3643 28.2932 30.4746 28.4793 30.5842C29.0896 30.9452 29.7967 30.9452 30.4069 30.5842C30.5931 30.4746 30.7785 30.3643 30.9647 30.2547C31.5749 29.8936 32.282 29.8936 32.8923 30.2547C33.0784 30.3643 33.2638 30.4746 33.45 30.5842C33.7555 30.7651 34.0842 30.8552 34.4138 30.8552V31.1389C34.0842 31.1389 33.7547 31.0488 33.45 30.8679C33.2638 30.7583 33.0784 30.648 32.8923 30.5384C32.282 30.1774 31.5749 30.1774 30.9647 30.5384C30.7785 30.6487 30.5923 30.7583 30.4069 30.8679C29.7967 31.229 29.0896 31.229 28.4793 30.8679C28.2932 30.7583 28.1078 30.648 27.9216 30.5384C27.3114 30.1774 26.6043 30.1774 25.994 30.5384C25.8079 30.6487 25.6217 30.7583 25.4363 30.8679C24.8253 31.229 24.119 31.229 23.5087 30.8679C23.3226 30.7583 23.1372 30.648 22.951 30.5384C22.34 30.1774 21.6337 30.1774 21.0227 30.5384C20.8365 30.6487 20.6511 30.7583 20.465 30.8679C19.8547 31.229 19.1476 31.229 18.5366 30.8679C18.3505 30.7583 18.1651 30.648 17.9789 30.5384C17.3686 30.1774 16.6616 30.1774 16.0513 30.5384C15.8651 30.6487 15.6797 30.7583 15.4936 30.8679C14.8833 31.229 14.1762 31.229 13.5652 30.8679C13.3798 30.7583 13.1937 30.648 13.0075 30.5384C12.3973 30.1774 11.6902 30.1774 11.0799 30.5384C10.8938 30.6487 10.7084 30.7583 10.5222 30.8679C9.91197 31.229 9.20488 31.229 8.59462 30.8679C8.40847 30.7583 8.22232 30.648 8.03691 30.5384C7.42666 30.1774 6.71957 30.1774 6.10932 30.5384C5.92316 30.6487 5.73776 30.7583 5.5516 30.8679C4.94135 31.229 4.23426 31.229 3.62401 30.8679C3.43785 30.7583 3.25245 30.648 3.06629 30.5384C2.45604 30.1774 1.74895 30.1774 1.1387 30.5384C0.952544 30.6487 0.76714 30.7583 0.580986 30.8679C0.275483 31.0481 -0.0540401 31.1389 -0.382812 31.1389Z" stroke="#002D59" stroke-width="0.316012" stroke-miterlimit="10"/>
</g>
</svg>
