<svg width="64" height="64" viewBox="0 0 64 64" fill="none" xmlns="http://www.w3.org/2000/svg">
<path d="M31.6648 63.5625C30.6353 63.5625 29.5964 63.5123 28.5773 63.412C20.8183 62.659 13.6372 59.0591 8.35867 53.2764C3.04749 47.4551 0.121094 39.905 0.121094 32.0177C0.121094 28.971 0.555326 25.9582 1.41095 23.0634C1.6841 22.1377 2.00393 21.2132 2.36229 20.3179C4.67703 14.5281 8.62248 9.59048 13.7737 6.03724C19.0476 2.39879 25.2342 0.475098 31.6648 0.475098C38.0954 0.475098 44.3486 2.41864 49.6411 6.09561C54.8122 9.68853 58.7553 14.674 61.0432 20.5128C61.4132 21.456 61.7401 22.4272 62.0156 23.4019C62.807 26.1894 63.2074 29.0889 63.2074 32.0188C63.2074 39.9062 60.281 47.4562 54.9686 53.2775C49.6901 59.0603 42.5089 62.6602 34.7488 63.4131C33.7262 63.5123 32.6897 63.5625 31.6648 63.5625ZM31.6648 1.64239C25.4723 1.64239 19.5145 3.49371 14.4368 6.99792C9.47577 10.4204 5.67507 15.176 3.44671 20.751C3.10236 21.6136 2.79419 22.5031 2.53038 23.3949C1.70628 26.1824 1.28839 29.0842 1.28839 32.0188C1.28839 39.6144 4.10623 46.8843 9.22247 52.4896C14.306 58.0588 21.2199 61.5256 28.6917 62.2505C30.6504 62.4419 32.6628 62.4431 34.6367 62.2517C42.1086 61.5268 49.0236 58.0599 54.1072 52.4908C59.2234 46.8843 62.0412 39.6144 62.0412 32.0188C62.0412 29.1975 61.6549 26.4053 60.8938 23.7205C60.6277 22.782 60.3136 21.847 59.9576 20.9389C57.7538 15.316 53.9566 10.515 48.9757 7.05395C43.8793 3.51356 37.8946 1.64239 31.666 1.64239H31.6648Z" fill="white"/>
<path fill-rule="evenodd" clip-rule="evenodd" d="M61.4011 31.9127C61.4011 47.4136 49.5868 60.1553 34.4716 61.6218C33.5116 61.7147 32.5374 61.7628 31.5527 61.7628C30.568 61.7628 29.5926 61.7147 28.6314 61.6206C13.5175 60.1541 1.70312 47.4124 1.70312 31.9127C1.70312 28.969 2.12968 26.1253 2.92404 23.439C3.18491 22.5553 3.48573 21.6881 3.82416 20.8408C8.22251 9.83825 18.9793 2.06372 31.5527 2.06372C44.1261 2.06372 55.0027 9.92521 59.3529 21.0253C59.7019 21.916 60.0098 22.8291 60.273 23.7586C61.0086 26.3509 61.4011 29.0854 61.4011 31.9127Z" fill="white"/>
<path d="M31.5543 62.3505C30.5614 62.3505 29.5602 62.3012 28.5755 62.206C21.0878 61.4798 14.1595 58.0062 9.06665 52.4256C3.94092 46.8085 1.11719 39.524 1.11719 31.9128C1.11719 28.9739 1.53552 26.0667 2.36278 23.2723C2.62717 22.378 2.93505 21.4873 3.28052 20.6224C5.51319 15.0359 9.32047 10.2708 14.2911 6.84187C19.3792 3.33182 25.3487 1.47632 31.5543 1.47632C37.7599 1.47632 43.7928 3.35179 48.8998 6.89945C53.8892 10.366 57.6941 15.1769 59.9021 20.8104C60.2582 21.7199 60.5743 22.6577 60.841 23.5978C61.6048 26.2876 61.9914 29.0855 61.9914 31.9117C61.9914 39.5229 59.1677 46.8074 54.0408 52.4256C48.9479 58.0062 42.0185 61.4798 34.5308 62.206C33.5437 62.3012 32.5425 62.3494 31.5555 62.3494L31.5543 62.3505ZM31.5543 2.65143C25.5884 2.65143 19.8493 4.43525 14.9585 7.81016C10.1795 11.1075 6.51906 15.6881 4.37218 21.0595C4.04081 21.8903 3.74351 22.747 3.48969 23.606C2.69533 26.2923 2.29227 29.0867 2.29227 31.9128C2.29227 39.2291 5.00673 46.2327 9.93504 51.6335C14.8316 56.9991 21.492 60.3376 28.6894 61.0368C30.5778 61.2213 32.5143 61.2224 34.4168 61.0368C41.6142 60.3388 48.2758 56.9991 53.1724 51.6335C58.1007 46.2327 60.8152 39.2291 60.8152 31.9117C60.8152 29.1936 60.4426 26.5038 59.7094 23.9174C59.4532 23.0137 59.1501 22.1124 58.8069 21.2381C56.6835 15.8209 53.0255 11.1957 48.2288 7.86304C43.3205 4.45287 37.5543 2.65025 31.5543 2.65025V2.65143Z" fill="#002D59"/>
<path d="M17.7695 37.2089H15.8684L16.1877 38.277L17.7695 40.6537L19.7817 42.4797L22.1004 43.8709C23.1438 44.4409 25.2828 45.5925 25.4915 45.6389C25.7524 45.6968 28.216 46.2804 28.4768 46.4805C28.6855 46.6406 29.2594 46.4138 29.5203 46.2804V30.0385H21.8975C21.6657 30.0385 21.2213 29.7341 21.028 29.5819C20.8251 29.2437 20.4194 28.5153 20.4194 28.3066C20.4194 28.0458 20.6223 27.804 20.7092 27.524C20.7788 27.3001 20.9507 26.8169 21.028 26.6033L29.5203 26.3032V23.0015H32.978V26.3032H40.4486L41.716 26.6033L42.5831 27.804V29.0046C42.1384 29.2826 41.209 29.8384 41.049 29.8384H33.2782V46.4805C33.734 46.4361 34.6856 46.3338 34.8457 46.2804C35.0058 46.2271 37.6027 45.6356 38.8811 45.3466L43.617 42.0782L46.3851 39.21L47.1855 37.2089L45.3512 36.9088L46.3851 34.3408L49.3867 29.8384L53.2554 36.9088H50.7874L49.5868 38.8765L47.7859 41.8114C46.474 42.9342 43.8037 45.2132 43.617 45.3466C43.3835 45.5133 38.7144 47.8146 38.5143 47.8813C38.3542 47.9346 34.9569 48.7261 33.2782 49.1152C33.2004 50.1602 33.0314 52.3169 32.978 52.5837C32.9247 52.8505 32.311 53.1841 32.0109 53.3175C31.6551 53.3508 30.8903 53.3975 30.6768 53.3175C30.4634 53.2374 30.0765 52.795 29.9097 52.5837L29.4428 49.1152L27.9087 48.7484C26.1633 48.3259 22.6126 47.461 22.3724 47.381C22.0723 47.2809 18.8372 45.0798 18.7038 44.9464C18.5704 44.813 15.1353 41.7113 15.0019 41.5779C14.8952 41.4712 13.1565 38.6208 12.3004 37.2089L9.76562 36.9088L13.368 30.3387L13.8678 30.0385L17.7695 37.2089Z" fill="white"/>
<mask id="mask0_909_6470" style="mask-type:alpha" maskUnits="userSpaceOnUse" x="2" y="2" width="59" height="60">
<path fill-rule="evenodd" clip-rule="evenodd" d="M60.8973 31.9129C60.8973 47.1762 49.2639 59.7226 34.3801 61.1667C33.4348 61.2581 32.4755 61.3055 31.5059 61.3055C30.5362 61.3055 29.5758 61.2581 28.6293 61.1655C13.7467 59.7215 2.11328 47.1751 2.11328 31.9129C2.11328 29.0144 2.53331 26.2142 3.31551 23.5691C3.57238 22.699 3.8686 21.845 4.20184 21.0108C8.53286 10.1768 19.1249 2.52148 31.5059 2.52148C43.8868 2.52148 54.5969 10.2625 58.8805 21.1924C59.2242 22.0695 59.5273 22.9686 59.7865 23.8838C60.5109 26.4364 60.8973 29.129 60.8973 31.9129Z" fill="white"/>
</mask>
<g mask="url(#mask0_909_6470)">
<path d="M-2.23438 45.6219V45.0815C-1.60679 45.0815 -0.979203 44.91 -0.398793 44.5654C-0.0456867 44.3567 0.308849 44.1466 0.663385 43.9378C1.82563 43.2502 3.1723 43.2502 4.33455 43.9378C4.68909 44.1466 5.04219 44.3567 5.39673 44.5654C6.55898 45.2531 7.90564 45.2531 9.06789 44.5654C9.42243 44.3567 9.77696 44.1466 10.1301 43.9378C11.2923 43.2502 12.639 43.2502 13.8012 43.9378C14.1558 44.1466 14.5103 44.3567 14.8634 44.5654C16.0257 45.2531 17.3723 45.2531 18.5346 44.5654C18.8891 44.3567 19.2436 44.1466 19.5968 43.9378C20.759 43.2502 22.1057 43.2502 23.2679 43.9378C23.6225 44.1466 23.9756 44.3567 24.3301 44.5654C25.4923 45.2531 26.839 45.2531 28.0027 44.5654C28.3572 44.3567 28.7103 44.1466 29.0649 43.9378C30.2271 43.2502 31.5738 43.2502 32.736 43.9378C33.0906 44.1466 33.4437 44.3567 33.7982 44.5654C34.9605 45.2531 36.3071 45.2531 37.4708 44.5654C37.8253 44.3567 38.1785 44.1466 38.533 43.9378C39.6952 43.2502 41.0419 43.2502 42.2056 43.9378C42.5601 44.1466 42.9132 44.3567 43.2678 44.5654C44.43 45.2531 45.7767 45.2531 46.9389 44.5654C47.2935 44.3567 47.6466 44.1466 48.0011 43.9378C49.1634 43.2502 50.51 43.2502 51.6723 43.9378C52.0268 44.1466 52.3799 44.3567 52.7344 44.5654C53.8967 45.2531 55.2434 45.2531 56.4056 44.5654C56.7601 44.3567 57.1132 44.1466 57.4678 43.9378C58.63 43.2502 59.9767 43.2502 61.1389 43.9378C61.4935 44.1466 61.8466 44.3567 62.2011 44.5654C62.783 44.91 63.4091 45.0815 64.0367 45.0815V45.6219C63.4091 45.6219 62.7815 45.4503 62.2011 45.1058C61.8466 44.8971 61.4935 44.6869 61.1389 44.4782C59.9767 43.7906 58.63 43.7906 57.4678 44.4782C57.1132 44.6869 56.7587 44.8971 56.4056 45.1058C55.2434 45.7934 53.8967 45.7934 52.7344 45.1058C52.3799 44.8971 52.0268 44.6869 51.6723 44.4782C50.51 43.7906 49.1634 43.7906 48.0011 44.4782C47.6466 44.6869 47.292 44.8971 46.9389 45.1058C45.7752 45.7934 44.43 45.7934 43.2678 45.1058C42.9132 44.8971 42.5601 44.6869 42.2056 44.4782C41.0419 43.7906 39.6967 43.7906 38.533 44.4782C38.1785 44.6869 37.8253 44.8971 37.4708 45.1058C36.3086 45.7934 34.9619 45.7934 33.7982 45.1058C33.4437 44.8971 33.0906 44.6869 32.736 44.4782C31.5738 43.7906 30.2271 43.7906 29.0649 44.4782C28.7103 44.6869 28.3572 44.8971 28.0027 45.1058C26.8404 45.7934 25.4938 45.7934 24.3301 45.1058C23.977 44.8971 23.6225 44.6869 23.2679 44.4782C22.1057 43.7906 20.759 43.7906 19.5968 44.4782C19.2422 44.6869 18.8891 44.8971 18.5346 45.1058C17.3723 45.7934 16.0257 45.7934 14.8634 45.1058C14.5089 44.8971 14.1543 44.6869 13.8012 44.4782C12.639 43.7906 11.2923 43.7906 10.1301 44.4782C9.77553 44.6869 9.42243 44.8971 9.06789 45.1058C7.90564 45.7934 6.55898 45.7934 5.39673 45.1058C5.04219 44.8971 4.68909 44.6869 4.33455 44.4782C3.1723 43.7906 1.82563 43.7906 0.663385 44.4782C0.308849 44.6869 -0.0442571 44.8971 -0.398793 45.1058C-0.980633 45.4503 -1.60822 45.6219 -2.23438 45.6219Z" stroke="#002D59" stroke-width="0.610847" stroke-miterlimit="10"/>
<path d="M-2.23438 51.2855C-1.60679 51.2855 -0.979203 51.1139 -0.398793 50.7694C-0.0456866 50.5607 0.308849 50.3505 0.663385 50.1418C1.82563 49.4542 3.1723 49.4542 4.33455 50.1418C4.68909 50.3505 5.04219 50.5607 5.39673 50.7694C6.55898 51.457 7.90564 51.457 9.06789 50.7694C9.42243 50.5607 9.77696 50.3505 10.1301 50.1418C11.2923 49.4542 12.639 49.4542 13.8012 50.1418C14.1558 50.3505 14.5103 50.5607 14.8634 50.7694C16.0257 51.457 17.3723 51.457 18.5346 50.7694C18.8891 50.5607 19.2436 50.3505 19.5968 50.1418C20.759 49.4542 22.1057 49.4542 23.2679 50.1418C23.6225 50.3505 23.9756 50.5607 24.3301 50.7694C25.4938 51.457 26.839 51.457 28.0027 50.7694C28.3572 50.5607 28.7103 50.3505 29.0649 50.1418C30.2271 49.4542 31.5738 49.4542 32.736 50.1418C33.0906 50.3505 33.4437 50.5607 33.7982 50.7694C34.9605 51.457 36.3071 51.457 37.4708 50.7694C37.8253 50.5607 38.1784 50.3505 38.533 50.1418C39.6952 49.4542 41.0419 49.4542 42.2056 50.1418C42.5601 50.3505 42.9132 50.5607 43.2678 50.7694C44.43 51.457 45.7767 51.457 46.9389 50.7694C47.2935 50.5607 47.6466 50.3505 48.0011 50.1418C49.1634 49.4542 50.51 49.4542 51.6723 50.1418C52.0268 50.3505 52.3799 50.5607 52.7344 50.7694C53.8967 51.457 55.2434 51.457 56.4056 50.7694C56.7601 50.5607 57.1133 50.3505 57.4678 50.1418C58.63 49.4542 59.9767 49.4542 61.1389 50.1418C61.4935 50.3505 61.8466 50.5607 62.2011 50.7694C62.783 51.1125 63.4091 51.2855 64.0367 51.2855V50.7451C63.4091 50.7451 62.7815 50.5735 62.2011 50.229C61.8466 50.0203 61.4935 49.8101 61.1389 49.6014C59.9767 48.9138 58.63 48.9138 57.4678 49.6014C57.1133 49.8101 56.7587 50.0203 56.4056 50.229C55.2434 50.9166 53.8967 50.9166 52.7344 50.229C52.3799 50.0203 52.0268 49.8101 51.6723 49.6014C50.51 48.9138 49.1634 48.9138 48.0011 49.6014C47.6466 49.8101 47.292 50.0203 46.9389 50.229C45.7752 50.9166 44.43 50.9166 43.2678 50.229C42.9132 50.0203 42.5601 49.8101 42.2056 49.6014C41.0419 48.9138 39.6967 48.9138 38.533 49.6014C38.1784 49.8101 37.8253 50.0203 37.4708 50.229C36.3086 50.9166 34.9619 50.9166 33.7982 50.229C33.4437 50.0203 33.0906 49.8101 32.736 49.6014C31.5738 48.9138 30.2271 48.9138 29.0649 49.6014C28.7103 49.8101 28.3572 50.0203 28.0027 50.229C26.8404 50.9166 25.4938 50.9166 24.3301 50.229C23.977 50.0203 23.6225 49.8101 23.2679 49.6014C22.1057 48.9138 20.759 48.9138 19.5968 49.6014C19.2422 49.8101 18.8891 50.0203 18.5346 50.229C17.3723 50.9166 16.0257 50.9166 14.8634 50.229C14.5089 50.0203 14.1543 49.8101 13.8012 49.6014C12.639 48.9138 11.2923 48.9138 10.1301 49.6014C9.77553 49.8101 9.42243 50.0203 9.06789 50.229C7.90564 50.9166 6.55898 50.9166 5.39673 50.229C5.04219 50.0203 4.68909 49.8101 4.33455 49.6014C3.1723 48.9138 1.82563 48.9138 0.663385 49.6014C0.308849 49.8101 -0.044257 50.0203 -0.398793 50.229C-0.980633 50.5735 -1.60822 50.7451 -2.23438 50.7451V51.2855Z" stroke="#002D59" stroke-width="0.610847" stroke-miterlimit="10"/>
<path d="M-2.23438 56.9483V56.4079C-1.60679 56.4079 -0.979203 56.2364 -0.398793 55.8918C-0.0456866 55.6831 0.308849 55.473 0.663385 55.2643C1.82563 54.5766 3.1723 54.5766 4.33455 55.2643C4.68909 55.473 5.04219 55.6831 5.39673 55.8918C6.55898 56.5795 7.90564 56.5795 9.06789 55.8918C9.42243 55.6831 9.77696 55.473 10.1301 55.2643C11.2923 54.5766 12.639 54.5766 13.8012 55.2643C14.1558 55.473 14.5103 55.6831 14.8634 55.8918C16.0257 56.5795 17.3723 56.5795 18.5346 55.8918C18.8891 55.6831 19.2436 55.473 19.5968 55.2643C20.759 54.5766 22.1057 54.5766 23.2679 55.2643C23.6225 55.473 23.9756 55.6831 24.3301 55.8918C25.4923 56.5795 26.839 56.5795 28.0027 55.8918C28.3572 55.6831 28.7103 55.473 29.0649 55.2643C30.2271 54.5766 31.5738 54.5766 32.736 55.2643C33.0906 55.473 33.4437 55.6831 33.7982 55.8918C34.9605 56.5795 36.3071 56.5795 37.4708 55.8918C37.8253 55.6831 38.1784 55.473 38.533 55.2643C39.6952 54.5766 41.0419 54.5766 42.2056 55.2643C42.5601 55.473 42.9132 55.6831 43.2678 55.8918C44.43 56.5795 45.7767 56.5795 46.9389 55.8918C47.2935 55.6831 47.6466 55.473 48.0011 55.2643C49.1634 54.5766 50.51 54.5766 51.6723 55.2643C52.0268 55.473 52.3799 55.6831 52.7344 55.8918C53.8967 56.5795 55.2434 56.5795 56.4056 55.8918C56.7601 55.6831 57.1133 55.473 57.4678 55.2643C58.63 54.5766 59.9767 54.5766 61.1389 55.2643C61.4935 55.473 61.8466 55.6831 62.2011 55.8918C62.783 56.2364 63.4091 56.4079 64.0367 56.4079V56.9483C63.4091 56.9483 62.7815 56.7768 62.2011 56.4322C61.8466 56.2235 61.4935 56.0134 61.1389 55.8046C59.9767 55.117 58.63 55.117 57.4678 55.8046C57.1133 56.0148 56.7587 56.2235 56.4056 56.4322C55.2434 57.1199 53.8967 57.1199 52.7344 56.4322C52.3799 56.2235 52.0268 56.0134 51.6723 55.8046C50.51 55.117 49.1634 55.117 48.0011 55.8046C47.6466 56.0148 47.292 56.2235 46.9389 56.4322C45.7752 57.1199 44.43 57.1199 43.2678 56.4322C42.9132 56.2235 42.5601 56.0134 42.2056 55.8046C41.0419 55.117 39.6967 55.117 38.533 55.8046C38.1784 56.0148 37.8253 56.2235 37.4708 56.4322C36.3086 57.1199 34.9619 57.1199 33.7982 56.4322C33.4437 56.2235 33.0906 56.0134 32.736 55.8046C31.5738 55.117 30.2271 55.117 29.0649 55.8046C28.7103 56.0148 28.3572 56.2235 28.0027 56.4322C26.8404 57.1199 25.4938 57.1199 24.3301 56.4322C23.977 56.2235 23.6225 56.0134 23.2679 55.8046C22.1057 55.117 20.759 55.117 19.5968 55.8046C19.2422 56.0148 18.8891 56.2235 18.5346 56.4322C17.3723 57.1199 16.0257 57.1199 14.8634 56.4322C14.5089 56.2235 14.1543 56.0134 13.8012 55.8046C12.639 55.117 11.2923 55.117 10.1301 55.8046C9.77553 56.0148 9.42243 56.2235 9.06789 56.4322C7.90564 57.1199 6.55898 57.1199 5.39673 56.4322C5.04219 56.2235 4.68909 56.0134 4.33455 55.8046C3.1723 55.117 1.82563 55.117 0.663385 55.8046C0.308849 56.0148 -0.044257 56.2235 -0.398793 56.4322C-0.980633 56.7753 -1.60822 56.9483 -2.23438 56.9483Z" stroke="#002D59" stroke-width="0.610847" stroke-miterlimit="10"/>
</g>
<path d="M53.4169 34.8712L51.733 31.9557L51.5097 31.5691L49.8094 28.6243L49.6026 28.2659C49.4745 28.0438 49.1537 28.0438 49.0256 28.2659L47.1184 31.5691L45.2124 34.8712C45.0843 35.0933 45.2442 35.3718 45.5003 35.3718H47.5579C44.6472 40.4917 39.3581 44.0829 33.1925 44.6422V28.0908H40.9375C41.404 28.0908 41.8258 27.9016 42.1313 27.5961C42.4369 27.2905 42.6261 26.8687 42.6261 26.4022C42.6261 25.4691 41.8705 24.7135 40.9375 24.7135H33.1925V21.1941C33.3299 21.1529 33.4662 21.1071 33.6014 21.0554C36.6531 19.8967 38.1866 16.4842 37.0291 13.4336C35.8705 10.3819 32.458 8.84836 29.4063 10.0058C26.3558 11.1645 24.8211 14.577 25.9798 17.6288C26.659 19.4173 28.1137 20.6852 29.8153 21.1929V24.7135H22.0726C21.1396 24.7135 20.384 25.4691 20.384 26.4022C20.384 27.3352 21.1396 28.0908 22.0726 28.0908H29.8153V44.6422C23.6507 44.0829 18.3617 40.4917 15.451 35.3718H17.5086C17.7647 35.3718 17.9245 35.0933 17.7965 34.8712L15.8893 31.5691L13.9821 28.2659C13.854 28.0438 13.5344 28.0438 13.4052 28.2659L13.1995 28.6219L11.4992 31.5691L11.2747 31.9581L9.592 34.8712C9.46391 35.0933 9.62373 35.3718 9.87989 35.3718H12.5661C15.7271 41.9348 22.1995 46.6023 29.8153 47.2075V49.9561C29.8153 50.8891 30.9069 51.6447 31.5039 51.6447C32.1008 51.6447 33.1925 50.8891 33.1925 49.9561V47.2075C40.8094 46.6023 47.2806 41.9348 50.4416 35.3718H53.1278C53.3852 35.3718 53.545 35.0933 53.4169 34.8712ZM32.5955 18.4032C31.6366 18.7675 30.6108 18.6206 29.8153 18.0977C29.2923 17.7557 28.8705 17.2504 28.6319 16.6217C28.1102 15.2492 28.6366 13.7368 29.8153 12.9648C29.9997 12.8426 30.1995 12.7392 30.4134 12.6581C31.3711 12.2938 32.3969 12.4407 33.1925 12.9636C33.7154 13.3056 34.1384 13.8109 34.3769 14.4395C34.8987 15.8132 34.3711 17.3268 33.1925 18.0988C33.0091 18.2199 32.8094 18.3221 32.5955 18.4032Z" fill="white"/>
<path d="M31.505 52.2321C30.6096 52.2321 29.2288 51.2544 29.2288 49.9559V47.7431C21.9574 46.9781 15.4991 42.5139 12.2018 35.9591H9.88103C9.55318 35.9591 9.24883 35.7829 9.08432 35.4997C8.91981 35.2153 8.91981 34.8628 9.08432 34.5784L12.8975 27.9731C13.0632 27.6887 13.3687 27.5124 13.6954 27.5124H13.6977C14.0291 27.5124 14.3264 27.6852 14.4932 27.9731L18.3076 34.5784C18.4721 34.8628 18.4721 35.2165 18.3076 35.5008C18.1442 35.784 17.8387 35.9603 17.5109 35.9603H16.4968C19.3546 40.3787 24.015 43.3236 29.23 43.9887V28.6782H22.0749C20.8199 28.6782 19.7988 27.657 19.7988 26.402C19.7988 25.147 20.8199 24.1258 22.0749 24.1258H29.23V21.6157C27.4744 20.9624 26.1043 19.6063 25.4333 17.8378C24.1619 14.4887 25.8516 10.7284 29.2006 9.45688C32.5508 8.18659 36.3099 9.8764 37.5814 13.2255C38.8516 16.5745 37.1619 20.3337 33.8129 21.6052C33.8035 21.6087 33.7929 21.6122 33.7835 21.6169V24.127H40.9409C42.1959 24.127 43.2171 25.1481 43.2171 26.4031C43.2171 27.0107 42.9797 27.583 42.5508 28.013C42.1207 28.4431 41.5496 28.6793 40.9409 28.6793H33.7835V43.9887C38.9985 43.3247 43.6601 40.3799 46.5179 35.9603H45.5038C45.176 35.9603 44.8716 35.784 44.7071 35.5008C44.5426 35.2165 44.5426 34.8639 44.7071 34.5796L48.5203 27.9743C48.6836 27.6899 48.9891 27.5136 49.3181 27.5136C49.646 27.5136 49.9515 27.6899 50.116 27.9743L53.9304 34.5796C54.0937 34.8639 54.0937 35.2165 53.9304 35.5008C53.7658 35.7852 53.4603 35.9615 53.1325 35.9615H50.8117C47.5144 42.5151 41.0561 46.9805 33.7847 47.7455V49.9582C33.7847 51.2567 32.4039 52.2344 31.5085 52.2344L31.505 52.2321ZM10.3217 34.784H12.9363L13.0961 35.1166C16.2383 41.6408 22.6625 46.0498 29.8622 46.6221L30.4028 46.6656V49.957C30.4028 50.5352 31.1959 51.0581 31.5038 51.0581C31.8117 51.0581 32.6049 50.534 32.6049 49.957V46.6656L33.1454 46.6221C40.3452 46.0498 46.7694 41.642 49.9116 35.1166L50.0714 34.784H52.6871L49.3134 28.9414L45.9409 34.784H48.5673L48.0679 35.6618C44.9821 41.0897 39.4415 44.6655 33.2453 45.2272L32.6049 45.2848V27.503H40.9374C41.2312 27.503 41.5073 27.3879 41.7153 27.1799C41.9233 26.9719 42.0385 26.6957 42.0385 26.402C42.0385 25.7944 41.5449 25.3009 40.9374 25.3009H32.6049V20.7567L33.0244 20.631C33.1513 20.5934 33.2747 20.5511 33.3922 20.5064C36.136 19.4641 37.5214 16.3853 36.4803 13.6415C35.4392 10.8987 32.3593 9.51446 29.6154 10.5544C26.8728 11.5968 25.4885 14.6755 26.5297 17.4194C27.1231 18.9812 28.3816 20.1516 29.9833 20.6287L30.4028 20.7544V25.3009H22.0726C21.465 25.3009 20.9715 25.7944 20.9715 26.402C20.9715 27.0095 21.465 27.503 22.0726 27.503H30.4028V45.2848L29.7623 45.2261C23.5673 44.6644 18.0256 41.0885 14.941 35.6607L14.4415 34.7829H17.0679L13.6942 28.9402L10.3205 34.7829L10.3217 34.784ZM31.5085 19.1891C30.8011 19.1891 30.0984 18.9859 29.4932 18.5875C28.8469 18.1656 28.3593 17.5569 28.0831 16.8283C27.478 15.2361 28.0714 13.4041 29.4944 12.471C29.7153 12.3242 29.9562 12.2019 30.2065 12.1068C31.2994 11.6908 32.5367 11.8271 33.5167 12.471C34.163 12.8941 34.6519 13.5028 34.928 14.229C35.5332 15.8225 34.9398 17.6556 33.5156 18.5887C33.297 18.7332 33.0585 18.8554 32.8058 18.9506C32.3875 19.1092 31.9468 19.188 31.5085 19.188V19.1891ZM31.5026 13.0457C31.2053 13.0457 30.9069 13.0985 30.6237 13.2067C30.4545 13.2713 30.2923 13.3535 30.1407 13.4534C29.1736 14.0868 28.7717 15.3313 29.1818 16.4124C29.3699 16.9071 29.7001 17.3195 30.1372 17.6051C30.8035 18.0434 31.6437 18.1351 32.3875 17.853C32.559 17.7872 32.7212 17.705 32.8693 17.6074C33.8364 16.9741 34.2394 15.7296 33.8281 14.6473C33.6413 14.1538 33.3099 13.7413 32.8716 13.4546C32.4603 13.1843 31.9821 13.0457 31.5026 13.0457Z" fill="#002D59"/>
</svg>
