<svg width="64" height="64" viewBox="0 0 64 64" fill="none" xmlns="http://www.w3.org/2000/svg">
<path fill-rule="evenodd" clip-rule="evenodd" d="M61.3148 31.7535C61.3148 47.1515 49.5786 59.8087 34.5634 61.2655C33.6098 61.3577 32.642 61.4056 31.6638 61.4056C30.6856 61.4056 29.7168 61.3577 28.7619 61.2644C13.7479 59.8076 2.01172 47.1504 2.01172 31.7535C2.01172 28.8294 2.43545 26.0045 3.22456 23.336C3.4837 22.4582 3.78253 21.5967 4.11872 20.7551C8.48798 9.82549 19.1736 2.10254 31.6638 2.10254C44.1541 2.10254 54.9588 9.91187 59.2802 20.9383C59.6269 21.8231 59.9327 22.7301 60.1942 23.6535C60.9249 26.2286 61.3148 28.9449 61.3148 31.7535Z" fill="white"/>
<path d="M31.6655 61.9894C30.6791 61.9894 29.6834 61.9404 28.7063 61.8458C21.2682 61.1244 14.3857 57.6739 9.32657 52.1303C4.23474 46.5505 1.42969 39.3143 1.42969 31.7536C1.42969 28.8342 1.84525 25.9463 2.66587 23.1704C2.92735 22.2832 3.23436 21.3972 3.57755 20.5381C5.79544 14.9887 9.57754 10.2552 14.5153 6.849C19.5721 3.3634 25.502 1.51904 31.6655 1.51904C37.8289 1.51904 43.823 3.38208 48.8962 6.9062C53.8526 10.3498 57.6324 15.1288 59.8257 20.7249C60.1794 21.6284 60.4935 22.561 60.7584 23.4937C61.5172 26.1657 61.9012 28.9451 61.9012 31.7525C61.9012 39.3132 59.0962 46.5505 54.0032 52.1303C48.944 57.6739 42.0604 61.1244 34.6223 61.8458C33.6429 61.9404 32.6483 61.9882 31.6666 61.9882L31.6655 61.9894ZM31.6655 2.68636C25.739 2.68636 20.0378 4.45834 15.1795 7.81087C10.432 11.0864 6.79583 15.6377 4.66315 20.9723C4.33397 21.7976 4.03863 22.6486 3.78649 23.5019C2.99739 26.1704 2.597 28.9463 2.597 31.7536C2.597 39.0213 5.2935 45.9785 10.1892 51.3435C15.0534 56.6735 21.6697 59.9898 28.8195 60.6844C30.6954 60.8676 32.6192 60.8676 34.509 60.6844C41.6588 59.991 48.2763 56.6735 53.1405 51.3435C58.0363 45.9785 60.7327 39.0213 60.7327 31.7525C60.7327 29.0525 60.3627 26.3805 59.6343 23.8124C59.3798 22.9147 59.0787 22.0194 58.739 21.1509C56.6296 15.7696 52.9958 11.1762 48.2308 7.86456C43.3538 4.47702 37.6269 2.68636 31.6666 2.68636H31.6655Z" fill="#002D59"/>
<path d="M46.0997 47.6699H17.225C16.4546 47.6699 15.8242 47.0395 15.8242 46.2691V26.1189L31.6623 15.9937L47.5005 26.1189V46.2691C47.5005 47.0395 46.8701 47.6699 46.0997 47.6699Z" fill="white"/>
<path d="M46.1013 48.2536H17.2266C16.1328 48.2536 15.2422 47.3629 15.2422 46.2691V25.7991L31.664 15.3003L48.0857 25.7991V46.2691C48.0857 47.3629 47.1951 48.2536 46.1013 48.2536ZM16.4095 26.4388V46.2691C16.4095 46.7197 16.776 47.0863 17.2266 47.0863H46.1013C46.5519 47.0863 46.9184 46.7197 46.9184 46.2691V26.4388L31.664 16.6859L16.4095 26.4388Z" fill="#002D59"/>
<path d="M31.6692 26.3793C30.9525 26.3793 30.2778 26.1003 29.7711 25.5937C29.2645 25.0871 28.9844 24.4123 28.9844 23.6956C28.9844 22.9789 29.2634 22.3042 29.7711 21.7976C30.2778 21.291 30.9525 21.012 31.6692 21.012C32.3859 21.012 33.0606 21.291 33.5672 21.7976C34.0739 22.3042 34.3529 22.9789 34.3529 23.6956C34.3529 24.4123 34.0739 25.0871 33.5661 25.5937C33.0595 26.1003 32.3848 26.3793 31.668 26.3793H31.6692ZM31.6692 22.1781C31.2641 22.1781 30.8836 22.3357 30.5964 22.6229C30.3104 22.9088 30.1517 23.2906 30.1517 23.6956C30.1517 24.1007 30.3093 24.4812 30.5964 24.7684C30.8836 25.0544 31.2641 25.2131 31.6692 25.2131C32.0743 25.2131 32.4548 25.0555 32.742 24.7684C33.0291 24.4824 33.1867 24.1007 33.1867 23.6956C33.1867 23.2906 33.0291 22.91 32.742 22.6229C32.456 22.3369 32.0743 22.1781 31.6692 22.1781Z" fill="#002D59"/>
<path d="M49.9999 28.3744L32.7318 17.3724C32.0816 16.958 31.2493 16.958 30.5979 17.3724L13.3299 28.3744C11.9641 29.244 10.1758 28.2635 10.1758 26.6444C10.1758 26.1658 10.4198 25.7199 10.8236 25.4631L30.4205 12.9787C31.1793 12.4954 32.1505 12.4954 32.9092 12.9787L52.5061 25.4631C52.91 25.7199 53.154 26.1658 53.154 26.6444C53.154 28.2635 51.3656 29.2452 49.9999 28.3744Z" fill="white"/>
<path d="M51.1011 29.2849C50.612 29.2849 50.1241 29.1449 49.6875 28.867L32.4194 17.8651C31.9618 17.5733 31.3712 17.5733 30.9136 17.8651L13.6455 28.867C12.8214 29.3923 11.8187 29.425 10.9618 28.9546C10.105 28.4842 9.59375 27.6204 9.59375 26.6445C9.59375 25.9628 9.93694 25.3371 10.5124 24.9705L30.1093 12.4861C31.056 11.8826 32.2793 11.8838 33.226 12.4861L52.8229 24.9705C53.3972 25.3371 53.7416 25.9628 53.7416 26.6445C53.7416 27.6215 53.2303 28.4853 52.3735 28.9546C51.9708 29.1752 51.5365 29.2849 51.1034 29.2849H51.1011ZM50.3143 27.8818C50.7731 28.1737 51.3322 28.1923 51.8097 27.9309C52.2871 27.6694 52.5719 27.1884 52.5719 26.6433C52.5719 26.3632 52.4307 26.1052 52.1937 25.9546L32.5968 13.4702C32.0307 13.1095 31.3 13.1095 30.735 13.4702L11.1393 25.9546C10.9023 26.1052 10.7611 26.3632 10.7611 26.6433C10.7611 27.1873 11.0459 27.6682 11.5233 27.9309C12.0008 28.1923 12.5599 28.1748 13.0187 27.8818L30.2867 16.8799C31.1249 16.3453 32.2093 16.3453 33.0474 16.8799L50.3155 27.8818H50.3143Z" fill="#002D59"/>
<path d="M37.3133 31.106H31.5117V42.7091H37.3133V31.106Z" fill="white"/>
<path d="M37.8986 43.2926H30.9297V30.5222H37.8986V43.2926ZM32.097 42.1253H36.7312V31.6895H32.097V42.1253Z" fill="#002D59"/>
<path d="M43.114 31.106H37.3125V42.7091H43.114V31.106Z" fill="white"/>
<path d="M43.6993 43.2926H36.7305V30.5222H43.6993V43.2926ZM37.8978 42.1253H42.532V31.6895H37.8978V42.1253Z" fill="#002D59"/>
<path d="M43.1148 36.3237H31.5117V37.491H43.1148V36.3237Z" fill="#002D59"/>
<path d="M27.5564 31.1057H20.2969V47.6687H27.5564V31.1057Z" fill="white"/>
<path d="M28.1417 48.2535H19.7148V30.5232H28.1417V48.2535ZM20.8822 47.0862H26.9744V31.6905H20.8822V47.0862Z" fill="#002D59"/>
<path d="M31.6654 63.2991C30.6359 63.2991 29.5969 63.2489 28.5779 63.1485C20.8187 62.3956 13.6374 58.7956 8.35883 53.0127C3.04755 47.1913 0.121094 39.6412 0.121094 31.7536C0.121094 28.7069 0.555335 25.6941 1.41098 22.7991C1.68413 21.8735 2.00397 20.949 2.36234 20.0536C4.67712 14.2637 8.62264 9.32601 13.774 5.7727C19.0479 2.13418 25.2347 0.210449 31.6654 0.210449C38.0962 0.210449 44.3495 2.15403 49.6421 5.83107C54.8133 9.42406 58.7565 14.4097 61.0444 20.2486C61.4144 21.1918 61.7413 22.163 62.0168 23.1377C62.8082 25.9252 63.2086 28.8248 63.2086 31.7548C63.2086 39.6423 60.2821 47.1925 54.9697 53.0139C49.6911 58.7968 42.5098 62.3968 34.7495 63.1497C33.7269 63.2489 32.6903 63.2991 31.6654 63.2991ZM31.6654 1.37776C25.4728 1.37776 19.5149 3.22912 14.437 6.7334C9.47595 10.156 5.67518 14.9116 3.44677 20.4867C3.10241 21.3493 2.79424 22.2388 2.53043 23.1307C1.70631 25.9182 1.28841 28.8202 1.28841 31.7548C1.28841 39.3505 4.1063 46.6205 9.22264 52.226C14.3063 57.7952 21.2203 61.2621 28.6923 61.9871C30.651 62.1785 32.6635 62.1797 34.6374 61.9882C42.1094 61.2633 49.0246 57.7964 54.1082 52.2271C59.2245 46.6205 62.0424 39.3505 62.0424 31.7548C62.0424 28.9334 61.6561 26.1412 60.895 23.4563C60.6288 22.5178 60.3148 21.5828 59.9588 20.6746C57.7549 15.0517 53.9576 10.2505 48.9767 6.78943C43.8802 3.24897 37.8954 1.37776 31.6666 1.37776H31.6654Z" fill="white"/>
</svg>
