<svg width="64" height="64" viewBox="0 0 64 64" fill="none" xmlns="http://www.w3.org/2000/svg">
<path fill-rule="evenodd" clip-rule="evenodd" d="M61.4856 31.6666C61.4856 47.1509 49.684 59.879 34.585 61.3439C33.626 61.4367 32.6529 61.4848 31.6692 61.4848C30.6855 61.4848 29.7112 61.4367 28.7511 61.3428C13.6532 59.8778 1.85156 47.1497 1.85156 31.6666C1.85156 28.7261 2.27766 25.8854 3.07117 23.202C3.33176 22.3192 3.63226 21.4529 3.97033 20.6066C8.36397 9.61581 19.1092 1.84961 31.6692 1.84961C44.2292 1.84961 55.0941 9.70268 59.4397 20.7909C59.7883 21.6807 60.0958 22.5927 60.3588 23.5213C61.0936 26.1108 61.4856 28.8423 61.4856 31.6666Z" fill="white"/>
<path d="M31.6702 62.0717C30.6783 62.0717 29.677 62.0224 28.6945 61.9274C21.2149 61.2019 14.294 57.732 9.20659 52.1574C4.08516 46.5452 1.26562 39.2685 1.26562 31.6666C1.26562 28.7308 1.68351 25.8267 2.50871 23.0353C2.77165 22.1432 3.08037 21.2522 3.42547 20.3883C5.65575 14.8078 9.45896 10.0478 14.4243 6.6225C19.5081 3.11621 25.4712 1.2627 31.6702 1.2627C37.8692 1.2627 43.8956 3.13616 48.9971 6.68002C53.9812 10.1429 57.782 14.9486 59.9876 20.5761C60.3433 21.4846 60.6591 22.4226 60.9255 23.3605C61.6885 26.0474 62.0747 28.8412 62.0747 31.6655C62.0747 39.2685 59.254 46.5464 54.1326 52.1574C49.0452 57.732 42.1231 61.2019 34.6435 61.9274C33.6586 62.0224 32.6585 62.0706 31.6713 62.0706L31.6702 62.0717ZM31.6702 2.43655C25.7106 2.43655 19.9776 4.21845 15.0922 7.58976C10.3182 10.8836 6.66172 15.4604 4.51713 20.8249C4.18611 21.6549 3.88913 22.5106 3.63559 23.3687C2.84208 26.0521 2.43945 28.8435 2.43945 31.6666C2.43945 38.975 5.151 45.9712 10.074 51.3662C14.9654 56.726 21.6187 60.0609 28.8084 60.7594C30.6947 60.9437 32.6292 60.9437 34.5296 60.7594C41.7193 60.0621 48.3738 56.726 53.2651 51.3662C58.1882 45.9712 60.8997 38.975 60.8997 31.6655C60.8997 28.9503 60.5276 26.2634 59.7951 23.6809C59.5392 22.7782 59.2364 21.8779 58.8948 21.0045C56.7737 15.5931 53.1196 10.974 48.328 7.64375C43.4237 4.23724 37.6649 2.43655 31.6713 2.43655H31.6702Z" fill="#002F5B"/>
<path d="M24.3687 15.8173H38.9676C43.7286 15.8173 47.5952 19.6828 47.5952 24.4451V46.2624C47.5952 47.0394 46.9637 47.671 46.1866 47.671H17.1508C16.3737 47.671 15.7422 47.0394 15.7422 46.2624V24.444C15.7422 19.6828 19.6076 15.8162 24.3698 15.8162L24.3687 15.8173Z" fill="white"/>
<path d="M46.1876 48.2579H17.1518C16.0519 48.2579 15.1562 47.3623 15.1562 46.2624V24.444C15.1562 19.3636 19.2893 15.2292 24.3708 15.2292H38.9697C44.0501 15.2292 48.1843 19.3624 48.1843 24.444V46.2612C48.1843 47.3611 47.2887 48.2567 46.1888 48.2567L46.1876 48.2579ZM24.3696 16.4043C19.9361 16.4043 16.3289 20.0115 16.3289 24.4452V46.2624C16.3289 46.7155 16.6975 47.0841 17.1506 47.0841H46.1864C46.6395 47.0841 47.0081 46.7155 47.0081 46.2624V24.444C47.0081 20.0103 43.4009 16.4031 38.9674 16.4031H24.3685L24.3696 16.4043Z" fill="#002F5B"/>
<path d="M47.5952 40.7207H15.7422V41.8946H47.5952V40.7207Z" fill="#002F5B"/>
<path d="M47.5952 23.4192H15.7422V24.593H47.5952V23.4192Z" fill="#002F5B"/>
<path d="M31.666 33.9219H25.832V47.6712H31.666V33.9219Z" fill="white"/>
<path d="M32.2539 48.2581H25.2461V33.335H32.2539V48.2581ZM26.4199 47.0843H31.08V34.5088H26.4199V47.0843Z" fill="#002F5B"/>
<path d="M37.498 33.9219H31.6641V47.6712H37.498V33.9219Z" fill="white"/>
<path d="M38.0859 48.2581H31.0781V33.335H38.0859V48.2581ZM32.252 47.0843H36.9121V34.5088H32.252V47.0843Z" fill="#002F5B"/>
<path d="M31.6686 31.5998C30.9772 31.5998 30.2858 31.3368 29.7599 30.8109C29.2505 30.3015 28.9688 29.623 28.9688 28.9022C28.9688 28.1815 29.2493 27.503 29.7599 26.9936C30.8117 25.9406 32.5243 25.9406 33.5772 26.9936C34.0866 27.503 34.3684 28.1815 34.3684 28.9022C34.3684 29.623 34.0878 30.3015 33.5772 30.8109C33.0513 31.3368 32.3599 31.5998 31.6686 31.5998ZM31.6686 27.3774C31.2777 27.3774 30.8868 27.5265 30.5898 27.8235C30.3022 28.1111 30.1426 28.4949 30.1426 28.9022C30.1426 29.3096 30.301 29.6923 30.5898 29.981C31.1849 30.5762 32.1522 30.5762 32.7473 29.981C33.0349 29.6934 33.1945 29.3096 33.1945 28.9022C33.1945 28.4949 33.0361 28.1122 32.7473 27.8235C32.4503 27.5265 32.0594 27.3774 31.6686 27.3774Z" fill="#002F5B"/>
<path d="M31.6654 63.2105C30.636 63.2105 29.5971 63.1601 28.5783 63.0603C20.8192 62.3079 13.6389 58.7077 8.36021 52.9241C3.04745 47.103 0.121094 39.5539 0.121094 31.6668C0.121094 28.6207 0.555411 25.6074 1.41113 22.7127C1.68464 21.7865 2.00509 20.8627 2.36194 19.967C4.67673 14.1776 8.62197 9.23918 13.7727 5.68593C19.0479 2.04582 25.234 0.123047 31.6654 0.123047C38.0968 0.123047 44.3487 2.06695 49.6415 5.74345C54.8122 9.33661 58.7551 14.322 61.0441 20.1607C61.4138 21.1045 61.7413 22.0764 62.016 23.0496C62.8071 25.8374 63.2086 28.7357 63.2086 31.6656C63.2086 39.5539 60.2822 47.103 54.9695 52.9253C49.6908 58.7088 42.5104 62.3079 34.7503 63.0615C33.7279 63.1601 32.6914 63.2105 31.6666 63.2105H31.6654ZM31.6654 1.28986C25.4723 1.28986 19.5151 3.14219 14.4371 6.64497C9.47652 10.0679 5.67566 14.8232 3.44773 20.399C3.1038 21.2606 2.79508 22.1504 2.53214 23.0425C1.70694 25.8304 1.28905 28.7322 1.28905 31.6668C1.28905 39.2616 4.10625 46.5325 9.22297 52.1388C14.3057 57.7087 21.2207 61.1751 28.6921 61.8994C30.6512 62.0907 32.6632 62.0919 34.6376 61.9005C42.1102 61.1751 49.024 57.7087 54.1079 52.14C59.2246 46.5336 62.0418 39.264 62.0418 31.668C62.0418 28.846 61.6556 26.0546 60.8938 23.37C60.6285 22.4333 60.3139 21.4965 59.9571 20.588C57.7538 14.9652 53.9565 10.1642 48.9759 6.70366C43.8803 3.16332 37.8949 1.2922 31.6666 1.2922L31.6654 1.28986Z" fill="white"/>
</svg>
