<svg width="64" height="64" viewBox="0 0 64 64" fill="none" xmlns="http://www.w3.org/2000/svg">
<path fill-rule="evenodd" clip-rule="evenodd" d="M61.4927 31.8163C61.4927 47.1581 49.7994 59.769 34.8391 61.2205C33.8888 61.3124 32.9247 61.3601 31.95 61.3601C30.9754 61.3601 30.0101 61.3124 29.0587 61.2194C14.0996 59.7679 2.40625 47.1569 2.40625 31.8163C2.40625 28.9029 2.82844 26.0883 3.61466 23.4296C3.87286 22.5549 4.1706 21.6966 4.50555 20.8581C8.85885 9.96842 19.5054 2.27368 31.95 2.27368C44.3947 2.27368 55.1599 10.0545 59.4655 21.0407C59.8109 21.9222 60.1156 22.8259 60.3761 23.7459C61.1042 26.3116 61.4927 29.018 61.4927 31.8163Z" fill="white"/>
<path d="M31.9534 61.9416C30.9707 61.9416 29.9786 61.8928 29.0051 61.7985C21.5953 61.0798 14.7368 57.6418 9.69616 52.1185C4.62177 46.5579 1.82812 39.3482 1.82812 31.8163C1.82812 28.9075 2.24217 26.0301 3.05979 23.2644C3.32032 22.3805 3.6262 21.4977 3.96814 20.6417C6.17793 15.1126 9.94621 10.3964 14.8659 7.00262C19.9031 3.52859 25.8114 1.69214 31.9534 1.69214C38.0955 1.69214 44.0666 3.54837 49.1212 7.05961C54.0595 10.4906 57.8255 15.2521 60.0109 20.8278C60.3633 21.7292 60.6761 22.6573 60.9401 23.5866C61.6961 26.2488 62.0788 29.0168 62.0788 31.8151C62.0788 39.3482 59.2839 46.5591 54.2096 52.1185C49.1689 57.6418 42.3104 61.0798 34.8994 61.7985C33.9236 61.8928 32.9327 61.9404 31.9546 61.9404L31.9534 61.9416ZM31.9534 2.85519C26.0486 2.85519 20.3683 4.6207 15.5277 7.96098C10.7976 11.2245 7.17466 15.7581 5.04977 21.0744C4.72179 21.8966 4.42754 22.7445 4.17632 23.5947C3.3901 26.2534 2.99117 29.0192 2.99117 31.8163C2.99117 39.0574 5.67782 45.9892 10.5556 51.3346C15.4021 56.6451 21.9942 59.9493 29.1179 60.6413C30.9858 60.8239 32.9037 60.8239 34.7866 60.6425C41.9103 59.9516 48.5036 56.6462 53.3501 51.3358C58.2279 45.9904 60.9145 39.0586 60.9145 31.8163C60.9145 29.1262 60.5459 26.4639 59.8201 23.9052C59.5666 23.0108 59.2665 22.1188 58.9281 21.2535C56.8264 15.8918 53.2058 11.3152 48.4583 8.01564C43.5991 4.64047 37.8931 2.85635 31.9546 2.85635L31.9534 2.85519Z" fill="#002F5B"/>
<path d="M26.0704 52.659C24.4759 52.659 22.8825 52.3706 21.3647 51.7937L20.1087 51.3169L19.5876 51.5332C16.345 52.88 12.4814 52.8788 9.25391 51.5309L9.70168 50.4574C12.65 51.689 16.1787 51.689 19.141 50.4585L20.0889 50.0654L21.7765 50.7074C24.5562 51.7646 27.615 51.76 30.3912 50.6958L32.0753 50.0503L33.7466 50.6923C36.5158 51.7553 39.5688 51.7635 42.3438 50.7156L44.0535 50.0701L45.5841 50.6528C48.4836 51.7553 51.354 51.7472 54.1151 50.6283L54.5524 51.7065C51.5098 52.9393 48.3545 52.9509 45.1712 51.7402L44.0524 51.3145L42.7544 51.8042C39.7119 52.9533 36.3646 52.944 33.329 51.7786L32.0741 51.2971L30.8064 51.7832C29.2793 52.3683 27.6731 52.6613 26.0681 52.6613L26.0704 52.659Z" fill="#002F5B"/>
<path d="M40.4648 16.0359H23.8878C23.117 16.0359 22.4922 16.6607 22.4922 17.4315V46.2007C22.4922 46.9715 23.117 47.5964 23.8878 47.5964H40.4648C41.2356 47.5964 41.8605 46.9715 41.8605 46.2007V17.4315C41.8605 16.6607 41.2356 16.0359 40.4648 16.0359Z" fill="white"/>
<path d="M40.4643 48.1779H23.8873C22.7976 48.1779 21.9102 47.2905 21.9102 46.2007V17.4315C21.9102 16.3418 22.7976 15.4543 23.8873 15.4543H40.4643C41.5541 15.4543 42.4415 16.3418 42.4415 17.4315V46.2007C42.4415 47.2905 41.5541 48.1779 40.4643 48.1779ZM23.8873 16.6174C23.4384 16.6174 23.0732 16.9826 23.0732 17.4315V46.2007C23.0732 46.6497 23.4384 47.0149 23.8873 47.0149H40.4643C40.9132 47.0149 41.2784 46.6497 41.2784 46.2007V17.4315C41.2784 16.9826 40.9132 16.6174 40.4643 16.6174H23.8873Z" fill="#002F5B"/>
<path d="M39.1037 31.5254H25.2344V32.6884H39.1037V31.5254Z" fill="#002F5B"/>
<path d="M38.529 20.8101H25.8203V28.1989H38.529V20.8101Z" fill="white"/>
<path d="M39.11 28.7804H25.2383V20.2285H39.11V28.7804ZM26.4013 27.6174H37.9469V21.3916H26.4013V27.6174Z" fill="#002F5B"/>
<path d="M52.2412 40.2192L44.0999 54.6224H19.7898L11.6484 40.2192H52.2412Z" fill="white"/>
<path d="M44.4401 55.2037H19.4508L10.6523 39.6375H53.2386L44.4401 55.2037ZM20.13 54.0407H43.762L51.2463 40.8005H12.6458L20.13 54.0407Z" fill="#002F5B"/>
<path d="M46.4361 55.7656H38.8716L31.955 56.4681L25.9117 56.0145L18.609 55.4562L18.0391 54.0082C18.488 53.8791 18.9323 53.7233 19.3684 53.5418L20.1023 53.2371L21.5736 53.7965C24.4835 54.9026 27.6982 54.8979 30.6035 53.7849L32.0806 53.2185L33.5425 53.7803C36.442 54.8933 39.6485 54.9026 42.5538 53.8047L44.0576 53.2371L45.3824 53.7407C45.4591 53.7698 45.5359 53.7977 45.6138 53.8256L46.4361 55.7656Z" fill="white"/>
<path d="M26.072 55.205C24.4775 55.205 22.8841 54.9165 21.3663 54.3397L20.1102 53.8628L19.5892 54.0791C17.5178 54.9398 15.244 55.2608 13.0156 55.0073L13.147 53.8512C15.1812 54.0826 17.2538 53.7895 19.1437 53.0056L20.0916 52.6125L21.7792 53.2545C24.5589 54.3117 27.6177 54.3071 30.3939 53.2429L32.078 52.5974L33.7493 53.2394C36.5185 54.3024 39.5715 54.3106 42.3466 53.2627L44.0563 52.6172L45.5868 53.1999C47.1628 53.7988 48.9469 53.9628 51.202 53.7151L51.3288 54.8712C48.9166 55.1364 46.9034 54.9456 45.1739 54.2873L44.0551 53.8616L42.7571 54.3513C39.7146 55.5004 36.3673 55.4911 33.3318 54.3257L32.0768 53.8442L30.8091 54.3304C29.282 54.9154 27.6759 55.2085 26.0709 55.2085L26.072 55.205Z" fill="#002F5B"/>
<path d="M26.0715 57.752C24.477 57.752 22.8836 57.4636 21.3658 56.8867L20.1097 56.4099L19.5887 56.6262C18.6234 57.0275 17.6115 57.3124 16.5799 57.4764L16.3984 56.3273C17.3393 56.1784 18.2628 55.9179 19.1432 55.5515L20.0911 55.1584L21.7787 55.8004C24.5584 56.8576 27.6172 56.853 30.3934 55.7888L32.0775 55.1433L33.7488 55.7853C36.518 56.8483 39.571 56.8565 42.3461 55.8086L44.0558 55.1631L45.5863 55.7458C46.3819 56.0482 47.0867 56.2401 47.8706 56.3668L47.6845 57.5148C46.8308 57.3764 46.0318 57.16 45.1723 56.8332L44.0534 56.4075L42.7555 56.8972C39.7129 58.0463 36.3657 58.037 33.3301 56.8716L32.0752 56.3901L30.8075 56.8763C29.2804 57.4613 27.6742 57.7544 26.0692 57.7544L26.0715 57.752Z" fill="#002F5B"/>
<path d="M42.2422 38.157V36.9939C45.3254 36.9939 47.8341 34.4852 47.8341 31.402V20.189C47.8341 19.0271 47.5945 17.9001 47.1212 16.8394L43.9682 9.76926L45.03 9.2959L48.183 16.3661C48.7227 17.5768 48.9972 18.8631 48.9972 20.189V31.402C48.9972 35.1272 45.9663 38.157 42.2422 38.157Z" fill="#002F5B"/>
<path d="M48.1159 22.799L46.4143 21.7906C44.4476 20.6253 43.7556 18.1352 44.8396 16.1219L44.8547 16.0952L46.1282 14.0063L47.1215 14.6123L45.8561 16.6872C45.0792 18.1468 45.5828 19.9472 47.0063 20.7904L48.7079 21.7988L48.1147 22.799H48.1159Z" fill="#002F5B"/>
<path d="M31.953 63.0767C30.9329 63.0767 29.9035 63.0267 28.8939 62.9278C21.2054 62.1822 14.0903 58.6147 8.85955 52.8837C3.59508 47.1155 0.695312 39.635 0.695312 31.8196C0.695312 28.8011 1.12568 25.8152 1.97363 22.9468C2.24465 22.0291 2.56219 21.1136 2.91579 20.2261C5.20955 14.4893 9.11894 9.59579 14.2229 6.07483C19.4502 2.4678 25.58 0.5625 31.953 0.5625C38.326 0.5625 44.521 2.48873 49.7657 6.13183C54.8894 9.69234 58.7965 14.6324 61.0646 20.4181C61.431 21.3533 61.7556 22.3164 62.0277 23.2807C62.8117 26.0432 63.2095 28.9151 63.2095 31.8184C63.2095 39.635 60.3097 47.1155 55.0453 52.8849C49.8145 58.6159 42.6995 62.1822 35.0098 62.929C33.9967 63.0267 32.9696 63.0767 31.9542 63.0767H31.953ZM31.953 1.71871C25.8161 1.71871 19.9131 3.55421 14.8812 7.02515C9.96572 10.417 6.1994 15.1291 3.99172 20.6542C3.65091 21.508 3.345 22.3897 3.08445 23.2737C2.26675 26.0362 1.85266 28.9116 1.85266 31.8196C1.85266 39.3454 4.64425 46.5502 9.71448 52.1055C14.751 57.6248 21.6032 61.0597 29.0067 61.7774C30.948 61.967 32.9417 61.9682 34.8981 61.7786C42.3028 61.0597 49.1538 57.6249 54.1915 52.1067C59.2617 46.5513 62.0533 39.3477 62.0533 31.8208C62.0533 29.0245 61.6706 26.2584 60.9157 23.5982C60.6529 22.67 60.3411 21.7418 59.9875 20.8415C57.8043 15.2698 54.0415 10.5124 49.1062 7.08331C44.0569 3.57515 38.1259 1.72103 31.9542 1.72103L31.953 1.71871Z" fill="white"/>
</svg>
