<svg width="64" height="64" viewBox="0 0 64 64" fill="none" xmlns="http://www.w3.org/2000/svg">
<path fill-rule="evenodd" clip-rule="evenodd" d="M61.4091 32.4049C61.4091 47.8892 49.6225 60.6173 34.543 62.0822C33.5852 62.175 32.6133 62.2231 31.6309 62.2231C30.6485 62.2231 29.6755 62.175 28.7165 62.0811C13.6381 60.6161 1.85156 47.888 1.85156 32.4049C1.85156 29.4644 2.27712 26.6237 3.06961 23.9403C3.32986 23.0575 3.62998 22.1912 3.96761 21.3449C8.35561 10.3541 19.0871 2.58789 31.6309 2.58789C44.1748 2.58789 55.0258 10.441 59.3657 21.5292C59.7139 22.4189 60.021 23.331 60.2836 24.2595C61.0175 26.8491 61.4091 29.5806 61.4091 32.4049Z" fill="white"/>
<path d="M31.6311 62.8097C30.6405 62.8097 29.6417 62.7604 28.6593 62.6654C21.1893 61.9399 14.2772 58.47 9.19639 52.8954C4.08155 47.2844 1.26562 40.0077 1.26562 32.4046C1.26562 29.4676 1.68298 26.5647 2.5083 23.7733C2.77207 22.88 3.07921 21.9902 3.42388 21.1263C5.65129 15.5458 9.44961 10.7858 14.4085 7.36049C19.4859 3.85302 25.4413 1.99951 31.6311 1.99951C37.821 1.99951 43.8409 3.87298 48.9358 7.41684C53.9135 10.8797 57.7095 15.6855 59.9123 21.3129C60.2675 22.2215 60.5828 23.1582 60.8489 24.0973C61.611 26.7842 61.9967 29.5792 61.9967 32.4023C61.9967 40.0053 59.1795 47.282 54.0647 52.8942C48.9839 58.4688 42.0707 61.9387 34.6006 62.6642C33.6159 62.7593 32.6171 62.8074 31.6323 62.8074L31.6311 62.8097ZM31.6311 3.17454C25.6793 3.17454 19.9536 4.95644 15.0744 8.32775C10.3066 11.6216 6.6548 16.1973 4.51297 21.5629C4.18237 22.3928 3.88577 23.2486 3.63255 24.1067C2.84006 26.7901 2.43795 29.5815 2.43795 32.4046C2.43795 39.713 5.14603 46.7092 10.0628 52.1042C14.9478 57.464 21.5925 60.7989 28.773 61.4974C30.6569 61.6817 32.5889 61.6828 34.4869 61.4974C41.6674 60.8001 48.3133 57.464 53.1984 52.1042C58.1151 46.7092 60.8232 39.713 60.8232 32.4035C60.8232 29.6883 60.4515 27.0014 59.72 24.4177C59.4644 23.515 59.162 22.6147 58.8208 21.7414C56.7024 16.3299 53.053 11.7096 48.2676 8.38057C43.3708 4.97405 37.6182 3.17336 31.6323 3.17336L31.6311 3.17454Z" fill="#002F5B"/>
<path d="M31.6288 63.9483C30.6007 63.9483 29.5632 63.8979 28.5456 63.7981C20.7966 63.0457 13.6255 59.4454 8.35354 53.6619C3.04761 47.8407 0.125 40.2905 0.125 32.4034C0.125 29.3573 0.558758 26.344 1.41338 23.4493C1.68653 22.5231 2.00657 21.5993 2.36296 20.7036C4.67478 14.9142 8.61495 9.9758 13.7591 6.42255C19.0264 2.78361 25.2045 0.86084 31.6277 0.86084C38.0508 0.86084 44.2946 2.80474 49.5806 6.48124C54.7447 10.0744 58.6825 15.0598 60.9686 20.8985C61.3379 21.8423 61.6649 22.8142 61.9392 23.7873C62.7294 26.5752 63.1303 29.4735 63.1303 32.4034C63.1303 40.2917 60.2077 47.8407 54.9018 53.6631C49.6299 59.4466 42.4588 63.0457 34.7085 63.7993C33.6874 63.8979 32.6523 63.9483 31.6288 63.9483ZM31.6288 2.02765C25.4437 2.02765 19.4941 3.87999 14.4227 7.38276C9.46842 10.8057 5.67243 15.561 3.44736 21.1368C3.10387 21.9984 2.79556 22.8882 2.53296 23.7803C1.70881 26.5682 1.29147 29.47 1.29147 32.4046C1.29147 39.9994 4.10503 47.2703 9.21518 52.8766C14.2913 58.4465 21.1975 61.9129 28.6593 62.6372C30.6159 62.8285 32.6253 62.8297 34.5971 62.6383C42.0602 61.9129 48.9651 58.4465 54.0425 52.8777C59.1526 47.2714 61.9662 40.0018 61.9662 32.4058C61.9662 29.5838 61.5805 26.7924 60.8197 24.1078C60.5547 23.1711 60.2406 22.2343 59.8842 21.3258C57.6837 15.703 53.8913 10.902 48.9171 7.44145C43.828 3.90112 37.8504 2.03 31.63 2.03L31.6288 2.02765Z" fill="white"/>
<rect x="20.6013" y="22.7375" width="22.0651" height="23.5361" rx="0.616879" stroke="#002D59" stroke-width="1.23376"/>
<rect x="35.6481" y="27.7084" width="7.01934" height="14.6208" stroke="#002D59" stroke-width="1.23376"/>
<rect x="18.4138" y="18.5373" width="26.4342" height="4.24387" rx="1.85064" stroke="#002D59" stroke-width="1.23376"/>
<rect x="24.9723" y="33.3317" width="5.21455" height="12.9418" stroke="#002D59" stroke-width="1.23376"/>
</svg>
