<svg width="64" height="64" viewBox="0 0 64 64" fill="none" xmlns="http://www.w3.org/2000/svg">
<path d="M31.6654 63.3877C30.6359 63.3877 29.5969 63.3375 28.579 63.2371C20.8199 62.4842 13.6386 58.8842 8.36 53.1014C3.04755 47.28 0.121094 39.7298 0.121094 31.8422C0.121094 28.7955 0.555335 25.7827 1.41098 22.8878C1.68413 21.9621 2.00397 21.0376 2.36234 20.1422C4.67712 14.3535 8.62264 9.41463 13.774 5.86132C19.0479 2.22281 25.2347 0.299072 31.6654 0.299072C38.0962 0.299072 44.3495 2.24265 49.6421 5.91969C54.8133 9.51268 58.7565 14.4983 61.0444 20.3372C61.4144 21.2804 61.7413 22.2528 62.0168 23.2263C62.8082 26.0138 63.2086 28.9134 63.2086 31.8434C63.2086 39.7309 60.2821 47.2811 54.9697 53.1025C49.6911 58.8854 42.5098 62.4854 34.7495 63.2383C33.7281 63.3375 32.6903 63.3877 31.6654 63.3877ZM31.6654 1.46639C25.4728 1.46639 19.5149 3.31775 14.437 6.82202C9.47595 10.2446 5.67517 15.0002 3.44677 20.5753C3.10241 21.438 2.79424 22.3263 2.5316 23.2181C1.70747 26.0068 1.28841 28.9076 1.28841 31.8422C1.28841 39.4379 4.1063 46.708 9.22264 52.3134C14.3063 57.8827 21.2203 61.3496 28.6923 62.0745C30.6522 62.2659 32.6635 62.2671 34.6374 62.0757C42.1094 61.3508 49.0246 57.8838 54.1082 52.3146C59.2245 46.708 62.0424 39.4379 62.0424 31.8422C62.0424 29.0197 61.6561 26.2286 60.895 23.5438C60.63 22.6064 60.3148 21.6714 59.9588 20.7621C57.7549 15.1391 53.9576 10.338 48.9767 6.87689C43.8802 3.33642 37.8954 1.46522 31.6666 1.46522L31.6654 1.46639Z" fill="white"/>
<path fill-rule="evenodd" clip-rule="evenodd" d="M61.4515 31.8416C61.4515 47.2397 49.7153 59.8968 34.7002 61.3537C33.7465 61.4459 32.7788 61.4937 31.8006 61.4937C30.8223 61.4937 29.8535 61.4459 28.8986 61.3525C13.8846 59.8957 2.14844 47.2385 2.14844 31.8416C2.14844 28.9175 2.57217 26.0926 3.36128 23.4241C3.62042 22.5463 3.91925 21.6848 4.25544 20.8432C8.6247 9.91363 19.3103 2.19067 31.8006 2.19067C44.2908 2.19067 55.0955 10 59.4169 21.0265C59.7636 21.9113 60.0694 22.8183 60.3309 23.7416C61.0616 26.3167 61.4515 29.0331 61.4515 31.8416Z" fill="white"/>
<path d="M31.8022 62.0778C30.8158 62.0778 29.8212 62.0288 28.843 61.9342C21.4049 61.2128 14.5224 57.7622 9.46329 52.2187C4.37146 46.6389 1.56641 39.4027 1.56641 31.842C1.56641 28.9214 1.98314 26.0346 2.80376 23.2588C3.0664 22.3704 3.37224 21.4856 3.71543 20.6265C5.93333 15.0771 9.71659 10.3436 14.6532 6.93738C19.7088 3.45178 25.6388 1.60742 31.8022 1.60742C37.9656 1.60742 43.9598 3.47046 49.0329 6.99458C53.9893 10.4382 57.7691 15.2171 59.9625 20.8132C60.3173 21.7179 60.6302 22.6494 60.8951 23.5821C61.6539 26.2541 62.0379 29.0323 62.0379 31.8409C62.0379 39.4016 59.2329 46.6389 54.1399 52.2187C49.0808 57.7622 42.1971 61.2128 34.759 61.9342C33.7784 62.0288 32.7839 62.0766 31.8033 62.0766L31.8022 62.0778ZM31.8022 2.77474C25.8757 2.77474 20.1746 4.54672 15.3162 7.89925C10.5687 11.1747 6.93255 15.7249 4.79987 21.0607C4.47068 21.886 4.17535 22.737 3.92321 23.5903C3.13411 26.2576 2.73372 29.0346 2.73372 31.842C2.73372 39.1097 5.43022 46.0669 10.3259 51.4319C15.1901 56.7618 21.8065 60.0782 28.9563 60.7727C30.8321 60.956 32.7559 60.9572 34.6458 60.7727C41.7956 60.0794 48.4131 56.7618 53.2773 51.4319C58.173 46.0669 60.8695 39.1097 60.8695 31.8409C60.8695 29.1409 60.4994 26.4689 59.771 23.9008C59.5165 23.0031 59.2154 22.1078 58.8757 21.2393C56.7664 15.858 53.1325 11.2634 48.3675 7.95294C43.4917 4.5654 37.7637 2.77474 31.8033 2.77474H31.8022Z" fill="#002D59"/>
<path d="M30.0874 26.7352V42.048C29.7991 38.8916 26.6999 36.4076 22.9201 36.4076C19.5991 36.4076 17.0217 38.3243 16.1952 40.9286L16.0703 40.9181L18.4738 26.615L18.559 26.1504C18.8497 24.9574 19.6435 23.9196 20.7431 23.2076C21.7236 22.5714 22.947 22.1943 24.2742 22.1943C25.9353 22.1943 27.4329 22.785 28.4964 23.7329C29.3882 24.5278 29.9719 25.5749 30.0874 26.7352Z" fill="white"/>
<path d="M29.5081 42.1007C29.2466 39.2349 26.354 36.9902 22.9221 36.9902C20.0132 36.9902 17.5338 38.6431 16.7529 41.1038L16.6116 41.5473L15.3906 41.4446L17.8992 26.5158L17.9926 26.0104C18.3136 24.6948 19.1774 23.524 20.4264 22.7162C21.5424 21.9925 22.8731 21.6096 24.2751 21.6096C26.0284 21.6096 27.6649 22.2085 28.8859 23.2964C29.9097 24.2092 30.5435 25.4092 30.6696 26.6769L30.6719 26.7353V42.0481L29.507 42.1018L29.5081 42.1007ZM22.9221 35.8228C24.8751 35.8228 26.7404 36.4485 28.1774 37.5855C28.6945 37.9952 29.1404 38.4563 29.5058 38.9582V26.7645C29.4019 25.7991 28.907 24.8781 28.1097 24.1672C27.1035 23.2707 25.7424 22.7769 24.2762 22.7769C23.1007 22.7769 21.9894 23.0944 21.0626 23.6956C20.0704 24.3388 19.3852 25.2528 19.1319 26.2707L19.0502 26.7178L17.1147 38.2357C18.5132 36.731 20.6038 35.8205 22.9221 35.8205V35.8228Z" fill="#002D59"/>
<path d="M33.2266 20.4879C33.2266 20.6256 33.2336 20.7622 33.2487 20.8976V26.7015C33.3643 25.5412 33.948 24.4941 34.8398 23.6992C35.9032 22.7513 37.4009 22.1606 39.062 22.1606C40.3892 22.1606 41.6125 22.5377 42.5931 23.1739C43.6927 23.8859 44.4865 24.9237 44.7771 26.1167L43.6764 20.1097C43.2795 17.8217 41.1713 16.0486 38.441 16.0486C35.5612 16.0486 33.2266 18.0354 33.2266 20.4879Z" fill="white"/>
<path d="M33.8317 26.7598L32.6667 26.7014V20.929C32.6515 20.7866 32.6445 20.6384 32.6445 20.4878C32.6445 17.7178 35.2453 15.4648 38.4426 15.4648C41.3527 15.4648 43.7971 17.3769 44.2535 20.0104L45.3531 26.0115L44.2114 26.2543C43.9616 25.2294 43.2753 24.3096 42.2772 23.6629C41.3504 23.0617 40.2391 22.743 39.0636 22.743C37.5974 22.743 36.2364 23.2368 35.2301 24.1333C34.4247 24.8512 33.9286 25.7827 33.8317 26.7574V26.7598ZM38.4426 16.6322C35.8897 16.6322 33.8118 18.3621 33.8118 20.4878C33.8118 20.6069 33.8177 20.7224 33.8305 20.8322L33.834 20.8975V23.9069C34.0208 23.6804 34.2274 23.4644 34.4527 23.2637C35.6725 22.1757 37.3103 21.5769 39.0636 21.5769C40.4644 21.5769 41.7963 21.9598 42.9122 22.6847C43.1795 22.8574 43.4293 23.0477 43.6605 23.252L43.1037 20.2158C42.743 18.138 40.783 16.6333 38.4426 16.6333V16.6322Z" fill="#002D59"/>
<path d="M33.2578 26.7354L33.3827 42.0483C33.671 38.8918 36.6454 36.4078 40.4251 36.4078C43.7461 36.4078 46.5395 38.3245 47.366 40.9288L47.4909 40.9183L44.8714 26.6152L44.7862 26.1506C44.4955 24.9576 43.7018 23.9199 42.6022 23.2078C41.6216 22.5716 40.3983 22.1946 39.071 22.1946C37.4099 22.1946 35.9123 22.7852 34.8489 23.7331C33.957 24.528 33.3734 25.5751 33.2578 26.7354Z" fill="white"/>
<path d="M33.9657 42.1007L32.8007 42.0528L32.6758 26.7084L32.6793 26.6769C32.8054 25.4104 33.4392 24.2092 34.4629 23.2964C35.6828 22.2085 37.3205 21.6096 39.0738 21.6096C40.4746 21.6096 41.8065 21.9925 42.9225 22.7174C44.1715 23.5263 45.0353 24.696 45.3563 26.0116L45.3633 26.0442L48.1835 41.4446L46.9532 41.5473L46.812 41.1038C46.0439 38.6816 43.4174 36.9902 40.4279 36.9902C37.01 36.9902 34.233 39.187 33.9668 42.1007H33.9657ZM33.8431 26.7621L33.9423 38.9477C35.2929 37.0532 37.6859 35.8228 40.4267 35.8228C42.7894 35.8228 44.9653 36.7497 46.4104 38.2485L44.217 26.2719C43.9637 25.2528 43.2785 24.3388 42.2863 23.6968C41.3594 23.0956 40.2481 22.7769 39.0727 22.7769C37.6065 22.7769 36.2454 23.2707 35.2392 24.1672C34.4431 24.8769 33.9482 25.7979 33.8431 26.7621Z" fill="#002D59"/>
<path d="M33.3633 42.5294C33.3633 45.9099 36.5827 48.6496 40.5528 48.6496C44.524 48.6496 47.7423 45.9099 47.7423 42.5294C47.7423 41.976 47.6559 41.4391 47.4936 40.929C46.6672 38.3247 43.8738 36.408 40.5528 36.408C36.773 36.408 33.6738 38.892 33.3855 42.0484C33.3703 42.2072 33.3633 42.3671 33.3633 42.5294Z" fill="white"/>
<path d="M40.5544 49.2329C36.268 49.2329 32.7812 46.2259 32.7812 42.529C32.7812 42.3446 32.7894 42.1648 32.8058 41.9932C32.9598 40.303 33.8458 38.7376 35.2991 37.5866C36.7349 36.4497 38.6015 35.824 40.5544 35.824C44.0482 35.824 47.131 37.8504 48.0521 40.7524C48.2353 41.3279 48.3275 41.9255 48.3275 42.529C48.3275 46.2259 44.8408 49.2329 40.5544 49.2329ZM40.5544 36.9913C37.1225 36.9913 34.2299 39.236 33.9684 42.1018C33.9556 42.2419 33.9486 42.3808 33.9486 42.529C33.9486 45.5816 36.9124 48.0656 40.5544 48.0656C44.1964 48.0656 47.1602 45.5816 47.1602 42.529C47.1602 42.0458 47.0855 41.5672 46.9396 41.1061C46.1703 38.6839 43.5451 36.9913 40.5544 36.9913Z" fill="#002D59"/>
<path d="M40.5503 46.2099C42.9382 46.2099 44.874 44.5615 44.874 42.5281C44.874 40.4948 42.9382 38.8464 40.5503 38.8464C38.1624 38.8464 36.2266 40.4948 36.2266 42.5281C36.2266 44.5615 38.1624 46.2099 40.5503 46.2099Z" fill="white"/>
<path d="M40.5519 46.7934C37.8461 46.7934 35.6445 44.8802 35.6445 42.5281C35.6445 40.1759 37.8461 38.2627 40.5519 38.2627C43.2578 38.2627 45.4593 40.1759 45.4593 42.5281C45.4593 44.8802 43.2578 46.7934 40.5519 46.7934ZM40.5519 39.4312C38.4893 39.4312 36.8118 40.8203 36.8118 42.5292C36.8118 44.2382 38.4893 45.6273 40.5519 45.6273C42.6146 45.6273 44.292 44.2382 44.292 42.5292C44.292 40.8203 42.6146 39.4312 40.5519 39.4312Z" fill="#002D59"/>
<path d="M30.3709 20.4879C30.3709 20.6256 30.3639 20.7622 30.3487 20.8976V26.7015C30.2331 25.5412 29.6495 24.4941 28.7577 23.6992C27.6942 22.7513 26.1966 22.1606 24.5355 22.1606C23.2082 22.1606 21.9849 22.5377 21.0044 23.1739C19.9047 23.8859 19.111 24.9237 18.8203 26.1167L19.9211 20.1097C20.318 17.8217 22.4261 16.0486 25.1565 16.0486C28.0363 16.0486 30.3709 18.0354 30.3709 20.4879Z" fill="white"/>
<path d="M29.7675 26.7598C29.6706 25.7851 29.1733 24.8524 28.369 24.1357C27.3628 23.2392 26.0017 22.7454 24.5356 22.7454C23.3601 22.7454 22.2488 23.0629 21.322 23.6641C20.3239 24.3108 19.6375 25.2306 19.3877 26.2556L18.2461 26.0127L19.3469 20.0058C19.8021 17.3781 22.2465 15.4661 25.1566 15.4661C28.3539 15.4661 30.9546 17.719 30.9546 20.489C30.9546 20.6396 30.9476 20.7879 30.9325 20.9303V26.7026L29.7675 26.761V26.7598ZM24.5356 21.577C26.2889 21.577 27.9255 22.1758 29.1465 23.2637C29.3718 23.4645 29.5795 23.6805 29.7651 23.9069L29.7687 20.8322C29.7815 20.7236 29.7873 20.6069 29.7873 20.4879C29.7873 18.3622 27.7095 16.6322 25.1566 16.6322C22.8161 16.6322 20.8562 18.1369 20.4967 20.2089L19.9387 23.2509C20.1698 23.0466 20.4196 22.8563 20.6869 22.6836C21.8029 21.9598 23.1336 21.577 24.5356 21.577Z" fill="#002D59"/>
<path d="M30.3346 26.7352L30.2097 42.048C29.9214 38.8916 26.9471 36.4076 23.1673 36.4076C19.8463 36.4076 17.0529 38.3243 16.2265 40.9286L16.1016 40.9181L18.721 26.615L18.8062 26.1504C19.0969 24.9574 19.8907 23.9196 20.9903 23.2076C21.9708 22.5714 23.1942 22.1943 24.5214 22.1943C26.1825 22.1943 27.6802 22.785 28.7436 23.7329C29.6354 24.5278 30.2191 25.5749 30.3346 26.7352Z" fill="white"/>
<path d="M29.6308 42.1007C29.3646 39.187 26.5864 36.9902 23.1697 36.9902C20.179 36.9902 17.5537 38.6816 16.7857 41.1038L16.6444 41.5473L15.4141 41.4446L18.2413 26.0104C18.5623 24.6948 19.4261 23.5252 20.6751 22.7162C21.7911 21.9925 23.1218 21.6096 24.5238 21.6096C26.2771 21.6096 27.9137 22.2085 29.1347 23.2964C30.1584 24.2092 30.7923 25.4092 30.9183 26.6769L30.9218 26.7084V26.74L30.7969 42.0528L29.6319 42.1007H29.6308ZM23.1697 35.8228C25.9094 35.8228 28.3035 37.052 29.6541 38.9477L29.7534 26.7621C29.6495 25.7979 29.1545 24.8781 28.3572 24.1672C27.351 23.2707 25.9899 22.7769 24.5238 22.7769C23.3483 22.7769 22.237 23.0944 21.3102 23.6956C20.3168 24.3388 19.6316 25.2528 19.3794 26.2707L17.186 38.2473C18.6312 36.7497 20.8071 35.8217 23.1697 35.8217V35.8228Z" fill="#002D59"/>
<path d="M30.2344 42.5291C30.2344 45.9097 27.015 48.6493 23.045 48.6493C19.0738 48.6493 15.8555 45.9097 15.8555 42.5291C15.8555 41.9758 15.9418 41.4388 16.1041 40.9287C16.9306 38.3244 19.7239 36.4077 23.045 36.4077C26.8247 36.4077 29.9239 38.8918 30.2123 42.0482C30.2274 42.2069 30.2344 42.3669 30.2344 42.5291Z" fill="white"/>
<path d="M23.0466 49.2329C18.7602 49.2329 15.2734 46.2259 15.2734 42.529C15.2734 41.9255 15.3668 41.3279 15.5501 40.7512C16.4711 37.8504 19.554 35.824 23.0466 35.824C24.9995 35.824 26.8649 36.4497 28.3018 37.5866C29.7551 38.7364 30.6411 40.3018 30.7952 41.9956C30.8116 42.1648 30.8197 42.3458 30.8197 42.529C30.8197 46.2259 27.333 49.2329 23.0466 49.2329ZM23.0466 36.9913C20.0559 36.9913 17.4306 38.6827 16.6625 41.1049C16.5155 41.5672 16.4408 42.0458 16.4408 42.529C16.4408 45.5816 19.4046 48.0656 23.0466 48.0656C26.6886 48.0656 29.6524 45.5816 29.6524 42.529C29.6524 42.3796 29.6466 42.2407 29.6326 42.1041C29.3711 39.236 26.4773 36.9913 23.0466 36.9913Z" fill="#002D59"/>
<path d="M23.0464 46.2099C25.4343 46.2099 27.3701 44.5615 27.3701 42.5281C27.3701 40.4948 25.4343 38.8464 23.0464 38.8464C20.6585 38.8464 18.7227 40.4948 18.7227 42.5281C18.7227 44.5615 20.6585 46.2099 23.0464 46.2099Z" fill="white"/>
<path d="M23.048 46.7937C20.3422 46.7937 18.1406 44.8804 18.1406 42.5283C18.1406 40.1762 20.3422 38.2629 23.048 38.2629C25.7538 38.2629 27.9554 40.1762 27.9554 42.5283C27.9554 44.8804 25.7538 46.7937 23.048 46.7937ZM23.048 39.4314C20.9854 39.4314 19.3079 40.8205 19.3079 42.5295C19.3079 44.2384 20.9854 45.6275 23.048 45.6275C25.1107 45.6275 26.7881 44.2384 26.7881 42.5295C26.7881 40.8205 25.1107 39.4314 23.048 39.4314Z" fill="#002D59"/>
<path d="M33.257 23.3313H30.3398V33.9223H33.257V23.3313Z" fill="white"/>
<path d="M33.8422 34.5059H29.7578V22.7476H33.8422V34.5059ZM30.9251 33.3386H32.6749V23.9149H30.9251V33.3386Z" fill="#002D59"/>
<path d="M33.2577 33.9224H30.3398V37.7708H33.2577V33.9224Z" fill="white"/>
<path d="M33.8422 38.3536H29.7578V33.3389H33.8422V38.3536ZM30.9251 37.1863H32.6749V34.5062H30.9251V37.1863Z" fill="#002D59"/>
</svg>
