<svg width="64" height="64" viewBox="0 0 64 64" fill="none" xmlns="http://www.w3.org/2000/svg">
<path fill-rule="evenodd" clip-rule="evenodd" d="M61.6165 31.5793C61.6165 47.1335 49.7611 59.919 34.5934 61.3906C33.63 61.4837 32.6524 61.5321 31.6643 61.5321C30.6762 61.5321 29.6974 61.4837 28.7329 61.3894C13.5663 59.9178 1.71094 47.1323 1.71094 31.5793C1.71094 28.6255 2.13898 25.772 2.9361 23.0764C3.19788 22.1897 3.49974 21.3195 3.83935 20.4693C8.25299 9.42895 19.0471 1.62769 31.6643 1.62769C44.2815 1.62769 55.1959 9.5162 59.5612 20.6545C59.9114 21.5483 60.2203 22.4645 60.4845 23.3972C61.2226 25.9984 61.6165 28.7423 61.6165 31.5793Z" fill="white"/>
<path d="M31.664 62.1218C30.6676 62.1218 29.6618 62.0723 28.6748 61.9768C21.1611 61.2481 14.2087 57.7625 9.0982 52.1627C3.95465 46.5264 1.12109 39.2156 1.12109 31.5795C1.12109 28.6304 1.54088 25.7132 2.36984 22.9092C2.63397 22.013 2.9441 21.118 3.29077 20.2502C5.5312 14.6445 9.35172 9.86305 14.3396 6.42229C19.4466 2.89899 25.4368 1.03711 31.6629 1.03711C37.8889 1.03711 43.944 2.91903 49.0686 6.47889C54.0754 9.95738 57.8936 14.7848 60.1092 20.4377C60.4665 21.3503 60.7837 22.2925 61.0514 23.2346C61.8179 25.9337 62.2058 28.7401 62.2058 31.5771C62.2058 39.2145 59.3723 46.5252 54.2275 52.1615C49.117 57.7613 42.1634 61.2469 34.6497 61.9756C33.6604 62.0711 32.6557 62.1195 31.664 62.1195V62.1218ZM31.664 2.21744C25.6774 2.21744 19.9183 4.00739 15.0106 7.39391C10.2149 10.7026 6.54175 15.3001 4.3874 20.6888C4.05488 21.5225 3.75655 22.3821 3.50184 23.244C2.70472 25.9396 2.30027 28.7436 2.30027 31.5795C2.30027 38.9209 5.02416 45.9486 9.96961 51.368C14.8832 56.752 21.5668 60.1019 28.7892 60.8035C30.6841 60.9887 32.6274 60.9887 34.5365 60.8035C41.7589 60.1031 48.4437 56.752 53.3573 51.368C58.3027 45.9486 61.0266 38.9209 61.0266 31.5783C61.0266 28.8509 60.6528 26.1518 59.917 23.5565C59.66 22.6498 59.3558 21.7454 59.0126 20.8681C56.8818 15.4322 53.2111 10.7922 48.3977 7.44697C43.4711 4.02508 37.6861 2.21626 31.6652 2.21626L31.664 2.21744Z" fill="#002D59"/>
<path d="M47.2852 34.678V28.4816H43.9399C43.6357 27.2706 43.157 26.1292 42.532 25.0868L44.8986 22.7203L40.518 18.3397L38.1514 20.7063C37.1078 20.0813 35.9675 19.6026 34.7565 19.2996V15.9531H28.56V19.2984C27.349 19.6026 26.2075 20.0813 25.1651 20.7063L22.7985 18.3397L18.4179 22.7203L20.7845 25.0868C20.1595 26.1292 19.6808 27.2706 19.3766 28.4816H16.0312V34.678H19.3777C19.6808 35.8878 20.1584 37.0281 20.7845 38.0716L18.4179 40.4382L22.7985 44.8199L25.1651 42.4534C26.2075 43.0783 27.349 43.557 28.56 43.8613V47.2053H34.7565V43.8601C35.9675 43.557 37.1078 43.0795 38.1514 42.4534L40.518 44.8199L44.8986 40.4382L42.532 38.0716C43.157 37.0281 43.6357 35.8878 43.9387 34.678H47.2852ZM37.7009 33.2395C37.6526 33.4152 37.5972 33.5873 37.5335 33.756C37.4781 33.9045 37.4179 34.0519 37.3519 34.1934C37.2752 34.3597 37.1927 34.52 37.1031 34.678C36.5465 35.6544 35.7341 36.4668 34.7565 37.0246C34.5985 37.1153 34.4381 37.1979 34.2719 37.2734C34.1304 37.3394 33.9842 37.3983 33.8356 37.4549C33.667 37.5186 33.4948 37.5729 33.3191 37.6224C32.7897 37.7662 32.2331 37.8441 31.6577 37.8441C31.0822 37.8441 30.5256 37.7662 29.9986 37.6224C29.8217 37.5752 29.6507 37.5186 29.4809 37.4549C29.3323 37.3995 29.1861 37.3394 29.0446 37.2734C28.8783 37.1967 28.718 37.113 28.56 37.0246C27.5824 36.4692 26.77 35.6567 26.2122 34.678C26.1226 34.5212 26.0389 34.3597 25.9646 34.1934C25.8986 34.0519 25.8384 33.9045 25.783 33.756C25.7205 33.5873 25.6651 33.4152 25.6156 33.2395C25.4717 32.7112 25.3939 32.1547 25.3939 31.5792C25.3939 31.0038 25.4717 30.4472 25.6156 29.919C25.6639 29.7433 25.7205 29.5711 25.783 29.4025C25.8384 29.2539 25.8986 29.1077 25.9646 28.9662C26.0401 28.8 26.1226 28.6396 26.2122 28.4816C26.7688 27.5041 27.5813 26.6916 28.56 26.1339C28.7168 26.0443 28.8783 25.9606 29.0446 25.8863C29.1861 25.8203 29.3323 25.7601 29.4809 25.7047C29.6507 25.6422 29.8217 25.5868 29.9986 25.5373C30.5256 25.3934 31.0822 25.3156 31.6577 25.3156C32.2331 25.3156 32.7897 25.3934 33.3179 25.5384C33.4936 25.5856 33.6658 25.6422 33.8344 25.7047C33.983 25.7601 34.1304 25.8203 34.2719 25.8863C34.4381 25.9618 34.5985 26.0455 34.7565 26.1339C35.7341 26.6905 36.5465 27.5029 37.1031 28.4816C37.1927 28.6396 37.2764 28.8 37.3519 28.9662C37.4179 29.1077 37.4781 29.2539 37.5335 29.4025C37.5972 29.5711 37.6514 29.7433 37.7009 29.919C37.8448 30.4472 37.9226 31.0038 37.9226 31.5792C37.9226 32.1547 37.8448 32.7112 37.7009 33.2395Z" fill="white"/>
<path d="M35.3486 47.795H27.9729V44.3129C27.0307 44.0406 26.1227 43.6644 25.2655 43.1904L22.8022 45.6536L17.5879 40.4383L20.0512 37.975C19.5771 37.1154 19.201 36.2086 18.9298 35.2689H15.4453V27.8933H18.9286C19.201 26.9511 19.5771 26.0432 20.0512 25.1859L17.5879 22.7227L22.8022 17.5085L25.2655 19.9717C26.1227 19.4977 27.0307 19.1216 27.9729 18.8492V15.366H35.3486V18.8504C36.2884 19.1216 37.1963 19.4977 38.056 19.9717L40.5193 17.5073L45.7336 22.7215L43.2703 25.1848C43.7443 26.0432 44.1204 26.95 44.3928 27.8921H47.8761V35.2677H44.3917C44.1205 36.2075 43.7443 37.1142 43.2703 37.9738L45.7336 40.4371L40.5193 45.6525L38.056 43.188C37.1963 43.6632 36.2896 44.0382 35.3486 44.3094V47.7926V47.795ZM29.152 46.6158H34.1694V43.4003L34.6163 43.2883C35.753 43.0041 36.8414 42.5525 37.8508 41.9488L38.2458 41.7129L40.5204 43.9875L44.0674 40.4394L41.7928 38.1648L42.0286 37.7698C42.6335 36.7593 43.084 35.6721 43.3681 34.5366L43.4802 34.0897H46.6981V29.0724H43.4825L43.3705 28.6267C43.084 27.4876 42.6335 26.3993 42.0298 25.3923L41.7928 24.9973L44.0674 22.7227L40.5204 19.1758L38.2458 21.4504L37.8508 21.2146C36.8414 20.6097 35.753 20.1592 34.6163 19.875L34.1694 19.763V16.5463H29.152V19.7618L28.7063 19.8739C27.566 20.1604 26.4777 20.612 25.4718 21.2146L25.0768 21.4516L22.8022 19.177L19.2552 22.7239L21.5298 24.9985L21.2928 25.3935C20.6891 26.4005 20.2375 27.4888 19.9521 28.6279L19.8401 29.0736H16.6245V34.0909H19.8413L19.9533 34.5378C20.2375 35.6733 20.6891 36.7617 21.2928 37.771L21.5287 38.166L19.254 40.4406L22.801 43.9887L25.0756 41.7141L25.4706 41.9511C26.4777 42.5548 27.566 43.0065 28.7051 43.2918L29.1508 43.4038V46.6182L29.152 46.6158ZM31.6601 38.4337C31.0446 38.4337 30.4338 38.3523 29.8454 38.1908C29.6579 38.1401 29.4716 38.08 29.277 38.008C29.1202 37.9502 28.9586 37.883 28.7995 37.8099C28.6261 37.7297 28.4481 37.639 28.2712 37.5375C27.2005 36.9291 26.3126 36.0424 25.7029 34.9705C25.598 34.7866 25.5096 34.6132 25.4306 34.4376C25.3598 34.2854 25.2926 34.1227 25.2336 33.96C25.1652 33.7761 25.1051 33.5874 25.052 33.3987C24.8905 32.8056 24.8091 32.1948 24.8091 31.5805C24.8091 30.9661 24.8905 30.3542 25.052 29.7646C25.1051 29.5724 25.1664 29.3837 25.2348 29.1998C25.2926 29.0418 25.3598 28.8802 25.4341 28.7199C25.5119 28.5489 25.6004 28.3755 25.7041 28.1916C26.3138 27.1209 27.2017 26.233 28.2724 25.6234C28.4563 25.5185 28.6297 25.43 28.8053 25.351C28.961 25.2791 29.1225 25.2119 29.2817 25.1529C29.4751 25.0822 29.6591 25.0232 29.8454 24.9713C31.0269 24.6482 32.3028 24.6482 33.4784 24.9713C33.6624 25.022 33.8534 25.0822 34.0421 25.1529C34.2036 25.2119 34.3663 25.2791 34.5232 25.3522C34.6941 25.43 34.8675 25.5185 35.0514 25.6234C36.1233 26.2342 37.0112 27.1221 37.6185 28.1916C37.7187 28.3673 37.8095 28.5453 37.8909 28.721C37.964 28.8802 38.0312 29.0418 38.0902 29.2009C38.155 29.3719 38.214 29.5571 38.2717 29.7622C38.4333 30.3553 38.5147 30.9661 38.5147 31.5805C38.5147 32.1948 38.4333 32.8068 38.2717 33.3964V33.3999C38.214 33.6051 38.1538 33.7902 38.0878 33.9647C38.0288 34.1239 37.9616 34.2866 37.8897 34.4423C37.8024 34.6309 37.7128 34.8043 37.6161 34.9729C37.0077 36.04 36.1209 36.9267 35.0514 37.5364C34.884 37.6331 34.7106 37.7227 34.522 37.8088C34.3758 37.876 34.2201 37.9408 34.0468 38.0068C33.8711 38.0729 33.6859 38.133 33.4808 38.1896C32.8865 38.3512 32.2757 38.4337 31.6613 38.4337H31.6601ZM31.6601 25.9076C31.1495 25.9076 30.6437 25.9748 30.1567 26.108C30.0034 26.1505 29.8489 26.2 29.6862 26.2601C29.5577 26.3073 29.4256 26.3627 29.2947 26.4229C29.1485 26.4889 29.0058 26.562 28.8549 26.6481C27.9693 27.1528 27.2335 27.8886 26.7288 28.7741C26.6427 28.925 26.5696 29.0677 26.506 29.2104C26.4435 29.346 26.388 29.478 26.3409 29.6066C26.2831 29.761 26.2324 29.9202 26.1888 30.0782C26.0567 30.5629 25.9883 31.0699 25.9883 31.5805C25.9883 32.091 26.0555 32.5969 26.1888 33.0851C26.2324 33.2395 26.2831 33.3987 26.3397 33.5532C26.3892 33.6876 26.4435 33.8197 26.5024 33.947C26.5685 34.0933 26.6416 34.2359 26.7276 34.3869C27.2323 35.2736 27.9681 36.0082 28.8537 36.5117C29.0011 36.5954 29.1497 36.672 29.2935 36.7381C29.4244 36.7994 29.5577 36.8536 29.6874 36.902C29.8489 36.9621 30.0022 37.0116 30.1543 37.0529C31.1319 37.3206 32.186 37.3206 33.1659 37.0529C33.3346 37.0057 33.4867 36.9562 33.6305 36.9032C33.7767 36.8477 33.9064 36.7947 34.0267 36.7381C34.1836 36.6661 34.3262 36.593 34.4642 36.5129C35.3521 36.007 36.0867 35.2712 36.5926 34.3857C36.6728 34.2465 36.7459 34.1039 36.819 33.947C36.878 33.8185 36.9334 33.6864 36.9829 33.552C37.0372 33.4058 37.0867 33.2537 37.135 33.0827C37.2683 32.5945 37.3355 32.0887 37.3355 31.5793C37.3355 31.0699 37.2683 30.5629 37.135 30.0747C37.0879 29.9061 37.0383 29.7528 36.9853 29.6101C36.9357 29.4769 36.8815 29.3448 36.8202 29.2139C36.753 29.0677 36.6775 28.9203 36.5938 28.7741C36.0903 27.8886 35.3557 27.1528 34.4689 26.6481C34.318 26.562 34.1741 26.4889 34.0326 26.424C33.9006 26.3627 33.7673 26.3085 33.6352 26.259C33.4772 26.2012 33.3204 26.1505 33.1671 26.1092C32.6789 25.9748 32.1731 25.9064 31.6613 25.9064L31.6601 25.9076Z" fill="#002D59"/>
<path d="M23.1792 31.5792H22C22 30.7113 22.1156 29.8505 22.342 29.0192C22.4174 28.7504 22.5035 28.4827 22.599 28.2233C22.6816 28.0004 22.7759 27.7729 22.8797 27.5476C22.9893 27.3047 23.1155 27.0595 23.2617 26.8024C24.1213 25.2931 25.3724 24.042 26.8818 23.1824C27.14 23.035 27.3853 22.91 27.6317 22.798C27.8534 22.6954 28.081 22.6011 28.3039 22.5197C28.5774 22.4195 28.8368 22.3358 29.0998 22.2627L29.4146 23.3994C29.1835 23.4631 28.9524 23.5374 28.7107 23.627C28.5173 23.6977 28.3204 23.7803 28.1234 23.8711C27.9065 23.9689 27.693 24.0786 27.4666 24.2083C26.1424 24.963 25.0434 26.0619 24.2888 27.3861C24.1602 27.6113 24.0506 27.8259 23.9539 28.0394C23.8607 28.2398 23.7794 28.4379 23.7074 28.6313C23.6225 28.8624 23.5459 29.0982 23.4799 29.3341C23.2818 30.0604 23.1804 30.8174 23.1804 31.5803L23.1792 31.5792Z" fill="#002D59"/>
<path d="M34.2234 40.8957L33.9062 39.7601C34.1621 39.6882 34.3909 39.6151 34.6055 39.5338C34.8236 39.4524 35.017 39.371 35.1974 39.2885C35.4321 39.1812 35.6455 39.0703 35.8519 38.9512C37.1773 38.1954 38.2763 37.0964 39.0309 35.7734L40.0556 36.3571C39.196 37.8641 37.9449 39.1152 36.4379 39.9748C36.2021 40.1104 35.9568 40.2365 35.6915 40.3592C35.4852 40.4547 35.2658 40.5455 35.0206 40.6374C34.7741 40.7306 34.5135 40.8143 34.2234 40.8957Z" fill="#002D59"/>
<path d="M31.6635 54.1106C25.8907 54.1106 20.118 51.9132 15.7243 47.5184C6.93566 38.73 6.93566 24.429 15.7243 15.6394C24.514 6.85099 38.8141 6.85099 47.6039 15.6394C56.3925 24.4278 56.3925 38.7288 47.6039 47.5184C43.209 51.9132 37.4374 54.1106 31.6646 54.1106H31.6635ZM31.6635 10.2043C26.1866 10.2043 20.711 12.2884 16.5415 16.4578C8.20373 24.7966 8.20373 38.3636 16.5415 46.7012C24.8804 55.04 38.4477 55.04 46.7855 46.7012C55.1232 38.3624 55.1232 24.7954 46.7855 16.4578C42.616 12.2884 37.1392 10.2043 31.6635 10.2043Z" fill="#002D59"/>
<path d="M15.8229 51.7573C18.2169 51.7573 20.1576 49.8166 20.1576 47.4227C20.1576 45.0288 18.2169 43.0881 15.8229 43.0881C13.429 43.0881 11.4883 45.0288 11.4883 47.4227C11.4883 49.8166 13.429 51.7573 15.8229 51.7573Z" fill="white"/>
<path d="M15.8254 50.1322C15.1308 50.1322 14.4363 49.8681 13.908 49.3398C13.3963 48.8281 13.1133 48.1465 13.1133 47.4225C13.1133 46.6985 13.3951 46.017 13.908 45.5052C14.9658 44.4475 16.685 44.4487 17.7427 45.5052C18.2545 46.017 18.5375 46.6985 18.5375 47.4225C18.5375 48.1465 18.2557 48.8281 17.7427 49.3398C17.2144 49.8681 16.5199 50.1322 15.8254 50.1322ZM15.8254 45.8908C15.4327 45.8908 15.0401 46.0406 14.7417 46.3389C14.4528 46.6278 14.2925 47.0134 14.2925 47.4225C14.2925 47.8317 14.4516 48.2161 14.7417 48.5062C15.3396 49.104 16.3112 49.104 16.909 48.5062C17.1979 48.2173 17.3583 47.8317 17.3583 47.4225C17.3583 47.0134 17.1991 46.629 16.909 46.3389C16.6107 46.0406 16.218 45.8908 15.8254 45.8908Z" fill="#002D59"/>
<path d="M47.5104 20.072C49.9044 20.072 51.8451 18.1313 51.8451 15.7374C51.8451 13.3435 49.9044 11.4028 47.5104 11.4028C45.1165 11.4028 43.1758 13.3435 43.1758 15.7374C43.1758 18.1313 45.1165 20.072 47.5104 20.072Z" fill="white"/>
<path d="M47.5117 18.4481C46.7877 18.4481 46.1061 18.1662 45.5944 17.6533C45.0826 17.1416 44.8008 16.46 44.8008 15.736C44.8008 15.012 45.0826 14.3305 45.5955 13.8187C46.1073 13.307 46.7889 13.0251 47.5129 13.0251C48.2369 13.0251 48.9185 13.307 49.4302 13.8187C49.942 14.3305 50.225 15.012 50.225 15.736C50.225 16.46 49.9432 17.1416 49.4302 17.6533C48.9185 18.1651 48.2369 18.4469 47.5129 18.4469L47.5117 18.4481ZM47.5117 14.2043C47.1025 14.2043 46.7181 14.3635 46.428 14.6536C46.138 14.9424 45.9788 15.328 45.9788 15.7372C45.9788 16.1464 46.138 16.5308 46.428 16.8208C46.7181 17.1109 47.1025 17.2701 47.5117 17.2701C47.9209 17.2701 48.3053 17.1109 48.5954 16.8208C48.8843 16.5319 49.0446 16.1464 49.0446 15.7372C49.0446 15.328 48.8854 14.9436 48.5954 14.6536C48.3053 14.3647 47.9209 14.2043 47.5117 14.2043Z" fill="#002D59"/>
<path d="M31.6648 63.1231C30.6353 63.1231 29.5964 63.0729 28.5785 62.9726C20.8195 62.2197 13.6383 58.6197 8.35985 52.837C3.0475 47.0157 0.121094 39.4656 0.121094 31.5782C0.121094 28.5316 0.555327 25.5188 1.41095 22.6239C1.6841 21.6983 2.00394 20.7738 2.3623 19.8785C4.67704 14.0898 8.62249 9.15103 13.7737 5.59779C19.0476 1.95934 25.2342 0.0356445 31.6648 0.0356445C38.0955 0.0356445 44.3486 1.97919 49.6412 5.65616C54.8123 9.24909 58.7554 14.2346 61.0433 20.0734C61.4133 21.0166 61.7401 21.9889 62.0156 22.9624C62.807 25.7499 63.2074 28.6495 63.2074 31.5794C63.2074 39.4668 60.281 47.0168 54.9687 52.8381C49.6902 58.6209 42.509 62.2208 34.7488 62.9737C33.7274 63.0729 32.6897 63.1231 31.6648 63.1231ZM31.6648 1.20294C25.4724 1.20294 19.5145 3.05426 14.4368 6.55848C9.47578 9.98098 5.67507 14.7365 3.44671 20.3115C3.10236 21.1741 2.79419 22.0625 2.53155 22.9543C1.70744 25.7429 1.28839 28.6437 1.28839 31.5782C1.28839 39.1738 4.10623 46.4437 9.22248 52.049C14.306 57.6182 21.2199 61.0851 28.6917 61.8099C30.6516 62.0014 32.6629 62.0025 34.6368 61.8111C42.1086 61.0862 49.0237 57.6194 54.1072 52.0502C59.2235 46.4437 62.0413 39.1738 62.0413 31.5782C62.0413 28.7557 61.6549 25.9647 60.8939 23.2799C60.6289 22.3426 60.3137 21.4076 59.9577 20.4983C57.7538 14.8754 53.9566 10.0744 48.9758 6.61334C43.8794 3.07294 37.8947 1.20177 31.666 1.20177L31.6648 1.20294Z" fill="white"/>
</svg>
