<svg width="64" height="64" viewBox="0 0 64 64" fill="none" xmlns="http://www.w3.org/2000/svg">
<path d="M31.5632 63.4751C30.5337 63.4751 29.4948 63.4249 28.4758 63.3246C20.7168 62.5716 13.5356 58.9717 8.25711 53.189C2.94593 47.3677 0.0195312 39.8176 0.0195312 31.9302C0.0195312 28.8836 0.453764 25.8708 1.30939 22.976C1.58253 22.0503 1.90237 21.1258 2.26073 20.2305C4.57547 14.4407 8.52092 9.50308 13.6722 5.94984C18.946 2.31139 25.1326 0.387695 31.5632 0.387695C37.9939 0.387695 44.247 2.33124 49.5395 6.0082C54.7106 9.60113 58.6537 14.5866 60.9416 20.4254C61.3117 21.3686 61.6385 22.3398 61.914 23.3145C62.7054 26.102 63.1058 29.0015 63.1058 31.9314C63.1058 39.8188 60.1794 47.3688 54.8671 53.1901C49.5886 58.9729 42.4074 62.5728 34.6472 63.3257C33.6247 63.4249 32.5881 63.4751 31.5632 63.4751ZM31.5632 1.55499C25.3708 1.55499 19.4129 3.40631 14.3352 6.91052C9.3742 10.333 5.5735 15.0886 3.34514 20.6635C3.00079 21.5262 2.69263 22.4157 2.42882 23.3075C1.60471 26.095 1.18682 28.9968 1.18682 31.9314C1.18682 39.527 4.00466 46.7969 9.1209 52.4022C14.2045 57.9714 21.1183 61.4382 28.5902 62.1631C30.5489 62.3545 32.5613 62.3557 34.5352 62.1643C42.007 61.4394 48.922 57.9725 54.0056 52.4034C59.1218 46.7969 61.9397 39.527 61.9397 31.9314C61.9397 29.1101 61.5533 26.3179 60.7922 23.6331C60.5261 22.6946 60.2121 21.7596 59.8561 20.8515C57.6522 15.2286 53.855 10.4276 48.8742 6.96655C43.7778 3.42616 37.7931 1.55499 31.5644 1.55499H31.5632Z" fill="white"/>
<mask id="mask0_909_6349" style="mask-type:alpha" maskUnits="userSpaceOnUse" x="1" y="1" width="61" height="61">
<circle cx="31.4603" cy="31.931" r="29.9525" fill="#D9D9D9"/>
</mask>
<g mask="url(#mask0_909_6349)">
<g filter="url(#filter0_d_909_6349)">
<path fill-rule="evenodd" clip-rule="evenodd" d="M61.216 31.9306C61.216 47.3284 49.48 59.9853 34.4652 61.4421C33.5115 61.5343 32.5438 61.5822 31.5656 61.5822C30.5874 61.5822 29.6186 61.5343 28.6637 61.4409C13.65 59.9842 1.91406 47.3272 1.91406 31.9306C1.91406 29.0066 2.33779 26.1817 3.12688 23.5133C3.38602 22.6355 3.68484 21.774 4.02102 20.9324C8.3902 10.0031 19.0756 2.28027 31.5656 2.28027C44.0556 2.28027 54.8601 10.0895 59.1814 21.1157C59.5281 22.0005 59.8339 22.9075 60.0954 23.8308C60.8261 26.4059 61.216 29.1221 61.216 31.9306Z" fill="white"/>
<path d="M31.5633 62.1657C30.5769 62.1657 29.5824 62.1167 28.6042 62.0222C21.1662 61.3008 14.2839 57.8503 9.22485 52.3068C4.13313 46.7271 1.32812 39.4911 1.32812 31.9306C1.32812 29.0112 1.74368 26.1233 2.56545 23.3475C2.82693 22.4603 3.13392 21.5743 3.47711 20.7152C5.69496 15.1659 9.47699 10.4325 14.4146 7.02639C19.4702 3.54085 25.4 1.69653 31.5633 1.69653C37.7266 1.69653 43.7206 3.55953 48.7937 7.08358C53.75 10.5271 57.5297 15.306 59.723 20.902C60.0767 21.8055 60.3907 22.737 60.6557 23.6708C61.4145 26.3427 61.7985 29.1209 61.7985 31.9294C61.7985 39.4899 58.9935 46.726 53.9006 52.3068C48.8416 57.8503 41.958 61.3008 34.5201 62.0222C33.5395 62.1167 32.545 62.1646 31.5645 62.1646L31.5633 62.1657ZM31.5633 2.86382C25.637 2.86382 19.9359 4.63577 15.0777 7.98823C10.3303 11.2637 6.69416 15.8138 4.56152 21.1494C4.23235 21.9747 3.93702 22.8257 3.68489 23.679C2.8958 26.3474 2.49542 29.1232 2.49542 31.9306C2.49542 39.1981 5.19186 46.1552 10.0875 51.52C14.9516 56.8499 21.5678 60.1662 28.7175 60.8607C30.5933 61.044 32.517 61.0451 34.4068 60.8607C41.5565 60.1673 48.1739 56.8499 53.038 51.52C57.9336 46.1552 60.63 39.1981 60.63 31.9294C60.63 29.2294 60.26 26.5575 59.5316 23.9895C59.2771 23.0918 58.976 22.1965 58.6351 21.328C56.5258 15.9468 52.8921 11.3524 48.1272 8.04193C43.2514 4.65445 37.5235 2.86382 31.5633 2.86382Z" fill="#002D59"/>
<path d="M51.2114 19.7161L8.39631 30.2334C7.43212 30.4704 7.04458 31.6318 7.67375 32.3999L10.8628 36.2963C12.3499 38.1138 14.7499 38.9145 17.0308 38.3542L38.2299 33.147C42.5501 32.0859 46.2737 29.3568 48.5873 25.5572L51.7215 20.4095C51.9374 20.0546 51.6164 19.6157 51.2126 19.7149L51.2114 19.7161Z" fill="white"/>
<path d="M15.5909 39.1117C13.6136 39.1117 11.6887 38.2304 10.4082 36.6651L7.21913 32.7687C6.79657 32.2516 6.6705 31.5652 6.88178 30.9313C7.09306 30.2975 7.60667 29.8248 8.25452 29.666L51.0696 19.1487C51.484 19.0472 51.9147 19.2036 52.1657 19.5479C52.4178 19.8923 52.4377 20.3498 52.2159 20.714L49.0817 25.8618C46.6712 29.8201 42.8659 32.6087 38.3648 33.7142L17.1656 38.9215C16.6438 39.0499 16.1151 39.1117 15.5886 39.1117H15.5909ZM51.0708 20.351L8.5335 30.8006C8.2732 30.8648 8.07476 31.0481 7.98954 31.3025C7.90433 31.557 7.95336 31.8232 8.12378 32.0309L11.3128 35.9274C12.6505 37.5616 14.8392 38.2923 16.8901 37.788L38.0893 32.5807C42.2881 31.5488 45.839 28.9469 48.0872 25.2548L51.0719 20.3522L51.0708 20.351Z" fill="#002D59"/>
<path d="M22.2322 27.4365L21.2621 22.8468C21.1466 22.2993 21.3987 21.7495 21.8901 21.4799L21.9041 21.4729L35.1412 14.6804C35.7167 14.3699 36.4428 14.5555 36.7988 15.1041L41.6944 22.6565L22.2322 27.4377V27.4365ZM22.4469 22.5047C22.4131 22.5258 22.3956 22.5654 22.4037 22.604L23.1251 26.0148L39.8221 21.9129L35.8183 15.738C35.7914 15.6971 35.7365 15.6831 35.6945 15.7064L35.6805 15.7134L22.4481 22.5036L22.4469 22.5047Z" fill="#002D59"/>
<path d="M9.2629 35.2655L7.18395 32.736C6.76606 32.227 6.64116 31.5512 6.84777 30.9267C7.05555 30.3022 7.56099 29.8364 8.1995 29.6788L49.8683 19.4429L41.0553 26.0556C39.1911 27.454 37.0993 28.4439 34.8359 28.9983L9.26057 35.2643L9.2629 35.2655ZM44.5968 21.9409L8.47965 30.8135C8.22868 30.8753 8.03841 31.0516 7.9567 31.2955C7.87499 31.5407 7.92285 31.7951 8.08627 31.9948L9.6983 33.957L34.5593 27.8649C36.6686 27.3478 38.6191 26.4256 40.356 25.1217L44.5956 21.9409H44.5968Z" fill="#002D59"/>
<path d="M13.7193 29.5259L12.7726 25.6739C12.5637 24.8229 13.0855 23.9615 13.9364 23.7525L17.5714 22.8595C18.4223 22.6506 19.2838 23.1724 19.4927 24.0233L20.4394 27.8754L13.7193 29.5259ZM17.9507 23.9813C17.918 23.9813 17.8842 23.9848 17.8503 23.993L14.2154 24.886C13.9901 24.942 13.8512 25.1696 13.9072 25.3961L14.5749 28.1135L19.0281 27.0198L18.3604 24.3011C18.3138 24.1097 18.141 23.9801 17.9507 23.9801V23.9813Z" fill="#002D59"/>
<path d="M-2.46875 45.7604V45.2153C-1.83564 45.2153 -1.20252 45.0422 -0.616998 44.6946C-0.260781 44.4841 0.0968786 44.2721 0.454538 44.0615C1.62703 43.3678 2.98555 43.3678 4.15804 44.0615C4.5157 44.2721 4.87192 44.4841 5.22958 44.6946C6.40207 45.3883 7.76059 45.3883 8.93308 44.6946C9.29074 44.4841 9.6484 44.2721 10.0046 44.0615C11.1771 43.3678 12.5356 43.3678 13.7081 44.0615C14.0658 44.2721 14.4234 44.4841 14.7797 44.6946C15.9521 45.3883 17.3107 45.3883 18.4832 44.6946C18.8408 44.4841 19.1985 44.2721 19.5547 44.0615C20.7272 43.3678 22.0857 43.3678 23.2582 44.0615C23.6159 44.2721 23.9721 44.4841 24.3297 44.6946C25.5022 45.3883 26.8608 45.3883 28.0347 44.6946C28.3923 44.4841 28.7486 44.2721 29.1062 44.0615C30.2787 43.3678 31.6372 43.3678 32.8097 44.0615C33.1674 44.2721 33.5236 44.4841 33.8813 44.6946C35.0537 45.3883 36.4123 45.3883 37.5862 44.6946C37.9439 44.4841 38.3001 44.2721 38.6577 44.0615C39.8302 43.3678 41.1888 43.3678 42.3627 44.0615C42.7204 44.2721 43.0766 44.4841 43.4342 44.6946C44.6067 45.3883 45.9652 45.3883 47.1377 44.6946C47.4954 44.4841 47.8516 44.2721 48.2093 44.0615C49.3818 43.3678 50.7403 43.3678 51.9128 44.0615C52.2704 44.2721 52.6267 44.4841 52.9843 44.6946C54.1568 45.3883 55.5153 45.3883 56.6878 44.6946C57.0455 44.4841 57.4017 44.2721 57.7594 44.0615C58.9318 43.3678 60.2904 43.3678 61.4629 44.0615C61.8205 44.2721 62.1767 44.4841 62.5344 44.6946C63.1214 45.0422 63.753 45.2153 64.3861 45.2153V45.7604C63.753 45.7604 63.1199 45.5873 62.5344 45.2398C62.1767 45.0292 61.8205 44.8172 61.4629 44.6067C60.2904 43.913 58.9318 43.913 57.7594 44.6067C57.4017 44.8172 57.044 45.0292 56.6878 45.2398C55.5153 45.9335 54.1568 45.9335 52.9843 45.2398C52.6267 45.0292 52.2704 44.8172 51.9128 44.6067C50.7403 43.913 49.3818 43.913 48.2093 44.6067C47.8516 44.8172 47.494 45.0292 47.1377 45.2398C45.9638 45.9335 44.6067 45.9335 43.4342 45.2398C43.0766 45.0292 42.7204 44.8172 42.3627 44.6067C41.1888 43.913 39.8317 43.913 38.6577 44.6067C38.3001 44.8172 37.9439 45.0292 37.5862 45.2398C36.4137 45.9335 35.0552 45.9335 33.8813 45.2398C33.5236 45.0292 33.1674 44.8172 32.8097 44.6067C31.6372 43.913 30.2787 43.913 29.1062 44.6067C28.7486 44.8172 28.3923 45.0292 28.0347 45.2398C26.8622 45.9335 25.5037 45.9335 24.3297 45.2398C23.9735 45.0292 23.6159 44.8172 23.2582 44.6067C22.0857 43.913 20.7272 43.913 19.5547 44.6067C19.197 44.8172 18.8408 45.0292 18.4832 45.2398C17.3107 45.9335 15.9521 45.9335 14.7797 45.2398C14.422 45.0292 14.0643 44.8172 13.7081 44.6067C12.5356 43.913 11.1771 43.913 10.0046 44.6067C9.64696 44.8172 9.29074 45.0292 8.93308 45.2398C7.76059 45.9335 6.40207 45.9335 5.22958 45.2398C4.87192 45.0292 4.5157 44.8172 4.15804 44.6067C2.98555 43.913 1.62703 43.913 0.454538 44.6067C0.0968786 44.8172 -0.259338 45.0292 -0.616998 45.2398C-1.20396 45.5873 -1.83708 45.7604 -2.46875 45.7604Z" stroke="#002D59" stroke-width="0.607156" stroke-miterlimit="10"/>
<path d="M-2.46875 51.4735C-1.83564 51.4735 -1.20252 51.3005 -0.616998 50.9529C-0.260781 50.7424 0.0968784 50.5304 0.454538 50.3198C1.62703 49.6261 2.98555 49.6261 4.15804 50.3198C4.5157 50.5304 4.87192 50.7424 5.22958 50.9529C6.40207 51.6466 7.76059 51.6466 8.93308 50.9529C9.29074 50.7424 9.6484 50.5304 10.0046 50.3198C11.1771 49.6261 12.5356 49.6261 13.7081 50.3198C14.0658 50.5304 14.4234 50.7424 14.7797 50.9529C15.9521 51.6466 17.3107 51.6466 18.4832 50.9529C18.8408 50.7424 19.1985 50.5304 19.5547 50.3198C20.7272 49.6261 22.0857 49.6261 23.2582 50.3198C23.6159 50.5304 23.9721 50.7424 24.3297 50.9529C25.5037 51.6466 26.8608 51.6466 28.0347 50.9529C28.3923 50.7424 28.7486 50.5304 29.1062 50.3198C30.2787 49.6261 31.6372 49.6261 32.8097 50.3198C33.1674 50.5304 33.5236 50.7424 33.8813 50.9529C35.0537 51.6466 36.4123 51.6466 37.5862 50.9529C37.9439 50.7424 38.3001 50.5304 38.6577 50.3198C39.8302 49.6261 41.1888 49.6261 42.3627 50.3198C42.7204 50.5304 43.0766 50.7424 43.4342 50.9529C44.6067 51.6466 45.9652 51.6466 47.1377 50.9529C47.4954 50.7424 47.8516 50.5304 48.2093 50.3198C49.3818 49.6261 50.7403 49.6261 51.9128 50.3198C52.2704 50.5304 52.6266 50.7424 52.9843 50.9529C54.1568 51.6466 55.5153 51.6466 56.6878 50.9529C57.0455 50.7424 57.4017 50.5304 57.7593 50.3198C58.9318 49.6261 60.2904 49.6261 61.4629 50.3198C61.8205 50.5304 62.1767 50.7424 62.5344 50.9529C63.1214 51.299 63.753 51.4735 64.3861 51.4735V50.9284C63.753 50.9284 63.1199 50.7553 62.5344 50.4078C62.1767 50.1972 61.8205 49.9852 61.4629 49.7747C60.2904 49.081 58.9318 49.081 57.7593 49.7747C57.4017 49.9852 57.044 50.1972 56.6878 50.4078C55.5153 51.1015 54.1568 51.1015 52.9843 50.4078C52.6266 50.1972 52.2704 49.9852 51.9128 49.7747C50.7403 49.081 49.3818 49.081 48.2093 49.7747C47.8516 49.9852 47.4939 50.1972 47.1377 50.4078C45.9638 51.1015 44.6067 51.1015 43.4342 50.4078C43.0766 50.1972 42.7204 49.9852 42.3627 49.7747C41.1888 49.081 39.8317 49.081 38.6577 49.7747C38.3001 49.9852 37.9439 50.1972 37.5862 50.4078C36.4137 51.1015 35.0552 51.1015 33.8813 50.4078C33.5236 50.1972 33.1674 49.9852 32.8097 49.7747C31.6372 49.081 30.2787 49.081 29.1062 49.7747C28.7486 49.9852 28.3923 50.1972 28.0347 50.4078C26.8622 51.1015 25.5037 51.1015 24.3297 50.4078C23.9735 50.1972 23.6159 49.9852 23.2582 49.7747C22.0857 49.081 20.7272 49.081 19.5547 49.7747C19.197 49.9852 18.8408 50.1972 18.4832 50.4078C17.3107 51.1015 15.9521 51.1015 14.7797 50.4078C14.422 50.1972 14.0643 49.9852 13.7081 49.7747C12.5356 49.081 11.1771 49.081 10.0046 49.7747C9.64696 49.9852 9.29074 50.1972 8.93308 50.4078C7.76059 51.1015 6.40207 51.1015 5.22958 50.4078C4.87192 50.1972 4.5157 49.9852 4.15804 49.7747C2.98555 49.081 1.62703 49.081 0.454538 49.7747C0.0968784 49.9852 -0.259338 50.1972 -0.616998 50.4078C-1.20396 50.7553 -1.83708 50.9284 -2.46875 50.9284V51.4735Z" stroke="#002D59" stroke-width="0.607156" stroke-miterlimit="10"/>
<path d="M-2.46875 57.1864V56.6413C-1.83564 56.6413 -1.20252 56.4682 -0.616998 56.1207C-0.260781 55.9101 0.0968784 55.6981 0.454538 55.4875C1.62703 54.7939 2.98555 54.7939 4.15804 55.4875C4.5157 55.6981 4.87192 55.9101 5.22958 56.1207C6.40207 56.8144 7.76059 56.8144 8.93308 56.1207C9.29074 55.9101 9.6484 55.6981 10.0046 55.4875C11.1771 54.7939 12.5356 54.7939 13.7081 55.4875C14.0658 55.6981 14.4234 55.9101 14.7797 56.1207C15.9521 56.8144 17.3107 56.8144 18.4832 56.1207C18.8408 55.9101 19.1985 55.6981 19.5547 55.4875C20.7272 54.7939 22.0857 54.7939 23.2582 55.4875C23.6159 55.6981 23.9721 55.9101 24.3297 56.1207C25.5022 56.8144 26.8608 56.8144 28.0347 56.1207C28.3923 55.9101 28.7486 55.6981 29.1062 55.4875C30.2787 54.7939 31.6372 54.7939 32.8097 55.4875C33.1674 55.6981 33.5236 55.9101 33.8813 56.1207C35.0537 56.8144 36.4123 56.8144 37.5862 56.1207C37.9439 55.9101 38.3001 55.6981 38.6577 55.4875C39.8302 54.7939 41.1888 54.7939 42.3627 55.4875C42.7204 55.6981 43.0766 55.9101 43.4342 56.1207C44.6067 56.8144 45.9652 56.8144 47.1377 56.1207C47.4954 55.9101 47.8516 55.6981 48.2093 55.4875C49.3818 54.7939 50.7403 54.7939 51.9128 55.4875C52.2704 55.6981 52.6266 55.9101 52.9843 56.1207C54.1568 56.8144 55.5153 56.8144 56.6878 56.1207C57.0455 55.9101 57.4017 55.6981 57.7593 55.4875C58.9318 54.7939 60.2904 54.7939 61.4629 55.4875C61.8205 55.6981 62.1767 55.9101 62.5344 56.1207C63.1214 56.4682 63.753 56.6413 64.3861 56.6413V57.1864C63.753 57.1864 63.1199 57.0134 62.5344 56.6658C62.1767 56.4552 61.8205 56.2432 61.4629 56.0327C60.2904 55.339 58.9318 55.339 57.7593 56.0327C57.4017 56.2447 57.044 56.4552 56.6878 56.6658C55.5153 57.3595 54.1568 57.3595 52.9843 56.6658C52.6266 56.4552 52.2704 56.2432 51.9128 56.0327C50.7403 55.339 49.3818 55.339 48.2093 56.0327C47.8516 56.2447 47.4939 56.4552 47.1377 56.6658C45.9638 57.3595 44.6067 57.3595 43.4342 56.6658C43.0766 56.4552 42.7204 56.2432 42.3627 56.0327C41.1888 55.339 39.8317 55.339 38.6577 56.0327C38.3001 56.2447 37.9439 56.4552 37.5862 56.6658C36.4137 57.3595 35.0552 57.3595 33.8813 56.6658C33.5236 56.4552 33.1674 56.2432 32.8097 56.0327C31.6372 55.339 30.2787 55.339 29.1062 56.0327C28.7486 56.2447 28.3923 56.4552 28.0347 56.6658C26.8622 57.3595 25.5037 57.3595 24.3297 56.6658C23.9735 56.4552 23.6159 56.2432 23.2582 56.0327C22.0857 55.339 20.7272 55.339 19.5547 56.0327C19.197 56.2447 18.8408 56.4552 18.4832 56.6658C17.3107 57.3595 15.9521 57.3595 14.7797 56.6658C14.422 56.4552 14.0643 56.2432 13.7081 56.0327C12.5356 55.339 11.1771 55.339 10.0046 56.0327C9.64696 56.2447 9.29074 56.4552 8.93308 56.6658C7.76059 57.3595 6.40207 57.3595 5.22958 56.6658C4.87192 56.4552 4.5157 56.2432 4.15804 56.0327C2.98555 55.339 1.62703 55.339 0.454538 56.0327C0.0968784 56.2447 -0.259338 56.4552 -0.616998 56.6658C-1.20396 57.0119 -1.83708 57.1864 -2.46875 57.1864Z" stroke="#002D59" stroke-width="0.607156" stroke-miterlimit="10"/>
<path d="M60.7478 26.9644L3.54297 41.4819L3.8301 42.6134L61.035 28.0958L60.7478 26.9644Z" fill="#002D59"/>
</g>
</g>
<defs>
<filter id="filter0_d_909_6349" x="-6.77899" y="1.69653" width="75.4759" height="68.4803" filterUnits="userSpaceOnUse" color-interpolation-filters="sRGB">
<feFlood flood-opacity="0" result="BackgroundImageFix"/>
<feColorMatrix in="SourceAlpha" type="matrix" values="0 0 0 0 0 0 0 0 0 0 0 0 0 0 0 0 0 0 127 0" result="hardAlpha"/>
<feOffset dy="4.00555"/>
<feGaussianBlur stdDeviation="2.00278"/>
<feComposite in2="hardAlpha" operator="out"/>
<feColorMatrix type="matrix" values="0 0 0 0 0 0 0 0 0 0 0 0 0 0 0 0 0 0 0.25 0"/>
<feBlend mode="normal" in2="BackgroundImageFix" result="effect1_dropShadow_909_6349"/>
<feBlend mode="normal" in="SourceGraphic" in2="effect1_dropShadow_909_6349" result="shape"/>
</filter>
</defs>
</svg>
