<svg width="64" height="64" viewBox="0 0 64 64" fill="none" xmlns="http://www.w3.org/2000/svg">
<circle cx="31.95" cy="31.95" r="31.95" fill="white"/>
<path fill-rule="evenodd" clip-rule="evenodd" d="M61.7961 31.9839C61.7961 47.4582 50.0018 60.1781 34.9122 61.6422C33.9538 61.7348 32.9813 61.7829 31.9983 61.7829C31.0152 61.7829 30.0415 61.7349 29.0819 61.641C13.9935 60.177 2.19922 47.4571 2.19922 31.9839C2.19922 29.0453 2.62505 26.2064 3.41807 23.5247C3.6785 22.6425 3.97881 21.7768 4.31666 20.931C8.70757 9.94725 19.4461 2.18604 31.9983 2.18604C44.5504 2.18604 55.4086 10.0341 59.7514 21.1152C60.0998 22.0044 60.4072 22.9159 60.67 23.8438C61.4043 26.4316 61.7961 29.1614 61.7961 31.9839Z" fill="white"/>
<path d="M31.995 62.3696C31.0037 62.3696 30.0042 62.3203 29.0212 62.2253C21.5462 61.5003 14.6296 58.0327 9.54538 52.4616C4.42833 46.8542 1.60938 39.5822 1.60938 31.984C1.60938 29.0501 2.027 26.1479 2.85286 23.3582C3.11563 22.4667 3.42416 21.5763 3.76905 20.7129C5.99794 15.136 9.79877 10.3791 14.761 6.95598C19.8417 3.4531 25.801 1.59961 31.995 1.59961C38.1889 1.59961 44.2128 3.47187 49.3111 7.01346C54.292 10.4741 58.0905 15.2768 60.2948 20.9006C60.6502 21.8086 60.9658 22.7447 61.2321 23.6832C61.9946 26.3684 62.3806 29.1604 62.3806 31.9829C62.3806 39.581 59.5616 46.853 54.4434 52.4616C49.3592 58.0327 42.4414 61.5003 34.9664 62.2253C33.981 62.3203 32.9815 62.3684 31.9961 62.3684L31.995 62.3696ZM31.995 2.77271C26.0391 2.77271 20.3097 4.55347 15.4273 7.92261C10.6563 11.2143 7.00211 15.7871 4.85886 21.1493C4.52804 21.9787 4.23125 22.8339 3.97786 23.6914C3.18485 26.3731 2.78247 29.1627 2.78247 31.984C2.78247 39.2877 5.49233 46.2794 10.4123 51.671C15.3006 57.0273 21.9497 60.3601 29.135 61.0581C31.0201 61.2423 32.9534 61.2434 34.8526 61.0581C42.0379 60.3613 48.6882 57.0273 53.5765 51.671C58.4964 46.2794 61.2063 39.2877 61.2063 31.9829C61.2063 29.2695 60.8344 26.5843 60.1024 24.0034C59.8467 23.1013 59.544 22.2016 59.2015 21.3288C57.0817 15.9208 53.4298 11.3035 48.6412 7.97657C43.7412 4.57224 37.9848 2.77271 31.995 2.77271Z" fill="#002D59"/>
<path d="M51.7381 19.7074L8.71002 30.277C7.74104 30.5151 7.35157 31.6824 7.98387 32.4543L11.1888 36.3701C12.6833 38.1966 15.0952 39.0013 17.3874 38.4383L38.6921 33.2051C43.0337 32.1387 46.7759 29.396 49.101 25.5776L52.2507 20.4042C52.4678 20.0476 52.1452 19.6065 51.7393 19.7062L51.7381 19.7074Z" fill="white"/>
<path d="M15.9395 39.2C13.9522 39.2 12.0178 38.3143 10.7309 36.7411L7.526 32.8253C7.10134 32.3057 6.97464 31.6159 7.18697 30.9789C7.3993 30.3419 7.91547 29.8668 8.56654 29.7072L51.5946 19.1376C52.0111 19.0356 52.4439 19.1928 52.6962 19.5388C52.9495 19.8849 52.9695 20.3447 52.7466 20.7108L49.5968 25.8841C47.1744 29.8621 43.3501 32.6646 38.8266 33.7755L17.522 39.0087C16.9976 39.1378 16.4662 39.2 15.9371 39.2H15.9395ZM51.5958 20.3459L8.84691 30.8475C8.58531 30.912 8.38588 31.0962 8.30024 31.3519C8.21461 31.6077 8.26388 31.8751 8.43515 32.0839L11.6401 35.9997C12.9844 37.6421 15.184 38.3764 17.2451 37.8697L38.5498 32.6365C42.7694 31.5995 46.338 28.9846 48.5974 25.2741L51.597 20.3471L51.5958 20.3459Z" fill="#002D59"/>
<path d="M22.6161 27.4677L21.6412 22.8549C21.525 22.3046 21.7784 21.7521 22.2723 21.4811L22.2864 21.4741L35.59 14.6474C36.1684 14.3354 36.8981 14.5219 37.2559 15.0733L42.1761 22.6636L22.6161 27.4689V27.4677ZM22.8319 22.5111C22.7979 22.5322 22.7803 22.5721 22.7885 22.6108L23.5135 26.0388L40.2944 21.9163L36.2705 15.7103C36.2435 15.6693 36.1883 15.6552 36.1461 15.6787L36.132 15.6857L22.8331 22.51L22.8319 22.5111Z" fill="#002D59"/>
<path d="M9.5879 35.3352L7.49861 32.7931C7.07864 32.2816 6.95312 31.6024 7.16076 30.9748C7.36957 30.3472 7.87752 29.8791 8.51921 29.7207L50.3953 19.4338L41.5384 26.0794C39.665 27.4848 37.5628 28.4796 35.2881 29.0368L9.58556 35.334L9.5879 35.3352ZM45.0976 21.9443L8.80075 30.861C8.54854 30.9232 8.35732 31.1003 8.2752 31.3455C8.19309 31.5918 8.24118 31.8476 8.40542 32.0482L10.0255 34.0201L35.0101 27.8977C37.1299 27.3781 39.0902 26.4513 40.8357 25.141L45.0964 21.9443H45.0976Z" fill="#002D59"/>
<path d="M14.0719 29.566L13.1205 25.6946C12.9105 24.8394 13.4349 23.9736 14.2901 23.7636L17.9434 22.8661C18.7986 22.6561 19.6644 23.1805 19.8744 24.0358L20.8258 27.9072L14.0719 29.566ZM18.3246 23.9935C18.2918 23.9935 18.2578 23.997 18.2237 24.0053L14.5705 24.9027C14.3441 24.959 14.2045 25.1878 14.2608 25.4154L14.9319 28.1465L19.4075 27.0472L18.7364 24.315C18.6895 24.1226 18.5159 23.9923 18.3246 23.9923V23.9935Z" fill="#002D59"/>
<path d="M4.75 44.385C4.75 44.385 5.16387 44.5957 5.52331 44.8073C6.70163 45.5044 8.06691 45.5044 9.24523 44.8073C9.60467 44.5957 9.96411 44.3827 10.3221 44.171C11.5004 43.4739 12.8657 43.4739 14.044 44.171C14.4035 44.3827 14.7629 44.5957 15.1209 44.8073C16.2992 45.5044 17.6645 45.5044 18.8428 44.8073C19.2023 44.5957 19.5617 44.3827 19.9197 44.171C21.098 43.4739 22.4633 43.4739 23.6416 44.171C24.0011 44.3827 24.359 44.5957 24.7185 44.8073C25.8968 45.5044 27.2621 45.5044 28.4419 44.8073C28.8013 44.5957 29.1593 44.3827 29.5187 44.171C30.697 43.4739 32.0623 43.4739 33.2407 44.171C33.6001 44.3827 33.9581 44.5957 34.3175 44.8073C35.4958 45.5044 36.8611 45.5044 38.0409 44.8073C38.4003 44.5957 38.7583 44.3827 39.1178 44.171C40.2961 43.4739 41.6614 43.4739 42.8411 44.171C43.2006 44.3827 43.5586 44.5957 43.918 44.8073C45.0963 45.5044 46.4616 45.5044 47.6399 44.8073C47.9994 44.5957 48.3574 44.3827 48.7168 44.171C49.8951 43.4739 51.2604 43.4739 52.4387 44.171C52.7982 44.3827 53.1562 44.5957 53.5156 44.8073C54.6939 45.5044 56.0592 45.5044 57.2375 44.8073C57.597 44.5957 57.9549 44.3827 58.3144 44.171C59.6541 43.3824 58.3144 44.7189 58.3144 44.7189C58.3144 44.7189 57.5955 45.1436 57.2375 45.3552C56.0592 46.0523 54.6939 46.0523 53.5156 45.3552C53.1562 45.1436 52.7982 44.9305 52.4387 44.7189C51.2604 44.0218 49.8951 44.0218 48.7168 44.7189C48.3574 44.9305 47.9979 45.1436 47.6399 45.3552C46.4602 46.0523 45.0963 46.0523 43.918 45.3552C43.5586 45.1436 43.2006 44.9305 42.8411 44.7189C41.6614 44.0218 40.2975 44.0218 39.1178 44.7189C38.7583 44.9305 38.4003 45.1436 38.0409 45.3552C36.8626 46.0523 35.4973 46.0523 34.3175 45.3552C33.9581 45.1436 33.6001 44.9305 33.2407 44.7189C32.0623 44.0218 30.697 44.0218 29.5187 44.7189C29.1593 44.9305 28.8013 45.1436 28.4419 45.3552C27.2635 46.0523 25.8982 46.0523 24.7185 45.3552C24.3605 45.1436 24.0011 44.9305 23.6416 44.7189C22.4633 44.0218 21.098 44.0218 19.9197 44.7189C19.5603 44.9305 19.2023 45.1436 18.8428 45.3552C17.6645 46.0523 16.2992 46.0523 15.1209 45.3552C14.7615 45.1436 14.402 44.9305 14.044 44.7189C12.8657 44.0218 11.5004 44.0218 10.3221 44.7189C9.96266 44.9305 9.60467 45.1436 9.24523 45.3552C8.06691 46.0523 6.70163 46.0523 5.52331 45.3552C5.16387 45.1436 4.88308 44.8073 4.88308 44.8073L4.75 44.385Z" fill="#002D59"/>
<path d="M9.24497 51.097C9.24497 51.097 9.96384 50.6724 10.3218 50.4608C11.5002 49.7636 12.8654 49.7636 14.0438 50.4608C14.4032 50.6724 14.7626 50.8854 15.1206 51.097C16.2989 51.7942 17.6642 51.7942 18.8426 51.097C19.202 50.8854 19.5614 50.6724 19.9194 50.4608C21.0977 49.7636 22.463 49.7636 23.6413 50.4608C24.0008 50.6724 24.3588 50.8854 24.7182 51.097C25.898 51.7942 27.2618 51.7942 28.4416 51.097C28.801 50.8854 29.159 50.6724 29.5185 50.4608C30.6968 49.7636 32.0621 49.7636 33.2404 50.4608C33.5998 50.6724 33.9578 50.8854 34.3173 51.097C35.4956 51.7942 36.8609 51.7942 38.0406 51.097C38.4001 50.8854 38.7581 50.6724 39.1175 50.4608C40.2958 49.7636 41.6611 49.7636 42.8409 50.4608C43.2003 50.6724 43.5583 50.8854 43.9177 51.097C45.0961 51.7942 46.4613 51.7942 47.6397 51.097C47.9991 50.8854 48.3571 50.6724 48.7165 50.4608C49.8949 49.7636 51.2601 49.7636 52.4385 50.4608C52.7979 50.6724 53.1559 50.8854 53.5153 51.097C54.6936 51.7942 55.2469 51.097 55.2469 51.097V50.5492C55.2469 50.5492 54.6936 51.2463 53.5153 50.5492C53.1559 50.3376 52.7979 50.1245 52.4385 49.9129C51.2601 49.2158 49.8949 49.2158 48.7165 49.9129C48.3571 50.1245 47.9977 50.3376 47.6397 50.5492C46.4599 51.2463 45.0961 51.2463 43.9177 50.5492C43.5583 50.3376 43.2003 50.1245 42.8409 49.9129C41.6611 49.2158 40.2973 49.2158 39.1175 49.9129C38.7581 50.1245 38.4001 50.3376 38.0406 50.5492C36.8623 51.2463 35.497 51.2463 34.3173 50.5492C33.9578 50.3376 33.5998 50.1245 33.2404 49.9129C32.0621 49.2158 30.6968 49.2158 29.5185 49.9129C29.159 50.1245 28.801 50.3376 28.4416 50.5492C27.2633 51.2463 25.898 51.2463 24.7182 50.5492C24.3602 50.3376 24.0008 50.1245 23.6413 49.9129C22.463 49.2158 21.0977 49.2158 19.9194 49.9129C19.56 50.1245 19.202 50.3376 18.8426 50.5492C17.6642 51.2463 16.2989 51.2463 15.1206 50.5492C14.7612 50.3376 14.4017 50.1245 14.0438 49.9129C12.8654 49.2158 11.5002 49.2158 10.3218 49.9129C9.96239 50.1245 9.24497 50.5492 9.24497 50.5492V51.097Z" fill="#002D59"/>
<path d="M13.7435 55.4107C14.1029 55.6223 14.7626 56.0774 15.1206 56.289C16.2989 56.9861 17.6642 56.9861 18.8426 56.289C19.202 56.0774 19.5614 55.8643 19.9194 55.6527C21.0977 54.9556 22.463 54.9556 23.6413 55.6527C24.0008 55.8643 24.3588 56.0774 24.7182 56.289C25.8965 56.9861 27.2618 56.9861 28.4416 56.289C28.801 56.0774 29.159 55.8643 29.5185 55.6527C30.6968 54.9556 32.0621 54.9556 33.2404 55.6527C33.5998 55.8643 33.9578 56.0774 34.3173 56.289C35.4956 56.9861 36.8609 56.9861 38.0406 56.289C38.4001 56.0774 38.7581 55.8643 39.1175 55.6527C40.2958 54.9556 41.6611 54.9556 42.8409 55.6527C43.2003 55.8643 43.5583 56.0774 43.9177 56.289C45.0961 56.9861 46.4613 56.9861 47.6397 56.289C47.9991 56.0774 48.3571 55.8643 48.7165 55.6527C49.8949 54.9556 51 55 51 55C51 55 49.8949 55.5034 48.7165 56.2006C48.3571 56.4136 47.9977 56.6252 47.6397 56.8368C46.4599 57.534 45.0961 57.534 43.9177 56.8368C43.5583 56.6252 43.2003 56.4122 42.8409 56.2006C41.6611 55.5034 40.2973 55.5034 39.1175 56.2006C38.7581 56.4136 38.4001 56.6252 38.0406 56.8368C36.8623 57.534 35.497 57.534 34.3173 56.8368C33.9578 56.6252 33.5998 56.4122 33.2404 56.2006C32.0621 55.5034 30.6968 55.5034 29.5185 56.2006C29.159 56.4136 28.801 56.6252 28.4416 56.8368C27.2633 57.534 25.898 57.534 24.7182 56.8368C24.3602 56.6252 24.0008 56.4122 23.6413 56.2006C22.463 55.5034 21.0977 55.5034 19.9194 56.2006C19.56 56.4136 19.202 56.6252 18.8426 56.8368C17.6642 57.534 16.2989 57.534 15.1206 56.8368C14.7612 56.6252 14.4017 56.155 14.0438 55.9434C12.2247 54.8672 11.4011 54.0249 13.7435 55.4107Z" fill="#002D59"/>
<path d="M4.75 44.385C4.75 44.385 5.16387 44.5957 5.52331 44.8073C6.70163 45.5044 8.06691 45.5044 9.24523 44.8073C9.60467 44.5957 9.96411 44.3827 10.3221 44.171C11.5004 43.4739 12.8657 43.4739 14.044 44.171C14.4035 44.3827 14.7629 44.5957 15.1209 44.8073C16.2992 45.5044 17.6645 45.5044 18.8428 44.8073C19.2023 44.5957 19.5617 44.3827 19.9197 44.171C21.098 43.4739 22.4633 43.4739 23.6416 44.171C24.0011 44.3827 24.359 44.5957 24.7185 44.8073C25.8968 45.5044 27.2621 45.5044 28.4419 44.8073C28.8013 44.5957 29.1593 44.3827 29.5187 44.171C30.697 43.4739 32.0623 43.4739 33.2407 44.171C33.6001 44.3827 33.9581 44.5957 34.3175 44.8073C35.4958 45.5044 36.8611 45.5044 38.0409 44.8073C38.4003 44.5957 38.7583 44.3827 39.1178 44.171C40.2961 43.4739 41.6614 43.4739 42.8411 44.171C43.2006 44.3827 43.5586 44.5957 43.918 44.8073C45.0963 45.5044 46.4616 45.5044 47.6399 44.8073C47.9994 44.5957 48.3574 44.3827 48.7168 44.171C49.8951 43.4739 51.2604 43.4739 52.4387 44.171C52.7982 44.3827 53.1562 44.5957 53.5156 44.8073C54.6939 45.5044 56.0592 45.5044 57.2375 44.8073C57.597 44.5957 57.9549 44.3827 58.3144 44.171C59.6541 43.3824 58.3144 44.7189 58.3144 44.7189C58.3144 44.7189 57.5955 45.1436 57.2375 45.3552C56.0592 46.0523 54.6939 46.0523 53.5156 45.3552C53.1562 45.1436 52.7982 44.9305 52.4387 44.7189C51.2604 44.0218 49.8951 44.0218 48.7168 44.7189C48.3574 44.9305 47.9979 45.1436 47.6399 45.3552C46.4602 46.0523 45.0963 46.0523 43.918 45.3552C43.5586 45.1436 43.2006 44.9305 42.8411 44.7189C41.6614 44.0218 40.2975 44.0218 39.1178 44.7189C38.7583 44.9305 38.4003 45.1436 38.0409 45.3552C36.8626 46.0523 35.4973 46.0523 34.3175 45.3552C33.9581 45.1436 33.6001 44.9305 33.2407 44.7189C32.0623 44.0218 30.697 44.0218 29.5187 44.7189C29.1593 44.9305 28.8013 45.1436 28.4419 45.3552C27.2635 46.0523 25.8982 46.0523 24.7185 45.3552C24.3605 45.1436 24.0011 44.9305 23.6416 44.7189C22.4633 44.0218 21.098 44.0218 19.9197 44.7189C19.5603 44.9305 19.2023 45.1436 18.8428 45.3552C17.6645 46.0523 16.2992 46.0523 15.1209 45.3552C14.7615 45.1436 14.402 44.9305 14.044 44.7189C12.8657 44.0218 11.5004 44.0218 10.3221 44.7189C9.96266 44.9305 9.60467 45.1436 9.24523 45.3552C8.06691 46.0523 6.70163 46.0523 5.52331 45.3552C5.16387 45.1436 4.88308 44.8073 4.88308 44.8073L4.75 44.385Z" stroke="#002D59" stroke-width="0.47" stroke-miterlimit="10"/>
<path d="M9.24497 51.097C9.24497 51.097 9.96384 50.6724 10.3218 50.4608C11.5002 49.7636 12.8654 49.7636 14.0438 50.4608C14.4032 50.6724 14.7626 50.8854 15.1206 51.097C16.2989 51.7942 17.6642 51.7942 18.8426 51.097C19.202 50.8854 19.5614 50.6724 19.9194 50.4608C21.0977 49.7636 22.463 49.7636 23.6413 50.4608C24.0008 50.6724 24.3588 50.8854 24.7182 51.097C25.898 51.7942 27.2618 51.7942 28.4416 51.097C28.801 50.8854 29.159 50.6724 29.5185 50.4608C30.6968 49.7636 32.0621 49.7636 33.2404 50.4608C33.5998 50.6724 33.9578 50.8854 34.3173 51.097C35.4956 51.7942 36.8609 51.7942 38.0406 51.097C38.4001 50.8854 38.7581 50.6724 39.1175 50.4608C40.2958 49.7636 41.6611 49.7636 42.8409 50.4608C43.2003 50.6724 43.5583 50.8854 43.9177 51.097C45.0961 51.7942 46.4613 51.7942 47.6397 51.097C47.9991 50.8854 48.3571 50.6724 48.7165 50.4608C49.8949 49.7636 51.2601 49.7636 52.4385 50.4608C52.7979 50.6724 53.1559 50.8854 53.5153 51.097C54.6936 51.7942 55.2469 51.097 55.2469 51.097V50.5492C55.2469 50.5492 54.6936 51.2463 53.5153 50.5492C53.1559 50.3376 52.7979 50.1245 52.4385 49.9129C51.2601 49.2158 49.8949 49.2158 48.7165 49.9129C48.3571 50.1245 47.9977 50.3376 47.6397 50.5492C46.4599 51.2463 45.0961 51.2463 43.9177 50.5492C43.5583 50.3376 43.2003 50.1245 42.8409 49.9129C41.6611 49.2158 40.2973 49.2158 39.1175 49.9129C38.7581 50.1245 38.4001 50.3376 38.0406 50.5492C36.8623 51.2463 35.497 51.2463 34.3173 50.5492C33.9578 50.3376 33.5998 50.1245 33.2404 49.9129C32.0621 49.2158 30.6968 49.2158 29.5185 49.9129C29.159 50.1245 28.801 50.3376 28.4416 50.5492C27.2633 51.2463 25.898 51.2463 24.7182 50.5492C24.3602 50.3376 24.0008 50.1245 23.6413 49.9129C22.463 49.2158 21.0977 49.2158 19.9194 49.9129C19.56 50.1245 19.202 50.3376 18.8426 50.5492C17.6642 51.2463 16.2989 51.2463 15.1206 50.5492C14.7612 50.3376 14.4017 50.1245 14.0438 49.9129C12.8654 49.2158 11.5002 49.2158 10.3218 49.9129C9.96239 50.1245 9.24497 50.5492 9.24497 50.5492V51.097Z" stroke="#002D59" stroke-width="0.47" stroke-miterlimit="10"/>
<path d="M13.7435 55.4107C14.1029 55.6223 14.7626 56.0774 15.1206 56.289C16.2989 56.9861 17.6642 56.9861 18.8426 56.289C19.202 56.0774 19.5614 55.8643 19.9194 55.6527C21.0977 54.9556 22.463 54.9556 23.6413 55.6527C24.0008 55.8643 24.3588 56.0774 24.7182 56.289C25.8965 56.9861 27.2618 56.9861 28.4416 56.289C28.801 56.0774 29.159 55.8643 29.5185 55.6527C30.6968 54.9556 32.0621 54.9556 33.2404 55.6527C33.5998 55.8643 33.9578 56.0774 34.3173 56.289C35.4956 56.9861 36.8609 56.9861 38.0406 56.289C38.4001 56.0774 38.7581 55.8643 39.1175 55.6527C40.2958 54.9556 41.6611 54.9556 42.8409 55.6527C43.2003 55.8643 43.5583 56.0774 43.9177 56.289C45.0961 56.9861 46.4613 56.9861 47.6397 56.289C47.9991 56.0774 48.3571 55.8643 48.7165 55.6527C49.8949 54.9556 51 55 51 55C51 55 49.8949 55.5034 48.7165 56.2006C48.3571 56.4136 47.9977 56.6252 47.6397 56.8368C46.4599 57.534 45.0961 57.534 43.9177 56.8368C43.5583 56.6252 43.2003 56.4122 42.8409 56.2006C41.6611 55.5034 40.2973 55.5034 39.1175 56.2006C38.7581 56.4136 38.4001 56.6252 38.0406 56.8368C36.8623 57.534 35.497 57.534 34.3173 56.8368C33.9578 56.6252 33.5998 56.4122 33.2404 56.2006C32.0621 55.5034 30.6968 55.5034 29.5185 56.2006C29.159 56.4136 28.801 56.6252 28.4416 56.8368C27.2633 57.534 25.898 57.534 24.7182 56.8368C24.3602 56.6252 24.0008 56.4122 23.6413 56.2006C22.463 55.5034 21.0977 55.5034 19.9194 56.2006C19.56 56.4136 19.202 56.6252 18.8426 56.8368C17.6642 57.534 16.2989 57.534 15.1206 56.8368C14.7612 56.6252 14.4017 56.155 14.0438 55.9434C12.2247 54.8672 11.4011 54.0249 13.7435 55.4107Z" stroke="#002D59" stroke-width="0.47" stroke-miterlimit="10"/>
<path d="M61.3175 26.9937L3.82812 41.5835L4.11669 42.7205L61.6061 28.1308L61.3175 26.9937Z" fill="#002D59"/>
</svg>
