<svg width="64" height="65" viewBox="0 0 64 65" fill="none" xmlns="http://www.w3.org/2000/svg">
<path fill-rule="evenodd" clip-rule="evenodd" d="M61.3148 32.4907C61.3148 47.8885 49.5786 60.5454 34.5634 62.0022C33.6098 62.0944 32.642 62.1423 31.6638 62.1423C30.6856 62.1423 29.7168 62.0944 28.7619 62.0011C13.7479 60.5443 2.01172 47.8873 2.01172 32.4907C2.01172 29.5667 2.43545 26.7418 3.22456 24.0734C3.4837 23.1956 3.78253 22.3341 4.11872 21.4925C8.48798 10.5631 19.1736 2.84033 31.6638 2.84033C44.1541 2.84033 54.9588 10.6495 59.2802 21.6758C59.6269 22.5606 59.9327 23.4676 60.1942 24.3909C60.9249 26.9659 61.3148 29.6822 61.3148 32.4907Z" fill="white"/>
<path d="M31.6655 62.7258C30.6791 62.7258 29.6845 62.6768 28.7063 62.5823C21.2682 61.8609 14.3857 58.4104 9.32657 52.8669C4.23474 47.2872 1.42969 40.0512 1.42969 32.4906C1.42969 29.5701 1.84642 26.6834 2.66704 23.9075C2.92969 23.0192 3.23552 22.1332 3.57871 21.2753C5.79661 15.726 9.57988 10.9926 14.5164 7.58645C19.5721 4.10091 25.502 2.25659 31.6655 2.25659C37.8289 2.25659 43.823 4.11959 48.8962 7.64365C53.8526 11.0872 57.6324 15.8661 59.8258 21.4621C60.1806 22.3667 60.4935 23.2982 60.7584 24.2309C61.5172 26.9028 61.9012 29.6821 61.9012 32.4895C61.9012 40.05 59.0962 47.2861 54.0032 52.8669C48.944 58.4104 42.0604 61.8609 34.6223 62.5823C33.6417 62.6768 32.6472 62.7247 31.6666 62.7247L31.6655 62.7258ZM31.6655 3.42388C25.739 3.42388 20.0378 5.19583 15.1795 8.5483C10.432 11.8237 6.79583 16.3738 4.66315 21.7095C4.33397 22.5336 4.03863 23.3846 3.78649 24.239C2.99739 26.9063 2.597 29.6833 2.597 32.4906C2.597 39.7582 5.2935 46.7153 10.1892 52.0801C15.0534 57.41 21.6697 60.7263 28.8195 61.4208C30.6954 61.6041 32.6192 61.6052 34.509 61.4208C41.6588 60.7274 48.2763 57.41 53.1405 52.0801C58.0363 46.7153 60.7328 39.7582 60.7328 32.4895C60.7328 29.7895 60.3627 27.1176 59.6343 24.5484C59.3798 23.6507 59.0787 22.7554 58.739 21.887C56.6296 16.5057 52.9958 11.9113 48.2308 8.60083C43.3549 5.21334 37.6269 3.42272 31.6666 3.42272L31.6655 3.42388Z" fill="#002D59"/>
<path d="M31.6665 18.7014C33.2493 18.7014 34.5323 17.4184 34.5323 15.8357C34.5323 14.253 33.2493 12.97 31.6665 12.97C30.0838 12.97 28.8008 14.253 28.8008 15.8357C28.8008 17.4184 30.0838 18.7014 31.6665 18.7014Z" fill="white"/>
<path d="M31.6654 64.0357C30.6359 64.0357 29.5969 63.9855 28.579 63.8852C20.8199 63.1323 13.6386 59.5323 8.36 53.7496C3.04755 47.9283 0.121094 40.3782 0.121094 32.4908C0.121094 29.4442 0.555335 26.4314 1.41098 23.5365C1.68413 22.6109 2.00397 21.6864 2.36234 20.7911C4.67712 15.0024 8.62264 10.0636 13.774 6.51039C19.0479 2.87194 25.2347 0.948242 31.6654 0.948242C38.0962 0.948242 44.3495 2.89178 49.6421 6.56876C54.8133 10.1617 58.7565 15.1472 61.0444 20.986C61.4144 21.9292 61.7413 22.9015 62.0168 23.875C62.8082 26.6625 63.2086 29.5621 63.2086 32.492C63.2086 40.3794 60.2821 47.9294 54.9697 53.7507C49.6911 59.5335 42.5098 63.1334 34.7495 63.8863C33.7281 63.9855 32.6903 64.0357 31.6654 64.0357ZM31.6654 2.11553C25.4728 2.11553 19.5149 3.96686 14.437 7.47107C9.47595 10.8936 5.67518 15.6491 3.44677 21.2241C3.10241 22.0867 2.79424 22.9751 2.5316 23.8669C1.70747 26.6555 1.28841 29.5563 1.28841 32.4908C1.28841 40.0864 4.1063 47.3563 9.22264 52.9616C14.3063 58.5308 21.2203 61.9977 28.6923 62.7225C30.6522 62.914 32.6635 62.9151 34.6374 62.7237C42.1094 61.9988 49.0246 58.532 54.1082 52.9628C59.2245 47.3563 62.0424 40.0864 62.0424 32.4908C62.0424 29.6683 61.6561 26.8773 60.895 24.1925C60.63 23.2552 60.3148 22.3202 59.9588 21.4109C57.7549 15.788 53.9576 10.987 48.9767 7.52594C43.8802 3.98554 37.8954 2.11437 31.6666 2.11437L31.6654 2.11553Z" fill="white"/>
<path d="M23.7539 51.1398C23.7539 51.1398 35.8482 55.2219 36.1919 38.9687C36.1919 38.9687 36.3068 33.3983 38.6718 28.3618C38.6718 28.3618 26.8444 25.3913 26.1957 39.7719C26.1957 39.7728 25.6611 49.0029 23.7539 51.1398Z" stroke="#002D59" stroke-width="1.1" stroke-miterlimit="10"/>
<path d="M33.2386 24.1353C36.2396 24.1353 38.6724 21.7025 38.6724 18.7014C38.6724 15.7004 36.2396 13.2676 33.2386 13.2676C30.2375 13.2676 27.8047 15.7004 27.8047 18.7014C27.8047 21.7025 30.2375 24.1353 33.2386 24.1353Z" stroke="#002D59" stroke-width="1.1" stroke-miterlimit="10"/>
</svg>
