<svg width="102" height="103" viewBox="0 0 102 103" fill="none" xmlns="http://www.w3.org/2000/svg">
<path fill-rule="evenodd" clip-rule="evenodd" d="M100.384 51.849C100.384 77.3482 80.9489 98.3084 56.0843 100.721C54.505 100.874 52.9025 100.953 51.2826 100.953C49.6627 100.953 48.0583 100.874 46.4771 100.719C21.6144 98.3065 2.17969 77.3462 2.17969 51.849C2.17969 47.0067 2.88138 42.3286 4.18811 37.9096C4.61724 36.456 5.1121 35.0294 5.66881 33.6356C12.9042 15.5363 30.5992 2.74707 51.2826 2.74707C71.9661 2.74707 89.8582 15.6793 97.0143 33.9391C97.5884 35.4044 98.0949 36.9064 98.5279 38.4354C99.738 42.6998 100.384 47.198 100.384 51.849Z" fill="white"/>
<path d="M51.2804 101.92C49.647 101.92 48 101.838 46.3801 101.682C34.0628 100.487 22.6657 94.7731 14.2879 85.5929C5.85602 76.3528 1.21094 64.3697 1.21094 51.8492C1.21094 47.0146 1.8991 42.2322 3.25995 37.6354C3.69489 36.1643 4.20134 34.699 4.76965 33.2763C8.44242 24.0865 14.7054 16.2479 22.8822 10.6072C31.2522 4.83308 41.072 1.78076 51.2804 1.78076C61.4887 1.78076 71.4129 4.86594 79.8139 10.7019C88.0216 16.4044 94.2807 24.3184 97.9129 33.5856C98.4986 35.0818 99.0186 36.6244 99.4574 38.1708C100.714 42.5956 101.35 47.1983 101.35 51.8473C101.35 64.3678 96.7048 76.3509 88.2709 85.5929C79.8932 94.7731 68.494 100.487 56.1768 101.682C54.553 101.838 52.9061 101.918 51.2823 101.918L51.2804 101.92ZM51.2804 3.71383C41.4664 3.71383 32.0254 6.64823 23.9801 12.2C16.1185 17.6242 10.0971 25.1593 6.56544 33.9954C6.02033 35.3621 5.53127 36.7713 5.11373 38.1844C3.807 42.6034 3.14397 47.2002 3.14397 51.8492C3.14397 63.8845 7.60928 75.4056 15.7164 84.29C23.7714 93.1164 34.7278 98.6083 46.5676 99.7585C49.674 100.062 52.8597 100.064 55.9893 99.7585C67.8291 98.6102 78.7875 93.1164 86.8424 84.29C94.9495 75.4056 99.4149 63.8845 99.4149 51.8473C99.4149 47.3761 98.8021 42.9513 97.5959 38.6966C97.1745 37.2101 96.6758 35.7274 96.1113 34.2892C92.6183 25.3778 86.6008 17.7692 78.7101 12.287C70.6359 6.67723 61.1505 3.7119 51.2804 3.7119V3.71383Z" fill="white"/>
<g clip-path="url(#clip0_909_5711)">
<path fill-rule="evenodd" clip-rule="evenodd" d="M63.9154 97.0174C65.0129 98.9381 67.4043 100.188 70.6463 98.5392C68.1916 97.429 67.474 95.3943 63.9154 97.0174ZM59.6223 98.0179C63.3159 96.7367 63.8436 98.8284 66.1822 100.162C62.7988 101.5 60.5362 100.031 59.6223 98.0179ZM55.3608 98.6046C56.089 100.694 58.2081 102.362 61.6971 101.336C59.4914 99.7951 59.1558 97.6633 55.3608 98.6046ZM51.0318 98.8009C54.8986 98.2121 55.0337 100.365 57.0895 102.1C53.5203 102.801 51.5637 100.947 51.0318 98.8009ZM46.2343 98.5519C46.5446 100.741 48.3049 102.786 51.9268 102.452C50.0588 100.515 50.1411 98.3598 46.2343 98.5519ZM41.4874 97.8195C45.3942 98.0242 45.0903 100.16 46.7535 102.277C43.1168 102.241 41.5739 100.029 41.4874 97.8195ZM36.8397 96.6079C36.7004 98.8157 38.0111 101.173 41.6246 101.579C40.1872 99.3033 40.7043 97.2095 36.8397 96.6079ZM32.3376 94.9321C31.9767 97.1124 33.0384 99.5924 36.5949 100.361C35.3939 97.9503 36.1221 95.9199 32.3376 94.9321ZM28.0319 92.8066C27.4493 94.9384 28.2535 97.5134 31.7129 98.6384C30.7652 96.1204 31.6939 94.1743 28.0319 92.8066ZM23.9646 90.2548C27.4683 91.9877 26.3455 93.8303 27.0335 96.4328C23.7071 94.9616 23.1668 92.317 23.9646 90.2548ZM20.176 87.3041C19.1734 89.2734 19.4415 91.9603 22.6011 93.7585C22.1811 91.1012 23.4876 89.3831 20.176 87.3041ZM16.7081 83.9819C19.7897 86.3881 18.3165 87.9648 18.4642 90.6516C15.5051 88.5389 15.5114 85.8414 16.7081 83.9819ZM13.597 80.3262C12.2166 82.0549 11.9359 84.7375 14.665 87.1416C14.7916 84.4526 16.4169 83.0342 13.597 80.3262ZM10.8721 76.373C13.4028 79.3532 11.6425 80.6006 11.2415 83.2601C8.76991 80.5922 9.3229 77.9517 10.8721 76.373ZM8.56306 72.1643C6.86186 73.5784 6.04292 76.1471 8.23169 79.0514C8.90077 76.4447 10.7793 75.383 8.56306 72.1643ZM6.69512 67.7424C8.5715 71.1702 6.59592 72.0355 5.663 74.562C3.78239 71.4488 4.85673 68.9751 6.69512 67.7424ZM5.28519 63.1538C3.33493 64.1944 2.01365 66.5457 3.56711 69.8341C4.74908 67.4153 6.80487 66.7567 5.28519 63.1538ZM4.35228 58.4449C5.49626 62.1829 3.38559 62.6304 1.963 64.9162C0.751473 61.4885 2.30493 59.2829 4.35228 58.4449ZM3.90059 53.6664C1.77937 54.2911 0.00851721 56.3279 0.865449 59.8612C2.51388 57.7315 4.65621 57.5015 3.90059 53.6664ZM3.93858 48.8667C4.29951 52.7588 2.1424 52.7693 0.287126 54.7196C-0.20466 51.1167 1.76248 49.272 3.93858 48.8667ZM4.46203 44.0945C2.25849 44.2781 0.11194 45.9139 0.23647 49.5485C2.2796 47.7966 4.42826 48.0056 4.46203 44.0945ZM5.47093 39.4025C5.04035 43.2861 2.92335 42.8619 0.713481 44.3984C0.958319 40.7723 3.25895 39.3603 5.47093 39.4025ZM6.95051 34.8371C4.7533 34.569 2.32181 35.7383 1.70761 39.3244C4.06311 38.02 6.12524 38.6574 6.95051 34.8371ZM8.88599 30.4448C6.72889 29.9572 4.19186 30.8733 3.21674 34.3749C5.69255 33.3174 7.67869 34.1617 8.88599 30.4448ZM11.2605 26.272C9.16249 25.567 6.54526 26.2192 5.21976 29.6047C7.79056 28.8048 9.68172 29.8454 11.2605 26.272ZM14.0445 22.3609C12.109 25.757 10.336 24.5286 7.69558 25.0626C9.35878 21.829 12.0288 21.4449 14.0445 22.3609ZM17.2126 18.7538C15.3024 17.6372 12.605 17.7512 10.6231 20.7969C13.3036 20.5331 14.9436 21.9346 17.2126 18.7538ZM20.7311 15.4865C18.1476 18.4203 16.6596 16.8605 13.9685 16.85C16.2501 14.0196 18.9454 14.1842 20.7311 15.4865ZM24.564 12.5927C22.9177 11.1153 20.2562 10.6784 17.6959 13.2639C20.3723 13.5447 21.6978 15.2501 24.564 12.5927ZM28.6714 10.1043C25.5476 12.4555 24.4036 10.6256 21.7695 10.0726C24.5767 7.76142 27.1834 8.46638 28.6714 10.1043ZM33.0088 8.04636C31.6939 6.26706 29.1759 5.30038 26.1471 7.31396C28.7115 8.13289 29.6634 10.0684 33.0088 8.04636ZM37.5362 6.44014C34.003 8.11179 33.2537 6.08977 30.7842 5.01544C34.0009 3.31846 36.4112 4.53631 37.5362 6.44014ZM42.2008 5.30249C41.2763 3.29524 39.001 1.83888 35.6282 3.19815C37.9752 4.51732 38.5135 6.60688 42.2008 5.30249ZM46.9583 4.64396C43.159 5.56843 42.834 3.43454 40.6347 1.8832C44.1278 0.872191 46.2427 2.55017 46.9583 4.64396ZM51.7579 4.47088C51.2577 2.318 49.3264 0.433172 45.7467 1.08326C47.7793 2.84989 47.8848 5.00488 51.7579 4.47088ZM56.5513 4.78748C52.6423 4.92468 52.7563 2.77179 50.9158 0.80676C54.5419 0.523931 56.2705 2.5945 56.5513 4.78748ZM61.2876 5.58954C61.2327 3.37756 59.7236 1.14236 56.0869 1.05582C57.7184 3.19604 57.385 5.32782 61.2876 5.58954ZM65.9163 6.8686C62.0622 6.21219 62.6089 4.12473 61.2053 1.83044C64.8145 2.28634 66.0894 4.66295 65.9163 6.8686ZM70.393 8.60991C70.7877 6.43381 69.7598 3.93899 66.216 3.11794C67.3811 5.54521 66.6234 7.56512 70.393 8.60991ZM74.6692 10.7966C75.2834 8.67112 74.5152 6.08555 71.0727 4.9099C71.9845 7.4406 71.0262 9.37397 74.6692 10.7966ZM78.7006 13.4053C75.2201 11.6218 76.3704 9.7961 75.7225 7.1852C79.0257 8.70489 79.528 11.3559 78.7006 13.4053ZM82.4449 16.4131C83.4771 14.4565 83.247 11.7696 80.1148 9.92063C80.4947 12.5843 79.165 14.2834 82.4449 16.4131ZM85.8642 19.7838C82.8185 17.3333 84.3129 15.7777 84.2052 13.0887C87.1348 15.2459 87.0884 17.9412 85.8642 19.7838ZM88.9226 23.4838C90.3283 21.7763 90.6491 19.0978 87.9538 16.6558C87.787 19.3406 86.1407 20.7378 88.9226 23.4838ZM91.5884 27.4772C89.102 24.461 90.8792 23.2411 91.3182 20.5858C93.7497 23.2896 93.1587 25.9216 91.5884 27.4772ZM93.8362 31.7196C95.5564 30.3308 96.4134 27.7727 94.2689 24.8367C93.5639 27.435 91.6686 28.4671 93.8362 31.7196ZM95.6387 36.1689C93.813 32.7116 95.8013 31.8758 96.7701 29.3641C98.6042 32.5048 97.494 34.9616 95.6387 36.1689ZM96.9811 40.7765C98.9483 39.7634 100.303 37.4311 98.7984 34.1216C97.5806 36.5235 95.5163 37.1525 96.9811 40.7765ZM97.8465 45.4981C96.7574 41.7453 98.8765 41.3274 100.331 39.0627C101.492 42.5073 99.9086 44.6918 97.8465 45.4981ZM98.2285 50.283C100.36 49.6899 102.159 47.6784 101.354 44.1346C99.6743 46.2389 97.5278 46.4394 98.2285 50.283ZM98.1209 55.0805C97.8148 51.1842 99.9719 51.2032 101.857 49.2804C102.298 52.8896 100.301 54.7069 98.1209 55.0805ZM97.5278 59.8443C99.7355 59.6944 101.905 58.0882 101.831 54.4537C99.763 56.176 97.6185 55.9375 97.5278 59.8443ZM96.4535 64.5215C96.941 60.6442 99.0496 61.1002 101.283 59.5952C100.985 63.2193 98.6633 64.5975 96.4535 64.5215ZM94.9063 69.0658C97.0993 69.3655 99.5477 68.23 100.213 64.6566C97.8381 65.9251 95.7865 65.2561 94.9063 69.0658ZM92.9054 73.4286C95.0562 73.9499 97.6059 73.0698 98.6317 69.5829C96.1411 70.6024 94.1655 69.7307 92.9054 73.4286ZM90.4718 77.5676C92.5572 78.3042 95.185 77.6879 96.5611 74.3214C93.9798 75.0833 92.1034 74.0153 90.4718 77.5676ZM87.6309 81.4365C89.6149 78.0699 91.371 79.3237 94.0177 78.8277C92.3081 82.0359 89.6318 82.3799 87.6309 81.4365ZM84.41 84.9972C86.3054 86.139 89.0028 86.0694 91.029 83.049C88.3464 83.2748 86.7254 81.8501 84.41 84.9972ZM80.8429 88.2138C83.4686 85.3159 84.9355 86.8989 87.6287 86.9453C85.3028 89.744 82.6117 89.5414 80.8429 88.2138ZM76.9678 91.0506C78.5951 92.5512 81.2503 93.0261 83.8464 90.4807C81.1743 90.1599 79.8741 88.4354 76.9678 91.0506ZM72.8245 93.4799C75.9821 91.173 77.0986 93.0177 79.7264 93.6108C76.8833 95.8798 74.2893 95.1389 72.8245 93.4799ZM68.4575 95.4745C71.8325 93.501 72.7549 95.4492 75.3067 96.3061C72.2504 98.2754 69.7429 97.2728 68.4575 95.4745Z" fill="#002D59"/>
</g>
<path d="M28.6001 60.5613H25.4727L25.9981 62.3184L28.6001 66.2281L31.9102 69.2318L35.7245 71.5204C37.4409 72.4581 40.9596 74.3525 41.3029 74.4288C41.732 74.5241 45.7847 75.4841 46.2138 75.8133C46.5571 76.0766 47.5011 75.7036 47.9302 75.4841V48.7659H35.3907C35.0093 48.7659 34.2782 48.2652 33.9604 48.0148C33.6266 47.4586 32.9591 46.2603 32.9591 45.917C32.9591 45.4879 33.2929 45.0902 33.4359 44.6296C33.5504 44.2612 33.8332 43.4664 33.9604 43.1151L47.9302 42.6213V37.1899H53.6183V42.6213H65.9076L67.9923 43.1151L69.4188 45.0902V47.0652C68.6873 47.5224 67.1584 48.4368 66.8951 48.4368H54.1121V75.8133C54.8619 75.7402 56.4273 75.5719 56.6906 75.4841C56.954 75.3963 61.2259 74.4234 63.329 73.9479L71.1195 68.5714L75.6731 63.8532L76.9898 60.5613L73.9724 60.0677L75.6731 55.8433L80.6108 48.4368L86.9749 60.0677H82.915L80.9399 63.3046L77.9774 68.1325C75.8194 69.9795 71.4268 73.7285 71.1195 73.9479C70.7355 74.2223 63.0547 78.0078 62.7255 78.1175C62.4622 78.2053 56.8735 79.5074 54.1121 80.1474C53.9841 81.8665 53.7061 85.4143 53.6183 85.8532C53.5305 86.2921 52.5211 86.8407 52.0273 87.0601C51.4421 87.115 50.1839 87.1918 49.8328 87.0601C49.4817 86.9285 48.8452 86.2006 48.5709 85.8532L47.8029 80.1474L45.2792 79.5439C42.408 78.849 36.567 77.4262 36.172 77.2946C35.6782 77.13 30.3565 73.509 30.1371 73.2896C29.9176 73.0701 24.2667 67.9679 24.0473 67.7485C23.8717 67.5729 21.0116 62.8839 19.6034 60.5613L15.4336 60.0677L21.3595 49.2597L22.1817 48.7659L28.6001 60.5613Z" fill="white"/>
<mask id="mask0_909_5711" style="mask-type:alpha" maskUnits="userSpaceOnUse" x="2" y="3" width="98" height="98">
<path fill-rule="evenodd" clip-rule="evenodd" d="M99.556 51.8493C99.556 76.9576 80.4188 97.5966 55.9348 99.9721C54.3797 100.122 52.8018 100.201 51.2067 100.201C49.6116 100.201 48.0317 100.122 46.4747 99.9702C21.9927 97.5947 2.85547 76.9557 2.85547 51.8493C2.85547 47.0812 3.54642 42.4749 4.83314 38.1236C5.25571 36.6922 5.74299 35.2875 6.29118 33.9151C13.4158 16.0932 30.8399 3.5 51.2067 3.5C71.5735 3.5 89.1918 16.234 96.2383 34.2139C96.8036 35.6567 97.3023 37.1357 97.7287 38.6413C98.9202 42.8403 99.556 47.2696 99.556 51.8493Z" fill="white"/>
</mask>
<g mask="url(#mask0_909_5711)">
<path d="M-4.28906 74.4009V73.5119C-3.25668 73.5119 -2.22429 73.2297 -1.26951 72.663C-0.688642 72.3196 -0.105426 71.9739 0.47779 71.6306C2.3897 70.4994 4.60499 70.4994 6.5169 71.6306C7.10012 71.9739 7.68098 72.3196 8.2642 72.663C10.1761 73.7941 12.3914 73.7941 14.3033 72.663C14.8865 72.3196 15.4697 71.9739 16.0506 71.6306C17.9625 70.4994 20.1778 70.4994 22.0897 71.6306C22.6729 71.9739 23.2561 72.3196 23.837 72.663C25.7489 73.7941 27.9642 73.7941 29.8761 72.663C30.4593 72.3196 31.0426 71.9739 31.6234 71.6306C33.5353 70.4994 35.7506 70.4994 37.6625 71.6306C38.2457 71.9739 38.8266 72.3196 39.4098 72.663C41.3217 73.7941 43.537 73.7941 45.4513 72.663C46.0345 72.3196 46.6154 71.9739 47.1986 71.6306C49.1105 70.4994 51.3258 70.4994 53.2377 71.6306C53.8209 71.9739 54.4018 72.3196 54.985 72.663C56.8969 73.7941 59.1122 73.7941 61.0265 72.663C61.6097 72.3196 62.1905 71.9739 62.7738 71.6306C64.6857 70.4994 66.901 70.4994 68.8152 71.6306C69.3984 71.9739 69.9793 72.3196 70.5625 72.663C72.4744 73.7941 74.6897 73.7941 76.6016 72.663C77.1848 72.3196 77.7657 71.9739 78.3489 71.6306C80.2608 70.4994 82.4761 70.4994 84.388 71.6306C84.9713 71.9739 85.5521 72.3196 86.1353 72.663C88.0473 73.7941 90.2625 73.7941 92.1744 72.663C92.7577 72.3196 93.3385 71.9739 93.9217 71.6306C95.8337 70.4994 98.0489 70.4994 99.9609 71.6306C100.544 71.9739 101.125 72.3196 101.708 72.663C102.665 73.2297 103.695 73.5119 104.728 73.5119V74.4009C103.695 74.4009 102.663 74.1187 101.708 73.5519C101.125 73.2086 100.544 72.8629 99.9609 72.5195C98.0489 71.3884 95.8337 71.3884 93.9217 72.5195C93.3385 72.8629 92.7553 73.2086 92.1744 73.5519C90.2625 74.6831 88.0473 74.6831 86.1353 73.5519C85.5521 73.2086 84.9713 72.8629 84.388 72.5195C82.4761 71.3884 80.2608 71.3884 78.3489 72.5195C77.7657 72.8629 77.1825 73.2086 76.6016 73.5519C74.6874 74.6831 72.4744 74.6831 70.5625 73.5519C69.9793 73.2086 69.3984 72.8629 68.8152 72.5195C66.901 71.3884 64.688 71.3884 62.7738 72.5195C62.1905 72.8629 61.6097 73.2086 61.0265 73.5519C59.1145 74.6831 56.8993 74.6831 54.985 73.5519C54.4018 73.2086 53.8209 72.8629 53.2377 72.5195C51.3258 71.3884 49.1105 71.3884 47.1986 72.5195C46.6154 72.8629 46.0345 73.2086 45.4513 73.5519C43.5394 74.6831 41.3241 74.6831 39.4098 73.5519C38.829 73.2086 38.2457 72.8629 37.6625 72.5195C35.7506 71.3884 33.5353 71.3884 31.6234 72.5195C31.0402 72.8629 30.4593 73.2086 29.8761 73.5519C27.9642 74.6831 25.7489 74.6831 23.837 73.5519C23.2538 73.2086 22.6706 72.8629 22.0897 72.5195C20.1778 71.3884 17.9625 71.3884 16.0506 72.5195C15.4674 72.8629 14.8865 73.2086 14.3033 73.5519C12.3914 74.6831 10.1761 74.6831 8.2642 73.5519C7.68098 73.2086 7.10012 72.8629 6.5169 72.5195C4.60499 71.3884 2.3897 71.3884 0.47779 72.5195C-0.105426 72.8629 -0.686291 73.2086 -1.26951 73.5519C-2.22664 74.1187 -3.25903 74.4009 -4.28906 74.4009Z" stroke="#002D59" stroke-width="0.990057" stroke-miterlimit="10"/>
<path d="M-4.28906 83.717C-3.25668 83.717 -2.22429 83.4348 -1.26951 82.8681C-0.688643 82.5247 -0.105427 82.179 0.47779 81.8357C2.3897 80.7045 4.60499 80.7045 6.5169 81.8357C7.10012 82.179 7.68098 82.5247 8.2642 82.8681C10.1761 83.9992 12.3914 83.9992 14.3033 82.8681C14.8865 82.5247 15.4697 82.179 16.0506 81.8357C17.9625 80.7045 20.1778 80.7045 22.0897 81.8357C22.6729 82.179 23.2561 82.5247 23.837 82.8681C25.7489 83.9992 27.9642 83.9992 29.8761 82.8681C30.4593 82.5247 31.0426 82.179 31.6234 81.8357C33.5353 80.7045 35.7506 80.7045 37.6625 81.8357C38.2457 82.179 38.8266 82.5247 39.4098 82.8681C41.3241 83.9992 43.537 83.9992 45.4513 82.8681C46.0345 82.5247 46.6154 82.179 47.1986 81.8357C49.1105 80.7045 51.3258 80.7045 53.2377 81.8357C53.8209 82.179 54.4018 82.5247 54.985 82.8681C56.8969 83.9992 59.1122 83.9992 61.0265 82.8681C61.6097 82.5247 62.1905 82.179 62.7738 81.8357C64.6857 80.7045 66.901 80.7045 68.8152 81.8357C69.3984 82.179 69.9793 82.5247 70.5625 82.8681C72.4744 83.9992 74.6897 83.9992 76.6016 82.8681C77.1848 82.5247 77.7657 82.179 78.3489 81.8357C80.2608 80.7045 82.4761 80.7045 84.388 81.8357C84.9713 82.179 85.5521 82.5247 86.1353 82.8681C88.0472 83.9992 90.2625 83.9992 92.1744 82.8681C92.7577 82.5247 93.3385 82.179 93.9217 81.8357C95.8337 80.7045 98.0489 80.7045 99.9609 81.8357C100.544 82.179 101.125 82.5247 101.708 82.8681C102.665 83.4325 103.695 83.717 104.728 83.717V82.8281C103.695 82.8281 102.663 82.5459 101.708 81.9791C101.125 81.6358 100.544 81.2901 99.9609 80.9468C98.0489 79.8156 95.8337 79.8156 93.9217 80.9468C93.3385 81.2901 92.7553 81.6358 92.1744 81.9791C90.2625 83.1103 88.0472 83.1103 86.1353 81.9791C85.5521 81.6358 84.9713 81.2901 84.388 80.9468C82.4761 79.8156 80.2608 79.8156 78.3489 80.9468C77.7657 81.2901 77.1825 81.6358 76.6016 81.9791C74.6874 83.1103 72.4744 83.1103 70.5625 81.9791C69.9793 81.6358 69.3984 81.2901 68.8152 80.9468C66.901 79.8156 64.688 79.8156 62.7738 80.9468C62.1905 81.2901 61.6097 81.6358 61.0265 81.9791C59.1145 83.1103 56.8993 83.1103 54.985 81.9791C54.4018 81.6358 53.8209 81.2901 53.2377 80.9468C51.3258 79.8156 49.1105 79.8156 47.1986 80.9468C46.6154 81.2901 46.0345 81.6358 45.4513 81.9791C43.5394 83.1103 41.3241 83.1103 39.4098 81.9791C38.829 81.6358 38.2457 81.2901 37.6625 80.9468C35.7506 79.8156 33.5353 79.8156 31.6234 80.9468C31.0402 81.2901 30.4593 81.6358 29.8761 81.9791C27.9642 83.1103 25.7489 83.1103 23.837 81.9791C23.2538 81.6358 22.6706 81.2901 22.0897 80.9468C20.1778 79.8156 17.9625 79.8156 16.0506 80.9468C15.4674 81.2901 14.8865 81.6358 14.3033 81.9791C12.3914 83.1103 10.1761 83.1103 8.2642 81.9791C7.68098 81.6358 7.10012 81.2901 6.5169 80.9468C4.60499 79.8156 2.3897 79.8156 0.47779 80.9468C-0.105427 81.2901 -0.686291 81.6358 -1.26951 81.9791C-2.22664 82.5459 -3.25903 82.8281 -4.28906 82.8281V83.717Z" stroke="#002D59" stroke-width="0.990057" stroke-miterlimit="10"/>
<path d="M-4.28906 93.0327V92.1438C-3.25668 92.1438 -2.22429 91.8616 -1.26951 91.2948C-0.688643 90.9515 -0.105427 90.6058 0.47779 90.2624C2.3897 89.1313 4.60499 89.1313 6.5169 90.2624C7.10012 90.6058 7.68098 90.9515 8.2642 91.2948C10.1761 92.426 12.3914 92.426 14.3033 91.2948C14.8865 90.9515 15.4697 90.6058 16.0506 90.2624C17.9625 89.1313 20.1778 89.1313 22.0897 90.2624C22.6729 90.6058 23.2561 90.9515 23.837 91.2948C25.7489 92.426 27.9642 92.426 29.8761 91.2948C30.4593 90.9515 31.0426 90.6058 31.6234 90.2624C33.5353 89.1313 35.7506 89.1313 37.6625 90.2624C38.2457 90.6058 38.8266 90.9515 39.4098 91.2948C41.3217 92.426 43.537 92.426 45.4513 91.2948C46.0345 90.9515 46.6154 90.6058 47.1986 90.2624C49.1105 89.1313 51.3258 89.1313 53.2377 90.2624C53.8209 90.6058 54.4018 90.9515 54.985 91.2948C56.8969 92.426 59.1122 92.426 61.0265 91.2948C61.6097 90.9515 62.1905 90.6058 62.7738 90.2624C64.6857 89.1313 66.901 89.1313 68.8152 90.2624C69.3984 90.6058 69.9793 90.9515 70.5625 91.2948C72.4744 92.426 74.6897 92.426 76.6016 91.2948C77.1848 90.9515 77.7657 90.6058 78.3489 90.2624C80.2608 89.1313 82.4761 89.1313 84.388 90.2624C84.9713 90.6058 85.5521 90.9515 86.1353 91.2948C88.0472 92.426 90.2625 92.426 92.1744 91.2948C92.7577 90.9515 93.3385 90.6058 93.9217 90.2624C95.8337 89.1313 98.0489 89.1313 99.9609 90.2624C100.544 90.6058 101.125 90.9515 101.708 91.2948C102.665 91.8616 103.695 92.1438 104.728 92.1438V93.0327C103.695 93.0327 102.663 92.7505 101.708 92.1838C101.125 91.8404 100.544 91.4947 99.9609 91.1514C98.0489 90.0202 95.8337 90.0202 93.9217 91.1514C93.3385 91.4971 92.7553 91.8404 92.1744 92.1838C90.2625 93.3149 88.0472 93.3149 86.1353 92.1838C85.5521 91.8404 84.9713 91.4947 84.388 91.1514C82.4761 90.0202 80.2608 90.0202 78.3489 91.1514C77.7657 91.4971 77.1825 91.8404 76.6016 92.1838C74.6874 93.3149 72.4744 93.3149 70.5625 92.1838C69.9793 91.8404 69.3984 91.4947 68.8152 91.1514C66.901 90.0202 64.688 90.0202 62.7738 91.1514C62.1905 91.4971 61.6097 91.8404 61.0265 92.1838C59.1145 93.3149 56.8993 93.3149 54.985 92.1838C54.4018 91.8404 53.8209 91.4947 53.2377 91.1514C51.3258 90.0202 49.1105 90.0202 47.1986 91.1514C46.6154 91.4971 46.0345 91.8404 45.4513 92.1838C43.5394 93.3149 41.3241 93.3149 39.4098 92.1838C38.829 91.8404 38.2457 91.4947 37.6625 91.1514C35.7506 90.0202 33.5353 90.0202 31.6234 91.1514C31.0402 91.4971 30.4593 91.8404 29.8761 92.1838C27.9642 93.3149 25.7489 93.3149 23.837 92.1838C23.2538 91.8404 22.6706 91.4947 22.0897 91.1514C20.1778 90.0202 17.9625 90.0202 16.0506 91.1514C15.4674 91.4971 14.8865 91.8404 14.3033 92.1838C12.3914 93.3149 10.1761 93.3149 8.2642 92.1838C7.68098 91.8404 7.10012 91.4947 6.5169 91.1514C4.60499 90.0202 2.3897 90.0202 0.47779 91.1514C-0.105427 91.4971 -0.686291 91.8404 -1.26951 92.1838C-2.22664 92.7482 -3.25903 93.0327 -4.28906 93.0327Z" stroke="#002D59" stroke-width="0.990057" stroke-miterlimit="10"/>
</g>
<path d="M87.2488 56.7155L84.4787 51.9195L84.1115 51.2836L81.3144 46.4393L80.9741 45.8497C80.7634 45.4843 80.2357 45.4843 80.025 45.8497L76.8877 51.2836L73.7523 56.7155C73.5416 57.0808 73.8045 57.539 74.2259 57.539H77.6107C72.8225 65.9614 64.1219 71.8688 53.9793 72.789V45.5617H66.7199C67.4874 45.5617 68.1813 45.2504 68.6839 44.7478C69.1865 44.2452 69.4977 43.5513 69.4977 42.7838C69.4977 41.249 68.2548 40.006 66.7199 40.006H53.9793V34.2165C54.2055 34.1488 54.4297 34.0734 54.652 33.9884C59.6721 32.0824 62.1947 26.4687 60.2907 21.4505C58.3847 16.4303 52.7712 13.9076 47.7511 15.8117C42.7329 17.7177 40.2084 23.3313 42.1144 28.3515C43.2316 31.2937 45.6247 33.3794 48.4238 34.2145V40.006H35.687C34.1522 40.006 32.9092 41.249 32.9092 42.7838C32.9092 44.3187 34.1522 45.5617 35.687 45.5617H48.4238V72.789C38.2831 71.8688 29.5825 65.9614 24.7944 57.539H28.1791C28.6005 57.539 28.8634 57.0808 28.6527 56.7155L25.5154 51.2836L22.3781 45.8497C22.1674 45.4843 21.6416 45.4843 21.429 45.8497L21.0907 46.4354L18.2936 51.2836L17.9244 51.9234L15.1563 56.7155C14.9456 57.0808 15.2085 57.539 15.6299 57.539H20.0488C25.2486 68.3352 35.8958 76.0133 48.4238 77.0089V81.5303C48.4238 83.0652 50.2196 84.3081 51.2015 84.3081C52.1835 84.3081 53.9793 83.0652 53.9793 81.5303V77.0089C66.5092 76.0133 77.1545 68.3352 82.3543 57.539H86.7732C87.1966 57.539 87.4595 57.0808 87.2488 56.7155ZM52.9973 29.6254C51.42 30.2247 49.7324 29.983 48.4238 29.1228C47.5636 28.5603 46.8696 27.7291 46.4772 26.6949C45.6189 24.4371 46.4849 21.9492 48.4238 20.6792C48.7273 20.4781 49.0559 20.308 49.4077 20.1746C50.9831 19.5754 52.6707 19.817 53.9793 20.6772C54.8395 21.2398 55.5354 22.071 55.9278 23.1052C56.7861 25.3649 55.9181 27.8547 53.9793 29.1248C53.6778 29.3239 53.3491 29.492 52.9973 29.6254Z" fill="white"/>
<path d="M51.2024 85.2745C49.7295 85.2745 47.4582 83.6661 47.4582 81.5301V77.8901C35.4965 76.6317 24.8726 69.288 19.4485 58.5053H15.6308C15.0914 58.5053 14.5908 58.2153 14.3202 57.7495C14.0495 57.2817 14.0495 56.7017 14.3202 56.2339L20.5929 45.3681C20.8654 44.9003 21.368 44.6104 21.9054 44.6104H21.9092C22.4544 44.6104 22.9434 44.8945 23.2179 45.3681L29.4925 56.2339C29.7632 56.7017 29.7632 57.2836 29.4925 57.7514C29.2238 58.2173 28.7213 58.5072 28.1819 58.5072H26.5137C31.2149 65.7756 38.8813 70.6198 47.4601 71.714V46.528H35.6898C33.6254 46.528 31.9456 44.8481 31.9456 42.7836C31.9456 40.7191 33.6254 39.0393 35.6898 39.0393H47.4601V34.9102C44.5721 33.8354 42.3182 31.6047 41.2145 28.6954C39.1229 23.1861 41.9026 17.0003 47.4118 14.9087C52.9228 12.8191 59.1066 15.5988 61.1982 21.1081C63.2878 26.6173 60.5081 32.8012 54.9989 34.8928C54.9835 34.8986 54.9661 34.9044 54.9506 34.9122V39.0412H66.7247C68.7892 39.0412 70.469 40.721 70.469 42.7856C70.469 43.785 70.0785 44.7264 69.373 45.4339C68.6655 46.1414 67.726 46.5299 66.7247 46.5299H54.9506V71.714C63.5294 70.6218 71.1978 65.7775 75.8989 58.5072H74.2307C73.6914 58.5072 73.1907 58.2173 72.9201 57.7514C72.6495 57.2836 72.6495 56.7037 72.9201 56.2359L79.1928 45.3701C79.4615 44.9023 79.9641 44.6123 80.5053 44.6123C81.0446 44.6123 81.5472 44.9023 81.8178 45.3701L88.0925 56.2359C88.3612 56.7037 88.3612 57.2836 88.0925 57.7514C87.8218 58.2192 87.3193 58.5092 86.7799 58.5092H82.9622C77.5381 69.2899 66.9141 76.6356 54.9525 77.894V81.534C54.9525 83.67 52.6812 85.2783 51.2082 85.2783L51.2024 85.2745ZM16.3556 56.5722H20.6566L20.9195 57.1193C26.0885 67.8517 36.6564 75.1046 48.5001 76.046L49.3893 76.1175V81.532C49.3893 82.4831 50.6941 83.3433 51.2005 83.3433C51.707 83.3433 53.0118 82.4812 53.0118 81.532V76.1175L53.901 76.046C65.7447 75.1046 76.3126 67.8536 81.4815 57.1193L81.7444 56.5722H86.0473L80.4976 46.961L74.9498 56.5722H79.2701L78.4486 58.0162C73.3724 66.9451 64.2582 72.8274 54.0653 73.7514L53.0118 73.8461V44.5949H66.7189C67.2022 44.5949 67.6564 44.4055 67.9986 44.0633C68.3407 43.7212 68.5302 43.2669 68.5302 42.7836C68.5302 41.7842 67.7183 40.9723 66.7189 40.9723H53.0118V33.4971L53.7019 33.2903C53.9106 33.2284 54.1136 33.1589 54.3069 33.0854C58.8205 31.3708 61.0996 26.3061 59.3869 21.7924C57.6742 17.2806 52.6078 15.0035 48.0941 16.7142C43.5824 18.4289 41.3053 23.4935 43.018 28.0072C43.9942 30.5763 46.0644 32.5016 48.6992 33.2864L49.3893 33.4933V40.9723H35.686C34.6866 40.9723 33.8747 41.7842 33.8747 42.7836C33.8747 43.783 34.6866 44.5949 35.686 44.5949H49.3893V73.8461L48.3358 73.7495C38.1448 72.8255 29.0286 66.9431 23.9544 58.0143L23.1329 56.5703H27.4532L21.9034 46.9591L16.3537 56.5703L16.3556 56.5722ZM51.2082 30.9184C50.0446 30.9184 48.8886 30.584 47.8931 29.9287C46.8299 29.2347 46.0277 28.2334 45.5735 27.0349C44.5779 24.4156 45.5541 21.4019 47.895 19.8671C48.2584 19.6254 48.6547 19.4244 49.0664 19.2678C50.8642 18.5835 52.8996 18.8077 54.5118 19.8671C55.575 20.563 56.3791 21.5643 56.8334 22.7589C57.8289 25.3802 56.8527 28.3958 54.5099 29.9306C54.1503 30.1684 53.7579 30.3694 53.3423 30.526C52.6542 30.787 51.9293 30.9165 51.2082 30.9165V30.9184ZM51.1986 20.8123C50.7095 20.8123 50.2185 20.8993 49.7527 21.0772C49.4743 21.1835 49.2076 21.3188 48.9582 21.4831C47.3673 22.525 46.7062 24.5722 47.3808 26.3506C47.6901 27.1644 48.2333 27.8429 48.9524 28.3126C50.0484 29.0337 51.4305 29.1845 52.6542 28.7205C52.9364 28.6123 53.2031 28.477 53.4467 28.3165C55.0376 27.2746 55.7006 25.2275 55.0241 23.4471C54.7167 22.6352 54.1716 21.9567 53.4506 21.485C52.774 21.0404 51.9873 20.8123 51.1986 20.8123Z" fill="#002D59"/>
<defs>
<clipPath id="clip0_909_5711">
<rect width="101.711" height="101.711" fill="white" transform="translate(0.210938 0.779297)"/>
</clipPath>
</defs>
</svg>
