<svg width="105" height="104" viewBox="0 0 105 104" fill="none" xmlns="http://www.w3.org/2000/svg">
<mask id="mask0_909_5623" style="mask-type:alpha" maskUnits="userSpaceOnUse" x="2" y="0" width="101" height="101">
<ellipse cx="52.7263" cy="50.175" rx="49.9216" ry="50.1096" fill="#D9D9D9"/>
</mask>
<g mask="url(#mask0_909_5623)">
<g filter="url(#filter0_d_909_5623)">
<path fill-rule="evenodd" clip-rule="evenodd" d="M102.593 50.4679C102.593 76.3789 82.8436 97.6776 57.577 100.129C55.9721 100.284 54.3437 100.365 52.6977 100.365C51.0516 100.365 49.4212 100.284 47.8144 100.127C22.5497 97.6757 2.80078 76.3769 2.80078 50.4679C2.80078 45.5474 3.51382 40.7938 4.84168 36.3034C5.27775 34.8263 5.78061 33.3766 6.34632 31.9604C13.6987 13.5687 31.6798 0.572998 52.6977 0.572998C73.7156 0.572998 91.897 13.7141 99.1688 32.2688C99.7522 33.7577 100.267 35.284 100.707 36.8377C101.937 41.1709 102.593 45.7418 102.593 50.4679Z" fill="white"/>
<path d="M85.7643 29.9136L13.7162 47.6119C12.0936 48.0106 11.4415 49.9651 12.5003 51.2576L17.8667 57.8144C20.3692 60.8728 24.4078 62.2203 28.246 61.2775L63.9195 52.5148C71.1893 50.7292 77.4554 46.1367 81.3486 39.7429L86.6227 31.0804C86.9861 30.4833 86.4459 29.7447 85.7663 29.9117L85.7643 29.9136Z" fill="white"/>
<path d="M-4.57031 70.2189V69.3016C-3.50492 69.3016 -2.43953 69.0104 -1.45423 68.4255C-0.854796 68.0712 -0.252936 67.7144 0.348924 67.3601C2.32196 66.1928 4.60806 66.1928 6.58109 67.3601C7.18295 67.7144 7.78238 68.0712 8.38424 68.4255C10.3573 69.5928 12.6434 69.5928 14.6164 68.4255C15.2183 68.0712 15.8201 67.7144 16.4196 67.3601C18.3926 66.1928 20.6787 66.1928 22.6517 67.3601C23.2536 67.7144 23.8555 68.0712 24.4549 68.4255C26.4279 69.5928 28.714 69.5928 30.687 68.4255C31.2889 68.0712 31.8908 67.7144 32.4902 67.3601C34.4632 66.1928 36.7493 66.1928 38.7224 67.3601C39.3242 67.7144 39.9237 68.0712 40.5255 68.4255C42.4986 69.5928 44.7847 69.5928 46.7601 68.4255C47.362 68.0712 47.9614 67.7144 48.5633 67.3601C50.5363 66.1928 52.8224 66.1928 54.7954 67.3601C55.3973 67.7144 55.9967 68.0712 56.5986 68.4255C58.5716 69.5928 60.8577 69.5928 62.8332 68.4255C63.435 68.0712 64.0345 67.7144 64.6363 67.3601C66.6094 66.1928 68.8955 66.1928 70.8709 67.3601C71.4728 67.7144 72.0722 68.0712 72.6741 68.4255C74.6471 69.5928 76.9332 69.5928 78.9063 68.4255C79.5081 68.0712 80.1076 67.7144 80.7094 67.3601C82.6824 66.1928 84.9685 66.1928 86.9416 67.3601C87.5434 67.7144 88.1429 68.0712 88.7447 68.4255C90.7178 69.5928 93.0039 69.5928 94.9769 68.4255C95.5788 68.0712 96.1782 67.7144 96.78 67.3601C98.7531 66.1928 101.039 66.1928 103.012 67.3601C103.614 67.7144 104.214 68.0712 104.815 68.4255C105.803 69.0104 106.866 69.3016 107.931 69.3016V70.2189C106.866 70.2189 105.801 69.9277 104.815 69.3428C104.214 68.9885 103.614 68.6318 103.012 68.2775C101.039 67.1101 98.7531 67.1101 96.78 68.2775C96.1782 68.6318 95.5763 68.9885 94.9769 69.3428C93.0039 70.5102 90.7178 70.5102 88.7447 69.3428C88.1429 68.9885 87.5434 68.6318 86.9416 68.2775C84.9685 67.1101 82.6824 67.1101 80.7094 68.2775C80.1076 68.6318 79.5057 68.9885 78.9063 69.3428C76.9308 70.5102 74.6471 70.5102 72.6741 69.3428C72.0722 68.9885 71.4728 68.6318 70.8709 68.2775C68.8955 67.1101 66.6118 67.1101 64.6363 68.2775C64.0345 68.6318 63.435 68.9885 62.8332 69.3428C60.8602 70.5102 58.5741 70.5102 56.5986 69.3428C55.9967 68.9885 55.3973 68.6318 54.7954 68.2775C52.8224 67.1101 50.5363 67.1101 48.5633 68.2775C47.9614 68.6318 47.362 68.9885 46.7601 69.3428C44.7871 70.5102 42.501 70.5102 40.5255 69.3428C39.9261 68.9885 39.3242 68.6318 38.7224 68.2775C36.7493 67.1101 34.4632 67.1101 32.4902 68.2775C31.8883 68.6318 31.2889 68.9885 30.687 69.3428C28.714 70.5102 26.4279 70.5102 24.4549 69.3428C23.853 68.9885 23.2512 68.6318 22.6517 68.2775C20.6787 67.1101 18.3926 67.1101 16.4196 68.2775C15.8177 68.6318 15.2183 68.9885 14.6164 69.3428C12.6434 70.5102 10.3573 70.5102 8.38424 69.3428C7.78238 68.9885 7.18295 68.6318 6.58109 68.2775C4.60806 67.1101 2.32196 67.1101 0.348924 68.2775C-0.252936 68.6318 -0.852369 68.9885 -1.45423 69.3428C-2.44196 69.9277 -3.50735 70.2189 -4.57031 70.2189Z" stroke="#002D59" stroke-width="0.979869" stroke-miterlimit="10"/>
<path d="M-4.57031 79.8327C-3.50492 79.8327 -2.43953 79.5415 -1.45423 78.9566C-0.854796 78.6023 -0.252936 78.2455 0.348924 77.8912C2.32196 76.7239 4.60806 76.7239 6.58109 77.8912C7.18295 78.2455 7.78238 78.6023 8.38424 78.9566C10.3573 80.1239 12.6434 80.1239 14.6164 78.9566C15.2183 78.6023 15.8201 78.2455 16.4196 77.8912C18.3926 76.7239 20.6787 76.7239 22.6517 77.8912C23.2536 78.2455 23.8554 78.6023 24.4549 78.9566C26.4279 80.1239 28.714 80.1239 30.687 78.9566C31.2889 78.6023 31.8908 78.2455 32.4902 77.8912C34.4632 76.7239 36.7493 76.7239 38.7224 77.8912C39.3242 78.2455 39.9237 78.6023 40.5255 78.9566C42.501 80.1239 44.7847 80.1239 46.7601 78.9566C47.362 78.6023 47.9614 78.2455 48.5633 77.8912C50.5363 76.7239 52.8224 76.7239 54.7954 77.8912C55.3973 78.2455 55.9967 78.6023 56.5986 78.9566C58.5716 80.1239 60.8577 80.1239 62.8332 78.9566C63.435 78.6023 64.0345 78.2455 64.6363 77.8912C66.6094 76.7239 68.8955 76.7239 70.8709 77.8912C71.4728 78.2455 72.0722 78.6023 72.6741 78.9566C74.6471 80.1239 76.9332 80.1239 78.9062 78.9566C79.5081 78.6023 80.1075 78.2455 80.7094 77.8912C82.6824 76.7239 84.9685 76.7239 86.9416 77.8912C87.5434 78.2455 88.1429 78.6023 88.7447 78.9566C90.7178 80.1239 93.0039 80.1239 94.9769 78.9566C95.5787 78.6023 96.1782 78.2455 96.78 77.8912C98.7531 76.7239 101.039 76.7239 103.012 77.8912C103.614 78.2455 104.214 78.6023 104.815 78.9566C105.803 79.5391 106.866 79.8327 107.931 79.8327V78.9154C106.866 78.9154 105.801 78.6241 104.815 78.0393C104.214 77.6849 103.614 77.3282 103.012 76.9739C101.039 75.8066 98.7531 75.8066 96.78 76.9739C96.1782 77.3282 95.5763 77.6849 94.9769 78.0393C93.0039 79.2066 90.7178 79.2066 88.7447 78.0393C88.1429 77.6849 87.5434 77.3282 86.9416 76.9739C84.9685 75.8066 82.6824 75.8066 80.7094 76.9739C80.1075 77.3282 79.5057 77.6849 78.9062 78.0393C76.9308 79.2066 74.6471 79.2066 72.6741 78.0393C72.0722 77.6849 71.4728 77.3282 70.8709 76.9739C68.8955 75.8066 66.6118 75.8066 64.6363 76.9739C64.0345 77.3282 63.435 77.6849 62.8332 78.0393C60.8602 79.2066 58.5741 79.2066 56.5986 78.0393C55.9967 77.6849 55.3973 77.3282 54.7954 76.9739C52.8224 75.8066 50.5363 75.8066 48.5633 76.9739C47.9614 77.3282 47.362 77.6849 46.7601 78.0393C44.7871 79.2066 42.501 79.2066 40.5255 78.0393C39.9261 77.6849 39.3242 77.3282 38.7224 76.9739C36.7493 75.8066 34.4632 75.8066 32.4902 76.9739C31.8883 77.3282 31.2889 77.6849 30.687 78.0393C28.714 79.2066 26.4279 79.2066 24.4549 78.0393C23.853 77.6849 23.2512 77.3282 22.6517 76.9739C20.6787 75.8066 18.3926 75.8066 16.4196 76.9739C15.8177 77.3282 15.2183 77.6849 14.6164 78.0393C12.6434 79.2066 10.3573 79.2066 8.38424 78.0393C7.78238 77.6849 7.18295 77.3282 6.58109 76.9739C4.60806 75.8066 2.32196 75.8066 0.348924 76.9739C-0.252936 77.3282 -0.852369 77.6849 -1.45423 78.0393C-2.44196 78.6241 -3.50735 78.9154 -4.57031 78.9154V79.8327Z" stroke="#002D59" stroke-width="0.979869" stroke-miterlimit="10"/>
<path d="M-4.57031 89.4462V88.5289C-3.50492 88.5289 -2.43953 88.2377 -1.45423 87.6528C-0.854796 87.2985 -0.252936 86.9417 0.348924 86.5874C2.32196 85.4201 4.60806 85.4201 6.58109 86.5874C7.18295 86.9417 7.78238 87.2985 8.38424 87.6528C10.3573 88.8201 12.6434 88.8201 14.6164 87.6528C15.2183 87.2985 15.8201 86.9417 16.4196 86.5874C18.3926 85.4201 20.6787 85.4201 22.6517 86.5874C23.2536 86.9417 23.8554 87.2985 24.4549 87.6528C26.4279 88.8201 28.714 88.8201 30.687 87.6528C31.2889 87.2985 31.8908 86.9417 32.4902 86.5874C34.4632 85.4201 36.7493 85.4201 38.7224 86.5874C39.3242 86.9417 39.9237 87.2985 40.5255 87.6528C42.4986 88.8201 44.7847 88.8201 46.7601 87.6528C47.362 87.2985 47.9614 86.9417 48.5633 86.5874C50.5363 85.4201 52.8224 85.4201 54.7954 86.5874C55.3973 86.9417 55.9967 87.2985 56.5986 87.6528C58.5716 88.8201 60.8577 88.8201 62.8332 87.6528C63.435 87.2985 64.0345 86.9417 64.6363 86.5874C66.6094 85.4201 68.8955 85.4201 70.8709 86.5874C71.4728 86.9417 72.0722 87.2985 72.6741 87.6528C74.6471 88.8201 76.9332 88.8201 78.9062 87.6528C79.5081 87.2985 80.1075 86.9417 80.7094 86.5874C82.6824 85.4201 84.9685 85.4201 86.9416 86.5874C87.5434 86.9417 88.1429 87.2985 88.7447 87.6528C90.7178 88.8201 93.0039 88.8201 94.9769 87.6528C95.5787 87.2985 96.1782 86.9417 96.78 86.5874C98.7531 85.4201 101.039 85.4201 103.012 86.5874C103.614 86.9417 104.214 87.2985 104.815 87.6528C105.803 88.2377 106.866 88.5289 107.931 88.5289V89.4462C106.866 89.4462 105.801 89.155 104.815 88.5701C104.214 88.2158 103.614 87.8591 103.012 87.5048C101.039 86.3374 98.7531 86.3374 96.78 87.5048C96.1782 87.8615 95.5763 88.2158 94.9769 88.5701C93.0039 89.7375 90.7178 89.7375 88.7447 88.5701C88.1429 88.2158 87.5434 87.8591 86.9416 87.5048C84.9685 86.3374 82.6824 86.3374 80.7094 87.5048C80.1075 87.8615 79.5057 88.2158 78.9062 88.5701C76.9308 89.7375 74.6471 89.7375 72.6741 88.5701C72.0722 88.2158 71.4728 87.8591 70.8709 87.5048C68.8955 86.3374 66.6118 86.3374 64.6363 87.5048C64.0345 87.8615 63.435 88.2158 62.8332 88.5701C60.8602 89.7375 58.5741 89.7375 56.5986 88.5701C55.9967 88.2158 55.3973 87.8591 54.7954 87.5048C52.8224 86.3374 50.5363 86.3374 48.5633 87.5048C47.9614 87.8615 47.362 88.2158 46.7601 88.5701C44.7871 89.7375 42.501 89.7375 40.5255 88.5701C39.9261 88.2158 39.3242 87.8591 38.7224 87.5048C36.7493 86.3374 34.4632 86.3374 32.4902 87.5048C31.8883 87.8615 31.2889 88.2158 30.687 88.5701C28.714 89.7375 26.4279 89.7375 24.4549 88.5701C23.853 88.2158 23.2512 87.8591 22.6517 87.5048C20.6787 86.3374 18.3926 86.3374 16.4196 87.5048C15.8177 87.8615 15.2183 88.2158 14.6164 88.5701C12.6434 89.7375 10.3573 89.7375 8.38424 88.5701C7.78238 88.2158 7.18295 87.8591 6.58109 87.5048C4.60806 86.3374 2.32196 86.3374 0.348924 87.5048C-0.252936 87.8615 -0.852369 88.2158 -1.45423 88.5701C-2.44196 89.1526 -3.50735 89.4462 -4.57031 89.4462Z" stroke="#002D59" stroke-width="0.979869" stroke-miterlimit="10"/>
</g>
</g>
<path d="M52.5798 103.928C50.8848 103.928 49.1745 103.846 47.4987 103.68C34.7249 102.441 22.9023 96.5141 14.2121 86.9938C5.46626 77.41 0.648438 64.9801 0.648438 51.9949C0.648438 46.9791 1.36333 42.0191 2.77197 37.2532C3.22166 35.7292 3.74822 34.2072 4.33819 32.7332C8.14902 23.2033 14.6445 15.0724 23.1252 9.22256C31.8077 3.23247 41.9929 0.0654297 52.5798 0.0654297C63.1667 0.0654297 73.4615 3.26514 82.1747 9.31864C90.6881 15.2338 97.1797 23.4416 100.946 33.0541C101.556 34.6069 102.094 36.2077 102.547 37.8105C103.85 42.3996 104.509 47.1732 104.509 51.9968C104.509 64.9821 99.6915 77.4119 90.9456 86.9957C82.2554 96.516 70.4329 102.443 57.6571 103.682C55.9755 103.846 54.2671 103.928 52.5798 103.928ZM52.5798 1.98718C42.385 1.98718 32.5763 5.03507 24.2167 10.8042C16.0493 16.4387 9.79211 24.2679 6.1235 33.4462C5.55658 34.8664 5.04924 36.3288 4.61685 37.797C3.26009 42.3881 2.57018 47.1636 2.57018 51.9949C2.57018 64.4997 7.20928 76.4683 15.6323 85.6966C24.0015 94.8652 35.384 100.573 47.6851 101.766C50.9117 102.081 54.2229 102.083 57.4726 101.768C69.7737 100.575 81.1581 94.8672 89.5273 85.6985C97.9504 76.4683 102.589 64.4997 102.589 51.9949C102.589 47.3481 101.953 42.7532 100.7 38.3332C100.264 36.79 99.7453 35.2507 99.1591 33.7537C95.5309 24.4966 89.2794 16.5925 81.0793 10.8945C72.689 5.06582 62.8362 1.98526 52.5817 1.98526L52.5798 1.98718Z" fill="white"/>
<path d="M52.5818 101.772C50.9579 101.772 49.3206 101.691 47.7102 101.536C35.4648 100.348 24.1342 94.6673 15.8053 85.5409C7.42265 76.355 2.80469 64.4421 2.80469 51.9949C2.80469 47.1886 3.48883 42.4342 4.84174 37.8643C5.27413 36.4019 5.77763 34.9452 6.34262 33.5308C9.99395 24.3948 16.2204 16.6021 24.3494 10.9944C32.6725 5.25609 42.435 2.21973 52.5818 2.21973C62.7286 2.21973 72.5968 5.28684 80.9487 11.0886C89.1085 16.7577 95.3311 24.6254 98.942 33.8382C99.5243 35.3257 100.041 36.8592 100.478 38.3966C101.727 42.7955 102.359 47.3712 102.359 51.993C102.359 64.4402 97.7409 76.3531 89.3564 85.5409C81.0275 94.6673 69.695 100.348 57.4496 101.536C55.8353 101.691 54.198 101.77 52.5837 101.77L52.5818 101.772ZM52.5818 4.14147C42.8251 4.14147 33.4393 7.05869 25.441 12.5779C17.6252 17.9704 11.639 25.4613 8.12793 34.2457C7.586 35.6043 7.09979 37.0053 6.6847 38.4101C5.38559 42.8032 4.72643 47.3731 4.72643 51.9949C4.72643 63.9597 9.16567 75.4133 17.2255 84.2457C25.2334 93.0204 36.1259 98.4801 47.8966 99.6235C50.9848 99.9252 54.1519 99.9271 57.2632 99.6235C69.0339 98.482 79.9283 93.0204 87.9362 84.2457C95.996 75.4133 100.435 63.9597 100.435 51.993C100.435 47.548 99.826 43.1491 98.6269 38.9193C98.2079 37.4415 97.7121 35.9675 97.151 34.5378C93.6784 25.6785 87.696 18.1145 79.8514 12.6644C71.8243 7.08751 62.3942 4.13955 52.5818 4.13955V4.14147Z" fill="white"/>
<path d="M15.7123 54.2979H88.2948C89.9283 54.2979 91.0045 56.0024 90.3011 57.4764L86.7344 64.9597C85.0701 68.4496 81.5476 70.6731 77.681 70.6731H41.7443C34.4205 70.6731 27.3946 67.7731 22.204 62.6056L15.1723 55.6066C14.688 55.1242 15.0301 54.2979 15.7123 54.2979Z" fill="white"/>
<path d="M77.6773 71.6361H41.7406C34.1113 71.6361 26.9297 68.6727 21.5219 63.2899L14.4902 56.2909C13.9925 55.7951 13.8445 55.0572 14.1117 54.4076C14.3788 53.7581 15.0072 53.3391 15.7086 53.3391H88.2911C89.3904 53.3391 90.3973 53.8945 90.9835 54.8246C91.5696 55.7547 91.6388 56.902 91.1641 57.8937L87.5974 65.3769C85.7832 69.1801 81.8898 71.638 77.6773 71.638V71.6361ZM16.1795 55.2589L22.8787 61.9255C27.9233 66.947 34.6225 69.7124 41.7406 69.7124H77.6792C81.1557 69.7124 84.3688 67.685 85.8659 64.5467L89.4326 57.0635C89.6229 56.6637 89.596 56.2217 89.3615 55.847C89.1251 55.4723 88.737 55.2589 88.295 55.2589H16.1795Z" fill="#002D59"/>
<path d="M65.0804 55.2589H32.0859L36.948 41.2608C37.3016 40.2442 38.3893 39.662 39.4309 39.931L63.2874 45.5982C64.1791 45.8365 64.7979 46.6148 64.8267 47.5373L65.0785 55.2569L65.0804 55.2589ZM34.7898 53.3371H63.0953L62.9088 47.6007C62.9069 47.5354 62.8627 47.4777 62.8012 47.4585L38.9523 41.7932C38.8735 41.772 38.7928 41.8162 38.7659 41.8912L34.7898 53.3352V53.3371Z" fill="#002D59"/>
<path d="M45.5114 62.7117C41.6814 62.7117 37.9532 61.9507 34.4287 60.4479L17.7422 53.3374H88.3837C89.4676 53.3374 90.4592 53.8851 91.0357 54.8018C91.6122 55.7184 91.6776 56.8484 91.2087 57.8266L88.8795 62.6867L45.5287 62.7117H45.5114ZM27.1549 55.2591L35.184 58.6799C38.4682 60.0789 41.9428 60.788 45.5134 60.788H45.5307L87.6707 60.763L89.4772 56.9926C89.6617 56.6082 89.6367 56.1835 89.4099 55.8241C89.1831 55.4648 88.8103 55.2572 88.3837 55.2572H27.1549V55.2591Z" fill="#002D59"/>
<path d="M79.4956 55.2589H68.1016V48.7288C68.1016 47.2875 69.2758 46.1133 70.7171 46.1133H76.8801C78.3214 46.1133 79.4956 47.2875 79.4956 48.7288V55.2589ZM70.0233 53.3371H77.5739V48.7288C77.5739 48.3464 77.2625 48.035 76.8801 48.035H70.7171C70.3346 48.035 70.0233 48.3464 70.0233 48.7288V53.3371Z" fill="#002D59"/>
<path d="M73.8008 22.6135C75.4516 20.784 78.2977 20.709 80.0426 22.4463L80.2098 22.6135L80.2521 22.5673C81.9125 20.7609 84.7432 20.6994 86.4785 22.4347L86.6573 22.6135" fill="white"/>
<path d="M72.8555 28.8559L71.9792 27.9834C71.322 27.3301 70.4514 26.9899 69.5251 27.0091C68.5988 27.0341 67.7475 27.4261 67.1268 28.1141C66.7713 28.5081 66.164 28.5388 65.77 28.1833C65.3761 27.8278 65.3453 27.2205 65.7008 26.8266C66.6771 25.7446 68.0165 25.1277 69.4732 25.0893C70.6974 25.0605 71.862 25.4371 72.8151 26.1693C73.7011 25.4794 74.7811 25.0951 75.9284 25.0701C77.3793 25.0393 78.7437 25.587 79.77 26.6132L79.9487 26.792C80.3234 27.1667 80.3234 27.7759 79.9487 28.1506C79.5739 28.5254 78.9647 28.5254 78.59 28.1506L78.4113 27.9719C77.7598 27.3204 76.8912 26.9707 75.9707 26.9918C75.0482 27.011 74.1969 27.3973 73.5742 28.0757L72.8574 28.8578L72.8555 28.8559Z" fill="#002D59"/>
<path d="M54.5391 30.2082C56.1898 28.3787 59.036 28.3037 60.7809 30.041L60.9481 30.2082L60.9904 30.1621C62.6508 28.3556 65.4815 28.2941 67.2168 30.0295L67.3956 30.2082" fill="white"/>
<path d="M53.5918 36.4527L52.7136 35.5802C52.0563 34.9268 51.1858 34.5809 50.2595 34.6059C49.3332 34.6309 48.4819 35.0229 47.8611 35.7109C47.5056 36.1049 46.8984 36.1356 46.5044 35.7801C46.1104 35.4246 46.0797 34.8173 46.4352 34.4233C47.4115 33.3414 48.7509 32.7245 50.2076 32.6861C51.4318 32.6534 52.5963 33.0339 53.5495 33.7661C54.4354 33.0762 55.5155 32.6918 56.6628 32.6669C58.1137 32.638 59.4781 33.1838 60.5043 34.21L60.683 34.3887C61.0578 34.7635 61.0578 35.3727 60.683 35.7474C60.3083 36.1222 59.6991 36.1222 59.3244 35.7474L59.1456 35.5687C58.4942 34.9172 57.6275 34.5694 56.705 34.5886C55.7826 34.6078 54.9313 34.9941 54.3086 35.6725L53.5918 36.4546V36.4527Z" fill="#002D59"/>
<g clip-path="url(#clip0_909_5623)">
<path fill-rule="evenodd" clip-rule="evenodd" d="M65.3529 97.0189C66.4504 98.9396 68.8418 100.189 72.0838 98.5407C69.6291 97.4305 68.9115 95.3958 65.3529 97.0189ZM61.0598 98.0193C64.7534 96.7382 65.2811 98.8298 67.6197 100.164C64.2363 101.502 61.9737 100.033 61.0598 98.0193ZM56.7983 98.6061C57.5265 100.696 59.6456 102.363 63.1346 101.337C60.9289 99.7965 60.5933 97.6647 56.7983 98.6061ZM52.4693 98.8024C56.3361 98.2135 56.4712 100.366 58.527 102.101C54.9578 102.802 53.0012 100.949 52.4693 98.8024ZM47.6718 98.5533C47.9821 100.742 49.7424 102.787 53.3643 102.454C51.4963 100.516 51.5786 98.3613 47.6718 98.5533ZM42.9249 97.8209C46.8317 98.0257 46.5278 100.162 48.191 102.279C44.5543 102.243 43.0114 100.031 42.9249 97.8209ZM38.2772 96.6094C38.1379 98.8172 39.4486 101.175 43.0621 101.58C41.6247 99.3047 42.1418 97.211 38.2772 96.6094ZM33.7751 94.9335C33.4142 97.1139 34.4759 99.5939 38.0324 100.362C36.8314 97.9518 37.5596 95.9213 33.7751 94.9335ZM29.4694 92.8081C28.8868 94.9399 29.691 97.5149 33.1504 98.6399C32.2027 96.1218 33.1314 94.1758 29.4694 92.8081ZM25.4021 90.2563C28.9058 91.9892 27.783 93.8318 28.471 96.4342C25.1446 94.9631 24.6043 92.3184 25.4021 90.2563ZM21.6135 87.3056C20.6109 89.2748 20.879 91.9617 24.0386 93.76C23.6186 91.1027 24.9251 89.3846 21.6135 87.3056ZM18.1456 83.9834C21.2272 86.3895 19.754 87.9662 19.9017 90.6531C16.9426 88.5403 16.9489 85.8429 18.1456 83.9834ZM15.0345 80.3277C13.6541 82.0563 13.3734 84.739 16.1025 87.1431C16.2291 84.4541 17.8544 83.0357 15.0345 80.3277ZM12.3096 76.3744C14.8403 79.3547 13.08 80.6021 12.679 83.2615C10.2074 80.5937 10.7604 77.9532 12.3096 76.3744ZM10.0006 72.1657C8.29936 73.5799 7.48042 76.1486 9.66919 79.0529C10.3383 76.4462 12.2168 75.3845 10.0006 72.1657ZM8.13262 67.7439C10.009 71.1716 8.03342 72.037 7.1005 74.5635C5.21989 71.4502 6.29423 68.9765 8.13262 67.7439ZM6.72269 63.1553C4.77243 64.1959 3.45115 66.5471 5.00461 69.8356C6.18658 67.4167 8.24237 66.7582 6.72269 63.1553ZM5.78978 58.4464C6.93376 62.1844 4.82309 62.6319 3.4005 64.9177C2.18897 61.49 3.74243 59.2843 5.78978 58.4464ZM5.33809 53.6678C3.21687 54.2926 1.44602 56.3294 2.30295 59.8627C3.95138 57.733 6.09371 57.5029 5.33809 53.6678ZM5.37608 48.8682C5.73701 52.7603 3.5799 52.7708 1.72463 54.7211C1.23284 51.1181 3.19998 49.2734 5.37608 48.8682ZM5.89953 44.096C3.69599 44.2796 1.54944 45.9153 1.67397 49.5499C3.7171 47.7981 5.86576 48.007 5.89953 44.096ZM6.90843 39.4039C6.47785 43.2876 4.36085 42.8633 2.15098 44.3999C2.39582 40.7738 4.69645 39.3617 6.90843 39.4039ZM8.38801 34.8386C6.1908 34.5705 3.75931 35.7398 3.14511 39.3258C5.50061 38.0214 7.56274 38.6589 8.38801 34.8386ZM10.3235 30.4463C8.16639 29.9587 5.62936 30.8747 4.65424 34.3763C7.13005 33.3189 9.11619 34.1631 10.3235 30.4463ZM12.698 26.2735C10.6 25.5685 7.98276 26.2207 6.65726 29.6062C9.22806 28.8063 11.1192 29.8468 12.698 26.2735ZM15.482 22.3624C13.5465 25.7585 11.7735 24.53 9.13308 25.064C10.7963 21.8305 13.4663 21.4464 15.482 22.3624ZM18.6501 18.7553C16.7399 17.6387 14.0425 17.7527 12.0606 20.7984C14.7411 20.5345 16.3811 21.936 18.6501 18.7553ZM22.1686 15.4879C19.5851 18.4218 18.0971 16.862 15.406 16.8514C17.6876 14.021 20.3829 14.1857 22.1686 15.4879ZM26.0015 12.5942C24.3552 11.1167 21.6937 10.6798 19.1334 13.2654C21.8098 13.5461 23.1353 15.2515 26.0015 12.5942ZM30.1089 10.1057C26.9851 12.457 25.8411 10.6271 23.207 10.0741C26.0142 7.76288 28.6209 8.46785 30.1089 10.1057ZM34.4463 8.04782C33.1314 6.26853 30.6134 5.30184 27.5846 7.31542C30.149 8.13436 31.1009 10.0698 34.4463 8.04782ZM38.9737 6.4416C35.4405 8.11325 34.6912 6.09123 32.2217 5.0169C35.4384 3.31992 37.8487 4.53778 38.9737 6.4416ZM43.6383 5.30395C42.7138 3.29671 40.4385 1.84034 37.0657 3.19961C39.4127 4.51878 39.951 6.60835 43.6383 5.30395ZM48.3958 4.64542C44.5965 5.5699 44.2715 3.43601 42.0722 1.88467C45.5653 0.873656 47.6802 2.55164 48.3958 4.64542ZM53.1954 4.47235C52.6952 2.31946 50.7639 0.434637 47.1842 1.08472C49.2168 2.85135 49.3223 5.00635 53.1954 4.47235ZM57.9888 4.78895C54.0798 4.92614 54.1938 2.77326 52.3533 0.808225C55.9794 0.525396 57.708 2.59596 57.9888 4.78895ZM62.7251 5.591C62.6702 3.37902 61.1611 1.14382 57.5244 1.05728C59.1559 3.1975 58.8225 5.32928 62.7251 5.591ZM67.3538 6.87007C63.4997 6.21365 64.0464 4.1262 62.6428 1.8319C66.252 2.2878 67.5269 4.66442 67.3538 6.87007ZM71.8305 8.61137C72.2252 6.43527 71.1973 3.94046 67.6535 3.11941C68.8186 5.54668 68.0609 7.56659 71.8305 8.61137ZM76.1067 10.798C76.7209 8.67258 75.9527 6.08701 72.5102 4.91137C73.422 7.44206 72.4637 9.37543 76.1067 10.798ZM80.1381 13.4068C76.6576 11.6233 77.8079 9.79757 77.16 7.18667C80.4632 8.70635 80.9655 11.3574 80.1381 13.4068ZM83.8824 16.4145C84.9146 14.4579 84.6845 11.771 81.5523 9.9221C81.9322 12.5858 80.6025 14.2849 83.8824 16.4145ZM87.3017 19.7853C84.256 17.3348 85.7504 15.7792 85.6427 13.0902C88.5723 15.2473 88.5259 17.9426 87.3017 19.7853ZM90.3601 23.4853C91.7658 21.7777 92.0866 19.0993 89.3913 16.6572C89.2245 19.342 87.5782 20.7393 90.3601 23.4853ZM93.0259 27.4786C90.5395 24.4625 92.3167 23.2425 92.7557 20.5873C95.1872 23.2911 94.5962 25.9231 93.0259 27.4786ZM95.2737 31.7211C96.9939 30.3323 97.8509 27.7741 95.7064 24.8382C95.0014 27.4364 93.1061 28.4686 95.2737 31.7211ZM97.0762 36.1704C95.2505 32.7131 97.2388 31.8773 98.2076 29.3656C100.042 32.5063 98.9315 34.9631 97.0762 36.1704ZM98.4186 40.778C100.386 39.7649 101.741 37.4326 100.236 34.123C99.0181 36.525 96.9538 37.154 98.4186 40.778ZM99.284 45.4995C98.1949 41.7468 100.314 41.3289 101.768 39.0641C102.929 42.5087 101.346 44.6933 99.284 45.4995ZM99.666 50.2844C101.798 49.6913 103.596 47.6799 102.792 44.1361C101.112 46.2404 98.9653 46.4409 99.666 50.2844ZM99.5584 55.082C99.2523 51.1857 101.409 51.2047 103.294 49.2819C103.735 52.8911 101.739 54.7084 99.5584 55.082ZM98.9653 59.8458C101.173 59.6959 103.343 58.0897 103.269 54.4551C101.2 56.1774 99.056 55.9389 98.9653 59.8458ZM97.891 64.523C98.3785 60.6457 100.487 61.1016 102.72 59.5967C102.423 63.2207 100.101 64.599 97.891 64.523ZM96.3438 69.0673C98.5368 69.367 100.985 68.2315 101.65 64.6581C99.2756 65.9266 97.224 65.2575 96.3438 69.0673ZM94.3429 73.43C96.4937 73.9514 99.0434 73.0712 100.069 69.5844C97.5786 70.6039 95.603 69.7321 94.3429 73.43ZM91.9093 77.5691C93.9947 78.3057 96.6225 77.6894 97.9986 74.3228C95.4173 75.0848 93.5409 74.0168 91.9093 77.5691ZM89.0684 81.4379C91.0524 78.0714 92.8085 79.3251 95.4552 78.8291C93.7456 82.0373 91.0693 82.3814 89.0684 81.4379ZM85.8475 84.9986C87.7429 86.1405 90.4403 86.0708 92.4665 83.0505C89.7839 83.2763 88.1629 81.8516 85.8475 84.9986ZM82.2804 88.2153C84.9061 85.3173 86.373 86.9003 89.0662 86.9468C86.7403 89.7455 84.0492 89.5429 82.2804 88.2153ZM78.4053 91.052C80.0326 92.5527 82.6878 93.0276 85.2839 90.4821C82.6118 90.1613 81.3116 88.4369 78.4053 91.052ZM74.262 93.4814C77.4196 91.1744 78.5361 93.0192 81.1639 93.6123C78.3208 95.8812 75.7268 95.1404 74.262 93.4814ZM69.895 95.476C73.27 93.5025 74.1924 95.4507 76.7442 96.3076C73.6879 98.2768 71.1804 97.2743 69.895 95.476Z" fill="#243959"/>
</g>
<defs>
<filter id="filter0_d_909_5623" x="-8.97806" y="0.572998" width="121.319" height="107.631" filterUnits="userSpaceOnUse" color-interpolation-filters="sRGB">
<feFlood flood-opacity="0" result="BackgroundImageFix"/>
<feColorMatrix in="SourceAlpha" type="matrix" values="0 0 0 0 0 0 0 0 0 0 0 0 0 0 0 0 0 0 127 0" result="hardAlpha"/>
<feOffset dy="3.91947"/>
<feGaussianBlur stdDeviation="1.95974"/>
<feComposite in2="hardAlpha" operator="out"/>
<feColorMatrix type="matrix" values="0 0 0 0 0 0 0 0 0 0 0 0 0 0 0 0 0 0 0.25 0"/>
<feBlend mode="normal" in2="BackgroundImageFix" result="effect1_dropShadow_909_5623"/>
<feBlend mode="normal" in="SourceGraphic" in2="effect1_dropShadow_909_5623" result="shape"/>
</filter>
<clipPath id="clip0_909_5623">
<rect width="101.711" height="101.711" fill="white" transform="translate(1.64844 0.780762)"/>
</clipPath>
</defs>
</svg>
