<svg width="103" height="103" viewBox="0 0 103 103" fill="none" xmlns="http://www.w3.org/2000/svg">
<path fill-rule="evenodd" clip-rule="evenodd" d="M100.665 51.8505C100.665 77.3496 81.2301 98.3099 56.3655 100.722C54.7862 100.875 53.1837 100.954 51.5639 100.954C49.944 100.954 48.3396 100.875 46.7583 100.72C21.8957 98.308 2.46094 77.3477 2.46094 51.8505C2.46094 47.0081 3.16263 42.3301 4.46936 37.9111C4.89849 36.4574 5.39335 35.0308 5.95006 33.6371C13.1854 15.5377 30.8804 2.74854 51.5639 2.74854C72.2473 2.74854 90.1395 15.6808 97.2956 33.9406C97.8697 35.4058 98.3762 36.9078 98.8092 38.4369C100.019 42.7012 100.665 47.1995 100.665 51.8505Z" fill="white"/>
<path d="M51.5694 101.921C49.936 101.921 48.2872 101.84 46.6692 101.683C34.3519 100.489 22.9547 94.7745 14.577 85.5944C6.14508 76.3543 1.5 64.3693 1.5 51.8507C1.5 47.0161 2.19009 42.2337 3.54902 37.6368C3.98202 36.1677 4.4904 34.7005 5.05872 33.2778C8.73148 24.0879 14.9945 16.2493 23.1712 10.6086C31.5413 4.83455 41.363 1.78223 51.5694 1.78223C61.7759 1.78223 71.702 4.86741 80.103 10.7033C88.3106 16.4059 94.5698 24.3199 98.202 33.587C98.7877 35.0832 99.3076 36.6278 99.7464 38.1723C101.003 42.5971 101.639 47.1978 101.639 51.8488C101.639 64.3693 96.9938 76.3543 88.56 85.5944C80.1822 94.7745 68.7831 100.489 56.4658 101.683C54.844 101.84 53.1971 101.919 51.5714 101.919L51.5694 101.921ZM51.5694 3.7153C41.7554 3.7153 32.3145 6.6497 24.2692 12.2015C16.4076 17.6257 10.3862 25.1627 6.8545 33.9969C6.30939 35.3635 5.82033 36.7727 5.4028 38.1858C4.09606 42.6048 3.43303 47.2017 3.43303 51.8507C3.43303 63.886 7.89834 75.4071 16.0055 84.2915C24.0604 93.1179 35.0169 98.6098 46.8567 99.7599C49.9631 100.063 53.1487 100.063 56.2783 99.7599C68.1181 98.6117 79.0765 93.1179 87.1315 84.2915C95.2386 75.4071 99.7039 63.886 99.7039 51.8488C99.7039 47.3776 99.0911 42.9528 97.8849 38.7C97.4635 37.2135 96.9648 35.7308 96.4023 34.2926C92.9093 25.3812 86.8918 17.7745 79.0011 12.2904C70.9249 6.68063 61.4414 3.7153 51.5714 3.7153H51.5694Z" fill="white"/>
<g clip-path="url(#clip0_909_5660)">
<path fill-rule="evenodd" clip-rule="evenodd" d="M64.1966 97.0189C65.2942 98.9396 67.6856 100.189 70.9276 98.5407C68.4728 97.4305 67.7552 95.3958 64.1966 97.0189ZM59.9035 98.0193C63.5972 96.7382 64.1249 98.8298 66.4635 100.164C63.0801 101.502 60.8174 100.033 59.9035 98.0193ZM55.6421 98.6061C56.3703 100.696 58.4894 102.363 61.9783 101.337C59.7727 99.7965 59.4371 97.6647 55.6421 98.6061ZM51.3131 98.8024C55.1798 98.2135 55.3149 100.366 57.3707 102.101C53.8016 102.802 51.845 100.949 51.3131 98.8024ZM46.5155 98.5533C46.8258 100.742 48.5861 102.787 52.208 102.454C50.3401 100.516 50.4224 98.3613 46.5155 98.5533ZM41.7687 97.8209C45.6755 98.0257 45.3716 100.162 47.0348 102.279C43.3981 102.243 41.8552 100.031 41.7687 97.8209ZM37.121 96.6094C36.9817 98.8172 38.2924 101.175 41.9058 101.58C40.4685 99.3047 40.9856 97.211 37.121 96.6094ZM32.6189 94.9335C32.258 97.1139 33.3196 99.5939 36.8761 100.362C35.6751 97.9518 36.4033 95.9213 32.6189 94.9335ZM28.3131 92.8081C27.7306 94.9399 28.5348 97.5149 31.9941 98.6399C31.0464 96.1219 31.9751 94.1758 28.3131 92.8081ZM24.2459 90.2563C27.7496 91.9892 26.6267 93.8318 27.3148 96.4342C23.9884 94.9631 23.448 92.3184 24.2459 90.2563ZM20.4572 87.3056C19.4546 89.2748 19.7227 91.9617 22.8824 93.76C22.4624 91.1027 23.7689 89.3846 20.4572 87.3056ZM16.9894 83.9834C20.071 86.3896 18.5977 87.9662 18.7455 90.6531C15.7863 88.5403 15.7926 85.8429 16.9894 83.9834ZM13.8783 80.3277C12.4979 82.0563 12.2172 84.739 14.9463 87.1431C15.0729 84.4541 16.6981 83.0357 13.8783 80.3277ZM11.1534 76.3744C13.6841 79.3547 11.9238 80.6021 11.5228 83.2615C9.05116 80.5936 9.60415 77.9532 11.1534 76.3744ZM8.84431 72.1657C7.14311 73.5799 6.32417 76.1486 8.51294 79.0529C9.18202 76.4462 11.0605 75.3845 8.84431 72.1657ZM6.97637 67.7439C8.85275 71.1716 6.87717 72.037 5.94425 74.5635C4.06364 71.4502 5.13798 68.9765 6.97637 67.7439ZM5.56644 63.1553C3.61618 64.1959 2.2949 66.5471 3.84836 69.8356C5.03033 67.4167 7.08612 66.7582 5.56644 63.1553ZM4.63353 58.4464C5.77751 62.1844 3.66684 62.6318 2.24425 64.9177C1.03272 61.49 2.58618 59.2843 4.63353 58.4464ZM4.18184 53.6678C2.06062 54.2926 0.289767 56.3294 1.1467 59.8627C2.79513 57.733 4.93746 57.5029 4.18184 53.6678ZM4.21983 48.8682C4.58076 52.7603 2.42365 52.7708 0.568376 54.7211C0.0765896 51.1181 2.04373 49.2734 4.21983 48.8682ZM4.74328 44.096C2.53974 44.2796 0.39319 45.9153 0.51772 49.5499C2.56085 47.7981 4.70951 48.007 4.74328 44.096ZM5.75218 39.4039C5.3216 43.2876 3.2046 42.8633 0.994731 44.3999C1.23957 40.7738 3.5402 39.3617 5.75218 39.4039ZM7.23176 34.8386C5.03455 34.5705 2.60306 35.7398 1.98886 39.3258C4.34436 38.0214 6.40649 38.6589 7.23176 34.8386ZM9.16724 30.4463C7.01014 29.9587 4.47311 30.8747 3.49799 34.3763C5.9738 33.3189 7.95994 34.1631 9.16724 30.4463ZM11.5417 26.2735C9.44374 25.5685 6.82651 26.2207 5.50101 29.6062C8.07181 28.8063 9.96297 29.8468 11.5417 26.2735ZM14.3257 22.3624C12.3902 25.7585 10.6173 24.53 7.97683 25.064C9.64003 21.8305 12.31 21.4464 14.3257 22.3624ZM17.4938 18.7553C15.5837 17.6387 12.8862 17.7527 10.9043 20.7984C13.5849 20.5345 15.2249 21.936 17.4938 18.7553ZM21.0123 15.4879C18.4289 18.4218 16.9408 16.862 14.2497 16.8514C16.5314 14.021 19.2267 14.1857 21.0123 15.4879ZM24.8453 12.5942C23.199 11.1167 20.5374 10.6798 17.9772 13.2654C20.6535 13.5461 21.979 15.2515 24.8453 12.5942ZM28.9527 10.1057C25.8289 12.457 24.6849 10.6271 22.0508 10.0741C24.858 7.76288 27.4646 8.46785 28.9527 10.1057ZM33.2901 8.04782C31.9751 6.26853 29.4571 5.30184 26.4283 7.31542C28.9928 8.13436 29.9447 10.0698 33.2901 8.04782ZM37.8175 6.4416C34.2842 8.11325 33.5349 6.09123 31.0654 5.0169C34.2821 3.31992 36.6925 4.53778 37.8175 6.4416ZM42.4821 5.30395C41.5576 3.2967 39.2823 1.84034 35.9094 3.19961C38.2565 4.51878 38.7947 6.60835 42.4821 5.30395ZM47.2395 4.64542C43.4403 5.5699 43.1153 3.43601 40.9159 1.88467C44.4091 0.873656 46.524 2.55164 47.2395 4.64542ZM52.0392 4.47235C51.5389 2.31946 49.6077 0.434637 46.028 1.08472C48.0606 2.85135 48.1661 5.00635 52.0392 4.47235ZM56.8325 4.78895C52.9235 4.92614 53.0375 2.77326 51.197 0.808225C54.8231 0.525396 56.5518 2.59596 56.8325 4.78895ZM61.5688 5.591C61.514 3.37902 60.0048 1.14382 56.3682 1.05728C57.9997 3.1975 57.6662 5.32928 61.5688 5.591ZM66.1975 6.87007C62.3435 6.21365 62.8901 4.1262 61.4865 1.8319C65.0958 2.2878 66.3706 4.66442 66.1975 6.87007ZM70.6743 8.61137C71.069 6.43527 70.0411 3.94046 66.4973 3.11941C67.6623 5.54668 66.9046 7.56659 70.6743 8.61137ZM74.9505 10.798C75.5647 8.67258 74.7964 6.08701 71.3539 4.91137C72.2657 7.44206 71.3075 9.37543 74.9505 10.798ZM78.9819 13.4068C75.5014 11.6233 76.6517 9.79757 76.0037 7.18667C79.3069 8.70635 79.8092 11.3574 78.9819 13.4068ZM82.7262 16.4145C83.7583 14.4579 83.5282 11.771 80.396 9.9221C80.7759 12.5858 79.4462 14.2849 82.7262 16.4145ZM86.1455 19.7853C83.0998 17.3348 84.5941 15.7792 84.4865 13.0902C87.4161 15.2473 87.3697 17.9426 86.1455 19.7853ZM89.2038 23.4853C90.6095 21.7777 90.9304 19.0993 88.235 16.6572C88.0683 19.342 86.422 20.7393 89.2038 23.4853ZM91.8696 27.4786C89.3832 24.4625 91.1604 23.2425 91.5995 20.5873C94.0309 23.2911 93.44 25.9231 91.8696 27.4786ZM94.1175 31.7211C95.8377 30.3323 96.6946 27.7741 94.5502 24.8382C93.8452 27.4364 91.9498 28.4686 94.1175 31.7211ZM95.92 36.1704C94.0943 32.7131 96.0825 31.8773 97.0513 29.3656C98.8855 32.5063 97.7753 34.9631 95.92 36.1704ZM97.2624 40.778C99.2295 39.7649 100.585 37.4326 99.0797 34.123C97.8618 36.525 95.7976 37.154 97.2624 40.778ZM98.1278 45.4995C97.0386 41.7468 99.1578 41.3289 100.612 39.0641C101.773 42.5087 100.19 44.6933 98.1278 45.4995ZM98.5098 50.2844C100.642 49.6913 102.44 47.6799 101.636 44.1361C99.9556 46.2404 97.809 46.4409 98.5098 50.2844ZM98.4021 55.082C98.0961 51.1857 100.253 51.2047 102.138 49.2819C102.579 52.8911 100.582 54.7084 98.4021 55.082ZM97.809 59.8458C100.017 59.6959 102.187 58.0897 102.113 54.4551C100.044 56.1774 97.8998 55.9389 97.809 59.8458ZM96.7347 64.523C97.2223 60.6457 99.3308 61.1016 101.564 59.5967C101.266 63.2207 98.9446 64.599 96.7347 64.523ZM95.1876 69.0673C97.3806 69.367 99.829 68.2315 100.494 64.6581C98.1193 65.9266 96.0677 65.2575 95.1876 69.0673ZM93.1867 73.43C95.3374 73.9514 97.8871 73.0712 98.9129 69.5844C96.4223 70.6039 94.4467 69.7321 93.1867 73.43ZM90.7531 77.5691C92.8384 78.3057 95.4662 77.6894 96.8424 74.3228C94.261 75.0848 92.3846 74.0168 90.7531 77.5691ZM87.9121 81.4379C89.8961 78.0714 91.6522 79.3251 94.299 78.8291C92.5894 82.0373 89.913 82.3814 87.9121 81.4379ZM84.6912 84.9986C86.5866 86.1405 89.284 86.0708 91.3103 83.0505C88.6276 83.2763 87.0066 81.8516 84.6912 84.9986ZM81.1242 88.2153C83.7499 85.3173 85.2168 86.9003 87.91 86.9468C85.584 89.7455 82.8929 89.5429 81.1242 88.2153ZM77.249 91.052C78.8763 92.5527 81.5316 93.0276 84.1277 90.4821C81.4556 90.1613 80.1554 88.4369 77.249 91.052ZM73.1058 93.4814C76.2633 91.1744 77.3799 93.0192 80.0077 93.6123C77.1646 95.8812 74.5706 95.1404 73.1058 93.4814ZM68.7388 95.476C72.1137 93.5025 73.0361 95.4507 75.5879 96.3076C72.5317 98.2768 70.0242 97.2743 68.7388 95.476Z" fill="#243959"/>
</g>
<path d="M39.5437 25.75H63.5849C71.4253 25.75 77.7927 32.1156 77.7927 39.9581V75.8861C77.7927 77.1658 76.7527 78.2058 75.473 78.2058H27.6556C26.3759 78.2058 25.3359 77.1658 25.3359 75.8861V39.9581C25.3359 32.1175 31.7014 25.75 39.5437 25.75Z" fill="white"/>
<path d="M75.4728 79.1726H27.6573C25.846 79.1726 24.3711 77.6976 24.3711 75.8864V39.9583C24.3711 31.592 31.1773 24.7837 39.5454 24.7837H63.5866C71.9527 24.7837 78.7609 31.59 78.7609 39.9583V75.8864C78.7609 77.6976 77.286 79.1726 75.4747 79.1726H75.4728ZM39.5454 26.7168C32.2443 26.7168 26.3041 32.6571 26.3041 39.9583V75.8864C26.3041 76.6325 26.9111 77.2395 27.6573 77.2395H75.4728C76.2189 77.2395 76.8259 76.6325 76.8259 75.8864V39.9583C76.8259 32.6571 70.8857 26.7168 63.5846 26.7168H39.5435H39.5454Z" fill="#002D59"/>
<path d="M77.7947 66.7605H25.3398V68.6936H77.7947V66.7605Z" fill="#002D59"/>
<path d="M77.7947 38.2688H25.3398V40.2019H77.7947V38.2688Z" fill="#002D59"/>
<path d="M51.5681 55.5645H41.9609V78.2065H51.5681V55.5645Z" fill="white"/>
<path d="M52.5324 79.1728H40.9922V54.5977H52.5324V79.1728ZM42.9252 77.2397H50.5994V56.5307H42.9252V77.2397Z" fill="#002D59"/>
<path d="M61.1775 55.5645H51.5703V78.2065H61.1775V55.5645Z" fill="white"/>
<path d="M62.1418 79.1728H50.6016V54.5977H62.1418V79.1728ZM52.5346 77.2397H60.2087V56.5307H52.5346V77.2397Z" fill="#002D59"/>
<path d="M51.5671 51.7423C50.4285 51.7423 49.29 51.3093 48.424 50.4433C47.585 49.6043 47.1211 48.487 47.1211 47.3001C47.1211 46.1132 47.5831 44.9959 48.424 44.1569C50.156 42.423 52.9763 42.423 54.7102 44.1569C55.5491 44.9959 56.0131 46.1132 56.0131 47.3001C56.0131 48.487 55.5511 49.6043 54.7102 50.4433C53.8442 51.3093 52.7056 51.7423 51.5671 51.7423ZM51.5671 44.789C50.9234 44.789 50.2797 45.0345 49.7906 45.5236C49.317 45.9972 49.0541 46.6293 49.0541 47.3001C49.0541 47.9709 49.3151 48.601 49.7906 49.0766C50.7707 50.0567 52.3635 50.0567 53.3435 49.0766C53.8171 48.603 54.08 47.9709 54.08 47.3001C54.08 46.6293 53.8191 45.9991 53.3435 45.5236C52.8545 45.0345 52.2108 44.789 51.5671 44.789Z" fill="#002D59"/>
<defs>
<clipPath id="clip0_909_5660">
<rect width="101.711" height="101.711" fill="white" transform="translate(0.496094 0.780762)"/>
</clipPath>
</defs>
</svg>
