<svg width="103" height="103" viewBox="0 0 103 103" fill="none" xmlns="http://www.w3.org/2000/svg">
<path fill-rule="evenodd" clip-rule="evenodd" d="M100.534 51.8517C100.534 77.3503 81.0988 98.3102 56.2337 100.723C54.6544 100.875 53.0519 100.955 51.432 100.955C49.8121 100.955 48.2076 100.875 46.6264 100.721C21.7632 98.3082 2.32812 77.3484 2.32812 51.8517C2.32812 47.0095 3.02983 42.3315 4.33659 37.9126C4.76573 36.459 5.26059 35.0324 5.81732 33.6387C13.0528 15.5397 30.7481 2.75073 51.432 2.75073C72.1159 2.75073 90.0084 15.6827 97.1646 33.9422C97.7387 35.4074 98.2452 36.9094 98.6782 38.4384C99.8883 42.7027 100.534 47.2008 100.534 51.8517Z" fill="white"/>
<path d="M51.4298 101.921C49.7963 101.921 48.1474 101.84 46.5294 101.683C34.2138 100.489 22.8145 94.7746 14.4366 85.5946C6.00455 76.3547 1.35938 64.3719 1.35938 51.8516C1.35938 47.0171 2.04755 42.2348 3.4065 37.6381C3.83951 36.1689 4.3479 34.7018 4.91623 33.2791C8.58906 24.0895 14.8522 16.251 23.0291 10.6104C31.3993 4.83452 41.2212 1.78223 51.4278 1.78223C61.6345 1.78223 71.5608 4.86737 79.9619 10.7032C88.1697 16.4056 94.429 24.3195 98.0613 33.5864C98.647 35.0845 99.167 36.6271 99.6058 38.1716C100.862 42.5963 101.498 47.1969 101.498 51.8478C101.498 64.368 96.8531 76.3528 88.4191 85.5927C80.0412 94.7727 68.6418 100.487 56.3243 101.681C54.7025 101.838 53.0555 101.917 51.4298 101.917V101.921ZM51.4298 3.71719C41.6156 3.71719 32.1745 6.65157 24.129 12.2032C16.2672 17.6273 10.2457 25.1623 6.71398 33.9982C6.16886 35.3648 5.67979 36.774 5.26225 38.187C3.95549 42.606 3.29245 47.2027 3.29245 51.8516C3.29245 63.8867 7.75784 75.4076 15.8651 84.2918C23.9202 93.118 34.8769 98.6098 46.717 99.7599C49.8215 100.063 53.0091 100.063 56.1387 99.7618C67.9788 98.6136 78.9374 93.1199 86.9925 84.2937C95.0998 75.4095 99.5652 63.8886 99.5652 51.8516C99.5652 47.3805 98.9524 42.9558 97.7462 38.7032C97.3248 37.2166 96.826 35.734 96.2635 34.2958C92.7704 25.3845 86.7528 17.7781 78.862 12.2941C70.7856 6.68442 61.302 3.71913 51.4317 3.71913L51.4298 3.71719Z" fill="white"/>
<path d="M65.5671 25.6245H38.015C36.7339 25.6245 35.6953 26.663 35.6953 27.9442V75.7596C35.6953 77.0407 36.7339 78.0793 38.015 78.0793H65.5671C66.8482 78.0793 67.8867 77.0407 67.8867 75.7596V27.9442C67.8867 26.663 66.8482 25.6245 65.5671 25.6245Z" fill="white"/>
<path d="M65.5688 79.0457H38.0167C36.2054 79.0457 34.7305 77.5708 34.7305 75.7596V27.9441C34.7305 26.1329 36.2054 24.658 38.0167 24.658H65.5688C67.38 24.658 68.855 26.1329 68.855 27.9441V75.7596C68.855 77.5708 67.38 79.0457 65.5688 79.0457ZM38.0167 26.591C37.2705 26.591 36.6635 27.198 36.6635 27.9441V75.7596C36.6635 76.5057 37.2705 77.1127 38.0167 77.1127H65.5688C66.3149 77.1127 66.9219 76.5057 66.9219 75.7596V27.9441C66.9219 27.198 66.3149 26.591 65.5688 26.591H38.0167Z" fill="#002D59"/>
<path d="M63.3175 51.3701H40.2656V53.3032H63.3175V51.3701Z" fill="#002D59"/>
<path d="M62.357 33.561H41.2344V45.8416H62.357V33.561Z" fill="white"/>
<path d="M63.3214 46.8081H40.2656V32.5945H63.3214V46.8081ZM42.1987 44.875H61.3883V34.5275H42.1987V44.875Z" fill="#002D59"/>
<path d="M85.1556 65.8198L71.6241 89.7585H31.219L17.6875 65.8198H85.1556Z" fill="white"/>
<path d="M72.187 90.725H30.6549L16.0312 64.8533H86.8126L72.1889 90.725H72.187ZM31.7819 88.7919H71.06L83.4993 66.7863H19.3445L31.7838 88.7919H31.7819Z" fill="#002D59"/>
<path d="M68.5312 62.3904V60.4573C73.6558 60.4573 77.8255 56.2877 77.8255 51.1632V32.5269C77.8255 30.5958 77.4272 28.7227 76.6405 26.9597L71.3999 15.2088L73.1648 14.4221L78.4054 26.173C79.3023 28.1853 79.7585 30.3232 79.7585 32.5269V51.1632C79.7585 57.3547 74.7209 62.3904 68.5312 62.3904Z" fill="#002D59"/>
<path d="M78.2994 36.8664L75.4714 35.1905C72.2025 33.2536 71.0524 29.1149 72.854 25.7689L72.8791 25.7244L74.9958 22.2527L76.6467 23.2598L74.5435 26.7083C73.2522 29.1342 74.0892 32.1266 76.4553 33.528L79.2834 35.204L78.2975 36.8664H78.2994Z" fill="#002D59"/>
<mask id="mask0_909_5751" style="mask-type:alpha" maskUnits="userSpaceOnUse" x="3" y="4" width="97" height="97">
<circle cx="51.7954" cy="52.7842" r="48.1704" fill="#D9D9D9"/>
</mask>
<g mask="url(#mask0_909_5751)">
<path d="M34.5798 83.335L27.7148 86.42L28.8449 91.9816C42.5173 91.8513 69.9317 91.6688 70.2098 91.9816C70.5574 92.3727 73.8596 91.9382 74.468 91.5906C75.0763 91.243 75.8584 87.5931 75.9453 87.3324C76.0148 87.1239 74.9894 86.4345 74.468 86.1158C73.1355 85.4351 70.4184 84.0563 70.2098 83.9867C69.9491 83.8998 67.8635 83.726 67.6028 83.726C67.3421 83.726 62.128 85.6813 61.5197 86.1158C61.0331 86.4634 59.8686 86.4634 59.3472 86.42C57.9568 85.7248 55.1238 84.3343 54.9152 84.3343C54.7067 84.3343 52.4241 83.9288 51.3088 83.726L47.5286 85.6813L42.2277 86.1158L34.5798 83.335Z" fill="white"/>
<path d="M-5.14062 86.832C-4.05184 86.832 -2.96305 86.5343 -1.95611 85.9366C-1.34351 85.5745 -0.728429 85.2099 -0.113351 84.8478C1.90302 83.6549 4.23932 83.6549 6.25569 84.8478C6.87077 85.2099 7.48337 85.5745 8.09844 85.9366C10.1148 87.1296 12.4511 87.1296 14.4675 85.9366C15.0826 85.5745 15.6976 85.2099 16.3102 84.8478C18.3266 83.6549 20.6629 83.6549 22.6793 84.8478C23.2944 85.2099 23.9094 85.5745 24.522 85.9366C26.5384 87.1296 28.8747 87.1296 30.8911 85.9366C31.5061 85.5745 32.1212 85.2099 32.7338 84.8478C34.7502 83.6549 37.0865 83.6549 39.1029 84.8478C39.7179 85.2099 40.3305 85.5745 40.9456 85.9366C42.9645 87.1296 45.2983 87.1296 47.3171 85.9366C47.9322 85.5745 48.5448 85.2099 49.1599 84.8478C51.1763 83.6549 53.5126 83.6549 55.5289 84.8478C56.144 85.2099 56.7566 85.5745 57.3717 85.9366C59.3881 87.1296 61.7244 87.1296 63.7432 85.9366C64.3583 85.5745 64.9709 85.2099 65.586 84.8478C67.6023 83.6549 69.9386 83.6549 71.9575 84.8478C72.5726 85.2099 73.1852 85.5745 73.8002 85.9366C75.8166 87.1296 78.1529 87.1296 80.1693 85.9366C80.7844 85.5745 81.397 85.2099 82.012 84.8478C84.0284 83.6549 86.3647 83.6549 88.3811 84.8478C88.9962 85.2099 89.6087 85.5745 90.2238 85.9366C92.2402 87.1296 94.5765 87.1296 96.5929 85.9366C97.2079 85.5745 97.8205 85.2099 98.4356 84.8478C100.452 83.6549 102.788 83.6549 104.805 84.8478C105.42 85.2099 106.032 85.5745 106.647 85.9366C107.657 86.5319 108.743 86.832 109.832 86.832V85.8945C108.743 85.8945 107.654 85.5968 106.647 84.9991C106.032 84.637 105.42 84.2724 104.805 83.9103C102.788 82.7174 100.452 82.7174 98.4356 83.9103C97.8205 84.2724 97.2055 84.637 96.5929 84.9991C94.5765 86.1921 92.2402 86.1921 90.2238 84.9991C89.6087 84.637 88.9962 84.2724 88.3811 83.9103C86.3647 82.7174 84.0284 82.7174 82.012 83.9103C81.397 84.2724 80.7819 84.637 80.1693 84.9991C78.1504 86.1921 75.8166 86.1921 73.8002 84.9991C73.1852 84.637 72.5726 84.2724 71.9575 83.9103C69.9386 82.7174 67.6048 82.7174 65.586 83.9103C64.9709 84.2724 64.3583 84.637 63.7432 84.9991C61.7268 86.1921 59.3905 86.1921 57.3717 84.9991C56.7566 84.637 56.144 84.2724 55.5289 83.9103C53.5126 82.7174 51.1763 82.7174 49.1599 83.9103C48.5448 84.2724 47.9322 84.637 47.3171 84.9991C45.3008 86.1921 42.9645 86.1921 40.9456 84.9991C40.333 84.637 39.7179 84.2724 39.1029 83.9103C37.0865 82.7174 34.7502 82.7174 32.7338 83.9103C32.1187 84.2724 31.5061 84.637 30.8911 84.9991C28.8747 86.1921 26.5384 86.1921 24.522 84.9991C23.907 84.637 23.2919 84.2724 22.6793 83.9103C20.6629 82.7174 18.3266 82.7174 16.3102 83.9103C15.6952 84.2724 15.0826 84.637 14.4675 84.9991C12.4511 86.1921 10.1148 86.1921 8.09844 84.9991C7.48337 84.637 6.87077 84.2724 6.25569 83.9103C4.23932 82.7174 1.90302 82.7174 -0.113351 83.9103C-0.728429 84.2724 -1.34103 84.637 -1.95611 84.9991C-2.96553 85.5968 -4.05432 85.8945 -5.14062 85.8945V86.832Z" stroke="#002D59" stroke-width="1.00139" stroke-miterlimit="10"/>
<path d="M-5.14062 96.6567V95.7192C-4.05184 95.7192 -2.96305 95.4216 -1.95611 94.8238C-1.34351 94.4617 -0.728429 94.0972 -0.113351 93.735C1.90302 92.5421 4.23932 92.5421 6.25569 93.735C6.87077 94.0972 7.48337 94.4617 8.09844 94.8238C10.1148 96.0168 12.4511 96.0168 14.4675 94.8238C15.0826 94.4617 15.6976 94.0972 16.3102 93.735C18.3266 92.5421 20.6629 92.5421 22.6793 93.735C23.2944 94.0972 23.9094 94.4617 24.522 94.8238C26.5384 96.0168 28.8747 96.0168 30.8911 94.8238C31.5061 94.4617 32.1212 94.0972 32.7338 93.735C34.7502 92.5421 37.0865 92.5421 39.1029 93.735C39.7179 94.0972 40.3305 94.4617 40.9456 94.8238C42.962 96.0168 45.2983 96.0168 47.3171 94.8238C47.9322 94.4617 48.5448 94.0972 49.1599 93.735C51.1763 92.5421 53.5126 92.5421 55.5289 93.735C56.144 94.0972 56.7566 94.4617 57.3717 94.8238C59.3881 96.0168 61.7244 96.0168 63.7432 94.8238C64.3583 94.4617 64.9709 94.0972 65.586 93.735C67.6023 92.5421 69.9386 92.5421 71.9575 93.735C72.5726 94.0972 73.1852 94.4617 73.8002 94.8238C75.8166 96.0168 78.1529 96.0168 80.1693 94.8238C80.7844 94.4617 81.397 94.0972 82.012 93.735C84.0284 92.5421 86.3647 92.5421 88.3811 93.735C88.9962 94.0972 89.6087 94.4617 90.2238 94.8238C92.2402 96.0168 94.5765 96.0168 96.5929 94.8238C97.2079 94.4617 97.8205 94.0972 98.4356 93.735C100.452 92.5421 102.788 92.5421 104.805 93.735C105.42 94.0972 106.032 94.4617 106.647 94.8238C107.657 95.4216 108.743 95.7192 109.832 95.7192V96.6567C108.743 96.6567 107.654 96.3591 106.647 95.7613C106.032 95.3992 105.42 95.0346 104.805 94.6725C102.788 93.4796 100.452 93.4796 98.4356 94.6725C97.8205 95.0371 97.2055 95.3992 96.5929 95.7613C94.5765 96.9543 92.2402 96.9543 90.2238 95.7613C89.6087 95.3992 88.9962 95.0346 88.3811 94.6725C86.3647 93.4796 84.0284 93.4796 82.012 94.6725C81.397 95.0371 80.7819 95.3992 80.1693 95.7613C78.1504 96.9543 75.8166 96.9543 73.8002 95.7613C73.1852 95.3992 72.5726 95.0346 71.9575 94.6725C69.9386 93.4796 67.6048 93.4796 65.586 94.6725C64.9709 95.0371 64.3583 95.3992 63.7432 95.7613C61.7268 96.9543 59.3905 96.9543 57.3717 95.7613C56.7566 95.3992 56.144 95.0346 55.5289 94.6725C53.5126 93.4796 51.1763 93.4796 49.1599 94.6725C48.5448 95.0371 47.9322 95.3992 47.3171 95.7613C45.3008 96.9543 42.9645 96.9543 40.9456 95.7613C40.333 95.3992 39.7179 95.0346 39.1029 94.6725C37.0865 93.4796 34.7502 93.4796 32.7338 94.6725C32.1187 95.0371 31.5061 95.3992 30.8911 95.7613C28.8747 96.9543 26.5384 96.9543 24.522 95.7613C23.907 95.3992 23.2919 95.0346 22.6793 94.6725C20.6629 93.4796 18.3266 93.4796 16.3102 94.6725C15.6952 95.0371 15.0826 95.3992 14.4675 95.7613C12.4511 96.9543 10.1148 96.9543 8.09844 95.7613C7.48337 95.3992 6.87077 95.0346 6.25569 94.6725C4.23932 93.4796 1.90302 93.4796 -0.113351 94.6725C-0.728429 95.0371 -1.34103 95.3992 -1.95611 95.7613C-2.96553 96.3566 -4.05432 96.6567 -5.14062 96.6567Z" stroke="#002D59" stroke-width="1.00139" stroke-miterlimit="10"/>
</g>
<g clip-path="url(#clip0_909_5751)">
<path fill-rule="evenodd" clip-rule="evenodd" d="M64.0638 97.0191C65.1614 98.9398 67.5527 100.189 70.7947 98.5409C68.34 97.4307 67.6224 95.396 64.0638 97.0191ZM59.7707 98.0196C63.4644 96.7384 63.992 98.8301 66.3307 100.164C62.9473 101.502 60.6846 100.033 59.7707 98.0196ZM55.5093 98.6064C56.2374 100.696 58.3566 102.363 61.8455 101.338C59.6398 99.7968 59.3043 97.665 55.5093 98.6064ZM51.1803 98.8026C55.047 98.2138 55.1821 100.367 57.2379 102.102C53.6688 102.802 51.7122 100.949 51.1803 98.8026ZM46.3827 98.5536C46.693 100.742 48.4533 102.788 52.0752 102.454C50.2073 100.517 50.2896 98.3615 46.3827 98.5536ZM41.6358 97.8212C45.5427 98.0259 45.2388 100.162 46.902 102.279C43.2653 102.243 41.7224 100.031 41.6358 97.8212ZM36.9881 96.6097C36.8488 98.8174 38.1596 101.175 41.773 101.58C40.3357 99.305 40.8528 97.2112 36.9881 96.6097ZM32.4861 94.9338C32.1252 97.1141 33.1868 99.5941 36.7433 100.362C35.5423 97.952 36.2705 95.9216 32.4861 94.9338ZM28.1803 92.8083C27.5978 94.9401 28.4019 97.5151 31.8613 98.6401C30.9136 96.1221 31.8423 94.1761 28.1803 92.8083ZM24.1131 90.2565C27.6168 91.9894 26.4939 93.832 27.182 96.4345C23.8556 94.9633 23.3152 92.3187 24.1131 90.2565ZM20.3244 87.3058C19.3218 89.2751 19.5899 91.962 22.7496 93.7602C22.3295 91.1029 23.636 89.3848 20.3244 87.3058ZM16.8566 83.9836C19.9382 86.3898 18.4649 87.9665 18.6126 90.6533C15.6535 88.5406 15.6598 85.8431 16.8566 83.9836ZM13.7454 80.3279C12.3651 82.0566 12.0843 84.7393 14.8134 87.1433C14.9401 84.4543 16.5653 83.0359 13.7454 80.3279ZM11.0206 76.3747C13.5513 79.3549 11.791 80.6023 11.3899 83.2618C8.91835 80.5939 9.47134 77.9534 11.0206 76.3747ZM8.7115 72.166C7.0103 73.5801 6.19136 76.1488 8.38013 79.0531C9.04921 76.4464 10.9277 75.3848 8.7115 72.166ZM6.84356 67.7441C8.71994 71.1719 6.74436 72.0372 5.81144 74.5637C3.93083 71.4505 5.00516 68.9768 6.84356 67.7441ZM5.43363 63.1555C3.48337 64.1961 2.16209 66.5474 3.71554 69.8358C4.89752 67.417 6.95331 66.7585 5.43363 63.1555ZM4.50071 58.4466C5.6447 62.1846 3.53403 62.6321 2.11143 64.9179C0.89991 61.4902 2.45336 59.2846 4.50071 58.4466ZM4.04903 53.6681C1.92781 54.2928 0.156955 56.3296 1.01389 59.8629C2.66232 57.7332 4.80465 57.5032 4.04903 53.6681ZM4.08702 48.8684C4.44795 52.7605 2.29084 52.771 0.435563 54.7213C-0.0562229 51.1184 1.91092 49.2737 4.08702 48.8684ZM4.61047 44.0962C2.40693 44.2798 0.260378 45.9156 0.384907 49.5502C2.42804 47.7983 4.5767 48.0073 4.61047 44.0962ZM5.61937 39.4042C5.18879 43.2878 3.07179 42.8636 0.861918 44.4001C1.10676 40.774 3.40739 39.362 5.61937 39.4042ZM7.09895 34.8388C4.90174 34.5707 2.47025 35.7401 1.85604 39.3261C4.21155 38.0217 6.27368 38.6591 7.09895 34.8388ZM9.03443 30.4465C6.87733 29.9589 4.3403 30.875 3.36517 34.3766C5.84099 33.3191 7.82713 34.1634 9.03443 30.4465ZM11.4089 26.2737C9.31093 25.5687 6.6937 26.2209 5.3682 29.6064C7.93899 28.8065 9.83015 29.8471 11.4089 26.2737ZM14.1929 22.3626C12.2574 25.7587 10.4845 24.5303 7.84401 25.0643C9.50722 21.8307 12.1772 21.4466 14.1929 22.3626ZM17.361 18.7555C15.4509 17.639 12.7534 17.7529 10.7715 20.7986C13.4521 20.5348 15.0921 21.9363 17.361 18.7555ZM20.8795 15.4882C18.296 18.422 16.808 16.8622 14.1169 16.8517C16.3986 14.0213 19.0939 14.1859 20.8795 15.4882ZM24.7125 12.5944C23.0662 11.117 20.4046 10.6801 17.8444 13.2656C20.5207 13.5464 21.8462 15.2518 24.7125 12.5944ZM28.8199 10.106C25.6961 12.4573 24.5521 10.6273 21.918 10.0743C24.7251 7.76313 27.3318 8.46809 28.8199 10.106ZM33.1573 8.04807C31.8423 6.26877 29.3243 5.30208 26.2955 7.31566C28.86 8.1346 29.8119 10.0701 33.1573 8.04807ZM37.6847 6.44185C34.1514 8.1135 33.4021 6.09148 30.9326 5.01714C34.1493 3.32017 36.5597 4.53802 37.6847 6.44185ZM42.3492 5.3042C41.4248 3.29695 39.1495 1.84059 35.7766 3.19986C38.1237 4.51903 38.6619 6.60859 42.3492 5.3042ZM47.1067 4.64567C43.3075 5.57014 42.9824 3.43625 40.7831 1.88491C44.2763 0.8739 46.3912 2.55188 47.1067 4.64567ZM51.9064 4.47259C51.4061 2.31971 49.4749 0.434881 45.8952 1.08497C47.9277 2.8516 48.0333 5.00659 51.9064 4.47259ZM56.6997 4.78919C52.7907 4.92639 52.9047 2.7735 51.0642 0.808469C54.6903 0.52564 56.419 2.59621 56.6997 4.78919ZM61.436 5.59125C61.3811 3.37927 59.872 1.14407 56.2353 1.05753C57.8669 3.19775 57.5334 5.32952 61.436 5.59125ZM66.0647 6.87031C62.2106 6.21389 62.7573 4.12644 61.3537 1.83214C64.963 2.28805 66.2378 4.66466 66.0647 6.87031ZM70.5415 8.61162C70.9361 6.43551 69.9083 3.9407 66.3644 3.11965C67.5295 5.54692 66.7718 7.56683 70.5415 8.61162ZM74.8177 10.7983C75.4319 8.67283 74.6636 6.08725 71.2211 4.91161C72.1329 7.4423 71.1747 9.37568 74.8177 10.7983ZM78.8491 13.4071C75.3686 11.6235 76.5189 9.79781 75.8709 7.18691C79.1741 8.7066 79.6764 11.3576 78.8491 13.4071ZM82.5934 16.4148C83.6255 14.4582 83.3954 11.7713 80.2632 9.92234C80.6431 12.586 79.3134 14.2851 82.5934 16.4148ZM86.0127 19.7855C82.967 17.335 84.4613 15.7795 84.3537 13.0905C87.2833 15.2476 87.2369 17.9429 86.0127 19.7855ZM89.071 23.4855C90.4767 21.778 90.7976 19.0995 88.1022 16.6575C87.9355 19.3423 86.2892 20.7395 89.071 23.4855ZM91.7368 27.4789C89.2504 24.4627 91.0276 23.2428 91.4666 20.5876C93.8981 23.2913 93.3071 25.9233 91.7368 27.4789ZM93.9847 31.7213C95.7049 30.3325 96.5618 27.7744 94.4174 24.8384C93.7124 27.4367 91.817 28.4688 93.9847 31.7213ZM95.7872 36.1706C93.9614 32.7134 95.9497 31.8775 96.9185 29.3658C98.7527 32.5065 97.6425 34.9633 95.7872 36.1706ZM97.1296 40.7782C99.0967 39.7651 100.452 37.4328 98.9468 34.1233C97.729 36.5252 95.6648 37.1542 97.1296 40.7782ZM97.9949 45.4998C96.9058 41.747 99.0249 41.3291 100.479 39.0644C101.64 42.509 100.057 44.6935 97.9949 45.4998ZM98.377 50.2847C100.509 49.6916 102.307 47.6801 101.503 44.1363C99.8228 46.2406 97.6762 46.4412 98.377 50.2847ZM98.2693 55.0822C97.9633 51.1859 100.12 51.2049 102.005 49.2821C102.446 52.8914 100.45 54.7086 98.2693 55.0822ZM97.6762 59.846C99.884 59.6962 102.054 58.0899 101.98 54.4554C99.9114 56.1777 97.767 55.9392 97.6762 59.846ZM96.6019 64.5233C97.0895 60.646 99.198 61.1019 101.431 59.597C101.134 63.221 98.8118 64.5992 96.6019 64.5233ZM95.0548 69.0675C97.2478 69.3672 99.6961 68.2317 100.361 64.6583C97.9865 65.9269 95.9349 65.2578 95.0548 69.0675ZM93.0539 73.4303C95.2046 73.9516 97.7543 73.0715 98.7801 69.5846C96.2895 70.6041 94.3139 69.7324 93.0539 73.4303ZM90.6203 77.5693C92.7056 78.3059 95.3334 77.6896 96.7095 74.3231C94.1282 75.085 92.2518 74.017 90.6203 77.5693ZM87.7793 81.4382C89.7633 78.0716 91.5194 79.3254 94.1662 78.8294C92.4565 82.0376 89.7802 82.3816 87.7793 81.4382ZM84.5584 84.9989C86.4538 86.1407 89.1512 86.0711 91.1775 83.0507C88.4948 83.2766 86.8738 81.8519 84.5584 84.9989ZM80.9914 88.2155C83.6171 85.3176 85.084 86.9006 87.7772 86.947C85.4512 89.7458 82.7601 89.5431 80.9914 88.2155ZM77.1162 91.0523C78.7435 92.5529 81.3987 93.0278 83.9949 90.4824C81.3228 90.1616 80.0226 88.4371 77.1162 91.0523ZM72.9729 93.4816C76.1305 91.1747 77.2471 93.0194 79.8748 93.6125C77.0318 95.8815 74.4378 95.1406 72.9729 93.4816ZM68.606 95.4762C71.9809 93.5027 72.9033 95.4509 75.4551 96.3078C72.3988 98.2771 69.8914 97.2745 68.606 95.4762Z" fill="#243959"/>
</g>
<defs>
<clipPath id="clip0_909_5751">
<rect width="101.711" height="101.711" fill="white" transform="translate(0.359375 0.780762)"/>
</clipPath>
</defs>
</svg>
