<svg width="103" height="103" viewBox="0 0 103 103" fill="none" xmlns="http://www.w3.org/2000/svg">
<path fill-rule="evenodd" clip-rule="evenodd" d="M100.954 51.8505C100.954 77.3496 81.5192 98.3099 56.6546 100.722C55.0753 100.875 53.4728 100.954 51.8529 100.954C50.233 100.954 48.6286 100.875 47.0474 100.72C22.1847 98.308 2.75 77.3477 2.75 51.8505C2.75 47.0081 3.45169 42.3301 4.75842 37.9111C5.18756 36.4574 5.68241 35.0308 6.23913 33.6371C13.4745 15.5377 31.1695 2.74854 51.8529 2.74854C72.5364 2.74854 90.4286 15.6808 97.5846 33.9406C98.1588 35.4058 98.6652 36.9078 99.0982 38.4369C100.308 42.7012 100.954 47.1995 100.954 51.8505Z" fill="white"/>
<path d="M51.8507 101.921C50.2173 101.921 48.5703 101.84 46.9505 101.683C34.6332 100.489 23.236 94.7746 14.8582 85.5944C6.42633 76.3543 1.78125 64.3693 1.78125 51.8507C1.78125 47.0161 2.46941 42.2337 3.83027 37.6368C4.26327 36.1677 4.77165 34.7005 5.33997 33.2778C9.01273 24.0879 15.2758 16.2493 23.4525 10.6086C31.8225 4.83455 41.6423 1.78223 51.8507 1.78223C62.059 1.78223 71.9832 4.86741 80.3842 10.7034C88.5919 16.4059 94.851 24.3199 98.4832 33.587C99.0689 35.0832 99.5889 36.6258 100.028 38.1723C101.284 42.5971 101.92 47.1997 101.92 51.8488C101.92 64.3693 97.2751 76.3543 88.8412 85.5944C80.4635 94.7746 69.0644 100.489 56.7471 101.683C55.1233 101.84 53.4764 101.919 51.8526 101.919L51.8507 101.921ZM51.8507 3.7153C42.0367 3.7153 32.5957 6.6497 24.5505 12.2015C16.6888 17.6257 10.6674 25.1608 7.13575 33.9969C6.59064 35.3635 6.10158 36.7728 5.68405 38.1858C4.37731 42.6048 3.71428 47.2017 3.71428 51.8507C3.71428 63.886 8.17959 75.4071 16.2867 84.2915C24.3417 93.1179 35.2981 98.6098 47.138 99.7599C50.2443 100.063 53.43 100.063 56.5596 99.7599C68.3994 98.6117 79.3578 93.1179 87.4127 84.2915C95.5199 75.4071 99.9852 63.886 99.9852 51.8488C99.9852 47.3776 99.3724 42.9528 98.1662 38.7C97.7448 37.2135 97.2461 35.7308 96.6816 34.2926C93.1886 25.3812 87.1711 17.7726 79.2804 12.2904C71.2062 6.68063 61.7208 3.7153 51.8507 3.7153Z" fill="white"/>
<g clip-path="url(#clip0_909_5679)">
<path fill-rule="evenodd" clip-rule="evenodd" d="M64.4857 97.0189C65.5832 98.9396 67.9746 100.189 71.2166 98.5407C68.7619 97.4305 68.0443 95.3958 64.4857 97.0189ZM60.1926 98.0193C63.8863 96.7382 64.4139 98.8298 66.7525 100.164C63.3691 101.502 61.1065 100.033 60.1926 98.0193ZM55.9311 98.6061C56.6593 100.696 58.7784 102.363 62.2674 101.337C60.0617 99.7965 59.7261 97.6647 55.9311 98.6061ZM51.6022 98.8024C55.4689 98.2135 55.604 100.366 57.6598 102.101C54.0906 102.802 52.1341 100.949 51.6022 98.8024ZM46.8046 98.5533C47.1149 100.742 48.8752 102.787 52.4971 102.454C50.6291 100.516 50.7115 98.3613 46.8046 98.5533ZM42.0577 97.8209C45.9646 98.0257 45.6606 100.162 47.3238 102.279C43.6871 102.243 42.1443 100.031 42.0577 97.8209ZM37.41 96.6094C37.2707 98.8172 38.5814 101.175 42.1949 101.58C40.7575 99.3047 41.2747 97.211 37.41 96.6094ZM32.908 94.9335C32.547 97.1139 33.6087 99.5939 37.1652 100.362C35.9642 97.9518 36.6924 95.9213 32.908 94.9335ZM28.6022 92.8081C28.0196 94.9399 28.8238 97.5149 32.2832 98.6399C31.3355 96.1218 32.2642 94.1758 28.6022 92.8081ZM24.5349 90.2563C28.0386 91.9892 26.9158 93.8318 27.6038 96.4342C24.2774 94.9631 23.7371 92.3184 24.5349 90.2563ZM20.7463 87.3056C19.7437 89.2748 20.0118 91.9617 23.1714 93.76C22.7514 91.1027 24.0579 89.3846 20.7463 87.3056ZM17.2784 83.9834C20.36 86.3895 18.8868 87.9662 19.0345 90.6531C16.0754 88.5403 16.0817 85.8429 17.2784 83.9834ZM14.1673 80.3277C12.7869 82.0563 12.5062 84.739 15.2353 87.1431C15.362 84.4541 16.9872 83.0357 14.1673 80.3277ZM11.4424 76.3744C13.9731 79.3547 12.2128 80.6021 11.8118 83.2615C9.34022 80.5937 9.89322 77.9532 11.4424 76.3744ZM9.13338 72.1657C7.43217 73.5799 6.61323 76.1486 8.802 79.0529C9.47108 76.4462 11.3496 75.3845 9.13338 72.1657ZM7.26543 67.7439C9.14182 71.1716 7.16623 72.037 6.23331 74.5635C4.35271 71.4502 5.42704 68.9765 7.26543 67.7439ZM5.8555 63.1553C3.90525 64.1959 2.58397 66.5471 4.13742 69.8356C5.31939 67.4167 7.37519 66.7582 5.8555 63.1553ZM4.92259 58.4464C6.06657 62.1844 3.9559 62.6319 2.53331 64.9177C1.32179 61.49 2.87524 59.2843 4.92259 58.4464ZM4.4709 53.6678C2.34968 54.2926 0.57883 56.3294 1.43576 59.8627C3.08419 57.733 5.22652 57.5029 4.4709 53.6678ZM4.5089 48.8682C4.86982 52.7603 2.71272 52.7708 0.857438 54.7211C0.365652 51.1181 2.3328 49.2734 4.5089 48.8682ZM5.03234 44.096C2.8288 44.2796 0.682253 45.9153 0.806782 49.5499C2.84991 47.7981 4.99857 48.007 5.03234 44.096ZM6.04124 39.4039C5.61067 43.2876 3.49366 42.8633 1.28379 44.3999C1.52863 40.7738 3.82926 39.3617 6.04124 39.4039ZM7.52082 34.8386C5.32362 34.5705 2.89212 35.7398 2.27792 39.3258C4.63343 38.0214 6.69555 38.6589 7.52082 34.8386ZM9.45631 30.4463C7.2992 29.9587 4.76218 30.8747 3.78705 34.3763C6.26286 33.3189 8.249 34.1631 9.45631 30.4463ZM11.8308 26.2735C9.7328 25.5685 7.11557 26.2207 5.79007 29.6062C8.36087 28.8063 10.252 29.8468 11.8308 26.2735ZM14.6148 22.3624C12.6793 25.7585 10.9063 24.53 8.26589 25.064C9.9291 21.8305 12.5991 21.4464 14.6148 22.3624ZM17.7829 18.7553C15.8727 17.6387 13.1753 17.7527 11.1934 20.7984C13.8739 20.5345 15.5139 21.936 17.7829 18.7553ZM21.3014 15.4879C18.7179 18.4218 17.2299 16.862 14.5388 16.8514C16.8204 14.021 19.5158 14.1857 21.3014 15.4879ZM25.1344 12.5942C23.488 11.1167 20.8265 10.6798 18.2662 13.2654C20.9426 13.5461 22.2681 15.2515 25.1344 12.5942ZM29.2417 10.1057C26.1179 12.457 24.9739 10.6271 22.3398 10.0741C25.147 7.76288 27.7537 8.46785 29.2417 10.1057ZM33.5792 8.04782C32.2642 6.26853 29.7462 5.30184 26.7174 7.31542C29.2818 8.13436 30.2337 10.0698 33.5792 8.04782ZM38.1065 6.4416C34.5733 8.11325 33.824 6.09123 31.3545 5.0169C34.5712 3.31992 36.9816 4.53778 38.1065 6.4416ZM42.7711 5.30395C41.8466 3.29671 39.5713 1.84034 36.1985 3.19961C38.5456 4.51878 39.0838 6.60835 42.7711 5.30395ZM47.5286 4.64542C43.7294 5.5699 43.4043 3.43601 41.205 1.88467C44.6982 0.873656 46.8131 2.55164 47.5286 4.64542ZM52.3282 4.47235C51.828 2.31946 49.8967 0.434637 46.317 1.08472C48.3496 2.85135 48.4552 5.00635 52.3282 4.47235ZM57.1216 4.78895C53.2126 4.92614 53.3266 2.77326 51.4861 0.808225C55.1122 0.525396 56.8408 2.59596 57.1216 4.78895ZM61.8579 5.591C61.803 3.37902 60.2939 1.14382 56.6572 1.05728C58.2888 3.1975 57.9553 5.32928 61.8579 5.591ZM66.4866 6.87007C62.6325 6.21365 63.1792 4.1262 61.7756 1.8319C65.3848 2.2878 66.6597 4.66442 66.4866 6.87007ZM70.9633 8.61137C71.358 6.43527 70.3301 3.94046 66.7863 3.11941C67.9514 5.54668 67.1937 7.56659 70.9633 8.61137ZM75.2395 10.798C75.8538 8.67258 75.0855 6.08701 71.643 4.91137C72.5548 7.44206 71.5965 9.37543 75.2395 10.798ZM79.2709 13.4068C75.7904 11.6233 76.9408 9.79757 76.2928 7.18667C79.596 8.70635 80.0983 11.3574 79.2709 13.4068ZM83.0153 16.4145C84.0474 14.4579 83.8173 11.771 80.6851 9.9221C81.065 12.5858 79.7353 14.2849 83.0153 16.4145ZM86.4345 19.7853C83.3888 17.3348 84.8832 15.7792 84.7756 13.0902C87.7052 15.2473 87.6587 17.9426 86.4345 19.7853ZM89.4929 23.4853C90.8986 21.7777 91.2194 19.0993 88.5241 16.6572C88.3574 19.342 86.711 20.7393 89.4929 23.4853ZM92.1587 27.4786C89.6723 24.4625 91.4495 23.2425 91.8885 20.5873C94.32 23.2911 93.729 25.9231 92.1587 27.4786ZM94.4065 31.7211C96.1267 30.3323 96.9837 27.7741 94.8392 24.8382C94.1343 27.4364 92.2389 28.4686 94.4065 31.7211ZM96.2091 36.1704C94.3833 32.7131 96.3716 31.8773 97.3404 29.3656C99.1745 32.5063 98.0643 34.9631 96.2091 36.1704ZM97.5514 40.778C99.5186 39.7649 100.874 37.4326 99.3687 34.123C98.1509 36.525 96.0866 37.154 97.5514 40.778ZM98.4168 45.4995C97.3277 41.7468 99.4468 41.3289 100.901 39.0641C102.062 42.5087 100.479 44.6933 98.4168 45.4995ZM98.7988 50.2844C100.931 49.6913 102.729 47.6799 101.925 44.1361C100.245 46.2404 98.0981 46.4409 98.7988 50.2844ZM98.6912 55.082C98.3852 51.1857 100.542 51.2047 102.427 49.2819C102.868 52.8911 100.872 54.7084 98.6912 55.082ZM98.0981 59.8458C100.306 59.6959 102.476 58.0897 102.402 54.4551C100.333 56.1774 98.1889 55.9389 98.0981 59.8458ZM97.0238 64.523C97.5113 60.6457 99.6199 61.1016 101.853 59.5967C101.555 63.2207 99.2336 64.599 97.0238 64.523ZM95.4767 69.0673C97.6696 69.367 100.118 68.2315 100.783 64.6581C98.4084 65.9266 96.3568 65.2575 95.4767 69.0673ZM93.4757 73.43C95.6265 73.9514 98.1762 73.0712 99.202 69.5844C96.7114 70.6039 94.7358 69.7321 93.4757 73.43ZM91.0421 77.5691C93.1275 78.3057 95.7553 77.6894 97.1314 74.3228C94.5501 75.0848 92.6737 74.0168 91.0421 77.5691ZM88.2012 81.4379C90.1852 78.0714 91.9413 79.3251 94.5881 78.8291C92.8784 82.0373 90.2021 82.3814 88.2012 81.4379ZM84.9803 84.9986C86.8757 86.1405 89.5731 86.0708 91.5993 83.0505C88.9167 83.2763 87.2957 81.8516 84.9803 84.9986ZM81.4133 88.2153C84.0389 85.3173 85.5058 86.9003 88.1991 86.9468C85.8731 89.7455 83.182 89.5429 81.4133 88.2153ZM77.5381 91.052C79.1654 92.5527 81.8206 93.0276 84.4167 90.4821C81.7446 90.1613 80.4445 88.4369 77.5381 91.052ZM73.3948 93.4814C76.5524 91.1744 77.6689 93.0192 80.2967 93.6123C77.4536 95.8812 74.8596 95.1404 73.3948 93.4814ZM69.0278 95.476C72.4028 93.5025 73.3252 95.4507 75.877 96.3076C72.8207 98.2768 70.3132 97.2743 69.0278 95.476Z" fill="#243959"/>
</g>
<path d="M80.8699 63.2112H43.3884C35.4397 63.2112 27.9608 60.1241 22.3279 54.5163L14.994 47.217C14.4856 46.7105 14.3329 45.9547 14.6074 45.2916C14.8819 44.6286 15.5217 44.1995 16.2389 44.1995H91.9384C93.0731 44.1995 94.1112 44.7717 94.7162 45.7305C95.3212 46.6893 95.3908 47.8742 94.9037 48.8968L91.1826 56.7006C89.2979 60.6557 85.2482 63.2093 80.8679 63.2093L80.8699 63.2112ZM16.6448 46.1325L23.6927 53.1477C28.9621 58.3921 35.9558 61.2801 43.3903 61.2801H80.8699C84.5098 61.2801 87.8733 59.1576 89.439 55.8713L93.1601 48.0675C93.3631 47.6403 93.336 47.1648 93.0828 46.7646C92.8296 46.3645 92.414 46.1345 91.9404 46.1345H16.6448V46.1325Z" fill="#002D59"/>
<path d="M72.8815 46.1326H38.5586L43.6135 31.5824C43.9769 30.5385 45.0922 29.9412 46.1593 30.2196L71.0394 36.1309C71.9537 36.3745 72.5877 37.1748 72.6187 38.12L72.8796 46.1345L72.8815 46.1326ZM41.2764 44.1995H70.8847L70.6895 38.1819C70.6875 38.0968 70.6315 38.0253 70.5503 38.0002L45.676 32.0908C45.5774 32.0656 45.4731 32.1198 45.4383 32.2164L41.2764 44.1995Z" fill="#002D59"/>
<path d="M47.3219 53.9054C43.3321 53.9054 39.4487 53.1129 35.7778 51.5471L18.5352 44.1995H92.033C93.1503 44.1995 94.1728 44.7639 94.7682 45.7092C95.3636 46.6545 95.4312 47.822 94.948 48.8292L92.5278 53.8784L47.3393 53.9054H47.3219ZM28.0012 46.1325L36.5336 49.7686C39.9628 51.23 43.5931 51.9704 47.32 51.9704H47.3374L91.31 51.9453L93.2044 47.9941C93.4016 47.5823 93.3745 47.1261 93.1329 46.7395C92.8893 46.3529 92.4892 46.1325 92.033 46.1325H28.0012Z" fill="#002D59"/>
<path d="M88.5687 46.1327H76.7578V39.2974C76.7578 37.8476 77.9389 36.6665 79.3887 36.6665H85.9378C87.3876 36.6665 88.5687 37.8476 88.5687 39.2974V46.1327ZM78.6908 44.1997H86.6356V39.2974C86.6356 38.9127 86.3225 38.5996 85.9378 38.5996H79.3887C79.004 38.5996 78.6908 38.9127 78.6908 39.2974V44.1997Z" fill="#002D59"/>
<path d="M28.0814 45.574L26.3281 44.7602L27.2173 42.8446C27.9074 41.358 29.4113 40.4108 31.0505 40.434L61.9462 40.8438C64.2117 40.8748 66.0558 42.7421 66.0558 45.0077V45.1681H64.1228V45.0077C64.1228 43.7937 63.135 42.7924 61.9211 42.7769L31.0254 42.3671C31.0157 42.3671 31.0061 42.3671 30.9964 42.3671C30.1304 42.3671 29.3379 42.8716 28.9725 43.6603L28.0833 45.576L28.0814 45.574Z" fill="#002D59"/>
<path d="M75.5421 66.5979H11.1875V56.0801H13.1205V64.6648H75.5421V66.5979Z" fill="#002D59"/>
<path d="M76.6674 73.9557C81.2644 73.9557 84.991 70.229 84.991 65.6319C84.991 61.0348 81.2644 57.3081 76.6674 57.3081C72.0704 57.3081 68.3438 61.0348 68.3438 65.6319C68.3438 70.229 72.0704 73.9557 76.6674 73.9557Z" fill="white"/>
<path d="M76.6652 74.922C71.5426 74.922 67.375 70.7543 67.375 65.6316C67.375 60.509 71.5426 56.3413 76.6652 56.3413C81.7877 56.3413 85.9553 60.509 85.9553 65.6316C85.9553 70.7543 81.7877 74.922 76.6652 74.922ZM76.6652 58.2744C72.6077 58.2744 69.308 61.5741 69.308 65.6316C69.308 69.6892 72.6077 72.9889 76.6652 72.9889C80.7226 72.9889 84.0223 69.6892 84.0223 65.6316C84.0223 61.5741 80.7226 58.2744 76.6652 58.2744Z" fill="#002D59"/>
<path d="M76.6643 70.491C79.3482 70.491 81.524 68.3152 81.524 65.6312C81.524 62.9473 79.3482 60.7715 76.6643 60.7715C73.9804 60.7715 71.8047 62.9473 71.8047 65.6312C71.8047 68.3152 73.9804 70.491 76.6643 70.491Z" fill="white"/>
<path d="M76.666 71.4577C73.4533 71.4577 70.8398 68.8442 70.8398 65.6314C70.8398 62.4187 73.4533 59.8052 76.666 59.8052C79.8787 59.8052 82.4922 62.4187 82.4922 65.6314C82.4922 68.8442 79.8787 71.4577 76.666 71.4577ZM76.666 61.7382C74.5203 61.7382 72.7729 63.4838 72.7729 65.6314C72.7729 67.7791 74.5184 69.5247 76.666 69.5247C78.8136 69.5247 80.5591 67.7791 80.5591 65.6314C80.5591 63.4838 78.8136 61.7382 76.666 61.7382Z" fill="#002D59"/>
<path d="M25.232 67.926C26.4992 67.926 27.5265 66.8987 27.5265 65.6315C27.5265 64.3642 26.4992 63.3369 25.232 63.3369C23.9648 63.3369 22.9375 64.3642 22.9375 65.6315C22.9375 66.8987 23.9648 67.926 25.232 67.926Z" fill="white"/>
<path d="M25.2298 68.8925C23.4321 68.8925 21.9688 67.4292 21.9688 65.6315C21.9688 63.8337 23.4321 62.3704 25.2298 62.3704C27.0275 62.3704 28.4908 63.8337 28.4908 65.6315C28.4908 67.4292 27.0275 68.8925 25.2298 68.8925ZM25.2298 64.3034C24.4972 64.3034 23.9018 64.8988 23.9018 65.6315C23.9018 66.3641 24.4972 66.9595 25.2298 66.9595C25.9624 66.9595 26.5578 66.3641 26.5578 65.6315C26.5578 64.8988 25.9624 64.3034 25.2298 64.3034Z" fill="#002D59"/>
<path d="M13.7226 54.7114H10.5873C9.93069 54.7114 9.39844 55.2437 9.39844 55.9003V56.2617C9.39844 56.9183 9.93069 57.4506 10.5873 57.4506H13.7226C14.3792 57.4506 14.9114 56.9183 14.9114 56.2617V55.9003C14.9114 55.2437 14.3792 54.7114 13.7226 54.7114Z" fill="white"/>
<path d="M13.7243 58.4174H10.5889C9.40011 58.4174 8.43359 57.4508 8.43359 56.262V55.9005C8.43359 54.7117 9.40011 53.7451 10.5889 53.7451H13.7243C14.9131 53.7451 15.8796 54.7117 15.8796 55.9005V56.262C15.8796 57.4508 14.9131 58.4174 13.7243 58.4174ZM10.5889 55.6782C10.4691 55.6782 10.3666 55.7806 10.3666 55.9005V56.262C10.3666 56.3818 10.4691 56.4843 10.5889 56.4843H13.7243C13.8442 56.4843 13.9466 56.3818 13.9466 56.262V55.9005C13.9466 55.7806 13.8442 55.6782 13.7243 55.6782H10.5889Z" fill="#002D59"/>
<path d="M95.7084 74.3555H9.39844V76.2885H95.7084V74.3555Z" fill="#002D59"/>
<defs>
<clipPath id="clip0_909_5679">
<rect width="101.711" height="101.711" fill="white" transform="translate(0.78125 0.780762)"/>
</clipPath>
</defs>
</svg>
