<svg width="102" height="103" viewBox="0 0 102 103" fill="none" xmlns="http://www.w3.org/2000/svg">
<mask id="mask0_909_5727" style="mask-type:alpha" maskUnits="userSpaceOnUse" x="1" y="1" width="101" height="101">
<circle cx="51.1398" cy="51.8502" r="50.0694" fill="#D9D9D9"/>
</mask>
<g mask="url(#mask0_909_5727)">
<path fill-rule="evenodd" clip-rule="evenodd" d="M100.881 51.849C100.881 77.5883 81.2625 98.746 56.1633 101.181C54.5691 101.335 52.9515 101.415 51.3163 101.415C49.6811 101.415 48.0616 101.335 46.4654 101.179C21.3681 98.744 1.75 77.5863 1.75 51.849C1.75 46.9611 2.45831 42.239 3.77738 37.7784C4.21056 36.311 4.71008 34.871 5.27205 33.4641C12.5757 15.1943 30.4377 2.28467 51.3163 2.28467C72.195 2.28467 90.256 15.3387 97.4796 33.7705C98.0591 35.2495 98.5703 36.7657 99.0074 38.3091C100.229 42.6136 100.881 47.1543 100.881 51.849Z" fill="white"/>
<path d="M51.3115 102.391C49.6626 102.391 48.0001 102.309 46.365 102.151C33.9315 100.945 22.4267 95.1771 13.9699 85.9105C5.45845 76.5834 0.769531 64.4875 0.769531 51.8491C0.769531 46.9689 1.46419 42.1415 2.83788 37.5013C3.27497 36.0184 3.78815 34.5374 4.36183 33.1012C8.06925 23.8249 14.3914 15.9124 22.6453 10.2186C31.0963 4.3921 41.0087 1.30908 51.3115 1.30908C61.6142 1.30908 71.634 4.42332 80.1142 10.3142C88.3994 16.0705 94.7176 24.059 98.384 33.4134C98.9753 34.9237 99.5002 36.4808 99.9431 38.0418C101.211 42.5083 101.853 47.1524 101.853 51.8471C101.853 64.4855 97.1645 76.5815 88.6511 85.9105C80.1942 95.1771 68.6876 100.945 56.254 102.151C54.615 102.309 52.9525 102.389 51.3134 102.389L51.3115 102.391ZM51.3115 3.26036C41.4048 3.26036 31.8748 6.22239 23.7536 11.8265C15.8178 17.3017 9.73954 24.9078 6.17456 33.8271C5.6243 35.2066 5.13063 36.6291 4.70916 38.0555C3.39009 42.5161 2.72081 47.1563 2.72081 51.8491C2.72081 63.9977 7.22825 75.6273 15.4119 84.5954C23.5429 93.5049 34.6027 99.0485 46.5543 100.209C49.69 100.516 52.9057 100.518 56.0648 100.209C68.0163 99.0504 79.0781 93.5049 87.2091 84.5954C95.3927 75.6273 99.9002 63.9977 99.9002 51.8471C99.9002 47.3338 99.2816 42.8673 98.064 38.5745C97.6386 37.074 97.1352 35.5774 96.5654 34.1256C93.0395 25.1303 86.9652 17.45 79.0001 11.9162C70.8496 6.25361 61.2747 3.26036 51.3115 3.26036Z" fill="white"/>
<path d="M84.1583 31.431L12.5875 49.012C10.9757 49.4081 10.3279 51.3497 11.3797 52.6336L16.7105 59.147C19.1965 62.1851 23.2083 63.5237 27.0211 62.5871L62.4582 53.8824C69.6799 52.1087 75.9044 47.5466 79.7719 41.1952L85.011 32.5901C85.372 31.9969 84.8354 31.2632 84.1603 31.4291L84.1583 31.431Z" fill="white"/>
<path d="M24.6171 63.8534C21.3117 63.8534 18.094 62.3802 15.9535 59.7635L10.6226 53.2502C9.91624 52.3858 9.7055 51.2384 10.0587 50.1789C10.4119 49.1193 11.2704 48.3291 12.3534 48.0637L83.9242 30.4827C84.6169 30.3129 85.3369 30.5744 85.7565 31.15C86.1779 31.7257 86.2111 32.4906 85.8404 33.0994L80.6012 41.7045C76.5718 48.3213 70.2107 52.9829 62.6865 54.8307L27.2494 63.5353C26.3772 63.75 25.4933 63.8534 24.6132 63.8534H24.6171ZM83.9262 32.4925L12.8197 49.9603C12.3846 50.0676 12.0529 50.374 11.9104 50.7994C11.768 51.2248 11.85 51.6696 12.1348 52.017L17.4657 58.5303C19.7019 61.2621 23.3605 62.4836 26.7889 61.6407L62.226 52.936C69.2448 51.2111 75.1806 46.8617 78.9387 40.6898L83.9281 32.4945L83.9262 32.4925Z" fill="#002D59"/>
<path d="M35.7187 44.3367L34.0972 36.6643C33.904 35.7491 34.3255 34.8301 35.147 34.3793L35.1704 34.3676L57.2979 23.0131C58.2598 22.4941 59.4735 22.8043 60.0687 23.7214L68.2523 36.3462L35.7187 44.3386V44.3367ZM36.0777 36.0925C36.0211 36.1277 35.9919 36.194 36.0055 36.2584L37.2114 41.96L65.1225 35.1032L58.4296 24.781C58.3847 24.7127 58.293 24.6893 58.2228 24.7283L58.1993 24.74L36.0797 36.0906L36.0777 36.0925Z" fill="#002D59"/>
<path d="M14.0405 57.4239L10.5653 53.1955C9.8667 52.3447 9.65791 51.2149 10.0033 50.171C10.3506 49.1271 11.1955 48.3485 12.2629 48.0851L81.9176 30.9744L67.1854 42.0283C64.0692 44.366 60.5726 46.0207 56.789 46.9475L14.0366 57.422L14.0405 57.4239ZM73.1056 35.1501L12.7312 49.9817C12.3116 50.0852 11.9936 50.3798 11.857 50.7876C11.7204 51.1974 11.8004 51.6228 12.0736 51.9564L14.7683 55.2365L56.3266 45.0528C59.8525 44.1884 63.1131 42.6469 66.0166 40.4673L73.1036 35.1501H73.1056Z" fill="#002D59"/>
<path d="M21.4954 47.8296L19.9129 41.3904C19.5637 39.9679 20.4359 38.5279 21.8584 38.1786L27.9346 36.6859C29.3571 36.3366 30.7971 37.2088 31.1464 38.6313L32.7289 45.0705L21.4954 47.8296ZM28.5688 38.5611C28.5142 38.5611 28.4576 38.5669 28.401 38.5806L22.3247 40.0733C21.9481 40.167 21.7159 40.5475 21.8096 40.926L22.9257 45.4686L30.3698 43.6402L29.2537 39.0957C29.1756 38.7757 28.8868 38.5591 28.5688 38.5591V38.5611Z" fill="#002D59"/>
<path d="M-5.57422 74.9674V74.0561C-4.51589 74.0561 -3.45756 73.7668 -2.47878 73.1858C-1.88332 72.8339 -1.28545 72.4795 -0.687573 72.1275C1.27239 70.9679 3.54334 70.9679 5.5033 72.1275C6.10118 72.4795 6.69664 72.8339 7.29451 73.1858C9.25447 74.3454 11.5254 74.3454 13.4854 73.1858C14.0833 72.8339 14.6811 72.4795 15.2766 72.1275C17.2366 70.9679 19.5075 70.9679 21.4675 72.1275C22.0653 72.4795 22.6632 72.8339 23.2587 73.1858C25.2186 74.3454 27.4896 74.3454 29.4496 73.1858C30.0474 72.8339 30.6453 72.4795 31.2408 72.1275C33.2007 70.9679 35.4717 70.9679 37.4316 72.1275C38.0295 72.4795 38.625 72.8339 39.2228 73.1858C41.1828 74.3454 43.4538 74.3454 45.4161 73.1858C46.014 72.8339 46.6095 72.4795 47.2073 72.1275C49.1673 70.9679 51.4383 70.9679 53.3982 72.1275C53.9961 72.4795 54.5916 72.8339 55.1894 73.1858C57.1494 74.3454 59.4203 74.3454 61.3827 73.1858C61.9806 72.8339 62.5761 72.4795 63.1739 72.1275C65.1339 70.9679 67.4048 70.9679 69.3672 72.1275C69.9651 72.4795 70.5605 72.8339 71.1584 73.1858C73.1184 74.3454 75.3893 74.3454 77.3493 73.1858C77.9472 72.8339 78.5426 72.4795 79.1405 72.1275C81.1005 70.9679 83.3714 70.9679 85.3314 72.1275C85.9293 72.4795 86.5247 72.8339 87.1226 73.1858C89.0825 74.3454 91.3535 74.3454 93.3135 73.1858C93.9113 72.8339 94.5068 72.4795 95.1047 72.1275C97.0646 70.9679 99.3356 70.9679 101.296 72.1275C101.893 72.4795 102.489 72.8339 103.087 73.1858C104.068 73.7668 105.124 74.0561 106.182 74.0561V74.9674C105.124 74.9674 104.066 74.6781 103.087 74.0971C102.489 73.7451 101.893 73.3907 101.296 73.0388C99.3356 71.8792 97.0646 71.8792 95.1047 73.0388C94.5068 73.3907 93.9089 73.7451 93.3135 74.0971C91.3535 75.2567 89.0825 75.2567 87.1226 74.0971C86.5247 73.7451 85.9293 73.3907 85.3314 73.0388C83.3714 71.8792 81.1005 71.8792 79.1405 73.0388C78.5426 73.3907 77.9448 73.7451 77.3493 74.0971C75.3869 75.2567 73.1184 75.2567 71.1584 74.0971C70.5605 73.7451 69.9651 73.3907 69.3672 73.0388C67.4048 71.8792 65.1363 71.8792 63.1739 73.0388C62.5761 73.3907 61.9806 73.7451 61.3827 74.0971C59.4228 75.2567 57.1518 75.2567 55.1894 74.0971C54.5916 73.7451 53.9961 73.3907 53.3982 73.0388C51.4383 71.8792 49.1673 71.8792 47.2073 73.0388C46.6095 73.3907 46.014 73.7451 45.4161 74.0971C43.4562 75.2567 41.1852 75.2567 39.2228 74.0971C38.6274 73.7451 38.0295 73.3907 37.4316 73.0388C35.4717 71.8792 33.2007 71.8792 31.2408 73.0388C30.6429 73.3907 30.0474 73.7451 29.4496 74.0971C27.4896 75.2567 25.2186 75.2567 23.2587 74.0971C22.6608 73.7451 22.0629 73.3907 21.4675 73.0388C19.5075 71.8792 17.2366 71.8792 15.2766 73.0388C14.6787 73.3907 14.0833 73.7451 13.4854 74.0971C11.5254 75.2567 9.25447 75.2567 7.29451 74.0971C6.69664 73.7451 6.10118 73.3907 5.5033 73.0388C3.54334 71.8792 1.27239 71.8792 -0.687573 73.0388C-1.28545 73.3907 -1.88091 73.7451 -2.47878 74.0971C-3.45997 74.6781 -4.5183 74.9674 -5.57422 74.9674Z" stroke="#002D59" stroke-width="1.01494" stroke-miterlimit="10"/>
<path d="M-5.57422 84.5177C-4.51589 84.5177 -3.45756 84.2284 -2.47878 83.6474C-1.88332 83.2954 -1.28545 82.941 -0.687573 82.5891C1.27239 81.4295 3.54334 81.4295 5.5033 82.5891C6.10118 82.941 6.69664 83.2954 7.29451 83.6474C9.25447 84.807 11.5254 84.807 13.4854 83.6474C14.0833 83.2954 14.6811 82.941 15.2766 82.5891C17.2366 81.4295 19.5075 81.4295 21.4675 82.5891C22.0653 82.941 22.6632 83.2954 23.2587 83.6474C25.2186 84.807 27.4896 84.807 29.4496 83.6474C30.0474 83.2954 30.6453 82.941 31.2408 82.5891C33.2007 81.4295 35.4717 81.4295 37.4316 82.5891C38.0295 82.941 38.625 83.2954 39.2228 83.6474C41.1852 84.807 43.4538 84.807 45.4161 83.6474C46.014 83.2954 46.6095 82.941 47.2073 82.5891C49.1673 81.4295 51.4383 81.4295 53.3982 82.5891C53.9961 82.941 54.5916 83.2954 55.1894 83.6474C57.1494 84.807 59.4203 84.807 61.3827 83.6474C61.9806 83.2954 62.576 82.941 63.1739 82.5891C65.1339 81.4295 67.4048 81.4295 69.3672 82.5891C69.9651 82.941 70.5605 83.2954 71.1584 83.6474C73.1184 84.807 75.3893 84.807 77.3493 83.6474C77.9472 83.2954 78.5426 82.941 79.1405 82.5891C81.1005 81.4295 83.3714 81.4295 85.3314 82.5891C85.9293 82.941 86.5247 83.2954 87.1226 83.6474C89.0825 84.807 91.3535 84.807 93.3135 83.6474C93.9113 83.2954 94.5068 82.941 95.1047 82.5891C97.0646 81.4295 99.3356 81.4295 101.296 82.5891C101.893 82.941 102.489 83.2954 103.087 83.6474C104.068 84.226 105.124 84.5177 106.182 84.5177V83.6064C105.124 83.6064 104.066 83.3171 103.087 82.7361C102.489 82.3842 101.893 82.0298 101.296 81.6778C99.3356 80.5182 97.0646 80.5182 95.1047 81.6778C94.5068 82.0298 93.9089 82.3842 93.3135 82.7361C91.3535 83.8957 89.0825 83.8957 87.1226 82.7361C86.5247 82.3842 85.9293 82.0298 85.3314 81.6778C83.3714 80.5182 81.1005 80.5182 79.1405 81.6778C78.5426 82.0298 77.9448 82.3842 77.3493 82.7361C75.3869 83.8957 73.1184 83.8957 71.1584 82.7361C70.5605 82.3842 69.9651 82.0298 69.3672 81.6778C67.4048 80.5182 65.1363 80.5182 63.1739 81.6778C62.576 82.0298 61.9806 82.3842 61.3827 82.7361C59.4228 83.8957 57.1518 83.8957 55.1894 82.7361C54.5916 82.3842 53.9961 82.0298 53.3982 81.6778C51.4383 80.5182 49.1673 80.5182 47.2073 81.6778C46.6095 82.0298 46.014 82.3842 45.4161 82.7361C43.4562 83.8957 41.1852 83.8957 39.2228 82.7361C38.6274 82.3842 38.0295 82.0298 37.4316 81.6778C35.4717 80.5182 33.2007 80.5182 31.2408 81.6778C30.6429 82.0298 30.0474 82.3842 29.4496 82.7361C27.4896 83.8957 25.2186 83.8957 23.2587 82.7361C22.6608 82.3842 22.0629 82.0298 21.4675 81.6778C19.5075 80.5182 17.2366 80.5182 15.2766 81.6778C14.6787 82.0298 14.0833 82.3842 13.4854 82.7361C11.5254 83.8957 9.25447 83.8957 7.29451 82.7361C6.69664 82.3842 6.10118 82.0298 5.5033 81.6778C3.54334 80.5182 1.27239 80.5182 -0.687573 81.6778C-1.28545 82.0298 -1.88091 82.3842 -2.47878 82.7361C-3.45997 83.3171 -4.5183 83.6064 -5.57422 83.6064V84.5177Z" stroke="#002D59" stroke-width="1.01494" stroke-miterlimit="10"/>
<path d="M-5.57422 94.0675V93.1562C-4.51589 93.1562 -3.45756 92.8669 -2.47878 92.2859C-1.88332 91.934 -1.28545 91.5796 -0.687573 91.2276C1.27239 90.068 3.54334 90.068 5.5033 91.2276C6.10118 91.5796 6.69664 91.934 7.29451 92.2859C9.25447 93.4455 11.5254 93.4455 13.4854 92.2859C14.0833 91.934 14.6811 91.5796 15.2766 91.2276C17.2366 90.068 19.5075 90.068 21.4675 91.2276C22.0653 91.5796 22.6632 91.934 23.2587 92.2859C25.2186 93.4455 27.4896 93.4455 29.4496 92.2859C30.0474 91.934 30.6453 91.5796 31.2408 91.2276C33.2007 90.068 35.4717 90.068 37.4316 91.2276C38.0295 91.5796 38.625 91.934 39.2228 92.2859C41.1828 93.4455 43.4538 93.4455 45.4161 92.2859C46.014 91.934 46.6095 91.5796 47.2073 91.2276C49.1673 90.068 51.4383 90.068 53.3982 91.2276C53.9961 91.5796 54.5916 91.934 55.1894 92.2859C57.1494 93.4455 59.4203 93.4455 61.3827 92.2859C61.9806 91.934 62.576 91.5796 63.1739 91.2276C65.1339 90.068 67.4048 90.068 69.3672 91.2276C69.9651 91.5796 70.5605 91.934 71.1584 92.2859C73.1184 93.4455 75.3893 93.4455 77.3493 92.2859C77.9472 91.934 78.5426 91.5796 79.1405 91.2276C81.1005 90.068 83.3714 90.068 85.3314 91.2276C85.9293 91.5796 86.5247 91.934 87.1226 92.2859C89.0825 93.4455 91.3535 93.4455 93.3135 92.2859C93.9113 91.934 94.5068 91.5796 95.1047 91.2276C97.0646 90.068 99.3356 90.068 101.296 91.2276C101.893 91.5796 102.489 91.934 103.087 92.2859C104.068 92.8669 105.124 93.1562 106.182 93.1562V94.0675C105.124 94.0675 104.066 93.7782 103.087 93.1972C102.489 92.8452 101.893 92.4908 101.296 92.1389C99.3356 90.9793 97.0646 90.9793 95.1047 92.1389C94.5068 92.4933 93.9089 92.8452 93.3135 93.1972C91.3535 94.3568 89.0825 94.3568 87.1226 93.1972C86.5247 92.8452 85.9293 92.4908 85.3314 92.1389C83.3714 90.9793 81.1005 90.9793 79.1405 92.1389C78.5426 92.4933 77.9448 92.8452 77.3493 93.1972C75.3869 94.3568 73.1184 94.3568 71.1584 93.1972C70.5605 92.8452 69.9651 92.4908 69.3672 92.1389C67.4048 90.9793 65.1363 90.9793 63.1739 92.1389C62.576 92.4933 61.9806 92.8452 61.3827 93.1972C59.4228 94.3568 57.1518 94.3568 55.1894 93.1972C54.5916 92.8452 53.9961 92.4908 53.3982 92.1389C51.4383 90.9793 49.1673 90.9793 47.2073 92.1389C46.6095 92.4933 46.014 92.8452 45.4161 93.1972C43.4562 94.3568 41.1852 94.3568 39.2228 93.1972C38.6274 92.8452 38.0295 92.4908 37.4316 92.1389C35.4717 90.9793 33.2007 90.9793 31.2408 92.1389C30.6429 92.4933 30.0474 92.8452 29.4496 93.1972C27.4896 94.3568 25.2186 94.3568 23.2587 93.1972C22.6608 92.8452 22.0629 92.4908 21.4675 92.1389C19.5075 90.9793 17.2366 90.9793 15.2766 92.1389C14.6787 92.4933 14.0833 92.8452 13.4854 93.1972C11.5254 94.3568 9.25447 94.3568 7.29451 93.1972C6.69664 92.8452 6.10118 92.4908 5.5033 92.1389C3.54334 90.9793 1.27239 90.9793 -0.687573 92.1389C-1.28545 92.4933 -1.88091 92.8452 -2.47878 93.1972C-3.45997 93.7758 -4.5183 94.0675 -5.57422 94.0675Z" stroke="#002D59" stroke-width="1.01494" stroke-miterlimit="10"/>
<path d="M100.102 43.548L4.47656 67.8159L4.95655 69.7072L100.582 45.4393L100.102 43.548Z" fill="#002D59"/>
</g>
<g clip-path="url(#clip0_909_5727)">
<path fill-rule="evenodd" clip-rule="evenodd" d="M63.7708 97.0177C64.8684 98.9384 67.2598 100.188 70.5018 98.5395C68.0471 97.4292 67.3294 95.3946 63.7708 97.0177ZM59.4777 98.0181C63.1714 96.7369 63.6991 98.8286 66.0377 100.163C62.6543 101.501 60.3917 100.032 59.4777 98.0181ZM55.2163 98.6049C55.9445 100.694 58.0636 102.362 61.5525 101.336C59.3469 99.7953 59.0113 97.6635 55.2163 98.6049ZM50.8873 98.8012C54.7541 98.2123 54.8891 100.365 56.9449 102.1C53.3758 102.801 51.4192 100.948 50.8873 98.8012ZM46.0898 98.5521C46.4 100.741 48.1603 102.786 51.7822 102.453C49.9143 100.515 49.9966 98.36 46.0898 98.5521ZM41.3429 97.8197C45.2497 98.0245 44.9458 100.16 46.609 102.277C42.9723 102.242 41.4294 100.03 41.3429 97.8197ZM36.6952 96.6082C36.5559 98.8159 37.8666 101.174 41.4801 101.579C40.0427 99.3035 40.5598 97.2097 36.6952 96.6082ZM32.1931 94.9323C31.8322 97.1126 32.8939 99.5927 36.4503 100.361C35.2494 97.9506 35.9775 95.9201 32.1931 94.9323ZM27.8874 92.8069C27.3048 94.9387 28.109 97.5137 31.5684 98.6387C30.6207 96.1206 31.5494 94.1746 27.8874 92.8069ZM23.8201 90.2551C27.3238 91.9879 26.2009 93.8306 26.889 96.433C23.5626 94.9619 23.0223 92.3172 23.8201 90.2551ZM20.0314 87.3044C19.0289 89.2736 19.2969 91.9605 22.4566 93.7588C22.0366 91.1014 23.3431 89.3834 20.0314 87.3044ZM16.5636 83.9822C19.6452 86.3883 18.1719 87.965 18.3197 90.6519C15.3605 88.5391 15.3669 85.8417 16.5636 83.9822ZM13.4525 80.3265C12.0721 82.0551 11.7914 84.7378 14.5205 87.1418C14.6471 84.4529 16.2723 83.0345 13.4525 80.3265ZM10.7276 76.3732C13.2583 79.3535 11.498 80.6009 11.097 83.2603C8.62538 80.5924 9.17837 77.952 10.7276 76.3732ZM8.41853 72.1645C6.71733 73.5787 5.89839 76.1474 8.08716 79.0516C8.75624 76.445 10.6347 75.3833 8.41853 72.1645ZM6.55059 67.7427C8.42697 71.1704 6.45139 72.0358 5.51847 74.5622C3.63786 71.449 4.71219 68.9753 6.55059 67.7427ZM5.14066 63.1541C3.1904 64.1946 1.86912 66.5459 3.42258 69.8344C4.60455 67.4155 6.66034 66.757 5.14066 63.1541ZM4.20774 58.4452C5.35173 62.1832 3.24106 62.6306 1.81847 64.9165C0.606942 61.4888 2.16039 59.2831 4.20774 58.4452ZM3.75606 53.6666C1.63484 54.2914 -0.136014 56.3282 0.720918 59.8614C2.36935 57.7318 4.51168 57.5017 3.75606 53.6666ZM3.79405 48.867C4.15498 52.759 1.99787 52.7696 0.142594 54.7198C-0.349192 51.1169 1.61795 49.2722 3.79405 48.867ZM4.3175 44.0947C2.11396 44.2784 -0.0325912 45.9141 0.0919383 49.5487C2.13507 47.7968 4.28373 48.0058 4.3175 44.0947ZM5.3264 39.4027C4.89582 43.2863 2.77882 42.8621 0.56895 44.3987C0.813787 40.7725 3.11442 39.3605 5.3264 39.4027ZM6.80598 34.8373C4.60877 34.5693 2.17728 35.7386 1.56308 39.3246C3.91858 38.0202 5.98071 38.6576 6.80598 34.8373ZM8.74146 30.445C6.58436 29.9575 4.04733 30.8735 3.0722 34.3751C5.54802 33.3176 7.53416 34.1619 8.74146 30.445ZM11.116 26.2722C9.01796 25.5673 6.40073 26.2195 5.07523 29.605C7.64603 28.805 9.53719 29.8456 11.116 26.2722ZM13.8999 22.3612C11.9645 25.7572 10.1915 24.5288 7.55105 25.0628C9.21425 21.8293 11.8842 21.4451 13.8999 22.3612ZM17.0681 18.754C15.1579 17.6375 12.4605 17.7515 10.4785 20.7972C13.1591 20.5333 14.7991 21.9348 17.0681 18.754ZM20.5865 15.4867C18.0031 18.4205 16.5151 16.8608 13.824 16.8502C16.1056 14.0198 18.8009 14.1844 20.5865 15.4867ZM24.4195 12.593C22.7732 11.1155 20.1116 10.6786 17.5514 13.2642C20.2277 13.5449 21.5532 15.2503 24.4195 12.593ZM28.5269 10.1045C25.4031 12.4558 24.2591 10.6258 21.625 10.0728C24.4322 7.76166 27.0389 8.46663 28.5269 10.1045ZM32.8643 8.0466C31.5494 6.26731 29.0313 5.30062 26.0025 7.3142C28.567 8.13314 29.5189 10.0686 32.8643 8.0466ZM37.3917 6.44038C33.8584 8.11203 33.1091 6.09001 30.6397 5.01568C33.8563 3.3187 36.2667 4.53656 37.3917 6.44038ZM42.0563 5.30273C41.1318 3.29548 38.8565 1.83912 35.4837 3.19839C37.8307 4.51756 38.3689 6.60713 42.0563 5.30273ZM46.8137 4.6442C43.0145 5.56868 42.6895 3.43479 40.4902 1.88345C43.9833 0.872435 46.0982 2.55042 46.8137 4.6442ZM51.6134 4.47113C51.1132 2.31824 49.1819 0.433416 45.6022 1.0835C47.6348 2.85013 47.7403 5.00513 51.6134 4.47113ZM56.4067 4.78773C52.4978 4.92492 52.6117 2.77204 50.7712 0.807005C54.3974 0.524175 56.126 2.59474 56.4067 4.78773ZM61.1431 5.58978C61.0882 3.3778 59.5791 1.1426 55.9424 1.05606C57.5739 3.19628 57.2404 5.32806 61.1431 5.58978ZM65.7718 6.86885C61.9177 6.21243 62.4643 4.12498 61.0607 1.83068C64.67 2.28658 65.9448 4.6632 65.7718 6.86885ZM70.2485 8.61015C70.6432 6.43405 69.6153 3.93924 66.0715 3.11819C67.2366 5.54546 66.4788 7.56537 70.2485 8.61015ZM74.5247 10.7968C75.1389 8.67136 74.3706 6.08579 70.9281 4.91015C71.8399 7.44084 70.8817 9.37421 74.5247 10.7968ZM78.5561 13.4056C75.0756 11.6221 76.2259 9.79635 75.5779 7.18545C78.8811 8.70513 79.3835 11.3561 78.5561 13.4056ZM82.3004 16.4133C83.3325 14.4567 83.1025 11.7698 79.9702 9.92088C80.3502 12.5845 79.0204 14.2836 82.3004 16.4133ZM85.7197 19.784C82.674 17.3335 84.1684 15.778 84.0607 13.089C86.9903 15.2461 86.9439 17.9414 85.7197 19.784ZM88.7781 23.484C90.1838 21.7765 90.5046 19.0981 87.8093 16.656C87.6425 19.3408 85.9962 20.7381 88.7781 23.484ZM91.4438 27.4774C88.9575 24.4613 90.7346 23.2413 91.1737 20.5861C93.6052 23.2899 93.0142 25.9219 91.4438 27.4774ZM93.6917 31.7199C95.4119 30.3311 96.2688 27.7729 94.1244 24.837C93.4194 27.4352 91.524 28.4673 93.6917 31.7199ZM95.4942 36.1692C93.6685 32.7119 95.6567 31.8761 96.6255 29.3644C98.4597 32.505 97.3495 34.9619 95.4942 36.1692ZM96.8366 40.7768C98.8037 39.7636 100.159 37.4313 98.6539 34.1218C97.436 36.5238 95.3718 37.1527 96.8366 40.7768ZM97.702 45.4983C96.6129 41.7456 98.732 41.3276 100.186 39.0629C101.347 42.5075 99.7641 44.6921 97.702 45.4983ZM98.084 50.2832C100.216 49.6901 102.014 47.6786 101.21 44.1348C99.5298 46.2392 97.3833 46.4397 98.084 50.2832ZM97.9764 55.0808C97.6703 51.1845 99.8274 51.2035 101.712 49.2806C102.153 52.8899 100.157 54.7072 97.9764 55.0808ZM97.3833 59.8445C99.591 59.6947 101.761 58.0885 101.687 54.4539C99.6185 56.1762 97.474 55.9377 97.3833 59.8445ZM96.3089 64.5218C96.7965 60.6445 98.9051 61.1004 101.138 59.5955C100.841 63.2195 98.5188 64.5978 96.3089 64.5218ZM94.7618 69.0661C96.9548 69.3658 99.4032 68.2302 100.068 64.6569C97.6935 65.9254 95.642 65.2563 94.7618 69.0661ZM92.7609 73.4288C94.9117 73.9502 97.4614 73.07 98.4871 69.5832C95.9966 70.6026 94.021 69.7309 92.7609 73.4288ZM90.3273 77.5678C92.4126 78.3045 95.0404 77.6881 96.4166 74.3216C93.8352 75.0836 91.9588 74.0156 90.3273 77.5678ZM87.4863 81.4367C89.4704 78.0702 91.2264 79.3239 93.8732 78.8279C92.1636 82.0361 89.4872 82.3802 87.4863 81.4367ZM84.2654 84.9974C86.1608 86.1393 88.8583 86.0696 90.8845 83.0492C88.2018 83.2751 86.5808 81.8504 84.2654 84.9974ZM80.6984 88.2141C83.3241 85.3161 84.791 86.8991 87.4842 86.9455C85.1583 89.7443 82.4672 89.5417 80.6984 88.2141ZM76.8232 91.0508C78.4505 92.5515 81.1058 93.0264 83.7019 90.4809C81.0298 90.1601 79.7296 88.4357 76.8232 91.0508ZM72.68 93.4802C75.8375 91.1732 76.9541 93.0179 79.5819 93.611C76.7388 95.88 74.1448 95.1392 72.68 93.4802ZM68.313 95.4748C71.688 93.5013 72.6103 95.4494 75.1621 96.3064C72.1059 98.2756 69.5984 97.273 68.313 95.4748Z" fill="#243959"/>
</g>
<defs>
<clipPath id="clip0_909_5727">
<rect width="101.711" height="101.711" fill="white" transform="translate(0.0703125 0.779297)"/>
</clipPath>
</defs>
</svg>
