<svg width="18" height="18" viewBox="0 0 18 18" fill="none" xmlns="http://www.w3.org/2000/svg">
<path d="M17.9815 10.6827L17.2913 9.50338L17.1998 9.34699L16.5029 8.15574L16.4181 8.01075C16.3656 7.92091 16.2341 7.92091 16.1816 8.01075L15.3999 9.34699L14.6187 10.6827C14.5662 10.7726 14.6317 10.8852 14.7367 10.8852H15.58C14.387 12.9564 12.2191 14.4091 9.69189 14.6354V7.93993H12.8664C13.0576 7.93993 13.2305 7.86339 13.3558 7.7398C13.481 7.61621 13.5585 7.44555 13.5585 7.25683C13.5585 6.8794 13.2489 6.57374 12.8664 6.57374H9.69189V5.15004C9.74824 5.13341 9.80411 5.11487 9.8595 5.09395C11.1103 4.62525 11.7389 3.24481 11.2645 2.01077C10.7896 0.776268 9.39086 0.155925 8.14002 0.624153C6.88967 1.09286 6.26064 2.4733 6.73554 3.70781C7.01393 4.4313 7.61021 4.94421 8.30764 5.14957V6.57374H5.13407C4.75164 6.57374 4.44194 6.8794 4.44194 7.25683C4.44194 7.63427 4.75164 7.93993 5.13407 7.93993H8.30764V14.6354C5.78092 14.4091 3.61303 12.9564 2.41999 10.8852H3.26335C3.36835 10.8852 3.43385 10.7726 3.38135 10.6827L2.59964 9.34699L1.81793 8.01075C1.76543 7.92091 1.63442 7.92091 1.58144 8.01075L1.49715 8.15479L0.800208 9.34699L0.708213 9.50433L0.018495 10.6827C-0.0340045 10.7726 0.0314995 10.8852 0.136498 10.8852H1.23754C2.53317 13.5401 5.18608 15.4283 8.30764 15.6731V16.7849C8.30764 17.1624 8.75509 17.468 8.99976 17.468C9.24444 17.468 9.69189 17.1624 9.69189 16.7849V15.6731C12.8139 15.4283 15.4664 13.5401 16.762 10.8852H17.863C17.9685 10.8852 18.034 10.7726 17.9815 10.6827ZM9.44721 4.02107C9.05419 4.16843 8.63371 4.10901 8.30764 3.89747C8.0933 3.75914 7.92039 3.55474 7.82262 3.30042C7.60877 2.7452 7.82454 2.13342 8.30764 1.82111C8.38326 1.77167 8.46514 1.72984 8.5528 1.69704C8.94534 1.54968 9.36582 1.6091 9.69189 1.82063C9.90622 1.95896 10.0796 2.16336 10.1774 2.41768C10.3912 2.97338 10.175 3.58564 9.69189 3.89795C9.61675 3.94691 9.53487 3.98827 9.44721 4.02107Z" fill="#002D59"/>
</svg>
