<svg width="71" height="72" viewBox="0 0 71 72" fill="none" xmlns="http://www.w3.org/2000/svg">
<g filter="url(#filter0_d_558_317)">
<path fill-rule="evenodd" clip-rule="evenodd" d="M65.1095 31.4995C65.1095 46.8762 53.3896 59.5158 38.3952 60.9706C37.4429 61.0627 36.4765 61.1105 35.4997 61.1105C34.5228 61.1105 33.5553 61.0627 32.6017 60.9694C17.6086 59.5146 5.88867 46.875 5.88867 31.4995C5.88867 28.5794 6.31182 25.7584 7.09983 23.0936C7.35861 22.217 7.65703 21.3568 7.99275 20.5163C12.3559 9.60189 23.0267 1.88965 35.4997 1.88965C47.9726 1.88965 58.7623 9.68815 63.0777 20.6993C63.4239 21.5829 63.7293 22.4886 63.9904 23.4107C64.7201 25.9822 65.1095 28.6948 65.1095 31.4995Z" fill="white"/>
<path d="M35.5005 61.6933C34.5155 61.6933 33.5211 61.6443 32.5454 61.5499C25.1176 60.8295 18.2447 57.3837 13.1926 51.8478C8.10781 46.2758 5.30664 39.0496 5.30664 31.4994C5.30664 28.584 5.72163 25.7001 6.54111 22.9281C6.80223 22.0421 7.10881 21.1574 7.45152 20.2994C9.66634 14.7577 13.4432 10.0308 18.3741 6.62933C23.4239 3.14856 29.3456 1.30676 35.5005 1.30676C41.6553 1.30676 47.6412 3.16721 52.7073 6.68645C57.6568 10.1252 61.4314 14.8976 63.6217 20.4859C63.9749 21.3882 64.2885 22.3196 64.5531 23.251C65.3108 25.9193 65.6943 28.6948 65.6943 31.4983C65.6943 39.0485 62.8932 46.2758 57.8072 51.8478C52.7551 57.3837 45.881 60.8295 38.4532 61.5499C37.4752 61.6443 36.482 61.6921 35.5016 61.6921L35.5005 61.6933ZM35.5005 2.47246C29.5822 2.47246 23.889 4.24198 19.0374 7.58986C14.2965 10.8608 10.6653 15.4058 8.53562 20.7331C8.20689 21.5572 7.91197 22.407 7.66018 23.2591C6.87217 25.9239 6.47234 28.6959 6.47234 31.4994C6.47234 38.7571 9.16509 45.7046 14.054 51.0621C18.9115 56.3847 25.5186 59.6964 32.6585 60.39C34.5318 60.573 36.4529 60.573 38.3401 60.39C45.48 59.6976 52.0883 56.3847 56.9458 51.0621C61.8347 45.7046 64.5275 38.7571 64.5275 31.4983C64.5275 28.802 64.1579 26.1337 63.4305 23.5692C63.1764 22.6728 62.8757 21.7787 62.5364 20.9114C60.43 15.5376 56.8012 10.9506 52.0429 7.64348C47.1726 4.26063 41.4537 2.47246 35.5016 2.47246H35.5005Z" fill="#002D59"/>
<path d="M64.6635 36.6075H6.33789V37.7732H64.6635V36.6075Z" fill="#002D59"/>
<path d="M49.9171 47.3937H21.0824C20.3131 47.3937 19.6836 46.7642 19.6836 45.9948V25.8726L35.4997 15.7614L51.3159 25.8726V45.9948C51.3159 46.7642 50.6864 47.3937 49.9171 47.3937Z" fill="white"/>
<path d="M49.9179 47.9765H21.0832C19.991 47.9765 19.1016 47.0871 19.1016 45.9949V25.5532L35.5006 15.069L51.8996 25.5532V45.9949C51.8996 47.0871 51.0101 47.9765 49.9179 47.9765ZM20.2673 26.192V45.9949C20.2673 46.4448 20.6333 46.8108 21.0832 46.8108H49.9179C50.3678 46.8108 50.7339 46.4448 50.7339 45.9949V26.192L35.5006 16.4526L20.2673 26.192Z" fill="#002D59"/>
<path d="M35.5014 26.1326C34.7857 26.1326 34.1119 25.854 33.606 25.3481C33.1001 24.8421 32.8203 24.1684 32.8203 23.4526C32.8203 22.7369 33.0989 22.0631 33.606 21.5572C34.1119 21.0513 34.7857 20.7727 35.5014 20.7727C36.2171 20.7727 36.8909 21.0513 37.3968 21.5572C37.9027 22.0631 38.1813 22.7369 38.1813 23.4526C38.1813 24.1684 37.9027 24.8421 37.3957 25.3481C36.8898 25.854 36.216 26.1326 35.5002 26.1326H35.5014ZM35.5014 21.9372C35.0969 21.9372 34.7169 22.0946 34.4301 22.3814C34.1445 22.667 33.986 23.0481 33.986 23.4526C33.986 23.8571 34.1434 24.2372 34.4301 24.5239C34.7169 24.8095 35.0969 24.968 35.5014 24.968C35.9059 24.968 36.2859 24.8107 36.5727 24.5239C36.8594 24.2383 37.0168 23.8571 37.0168 23.4526C37.0168 23.0481 36.8594 22.6681 36.5727 22.3814C36.2871 22.0958 35.9059 21.9372 35.5014 21.9372Z" fill="#002D59"/>
<path d="M53.8099 28.1247L36.5657 17.1381C35.9165 16.7242 35.0853 16.7242 34.4349 17.1381L17.1907 28.1247C15.8269 28.9932 14.041 28.014 14.041 26.3972C14.041 25.9192 14.2846 25.4739 14.688 25.2175L34.2577 12.7504C35.0154 12.2678 35.9852 12.2678 36.7429 12.7504L56.3126 25.2175C56.716 25.4739 56.9596 25.9192 56.9596 26.3972C56.9596 28.014 55.1737 28.9943 53.8099 28.1247Z" fill="white"/>
<path d="M54.9088 29.034C54.4203 29.034 53.9331 28.8941 53.4971 28.6166L36.253 17.63C35.796 17.3385 35.2062 17.3385 34.7492 17.63L17.5051 28.6166C16.6821 29.1412 15.6808 29.1738 14.8252 28.7041C13.9696 28.2343 13.459 27.3717 13.459 26.3972C13.459 25.7164 13.8017 25.0916 14.3764 24.7256L33.9461 12.2584C34.8915 11.6558 36.1131 11.6569 37.0585 12.2584L56.6282 24.7256C57.2017 25.0916 57.5456 25.7164 57.5456 26.3972C57.5456 27.3728 57.035 28.2355 56.1794 28.7041C55.7772 28.9244 55.3436 29.034 54.9111 29.034H54.9088ZM54.1231 27.6328C54.5812 27.9242 55.1396 27.9429 55.6164 27.6818C56.0931 27.4206 56.3775 26.9404 56.3775 26.396C56.3775 26.1162 56.2365 25.8586 55.9999 25.7082L36.4302 13.2411C35.8648 12.8809 35.1351 12.8809 34.5709 13.2411L15.0024 25.7082C14.7657 25.8586 14.6247 26.1162 14.6247 26.396C14.6247 26.9392 14.9091 27.4195 15.3859 27.6818C15.8626 27.9429 16.421 27.9254 16.8791 27.6328L34.1233 16.6461C34.9602 16.1122 36.0432 16.1122 36.8801 16.6461L54.1243 27.6328H54.1231Z" fill="#002D59"/>
<path d="M41.1412 30.8524H35.3477V42.4394H41.1412V30.8524Z" fill="white"/>
<path d="M41.7248 43.0224H34.7656V30.2697H41.7248V43.0224ZM35.9313 41.8567H40.5591V31.4353H35.9313V41.8567Z" fill="#002D59"/>
<path d="M46.9341 30.8524H41.1406V42.4394H46.9341V30.8524Z" fill="white"/>
<path d="M47.5178 43.0224H40.5586V30.2697H47.5178V43.0224ZM41.7243 41.8567H46.3521V31.4353H41.7243V41.8567Z" fill="#002D59"/>
<path d="M46.9347 36.0631H35.3477V37.2288H46.9347V36.0631Z" fill="#002D59"/>
<path d="M31.3998 30.8524H24.1504V47.3925H31.3998V30.8524Z" fill="white"/>
<path d="M31.9816 47.9765H23.5664V30.2708H31.9816V47.9765ZM24.7321 46.8108H30.8159V31.4364H24.7321V46.8108Z" fill="#002D59"/>
<path d="M35.5006 63.0012C34.4724 63.0012 33.435 62.951 32.4173 62.8508C24.6689 62.0989 17.4976 58.5039 12.2263 52.7291C6.9224 46.9157 4 39.376 4 31.4994C4 28.457 4.43364 25.4483 5.28809 22.5574C5.56087 21.633 5.88027 20.7097 6.23813 19.8157C8.54971 14.0338 12.4898 9.10291 17.634 5.55454C22.9006 1.92107 29.0788 0 35.5006 0C41.9224 0 48.167 1.94088 53.4523 5.61282C58.6163 9.20083 62.554 14.1795 64.8388 20.0103C65.2083 20.9522 65.5347 21.9221 65.8098 22.8954C66.6002 25.6791 67 28.5747 67 31.5006C67 39.3772 64.0776 46.9169 58.7725 52.7302C53.5012 58.5051 46.3299 62.1001 38.5803 62.852C37.5592 62.951 36.5241 63.0012 35.5006 63.0012ZM35.5006 1.1657C29.3166 1.1657 23.3669 3.01449 18.2961 6.51391C13.3419 9.93172 9.54638 14.6808 7.32107 20.2481C6.97719 21.1096 6.66944 21.9978 6.40599 22.8884C5.58301 25.6721 5.1657 28.57 5.1657 31.5006C5.1657 39.0858 7.97968 46.3457 13.0889 51.9434C18.1655 57.5049 25.0699 60.967 32.5316 61.6909C34.4876 61.8821 36.4972 61.8833 38.4684 61.6921C45.9301 60.9682 52.8356 57.5061 57.9122 51.9445C63.0215 46.3457 65.8355 39.0858 65.8355 31.5006C65.8355 28.6831 65.4496 25.8948 64.6896 23.2137C64.4238 22.2764 64.1102 21.3427 63.7547 20.4358C61.5539 14.8206 57.7619 10.0261 52.7878 6.56986C47.6984 3.0343 41.7219 1.1657 35.5017 1.1657H35.5006Z" fill="white"/>
</g>
<defs>
<filter id="filter0_d_558_317" x="0" y="0" width="71" height="71.0012" filterUnits="userSpaceOnUse" color-interpolation-filters="sRGB">
<feFlood flood-opacity="0" result="BackgroundImageFix"/>
<feColorMatrix in="SourceAlpha" type="matrix" values="0 0 0 0 0 0 0 0 0 0 0 0 0 0 0 0 0 0 127 0" result="hardAlpha"/>
<feOffset dy="4"/>
<feGaussianBlur stdDeviation="2"/>
<feComposite in2="hardAlpha" operator="out"/>
<feColorMatrix type="matrix" values="0 0 0 0 0 0 0 0 0 0 0 0 0 0 0 0 0 0 0.25 0"/>
<feBlend mode="normal" in2="BackgroundImageFix" result="effect1_dropShadow_558_317"/>
<feBlend mode="normal" in="SourceGraphic" in2="effect1_dropShadow_558_317" result="shape"/>
</filter>
</defs>
</svg>
