<svg width="71" height="71" viewBox="0 0 71 71" fill="none" xmlns="http://www.w3.org/2000/svg">
<g filter="url(#filter0_d_558_211)">
<path fill-rule="evenodd" clip-rule="evenodd" d="M65.4104 31.5C65.4104 47.0326 53.5714 59.8004 38.4247 61.27C37.4627 61.363 36.4865 61.4113 35.4997 61.4113C34.5129 61.4113 33.5356 61.363 32.5724 61.2688C17.4269 59.7993 5.58789 47.0315 5.58789 31.5C5.58789 28.5504 6.01534 25.7008 6.81135 23.009C7.07277 22.1235 7.37422 21.2545 7.71335 20.4055C12.1209 9.38041 22.9001 1.58997 35.4997 1.58997C48.0994 1.58997 58.9987 9.46754 63.3579 20.5904C63.7076 21.4829 64.0161 22.3978 64.2799 23.3293C65.0171 25.9269 65.4104 28.6669 65.4104 31.5Z" fill="white"/>
<path d="M35.5006 62C34.5056 62 33.5011 61.9505 32.5155 61.8552C25.0123 61.1275 18.0695 57.6467 12.966 52.0547C7.82962 46.4262 5 39.1256 5 31.5C5 28.555 5.4192 25.6419 6.24701 22.8417C6.51078 21.9468 6.82047 21.0531 7.16667 20.1864C9.40399 14.5885 13.2192 9.8137 18.2002 6.37771C23.3001 2.85929 29.282 1 35.4994 1C41.7168 1 47.7635 2.87931 52.881 6.43423C57.8809 9.9079 61.6937 14.7286 63.9063 20.3737C64.2631 21.2851 64.5799 22.2259 64.8472 23.1667C65.6126 25.8621 66 28.6645 66 31.4976C66 39.1244 63.1704 46.425 58.0328 52.0535C52.9293 57.6456 45.9854 61.1263 38.4821 61.854C37.4942 61.9494 36.4909 61.9976 35.5006 61.9976V62ZM35.5006 2.17869C29.5222 2.17869 23.7711 3.96616 18.8702 7.34798C14.0812 10.6521 10.4131 15.2432 8.26178 20.6245C7.92971 21.457 7.6318 22.3154 7.37745 23.1761C6.58143 25.8679 6.17754 28.6681 6.17754 31.5C6.17754 38.8312 8.89765 45.8492 13.8362 51.2611C18.743 56.6376 25.4173 59.9829 32.6297 60.6835C34.5221 60.8684 36.4626 60.8684 38.3691 60.6835C45.5815 59.9841 52.2569 56.6376 57.1637 51.2611C62.1023 45.8492 64.8225 38.8312 64.8225 31.4988C64.8225 28.7752 64.4492 26.0799 63.7144 23.4882C63.4577 22.5827 63.1539 21.6795 62.8112 20.8035C60.6834 15.3751 57.0177 10.7416 52.211 7.40097C47.2913 3.98382 41.5143 2.17752 35.5018 2.17752L35.5006 2.17869Z" fill="#002D59"/>
<path d="M51.1052 34.5945V28.4066H47.7645C47.4607 27.1973 46.9826 26.0575 46.3585 25.0165L48.7218 22.6533L44.3473 18.2788L41.984 20.6421C40.9418 20.018 39.8032 19.5399 38.5938 19.2373V15.8955H32.4059V19.2361C31.1965 19.5399 30.0567 20.018 29.0157 20.6421L26.6524 18.2788L22.2779 22.6533L24.6412 25.0165C24.0171 26.0575 23.539 27.1973 23.2352 28.4066H19.8945V34.5945H23.2364C23.539 35.8026 24.0159 36.9412 24.6412 37.9833L22.2779 40.3466L26.6524 44.7223L29.0157 42.359C30.0567 42.9831 31.1965 43.4611 32.4059 43.7649V47.1044H38.5938V43.7638C39.8032 43.4611 40.9418 42.9842 41.984 42.359L44.3473 44.7223L48.7218 40.3466L46.3585 37.9833C46.9826 36.9412 47.4607 35.8026 47.7633 34.5945H51.1052ZM41.5341 33.1579C41.4859 33.3333 41.4305 33.5053 41.3669 33.6736C41.3116 33.822 41.2515 33.9692 41.1856 34.1105C41.1091 34.2765 41.0266 34.4367 40.9371 34.5945C40.3813 35.5694 39.57 36.3807 38.5938 36.9377C38.436 37.0284 38.2759 37.1108 38.1099 37.1862C37.9686 37.2521 37.8225 37.311 37.6742 37.3675C37.5058 37.4311 37.3339 37.4852 37.1584 37.5347C36.6297 37.6784 36.0739 37.7561 35.4993 37.7561C34.9246 37.7561 34.3688 37.6784 33.8425 37.5347C33.6658 37.4876 33.4951 37.4311 33.3255 37.3675C33.1772 37.3122 33.0311 37.2521 32.8898 37.1862C32.7238 37.1096 32.5637 37.026 32.4059 36.9377C31.4297 36.3831 30.6184 35.5718 30.0614 34.5945C29.9719 34.4378 29.8883 34.2765 29.8141 34.1105C29.7482 33.9692 29.6881 33.822 29.6328 33.6736C29.5704 33.5053 29.515 33.3333 29.4656 33.1579C29.3219 32.6304 29.2442 32.0746 29.2442 31.4999C29.2442 30.9253 29.3219 30.3695 29.4656 29.842C29.5138 29.6666 29.5704 29.4946 29.6328 29.3262C29.6881 29.1779 29.7482 29.0319 29.8141 28.8906C29.8895 28.7245 29.9719 28.5644 30.0614 28.4066C30.6172 27.4304 31.4285 26.6191 32.4059 26.0622C32.5625 25.9727 32.7238 25.8891 32.8898 25.8149C33.0311 25.749 33.1772 25.6889 33.3255 25.6336C33.4951 25.5712 33.6658 25.5158 33.8425 25.4663C34.3688 25.3227 34.9246 25.245 35.4993 25.245C36.0739 25.245 36.6297 25.3227 37.1572 25.4675C37.3327 25.5146 37.5046 25.5712 37.673 25.6336C37.8214 25.6889 37.9686 25.749 38.1099 25.8149C38.2759 25.8903 38.436 25.9739 38.5938 26.0622C39.57 26.618 40.3813 27.4293 40.9371 28.4066C41.0266 28.5644 41.1102 28.7245 41.1856 28.8906C41.2515 29.0319 41.3116 29.1779 41.3669 29.3262C41.4305 29.4946 41.4847 29.6666 41.5341 29.842C41.6778 30.3695 41.7555 30.9253 41.7555 31.4999C41.7555 32.0746 41.6778 32.6304 41.5341 33.1579Z" fill="white"/>
<path d="M39.1823 47.6932H31.8168V44.216C30.876 43.944 29.9692 43.5684 29.1132 43.095L26.6533 45.5549L21.4462 40.3467L23.9061 37.8869C23.4327 37.0285 23.0571 36.123 22.7863 35.1845H19.3066V27.8191H22.7851C23.0571 26.8783 23.4327 25.9716 23.9061 25.1156L21.4462 22.6557L26.6533 17.4488L29.1132 19.9086C29.9692 19.4352 30.876 19.0596 31.8168 18.7876V15.3092H39.1823V18.7888C40.1208 19.0596 41.0275 19.4352 41.8859 19.9086L44.3458 17.4476L49.5529 22.6545L47.093 25.1144C47.5664 25.9716 47.942 26.8771 48.214 27.818H51.6925V35.1833H48.2128C47.942 36.1218 47.5664 37.0273 47.093 37.8857L49.5529 40.3455L44.3458 45.5537L41.8859 43.0927C41.0275 43.5672 40.122 43.9417 39.1823 44.2125V47.6909V47.6932ZM32.9943 46.5157H38.0048V43.3046L38.4511 43.1928C39.5862 42.909 40.6731 42.458 41.681 41.8551L42.0755 41.6196L44.347 43.891L47.889 40.3479L45.6175 38.0765L45.8531 37.682C46.4571 36.6729 46.907 35.5872 47.1907 34.4533L47.3026 34.007H50.5161V28.9966H47.305L47.1931 28.5515C46.907 27.4141 46.4571 26.3272 45.8542 25.3216L45.6175 24.9272L47.889 22.6557L44.347 19.1138L42.0755 21.3852L41.681 21.1497C40.6731 20.5456 39.5862 20.0958 38.4511 19.812L38.0048 19.7002V16.4879H32.9943V19.699L32.5492 19.8109C31.4106 20.097 30.3237 20.548 29.3192 21.1497L28.9248 21.3864L26.6533 19.1149L23.1113 22.6569L25.3827 24.9283L25.1461 25.3228C24.5432 26.3284 24.0922 27.4152 23.8072 28.5527L23.6953 28.9978H20.4842V34.0082H23.6965L23.8084 34.4544C24.0922 35.5884 24.5432 36.6752 25.1461 37.6832L25.3816 38.0776L23.1101 40.3491L26.6521 43.8922L28.9236 41.6208L29.3181 41.8575C30.3237 42.4604 31.4106 42.9113 32.5481 43.1963L32.9932 43.3082V46.5181L32.9943 46.5157ZM35.499 38.3449C34.8843 38.3449 34.2743 38.2637 33.6867 38.1024C33.4995 38.0517 33.3135 37.9917 33.1192 37.9199C32.9625 37.8622 32.8012 37.795 32.6423 37.722C32.4692 37.642 32.2914 37.5513 32.1147 37.45C31.0455 36.8424 30.1588 35.9569 29.55 34.8866C29.4452 34.7029 29.3569 34.5298 29.278 34.3543C29.2074 34.2024 29.1403 34.0399 29.0814 33.8775C29.0131 33.6938 28.953 33.5054 28.9 33.317C28.7387 32.7247 28.6575 32.1147 28.6575 31.5012C28.6575 30.8877 28.7387 30.2766 28.9 29.6878C28.953 29.4959 29.0143 29.3075 29.0826 29.1238C29.1403 28.966 29.2074 28.8047 29.2816 28.6446C29.3593 28.4738 29.4476 28.3007 29.5512 28.117C30.16 27.0479 31.0467 26.1612 32.1159 25.5524C32.2996 25.4476 32.4727 25.3593 32.6481 25.2804C32.8036 25.2086 32.9649 25.1415 33.1239 25.0826C33.317 25.0119 33.5007 24.9531 33.6867 24.9012C34.8666 24.5786 36.1407 24.5786 37.3147 24.9012C37.4984 24.9519 37.6892 25.0119 37.8776 25.0826C38.0389 25.1415 38.2014 25.2086 38.358 25.2816C38.5288 25.3593 38.7019 25.4476 38.8856 25.5524C39.9559 26.1624 40.8426 27.049 41.4491 28.117C41.5492 28.2925 41.6398 28.4703 41.7211 28.6457C41.7941 28.8047 41.8612 28.966 41.9201 29.125C41.9848 29.2957 42.0437 29.4806 42.1014 29.6855C42.2627 30.2778 42.344 30.8877 42.344 31.5012C42.344 32.1147 42.2627 32.7258 42.1014 33.3146V33.3181C42.0437 33.523 41.9837 33.7079 41.9177 33.8822C41.8588 34.0411 41.7917 34.2036 41.7199 34.3591C41.6328 34.5475 41.5433 34.7205 41.4467 34.8889C40.8391 35.9546 39.9536 36.8401 38.8856 37.4488C38.7184 37.5454 38.5453 37.6349 38.3568 37.7209C38.2108 37.788 38.0554 37.8527 37.8823 37.9187C37.7068 37.9846 37.522 38.0447 37.3171 38.1012C36.7236 38.2625 36.1136 38.3449 35.5001 38.3449H35.499ZM35.499 25.8362C34.9891 25.8362 34.4839 25.9033 33.9976 26.0364C33.8445 26.0788 33.6903 26.1282 33.5278 26.1883C33.3994 26.2354 33.2675 26.2907 33.1368 26.3508C32.9908 26.4167 32.8483 26.4897 32.6976 26.5757C31.8133 27.0797 31.0785 27.8144 30.5745 28.6987C30.4885 28.8495 30.4155 28.9919 30.3519 29.1344C30.2895 29.2698 30.2342 29.4017 30.1871 29.5301C30.1294 29.6843 30.0788 29.8433 30.0352 30.0011C29.9033 30.485 29.835 30.9914 29.835 31.5012C29.835 32.0111 29.9021 32.5162 30.0352 33.0037C30.0788 33.158 30.1294 33.3169 30.1859 33.4712C30.2354 33.6054 30.2895 33.7373 30.3484 33.8645C30.4144 34.0105 30.4874 34.153 30.5733 34.3037C31.0773 35.1892 31.8121 35.9228 32.6964 36.4256C32.8436 36.5092 32.992 36.5857 33.1356 36.6517C33.2664 36.7129 33.3994 36.7671 33.5289 36.8153C33.6903 36.8754 33.8433 36.9249 33.9952 36.9661C34.9714 37.2334 36.0241 37.2334 37.0027 36.9661C37.1711 36.919 37.323 36.8695 37.4666 36.8165C37.6126 36.7612 37.7422 36.7082 37.8623 36.6517C38.0189 36.5798 38.1614 36.5068 38.2992 36.4268C39.1858 35.9216 39.9194 35.1868 40.4246 34.3025C40.5047 34.1636 40.5777 34.0211 40.6507 33.8645C40.7096 33.7362 40.7649 33.6043 40.8144 33.47C40.8685 33.324 40.918 33.1721 40.9663 33.0014C41.0993 32.5139 41.1665 32.0087 41.1665 31.5C41.1665 30.9914 41.0993 30.485 40.9663 29.9975C40.9192 29.8292 40.8697 29.6761 40.8167 29.5336C40.7673 29.4005 40.7131 29.2686 40.6519 29.1379C40.5848 28.9919 40.5094 28.8447 40.4258 28.6987C39.923 27.8144 39.1894 27.0797 38.3039 26.5757C38.1531 26.4897 38.0095 26.4167 37.8682 26.3519C37.7363 26.2907 37.6032 26.2365 37.4713 26.1871C37.3136 26.1294 37.1569 26.0788 37.0039 26.0376C36.5164 25.9033 36.0112 25.835 35.5001 25.835L35.499 25.8362Z" fill="#002D59"/>
<path d="M27.0311 31.4998H25.8535C25.8535 30.6332 25.9689 29.7736 26.195 28.9435C26.2704 28.675 26.3563 28.4077 26.4517 28.1486C26.5341 27.9261 26.6283 27.6988 26.732 27.4739C26.8415 27.2313 26.9675 26.9864 27.1135 26.7297C27.9719 25.2225 29.2213 23.9732 30.7285 23.1147C30.9864 22.9676 31.2313 22.8427 31.4774 22.7309C31.6988 22.6284 31.9261 22.5342 32.1486 22.453C32.4218 22.3529 32.6809 22.2693 32.9435 22.1963L33.2579 23.3314C33.0271 23.395 32.7963 23.4692 32.5549 23.5587C32.3618 23.6293 32.1651 23.7117 31.9685 23.8024C31.7518 23.9001 31.5387 24.0097 31.3126 24.1392C29.9902 24.8928 28.8927 25.9902 28.1391 27.3126C28.0108 27.5375 27.9013 27.7518 27.8047 27.9649C27.7117 28.1651 27.6304 28.3629 27.5586 28.556C27.4738 28.7868 27.3973 29.0223 27.3313 29.2578C27.1335 29.9832 27.0322 30.7392 27.0322 31.501L27.0311 31.4998Z" fill="#002D59"/>
<path d="M38.0609 40.8035L37.7441 39.6695C37.9997 39.5977 38.2281 39.5247 38.4424 39.4435C38.6603 39.3622 38.8534 39.2809 39.0335 39.1985C39.2679 39.0914 39.481 38.9807 39.6871 38.8618C41.0106 38.107 42.1081 37.0095 42.8617 35.6884L43.885 36.2712C43.0266 37.7761 41.7772 39.0254 40.2723 39.8838C40.0368 40.0193 39.7919 40.1453 39.5269 40.2677C39.3209 40.3631 39.1018 40.4538 38.8569 40.5456C38.6108 40.6386 38.3506 40.7222 38.0609 40.8035Z" fill="#002D59"/>
<path d="M35.4994 54C29.7347 54 23.9699 51.8056 19.5823 47.417C10.8059 38.6407 10.8059 24.3596 19.5823 15.5822C28.3599 6.80594 42.6401 6.80594 51.4177 15.5822C60.1941 24.3584 60.1941 38.6396 51.4177 47.417C47.0289 51.8056 41.2653 54 35.5006 54H35.4994ZM35.4994 10.1546C30.0302 10.1546 24.5621 12.2358 20.3984 16.3994C12.0722 24.7266 12.0722 38.2748 20.3984 46.6009C28.7258 54.9281 42.2742 54.9281 50.6004 46.6009C58.9266 38.2737 58.9266 24.7255 50.6004 16.3994C46.4367 12.2358 40.9675 10.1546 35.4994 10.1546Z" fill="#002D59"/>
<path d="M19.6782 51.6496C22.0689 51.6496 24.0069 49.7117 24.0069 47.3211C24.0069 44.9305 22.0689 42.9926 19.6782 42.9926C17.2876 42.9926 15.3496 44.9305 15.3496 47.3211C15.3496 49.7117 17.2876 51.6496 19.6782 51.6496Z" fill="white"/>
<path d="M19.679 50.0268C18.9855 50.0268 18.2919 49.763 17.7644 49.2355C17.2533 48.7245 16.9707 48.0439 16.9707 47.3209C16.9707 46.5979 17.2521 45.9173 17.7644 45.4062C18.8206 44.35 20.5375 44.3512 21.5937 45.4062C22.1048 45.9173 22.3874 46.5979 22.3874 47.3209C22.3874 48.0439 22.1059 48.7245 21.5937 49.2355C21.0662 49.763 20.3726 50.0268 19.679 50.0268ZM19.679 45.7913C19.2869 45.7913 18.8948 45.9408 18.5969 46.2387C18.3084 46.5272 18.1482 46.9123 18.1482 47.3209C18.1482 47.7295 18.3072 48.1134 18.5969 48.403C19.1939 49 20.1642 49 20.7612 48.403C21.0497 48.1145 21.2098 47.7295 21.2098 47.3209C21.2098 46.9123 21.0509 46.5284 20.7612 46.2387C20.4633 45.9408 20.0712 45.7913 19.679 45.7913Z" fill="#002D59"/>
<path d="M51.3208 20.0085C53.7115 20.0085 55.6494 18.0706 55.6494 15.68C55.6494 13.2894 53.7115 11.3514 51.3208 11.3514C48.9302 11.3514 46.9922 13.2894 46.9922 15.68C46.9922 18.0706 48.9302 20.0085 51.3208 20.0085Z" fill="white"/>
<path d="M51.3224 18.3871C50.5994 18.3871 49.9188 18.1056 49.4077 17.5934C48.8967 17.0824 48.6152 16.4018 48.6152 15.6788C48.6152 14.9558 48.8967 14.2752 49.4089 13.7641C49.9199 13.2531 50.6006 12.9717 51.3236 12.9717C52.0466 12.9717 52.7272 13.2531 53.2382 13.7641C53.7493 14.2752 54.0319 14.9558 54.0319 15.6788C54.0319 16.4018 53.7505 17.0824 53.2382 17.5934C52.7272 18.1045 52.0466 18.3859 51.3236 18.3859L51.3224 18.3871ZM51.3224 14.1492C50.9138 14.1492 50.5299 14.3082 50.2402 14.5978C49.9506 14.8863 49.7916 15.2714 49.7916 15.68C49.7916 16.0886 49.9506 16.4724 50.2402 16.7621C50.5299 17.0518 50.9138 17.2107 51.3224 17.2107C51.731 17.2107 52.1149 17.0518 52.4045 16.7621C52.693 16.4736 52.8532 16.0886 52.8532 15.68C52.8532 15.2714 52.6942 14.8875 52.4045 14.5978C52.1149 14.3093 51.731 14.1492 51.3224 14.1492Z" fill="#002D59"/>
<path d="M35.5 63C34.4719 63 33.4344 62.9499 32.418 62.8496C24.6697 62.0978 17.4985 58.5028 12.2273 52.7281C6.92234 46.9149 4 39.3753 4 31.4988C4 28.4564 4.43363 25.4478 5.28807 22.5569C5.56084 21.6326 5.88023 20.7094 6.23809 19.8153C8.54962 14.0347 12.4896 9.10275 17.6337 5.55444C22.9002 1.92103 29.0783 0 35.5 0C41.9217 0 48.1662 1.94085 53.4514 5.61272C58.6153 9.20066 62.5529 14.1793 64.8377 20.01C65.2072 20.9518 65.5336 21.9228 65.8087 22.895C66.599 25.6786 66.9988 28.5742 66.9988 31.5C66.9988 39.3765 64.0765 46.916 58.7715 52.7292C53.5003 58.504 46.3291 62.0989 38.5797 62.8508C37.5597 62.9499 36.5235 63 35.5 63ZM35.5 1.16567C29.3161 1.16567 23.3665 3.01443 18.2958 6.51378C13.3417 9.93154 9.54628 14.6805 7.321 20.2478C6.97713 21.1092 6.66939 21.9963 6.40712 22.8868C5.58415 25.6716 5.16567 28.5683 5.16567 31.4988C5.16567 39.0839 7.97961 46.3437 13.0888 51.9413C18.1653 57.5027 25.0696 60.9647 32.531 61.6886C34.4882 61.8798 36.4966 61.8809 38.4678 61.6898C45.9293 60.9659 52.8347 57.5038 57.9112 51.9424C63.0204 46.3437 65.8343 39.0839 65.8343 31.4988C65.8343 28.6802 65.4485 25.8931 64.6885 23.2121C64.4239 22.276 64.1091 21.3423 63.7536 20.4343C61.5528 14.8192 57.7609 10.0248 52.7869 6.56857C47.6976 3.03308 41.7212 1.16451 35.5012 1.16451L35.5 1.16567Z" fill="white"/>
</g>
<defs>
<filter id="filter0_d_558_211" x="0" y="0" width="70.998" height="71" filterUnits="userSpaceOnUse" color-interpolation-filters="sRGB">
<feFlood flood-opacity="0" result="BackgroundImageFix"/>
<feColorMatrix in="SourceAlpha" type="matrix" values="0 0 0 0 0 0 0 0 0 0 0 0 0 0 0 0 0 0 127 0" result="hardAlpha"/>
<feOffset dy="4"/>
<feGaussianBlur stdDeviation="2"/>
<feComposite in2="hardAlpha" operator="out"/>
<feColorMatrix type="matrix" values="0 0 0 0 0 0 0 0 0 0 0 0 0 0 0 0 0 0 0.25 0"/>
<feBlend mode="normal" in2="BackgroundImageFix" result="effect1_dropShadow_558_211"/>
<feBlend mode="normal" in="SourceGraphic" in2="effect1_dropShadow_558_211" result="shape"/>
</filter>
</defs>
</svg>
