<svg width="100" height="100" viewBox="0 0 100 100" fill="none" xmlns="http://www.w3.org/2000/svg">
<path fill-rule="evenodd" clip-rule="evenodd" d="M99.0326 49.9989C99.0326 75.4627 79.6248 96.3939 54.7947 98.803C53.2176 98.9555 51.6173 99.0347 49.9997 99.0347C48.382 99.0347 46.7798 98.9555 45.2008 98.8011C20.3726 96.392 0.964844 75.4608 0.964844 49.9989C0.964844 45.1633 1.66556 40.4917 2.97048 36.0789C3.39902 34.6272 3.89319 33.2026 4.44913 31.8108C11.6744 13.7365 29.3449 0.965088 49.9997 0.965088C70.6544 0.965088 88.5218 13.8794 95.668 32.1139C96.2413 33.5771 96.747 35.077 97.1794 36.6039C98.3878 40.8624 99.0326 45.3544 99.0326 49.9989Z" fill="white"/>
<path d="M50 100C48.3689 100 46.7223 99.9189 45.1066 99.7626C32.8063 98.5696 21.425 92.8633 13.0588 83.6959C4.63864 74.4687 0 62.5002 0 49.999C0 45.1711 0.689136 40.3953 2.04617 35.8049C2.47857 34.3378 2.98626 32.8726 3.55378 31.4518C7.22145 22.2748 13.4758 14.447 21.6412 8.81416C29.9996 3.04809 39.8077 0 50 0C60.1923 0 70.1046 3.0809 78.4939 8.90875C86.6902 14.6034 92.9407 22.5064 96.5678 31.7607C97.1527 33.2548 97.672 34.7972 98.1102 36.3396C99.3649 40.7583 100 45.3526 100 49.9971C100 62.5002 95.3614 74.4687 86.9392 83.6959C78.5731 92.8633 67.1898 98.5696 54.8896 99.7626C53.27 99.9189 51.6254 99.9981 50.0019 99.9981L50 100ZM50 1.93039C40.1996 1.93039 30.7718 4.86072 22.7376 10.4048C14.8869 15.8215 8.87383 23.3481 5.34708 32.1699C4.80272 33.5347 4.31434 34.942 3.89738 36.3531C2.59246 40.766 1.93035 45.3564 1.93035 49.999C1.93035 62.0176 6.38947 73.5228 14.4854 82.3948C22.5291 91.209 33.4704 96.6932 45.2938 97.8418C48.3959 98.1449 51.5771 98.1449 54.7023 97.8418C66.5257 96.6952 77.4689 91.209 85.5127 82.3948C93.6086 73.5228 98.0677 62.0176 98.0677 49.9971C98.0677 45.5321 97.4558 41.1134 96.2513 36.8666C95.8304 35.3821 95.3324 33.9015 94.7707 32.4653C91.2825 23.5662 85.2733 15.9701 77.3936 10.4936C69.3286 4.89161 59.8583 1.93039 50.0019 1.93039H50Z" fill="#002D59"/>
<path d="M98.0696 58.4561H1.48438V60.3865H98.0696V58.4561Z" fill="#002D59"/>
<path d="M37.9947 23.9344H62.0025C69.8321 23.9344 76.1906 30.2912 76.1906 38.1228V74.001C76.1906 75.279 75.1521 76.3175 73.8742 76.3175H26.1231C24.8452 76.3175 23.8066 75.279 23.8066 74.001V38.1228C23.8066 30.2932 30.1633 23.9344 37.9947 23.9344Z" fill="white"/>
<path d="M73.8726 77.283H26.1234C24.3147 77.283 22.8418 75.8101 22.8418 74.0013V38.1231C22.8418 29.7684 29.6386 22.9695 37.9951 22.9695H62.0029C70.3574 22.9695 77.1561 29.7664 77.1561 38.1231V74.0013C77.1561 75.8101 75.6833 77.283 73.8745 77.283H73.8726ZM37.9951 24.8999C30.7041 24.8999 24.7721 30.832 24.7721 38.1231V74.0013C24.7721 74.7465 25.3783 75.3526 26.1234 75.3526H73.8726C74.6177 75.3526 75.2239 74.7465 75.2239 74.0013V38.1231C75.2239 30.832 69.2919 24.8999 62.0009 24.8999H37.9931H37.9951Z" fill="#002D59"/>
<path d="M76.1887 64.8882H23.8066V66.8186H76.1887V64.8882Z" fill="#002D59"/>
<path d="M76.1887 36.436H23.8066V38.3664H76.1887V36.436Z" fill="#002D59"/>
<path d="M49.9982 53.7074H40.4043V76.3181H49.9982V53.7074Z" fill="white"/>
<path d="M50.9637 77.2832H39.4395V52.7422H50.9637V77.2832ZM41.3698 75.3528H49.0333V54.6726H41.3698V75.3528Z" fill="#002D59"/>
<path d="M59.5919 53.7076H49.998V76.3182H59.5919V53.7076Z" fill="white"/>
<path d="M60.5574 77.2834H49.0332V52.7423H60.5574V77.2834ZM50.9636 75.353H58.6271V54.6727H50.9636V75.353Z" fill="#002D59"/>
<path d="M49.9984 49.8909C48.8614 49.8909 47.7245 49.4584 46.8597 48.5936C46.0219 47.7558 45.5586 46.6401 45.5586 45.4548C45.5586 44.2696 46.0199 43.1538 46.8597 42.316C48.5892 40.5844 51.4056 40.5844 53.1372 42.316C53.9749 43.1538 54.4382 44.2696 54.4382 45.4548C54.4382 46.6401 53.9769 47.7558 53.1372 48.5936C52.2724 49.4584 51.1354 49.8909 49.9984 49.8909ZM49.9984 42.9472C49.3556 42.9472 48.7128 43.1924 48.2244 43.6808C47.7515 44.1537 47.4889 44.785 47.4889 45.4548C47.4889 46.1247 47.7495 46.754 48.2244 47.2288C49.2031 48.2076 50.7937 48.2076 51.7724 47.2288C52.2453 46.7559 52.5079 46.1247 52.5079 45.4548C52.5079 44.785 52.2473 44.1557 51.7724 43.6808C51.284 43.1924 50.6412 42.9472 49.9984 42.9472Z" fill="#002D59"/>
</svg>
