<svg width="100" height="100" viewBox="0 0 100 100" fill="none" xmlns="http://www.w3.org/2000/svg">
<path fill-rule="evenodd" clip-rule="evenodd" d="M99.0345 50C99.0345 75.4633 79.6263 96.3941 54.7957 98.8032C53.2186 98.9557 51.6183 99.0349 50.0006 99.0349C48.3829 99.0349 46.7807 98.9556 45.2017 98.8012C20.373 96.3921 0.964844 75.4614 0.964844 50C0.964844 45.1645 1.66558 40.4931 2.97052 36.0803C3.39907 34.6287 3.89325 33.204 4.4492 31.8123C11.6746 13.7384 29.3454 0.967163 50.0006 0.967163C70.6558 0.967163 88.5235 13.8812 95.6698 32.1153C96.2431 33.5785 96.7489 35.0784 97.1813 36.6053C98.3897 40.8637 99.0345 45.3556 99.0345 50Z" fill="white"/>
<path d="M50.001 100C48.3698 100 46.7232 99.9189 45.1074 99.7626C32.8089 98.5696 21.4254 92.8634 13.0591 83.6962C4.63873 74.4691 0 62.5029 0 50C0 45.1722 0.687219 40.3965 2.04428 35.8061C2.47669 34.339 2.98438 32.8739 3.55192 31.4532C7.21966 22.2763 13.4741 14.4487 21.6397 8.81595C29.9983 3.04806 39.8066 0 49.999 0C60.1915 0 70.104 3.08087 78.4935 8.9086C86.69 14.6031 92.9406 22.506 96.5678 31.7601C97.1527 33.2561 97.6719 34.7965 98.1101 36.3389C99.3649 40.7575 100 45.3517 100 49.9961C100 62.499 95.3613 74.4672 86.939 83.6943C78.5727 92.8615 67.1892 98.5676 54.8887 99.7606C53.2691 99.917 51.6244 99.9961 50.001 99.9961V100ZM50.001 1.93228C40.2004 1.93228 30.7723 4.86259 22.7381 10.4066C14.8872 15.8231 8.874 23.3476 5.34718 32.1713C4.80281 33.536 4.31442 34.9432 3.89746 36.3543C2.59251 40.7671 1.93039 45.3575 1.93039 50C1.93039 62.0183 6.38959 73.5233 14.4856 82.3952C22.5296 91.2091 33.471 96.6933 45.2947 97.8418C48.3949 98.1449 51.5781 98.1449 54.7034 97.8437C66.527 96.6971 77.4704 91.211 85.5143 82.397C93.6104 73.5251 98.0696 62.0203 98.0696 50C98.0696 45.5351 97.4577 41.1165 96.2531 36.8697C95.8323 35.3853 95.3342 33.9047 94.7725 32.4685C91.2843 23.5696 85.275 15.9737 77.3951 10.4973C69.33 4.8954 59.8595 1.93422 50.0029 1.93422L50.001 1.93228Z" fill="#002D59"/>
<path d="M40.2396 84.5939C37.5931 84.5939 34.9484 84.1151 32.4293 83.1577L30.3445 82.3662L29.4796 82.7252C24.0977 84.9606 17.685 84.9586 12.3281 82.7214L13.0713 80.9397C17.9649 82.9839 23.8217 82.984 28.7384 80.9416L30.3116 80.2891L33.1126 81.3547C37.7263 83.1094 42.8032 83.1016 47.411 81.3353L50.2062 80.264L52.9802 81.3296C57.5765 83.0939 62.6437 83.1075 67.2496 81.3682L70.0873 80.2968L72.6277 81.264C77.4402 83.094 82.2044 83.0805 86.7871 81.2235L87.5129 83.0129C82.463 85.0591 77.2259 85.0783 71.9424 83.0688L70.0854 82.3624L67.9311 83.175C62.8812 85.0822 57.3255 85.0667 52.2872 83.1325L50.2043 82.3334L48.1002 83.1402C45.5656 84.1112 42.8997 84.5977 40.2358 84.5977L40.2396 84.5939Z" fill="#002D59"/>
<path d="M64.1213 23.8089H36.6075C35.3281 23.8089 34.291 24.846 34.291 26.1253V73.8745C34.291 75.1538 35.3281 76.1909 36.6075 76.1909H64.1213C65.4007 76.1909 66.4378 75.1538 66.4378 73.8745V26.1253C66.4378 24.846 65.4007 23.8089 64.1213 23.8089Z" fill="white"/>
<path d="M64.1217 77.1563H36.6078C34.7991 77.1563 33.3262 75.6834 33.3262 73.8747V26.1255C33.3262 24.3168 34.7991 22.8439 36.6078 22.8439H64.1217C65.9305 22.8439 67.4034 24.3168 67.4034 26.1255V73.8747C67.4034 75.6834 65.9305 77.1563 64.1217 77.1563ZM36.6078 24.7743C35.8627 24.7743 35.2566 25.3804 35.2566 26.1255V73.8747C35.2566 74.6198 35.8627 75.2259 36.6078 75.2259H64.1217C64.8668 75.2259 65.473 74.6198 65.473 73.8747V26.1255C65.473 25.3804 64.8668 24.7743 64.1217 24.7743H36.6078Z" fill="#002D59"/>
<path d="M61.8715 49.5193H38.8516V51.4497H61.8715V49.5193Z" fill="#002D59"/>
<path d="M60.9117 31.735H39.8184V43.9985H60.9117V31.735Z" fill="white"/>
<path d="M61.8773 44.9635H38.8535V30.7697H61.8773V44.9635ZM40.7839 43.0332H59.9469V32.7H40.7839V43.0332Z" fill="#002D59"/>
<path d="M83.6772 63.949L70.1645 87.8545H29.8155L16.3027 63.949H83.6772Z" fill="white"/>
<path d="M70.7263 88.8195H29.2518L14.6484 62.9837H85.3316L70.7282 88.8195H70.7263ZM30.3773 86.8892H69.6008L82.0229 64.9141H17.9571L30.3792 86.8892H30.3773Z" fill="#002D59"/>
<path d="M74.0367 89.7496H61.4814L50.0014 90.9155L39.9711 90.1626L27.8502 89.2361L26.9043 86.8328C27.6494 86.6185 28.3868 86.3599 29.1107 86.0588L30.3288 85.553L32.7708 86.4815C37.6006 88.3173 42.9362 88.3095 47.7583 86.4622L50.2099 85.5222L52.6364 86.4544C57.4489 88.3018 62.7709 88.3172 67.5931 86.495L70.089 85.553L72.2878 86.3888C72.4152 86.4371 72.5426 86.4834 72.6719 86.5297L74.0367 89.7496Z" fill="white"/>
<path d="M40.2389 88.8213C37.5924 88.8213 34.9477 88.3426 32.4286 87.3851L30.3437 86.5937L29.4789 86.9527C26.0409 88.3811 22.267 88.9139 18.5684 88.4931L18.7865 86.5743C22.1627 86.9585 25.6027 86.472 28.7396 85.171L30.3129 84.5185L33.1138 85.5841C37.7275 87.3388 42.8044 87.331 47.4122 85.5648L50.2075 84.4935L52.9814 85.559C57.5777 87.3234 62.645 87.3368 67.2509 85.5976L70.0885 84.5263L72.6289 85.4933C75.2446 86.4875 78.2058 86.7597 81.9489 86.3485L82.1593 88.2673C78.1556 88.7074 74.8141 88.3908 71.9436 87.2982L70.0866 86.5917L67.9323 87.4045C62.8824 89.3116 57.3267 89.2962 52.2884 87.3619L50.2055 86.5628L48.1014 87.3697C45.5668 88.3406 42.9009 88.8271 40.237 88.8271L40.2389 88.8213Z" fill="#002D59"/>
<path d="M40.2386 93.0469C37.5921 93.0469 34.9474 92.5681 32.4283 91.6107L30.3435 90.8193L29.4787 91.1783C27.8764 91.8443 26.197 92.3172 24.4847 92.5894L24.1836 90.6822C25.7453 90.4351 27.278 90.0027 28.7393 89.3946L30.3126 88.7422L33.1136 89.8077C37.7272 91.5624 42.8041 91.5547 47.412 89.7884L50.2072 88.7171L52.9811 89.7827C57.5774 91.547 62.6447 91.5606 67.2506 89.8213L70.0883 88.7499L72.6287 89.7171C73.949 90.2189 75.1189 90.5374 76.4199 90.7478L76.1111 92.6531C74.6942 92.4234 73.368 92.0643 71.9414 91.5219L70.0844 90.8154L67.9301 91.6281C62.8802 93.5353 57.3245 93.5198 52.2862 91.5856L50.2033 90.7865L48.0992 91.5933C45.5646 92.5643 42.8987 93.0508 40.2348 93.0508L40.2386 93.0469Z" fill="#002D59"/>
<path d="M67.0781 60.5241V58.5937C72.1956 58.5937 76.3594 54.4299 76.3594 49.3125V30.702C76.3594 28.7736 75.9618 26.9031 75.1761 25.1426L69.9428 13.408L71.7053 12.6224L76.9386 24.357C77.8343 26.3665 78.2898 28.5014 78.2898 30.702V49.3125C78.2898 55.4955 73.2592 60.5241 67.0781 60.5241Z" fill="#002D59"/>
<path d="M76.8317 35.0356L74.0076 33.362C70.7433 31.4278 69.5947 27.2949 71.3938 23.9535L71.4189 23.9091L73.5327 20.4422L75.1812 21.4479L73.081 24.8916C71.7915 27.3142 72.6273 30.3024 74.9901 31.7019L77.8143 33.3756L76.8298 35.0356H76.8317Z" fill="#002D59"/>
</svg>
