<svg width="63" height="63" viewBox="0 0 63 63" fill="none" xmlns="http://www.w3.org/2000/svg">
<path fill-rule="evenodd" clip-rule="evenodd" d="M61.1976 31.5C61.1976 46.9628 49.4274 59.6733 34.3687 61.1362C33.4122 61.2288 32.4418 61.2769 31.4607 61.2769C30.4797 61.2769 29.508 61.2288 28.5503 61.135C13.4928 59.6721 1.72266 46.9617 1.72266 31.5C1.72266 28.5636 2.14762 25.7268 2.93901 23.0471C3.19891 22.1656 3.49861 21.3005 3.83577 20.4553C8.21769 9.4798 18.9343 1.72437 31.4607 1.72437C43.9872 1.72437 54.8231 9.56654 59.157 20.6394C59.5047 21.5279 59.8115 22.4387 60.0737 23.366C60.8066 25.9519 61.1976 28.6797 61.1976 31.5Z" fill="white"/>
<path d="M31.4601 61.863C30.4709 61.863 29.4734 61.8137 28.4924 61.7188C21.0327 60.9944 14.1303 57.5293 9.05649 51.9624C3.94874 46.3591 1.13672 39.0925 1.13672 31.5C1.13672 28.5671 1.5535 25.6682 2.37767 22.8807C2.64108 21.9886 2.94779 21.1001 3.29198 20.2373C5.5163 14.6645 9.30935 9.91118 14.2614 6.49063C19.3317 2.98803 25.2788 1.13708 31.4601 1.13708C37.6414 1.13708 43.6529 3.00795 48.7408 6.5469C53.7115 10.005 57.5023 14.804 59.702 20.4237C60.0567 21.331 60.3717 22.2664 60.6374 23.2042C61.3984 25.8874 61.7835 28.6785 61.7835 31.4977C61.7835 39.0902 58.9703 46.3568 53.8626 51.9612C48.7888 57.5281 41.8852 60.9932 34.4255 61.7176C33.4421 61.8126 32.4447 61.8606 31.4613 61.8606L31.4601 61.863ZM31.4601 2.31048C25.5165 2.31048 19.7988 4.08992 14.9264 7.45654C10.1652 10.7458 6.51842 15.3151 4.37956 20.6734C4.04942 21.5021 3.75323 22.3567 3.50036 23.2136C2.70897 25.8933 2.30742 28.6808 2.30742 31.5C2.30742 38.7983 5.01174 45.7847 9.92165 51.1723C14.7999 56.5247 21.4354 59.8549 28.606 60.5524C30.4873 60.7365 32.4166 60.7376 34.3119 60.5524C41.4824 59.8561 48.1191 56.5247 52.9974 51.1723C57.9073 45.7847 60.6116 38.7983 60.6116 31.4989C60.6116 28.7875 60.2405 26.1043 59.51 23.5242C59.2548 22.6228 58.9528 21.7237 58.6121 20.8515C56.4966 15.4476 52.8523 10.8337 48.0735 7.50929C43.1835 4.1075 37.4389 2.30931 31.4613 2.30931L31.4601 2.31048Z" fill="#002F5B"/>
<path d="M45.4826 44.0861L32.8262 54.3348C32.3251 54.7404 31.6133 54.7522 31.0982 54.3641L17.4737 44.0849C17.1213 43.8188 16.9141 43.4039 16.9141 42.9619V15.9433C16.9141 15.1673 17.5427 14.5378 18.3177 14.5378H44.5987C45.3737 14.5378 46.0024 15.1673 46.0024 15.9433V42.9936C46.0024 43.4179 45.8104 43.82 45.4814 44.0861H45.4826Z" fill="white"/>
<path d="M31.9417 55.234C31.5214 55.234 31.1 55.1004 30.7452 54.8319L17.1207 44.5527C16.6243 44.1788 16.3281 43.5833 16.3281 42.962V15.9434C16.3281 14.845 17.2202 13.9518 18.3171 13.9518H44.5981C45.6951 13.9518 46.5871 14.845 46.5871 15.9434V42.9925C46.5871 43.5962 46.3179 44.1612 45.8484 44.541L33.192 54.7897C32.8267 55.0851 32.3842 55.234 31.9417 55.234ZM18.3171 15.124C17.8664 15.124 17.4988 15.4921 17.4988 15.9434V42.9632C17.4988 43.2187 17.6206 43.4637 17.8243 43.6173L31.4488 53.8965C31.7497 54.1227 32.163 54.1157 32.4556 53.8789L45.112 43.6301C45.3052 43.4742 45.4153 43.2421 45.4153 42.9925V15.9434C45.4153 15.4909 45.0477 15.124 44.5969 15.124H18.316H18.3171Z" fill="#002F5B"/>
<path d="M42.9136 42.9209L32.5752 51.2929C32.1666 51.6247 31.5848 51.634 31.1645 51.3175L20.0347 42.9209C19.7467 42.704 19.5781 42.3641 19.5781 42.0042V18.7848C19.5781 18.1506 20.092 17.6372 20.7242 17.6372H42.1925C42.8258 17.6372 43.3386 18.1518 43.3386 18.7848V42.0288C43.3386 42.3758 43.1817 42.704 42.9124 42.9221L42.9136 42.9209Z" fill="white"/>
<path d="M31.8542 52.1358C31.4878 52.1358 31.1214 52.0198 30.8123 51.7865L19.6837 43.3898C19.2517 43.064 18.9941 42.5458 18.9941 42.0043V18.7849C18.9941 17.8283 19.7715 17.0511 20.7256 17.0511H42.1938C43.1491 17.0511 43.9253 17.8295 43.9253 18.7849V42.0289C43.9253 42.5552 43.6912 43.0464 43.2826 43.377L32.9442 51.749C32.6269 52.0057 32.2406 52.1358 31.8554 52.1358H31.8542ZM20.7244 18.2234C20.4153 18.2234 20.1637 18.4754 20.1637 18.7849V42.0043C20.1637 42.1801 20.2468 42.3477 20.3873 42.4532L31.5171 50.8499C31.7231 51.0058 32.0076 51.0011 32.2078 50.8382L42.5462 42.4661C42.6785 42.3583 42.7546 42.2 42.7546 42.0289V18.7849C42.7546 18.4754 42.5029 18.2234 42.1938 18.2234H20.7256H20.7244Z" fill="#002F5B"/>
<path d="M31.7831 23.9696L33.8447 28.1533L38.456 28.8238C38.7522 28.8672 38.8693 29.2306 38.6562 29.4392L35.3197 32.6957L36.1076 37.2943C36.158 37.5897 35.8489 37.8136 35.5843 37.6753L31.46 35.5043L27.3356 37.6753C27.071 37.8148 26.7619 37.5897 26.8123 37.2943L27.6002 32.6957L24.2637 29.4392C24.0495 29.2306 24.1677 28.8672 24.4639 28.8238L29.0752 28.1533L31.1368 23.9696C31.2691 23.7012 31.6508 23.7012 31.7831 23.9696Z" fill="white"/>
<path d="M35.7522 38.3035C35.6024 38.3035 35.4514 38.2672 35.3109 38.1933L31.4593 36.1654L27.6077 38.1933C27.2869 38.3621 26.9053 38.3352 26.6114 38.1207C26.3176 37.9073 26.1736 37.5521 26.2356 37.1946L26.9708 32.8996L23.8545 29.8576C23.5946 29.6044 23.5032 29.2317 23.6156 28.887C23.728 28.5412 24.0207 28.2951 24.3789 28.2423L28.6847 27.6152L30.6105 23.7082C30.7709 23.3823 31.0964 23.1807 31.4581 23.1807C31.821 23.1807 32.1453 23.3835 32.3057 23.7082L34.2315 27.6152L38.5385 28.2423C38.8967 28.2939 39.1894 28.5412 39.3018 28.887C39.4142 29.2329 39.3217 29.6044 39.063 29.8576L35.9466 32.8996L36.6818 37.1946C36.7426 37.5521 36.5986 37.9073 36.306 38.1207C36.1397 38.2414 35.9466 38.3024 35.7511 38.3024L35.7522 38.3035ZM24.9982 29.3384L28.2282 32.4916L27.466 36.9437L31.4593 34.8419L35.4525 36.9437L34.6904 32.4916L37.9204 29.3384L33.4565 28.6889L31.4605 24.6377L29.4644 28.6889L25.0005 29.3384H24.9982Z" fill="#002F5B"/>
<path d="M31.4601 63C30.4334 63 29.3974 62.9496 28.3812 62.85C20.6429 62.0986 13.4818 58.5033 8.21713 52.7278C2.91855 46.9147 0 39.375 0 31.4988C0 28.4569 0.433157 25.4478 1.28659 22.5571C1.55937 21.6322 1.87896 20.7097 2.23486 19.8153C4.54347 14.0339 8.47818 9.10232 13.6152 5.554C18.8751 1.9201 25.0447 0 31.459 0C37.8732 0 44.1083 1.9412 49.387 5.61261C54.5439 9.20078 58.4763 14.1792 60.7592 20.0099C61.1279 20.9523 61.4545 21.9229 61.7285 22.8947C62.5175 25.6787 62.9179 28.573 62.9179 31.4988C62.9179 39.3762 59.9994 46.9147 54.7008 52.729C49.4362 58.5045 42.275 62.0986 34.5356 62.8511C33.5159 62.9496 32.4822 63 31.4601 63ZM31.4601 1.16519C25.2836 1.16519 19.3423 3.01496 14.2778 6.51288C9.33046 9.93108 5.53973 14.6798 3.31775 20.2478C2.97474 21.1082 2.66685 21.9968 2.40462 22.8877C1.58162 25.6717 1.16485 28.5694 1.16485 31.5C1.16485 39.0843 3.97451 46.345 9.07757 51.9436C14.1467 57.5058 21.0433 60.9674 28.4948 61.6906C30.4487 61.8817 32.4552 61.8829 34.4243 61.6918C41.877 60.9674 48.7724 57.5058 53.8427 51.9448C58.9458 46.3462 61.7554 39.0866 61.7554 31.5012C61.7554 28.6831 61.3703 25.8956 60.6105 23.2147C60.3459 22.2793 60.0322 21.3439 59.6763 20.4366C57.4789 14.8216 53.6917 10.0272 48.7244 6.57149C43.6424 3.03606 37.673 1.16754 31.4613 1.16754L31.4601 1.16519Z" fill="white"/>
</svg>
