<svg width="63" height="63" viewBox="0 0 63 63" fill="none" xmlns="http://www.w3.org/2000/svg">
<path fill-rule="evenodd" clip-rule="evenodd" d="M61.276 31.5C61.276 46.9628 49.4907 59.6733 34.4126 61.1362C33.4549 61.2288 32.4832 61.2769 31.5009 61.2769C30.5186 61.2769 29.5456 61.2288 28.5868 61.135C13.5099 59.6721 1.72461 46.9617 1.72461 31.5C1.72461 28.5636 2.15012 25.7268 2.94253 23.0471C3.20276 22.1656 3.50284 21.3005 3.84043 20.4553C8.22799 9.4798 18.9583 1.72437 31.5009 1.72437C44.0434 1.72437 54.8933 9.56654 59.2328 20.6394C59.581 21.5279 59.8881 22.4387 60.1507 23.366C60.8845 25.9519 61.276 28.6797 61.276 31.5Z" fill="white"/>
<path d="M31.5011 61.8629C30.5105 61.8629 29.5106 61.8137 28.5295 61.7187C21.0602 60.9943 14.1489 57.5292 9.06862 51.9623C3.9543 46.3579 1.13867 39.0913 1.13867 31.5C1.13867 28.5682 1.55598 25.6681 2.38003 22.8806C2.64261 21.9897 2.9509 21.1 3.29552 20.2372C5.52271 14.6645 9.32064 9.91111 14.2791 6.49056C19.3559 2.98913 25.3107 1.13818 31.5011 1.13818C37.6914 1.13818 43.7095 3.00905 48.8039 6.548C53.7811 10.0061 57.5767 14.8051 59.7793 20.4248C60.1344 21.3321 60.4498 22.2687 60.7158 23.2053C61.4778 25.8885 61.8634 28.6784 61.8634 31.4988C61.8634 39.0913 59.0466 46.3591 53.9323 51.9623C48.852 57.5292 41.9395 60.9943 34.4702 61.7187C33.4868 61.8137 32.488 61.8617 31.5022 61.8617L31.5011 61.8629ZM31.5011 2.31041C25.5498 2.31041 19.8247 4.08984 14.946 7.45647C10.1787 10.7457 6.52728 15.3162 4.38567 20.6733C4.05511 21.5021 3.75854 22.3566 3.50535 23.2135C2.71294 25.8932 2.31087 28.6808 2.31087 31.5C2.31087 38.7982 5.01866 45.7847 9.93488 51.1722C14.8194 56.5246 21.4635 59.8549 28.6432 60.5524C30.5269 60.7364 32.4587 60.7364 34.3565 60.5524C41.5363 59.8561 48.1815 56.5246 53.0661 51.1722C57.9823 45.7847 60.6901 38.7982 60.6901 31.4988C60.6901 28.7874 60.3185 26.1042 59.587 23.5253C59.3315 22.6239 59.029 21.7248 58.6879 20.8526C56.5698 15.4487 52.9207 10.836 48.1358 7.51039C43.2383 4.1086 37.4875 2.31041 31.5022 2.31041H31.5011Z" fill="#002F5B"/>
<path d="M60.6921 36.6355H2.04102V37.8077H60.6921V36.6355Z" fill="#002F5B"/>
<path d="M24.2102 15.6727H38.7889C43.5433 15.6727 47.4046 19.5328 47.4046 24.2885V46.0755C47.4046 46.8515 46.7739 47.4821 45.9979 47.4821H17.0023C16.2263 47.4821 15.5957 46.8515 15.5957 46.0755V24.2874C15.5957 19.5328 19.4558 15.6715 24.2114 15.6715L24.2102 15.6727Z" fill="white"/>
<path d="M45.9981 48.0682H17.0025C15.9042 48.0682 15.0098 47.1738 15.0098 46.0754V24.2873C15.0098 19.2139 19.1371 15.0853 24.2116 15.0853H38.7902C43.8635 15.0853 47.992 19.2127 47.992 24.2873V46.0742C47.992 47.1726 47.0976 48.067 45.9993 48.067L45.9981 48.0682ZM24.2104 16.2587C19.783 16.2587 16.1808 19.861 16.1808 24.2885V46.0754C16.1808 46.5279 16.5489 46.896 17.0013 46.896H45.9969C46.4494 46.896 46.8175 46.5279 46.8175 46.0754V24.2873C46.8175 19.8598 43.2153 16.2576 38.7879 16.2576H24.2092L24.2104 16.2587Z" fill="#002F5B"/>
<path d="M47.4046 40.5414H15.5957V41.7136H47.4046V40.5414Z" fill="#002F5B"/>
<path d="M47.4046 23.2639H15.5957V24.4361H47.4046V23.2639Z" fill="#002F5B"/>
<path d="M31.4977 33.7518H25.6719V47.4821H31.4977V33.7518Z" fill="white"/>
<path d="M32.084 48.0683H25.0859V33.1658H32.084V48.0683ZM26.2581 46.896H30.9118V34.338H26.2581V46.896Z" fill="#002F5B"/>
<path d="M37.3239 33.7518H31.498V47.4821H37.3239V33.7518Z" fill="white"/>
<path d="M37.9102 48.0683H30.9121V33.1658H37.9102V48.0683ZM32.0843 46.896H36.738V34.338H32.0843V46.896Z" fill="#002F5B"/>
<path d="M31.4988 31.4331C30.8084 31.4331 30.1179 31.1705 29.5928 30.6454C29.0841 30.1366 28.8027 29.4591 28.8027 28.7393C28.8027 28.0196 29.0829 27.342 29.5928 26.8333C30.6431 25.7818 32.3533 25.7818 33.4048 26.8333C33.9135 27.342 34.1949 28.0196 34.1949 28.7393C34.1949 29.4591 33.9147 30.1366 33.4048 30.6454C32.8797 31.1705 32.1892 31.4331 31.4988 31.4331ZM31.4988 27.2166C31.1085 27.2166 30.7181 27.3655 30.4215 27.6621C30.1344 27.9492 29.9749 28.3326 29.9749 28.7393C29.9749 29.1461 30.1332 29.5282 30.4215 29.8166C31.0159 30.4109 31.9817 30.4109 32.5761 29.8166C32.8632 29.5294 33.0227 29.1461 33.0227 28.7393C33.0227 28.3326 32.8644 27.9504 32.5761 27.6621C32.2795 27.3655 31.8891 27.2166 31.4988 27.2166Z" fill="#002F5B"/>
<path d="M31.5006 63C30.4726 63 29.4352 62.9496 28.4177 62.8499C20.6694 62.0986 13.4991 58.5033 8.22769 52.7278C2.9223 46.9147 0 39.3762 0 31.5C0 28.4581 0.433715 25.449 1.28825 22.5583C1.56137 21.6334 1.88138 20.7109 2.23773 19.8164C4.54932 14.035 8.48909 9.10349 13.6327 5.55517C18.9006 1.9201 25.0781 0 31.5006 0C37.9231 0 44.1662 1.9412 49.4517 5.61261C54.6152 9.20078 58.5527 14.1792 60.8385 20.0099C61.2077 20.9523 61.5347 21.9229 61.809 22.8947C62.5991 25.6787 63 28.573 63 31.4988C63 39.3762 60.0777 46.9147 54.7723 52.729C49.5009 58.5045 42.3306 62.0986 34.5811 62.8511C33.5601 62.9496 32.5251 63 31.5018 63H31.5006ZM31.5006 1.16519C25.316 1.16519 19.3671 3.01496 14.2962 6.51288C9.34245 9.93108 5.54686 14.6798 3.32202 20.2478C2.97857 21.1082 2.67028 21.9968 2.4077 22.8877C1.58364 25.6717 1.16634 28.5694 1.16634 31.5C1.16634 39.0843 3.97963 46.345 9.08925 51.9436C14.1649 57.5058 21.0703 60.9674 28.5314 61.6906C30.4878 61.8817 32.497 61.8829 34.4686 61.6918C41.9308 60.9674 48.8351 57.5058 53.9119 51.9448C59.0215 46.3462 61.8348 39.0866 61.8348 31.5012C61.8348 28.6831 61.4492 25.8956 60.6884 23.2147C60.4235 22.2793 60.1093 21.3439 59.753 20.4366C57.5528 14.8216 53.7607 10.0272 48.787 6.57149C43.6985 3.03606 37.7215 1.16753 31.5018 1.16753L31.5006 1.16519Z" fill="white"/>
</svg>
