<svg width="71" height="71" viewBox="0 0 71 71" fill="none" xmlns="http://www.w3.org/2000/svg">
<g filter="url(#filter0_d_558_423)">
<path d="M35.5 63C34.4719 63 33.4344 62.9499 32.4168 62.8496C24.6686 62.0978 17.4973 58.5028 12.2262 52.7281C6.92234 46.9149 4 39.3753 4 31.4988C4 28.4564 4.43363 25.4478 5.28807 22.5569C5.56084 21.6326 5.88023 20.7094 6.23809 19.8153C8.54962 14.0335 12.4896 9.10275 17.6337 5.55444C22.9002 1.92103 29.0783 0 35.5 0C41.9217 0 48.1662 1.94085 53.4514 5.61272C58.6153 9.20066 62.553 14.1793 64.8377 20.01C65.2072 20.9518 65.5336 21.9217 65.8087 22.895C66.599 25.6786 66.9988 28.5742 66.9988 31.5C66.9988 39.3765 64.0765 46.916 58.7715 52.7292C53.5003 58.504 46.3291 62.0989 38.5797 62.8508C37.5586 62.9499 36.5235 63 35.5 63ZM35.5 1.16567C29.3161 1.16567 23.3665 3.01443 18.2958 6.51378C13.3417 9.93154 9.54628 14.6805 7.321 20.2478C6.97713 21.1092 6.66939 21.9974 6.40595 22.888C5.58298 25.6716 5.16567 28.5695 5.16567 31.5C5.16567 39.085 7.97961 46.3449 13.0888 51.9424C18.1653 57.5038 25.0695 60.9659 32.531 61.6898C34.487 61.8809 36.4967 61.8821 38.4678 61.6909C45.9293 60.9671 52.8347 57.505 57.9112 51.9436C63.0204 46.3449 65.8343 39.085 65.8343 31.5C65.8343 28.6826 65.4485 25.8943 64.6885 23.2132C64.4227 22.276 64.1091 21.3423 63.7536 20.4354C61.5528 14.8204 57.7609 10.026 52.7869 6.56974C47.6976 3.03425 41.7212 1.16567 35.5012 1.16567H35.5Z" fill="white"/>
<path fill-rule="evenodd" clip-rule="evenodd" d="M65.1084 31.4989C65.1084 46.8753 53.3887 59.5147 38.3946 60.9695C37.4423 61.0616 36.476 61.1094 35.4991 61.1094C34.5223 61.1094 33.5548 61.0616 32.6012 60.9683C17.6084 59.5136 5.88867 46.8742 5.88867 31.4989C5.88867 28.5789 6.31181 25.758 7.09981 23.0933C7.35859 22.2167 7.657 21.3564 7.99271 20.5159C12.3558 9.60175 23.0264 1.88965 35.4991 1.88965C47.9718 1.88965 58.7613 9.68801 63.0766 20.699C63.4228 21.5825 63.7282 22.4883 63.9893 23.4103C64.7191 25.9818 65.1084 28.6943 65.1084 31.4989Z" fill="white"/>
<path d="M35.4999 61.6922C34.5149 61.6922 33.5218 61.6432 32.5449 61.5488C25.1173 60.8284 18.2445 57.3827 13.1924 51.8469C8.10775 46.275 5.30664 39.0489 5.30664 31.4989C5.30664 28.5835 5.72162 25.6996 6.54225 22.9277C6.80337 22.0418 7.10994 21.157 7.45265 20.2991C9.66743 14.7575 13.4442 10.0307 18.375 6.62923C23.4235 3.14853 29.3452 1.30676 35.4999 1.30676C41.6547 1.30676 47.6404 3.16718 52.7064 6.68635C57.6559 10.1251 61.4303 14.8974 63.6206 20.4856C63.9738 21.3878 64.2874 22.318 64.552 23.2506C65.3097 25.9188 65.6932 28.6931 65.6932 31.4977C65.6932 39.0478 62.8921 46.2738 57.8063 51.8469C52.7542 57.3827 45.8802 60.8284 38.4526 61.5488C37.4734 61.6432 36.4803 61.691 35.5011 61.691L35.4999 61.6922ZM35.4999 2.47244C29.5818 2.47244 23.8886 4.24193 19.0371 7.58974C14.2963 10.8606 10.6652 15.4044 8.53556 20.7327C8.20684 21.5568 7.91192 22.4066 7.66014 23.2587C6.87214 25.9235 6.47231 28.6954 6.47231 31.4989C6.47231 38.7564 9.16502 45.7038 14.0539 51.0612C18.9112 56.3837 25.5183 59.6954 32.658 60.3889C34.5312 60.5719 36.4523 60.5731 38.3395 60.3889C45.4793 59.6965 52.0875 56.3837 56.9448 51.0612C61.8337 45.7038 64.5264 38.7564 64.5264 31.4977C64.5264 28.8015 64.1568 26.1333 63.4295 23.5688C63.1753 22.6724 62.8746 21.7783 62.5342 20.9111C60.4279 15.5373 56.7991 10.9492 52.0408 7.64336C47.1718 4.26058 41.4519 2.47244 35.4999 2.47244Z" fill="#002D59"/>
<path d="M49.8654 55.5024H42.2838L35.3516 56.2065L29.2947 55.7519L21.9755 55.1923L21.4043 53.7411C21.8542 53.6117 22.2995 53.4555 22.7367 53.2736L23.4722 52.9682L24.9468 53.5289C27.8633 54.6375 31.0852 54.6328 33.9971 53.5173L35.4775 52.9496L36.9427 53.5126C39.8487 54.6282 43.0625 54.6375 45.9744 53.5371L47.4816 52.9682L48.8093 53.473C48.8862 53.5021 48.9632 53.5301 49.0413 53.5581L49.8654 55.5024Z" fill="white"/>
<path d="M29.6455 44.6779C28.0473 44.6779 26.4503 44.3888 24.9291 43.8106L23.6702 43.3327L23.148 43.5495C19.7267 44.9705 15.8602 44.8935 12.5019 43.3455C11.3199 43.8421 10.0761 44.1627 8.79972 44.3014L8.67383 43.1427C9.91877 43.0075 11.1311 42.6811 12.2758 42.174L12.5217 42.0645L12.8038 42.1997C15.9103 43.6952 19.5169 43.7955 22.7004 42.4736L23.6504 42.0796L25.3418 42.7231C28.1278 43.7827 31.1935 43.778 33.9759 42.7114L35.6638 42.0645L37.3389 42.7079C40.1144 43.7733 43.1743 43.7815 45.9556 42.7312L47.6691 42.0843L49.2031 42.6671C52.0695 43.757 55.2122 43.7232 58.0541 42.5715L59.3025 42.0656L61.832 42.9574C62.0885 43.0471 62.3508 43.1299 62.613 43.2033L62.3006 44.3259C62.0127 44.2454 61.7248 44.1557 61.4439 44.0566L59.3305 43.3117L58.4912 43.6521C55.3765 44.9145 51.9296 44.9518 48.7882 43.757L47.6668 43.3304L46.3659 43.8211C43.3165 44.9728 39.9628 44.9635 36.9193 43.7955L35.6615 43.3129L34.3909 43.8001C32.8604 44.3865 31.2506 44.6802 29.642 44.6802L29.6455 44.6779Z" fill="#002D59"/>
<path d="M29.4566 52.4763C27.8585 52.4763 26.2615 52.1872 24.7403 51.609L23.4814 51.1311L22.9591 51.3479C19.6579 52.7187 16.0747 52.7362 12.8702 51.398C12.573 51.2745 12.4331 50.9329 12.5567 50.6357C12.6802 50.3384 13.0218 50.1985 13.319 50.3221C16.2344 51.5402 19.4994 51.5216 22.5115 50.2708L23.2471 49.9654C23.3846 49.9083 23.5385 49.906 23.6772 49.9584L25.1518 50.5191C27.9377 51.5787 31.0034 51.574 33.7859 50.5075L35.2651 49.9409C35.3992 49.8896 35.5484 49.8896 35.6825 49.9409L37.1489 50.504C39.9243 51.5694 42.9842 51.5775 45.7655 50.5273L47.2728 49.9584C47.4056 49.9083 47.5525 49.9083 47.6854 49.9584L49.0131 50.4632C51.9191 51.5682 54.796 51.5601 57.5633 50.4387C57.8617 50.3174 58.2009 50.462 58.3222 50.7604C58.4434 51.0588 58.2989 51.398 58.0004 51.5193C54.9522 52.7549 51.7886 52.7665 48.5981 51.5531L47.4767 51.1264L46.1759 51.6172C43.1265 52.7689 39.7716 52.7595 36.7292 51.5915L35.4715 51.1089L34.2009 51.5962C32.6704 52.1825 31.0606 52.4763 29.4519 52.4763H29.4566Z" fill="#002D59"/>
<path d="M29.4574 54.9429C27.8592 54.9429 26.2623 54.6538 24.7411 54.0756L23.4821 53.5977L22.9599 53.8145C20.8839 54.6771 18.605 54.9988 16.3704 54.7436C16.051 54.7074 15.8202 54.4183 15.8575 54.0989C15.8948 53.7795 16.1827 53.5487 16.5021 53.586C18.5397 53.818 20.6181 53.5243 22.5123 52.7386L23.249 52.4332C23.3866 52.3761 23.5404 52.3737 23.6791 52.4262L25.1537 52.9869C27.9397 54.0465 31.0054 54.0418 33.7879 52.9752L35.2671 52.4087C35.4012 52.3574 35.5504 52.3574 35.6844 52.4087L37.1508 52.9717C39.9263 54.0372 42.9862 54.0453 45.7675 52.995L47.2747 52.4262C47.4076 52.3761 47.5545 52.3761 47.6874 52.4262L49.0151 52.9309C50.5945 53.5312 52.3827 53.6956 54.6429 53.4473C54.9623 53.4124 55.2502 53.6432 55.2864 53.9625C55.3214 54.2831 55.0905 54.5699 54.7712 54.606C52.3547 54.8718 50.3358 54.6806 48.6024 54.0208L47.481 53.5942L46.1801 54.0849C43.1307 55.2366 39.7771 55.2273 36.7335 54.0593L35.4758 53.5767L34.2052 54.064C32.6746 54.6503 31.0648 54.944 29.4562 54.944L29.4574 54.9429Z" fill="#002D59"/>
<path d="M29.4566 57.4094C27.8584 57.4094 26.2614 57.1203 24.7402 56.5421L23.4813 56.0642L22.9591 56.281C21.9916 56.6832 20.9775 56.9688 19.9435 57.1331C19.6253 57.1844 19.3269 56.9664 19.2767 56.6482C19.2266 56.33 19.4434 56.0316 19.7617 55.9814C20.7047 55.8322 21.6302 55.5711 22.5126 55.2039L23.2482 54.8985C23.3857 54.8414 23.5396 54.8391 23.6783 54.8915L25.1529 55.4522C27.9389 56.5118 31.0046 56.5071 33.787 55.4406L35.2663 54.874C35.4003 54.8227 35.5495 54.8227 35.6836 54.874L37.15 55.4371C39.9255 56.5025 42.9854 56.5106 45.7667 55.4604L47.2739 54.8915C47.4068 54.8414 47.5536 54.8414 47.6865 54.8915L49.0142 55.3963C49.66 55.6422 50.2464 55.8136 50.8607 55.9383C51.1766 56.0024 51.3806 56.309 51.3164 56.6249C51.2523 56.9408 50.9458 57.1448 50.6299 57.0807C49.9514 56.9443 49.3068 56.7543 48.5993 56.4862L47.4779 56.0595L46.177 56.5503C43.1276 57.702 39.7739 57.6926 36.7304 56.5246L35.4726 56.042L34.202 56.5293C32.6715 57.1156 31.0617 57.4094 29.4531 57.4094H29.4566Z" fill="#002D59"/>
<path d="M55.1252 19.3012L12.3695 29.8039C11.4066 30.0405 11.0196 31.2004 11.6479 31.9674L14.8326 35.8584C16.3176 37.6733 18.7143 38.473 20.992 37.9135L42.1618 32.7134C46.4759 31.6538 50.1944 28.9285 52.5048 25.1342L55.6346 19.9936C55.8503 19.6392 55.5297 19.2009 55.1264 19.3L55.1252 19.3012Z" fill="white"/>
<path d="M19.5553 38.67C17.5806 38.67 15.6585 37.7899 14.3797 36.2267L11.1951 32.3357C10.7731 31.8193 10.6472 31.1339 10.8582 30.5009C11.0692 29.8679 11.5821 29.3959 12.229 29.2373L54.9848 18.7346C55.3986 18.6332 55.8287 18.7894 56.0793 19.1333C56.3311 19.4771 56.351 19.9341 56.1295 20.2978L52.9996 25.4384C50.5925 29.3912 46.7924 32.176 42.2976 33.2799L21.1278 38.4799C20.6067 38.6082 20.0787 38.67 19.553 38.67H19.5553ZM54.9859 19.9352L12.5076 30.3704C12.2477 30.4345 12.0495 30.6175 11.9644 30.8716C11.8793 31.1257 11.9283 31.3915 12.0985 31.599L15.2831 35.49C16.619 37.1219 18.8046 37.8516 20.8527 37.3481L42.0225 32.148C46.2154 31.1176 49.7614 28.5193 52.0065 24.8322L54.9871 19.9364L54.9859 19.9352Z" fill="#002D59"/>
<path d="M26.1819 27.0109L25.2133 22.4275C25.0979 21.8808 25.3497 21.3318 25.8404 21.0625L25.8544 21.0555L39.0731 14.2725C39.6478 13.9624 40.3729 14.1477 40.7284 14.6956L45.6172 22.2375L26.1819 27.0121V27.0109ZM26.3964 22.086C26.3626 22.107 26.3451 22.1466 26.3533 22.1851L27.0737 25.5912L43.7475 21.495L39.7492 15.3286C39.7224 15.2878 39.6676 15.2738 39.6257 15.2971L39.6117 15.3041L26.3976 22.0848L26.3964 22.086Z" fill="#002D59"/>
<path d="M13.236 34.8291L11.1599 32.3031C10.7426 31.7949 10.6179 31.12 10.8242 30.4963C11.0317 29.8727 11.5364 29.4076 12.1741 29.2502L53.7851 19.0284L44.9843 25.632C43.1227 27.0285 41.0338 28.017 38.7736 28.5706L13.2336 34.828L13.236 34.8291ZM48.5209 21.523L12.4538 30.3833C12.2032 30.445 12.0132 30.6211 11.9316 30.8647C11.85 31.1095 11.8978 31.3636 12.061 31.5629L13.6708 33.5224L38.4973 27.4388C40.6037 26.9224 42.5515 26.0015 44.286 24.6994L48.5198 21.523H48.5209Z" fill="#002D59"/>
<path d="M17.6906 29.0974L16.7452 25.2507C16.5366 24.4009 17.0576 23.5407 17.9074 23.332L21.5373 22.4403C22.3871 22.2316 23.2473 22.7527 23.456 23.6025L24.4014 27.4492L17.6906 29.0974ZM21.9161 23.5605C21.8835 23.5605 21.8497 23.564 21.8159 23.5722L18.186 24.4639C17.961 24.5198 17.8223 24.7472 17.8782 24.9733L18.545 27.687L22.9921 26.5947L22.3253 23.8799C22.2787 23.6887 22.1061 23.5593 21.9161 23.5593V23.5605Z" fill="#002D59"/>
<path d="M19.4951 47.7938L23.6694 45.9334L26.3889 46.9825L35.206 44.2688H35.8646L40.7034 45.79L47.0225 44.4483L47.7464 44.0858L51.9917 45.3273L59.6281 44.0858L61.3789 44.5323C61.3789 44.5323 60.5583 46.2633 59.9358 47.2448C59.0312 48.6727 57.3818 50.5262 57.3818 50.5262L47.2533 49.7463L25.6848 50.2732H19.0137L19.4963 47.7927L19.4951 47.7938Z" fill="white"/>
<path d="M29.6456 47.2774C28.0475 47.2774 26.4505 46.9883 24.9293 46.4101L23.6704 45.9322L23.1482 46.149C19.7269 47.5688 15.8604 47.4919 12.5021 45.945C11.7082 46.2784 10.8818 46.5337 10.039 46.7062L9.80469 45.565C10.6533 45.3913 11.4844 45.1244 12.2771 44.7735L12.5242 44.6639L12.8063 44.8003C15.9117 46.2959 19.5182 46.3961 22.7017 45.0731L23.6517 44.6791L25.3431 45.3225C28.1279 46.381 31.1948 46.3775 33.9773 45.3109L35.6652 44.6639L37.3402 45.3074C40.1157 46.3728 43.1756 46.381 45.9569 45.3307L47.6704 44.6838L49.2045 45.2666C52.0697 46.3565 55.2135 46.3227 58.0554 45.171L59.3038 44.6651L61.8334 45.5568L61.4464 46.6561L59.333 45.9112L58.4937 46.2516C55.3779 47.514 51.9321 47.5513 48.7906 46.3565L47.6693 45.9299L46.3684 46.4206C43.319 47.5723 39.9642 47.563 36.9218 46.395L35.664 45.9124L34.3934 46.3996C32.8629 46.986 31.2531 47.2797 29.6445 47.2797L29.6456 47.2774Z" fill="#002D59"/>
<path d="M29.6438 49.8769C28.0457 49.8769 26.4487 49.5878 24.9275 49.0096L23.6698 48.5317L23.1464 48.7485C19.7263 50.1695 15.8598 50.0925 12.5014 48.5433C12.1879 48.6751 11.865 48.7951 11.5409 48.9035C11.4815 48.9234 11.4232 48.942 11.3638 48.9607L11.0117 47.8498C11.0653 47.8323 11.119 47.8148 11.1726 47.7973C11.5468 47.6726 11.9186 47.5292 12.2753 47.3707L12.5189 47.2634L12.7999 47.3952C15.9087 48.8931 19.5153 48.9933 22.6988 47.6714L23.6406 47.2763L23.8843 47.366L25.3413 47.9209C28.1261 48.9793 31.193 48.9746 33.9755 47.9092L35.6634 47.2611L37.3385 47.9046C40.1151 48.97 43.175 48.9781 45.9551 47.9279L47.6687 47.2809L49.2027 47.8638C52.0539 48.949 55.1838 48.9199 58.0163 47.7822L58.0338 47.7752C58.0408 47.7717 58.0501 47.7682 58.0595 47.7647L59.3021 47.2611L60.1973 47.577L59.8092 48.6762L59.3312 48.5072L58.4721 48.8546C58.4651 48.8581 58.4558 48.8616 58.4453 48.8651C55.3411 50.11 51.9129 50.1403 48.7889 48.9513L47.6675 48.5247L46.3666 49.0154C43.3184 50.1671 39.9636 50.1578 36.92 48.9898L35.6622 48.5072L34.3916 48.9945C32.8611 49.5808 31.2513 49.8745 29.6415 49.8745L29.6438 49.8769Z" fill="#002D59"/>
<path d="M64.6412 26.5399L7.51562 41.0374L7.80236 42.1672L64.9279 27.6698L64.6412 26.5399Z" fill="#002D59"/>
</g>
<defs>
<filter id="filter0_d_558_423" x="0" y="0" width="70.998" height="71" filterUnits="userSpaceOnUse" color-interpolation-filters="sRGB">
<feFlood flood-opacity="0" result="BackgroundImageFix"/>
<feColorMatrix in="SourceAlpha" type="matrix" values="0 0 0 0 0 0 0 0 0 0 0 0 0 0 0 0 0 0 127 0" result="hardAlpha"/>
<feOffset dy="4"/>
<feGaussianBlur stdDeviation="2"/>
<feComposite in2="hardAlpha" operator="out"/>
<feColorMatrix type="matrix" values="0 0 0 0 0 0 0 0 0 0 0 0 0 0 0 0 0 0 0.25 0"/>
<feBlend mode="normal" in2="BackgroundImageFix" result="effect1_dropShadow_558_423"/>
<feBlend mode="normal" in="SourceGraphic" in2="effect1_dropShadow_558_423" result="shape"/>
</filter>
</defs>
</svg>
