<svg width="63" height="63" viewBox="0 0 63 63" fill="none" xmlns="http://www.w3.org/2000/svg">
<path fill-rule="evenodd" clip-rule="evenodd" d="M61.2896 31.7828C61.2896 47.1033 49.6125 59.6967 34.673 61.1462C33.7241 61.238 32.7613 61.2856 31.788 61.2856C30.8147 61.2856 29.8507 61.238 28.9006 61.1451C13.9622 59.6956 2.28516 47.1021 2.28516 31.7828C2.28516 28.8734 2.70676 26.0627 3.49189 23.4077C3.74973 22.5343 4.04706 21.6771 4.38155 20.8397C8.72881 9.96519 19.3606 2.28113 31.788 2.28113C44.2153 2.28113 54.9656 10.0511 59.2652 21.0221C59.6102 21.9024 59.9145 22.8049 60.1746 23.7236C60.9017 26.2857 61.2896 28.9884 61.2896 31.7828Z" fill="white"/>
<path d="M31.7886 61.8662C30.8072 61.8662 29.8165 61.8174 28.8444 61.7234C21.4449 61.0056 14.5959 57.5724 9.5622 52.0567C4.49485 46.5039 1.70508 39.3042 1.70508 31.7827C1.70508 28.8779 2.11855 26.0045 2.93504 23.2426C3.1952 22.36 3.50066 21.4784 3.84212 20.6236C6.04885 15.1021 9.81191 10.3925 14.7248 7.00344C19.755 3.53423 25.6551 1.70032 31.7886 1.70032C37.9222 1.70032 43.885 3.55397 48.9326 7.06035C53.864 10.4866 57.6248 15.2415 59.8071 20.8094C60.159 21.7095 60.4715 22.6364 60.7351 23.5644C61.49 26.2229 61.8721 28.9871 61.8721 31.7815C61.8721 39.3042 59.0812 46.5051 54.0139 52.0567C48.9802 57.5724 42.1312 61.0056 34.7305 61.7234C33.7561 61.8174 32.7665 61.8651 31.7898 61.8651L31.7886 61.8662ZM31.7886 2.86175C25.892 2.86175 20.2195 4.62482 15.3856 7.96046C10.6621 11.2195 7.0442 15.7467 4.92226 21.0557C4.59473 21.8768 4.30089 22.7235 4.05002 23.5725C3.26489 26.2275 2.86651 28.9894 2.86651 31.7827C2.86651 39.0138 5.54943 45.936 10.4205 51.2739C15.2602 56.577 21.8432 59.8767 28.957 60.5677C30.8223 60.7501 32.7375 60.7501 34.6179 60.5689C41.7317 59.879 48.3159 56.5782 53.1556 51.2751C58.0266 45.9371 60.7095 39.015 60.7095 31.7827C60.7095 29.0963 60.3414 26.4378 59.6166 23.8826C59.3634 22.9895 59.0638 22.0986 58.7258 21.2345C56.6271 15.8803 53.0115 11.31 48.2706 8.01505C43.4181 4.64456 37.7201 2.86292 31.7898 2.86292L31.7886 2.86175Z" fill="#002F5B"/>
<path d="M25.9143 52.5968C24.322 52.5968 22.7308 52.3088 21.2151 51.7327L19.9608 51.2565L19.4405 51.4725C16.2024 52.8175 12.3441 52.8163 9.12109 51.4702L9.56825 50.3982C12.5125 51.6282 16.0363 51.6282 18.9945 50.3994L19.941 50.0068L21.6263 50.6479C24.4021 51.7037 27.4567 51.699 30.229 50.6363L31.9108 49.9917L33.5798 50.6328C36.3452 51.6944 39.3939 51.7025 42.1651 50.656L43.8724 50.0114L45.4009 50.5933C48.2964 51.6944 51.1628 51.6862 53.92 50.5689L54.3567 51.6456C51.3184 52.8767 48.1674 52.8883 44.9886 51.6793L43.8713 51.2542L42.5751 51.7431C39.5368 52.8906 36.1942 52.8814 33.1628 51.7176L31.9096 51.2368L30.6437 51.7222C29.1187 52.3064 27.5148 52.5991 25.912 52.5991L25.9143 52.5968Z" fill="#002F5B"/>
<path d="M40.2856 16.0243H23.7316C22.9619 16.0243 22.3379 16.6483 22.3379 17.418V46.1473C22.3379 46.917 22.9619 47.541 23.7316 47.541H40.2856C41.0553 47.541 41.6793 46.917 41.6793 46.1473V17.418C41.6793 16.6483 41.0553 16.0243 40.2856 16.0243Z" fill="white"/>
<path d="M40.2862 48.1218H23.7323C22.644 48.1218 21.7578 47.2356 21.7578 46.1473V17.418C21.7578 16.3298 22.644 15.4436 23.7323 15.4436H40.2862C41.3745 15.4436 42.2607 16.3298 42.2607 17.418V46.1473C42.2607 47.2356 41.3745 48.1218 40.2862 48.1218ZM23.7323 16.605C23.2839 16.605 22.9192 16.9697 22.9192 17.418V46.1473C22.9192 46.5957 23.2839 46.9603 23.7323 46.9603H40.2862C40.7345 46.9603 41.0992 46.5957 41.0992 46.1473V17.418C41.0992 16.9697 40.7345 16.605 40.2862 16.605H23.7323Z" fill="#002F5B"/>
<path d="M38.9302 31.4923H25.0801V32.6537H38.9302V31.4923Z" fill="#002F5B"/>
<path d="M38.3531 20.792H25.6621V28.1706H38.3531V20.792Z" fill="white"/>
<path d="M38.9345 28.7512H25.082V20.2112H38.9345V28.7512ZM26.2435 27.5898H37.7731V21.3726H26.2435V27.5898Z" fill="#002F5B"/>
<path d="M52.0501 40.1741L43.9201 54.5573H19.6437L11.5137 40.1741H52.0501Z" fill="white"/>
<path d="M44.2585 55.1379H19.3038L10.5176 39.5933H53.0447L44.2585 55.1379ZM19.9821 53.9765H43.5814L51.0552 40.7547H12.5083L19.9821 53.9765Z" fill="#002F5B"/>
<path d="M46.2502 55.6991H38.6962L31.7892 56.4006L25.7543 55.9476L18.4617 55.3901L17.8926 53.9441C18.3409 53.8152 18.7846 53.6596 19.2201 53.4784L19.953 53.1741L21.4222 53.7328C24.3281 54.8373 27.5383 54.8326 30.4396 53.7211L31.9146 53.1555L33.3745 53.7165C36.27 54.828 39.4721 54.8373 42.3733 53.7409L43.8751 53.1741L45.198 53.677C45.2746 53.706 45.3513 53.7339 45.4291 53.7618L46.2502 55.6991Z" fill="white"/>
<path d="M25.9152 55.1391C24.3229 55.1391 22.7317 54.8511 21.2161 54.275L19.9617 53.7988L19.4414 54.0148C17.3729 54.8743 15.1023 55.1948 12.877 54.9417L13.0082 53.7872C15.0395 54.0183 17.1092 53.7256 18.9966 52.9428L19.9431 52.5503L21.6284 53.1914C24.4042 54.2471 27.4588 54.2425 30.2311 53.1798L31.9129 52.5352L33.5819 53.1763C36.3473 54.2378 39.396 54.246 42.1672 53.1995L43.8745 52.5549L45.403 53.1368C46.9767 53.7349 48.7584 53.8987 51.0104 53.6513L51.137 54.8058C48.7282 55.0706 46.7177 54.8801 44.9907 54.2227L43.8734 53.7976L42.5772 54.2866C39.5389 55.4341 36.1963 55.4248 33.1649 54.2611L31.9117 53.7802L30.6458 54.2657C29.1208 54.8499 27.5169 55.1426 25.9141 55.1426L25.9152 55.1391Z" fill="#002F5B"/>
<path d="M25.9155 57.6827C24.3232 57.6827 22.732 57.3947 21.2164 56.8186L19.962 56.3424L19.4417 56.5585C18.4777 56.9592 17.4672 57.2437 16.437 57.4075L16.2559 56.26C17.1955 56.1113 18.1176 55.8512 18.9969 55.4853L19.9434 55.0927L21.6287 55.7338C24.4045 56.7896 27.4591 56.7849 30.2314 55.7222L31.9132 55.0776L33.5822 55.7187C36.3476 56.7803 39.3963 56.7884 42.1675 55.742L43.8748 55.0974L45.4033 55.6793C46.1977 55.9812 46.9015 56.1729 47.6843 56.2995L47.4985 57.4458C46.646 57.3076 45.8481 57.0916 44.9898 56.7652L43.8725 56.3401L42.5763 56.8291C39.538 57.9766 36.1954 57.9673 33.1641 56.8035L31.9109 56.3227L30.6449 56.8082C29.1199 57.3924 27.516 57.6851 25.9132 57.6851L25.9155 57.6827Z" fill="#002F5B"/>
<path d="M42.0625 38.1149V36.9534C45.1415 36.9534 47.6467 34.4482 47.6467 31.3693V20.1718C47.6467 19.0116 47.4074 17.8861 46.9347 16.8269L43.7861 9.76653L44.8465 9.29382L47.9951 16.3542C48.534 17.5633 48.8081 18.8478 48.8081 20.1718V31.3693C48.8081 35.0893 45.7814 38.1149 42.0625 38.1149Z" fill="#002F5B"/>
<path d="M47.9309 22.778L46.2318 21.7711C44.2678 20.6073 43.5767 18.1207 44.6592 16.1102L44.6743 16.0835L45.946 13.9976L46.9379 14.6027L45.6743 16.6747C44.8984 18.1323 45.4013 19.9302 46.8229 20.7722L48.5221 21.7792L47.9298 22.778H47.9309Z" fill="#002F5B"/>
<path d="M31.5006 63C30.4726 63 29.4352 62.9496 28.4177 62.8499C20.6694 62.0986 13.4991 58.5033 8.22769 52.7278C2.9223 46.9147 0 39.3762 0 31.5C0 28.4581 0.433715 25.449 1.28825 22.5583C1.56137 21.6334 1.88138 20.7109 2.23773 19.8164C4.54932 14.035 8.48909 9.10349 13.6327 5.55517C18.9006 1.9201 25.0781 0 31.5006 0C37.9231 0 44.1662 1.9412 49.4517 5.61261C54.6152 9.20078 58.5527 14.1792 60.8385 20.0099C61.2077 20.9523 61.5347 21.9229 61.809 22.8947C62.5991 25.6787 63 28.573 63 31.4988C63 39.3762 60.0777 46.9147 54.7723 52.729C49.5009 58.5045 42.3306 62.0986 34.5811 62.8511C33.5601 62.9496 32.5251 63 31.5018 63H31.5006ZM31.5006 1.16519C25.316 1.16519 19.3671 3.01496 14.2962 6.51288C9.34245 9.93108 5.54686 14.6798 3.32202 20.2478C2.97857 21.1082 2.67028 21.9968 2.4077 22.8877C1.58364 25.6717 1.16634 28.5694 1.16634 31.5C1.16634 39.0843 3.97963 46.345 9.08925 51.9436C14.1649 57.5058 21.0703 60.9674 28.5314 61.6906C30.4878 61.8817 32.497 61.8829 34.4686 61.6918C41.9308 60.9674 48.8351 57.5058 53.9119 51.9448C59.0215 46.3462 61.8348 39.0866 61.8348 31.5012C61.8348 28.6831 61.4492 25.8956 60.6884 23.2147C60.4235 22.2793 60.1093 21.3439 59.753 20.4366C57.5528 14.8216 53.7607 10.0272 48.787 6.57149C43.6985 3.03606 37.7215 1.16753 31.5018 1.16753L31.5006 1.16519Z" fill="white"/>
</svg>
