<svg width="100" height="100" viewBox="0 0 100 100" fill="none" xmlns="http://www.w3.org/2000/svg">
<path fill-rule="evenodd" clip-rule="evenodd" d="M99.0326 49.9989C99.0326 75.4627 79.6248 96.3939 54.7947 98.803C53.2176 98.9555 51.6173 99.0347 49.9997 99.0347C48.382 99.0347 46.7798 98.9555 45.2008 98.8011C20.3726 96.392 0.964844 75.4608 0.964844 49.9989C0.964844 45.1633 1.66556 40.4918 2.97048 36.0789C3.39902 34.6272 3.89319 33.2026 4.44913 31.8108C11.6744 13.7365 29.3449 0.965088 49.9997 0.965088C70.6544 0.965088 88.5218 13.8794 95.668 32.1139C96.2413 33.5771 96.747 35.077 97.1794 36.6039C98.3878 40.8624 99.0326 45.3544 99.0326 49.9989Z" fill="white"/>
<path d="M50 100C48.3689 100 46.7242 99.9189 45.1066 99.7626C32.8063 98.5696 21.425 92.8633 13.0588 83.6959C4.63864 74.4687 0 62.5022 0 49.999C0 45.1711 0.687206 40.3953 2.04617 35.8049C2.4805 34.3358 2.98626 32.8726 3.55378 31.4518C7.22145 22.2748 13.4758 14.447 21.6412 8.81416C29.9996 3.04809 39.8058 0 50 0C60.1942 0 70.1046 3.0809 78.4939 8.90875C86.6902 14.6034 92.9407 22.5064 96.5678 31.7607C97.1527 33.2548 97.672 34.7953 98.1102 36.3396C99.3649 40.7583 100 45.3545 100 49.9971C100 62.5002 95.3614 74.4667 86.9392 83.6959C78.5731 92.8633 67.1898 98.5696 54.8896 99.7626C53.2681 99.9189 51.6234 99.9981 50.0019 99.9981L50 100ZM50 1.93039C40.1996 1.93039 30.7718 4.86072 22.7376 10.4048C14.8869 15.8215 8.87383 23.3461 5.34708 32.1699C4.80272 33.5347 4.31434 34.942 3.89738 36.3531C2.59246 40.766 1.93035 45.3564 1.93035 49.999C1.93035 62.0176 6.38947 73.5228 14.4854 82.3948C22.5291 91.209 33.4704 96.6932 45.2938 97.8418C48.3959 98.1449 51.5771 98.1468 54.7023 97.8418C66.5257 96.6952 77.4689 91.209 85.5127 82.3948C93.6086 73.5228 98.0677 62.0176 98.0677 49.9971C98.0677 45.5321 97.4558 41.1134 96.2513 36.8647C95.8304 35.3802 95.3324 33.8996 94.7687 32.4634C91.2806 23.5643 85.2714 15.9663 77.3917 10.4917C69.3286 4.88968 59.8564 1.92846 50 1.92846V1.93039Z" fill="#002D59"/>
<path d="M40.302 79.9973C37.6555 79.9973 35.0109 79.5186 32.4918 78.5611L30.4089 77.7696L29.5422 78.1287C23.8786 80.4818 17.4736 80.3544 11.9142 77.789C11.393 78.0071 10.8603 78.2078 10.3236 78.3854C10.2271 78.4183 10.1287 78.4491 10.0321 78.48L9.44531 76.6404C9.53604 76.6114 9.62484 76.5825 9.71363 76.5535C10.3313 76.347 10.9471 76.1095 11.5397 75.847C11.7965 75.7331 12.088 75.7369 12.3408 75.8566L12.4065 75.8875C17.5547 78.37 23.5272 78.5341 28.799 76.345L30.0016 75.847C30.2314 75.7466 30.49 75.7389 30.7255 75.8257L30.7622 75.8393L33.1751 76.7581C37.7868 78.5109 42.8655 78.5051 47.4733 76.7388L49.9229 75.7987C50.1449 75.7138 50.392 75.7138 50.614 75.7987L53.0423 76.7311C57.6404 78.4955 62.7076 78.509 67.3115 76.7697L69.8074 75.8277C70.0275 75.7447 70.2707 75.7447 70.4908 75.8277L72.6895 76.6635C77.4111 78.4607 82.5941 78.4125 87.2849 76.5284C87.2945 76.5245 87.3042 76.5207 87.3138 76.5168C87.3273 76.511 87.3408 76.5052 87.3563 76.4995L89.0762 75.8026C89.2944 75.7138 89.5376 75.708 89.7596 75.7871L90.8966 76.1887L90.2537 78.009L89.4623 77.7291L88.0724 78.2928C88.0609 78.2966 88.0512 78.3005 88.0396 78.3044C88.0261 78.3102 88.0107 78.316 87.9952 78.3217C82.8547 80.3815 77.1775 80.4336 72.0042 78.4646L70.1472 77.7581L67.9929 78.5708C62.945 80.478 57.3895 80.4625 52.3493 78.5283L50.2665 77.7291L48.1624 78.536C45.6259 79.507 42.962 79.9915 40.2962 79.9915L40.302 79.9973Z" fill="#002D59"/>
<path d="M40.3018 75.6946C37.6553 75.6946 35.0107 75.2159 32.4916 74.2584L30.4069 73.467L29.5421 73.826C23.8765 76.1772 17.4735 76.0498 11.9121 73.4882C10.5976 74.0384 9.22896 74.463 7.83331 74.7487L7.44531 72.8589C8.85061 72.5693 10.227 72.1292 11.5396 71.5482C11.7983 71.4323 12.0955 71.4381 12.3503 71.5617L12.416 71.5926C17.5584 74.0692 23.5309 74.2333 28.8027 72.0443L30.0208 71.5385C30.2486 71.4439 30.5034 71.4401 30.7331 71.5269L33.175 72.4554C37.7866 74.2102 42.8654 74.2024 47.4731 72.4361L49.9227 71.498C50.1447 71.413 50.3918 71.413 50.6138 71.498L53.0422 72.4303C57.6383 74.1947 62.7055 74.2082 67.3113 72.4689L69.8073 71.5269C70.0273 71.4439 70.2706 71.4439 70.4906 71.5269L72.6893 72.3628C77.436 74.1677 82.6403 74.1117 87.3465 72.2045L89.0741 71.5038C89.2923 71.415 89.5355 71.4092 89.7575 71.4883L93.6027 72.8434L92.9599 74.6638L89.4602 73.4303L88.0704 73.994C82.9105 76.0846 77.2044 76.1463 72.0021 74.1677L70.1451 73.4612L67.9908 74.2739C62.941 76.1811 57.3874 76.1656 52.3472 74.2314L50.2644 73.4322L48.1603 74.2391C45.6258 75.2101 42.9599 75.6966 40.2961 75.6966L40.3018 75.6946Z" fill="#002D59"/>
<path d="M85.8811 57.7519L83.1149 52.9626L82.7481 52.3275L79.9549 47.49L79.6152 46.9012C79.4048 46.5364 78.8778 46.5364 78.6674 46.9012L75.5344 52.3275L72.4034 57.7519C72.193 58.1168 72.4555 58.5743 72.8763 58.5743H76.2564C71.4749 66.985 62.7864 72.8842 52.6578 73.8031V46.6136H65.3807C66.1471 46.6136 66.8401 46.3028 67.342 45.8009C67.8439 45.299 68.1547 44.606 68.1547 43.8396C68.1547 42.3069 66.9134 41.0656 65.3807 41.0656H52.6578V35.2841C52.8836 35.2165 53.1076 35.1413 53.3296 35.0563C58.3427 33.153 60.8618 27.5471 58.9604 22.5358C57.0571 17.5226 51.4513 15.0034 46.4382 16.9049C41.427 18.8082 38.906 24.4141 40.8093 29.4273C41.925 32.3654 44.3148 34.4483 47.11 35.2822V41.0656H34.3909C32.8582 41.0656 31.6169 42.3069 31.6169 43.8396C31.6169 45.3723 32.8582 46.6136 34.3909 46.6136H47.11V73.8031C36.9833 72.8842 28.2948 66.985 23.5133 58.5743H26.8934C27.3142 58.5743 27.5767 58.1168 27.3663 57.7519L24.2333 52.3275L21.1004 46.9012C20.89 46.5364 20.3649 46.5364 20.1526 46.9012L19.8148 47.4861L17.0215 52.3275L16.6528 52.9665L13.8886 57.7519C13.6782 58.1168 13.9407 58.5743 14.3615 58.5743H18.7743C23.967 69.3555 34.5993 77.023 47.11 78.0171V82.5323C47.11 84.0651 48.9033 85.3063 49.8839 85.3063C50.8645 85.3063 52.6578 84.0651 52.6578 82.5323V78.0171C65.1703 77.023 75.8008 69.3555 80.9934 58.5743H85.4062C85.829 58.5743 86.0915 58.1168 85.8811 57.7519ZM51.6772 30.6994C50.102 31.2979 48.4168 31.0566 47.11 30.1975C46.2509 29.6358 45.558 28.8057 45.1661 27.773C44.309 25.5183 45.1738 23.0339 47.11 21.7656C47.413 21.5648 47.7412 21.395 48.0925 21.2618C49.6657 20.6633 51.3509 20.9046 52.6578 21.7637C53.5168 22.3254 54.2117 23.1555 54.6036 24.1882C55.4607 26.4449 54.5939 28.9312 52.6578 30.1995C52.3567 30.3983 52.0285 30.5662 51.6772 30.6994Z" fill="white"/>
<path d="M49.8854 86.2712C48.4145 86.2712 46.1463 84.6651 46.1463 82.5321V78.8971C34.2013 77.6404 23.592 70.3069 18.1755 59.5392H14.363C13.8245 59.5392 13.3245 59.2496 13.0542 58.7844C12.784 58.3172 12.784 57.7381 13.0542 57.271L19.3182 46.4203C19.5904 45.9531 20.0923 45.6635 20.629 45.6635H20.6328C21.1772 45.6635 21.6656 45.9473 21.9397 46.4203L28.2056 57.271C28.4758 57.7381 28.4758 58.3192 28.2056 58.7863C27.9373 59.2516 27.4354 59.5411 26.8968 59.5411H25.2309C29.9255 66.7994 37.5813 71.6369 46.1482 72.7295V47.5785H34.3943C32.3327 47.5785 30.6552 45.901 30.6552 43.8393C30.6552 41.7777 32.3327 40.1002 34.3943 40.1002H46.1482V35.9768C43.2643 34.9036 41.0135 32.6759 39.9112 29.7706C37.8226 24.269 40.5985 18.0918 46.1 16.0031C51.6034 13.9164 57.7786 16.6923 59.8672 22.1939C61.954 27.6955 59.1781 33.8708 53.6766 35.9595C53.6612 35.9653 53.6438 35.9711 53.6283 35.9788V40.1021H65.3861C67.4477 40.1021 69.1252 41.7796 69.1252 43.8413C69.1252 44.8393 68.7353 45.7794 68.0307 46.4859C67.3242 47.1924 66.386 47.5804 65.3861 47.5804H53.6283V72.7295C62.1952 71.6389 69.853 66.8013 74.5476 59.5411H72.8817C72.3431 59.5411 71.8432 59.2516 71.5729 58.7863C71.3027 58.3192 71.3027 57.7401 71.5729 57.2729L77.8369 46.4222C78.1052 45.955 78.6071 45.6655 79.1476 45.6655C79.6862 45.6655 80.1881 45.955 80.4583 46.4222L86.7242 57.2729C86.9926 57.7401 86.9926 58.3192 86.7242 58.7863C86.454 59.2535 85.9521 59.5431 85.4135 59.5431H81.6011C76.1845 70.3088 65.5753 77.6443 53.6303 78.901V82.5359C53.6303 84.669 51.3621 86.2751 49.8912 86.2751L49.8854 86.2712ZM15.0869 57.6088H19.3819L19.6445 58.1551C24.8062 68.8726 35.3595 76.1154 47.1867 77.0555L48.0747 77.127V82.534C48.0747 83.4837 49.3777 84.3428 49.8835 84.3428C50.3892 84.3428 51.6922 83.4818 51.6922 82.534V77.127L52.5802 77.0555C64.4074 76.1154 74.9607 68.8746 80.1224 58.1551L80.385 57.6088H84.6819L79.1399 48.0109L73.5998 57.6088H77.9141L77.0937 59.0508C72.0246 67.9673 62.923 73.8414 52.7442 74.7642L51.6922 74.8588V45.6481H65.3803C65.8629 45.6481 66.3166 45.4589 66.6582 45.1172C66.9999 44.7756 67.1891 44.3219 67.1891 43.8393C67.1891 42.8413 66.3783 42.0306 65.3803 42.0306H51.6922V34.5657L52.3813 34.3592C52.5898 34.2974 52.7925 34.2279 52.9855 34.1546C57.4929 32.4423 59.7688 27.3847 58.0585 22.8772C56.3482 18.3717 51.2887 16.0977 46.7814 17.8061C42.2759 19.5183 40.002 24.576 41.7123 29.0834C42.6871 31.6489 44.7545 33.5716 47.3856 34.3553L48.0747 34.5619V42.0306H34.3904C33.3925 42.0306 32.5817 42.8413 32.5817 43.8393C32.5817 44.8373 33.3925 45.6481 34.3904 45.6481H48.0747V74.8588L47.0227 74.7622C36.8458 73.8395 27.7423 67.9653 22.6751 59.0489L21.8547 57.6069H26.1691L20.627 48.009L15.085 57.6069L15.0869 57.6088ZM49.8912 31.9906C48.7291 31.9906 47.5747 31.6566 46.5806 31.0022C45.5189 30.3092 44.7178 29.3093 44.2642 28.1124C43.2701 25.4968 44.2449 22.4873 46.5826 20.9546C46.9455 20.7133 47.3412 20.5125 47.7523 20.3561C49.5476 19.6728 51.5802 19.8967 53.1901 20.9546C54.2518 21.6495 55.0549 22.6494 55.5085 23.8424C56.5026 26.46 55.5278 29.4714 53.1882 31.0042C52.8292 31.2416 52.4373 31.4424 52.0223 31.5987C51.3351 31.8593 50.6112 31.9887 49.8912 31.9887V31.9906ZM49.8815 21.8985C49.3931 21.8985 48.9028 21.9854 48.4376 22.163C48.1596 22.2692 47.8933 22.4043 47.6442 22.5684C46.0556 23.6088 45.3954 25.6531 46.0691 27.4291C46.3779 28.2418 46.9204 28.9193 47.6385 29.3884C48.733 30.1085 50.1132 30.259 51.3351 29.7957C51.6169 29.6876 51.8833 29.5525 52.1265 29.3923C53.7152 28.3518 54.3773 26.3075 53.7017 24.5296C53.3948 23.7189 52.8504 23.0413 52.1304 22.5703C51.4548 22.1263 50.6691 21.8985 49.8815 21.8985Z" fill="#002D59"/>
<path d="M28.3861 81.393C28.8127 80.7309 29.8204 81.0474 30.5423 81.364C32.8221 82.362 35.3528 82.5898 37.8333 82.8041C41.277 83.1014 44.9486 83.3562 47.9889 81.7096C48.5081 81.4277 49.0351 81.0841 49.6277 81.0822C49.952 81.0822 50.2647 81.1845 50.5736 81.2829C52.3109 81.837 54.0849 82.281 55.8879 82.5493C60.3856 83.2172 65.0435 82.7655 69.3308 81.2501C69.7903 81.974 66.8098 89.8983 63.6614 89.9272C62.3082 89.9388 50.5659 88.215 49.9984 88.3154C47.5816 88.7439 38.0746 91.8576 31.0307 87.076C30.0404 86.4043 28.888 82.4296 28.3359 81.3679" fill="white"/>
<path d="M39.9927 92.9079C37.3462 92.9079 34.7016 92.4291 32.1825 91.4717L30.0978 90.6802L29.233 91.0392C27.6327 91.7033 25.9514 92.1782 24.2391 92.4504C23.7121 92.5353 23.218 92.1743 23.135 91.6473C23.052 91.1203 23.411 90.6261 23.938 90.5431C25.4997 90.2961 27.0324 89.8636 28.4936 89.2556L29.7136 88.7498C29.9414 88.6552 30.1962 88.6514 30.4259 88.7382L32.8678 89.6667C37.4814 91.4195 42.5582 91.4137 47.1659 89.6474L49.6156 88.7093C49.8375 88.6243 50.0846 88.6243 50.3066 88.7093L52.735 89.6416C57.3312 91.406 62.3983 91.4195 67.0042 89.6803L69.5001 88.7382C69.7202 88.6552 69.9634 88.6552 70.1835 88.7382L72.3821 89.5741C73.4516 89.9814 74.4244 90.2671 75.4398 90.4717C75.9629 90.5779 76.3008 91.0856 76.1946 91.6087C76.0884 92.1319 75.5807 92.4697 75.0576 92.3635C73.9341 92.1376 72.8667 91.823 71.6949 91.379L69.8379 90.6725L67.6837 91.4852C62.6339 93.3924 57.0802 93.377 52.0401 91.4427L49.9572 90.6435L47.8531 91.4504C45.3186 92.4214 42.6528 92.9079 39.9889 92.9079H39.9927Z" fill="#002D59"/>
<path d="M39.9923 84.302C37.3458 84.302 34.7012 83.8233 32.1821 82.8658L30.0973 82.0744L29.2325 82.4334C23.7658 84.7036 17.8319 84.7325 12.5253 82.5164C12.0331 82.3118 11.8014 81.7462 12.0061 81.254C12.2107 80.7617 12.7763 80.5301 13.2685 80.7347C18.0963 82.75 23.5032 82.721 28.4913 80.6497L29.7093 80.144C29.9371 80.0494 30.1919 80.0455 30.4216 80.1324L32.8635 81.0609C37.4771 82.8156 42.5539 82.8079 47.1617 81.0416L49.6113 80.1034C49.8333 80.0185 50.0803 80.0185 50.3023 80.1034L52.7307 81.0358C57.3269 82.8002 62.3941 82.8137 66.9999 81.0744L69.4958 80.1324C69.7159 80.0494 69.9591 80.0494 70.1792 80.1324L72.3779 80.9683C77.1902 82.7983 81.9543 82.7848 86.537 80.9277C87.0312 80.727 87.5929 80.9663 87.7937 81.4605C87.9944 81.9547 87.755 82.5164 87.2609 82.7172C82.213 84.7634 76.974 84.7827 71.6907 82.7732L69.8336 82.0666L67.6794 82.8793C62.6296 84.7866 57.0759 84.7711 52.0358 82.8369L49.9529 82.0377L47.8489 82.8446C45.3143 83.8156 42.6485 84.302 39.9846 84.302H39.9923Z" fill="#002D59"/>
<path d="M39.9928 88.6051C37.3463 88.6051 34.7017 88.1263 32.1826 87.1689L30.0978 86.3774L29.233 86.7365C25.7951 88.1649 22.0212 88.6977 18.3207 88.275C17.7918 88.2151 17.4096 87.7364 17.4714 87.2075C17.5312 86.6785 18.01 86.2963 18.5389 86.3581C21.9131 86.7422 25.355 86.2558 28.4918 84.9528L29.7098 84.447C29.9376 84.3524 30.1924 84.3486 30.4221 84.4354L32.864 85.3639C37.4776 87.1167 42.5544 87.1109 47.1621 85.3446L49.6118 84.4065C49.8338 84.3215 50.0808 84.3215 50.3028 84.4065L52.7312 85.3389C57.3274 87.1032 62.3946 87.1167 67.0004 85.3775L69.4963 84.4354C69.7164 84.3524 69.9596 84.3524 70.1797 84.4354L72.3783 85.2713C74.994 86.2654 77.9551 86.5376 81.6981 86.1265C82.2289 86.0685 82.7038 86.4508 82.7636 86.9797C82.8216 87.5105 82.4393 87.9854 81.9104 88.0453C77.9088 88.4854 74.5654 88.1688 71.695 87.0762L69.838 86.3697L67.6837 87.1824C62.6339 89.0896 57.0803 89.0742 52.0401 87.1399L49.9573 86.3407L47.8532 87.1476C45.3187 88.1186 42.6528 88.6051 39.989 88.6051H39.9928Z" fill="#002D59"/>
</svg>
