<svg width="71" height="72" viewBox="0 0 71 72" fill="none" xmlns="http://www.w3.org/2000/svg">
<g filter="url(#filter0_d_558_100)">
<path d="M35.5006 63.0012C34.4724 63.0012 33.435 62.951 32.4185 62.8508C24.6701 62.0989 17.4988 58.5039 12.2275 52.7291C6.9224 46.9157 4 39.376 4 31.4994C4 28.4569 4.43364 25.4483 5.28809 22.5574C5.56087 21.633 5.88027 20.7097 6.23813 19.8157C8.54971 14.035 12.4898 9.10291 17.634 5.55454C22.9006 1.92107 29.0788 0 35.5006 0C41.9224 0 48.167 1.94088 53.4523 5.61282C58.6163 9.20083 62.554 14.1795 64.8388 20.0103C65.2083 20.9522 65.5347 21.9232 65.8098 22.8954C66.6002 25.6791 67 28.5747 67 31.5006C67 39.3772 64.0776 46.9169 58.7725 52.7302C53.5012 58.5051 46.3299 62.1001 38.5803 62.8519C37.5604 62.951 36.5241 63.0012 35.5006 63.0012ZM35.5006 1.1657C29.3166 1.1657 23.3669 3.01449 18.2961 6.5139C13.3419 9.93172 9.54638 14.6808 7.32107 20.2481C6.97719 21.1096 6.66944 21.9967 6.40716 22.8873C5.58418 25.6721 5.1657 28.5689 5.1657 31.4994C5.1657 39.0846 7.97968 46.3445 13.0889 51.9422C18.1655 57.5037 25.0699 60.9659 32.5316 61.6898C34.4888 61.8809 36.4972 61.8821 38.4684 61.6909C45.9301 60.967 52.8356 57.5049 57.9122 51.9434C63.0215 46.3445 65.8355 39.0846 65.8355 31.4994C65.8355 28.6808 65.4496 25.8936 64.6896 23.2125C64.425 22.2764 64.1102 21.3427 63.7547 20.4346C61.5539 14.8195 57.7619 10.025 52.7878 6.56869C47.6984 3.03314 41.7219 1.16453 35.5017 1.16453L35.5006 1.1657Z" fill="white"/>
<path fill-rule="evenodd" clip-rule="evenodd" d="M65.2443 31.4992C65.2443 46.8759 53.5243 59.5155 38.53 60.9703C37.5776 61.0624 36.6113 61.1102 35.6344 61.1102C34.6576 61.1102 33.69 61.0624 32.7365 60.9692C17.7433 59.5144 6.02344 46.8747 6.02344 31.4992C6.02344 28.5792 6.44658 25.7582 7.23459 23.0934C7.49338 22.2168 7.7918 21.3565 8.12752 20.516C12.4907 9.60164 23.1615 1.8894 35.6344 1.8894C48.1074 1.8894 58.897 9.68791 63.2124 20.6991C63.5586 21.5827 63.8641 22.4884 64.1252 23.4105C64.8549 25.982 65.2443 28.6946 65.2443 31.4992Z" fill="white"/>
<path d="M35.6352 61.6933C34.6502 61.6933 33.6571 61.6443 32.6802 61.5499C25.2524 60.8295 18.3795 57.3837 13.3273 51.8478C8.24257 46.2758 5.44141 39.0496 5.44141 31.4994C5.44141 28.5829 5.85756 25.7001 6.67704 22.9281C6.93932 22.041 7.24474 21.1574 7.58745 20.2994C9.80227 14.7577 13.5803 10.0308 18.51 6.62933C23.5586 3.14856 29.4804 1.30676 35.6352 1.30676C41.7901 1.30676 47.776 3.16721 52.8421 6.68645C57.7916 10.1252 61.5661 14.8976 63.7565 20.4859C64.1108 21.3894 64.4232 22.3196 64.6879 23.251C65.4456 25.9192 65.8291 28.6936 65.8291 31.4983C65.8291 39.0485 63.0279 46.2758 57.942 51.8478C52.8899 57.3837 46.0158 60.8295 38.5879 61.5499C37.6088 61.6443 36.6156 61.6921 35.6364 61.6921L35.6352 61.6933ZM35.6352 2.47246C29.717 2.47246 24.0238 4.24198 19.1721 7.58986C14.4312 10.8608 10.8001 15.4047 8.67038 20.7331C8.34166 21.5572 8.04673 22.407 7.79494 23.2591C7.00693 25.9227 6.6071 28.6959 6.6071 31.4994C6.6071 38.757 9.29986 45.7046 14.1888 51.0621C19.0462 56.3847 25.6534 59.6964 32.7933 60.39C34.6665 60.573 36.5876 60.5742 38.4749 60.39C45.6148 59.6976 52.2231 56.3847 57.0805 51.0621C61.9695 45.7046 64.6622 38.757 64.6622 31.4983C64.6622 28.802 64.2927 26.1337 63.5653 23.5692C63.3112 22.6728 63.0104 21.7787 62.6712 20.9114C60.5648 15.5376 56.936 10.9494 52.1776 7.64348C47.3085 4.26063 41.5885 2.47246 35.6364 2.47246H35.6352Z" fill="#002D59"/>
<path d="M64.6634 36.6075H6.33789V37.7732H64.6634V36.6075Z" fill="#002D59"/>
<path d="M33.9293 26.3994V41.691C33.6414 38.539 30.5465 36.0584 26.7719 36.0584C23.4555 36.0584 20.8817 37.9724 20.0564 40.5731L19.9316 40.5626L22.3318 26.2794L22.4169 25.8154C22.7072 24.6241 23.4998 23.5878 24.5979 22.8767C25.5771 22.2414 26.7987 21.8649 28.1241 21.8649C29.7829 21.8649 31.2785 22.4547 32.3405 23.4013C33.2311 24.1951 33.8139 25.2407 33.9293 26.3994Z" fill="white"/>
<path d="M33.3479 41.7435C33.0868 38.8817 30.1982 36.6401 26.7711 36.6401C23.8662 36.6401 21.3902 38.2907 20.6104 40.748L20.4693 41.191L19.25 41.0884L21.7551 26.1803L21.8483 25.6756C22.1689 24.3618 23.0315 23.1926 24.2788 22.386C25.3932 21.6632 26.7221 21.2809 28.1221 21.2809C29.873 21.2809 31.5073 21.8789 32.7266 22.9653C33.7489 23.8769 34.3819 25.0752 34.5078 26.3412L34.5101 26.3995V41.691L33.3467 41.7447L33.3479 41.7435ZM26.7711 35.4744C28.7213 35.4744 30.5841 36.0992 32.019 37.2346C32.5354 37.6437 32.9807 38.1042 33.3456 38.6054V26.4286C33.2418 25.4646 32.7476 24.5448 31.9514 23.8349C30.9466 22.9397 29.5874 22.4466 28.1233 22.4466C26.9494 22.4466 25.8397 22.7636 24.9141 23.364C23.9233 24.0063 23.239 24.919 22.9861 25.9355L22.9045 26.382L20.9717 37.8839C22.3682 36.3813 24.456 35.4721 26.7711 35.4721V35.4744Z" fill="#002D59"/>
<path d="M37.0605 20.1606C37.0605 20.2981 37.0675 20.4345 37.0827 20.5697V26.3655C37.1981 25.2068 37.7809 24.1612 38.6715 23.3674C39.7335 22.4208 41.2291 21.831 42.8879 21.831C44.2132 21.831 45.4349 22.2075 46.4141 22.8428C47.5122 23.5539 48.3048 24.5902 48.5951 25.7815L47.4958 19.7829C47.0995 17.4981 44.9943 15.7274 42.2677 15.7274C39.3919 15.7274 37.0605 17.7114 37.0605 20.1606Z" fill="white"/>
<path d="M37.6621 26.4239L36.4987 26.3656V20.6013C36.4836 20.4591 36.4766 20.311 36.4766 20.1606C36.4766 17.3944 39.0737 15.1447 42.2666 15.1447C45.1726 15.1447 47.6136 17.0541 48.0694 19.6839L49.1675 25.6767L48.0274 25.9192C47.778 24.8957 47.0926 23.9771 46.0959 23.3313C45.1703 22.731 44.0606 22.4128 42.8867 22.4128C41.4226 22.4128 40.0634 22.9059 39.0586 23.8011C38.2543 24.518 37.7588 25.4482 37.6621 26.4216V26.4239ZM42.2666 16.3103C39.7172 16.3103 37.6423 18.0379 37.6423 20.1606C37.6423 20.2795 37.6481 20.3949 37.6609 20.5045L37.6644 20.5698V23.575C37.8509 23.3488 38.0572 23.1332 38.2822 22.9327C39.5004 21.8462 41.1358 21.2482 42.8867 21.2482C44.2856 21.2482 45.6156 21.6306 46.73 22.3545C46.997 22.527 47.2464 22.717 47.4772 22.921L46.9212 19.889C46.561 17.8141 44.6038 16.3115 42.2666 16.3115V16.3103Z" fill="#002D59"/>
<path d="M37.0918 26.3994L37.2165 41.691C37.5045 38.539 40.4746 36.0584 44.2492 36.0584C47.5656 36.0584 50.3551 37.9724 51.1804 40.5731L51.3051 40.5626L48.6893 26.2794L48.6042 25.8154C48.3139 24.6241 47.5213 23.5878 46.4232 22.8767C45.444 22.2414 44.2224 21.8649 42.897 21.8649C41.2382 21.8649 39.7426 22.4547 38.6806 23.4013C37.79 24.1951 37.2072 25.2407 37.0918 26.3994Z" fill="white"/>
<path d="M37.7959 41.7435L36.6325 41.6957L36.5078 26.3726L36.5113 26.3412C36.6372 25.0764 37.2702 23.8769 38.2925 22.9653C39.5106 21.8789 41.1461 21.2809 42.897 21.2809C44.2958 21.2809 45.6259 21.6632 46.7403 22.3871C47.9876 23.195 48.8502 24.363 49.1708 25.6767L49.1778 25.7094L51.9941 41.0884L50.7654 41.191L50.6244 40.748C49.8574 38.3292 47.2345 36.6401 44.2492 36.6401C40.836 36.6401 38.0628 38.8339 37.7971 41.7435H37.7959ZM37.6735 26.4263L37.7726 38.595C39.1213 36.703 41.511 35.4744 44.248 35.4744C46.6074 35.4744 48.7802 36.3999 50.2234 37.8967L48.033 25.9367C47.7801 24.919 47.0958 24.0063 46.105 23.3651C45.1794 22.7648 44.0697 22.4466 42.8958 22.4466C41.4317 22.4466 40.0725 22.9397 39.0677 23.8349C38.2727 24.5437 37.7784 25.4634 37.6735 26.4263Z" fill="#002D59"/>
<path d="M37.1934 42.1714C37.1934 45.5472 40.4083 48.2831 44.3729 48.2831C48.3386 48.2831 51.5524 45.5472 51.5524 42.1714C51.5524 41.6188 51.4661 41.0826 51.3041 40.5732C50.4788 37.9725 47.6893 36.0585 44.3729 36.0585C40.5984 36.0585 37.5034 38.5391 37.2155 41.6911C37.2004 41.8496 37.1934 42.0093 37.1934 42.1714Z" fill="white"/>
<path d="M44.3737 48.8659C40.0933 48.8659 36.6113 45.8631 36.6113 42.1713C36.6113 41.9872 36.6195 41.8076 36.6358 41.6363C36.7897 39.9484 37.6744 38.3852 39.1257 37.2358C40.5595 36.1004 42.4235 35.4756 44.3737 35.4756C47.8626 35.4756 50.9412 37.4992 51.8609 40.3972C52.044 40.9718 52.1361 41.5687 52.1361 42.1713C52.1361 45.8631 48.6541 48.8659 44.3737 48.8659ZM44.3737 36.6413C40.9465 36.6413 38.058 38.8829 37.7968 41.7447C37.784 41.8846 37.777 42.0233 37.777 42.1713C37.777 45.2196 40.7367 47.7002 44.3737 47.7002C48.0107 47.7002 50.9704 45.2196 50.9704 42.1713C50.9704 41.6887 50.8958 41.2108 50.75 40.7504C49.9818 38.3315 47.3602 36.6413 44.3737 36.6413Z" fill="#002D59"/>
<path d="M44.3724 45.8469C46.757 45.8469 48.6902 44.2008 48.6902 42.1703C48.6902 40.1397 46.757 38.4937 44.3724 38.4937C41.9878 38.4937 40.0547 40.1397 40.0547 42.1703C40.0547 44.2008 41.9878 45.8469 44.3724 45.8469Z" fill="white"/>
<path d="M44.3732 46.4298C41.6712 46.4298 39.4727 44.5192 39.4727 42.1703C39.4727 39.8215 41.6712 37.9109 44.3732 37.9109C47.0753 37.9109 49.2738 39.8215 49.2738 42.1703C49.2738 44.5192 47.0753 46.4298 44.3732 46.4298ZM44.3732 39.0778C42.3135 39.0778 40.6384 40.4649 40.6384 42.1715C40.6384 43.8781 42.3135 45.2653 44.3732 45.2653C46.433 45.2653 48.1081 43.8781 48.1081 42.1715C48.1081 40.4649 46.433 39.0778 44.3732 39.0778Z" fill="#002D59"/>
<path d="M34.2084 20.1606C34.2084 20.2981 34.2014 20.4345 34.1862 20.5697V26.3655C34.0708 25.2068 33.488 24.1612 32.5974 23.3674C31.5354 22.4208 30.0399 21.831 28.3811 21.831C27.0557 21.831 25.834 22.2075 24.8548 22.8428C23.7568 23.5539 22.9641 24.5902 22.6738 25.7815L23.7731 19.7829C24.1694 17.4981 26.2747 15.7274 29.0012 15.7274C31.877 15.7274 34.2084 17.7114 34.2084 20.1606Z" fill="white"/>
<path d="M33.607 26.4239C33.5102 25.4505 33.0136 24.5191 32.2105 23.8034C31.2056 22.9081 29.8464 22.415 28.3823 22.415C27.2085 22.415 26.0987 22.7321 25.1732 23.3324C24.1765 23.9782 23.4911 24.8968 23.2416 25.9203L22.1016 25.6778L23.2008 19.6791C23.6554 17.0552 26.0964 15.1458 29.0025 15.1458C32.1953 15.1458 34.7925 17.3955 34.7925 20.1617C34.7925 20.3121 34.7855 20.4602 34.7703 20.6024V26.3667L33.607 26.425V26.4239ZM28.3823 21.2482C30.1332 21.2482 31.7675 21.8462 32.9868 22.9326C33.2118 23.1331 33.4193 23.3488 33.6046 23.5749L33.6081 20.5045C33.621 20.396 33.6268 20.2795 33.6268 20.1606C33.6268 18.0378 31.5519 16.3103 29.0025 16.3103C26.6653 16.3103 24.7081 17.8129 24.349 19.882L23.7918 22.9198C24.0226 22.7158 24.2721 22.5258 24.539 22.3532C25.6534 21.6305 26.9823 21.2482 28.3823 21.2482Z" fill="#002D59"/>
<path d="M34.1782 26.3994L34.0534 41.691C33.7655 38.539 30.7953 36.0584 27.0208 36.0584C23.7044 36.0584 20.9149 37.9724 20.0896 40.5731L19.9648 40.5626L22.5807 26.2794L22.6658 25.8154C22.956 24.6241 23.7487 23.5878 24.8468 22.8767C25.826 22.2414 27.0476 21.8649 28.373 21.8649C30.0318 21.8649 31.5274 22.4547 32.5893 23.4013C33.4799 24.1951 34.0628 25.2407 34.1782 26.3994Z" fill="white"/>
<path d="M33.4724 41.7435C33.2066 38.8339 30.4323 36.6401 27.0203 36.6401C24.0338 36.6401 21.4121 38.3292 20.6451 40.748L20.504 41.191L19.2754 41.0884L22.0987 25.6756C22.4193 24.3618 23.2819 23.1938 24.5292 22.386C25.6436 21.6632 26.9725 21.2809 28.3725 21.2809C30.1234 21.2809 31.7577 21.8789 32.977 22.9653C33.9993 23.8769 34.6323 25.0752 34.7582 26.3412L34.7617 26.3726V26.4041L34.6369 41.6957L33.4736 41.7435H33.4724ZM27.0203 35.4744C29.7562 35.4744 32.147 36.7019 33.4957 38.595L33.5948 26.4263C33.491 25.4634 32.9968 24.5448 32.2006 23.8349C31.1958 22.9397 29.8366 22.4466 28.3725 22.4466C27.1986 22.4466 26.0889 22.7636 25.1633 23.364C24.1713 24.0063 23.487 24.919 23.2353 25.9355L21.0449 37.8955C22.488 36.3999 24.6609 35.4732 27.0203 35.4732V35.4744Z" fill="#002D59"/>
<path d="M34.0739 42.1714C34.0739 45.5472 30.8589 48.2831 26.8944 48.2831C22.9287 48.2831 19.7148 45.5472 19.7148 42.1714C19.7148 41.6188 19.8011 41.0826 19.9631 40.5732C20.7884 37.9725 23.578 36.0585 26.8944 36.0585C30.6689 36.0585 33.7638 38.5391 34.0517 41.6911C34.0669 41.8496 34.0739 42.0093 34.0739 42.1714Z" fill="white"/>
<path d="M26.8952 48.8659C22.6147 48.8659 19.1328 45.8631 19.1328 42.1713C19.1328 41.5687 19.2261 40.9718 19.4091 40.396C20.3288 37.4992 23.4074 35.4756 26.8952 35.4756C28.8454 35.4756 30.7082 36.1004 32.1431 37.2358C33.5944 38.384 34.4792 39.9472 34.6331 41.6386C34.6494 41.8076 34.6575 41.9883 34.6575 42.1713C34.6575 45.8631 31.1756 48.8659 26.8952 48.8659ZM26.8952 36.6413C23.9087 36.6413 21.287 38.3304 20.52 40.7492C20.3731 41.2108 20.2985 41.6887 20.2985 42.1713C20.2985 45.2196 23.2582 47.7002 26.8952 47.7002C30.5321 47.7002 33.4918 45.2196 33.4918 42.1713C33.4918 42.0221 33.486 41.8834 33.472 41.747C33.2109 38.8829 30.3212 36.6413 26.8952 36.6413Z" fill="#002D59"/>
<path d="M26.8939 45.8469C29.2785 45.8469 31.2116 44.2008 31.2116 42.1703C31.2116 40.1397 29.2785 38.4937 26.8939 38.4937C24.5093 38.4937 22.5762 40.1397 22.5762 42.1703C22.5762 44.2008 24.5093 45.8469 26.8939 45.8469Z" fill="white"/>
<path d="M26.8947 46.4298C24.1926 46.4298 21.9941 44.5192 21.9941 42.1703C21.9941 39.8215 24.1926 37.9109 26.8947 37.9109C29.5968 37.9109 31.7953 39.8215 31.7953 42.1703C31.7953 44.5192 29.5968 46.4298 26.8947 46.4298ZM26.8947 39.0778C24.8349 39.0778 23.1598 40.4649 23.1598 42.1715C23.1598 43.8781 24.8349 45.2653 26.8947 45.2653C28.9545 45.2653 30.6296 43.8781 30.6296 42.1715C30.6296 40.4649 28.9545 39.0778 26.8947 39.0778Z" fill="#002D59"/>
<path d="M37.0908 23.0004H34.1777V33.5767H37.0908V23.0004Z" fill="white"/>
<path d="M37.6745 34.1594H33.5957V22.4174H37.6745V34.1594ZM34.7614 32.9937H36.5088V23.5831H34.7614V32.9937Z" fill="#002D59"/>
<path d="M37.0908 33.5767H34.1777V37.4188H37.0908V33.5767Z" fill="white"/>
<path d="M37.6745 38.0017H33.5957V32.9939H37.6745V38.0017ZM34.7614 36.836H36.5088V34.1596H34.7614V36.836Z" fill="#002D59"/>
</g>
<defs>
<filter id="filter0_d_558_100" x="0" y="0" width="71" height="71.0012" filterUnits="userSpaceOnUse" color-interpolation-filters="sRGB">
<feFlood flood-opacity="0" result="BackgroundImageFix"/>
<feColorMatrix in="SourceAlpha" type="matrix" values="0 0 0 0 0 0 0 0 0 0 0 0 0 0 0 0 0 0 127 0" result="hardAlpha"/>
<feOffset dy="4"/>
<feGaussianBlur stdDeviation="2"/>
<feComposite in2="hardAlpha" operator="out"/>
<feColorMatrix type="matrix" values="0 0 0 0 0 0 0 0 0 0 0 0 0 0 0 0 0 0 0.25 0"/>
<feBlend mode="normal" in2="BackgroundImageFix" result="effect1_dropShadow_558_100"/>
<feBlend mode="normal" in="SourceGraphic" in2="effect1_dropShadow_558_100" result="shape"/>
</filter>
</defs>
</svg>
