<svg width="100" height="100" viewBox="0 0 100 100" fill="none" xmlns="http://www.w3.org/2000/svg">
<path fill-rule="evenodd" clip-rule="evenodd" d="M99.0326 49.999C99.0326 75.4628 79.6248 96.394 54.7947 98.8031C53.2176 98.9556 51.6173 99.0348 49.9997 99.0348C48.382 99.0348 46.7798 98.9556 45.2008 98.8012C20.3726 96.3921 0.964844 75.4608 0.964844 49.999C0.964844 45.1634 1.66556 40.4918 2.97048 36.0789C3.39902 34.6273 3.89319 33.2027 4.44913 31.8109C11.6744 13.7366 29.3449 0.965149 49.9997 0.965149C70.6544 0.965149 88.5218 13.8795 95.668 32.1139C96.2413 33.5772 96.747 35.0771 97.1794 36.604C98.3878 40.8624 99.0326 45.3545 99.0326 49.999Z" fill="white"/>
<path d="M50 100C48.3689 100 46.7242 99.9189 45.1066 99.7626C32.8063 98.5696 21.425 92.8633 13.0588 83.6959C4.63864 74.4687 0 62.5002 0 49.999C0 45.1711 0.687206 40.3953 2.04617 35.8049C2.47857 34.3378 2.98626 32.8726 3.55378 31.4518C7.22145 22.2748 13.4758 14.447 21.6412 8.81416C29.9996 3.04809 39.8058 0 50 0C60.1942 0 70.1046 3.0809 78.4939 8.90875C86.6902 14.6034 92.9407 22.5064 96.5678 31.7607C97.1527 33.2548 97.672 34.7953 98.1102 36.3396C99.3649 40.7583 100 45.3545 100 49.9971C100 62.5002 95.3614 74.4687 86.9392 83.6959C78.5731 92.8633 67.1898 98.5696 54.8896 99.7626C53.2681 99.9189 51.6234 99.9981 50.0019 99.9981L50 100ZM50 1.93039C40.1996 1.93039 30.7718 4.86072 22.7376 10.4048C14.8869 15.8215 8.87383 23.3461 5.34708 32.1699C4.80272 33.5347 4.31434 34.942 3.89738 36.3531C2.59246 40.766 1.93035 45.3564 1.93035 49.999C1.93035 62.0176 6.38947 73.5228 14.4854 82.3948C22.5291 91.209 33.4704 96.6932 45.2938 97.8418C48.3959 98.1449 51.5771 98.1449 54.7023 97.8418C66.5257 96.6952 77.4689 91.209 85.5127 82.3948C93.6086 73.5228 98.0677 62.0176 98.0677 49.9971C98.0677 45.5321 97.4558 41.1134 96.2513 36.8666C95.8304 35.3821 95.3324 33.9015 94.7687 32.4653C91.2806 23.5662 85.2714 15.9682 77.3917 10.4936C69.3286 4.89161 59.8564 1.93039 50 1.93039Z" fill="#002D59"/>
<path d="M78.977 61.3439H41.5475C33.6099 61.3439 26.1413 58.2611 20.5163 52.661L13.1925 45.3719C12.6848 44.8661 12.5323 44.1113 12.8064 43.4492C13.0805 42.7871 13.7195 42.3585 14.4357 42.3585H90.0302C91.1633 42.3585 92.1999 42.9299 92.8041 43.8874C93.4083 44.8449 93.4778 46.0282 92.9914 47.0494L89.2754 54.8424C87.3933 58.7919 83.3493 61.342 78.9751 61.342L78.977 61.3439ZM14.841 44.2889L21.8791 51.2943C27.1412 56.5314 34.1253 59.4154 41.5494 59.4154H78.977C82.6119 59.4154 85.9707 57.2959 87.5343 54.0142L91.2502 46.2212C91.4529 45.7946 91.4259 45.3197 91.173 44.9201C90.9201 44.5206 90.5051 44.2908 90.0321 44.2908H14.841V44.2889Z" fill="#002D59"/>
<path d="M70.998 44.2889H36.7227L41.7705 29.7589C42.1334 28.7165 43.2472 28.12 44.3128 28.3979L69.1584 34.3011C70.0714 34.5443 70.7046 35.3435 70.7355 36.2874L70.9961 44.2908L70.998 44.2889ZM39.4367 42.3585H69.0039L68.809 36.3492C68.8071 36.2643 68.7511 36.1929 68.67 36.1678L43.8302 30.2666C43.7318 30.2415 43.6275 30.2955 43.5928 30.392L39.4367 42.3585Z" fill="#002D59"/>
<path d="M45.4773 52.051C41.493 52.051 37.615 51.2596 33.9492 49.6959L16.7305 42.3585H90.1264C91.2421 42.3585 92.2632 42.9222 92.8578 43.8662C93.4523 44.8101 93.5199 45.9761 93.0373 46.9818L90.6205 52.024L45.4947 52.051H45.4773ZM26.1834 44.2889L34.704 47.92C38.1284 49.3794 41.7536 50.1187 45.4754 50.1187H45.4927L89.4044 50.0936L91.2961 46.1479C91.493 45.7367 91.466 45.2811 91.2247 44.8951C90.9815 44.509 90.5819 44.2889 90.1264 44.2889H26.1834Z" fill="#002D59"/>
<path d="M86.6675 44.2889H74.873V37.4631C74.873 36.0153 76.0525 34.8358 77.5003 34.8358H84.0403C85.4881 34.8358 86.6675 36.0153 86.6675 37.4631V44.2889ZM76.8034 42.3585H84.7372V37.4631C84.7372 37.0789 84.4244 36.7662 84.0403 36.7662H77.5003C77.1161 36.7662 76.8034 37.0789 76.8034 37.4631V42.3585Z" fill="#002D59"/>
<path d="M26.2606 43.731L24.5098 42.9183L25.3977 41.0053C26.0869 39.5209 27.5887 38.575 29.2256 38.5981L60.0784 39.0074C62.3408 39.0383 64.1824 40.903 64.1824 43.1654V43.3257H62.252V43.1654C62.252 41.9532 61.2656 40.9532 60.0534 40.9378L29.2005 40.5285C29.1909 40.5285 29.1812 40.5285 29.1716 40.5285C28.3068 40.5285 27.5153 41.0324 27.1505 41.82L26.2625 43.733L26.2606 43.731Z" fill="#002D59"/>
<path d="M73.6579 64.726H9.39258V54.2227H11.3229V62.7956H73.6579V64.726Z" fill="#002D59"/>
<path d="M74.7769 72.073C79.3676 72.073 83.089 68.3515 83.089 63.7607C83.089 59.17 79.3676 55.4485 74.7769 55.4485C70.1863 55.4485 66.4648 59.17 66.4648 63.7607C66.4648 68.3515 70.1863 72.073 74.7769 72.073Z" fill="white"/>
<path d="M74.7773 73.0382C69.6618 73.0382 65.5 68.8763 65.5 63.7607C65.5 58.6452 69.6618 54.4833 74.7773 54.4833C79.8927 54.4833 84.0546 58.6452 84.0546 63.7607C84.0546 68.8763 79.8927 73.0382 74.7773 73.0382ZM74.7773 56.4137C70.7255 56.4137 67.4304 59.7088 67.4304 63.7607C67.4304 67.8126 70.7255 71.1078 74.7773 71.1078C78.8291 71.1078 82.1242 67.8126 82.1242 63.7607C82.1242 59.7088 78.8291 56.4137 74.7773 56.4137Z" fill="#002D59"/>
<path d="M74.7787 68.6138C77.4589 68.6138 79.6316 66.441 79.6316 63.7608C79.6316 61.0805 77.4589 58.9078 74.7787 58.9078C72.0985 58.9078 69.9258 61.0805 69.9258 63.7608C69.9258 66.441 72.0985 68.6138 74.7787 68.6138Z" fill="white"/>
<path d="M74.779 69.579C71.5708 69.579 68.9609 66.9691 68.9609 63.7608C68.9609 60.5525 71.5708 57.9426 74.779 57.9426C77.9873 57.9426 80.5971 60.5525 80.5971 63.7608C80.5971 66.9691 77.9873 69.579 74.779 69.579ZM74.779 59.873C72.6363 59.873 70.8913 61.6161 70.8913 63.7608C70.8913 65.9054 72.6344 67.6486 74.779 67.6486C76.9236 67.6486 78.6668 65.9054 78.6668 63.7608C78.6668 61.6161 76.9236 59.873 74.779 59.873Z" fill="#002D59"/>
<path d="M23.4124 66.0521C24.6779 66.0521 25.7038 65.0262 25.7038 63.7607C25.7038 62.4952 24.6779 61.4694 23.4124 61.4694C22.147 61.4694 21.1211 62.4952 21.1211 63.7607C21.1211 65.0262 22.147 66.0521 23.4124 66.0521Z" fill="white"/>
<path d="M23.4128 67.0174C21.6175 67.0174 20.1562 65.556 20.1562 63.7608C20.1562 61.9655 21.6175 60.5042 23.4128 60.5042C25.208 60.5042 26.6693 61.9655 26.6693 63.7608C26.6693 65.556 25.208 67.0174 23.4128 67.0174ZM23.4128 62.4346C22.6812 62.4346 22.0866 63.0292 22.0866 63.7608C22.0866 64.4924 22.6812 65.087 23.4128 65.087C24.1444 65.087 24.7389 64.4924 24.7389 63.7608C24.7389 63.0292 24.1444 62.4346 23.4128 62.4346Z" fill="#002D59"/>
<path d="M11.9237 52.856H8.79264C8.13698 52.856 7.60547 53.3875 7.60547 54.0431V54.4041C7.60547 55.0598 8.13698 55.5913 8.79264 55.5913H11.9237C12.5793 55.5913 13.1108 55.0598 13.1108 54.4041V54.0431C13.1108 53.3875 12.5793 52.856 11.9237 52.856Z" fill="white"/>
<path d="M11.924 56.5566H8.79297C7.6058 56.5566 6.64062 55.5914 6.64062 54.4042V54.0432C6.64062 52.856 7.6058 51.8908 8.79297 51.8908H11.924C13.1112 51.8908 14.0763 52.856 14.0763 54.0432V54.4042C14.0763 55.5914 13.1112 56.5566 11.924 56.5566ZM8.79297 53.8212C8.67329 53.8212 8.57098 53.9235 8.57098 54.0432V54.4042C8.57098 54.5239 8.67329 54.6262 8.79297 54.6262H11.924C12.0437 54.6262 12.146 54.5239 12.146 54.4042V54.0432C12.146 53.9235 12.0437 53.8212 11.924 53.8212H8.79297Z" fill="#002D59"/>
<path d="M93.7957 72.4726H7.60547V74.403H93.7957V72.4726Z" fill="#002D59"/>
</svg>
