<svg width="101" height="100" viewBox="0 0 101 100" fill="none" xmlns="http://www.w3.org/2000/svg">
<path fill-rule="evenodd" clip-rule="evenodd" d="M99.0345 49.9991C99.0345 75.4628 79.6263 96.394 54.7957 98.8032C53.2186 98.9557 51.6183 99.0348 50.0006 99.0348C48.3829 99.0348 46.7807 98.9557 45.2017 98.8012C20.373 96.3921 0.964844 75.4609 0.964844 49.9991C0.964844 45.1634 1.66558 40.4919 2.97052 36.079C3.39907 34.6273 3.89325 33.2027 4.4492 31.8109C11.6746 13.7367 29.3454 0.96521 50.0006 0.96521C70.6558 0.96521 88.5235 13.8795 95.6698 32.114C96.2431 33.5772 96.7489 35.0771 97.1813 36.6041C98.3897 40.8625 99.0345 45.3545 99.0345 49.9991Z" fill="white"/>
<path d="M50.001 100C48.3698 100 46.7251 99.9189 45.1074 99.7626C32.807 98.5696 21.4254 92.8633 13.0591 83.6959C4.63873 74.4687 0 62.5002 0 49.999C0 45.1711 0.687219 40.3953 2.04621 35.8049C2.47862 34.3378 2.98631 32.8726 3.55385 31.4518C7.22159 22.2748 13.4761 14.447 21.6416 8.81416C30.0002 3.04809 39.8066 0 50.001 0C60.1954 0 70.106 3.0809 78.4955 8.90875C86.6919 14.6034 92.9425 22.5064 96.5697 31.7607C97.1546 33.2548 97.6739 34.7953 98.1121 36.3396C99.3668 40.7583 100.002 45.3526 100.002 49.9971C100.002 62.5002 95.3632 74.4667 86.9409 83.6959C78.5746 92.8633 67.1911 98.5696 54.8906 99.7626C53.2691 99.9189 51.6244 99.9981 50.0029 99.9981L50.001 100ZM50.001 1.93039C40.2004 1.93039 30.7723 4.86072 22.7381 10.4048C14.8872 15.8215 8.874 23.3461 5.34718 32.1699C4.80281 33.5347 4.31442 34.942 3.89746 36.3531C2.59251 40.766 1.93039 45.3564 1.93039 49.999C1.93039 62.0176 6.38959 73.5228 14.4856 82.3948C22.5296 91.209 33.471 96.6932 45.2947 97.8418C48.3968 98.1449 51.5781 98.1468 54.7034 97.8418C66.527 96.6952 77.4704 91.209 85.5143 82.3948C93.6104 73.5228 98.0696 62.0176 98.0696 49.9971C98.0696 45.5321 97.4577 41.1134 96.2531 36.8666C95.8323 35.3821 95.3342 33.9015 94.7706 32.4653C91.2824 23.5662 85.273 15.9682 77.3932 10.4936C69.33 4.89161 59.8575 1.93039 50.001 1.93039Z" fill="#002F5B"/>
<path d="M73.7906 89.7496H61.2353L49.7553 90.9155L39.725 90.1627L27.6041 89.2361L26.6582 86.8328C27.4033 86.6185 28.1407 86.3598 28.8646 86.0587L30.0827 85.5529L32.5247 86.4814C37.3545 88.3172 42.6901 88.3095 47.5122 86.4621L49.9638 85.522L52.3903 86.4544C57.2028 88.3018 62.5248 88.3172 67.347 86.495L69.843 85.5529L72.0417 86.3888C72.1691 86.437 72.2965 86.4834 72.4258 86.5297L73.7906 89.7496Z" fill="white"/>
<path d="M40.3019 71.824C37.6553 71.824 35.0107 71.3453 32.4916 70.3878L30.4067 69.5964L29.5419 69.9554C23.8762 72.3086 17.4731 72.1812 11.9117 69.6176C9.95425 70.4399 7.89452 70.9708 5.78075 71.2005L5.57227 69.2817C7.63392 69.0578 9.64153 68.5173 11.5372 67.6776L11.9445 67.4961L12.4116 67.72C17.5561 70.1967 23.5288 70.3627 28.8006 68.1737L30.3739 67.5212L33.1749 68.5868C37.7885 70.3415 42.8655 70.3338 47.4733 68.5675L50.2685 67.4961L53.0425 68.5617C57.6387 70.326 62.706 70.3396 67.3119 68.6003L70.1496 67.5289L72.69 68.4941C77.4368 70.299 82.6412 70.243 87.3474 68.3358L89.4149 67.498L93.6038 68.9748C94.0285 69.1234 94.4629 69.2605 94.8972 69.3821L94.3799 71.241C93.9031 71.1079 93.4262 70.9592 92.961 70.7951L89.4612 69.5616L88.0713 70.1253C82.9133 72.2159 77.2052 72.2777 72.0028 70.299L70.1457 69.5925L67.9914 70.4052C62.9415 72.3124 57.3878 72.297 52.3475 70.3627L50.2647 69.5635L48.1605 70.3704C45.6259 71.3414 42.9601 71.8279 40.2961 71.8279L40.3019 71.824Z" fill="#002F5B"/>
<path d="M39.9929 84.7384C37.3463 84.7384 34.7017 84.2596 32.1825 83.3022L30.0977 82.5107L29.2329 82.8698C23.766 85.1399 17.832 85.1689 12.5253 82.9528C12.0331 82.7481 11.8014 82.1825 12.0061 81.6903C12.2107 81.198 12.7763 80.9664 13.2685 81.171C18.0964 83.1883 23.5035 83.1574 28.4916 81.0861L29.7097 80.5803C29.9375 80.4857 30.1923 80.4819 30.422 80.5687L32.8639 81.4972C37.4776 83.252 42.5545 83.2443 47.1623 81.4779L49.612 80.5398C49.834 80.4548 50.0811 80.4548 50.3031 80.5398L52.7315 81.4722C57.3278 83.2365 62.395 83.25 67.0009 81.5108L69.4969 80.5687C69.717 80.4857 69.9602 80.4857 70.1803 80.5687L72.379 81.4046C77.1915 83.2346 81.9557 83.2211 86.5384 81.3641C87.0326 81.1633 87.5943 81.4027 87.7951 81.8968C87.9959 82.391 87.7565 82.9528 87.2623 83.1535C82.2143 85.1997 76.9753 85.219 71.6918 83.2095L69.8348 82.503L67.6804 83.3157C62.6305 85.2229 57.0749 85.2075 52.0366 83.2732L49.9537 82.474L47.8495 83.2809C45.3149 84.2519 42.6491 84.7384 39.9851 84.7384H39.9929Z" fill="#002F5B"/>
<path d="M39.9932 88.8231C37.3467 88.8231 34.7021 88.3443 32.1829 87.3868L30.0981 86.5954L29.2333 86.9544C25.7952 88.3829 22.0213 88.9157 18.3208 88.493C17.7918 88.4331 17.4096 87.9544 17.4714 87.4255C17.5312 86.8965 18.01 86.5143 18.5389 86.5761C21.9132 86.9602 25.3551 86.4738 28.492 85.1727L29.712 84.6669C29.9398 84.5723 30.1946 84.5685 30.4243 84.6553L32.8663 85.5839C37.4799 87.3386 42.5568 87.3309 47.1646 85.5646L49.6143 84.6264C49.8363 84.5414 50.0834 84.5414 50.3054 84.6264L52.7338 85.5588C57.3301 87.3231 62.3974 87.3367 67.0033 85.5974L69.4993 84.6553C69.7193 84.5723 69.9626 84.5723 70.1826 84.6553L72.3813 85.4912C74.997 86.4853 77.9582 86.7575 81.7013 86.3464C82.2302 86.2884 82.707 86.6707 82.7668 87.1996C82.8247 87.7305 82.4425 88.2053 81.9136 88.2652C77.9119 88.7053 74.5685 88.3887 71.698 87.2961L69.8409 86.5896L67.6866 87.4023C62.6367 89.3095 57.083 89.2941 52.0427 87.3598L49.9599 86.5606L47.8557 87.3675C45.3211 88.3385 42.6553 88.825 39.9913 88.825L39.9932 88.8231Z" fill="#002F5B"/>
<path d="M39.9931 92.9077C37.3465 92.9077 34.7019 92.429 32.1827 91.4715L30.0979 90.6801L29.2331 91.0391C27.6309 91.7051 25.9514 92.1781 24.2392 92.4502C23.7122 92.5352 23.218 92.1742 23.135 91.6472C23.052 91.1202 23.411 90.626 23.938 90.543C25.4997 90.2959 27.0324 89.8635 28.4937 89.2554L29.7118 88.7497C29.9396 88.6551 30.1944 88.6512 30.4241 88.7381L32.8661 89.6666C37.4797 91.4213 42.5566 91.4136 47.1645 89.6473L49.6141 88.7091C49.8361 88.6242 50.0832 88.6242 50.3052 88.7091L52.7336 89.6415C57.3299 91.4059 62.3972 91.4194 67.0031 89.6801L69.4991 88.7381C69.7192 88.6551 69.9624 88.6551 70.1824 88.7381L72.3812 89.574C73.4506 89.9813 74.4216 90.265 75.4389 90.4716C75.962 90.5778 76.2999 91.0855 76.1937 91.6086C76.0875 92.1317 75.5798 92.4695 75.0567 92.3634C73.9332 92.1375 72.8657 91.8229 71.6939 91.3789L69.8369 90.6724L67.6826 91.4851C62.6327 93.3923 57.079 93.3768 52.0387 91.4426L49.9558 90.6434L47.8517 91.4503C45.3171 92.4213 42.6512 92.9077 39.9873 92.9077H39.9931Z" fill="#002F5B"/>
<path d="M82.5008 29.7975L11.6941 47.1922C10.0996 47.5841 9.45868 49.5048 10.4992 50.775L15.773 57.2187C18.2323 60.2243 22.2012 61.5486 25.9732 60.622L61.031 52.0105C68.1754 50.2558 74.3333 45.7425 78.1593 39.4591L83.3424 30.9461C83.6996 30.3592 83.1687 29.6334 82.5008 29.7975Z" fill="white"/>
<path d="M23.5943 61.8748C20.3242 61.8748 17.141 60.4173 15.0234 57.8287L9.74953 51.385C9.05073 50.5299 8.84225 49.3948 9.19165 48.3466C9.54105 47.2984 10.3904 46.5166 11.4618 46.2541L82.2666 28.8612C82.9519 28.6933 83.6642 28.952 84.0792 29.5214C84.4962 30.0909 84.529 30.8476 84.1622 31.4499L78.9791 39.9629C74.9929 46.5089 68.6998 51.1206 61.2562 52.9486L26.1984 61.5601C25.3355 61.7725 24.461 61.8748 23.5904 61.8748H23.5943ZM82.2704 30.8495L11.9251 48.1285C11.4946 48.2346 11.1664 48.5377 11.0255 48.9585C10.8846 49.3794 10.9657 49.8195 11.2475 50.1631L16.5213 56.6067C18.7336 59.3093 22.353 60.5177 25.7447 59.6838L60.8026 51.0723C67.7462 49.3658 73.6184 45.063 77.3363 38.9572L82.2724 30.8495H82.2704Z" fill="#002F5B"/>
<path d="M34.57 42.567L32.9658 34.9767C32.7747 34.0713 33.1917 33.1621 34.0044 32.7162L34.0275 32.7046L55.9182 21.4717C56.8699 20.9582 58.0706 21.2651 58.6593 22.1724L66.7554 34.662L34.57 42.5689V42.567ZM34.9252 34.4111C34.8692 34.4458 34.8402 34.5115 34.8538 34.5752L36.0467 40.2158L63.659 33.4324L57.0378 23.2206C56.9934 23.1531 56.9027 23.1299 56.8332 23.1685L56.81 23.1801L34.9271 34.4092L34.9252 34.4111Z" fill="#002F5B"/>
<path d="M13.1303 55.5142L9.69225 51.331C9.00117 50.4894 8.79462 49.3717 9.1363 48.3389C9.47991 47.3061 10.3158 46.5359 11.3717 46.2753L80.2808 29.3477L65.7064 40.2834C62.6236 42.596 59.1643 44.233 55.4213 45.1499L13.1264 55.5122L13.1303 55.5142ZM71.5632 33.4788L11.835 48.1516C11.42 48.254 11.1053 48.5454 10.9702 48.9489C10.835 49.3543 10.9142 49.7751 11.1844 50.1052L13.8503 53.3502L54.9638 43.2755C58.452 42.4203 61.6777 40.8953 64.5501 38.7391L71.5613 33.4788H71.5632Z" fill="#002F5B"/>
<path d="M20.505 46.0205L18.9394 39.6502C18.5939 38.2429 19.4568 36.8183 20.864 36.4728L26.8753 34.996C28.2825 34.6505 29.7072 35.5134 30.0527 36.9206L31.6182 43.2909L20.505 46.0205ZM27.5027 36.8511C27.4486 36.8511 27.3926 36.8569 27.3366 36.8704L21.3254 38.3472C20.9528 38.4398 20.7231 38.8163 20.8158 39.1908L21.92 43.6847L29.2844 41.8759L28.1802 37.3801C28.103 37.0635 27.8173 36.8492 27.5027 36.8492V36.8511Z" fill="#002F5B"/>
<path d="M23.4965 76.982L30.4092 73.9011L34.9128 75.6384L49.5143 71.1445H50.6049L58.618 73.6637L69.0826 71.4418L70.2814 70.8414L77.3119 72.8973L89.9579 70.8414L92.8573 71.5808C92.8573 71.5808 91.4983 74.4474 90.4675 76.0728C88.9695 78.4375 86.238 81.5068 86.238 81.5068L69.4648 80.2154L33.7468 81.0879H22.6992L23.4984 76.9801L23.4965 76.982Z" fill="white"/>
<path d="M40.3025 76.1288C37.6559 76.1288 35.0113 75.6501 32.4921 74.6926L30.4073 73.9012L29.5425 74.2602C23.8768 76.6114 17.4737 76.484 11.9122 73.9224C10.5976 74.4745 9.22899 74.8972 7.83332 75.1829L7.44531 73.2931C8.85064 73.0055 10.227 72.5634 11.5397 71.9824L11.9489 71.8009L12.4161 72.0268C17.5586 74.5034 23.5313 74.6695 28.8031 72.4785L30.3764 71.826L33.1774 72.8916C37.7891 74.6444 42.868 74.6386 47.4758 72.8723L50.271 71.8009L53.045 72.8665C57.6412 74.6309 62.7085 74.6444 67.3144 72.9051L70.1521 71.8337L72.6925 72.7989C77.4374 74.6038 82.6437 74.5478 87.3499 72.6406L89.4174 71.8028L93.6063 73.2796L92.9654 75.0999L89.4657 73.8664L88.0758 74.4301C82.9158 76.5207 77.2096 76.5825 72.0072 74.6038L70.1502 73.8973L67.9959 74.71C62.946 76.6172 57.3903 76.6018 52.352 74.6675L50.2691 73.8683L48.165 74.6753C45.6304 75.6462 42.9645 76.1327 40.3006 76.1327L40.3025 76.1288Z" fill="#002F5B"/>
<path d="M40.3026 80.4335C37.6561 80.4335 35.0114 79.9548 32.4923 78.9973L30.4094 78.2059L29.5426 78.5649C23.8789 80.9181 17.4758 80.7907 11.9143 78.2252C11.395 78.4433 10.8603 78.6421 10.3237 78.8217C10.2252 78.8545 10.1287 78.8854 10.0302 78.9163L9.44727 77.0766C9.53606 77.0476 9.62486 77.0187 9.71366 76.9897C10.3333 76.7832 10.9491 76.5457 11.5398 76.2832L11.9433 76.1056L12.4085 76.3237C17.5568 78.8043 23.5295 78.9703 28.8014 76.7812L30.3611 76.1268L30.7646 76.2755L33.1776 77.1943C37.7893 78.9471 42.8681 78.9394 47.476 77.175L50.2712 76.1017L53.0451 77.1673C57.6433 78.9317 62.7106 78.9452 67.3146 77.2059L70.1522 76.1346L72.6926 77.0998C77.4144 78.8969 82.5975 78.8487 87.2883 76.9646L87.3173 76.953C87.3288 76.9473 87.3443 76.9415 87.3597 76.9357L89.4175 76.1017L90.9001 76.6249L90.2573 78.4452L89.4658 78.1653L88.0431 78.7406C88.0315 78.7464 88.0161 78.7522 87.9987 78.758C82.8581 80.8196 77.1808 80.8698 72.0073 78.9008L70.1503 78.1943L67.996 79.007C62.948 80.9142 57.3924 80.8988 52.3521 78.9645L50.2692 78.1653L48.1651 78.9722C45.6305 79.9432 42.9646 80.4297 40.2988 80.4297L40.3026 80.4335Z" fill="#002F5B"/>
<path d="M98.2618 41.7872L3.66016 65.7954L4.135 67.6665L98.7366 43.6583L98.2618 41.7872Z" fill="#002F5B"/>
</svg>
