<svg width="71" height="71" viewBox="0 0 71 71" fill="none" xmlns="http://www.w3.org/2000/svg">
<g filter="url(#filter0_d_558_540)">
<path fill-rule="evenodd" clip-rule="evenodd" d="M65.1095 31.4988C65.1095 46.8752 53.3896 59.5146 38.3952 60.9694C37.4429 61.0614 36.4765 61.1092 35.4997 61.1092C34.5228 61.1092 33.5553 61.0615 32.6017 60.9682C17.6086 59.5134 5.88867 46.874 5.88867 31.4988C5.88867 28.5788 6.31182 25.7579 7.09983 23.0931C7.35861 22.2165 7.65703 21.3563 7.99275 20.5158C12.3559 9.60162 23.0267 1.88953 35.4997 1.88953C47.9726 1.88953 58.7623 9.68788 63.0777 20.6988C63.4239 21.5824 63.7293 22.4881 63.9904 23.4102C64.7201 25.9817 65.1095 28.6942 65.1095 31.4988Z" fill="white"/>
<path d="M35.5005 61.692C34.5155 61.692 33.5223 61.6431 32.5454 61.5486C25.1176 60.8283 18.2447 57.3825 13.1926 51.8468C8.10781 46.2748 5.30664 39.0488 5.30664 31.4988C5.30664 28.5822 5.72279 25.6995 6.54228 22.9276C6.80456 22.0405 7.10997 21.1557 7.45269 20.299C9.66751 14.7573 13.4455 10.0305 18.3752 6.62911C23.4239 3.1484 29.3456 1.30664 35.5005 1.30664C41.6554 1.30664 47.6412 3.16706 52.7073 6.68622C57.6568 10.125 61.4314 14.8972 63.6217 20.4855C63.9761 21.3889 64.2885 22.3191 64.5531 23.2504C65.3108 25.9187 65.6943 28.6941 65.6943 31.4976C65.6943 39.0477 62.8932 46.2737 57.8072 51.8468C52.7551 57.3825 45.881 60.8283 38.4532 61.5486C37.474 61.6431 36.4808 61.6909 35.5016 61.6909L35.5005 61.692ZM35.5005 2.47231C29.5822 2.47231 23.889 4.24181 19.0374 7.58962C14.2965 10.8605 10.6653 15.4043 8.53562 20.7326C8.20689 21.5556 7.91197 22.4053 7.66018 23.2586C6.87217 25.9222 6.47234 28.6953 6.47234 31.4988C6.47234 38.7562 9.16509 45.7037 14.054 51.0611C18.9115 56.3836 25.5186 59.6952 32.6585 60.3888C34.5318 60.5718 36.4529 60.573 38.3401 60.3888C45.48 59.6964 52.0883 56.3836 56.9458 51.0611C61.8347 45.7037 64.5275 38.7562 64.5275 31.4976C64.5275 28.8014 64.1579 26.1332 63.4305 23.5675C63.1764 22.6711 62.8757 21.777 62.5364 20.9098C60.43 15.536 56.8012 10.9479 52.0429 7.64208C47.1738 4.25929 41.4537 2.47115 35.5016 2.47115L35.5005 2.47231Z" fill="#002D59"/>
<path d="M42.0131 14.867C42.0131 15.4382 41.9385 15.9919 41.8021 16.52C41.7811 16.6004 41.7578 16.6797 41.7345 16.7578C41.6039 17.1856 41.4186 17.5935 41.2018 17.984L40.9675 18.4072L38.7573 22.3938L35.878 27.5904C35.7148 27.8853 35.2894 27.8853 35.1262 27.5904L32.2469 22.3938L30.0367 18.406L29.7954 17.9712C29.5798 17.5807 29.3944 17.1727 29.2651 16.7461C29.2429 16.6715 29.2208 16.5957 29.2009 16.52C29.0214 15.8264 28.9503 15.0897 29.0121 14.3262C29.272 11.1404 31.8611 8.58522 35.0504 8.37074C38.8517 8.11429 42.0131 11.1217 42.0131 14.867Z" fill="white"/>
<path d="M35.5012 28.3947C35.1328 28.3947 34.7936 28.1954 34.6153 27.8725L29.2845 18.2534C29.0281 17.7894 28.8392 17.3511 28.7064 16.9152C28.6819 16.8347 28.6586 16.752 28.6364 16.6692C28.4336 15.8859 28.3648 15.0827 28.4301 14.2784C28.7134 10.8129 31.5413 8.02226 35.0104 7.78912C36.9991 7.6539 38.8945 8.32766 40.3447 9.68334C41.775 11.0204 42.5956 12.9099 42.5956 14.8671C42.5956 15.4732 42.5187 16.0782 42.366 16.6657C42.3415 16.7555 42.317 16.8417 42.2914 16.928C42.1573 17.3663 41.9685 17.8046 41.7109 18.2674L36.386 27.8737C36.2076 28.1954 35.8684 28.3959 35.5 28.3959L35.5012 28.3947ZM35.5047 8.93847C35.3671 8.93847 35.2273 8.94314 35.0885 8.95246C32.1918 9.1483 29.8278 11.4785 29.5923 14.374C29.5375 15.0478 29.5958 15.7215 29.7648 16.3743C29.7823 16.4408 29.8021 16.5095 29.8231 16.5783C29.9315 16.935 30.0889 17.2987 30.3045 17.6904L35.5012 27.0682L40.692 17.7032C40.9089 17.3127 41.0662 16.949 41.1758 16.59C41.198 16.5177 41.2189 16.4454 41.2376 16.3731C41.3646 15.8836 41.4288 15.3765 41.4288 14.8694C41.4288 13.2095 40.7608 11.6708 39.5485 10.5378C38.4376 9.50033 37.0154 8.94081 35.5047 8.94081V8.93847Z" fill="#002D59"/>
<path d="M35.5005 17.7287C37.081 17.7287 38.3622 16.4475 38.3622 14.867C38.3622 13.2865 37.081 12.0052 35.5005 12.0052C33.9199 12.0052 32.6387 13.2865 32.6387 14.867C32.6387 16.4475 33.9199 17.7287 35.5005 17.7287Z" fill="white"/>
<path d="M35.5013 18.3116C33.6024 18.3116 32.0566 16.7659 32.0566 14.8671C32.0566 12.9682 33.6024 11.4225 35.5013 11.4225C37.4002 11.4225 38.9459 12.9682 38.9459 14.8671C38.9459 16.7659 37.4002 18.3116 35.5013 18.3116ZM35.5013 12.5882C34.2447 12.5882 33.2223 13.6105 33.2223 14.8671C33.2223 16.1236 34.2447 17.1459 35.5013 17.1459C36.7579 17.1459 37.7802 16.1236 37.7802 14.8671C37.7802 13.6105 36.7579 12.5882 35.5013 12.5882Z" fill="#002D59"/>
<path d="M63.0504 42.4364H8.22656V43.6021H63.0504V42.4364Z" fill="#002D59"/>
<path d="M54.2597 30.9207H16.7383V46.1793H54.2597V30.9207Z" fill="white"/>
<path d="M54.8433 46.7621H16.1562V30.3378H54.8433V46.7621ZM17.3219 45.5964H53.6777V31.5034H17.3219V45.5964Z" fill="#002D59"/>
<path d="M38.9957 46.7621H32.0039V33.8464H38.9957V46.7621ZM33.1696 45.5964H37.8301V35.0121H33.1696V45.5964Z" fill="#002D59"/>
<path d="M23.4708 40.8871H18.5527V33.8464H23.4708V40.8871ZM19.7184 39.7214H22.3051V35.0121H19.7184V39.7214Z" fill="#002D59"/>
<path d="M30.1974 40.8871H25.2793V33.8464H30.1974V40.8871ZM26.445 39.7214H29.0317V35.0121H26.445V39.7214Z" fill="#002D59"/>
<path d="M45.7208 40.8871H40.8027V33.8464H45.7208V40.8871ZM41.9684 39.7214H44.5551V35.0121H41.9684V39.7214Z" fill="#002D59"/>
<path d="M52.4474 40.8871H47.5293V33.8464H52.4474V40.8871ZM48.695 39.7214H51.2817V35.0121H48.695V39.7214Z" fill="#002D59"/>
<path d="M35.5006 63C34.4724 63 33.435 62.9499 32.4185 62.8496C24.6701 62.0978 17.4988 58.5028 12.2275 52.7281C6.9224 46.9149 4 39.3753 4 31.4988C4 28.4564 4.43364 25.4478 5.28809 22.5569C5.56087 21.6326 5.88027 20.7094 6.23813 19.8153C8.54971 14.0347 12.4898 9.10275 17.634 5.55444C22.9006 1.92103 29.0788 0 35.5006 0C41.9224 0 48.167 1.94085 53.4523 5.61272C58.6163 9.20066 62.554 14.1793 64.8388 20.01C65.2083 20.9518 65.5347 21.9228 65.8098 22.895C66.6002 25.6786 67 28.5742 67 31.5C67 39.3765 64.0776 46.916 58.7725 52.7292C53.5012 58.504 46.3299 62.0989 38.5803 62.8508C37.5604 62.9499 36.5241 63 35.5006 63ZM35.5006 1.16567C29.3166 1.16567 23.3669 3.01443 18.2961 6.51378C13.3419 9.93154 9.54638 14.6805 7.32107 20.2478C6.97719 21.1092 6.66944 21.9963 6.40716 22.8868C5.58418 25.6716 5.1657 28.5683 5.1657 31.4988C5.1657 39.0839 7.97968 46.3437 13.0889 51.9413C18.1655 57.5027 25.0699 60.9647 32.5316 61.6886C34.4888 61.8798 36.4972 61.8809 38.4684 61.6898C45.9301 60.9659 52.8356 57.5038 57.9122 51.9424C63.0215 46.3437 65.8355 39.0839 65.8355 31.4988C65.8355 28.6802 65.4496 25.8931 64.6896 23.2121C64.425 22.276 64.1102 21.3423 63.7547 20.4343C61.5539 14.8192 57.7619 10.0248 52.7878 6.56857C47.6984 3.03308 41.7219 1.16451 35.5017 1.16451L35.5006 1.16567Z" fill="white"/>
</g>
<defs>
<filter id="filter0_d_558_540" x="0" y="0" width="71" height="71" filterUnits="userSpaceOnUse" color-interpolation-filters="sRGB">
<feFlood flood-opacity="0" result="BackgroundImageFix"/>
<feColorMatrix in="SourceAlpha" type="matrix" values="0 0 0 0 0 0 0 0 0 0 0 0 0 0 0 0 0 0 127 0" result="hardAlpha"/>
<feOffset dy="4"/>
<feGaussianBlur stdDeviation="2"/>
<feComposite in2="hardAlpha" operator="out"/>
<feColorMatrix type="matrix" values="0 0 0 0 0 0 0 0 0 0 0 0 0 0 0 0 0 0 0.25 0"/>
<feBlend mode="normal" in2="BackgroundImageFix" result="effect1_dropShadow_558_540"/>
<feBlend mode="normal" in="SourceGraphic" in2="effect1_dropShadow_558_540" result="shape"/>
</filter>
</defs>
</svg>
