<svg width="100" height="100" viewBox="0 0 100 100" fill="none" xmlns="http://www.w3.org/2000/svg">
<path d="M50 100C48.3681 100 46.7213 99.9204 45.1079 99.7613C32.8091 98.5679 21.4262 92.8616 13.0592 83.6954C4.63864 74.468 0 62.5005 0 49.9981C0 45.1689 0.688303 40.3934 2.04455 35.8047C2.47752 34.3374 2.98449 32.872 3.55253 31.4528C7.22163 22.2773 13.4756 14.4488 21.6408 8.81656C30.0004 3.04925 39.8068 0 50 0C60.1932 0 70.1051 3.08071 78.4942 8.90908C86.691 14.6042 92.9412 22.5068 96.5677 31.7618C97.1543 33.2569 97.6723 34.7981 98.109 36.3413C99.3635 40.7597 99.9981 45.3558 99.9981 50C99.9981 62.5023 95.3595 74.4699 86.9389 83.6972C78.572 92.8635 67.1891 98.5697 54.8884 99.7632C53.2694 99.9204 51.6245 100 50 100ZM50 1.85028C40.1843 1.85028 30.7405 4.78481 22.6918 10.3393C14.8281 15.7643 8.80361 23.3024 5.27143 32.1393C4.7256 33.5066 4.23713 34.9147 3.82082 36.3283C2.51452 40.7486 1.85028 45.3466 1.85028 49.9981C1.85028 62.0379 6.31684 73.5614 14.4266 82.4464C22.4845 91.2741 33.4437 96.7694 45.2873 97.9184C48.394 98.2219 51.582 98.2237 54.7108 97.9203C66.5544 96.7713 77.5154 91.2759 85.5734 82.4483C93.6832 73.5614 98.1497 62.0379 98.1497 49.9981C98.1497 45.5242 97.5373 41.1002 96.3309 36.8445C95.9109 35.3588 95.4113 33.8767 94.847 32.4353C91.3537 23.5226 85.3347 15.9124 77.4396 10.4263C69.3613 4.81442 59.8749 1.84843 50.0018 1.84843L50 1.85028Z" fill="white"/>
<path fill-rule="evenodd" clip-rule="evenodd" d="M96.9996 49.9982C96.9996 74.4052 78.3969 94.4677 54.5968 96.7768C53.0851 96.923 51.5512 96.9989 50.0007 96.9989C48.4502 96.9989 46.9144 96.923 45.4009 96.775C21.6027 94.4659 3 74.4033 3 49.9982C3 45.3632 3.67165 40.8856 4.92244 36.6558C5.3332 35.2644 5.80687 33.8989 6.33975 32.5649C13.2653 15.2408 30.2028 2.99933 50.0007 2.99933C69.7987 2.99933 86.9248 15.3777 93.7745 32.8554C94.3241 34.2579 94.8088 35.6955 95.2233 37.1591C96.3816 41.2408 96.9996 45.5464 96.9996 49.9982Z" fill="white"/>
<path d="M50.0001 97.924C48.4366 97.924 46.8601 97.8463 45.3096 97.6965C33.5197 96.553 22.6104 91.0836 14.5913 82.2966C6.52043 73.4523 2.07422 61.9825 2.07422 49.9982C2.07422 45.3707 2.73292 40.7931 4.03551 36.3931C4.45182 34.9851 4.9366 33.5826 5.48058 32.2208C8.9961 23.4246 14.991 15.9217 22.8177 10.5226C30.8312 4.99765 40.2306 2.07422 50.0001 2.07422C59.7695 2.07422 69.2707 5.02726 77.312 10.6132C85.1683 16.0716 91.1594 23.6466 94.6361 32.5168C95.1967 33.9489 95.6945 35.4254 96.1145 36.9057C97.3172 41.1409 97.9259 45.5465 97.9259 49.9964C97.9259 61.9806 93.4797 73.4505 85.4069 82.2966C77.3878 91.0836 66.4768 96.553 54.6868 97.6965C53.1326 97.8463 51.5561 97.9222 50.0019 97.9222L50.0001 97.924ZM50.0001 3.92449C40.6062 3.92449 31.5695 6.73321 23.8686 12.0472C16.3435 17.2391 10.5799 24.4515 7.19948 32.9091C6.6777 34.2172 6.20958 35.5661 5.80993 36.9186C4.55914 41.1483 3.92449 45.5483 3.92449 49.9982C3.92449 61.518 8.19863 72.5457 15.9587 81.0495C23.6688 89.4979 34.1562 94.7545 45.4891 95.8555C48.4625 96.1459 51.5117 96.1478 54.5073 95.8555C65.8403 94.7564 76.3295 89.4979 84.0396 81.0495C91.7996 72.5457 96.0738 61.518 96.0738 49.9964C96.0738 45.7167 95.4872 41.4814 94.3327 37.4089C93.9293 35.9861 93.4519 34.5669 92.9117 33.1903C89.5682 24.6605 83.8083 17.3779 76.2555 12.1305C68.5269 6.76097 59.4476 3.92264 50.0001 3.92264V3.92449Z" fill="#002D59"/>
<path d="M40.4329 70.5048C37.8962 70.5048 35.3613 70.0459 32.9467 69.1281L30.9484 68.3695L30.1195 68.7137C24.6889 70.9673 18.5516 70.8471 13.2209 68.3899C11.3448 69.1763 9.37052 69.6869 7.34631 69.9071L7.14648 68.0679C9.12258 67.8533 11.0469 67.3352 12.8638 66.5304C13.1118 66.4193 13.3967 66.4249 13.641 66.5433L13.7039 66.5729C18.633 68.9468 24.3577 69.1059 29.4109 67.0059L30.5784 66.5211C30.7967 66.4304 31.0409 66.4267 31.2611 66.51L33.6017 67.4C38.022 69.0819 42.8901 69.0745 47.3067 67.3815L49.6547 66.4823C49.8675 66.4008 50.1043 66.4008 50.3171 66.4823L52.6448 67.3759C57.0503 69.0671 61.9072 69.08 66.322 67.4129L68.7144 66.51C68.9253 66.4304 69.1585 66.4304 69.3694 66.51L71.4769 67.3112C76.0248 69.0412 81.015 68.9875 85.526 67.1595L87.182 66.4878C87.3911 66.4027 87.6242 66.3971 87.837 66.473L91.5228 67.7719C91.9317 67.9162 92.348 68.0476 92.7624 68.1623L92.2666 69.9441C91.8132 69.8183 91.3544 69.674 90.9066 69.5167L87.5521 68.3344L86.2199 68.8747C81.2759 70.8785 75.8047 70.9377 70.8182 69.0412L69.0382 68.364L66.9733 69.143C62.133 70.971 56.8097 70.9562 51.9787 69.1022L49.9822 68.3362L47.9654 69.1096C45.536 70.0403 42.9808 70.5066 40.4274 70.5066L40.4329 70.5048Z" fill="#002D59"/>
<path d="M40.7036 78.7532C38.1669 78.7532 35.632 78.2943 33.2174 77.3766L31.2209 76.618L30.3902 76.9621C24.9615 79.2176 18.8222 79.0955 13.4935 76.6365C12.9939 76.8456 12.4832 77.038 11.9688 77.2082C11.8763 77.2397 11.782 77.2693 11.6894 77.2989L11.127 75.5356C11.2139 75.5078 11.299 75.4801 11.3841 75.4523C11.9762 75.2543 12.5665 75.0268 13.1345 74.7751C13.3806 74.6659 13.66 74.6696 13.9024 74.7844L13.9653 74.814C18.9 77.1934 24.6247 77.3507 29.6778 75.2525L30.8305 74.7751C31.0507 74.6789 31.2987 74.6715 31.5244 74.7548L31.5595 74.7677L33.8724 75.6484C38.2927 77.3285 43.1608 77.3229 47.5774 75.6299L49.9254 74.7289C50.1382 74.6474 50.375 74.6474 50.5878 74.7289L52.9154 75.6225C57.3228 77.3137 62.1798 77.3266 66.5927 75.6595L68.9851 74.7566C69.196 74.677 69.4291 74.677 69.6401 74.7566L71.7475 75.5578C76.2733 77.2804 81.2413 77.2341 85.7375 75.4283C85.7467 75.4246 85.756 75.4209 85.7652 75.4172C85.7782 75.4116 85.7911 75.4061 85.8059 75.4005L87.4545 74.7326C87.6636 74.6474 87.8967 74.6419 88.1095 74.7178L89.1993 75.1026L88.5832 76.8474L87.8246 76.5791L86.4924 77.1194C86.4813 77.1231 86.472 77.1268 86.4609 77.1305C86.448 77.1361 86.4332 77.1416 86.4184 77.1472C81.4911 79.1214 76.0494 79.1714 71.0907 77.2841L69.3107 76.6069L67.2458 77.3859C62.4073 79.2139 57.0822 79.1991 52.2512 77.3451L50.2547 76.5791L48.2379 77.3525C45.8085 78.2832 43.2533 78.7495 40.6981 78.7495L40.7036 78.7532Z" fill="#002D59"/>
<path d="M40.4083 82.8776C37.8716 82.8776 35.3367 82.4187 32.9221 81.501L30.9238 80.7424L30.0949 81.0865C24.8549 83.2624 19.1672 83.2902 14.0808 81.1661C13.609 80.9699 13.3869 80.4278 13.5831 79.956C13.7792 79.4842 14.3213 79.2621 14.7931 79.4583C19.4207 81.3918 24.6033 81.3622 29.3844 79.3769L30.5519 78.8921C30.7703 78.8014 31.0145 78.7977 31.2347 78.881L33.5753 79.771C37.9974 81.451 42.8637 81.4455 47.2803 79.7525L49.6283 78.8532C49.8411 78.7718 50.0779 78.7718 50.2907 78.8532L52.6183 79.7469C57.0238 81.4381 61.8808 81.451 66.2956 79.7839L68.688 78.881C68.8989 78.8014 69.132 78.8014 69.343 78.881L71.4504 79.6822C76.0632 81.4362 80.6296 81.4233 85.0222 79.6433C85.4959 79.4509 86.0343 79.6803 86.2267 80.154C86.4192 80.6276 86.1897 81.1661 85.716 81.3585C80.8776 83.3198 75.8559 83.3383 70.7917 81.4122L69.0118 80.735L66.9469 81.5139C62.1065 83.342 56.7814 83.3272 51.9522 81.4732L49.9558 80.7072L47.939 81.4806C45.5096 82.4113 42.9543 82.8776 40.4009 82.8776H40.4083Z" fill="#002D59"/>
<path d="M40.4079 87.0018C37.8712 87.0018 35.3363 86.5429 32.9217 85.6252L30.9234 84.8666L30.0945 85.2107C26.7991 86.5799 23.1818 87.0906 19.6349 86.6854C19.1279 86.628 18.7615 86.1692 18.8207 85.6622C18.8781 85.1552 19.337 84.787 19.8439 84.8481C23.0782 85.2163 26.3773 84.75 29.384 83.5011L30.5515 83.0163C30.7698 82.9256 31.014 82.9219 31.2342 83.0052L33.5748 83.8952C37.997 85.5752 42.8632 85.5697 47.2798 83.8767L49.6278 82.9774C49.8406 82.896 50.0774 82.896 50.2902 82.9774L52.6179 83.8711C57.0234 85.5623 61.8803 85.5752 66.2951 83.9081L68.6875 83.0052C68.8984 82.9256 69.1316 82.9256 69.3425 83.0052L71.45 83.8064C73.9571 84.7593 76.7954 85.0201 80.3831 84.626C80.8901 84.5705 81.3471 84.9369 81.4045 85.4439C81.46 85.9527 81.0936 86.4079 80.5866 86.4652C76.751 86.8871 73.5463 86.5836 70.795 85.5364L69.015 84.8592L66.9501 85.6381C62.1098 87.4662 56.7865 87.4514 51.9555 85.5974L49.959 84.8314L47.9422 85.6048C45.5128 86.5355 42.9576 87.0018 40.4042 87.0018H40.4079Z" fill="#002D59"/>
<path d="M40.4082 91.1261C37.8714 91.1261 35.3366 90.6672 32.922 89.7495L30.9237 88.9908L30.0947 89.335C28.5609 89.9715 26.9493 90.4267 25.3081 90.6875C24.8029 90.769 24.3293 90.423 24.2497 89.9178C24.1702 89.4127 24.5143 88.939 25.0194 88.8595C26.5163 88.6226 27.9854 88.2082 29.3861 87.6253L30.5536 87.1406C30.7719 87.0499 31.0162 87.0462 31.2364 87.1295L33.577 88.0194C37.9991 89.6995 42.8653 89.6939 47.2819 88.0009L49.6299 87.1017C49.8427 87.0203 50.0796 87.0203 50.2923 87.1017L52.62 87.9954C57.0255 89.6865 61.8825 89.6995 66.2972 88.0324L68.6896 87.1295C68.9006 87.0499 69.1337 87.0499 69.3446 87.1295L71.4521 87.9306C72.4771 88.321 73.4097 88.5949 74.3829 88.791C74.8844 88.8928 75.2082 89.3794 75.1064 89.8808C75.0046 90.3822 74.518 90.706 74.0166 90.6043C72.9397 90.3878 71.9165 90.0862 70.7934 89.6606L69.0134 88.9834L66.9485 89.7624C62.1082 91.5905 56.785 91.5757 51.9539 89.7217L49.9574 88.9557L47.9406 89.7291C45.5112 90.6598 42.956 91.1261 40.4026 91.1261H40.4082Z" fill="#002D59"/>
<path d="M40.5606 66.1677C38.0239 66.1677 35.489 65.7089 33.0744 64.7911L31.0761 64.0325L30.2471 64.3767C24.8166 66.6322 18.6792 66.51 13.3486 64.0529C11.0672 65.0113 8.65628 65.5553 6.17876 65.67L6.0918 63.8216C8.48235 63.7106 10.8026 63.1629 12.9896 62.1915C13.2376 62.0805 13.5207 62.086 13.7649 62.2026L13.8278 62.2322C18.7588 64.6061 24.4835 64.7652 29.5366 62.667L30.7042 62.1822C30.9225 62.0916 31.1667 62.0879 31.3869 62.1711L33.7275 63.0611C38.1497 64.743 43.0159 64.7356 47.4325 63.0426L49.7805 62.1434C49.9933 62.062 50.2301 62.062 50.4429 62.1434L52.7706 63.0371C57.1761 64.7282 62.033 64.7412 66.4478 63.0741L68.8402 62.1711C69.0511 62.0916 69.2843 62.0916 69.4952 62.1711L71.6027 62.9723C76.1525 64.7023 81.1408 64.6487 85.6518 62.8206L87.3078 62.1489C87.5169 62.0638 87.75 62.0583 87.9628 62.1341L91.6486 63.433C92.5663 63.7568 93.5173 64.0122 94.4721 64.1935L94.1279 66.0123C93.0788 65.8143 92.039 65.5349 91.0324 65.1797L87.6779 63.9974L86.3456 64.5376C81.4017 66.5415 75.9305 66.6007 70.944 64.7042L69.164 64.027L67.0991 64.8059C62.2588 66.634 56.9355 66.6192 52.1045 64.7652L50.108 63.9992L48.0912 64.7726C45.6618 65.7033 43.1066 66.1696 40.5532 66.1696L40.5606 66.1677Z" fill="#002D59"/>
<path d="M30.1223 71.7982C30.5312 71.1635 31.4971 71.467 32.1891 71.7704C34.3743 72.727 36.8 72.9453 39.1776 73.1507C42.4785 73.4356 45.9977 73.6799 48.9119 72.1016C49.4096 71.8315 49.9147 71.5021 50.4828 71.5003C50.7936 71.5003 51.0933 71.5983 51.3894 71.6927C53.0546 72.2237 54.755 72.6493 56.4832 72.9065C60.7943 73.5467 65.2591 73.1137 69.3685 71.6612C69.8089 72.3551 68.5303 74.5717 67.9697 74.7604C67.5775 74.8937 66.2878 74.9159 65.8733 74.9307C62.8574 75.0361 59.8414 75.1397 56.8237 75.1675C55.5266 75.1786 54.2148 75.1749 52.9566 74.8567C52.4811 74.7364 50.4272 74.5754 49.8851 74.6716C47.5686 75.0824 45.2335 75.3858 42.8892 75.5801C39.9362 75.8244 36.9313 75.8947 34.0431 75.2267C33.3714 75.0713 32.6961 74.8715 32.1225 74.4884C31.1677 73.852 30.6015 72.7899 30.0742 71.7722" fill="white"/>
<path d="M40.7064 74.6289C38.1697 74.6289 35.6348 74.17 33.2202 73.2523L31.2219 72.4937L30.393 72.8378C24.9624 75.0915 18.8251 74.9694 13.4944 72.514C12.2344 73.0414 10.9225 73.4484 9.5848 73.7223L9.21289 71.9108C10.5599 71.6333 11.8791 71.2114 13.1373 70.6545C13.3853 70.5435 13.6702 70.549 13.9144 70.6675L13.9774 70.6971C18.9065 73.071 24.6312 73.2301 29.6843 71.13L30.8519 70.6453C31.0702 70.5546 31.3144 70.5509 31.5346 70.6342L33.8752 71.5241C38.2955 73.206 43.1636 73.1986 47.5802 71.5056L49.9282 70.6064C50.141 70.525 50.3778 70.525 50.5906 70.6064L52.9183 71.5001C57.3238 73.1912 62.1807 73.2042 66.5955 71.5371L68.9879 70.6342C69.1988 70.5546 69.432 70.5546 69.6429 70.6342L71.7504 71.4353C76.2983 73.1653 81.2885 73.1117 85.7995 71.2836L87.4555 70.612C87.6646 70.5268 87.8977 70.5213 88.1105 70.5971L91.7962 71.896L91.1801 73.6409L87.8256 72.4585L86.4934 72.9988C81.5476 75.0027 76.0782 75.0619 71.0917 73.1653L69.3117 72.4881L67.2468 73.2671C62.4065 75.0952 57.0814 75.0804 52.2522 73.2264L50.2557 72.4604L48.2389 73.2338C45.8095 74.1645 43.2543 74.6308 40.7009 74.6308L40.7064 74.6289Z" fill="#002D59"/>
<path d="M96.4773 58.3781C94.7232 58.2227 92.9914 57.8471 91.3317 57.2624L87.9771 56.0801L86.6449 56.6204C81.6991 58.6242 76.2297 58.6834 71.2432 56.7869L69.4633 56.1097L67.3983 56.8886C62.558 58.7167 57.2348 58.7019 52.4037 56.8479L50.4073 56.0819L48.3905 56.8553C43.5483 58.7112 38.2121 58.7186 33.3662 56.8757L31.3679 56.1171L30.539 56.4612C25.1085 58.7149 18.9711 58.5927 13.6404 56.1374C11.3591 57.0959 8.94814 57.6399 6.47063 57.7546C5.58249 57.7953 4.68326 57.7805 3.79883 57.7083L3.94685 55.8636C4.75542 55.9283 5.57509 55.9432 6.38366 55.9043C8.77422 55.7933 11.0945 55.2456 13.2815 54.2742C13.5294 54.1632 13.8144 54.1687 14.0586 54.2872L14.1215 54.3168C19.0506 56.6907 24.7754 56.8498 29.8285 54.7497L30.996 54.2649C31.2144 54.1743 31.4586 54.1706 31.6788 54.2538L34.0194 55.1438C38.4415 56.8239 43.3078 56.8183 47.7244 55.1253L50.0724 54.2261C50.2851 54.1447 50.522 54.1447 50.7348 54.2261L53.0624 55.1198C57.4679 56.8109 62.3249 56.8239 66.7397 55.1568L69.1321 54.2538C69.343 54.1743 69.5761 54.1743 69.7871 54.2538L71.8945 55.055C76.4425 56.785 81.4327 56.7314 85.9437 54.9033L87.5997 54.2316C87.8087 54.1465 88.0419 54.141 88.2547 54.2168L91.9404 55.5157C93.4558 56.0505 95.0341 56.3928 96.6346 56.5334L96.4717 58.3763L96.4773 58.3781Z" fill="#002D59"/>
<path d="M96.9378 54.4556C95.0246 54.3279 93.1373 53.9412 91.3296 53.3028L87.975 52.1205L86.6428 52.6608C81.6971 54.6646 76.2276 54.7239 71.2411 52.8273L69.4612 52.1501L67.3963 52.9291C62.556 54.7572 57.2309 54.7424 52.4016 52.8884L50.4052 52.1224L48.3884 52.8958C43.5462 54.7516 38.21 54.759 33.3642 52.9161L31.3659 52.1575L30.5369 52.5017C25.1064 54.7553 18.969 54.635 13.6384 52.1779C11.357 53.1363 8.94607 53.6803 6.46856 53.795C5.41575 53.845 4.34999 53.8135 3.30273 53.7044L3.49516 51.8633C4.45176 51.9632 5.42315 51.991 6.38344 51.9466C8.774 51.8356 11.0942 51.2879 13.2813 50.3165C13.5292 50.2055 13.8142 50.211 14.0584 50.3295L14.1213 50.3591C19.0504 52.733 24.7752 52.8902 29.8283 50.792L30.9958 50.3072C31.2141 50.2166 31.4584 50.2129 31.6786 50.2961L34.0192 51.1861C38.4395 52.868 43.3075 52.8606 47.7241 51.1676L50.0721 50.2684C50.2849 50.187 50.5218 50.187 50.7346 50.2684L53.0622 51.1621C57.4677 52.8532 62.3247 52.8662 66.7394 51.1991L69.1318 50.2961C69.3428 50.2166 69.5759 50.2166 69.7868 50.2961L71.8943 51.0973C76.4423 52.8273 81.4325 52.7737 85.9434 50.9456L87.5994 50.2739C87.8085 50.1888 88.0417 50.1833 88.2544 50.2591L91.9402 51.558C93.5888 52.139 95.3095 52.4924 97.0543 52.609L96.9322 54.4556H96.9378Z" fill="#002D59"/>
<path d="M14.4983 44.6157H84.3813C85.9541 44.6157 86.9902 46.2569 86.313 47.6761L82.8789 54.881C81.2766 58.2411 77.885 60.3819 74.1623 60.3819H39.5621C32.5107 60.3819 25.7461 57.5899 20.7485 52.6145L13.9783 45.8758C13.5121 45.4113 13.8414 44.6157 14.4983 44.6157Z" fill="white"/>
<path d="M74.1619 61.3089H39.5617C32.2161 61.3089 25.3016 58.4558 20.095 53.2732L13.3248 46.5345C12.8456 46.0571 12.7031 45.3466 12.9603 44.7212C13.2175 44.0958 13.8225 43.6924 14.4979 43.6924H84.3809C85.4393 43.6924 86.4088 44.2272 86.9732 45.1227C87.5375 46.0182 87.6041 47.1229 87.1471 48.0776L83.713 55.2826C81.9663 58.9443 78.2177 61.3108 74.1619 61.3108V61.3089ZM14.9512 45.5409L21.4013 51.9595C26.2582 56.7942 32.7083 59.4568 39.5617 59.4568H74.1637C77.5109 59.4568 80.6045 57.5048 82.0459 54.4833L85.48 47.2783C85.6632 46.8934 85.6373 46.4679 85.4115 46.1071C85.184 45.7463 84.8102 45.5409 84.3846 45.5409H14.9512Z" fill="#002D59"/>
<path d="M62.033 45.5407H30.2656L34.9468 32.0633C35.2873 31.0845 36.3345 30.5239 37.3374 30.7829L60.3067 36.2394C61.1652 36.4688 61.761 37.2182 61.7888 38.1063L62.0312 45.5389L62.033 45.5407ZM32.869 43.6905H60.1217L59.9422 38.1674C59.9403 38.1045 59.8978 38.049 59.8386 38.0305L36.8767 32.5758C36.8008 32.5555 36.7231 32.5981 36.6972 32.6702L32.869 43.6886V43.6905Z" fill="#002D59"/>
<path d="M43.1935 52.7162C39.5059 52.7162 35.9164 51.9835 32.523 50.5366L16.457 43.6906H84.4713C85.5149 43.6906 86.4696 44.2179 87.0247 45.1005C87.5798 45.983 87.6427 47.071 87.1912 48.0128L84.9487 52.6921L43.2102 52.7162H43.1935ZM25.5197 45.5408L33.2501 48.8343C36.4123 50.1813 39.7575 50.8641 43.1954 50.8641H43.212L83.7849 50.84L85.5241 47.2098C85.7017 46.8397 85.6777 46.4308 85.4594 46.0848C85.241 45.7388 84.8821 45.539 84.4713 45.539H25.5197V45.5408Z" fill="#002D59"/>
<path d="M75.9136 45.5408H64.9434V39.2535C64.9434 37.8658 66.0739 36.7353 67.4616 36.7353H73.3954C74.7831 36.7353 75.9136 37.8658 75.9136 39.2535V45.5408ZM66.7936 43.6905H74.0634V39.2535C74.0634 38.8853 73.7636 38.5856 73.3954 38.5856H67.4616C67.0934 38.5856 66.7936 38.8853 66.7936 39.2535V43.6905Z" fill="#002D59"/>
<path d="M71.7308 61.196L57.38 63.0075L50.4452 61.4939L39.1307 63.0075L32.2348 61.9621L31.6094 57.5362H71.7308V61.196Z" fill="white"/>
<path d="M95.681 62.2507C94.2007 62.062 92.7372 61.7159 91.331 61.2201L87.9764 60.0378L86.6442 60.578C81.6984 62.5819 76.229 62.6411 71.2425 60.7446L69.4626 60.0674L67.3977 60.8463C62.5573 62.6744 57.2322 62.6596 52.403 60.8056L50.4066 60.0396L48.3898 60.813C43.5476 62.6688 38.2114 62.6762 33.3655 60.8334L31.3672 60.0748L30.5383 60.4189C25.1078 62.6725 18.9704 62.5523 13.6397 60.0951C11.3584 61.0536 8.94745 61.5975 6.46993 61.7122C5.83528 61.7419 5.19324 61.7437 4.55859 61.7141L4.64001 59.8657C5.21914 59.8916 5.80568 59.8897 6.38297 59.8638C8.77352 59.7528 11.0938 59.2051 13.2808 58.2337C13.5287 58.1227 13.8137 58.1283 14.0579 58.2467L14.1208 58.2763C19.05 60.6502 24.7747 60.8093 29.8278 58.7093L30.9953 58.2245C31.2137 58.1338 31.4579 58.1301 31.6781 58.2134L34.0187 59.1034C38.439 60.7834 43.3071 60.7779 47.7237 59.0849L50.0717 58.1856C50.2845 58.1042 50.5213 58.1042 50.7341 58.1856L53.0617 59.0793C57.4672 60.7705 62.3242 60.7834 66.739 59.1163L69.1314 58.2134C69.3423 58.1338 69.5754 58.1338 69.7864 58.2134L71.8938 59.0146C76.4436 60.7446 81.432 60.6909 85.943 58.8628L87.599 58.1912C87.808 58.1061 88.0412 58.1005 88.254 58.1764L91.9397 59.4753C93.2238 59.9286 94.5578 60.245 95.9085 60.4152L95.6754 62.2507H95.681Z" fill="#002D59"/>
<path d="M70.4277 21.7094C72.0171 19.9479 74.7574 19.8758 76.4374 21.5484L76.5984 21.7094L76.6391 21.665C78.2377 19.9257 80.9632 19.8665 82.634 21.5373L82.8061 21.7094" fill="white"/>
<path d="M76.631 23.0433L75.7873 22.2033C75.1545 21.5742 74.3163 21.2467 73.4245 21.2652C72.5326 21.2893 71.713 21.6667 71.1153 22.3291C70.773 22.7084 70.1883 22.738 69.809 22.3957C69.4297 22.0534 69.4001 21.4687 69.7424 21.0894C70.6823 20.0477 71.972 19.4538 73.3745 19.4168C74.5531 19.389 75.6744 19.7517 76.5921 20.4566C77.4451 19.7924 78.485 19.4223 79.5896 19.3983C80.9865 19.3687 82.3002 19.896 83.2883 20.884L83.4604 21.0561C83.8212 21.4169 83.8212 22.0035 83.4604 22.3643C83.0995 22.7251 82.513 22.7251 82.1522 22.3643L81.9801 22.1922C81.3529 21.565 80.5166 21.2282 79.6303 21.2486C78.7421 21.2671 77.9225 21.639 77.323 22.2921L76.6328 23.0452L76.631 23.0433Z" fill="#002D59"/>
<path d="M51.8848 29.0216C53.4742 27.2601 56.2144 27.188 57.8945 28.8606L58.0554 29.0216L58.0961 28.9772C59.6948 27.2379 62.4202 27.1787 64.091 28.8495L64.2631 29.0216" fill="white"/>
<path d="M58.086 30.3575L57.2404 29.5174C56.6076 28.8883 55.7694 28.5553 54.8776 28.5793C53.9857 28.6034 53.1661 28.9809 52.5684 29.6432C52.2261 30.0226 51.6414 30.0522 51.2621 29.7099C50.8828 29.3676 50.8532 28.7829 51.1955 28.4036C52.1355 27.3619 53.4251 26.7679 54.8276 26.7309C56.0062 26.6995 57.1275 27.0658 58.0452 27.7708C58.8982 27.1065 59.9381 26.7365 61.0427 26.7124C62.4397 26.6847 63.7534 27.2101 64.7414 28.1982L64.9135 28.3703C65.2743 28.7311 65.2743 29.3176 64.9135 29.6784C64.5527 30.0392 63.9661 30.0392 63.6053 29.6784L63.4333 29.5063C62.806 28.8791 61.9715 28.5442 61.0834 28.5627C60.1953 28.5812 59.3756 28.9531 58.7761 29.6062L58.086 30.3593V30.3575Z" fill="#002D59"/>
</svg>
