<svg width="23" height="22" viewBox="0 0 23 22" fill="none" xmlns="http://www.w3.org/2000/svg">
<path d="M9.16757 10.6866C8.05446 11.7167 6.95562 12.7331 5.82031 13.7833V8.1073C6.94716 8.97569 8.04706 9.82348 9.16757 10.6866Z" fill="white"/>
<path d="M6.68128 7.36666C6.65433 7.34605 6.6205 7.33442 6.58984 7.31857C6.59989 7.30377 6.60993 7.28897 6.61944 7.27417H16.4889C16.4445 7.32121 16.4181 7.35715 16.3843 7.38305C14.8177 8.5913 13.2489 9.79796 11.6839 11.0083C11.5862 11.0839 11.5233 11.1024 11.4149 11.0189C9.83985 9.79849 8.26056 8.58284 6.68128 7.36666Z" fill="white"/>
<path d="M13.0265 11.3777C14.3051 12.56 15.5778 13.7382 16.8949 14.957H6.19141C7.50378 13.7429 8.77281 12.568 10.0593 11.3777C10.4055 11.6435 10.7496 11.9057 11.0915 12.1705C11.4409 12.4411 11.6386 12.4427 11.9927 12.1716C12.3315 11.912 12.6703 11.6515 13.0265 11.3777Z" fill="white"/>
<path d="M13.9219 10.6878C15.036 9.82893 16.1354 8.98114 17.2654 8.11011V13.7798C16.1391 12.738 15.0413 11.7232 13.9219 10.6878Z" fill="white"/>
<path d="M11.5438 0.313721C5.57603 0.313721 0.738281 5.15147 0.738281 11.1192C0.738281 17.087 5.57603 21.9247 11.5438 21.9247C17.5116 21.9247 22.3493 17.087 22.3493 11.1192C22.3493 5.15147 17.5116 0.313721 11.5438 0.313721ZM18.3868 14.3359C18.3963 15.2725 17.6744 16.1029 16.6183 16.0955C14.9259 16.0833 13.233 16.0923 11.5406 16.0923C9.84823 16.0923 8.12783 16.0944 6.42117 16.0912C5.58554 16.0902 4.91852 15.5563 4.74093 14.7471C4.70975 14.6055 4.70922 14.4549 4.70922 14.3079C4.7071 12.1805 4.72613 10.0526 4.6997 7.92578C4.68755 6.94111 5.45023 6.13878 6.49093 6.14301C9.86197 6.15728 13.233 6.15622 16.6041 6.14354C17.6596 6.13984 18.3979 6.95855 18.3874 7.91151C18.3646 10.0526 18.3652 12.1943 18.3868 14.3359Z" fill="white"/>
</svg>
