<svg width="23" height="23" viewBox="0 0 23 23" fill="none" xmlns="http://www.w3.org/2000/svg">
<path d="M15.2133 8.27899C14.9448 7.16377 14.3629 6.29907 13.2805 5.8366C12.3577 5.44231 11.401 5.41007 10.4322 5.62994C9.37148 5.87095 8.58397 6.47613 8.14476 7.47349C7.64424 8.6088 7.60936 9.75997 8.09931 10.9243C8.67593 12.2954 9.40477 13.5808 10.2092 14.8255C10.6283 15.474 11.0728 16.1056 11.5316 16.7827C11.641 16.6289 11.7224 16.5163 11.8017 16.4027C12.9755 14.7277 14.0775 13.0121 14.9015 11.1294C15.3063 10.2045 15.4517 9.26895 15.2133 8.27899ZM11.5332 11.1627C10.6225 11.1606 9.88996 10.427 9.88732 9.51367C9.88415 8.58977 10.6193 7.85457 11.5443 7.85774C12.4586 7.86091 13.1896 8.59083 13.1922 9.50362C13.1949 10.4217 12.4517 11.1643 11.5332 11.1627Z" fill="white"/>
<path d="M22.3467 11.362C22.3467 11.362 22.3472 11.3578 22.3467 11.3562C22.3456 11.2928 22.3435 11.2293 22.3414 11.1659C22.3398 11.1194 22.3382 11.0734 22.335 11.0274C22.3329 10.9836 22.3308 10.9397 22.3282 10.8964C22.3282 10.889 22.3282 10.8816 22.3266 10.8747C22.3208 10.788 22.3139 10.7013 22.3065 10.6152C22.2943 10.4783 22.2795 10.3425 22.2626 10.2071C22.2568 10.1622 22.2505 10.1173 22.2447 10.0724C22.2314 9.97564 22.2166 9.87945 22.2003 9.78325C21.7093 6.85724 20.0428 4.33029 17.7035 2.70396C17.6644 2.67701 17.6248 2.65005 17.5851 2.62309C17.5159 2.57658 17.4467 2.5306 17.3764 2.48567C17.3716 2.4825 17.3674 2.47933 17.3626 2.47669C17.3309 2.4566 17.2987 2.43652 17.267 2.41643C17.2273 2.39159 17.1872 2.36675 17.147 2.34244C17.1211 2.32658 17.0952 2.31125 17.0693 2.29593C17.0476 2.28271 17.026 2.27003 17.0038 2.25734C16.9768 2.24096 16.9493 2.2251 16.9224 2.20977C16.8658 2.17753 16.8093 2.14582 16.7522 2.11411C16.6972 2.08345 16.6417 2.05385 16.5857 2.02426C16.5836 2.0232 16.5815 2.02214 16.5788 2.02056C16.4589 1.95713 16.3373 1.89582 16.2147 1.83715C16.1592 1.8102 16.1032 1.7843 16.0471 1.7584C15.989 1.73144 15.9298 1.70502 15.8706 1.67912C15.8352 1.66379 15.7998 1.64846 15.7638 1.63314C15.7554 1.62891 15.7464 1.62521 15.7374 1.62204C14.7517 1.2066 13.6915 0.932817 12.5816 0.827637C12.5229 0.821823 12.4642 0.816538 12.405 0.812309C12.1207 0.789582 11.8337 0.777954 11.5435 0.777954C11.1265 0.777954 10.7153 0.801738 10.311 0.847193C10.3084 0.847722 10.3057 0.84825 10.3031 0.84825C9.84114 0.901104 9.38819 0.983028 8.94634 1.09244C7.26562 1.50681 5.73975 2.31495 4.47234 3.41274C4.43957 3.44022 4.40733 3.46876 4.37509 3.49836C4.35659 3.51474 4.33809 3.53113 4.32012 3.54751C4.29158 3.57288 4.26304 3.59878 4.23503 3.62521C4.22816 3.63102 4.22076 3.6379 4.21389 3.64424C4.07594 3.77214 3.9417 3.90217 3.81221 4.03483C3.77891 4.06919 3.74561 4.10354 3.71284 4.1379C1.86933 6.07606 0.738281 8.6971 0.738281 11.5835C0.738281 11.9926 0.761008 12.3964 0.805404 12.7933C0.860371 13.2885 0.949164 13.7732 1.06914 14.2457C1.08341 14.3018 1.09768 14.3578 1.11248 14.4133C1.12411 14.4561 1.13574 14.4989 1.14789 14.5417C1.5242 15.8662 2.14681 17.0872 2.96286 18.1522C2.98876 18.1865 3.01571 18.2209 3.04267 18.2547C3.06645 18.2843 3.09024 18.3145 3.11402 18.344C3.11719 18.3483 3.12036 18.3525 3.12353 18.3562C3.39784 18.6966 3.69382 19.019 4.00618 19.3229C4.06643 19.3821 4.12721 19.4408 4.18905 19.4984C4.21759 19.5253 4.24613 19.5523 4.2752 19.5787C4.28365 19.5867 4.29264 19.5951 4.30162 19.603C5.69588 20.8631 7.42048 21.7648 9.33005 22.1622C9.33375 22.1622 9.33798 22.1633 9.34168 22.1644C10.0526 22.3118 10.7888 22.389 11.5435 22.389C11.6471 22.389 11.7502 22.3874 11.8527 22.3842C13.7877 22.3303 15.5952 21.7674 17.147 20.8245C17.1729 20.8092 17.1988 20.7933 17.2242 20.7769C18.1094 20.2288 18.9096 19.5565 19.6004 18.7838C19.6105 18.7732 19.62 18.7627 19.629 18.7521C20.8319 17.3964 21.6992 15.7357 22.1004 13.9006C22.1014 13.8958 22.1025 13.8916 22.103 13.8869C22.2394 13.2589 22.3202 12.611 22.3424 11.9476C22.344 11.8953 22.3456 11.8435 22.3467 11.7912V11.7716C22.3472 11.7547 22.3472 11.7373 22.3477 11.7204C22.3483 11.6749 22.3493 11.6295 22.3493 11.5835C22.3493 11.5095 22.3488 11.4355 22.3467 11.362ZM16.646 9.85038C16.5677 10.5967 16.2992 11.2938 15.9937 11.9725C15.0831 13.9931 13.8643 15.8287 12.5726 17.6189C12.2438 18.0745 11.9045 18.5222 11.5467 19.0047C11.3459 18.7405 11.1667 18.5079 10.9912 18.2727C9.66672 16.4973 8.42151 14.6702 7.42417 12.6871C7.00769 11.8588 6.64089 11.0095 6.47177 10.0893C6.33858 9.36359 6.4205 8.64636 6.58064 7.93759C7.03095 5.94604 8.45481 4.58081 10.4669 4.25153C11.8321 4.02849 13.1566 4.17014 14.3733 4.89318C15.3315 5.46295 15.9657 6.30069 16.3309 7.34298C16.6153 8.15376 16.7353 8.99414 16.646 9.85038Z" fill="white"/>
</svg>
