<svg width="23" height="23" viewBox="0 0 23 23" fill="none" xmlns="http://www.w3.org/2000/svg">
<path d="M22.3389 11.4384C22.3389 11.4384 22.3394 11.4342 22.3389 11.4326C22.3378 11.3692 22.3357 11.3058 22.3336 11.2423C22.332 11.1958 22.3304 11.1498 22.3272 11.1039C22.3251 11.06 22.323 11.0161 22.3204 10.9728C22.3204 10.9654 22.3198 10.958 22.3188 10.9511C22.313 10.8644 22.3061 10.7777 22.2987 10.6916C22.2865 10.5547 22.2717 10.4189 22.2548 10.2836C22.249 10.2386 22.2427 10.1937 22.2368 10.1488C22.2236 10.0521 22.2088 9.95586 22.1925 9.85967C21.7014 6.93366 20.035 4.4067 17.6957 2.78038C17.6566 2.75342 17.617 2.72647 17.5773 2.69951C17.5081 2.653 17.4389 2.60702 17.3686 2.56209C17.3638 2.55892 17.3596 2.55575 17.3548 2.5531C17.3231 2.53302 17.2909 2.51294 17.2592 2.49285C17.2195 2.46801 17.1794 2.44317 17.1392 2.41885C17.1133 2.403 17.0874 2.38767 17.0615 2.37234C17.0398 2.35913 17.0182 2.34644 16.996 2.33376C16.969 2.31737 16.9415 2.30152 16.9146 2.28619C16.858 2.25395 16.8015 2.22224 16.7444 2.19052C16.6894 2.15987 16.6339 2.13027 16.5779 2.10067C16.5758 2.09962 16.5737 2.09856 16.571 2.09697C16.451 2.03355 16.3295 1.97224 16.2069 1.91357C16.1514 1.88661 16.0953 1.86071 16.0393 1.83482C15.9812 1.80786 15.922 1.78143 15.8628 1.75553C15.8274 1.74021 15.792 1.72488 15.756 1.70955C15.7476 1.70532 15.7386 1.70162 15.7296 1.69845C14.7439 1.28302 13.6837 1.00923 12.5737 0.904053C12.5151 0.898239 12.4564 0.892954 12.3972 0.888725C12.1129 0.865998 11.8259 0.85437 11.5357 0.85437C11.1187 0.85437 10.7075 0.878155 10.3032 0.923609C10.3005 0.924138 10.2979 0.924666 10.2953 0.924666C9.83333 0.97752 9.38038 1.05944 8.93853 1.16885C7.2578 1.58323 5.73194 2.39137 4.46453 3.48915C4.43176 3.51664 4.39952 3.54518 4.36728 3.57478C4.34878 3.59116 4.33028 3.60755 4.31231 3.62393C4.28377 3.6493 4.25523 3.6752 4.22722 3.70163C4.22035 3.70744 4.21295 3.71431 4.20608 3.72065C4.06813 3.84856 3.93388 3.97858 3.80439 4.11125C3.7711 4.1456 3.7378 4.17996 3.70503 4.21431C1.86152 6.15248 0.730469 8.77352 0.730469 11.6599C0.730469 12.069 0.753196 12.4728 0.797592 12.8697C0.852559 13.365 0.941352 13.8496 1.06133 14.3222C1.0756 14.3782 1.08987 14.4342 1.10467 14.4897C1.1163 14.5325 1.12792 14.5753 1.14008 14.6181C1.51639 15.9427 2.139 17.1636 2.95505 18.2286C2.98095 18.263 3.0079 18.2973 3.03486 18.3311C3.05864 18.3607 3.08242 18.3909 3.10621 18.4205C3.10938 18.4247 3.11255 18.4289 3.11572 18.4326C3.39003 18.773 3.68548 19.0954 3.99836 19.3993C4.05862 19.4585 4.1194 19.5172 4.18124 19.5748C4.20978 19.6018 4.23832 19.6287 4.26739 19.6551C4.27584 19.6631 4.28483 19.6715 4.29381 19.6795C5.68807 20.9395 7.41266 21.8412 9.32224 22.2387C9.32594 22.2387 9.33017 22.2397 9.33387 22.2408C10.0447 22.3882 10.781 22.4654 11.5357 22.4654C11.6393 22.4654 11.7424 22.4638 11.8449 22.4606C13.7799 22.4067 15.5874 21.8438 17.1392 20.9009C17.1651 20.8856 17.191 20.8697 17.2164 20.8533C18.1016 20.3052 18.9018 19.6329 19.5926 18.8602C19.6027 18.8496 19.6122 18.8391 19.6212 18.8285C20.8241 17.4728 21.6914 15.8121 22.0926 13.977C22.0936 13.9723 22.0947 13.968 22.0952 13.9633C22.2316 13.3354 22.3124 12.6874 22.3346 12.024C22.3362 11.9717 22.3378 11.9199 22.3389 11.8676V11.848C22.3394 11.8311 22.3394 11.8137 22.3399 11.7968C22.3404 11.7513 22.3415 11.7059 22.3415 11.6599C22.3415 11.5859 22.341 11.5119 22.3389 11.4384ZM17.8294 16.6372C17.5985 16.8829 17.3585 17.1197 17.1307 17.3676C16.5758 17.9712 15.8712 18.2032 15.0732 18.2096C14.1007 18.1773 13.2038 17.8724 12.347 17.4374C10.5696 16.5357 9.08123 15.2672 7.76836 13.7841C6.78213 12.6694 5.94177 11.4575 5.38364 10.0663C5.15584 9.49815 4.99464 8.91094 4.95659 8.29783C4.90532 7.46643 5.08925 6.70903 5.70868 6.10491C5.98511 5.83535 6.25994 5.56421 6.5427 5.30152C6.87409 4.99285 7.34078 4.97911 7.66477 5.29465C8.38833 5.99973 9.10343 6.71484 9.80954 7.43789C10.1388 7.77457 10.1177 8.24814 9.78682 8.59064C9.60183 8.7825 9.40733 8.96591 9.22235 9.15777C8.82225 9.57214 8.73504 10.1451 9.00671 10.652C9.818 12.1662 10.9829 13.3301 12.495 14.1435C13.0114 14.421 13.5811 14.3333 14.0061 13.922C14.1926 13.7418 14.3718 13.5536 14.5584 13.3724C14.913 13.0278 15.3876 13.0182 15.7423 13.3671C16.4431 14.0563 17.1376 14.7519 17.8273 15.4522C18.1777 15.8079 18.1725 16.273 17.8294 16.6372Z" fill="white"/>
</svg>
