<svg width="36" height="30" viewBox="0 0 36 30" fill="none" xmlns="http://www.w3.org/2000/svg">
<path d="M9.75 17.1085L13.7675 27.5102L15.9764 24.7157L26.1668 16.0396C27.6128 12.3426 30.5376 4.89966 30.6686 4.70321C30.7996 4.50677 29.4681 4.32109 28.786 4.25281L9.75 17.1085Z" fill="#DBDDE3"/>
<path d="M13.7605 27.4993C13.864 26.0278 13.9636 24.5787 14.0697 23.1295C14.1418 22.1336 14.2374 21.1391 14.2951 20.142C14.3213 19.6926 14.4183 19.3388 14.7851 19.0099C18.4579 15.7145 22.1123 12.4008 25.768 9.08703C26.8792 8.07941 27.9811 7.06131 29.0831 6.04452C29.222 5.91611 29.4434 5.78115 29.3268 5.56496C29.2089 5.34745 28.9691 5.39069 28.7477 5.43786C28.1108 5.57282 27.6287 5.99866 27.1045 6.32886C22.681 9.1093 18.2705 11.9081 13.8548 14.7016C12.6467 15.4655 11.4373 16.2295 10.2279 16.9934C10.0078 17.1322 9.82305 17.2135 9.51775 17.1139C7.05702 16.312 4.58449 15.5455 2.11589 14.7672C1.51709 14.5785 0.780701 14.4304 0.740082 13.6862C0.698152 12.9301 1.39654 12.5947 1.99403 12.3484C3.71052 11.6408 5.44404 10.9765 7.17625 10.3095C10.6813 8.95993 14.1916 7.62343 17.6966 6.27383C21.2226 4.91767 24.7447 3.55234 28.2694 2.19356C29.7998 1.60393 31.3342 1.02609 32.8646 0.433837C33.5381 0.173088 34.2247 0.0184732 34.8366 0.508524C35.4813 1.02478 35.5704 1.74413 35.404 2.52245C34.53 6.62367 33.6665 10.7275 32.7925 14.8301C31.9094 18.9732 31.021 23.1151 30.1313 27.2569C30.0776 27.5085 30.0173 27.7627 29.9295 28.0051C29.4395 29.3691 28.3454 29.7032 27.1609 28.8358C24.6753 27.0171 22.1909 25.1945 19.725 23.3483C19.3463 23.0653 19.1432 23.0823 18.8091 23.4125C17.5866 24.6193 16.3169 25.7789 15.0865 26.9791C14.717 27.3408 14.2964 27.4665 13.7605 27.4993Z" fill="#FEFEFE"/>
</svg>
