<svg width="30" height="30" viewBox="0 0 30 30" fill="none" xmlns="http://www.w3.org/2000/svg">
<path d="M0.873235 29.1057C1.15995 28.0839 1.42624 27.1361 1.69168 26.1884C2.01582 25.0321 2.33061 23.8734 2.67007 22.7223C2.7577 22.4245 2.72282 22.1889 2.57053 21.9226C1.10635 19.3549 0.502297 16.5806 0.718394 13.6471C1.15484 7.72486 5.13391 2.71976 10.8043 0.889749C19.1734 -1.81146 28.0801 3.57309 29.5817 12.2408C30.9234 19.9879 25.9175 27.3956 18.212 28.9925C14.6592 29.7284 11.2663 29.1992 8.08694 27.4245C7.80959 27.2697 7.56457 27.2229 7.24808 27.3148C5.28024 27.8831 3.3056 28.4293 1.3335 28.9823C1.21184 29.0163 1.08933 29.0478 0.873235 29.1057ZM3.00187 26.9949C3.27071 26.9302 3.43406 26.8962 3.59486 26.8511C4.9008 26.4853 6.20163 26.1033 7.51437 25.763C7.73983 25.7043 8.05547 25.7459 8.25455 25.8659C11.3097 27.7104 14.5749 28.2966 18.0708 27.5513C25.5678 25.9527 30.1279 18.0022 27.7185 10.734C25.5508 4.19671 18.9905 0.472019 12.2796 1.96853C6.2782 3.3068 1.89586 8.96189 2.11536 15.1019C2.19959 17.4645 2.83682 19.6689 4.10617 21.6741C4.28994 21.9651 4.31802 22.2212 4.22103 22.547C3.84073 23.8334 3.48511 25.1266 3.12353 26.4181C3.08014 26.5746 3.05632 26.7362 3.00187 26.9949Z" fill="white"/>
<path d="M20.2026 22.8327C18.7878 22.7544 17.4725 22.3375 16.244 21.6671C12.7039 19.7367 10.0087 17.0074 8.45599 13.2453C8.01784 12.1827 7.74645 11.0631 7.99998 9.89409C8.21182 8.91996 8.80651 8.18914 9.56455 7.58935C10.0435 7.2099 10.7463 7.2567 11.2031 7.69399C11.9995 8.45714 12.7779 9.23985 13.5462 10.0319C13.9452 10.4428 13.9367 11.0214 13.5462 11.4493C13.2416 11.7837 12.9166 12.1001 12.5899 12.4132C12.3151 12.677 12.2845 12.9688 12.4419 13.2989C13.536 15.596 15.2324 17.2865 17.5337 18.3746C17.8596 18.5286 18.1267 18.481 18.376 18.2223C18.6797 17.9067 18.9911 17.5978 19.3093 17.2958C19.7925 16.8373 20.3413 16.8304 20.8135 17.2924C21.5613 18.0241 22.304 18.7626 23.0331 19.5129C23.6066 20.1025 23.6032 20.8452 23.0519 21.4493C22.2862 22.2907 21.358 22.7995 20.2026 22.8327Z" fill="white"/>
</svg>
