<svg width="87" height="36" viewBox="0 0 87 36" fill="none" xmlns="http://www.w3.org/2000/svg">
<path d="M0.840508 19.945L3.41644 25.317H3.4185L4.85049 28.323C6.85651 32.5325 11.1669 35.2525 15.8291 35.2525H55.7211C64.1813 35.2525 72.1437 31.9647 78.1391 25.9981L85.9451 18.2291C86.4862 17.69 86.6487 16.8856 86.3566 16.1778C86.0644 15.4721 85.3834 15.0174 84.6201 15.0174H73.6065L72.9358 13.5731C72.2013 11.9909 70.6006 10.9827 68.8559 11.0054L58.8011 11.1391L55.4824 1.58634C55.0977 0.475319 53.9085 -0.158377 52.7727 0.135839L26.2912 6.42754C25.3181 6.68678 24.6411 7.5365 24.6103 8.5426L24.3984 15.0174H20.2032V9.79765C20.2032 8.25456 18.9482 6.99745 17.403 6.99745H10.4324C8.88721 6.99745 7.63217 8.25456 7.63217 9.79765V15.0174H3.94315C2.75394 15.0174 1.66554 15.6182 1.03185 16.6243C0.398155 17.6304 0.326141 18.871 0.840508 19.945Z" fill="#002F5B"/>
<path d="M15.8291 35.2526H55.7231C64.1834 35.2526 72.1437 31.9669 78.1391 25.9982L85.9451 18.2293C86.4862 17.6902 86.6487 16.8857 86.3566 16.18C86.0644 15.4743 85.3834 15.0176 84.6201 15.0176H4.04809C2.84036 15.0176 1.7355 15.6266 1.09152 16.6471C0.44754 17.6676 0.373474 18.9288 0.891953 20.0172L4.85255 28.3231C6.85857 32.5327 11.1689 35.2506 15.8311 35.2506L15.8291 35.2526ZM84.188 17.075L76.6865 24.5415C71.0779 30.1234 63.634 33.1973 55.7211 33.1973H15.8291C11.9549 33.1973 8.37492 30.9382 6.70837 27.4405L2.74777 19.1345C2.53174 18.6798 2.56055 18.1737 2.83007 17.7478C3.09959 17.3219 3.54195 17.0771 4.04603 17.0771H84.188V17.075Z" fill="white"/>
<path d="M24.3332 17.0751H60.8633L55.4851 1.58657C55.0983 0.475542 53.9111 -0.160212 52.7754 0.136062L26.2939 6.42776C25.3207 6.687 24.6459 7.53879 24.613 8.54488L24.3352 17.0751H24.3332ZM57.9726 15.0176H26.4585L26.6663 8.61278C26.6684 8.52225 26.728 8.44612 26.8145 8.41938L53.2877 2.12768C53.3927 2.10093 53.5038 2.15854 53.5408 2.26141L57.9705 15.0156L57.9726 15.0176Z" fill="white"/>
<path d="M51.5323 25.346C55.7788 25.346 59.9123 24.5024 63.8194 22.8359L82.1719 15.0176H3.94125C2.75204 15.0176 1.66365 15.6184 1.02995 16.6245C0.396263 17.6305 0.324249 18.8732 0.838615 19.9452L3.41454 25.3193L51.5117 25.3481H51.5302L51.5323 25.346ZM72.0965 17.073L63.0149 20.943C59.365 22.4985 55.5011 23.2865 51.5343 23.2865H51.5158L4.7128 23.2597L2.6965 19.0543C2.48663 18.6161 2.51544 18.1305 2.77262 17.719C3.03186 17.3075 3.45776 17.073 3.94331 17.073H72.0965Z" fill="white"/>
<path d="M7.63208 17.075H20.2031V9.79776C20.2031 8.25466 18.946 6.99756 17.4029 6.99756H10.4323C8.88918 6.99756 7.63208 8.25466 7.63208 9.79776V17.0729V17.075ZM18.1457 15.0175H9.68953V9.79981C9.68953 9.39038 10.0228 9.05707 10.4323 9.05707H17.4029C17.8124 9.05707 18.1457 9.39038 18.1457 9.79981V15.0175Z" fill="white"/>
<path d="M72.0167 16.4785L73.8828 15.6124L72.9364 13.5734C72.2019 11.9912 70.6012 10.9831 68.8564 11.0078L35.9721 11.4439C33.5608 11.4769 31.598 13.4644 31.598 15.8757V16.0465H33.6554V15.8757C33.6554 14.5836 34.7068 13.5179 35.9989 13.5014L68.8832 13.0652C68.8935 13.0652 68.9038 13.0652 68.9141 13.0652C69.8358 13.0652 70.6794 13.6022 71.0682 14.4417L72.0146 16.4806L72.0167 16.4785Z" fill="white"/>
<path d="M8.56641 8.30615V15.9458H18.8034V8.30615H8.56641Z" fill="white"/>
</svg>
