<svg width="86" height="36" viewBox="0 0 86 36" fill="none" xmlns="http://www.w3.org/2000/svg">
<path d="M85.6595 19.9382L83.0836 25.3102H83.0815L81.6495 28.3161C79.6435 32.5257 75.3331 35.2456 70.6709 35.2456H30.7789C22.3187 35.2456 14.3563 31.9578 8.3609 25.9912L0.554914 18.2223C0.0138036 17.6832 -0.148735 16.8787 0.143423 16.171C0.435582 15.4653 1.1166 15.0106 1.87992 15.0106H12.8935L14.2857 15.8031C15.0202 14.2209 16.4207 16.1483 18.1654 16.171L27.9941 15.8031L31.0176 1.57951C31.4023 0.468483 32.5915 -0.165213 33.7273 0.129003L60.2088 6.4207C61.1819 6.67994 61.8589 7.52967 61.8897 8.53576L62.1016 15.0106H66.2968L68.6019 15.8031C68.6019 14.26 70.9364 15.4151 72.4816 15.4151H75.9733C77.5185 15.4151 77.5252 14.26 77.5252 15.8031L78.8678 15.0106H82.5569C83.7461 15.0106 84.8344 15.6114 85.4681 16.6174C86.1018 17.6235 86.1739 18.8642 85.6595 19.9382Z" fill="#002F5B"/>
<path d="M70.6709 35.2458H30.7769C22.3166 35.2458 14.3563 31.9601 8.3609 25.9914L0.554914 18.2224C0.0138036 17.6834 -0.148735 16.8789 0.143423 16.1732C0.435582 15.4675 1.1166 15.0107 1.87992 15.0107H82.4519C83.6596 15.0107 84.7645 15.6197 85.4085 16.6402C86.0525 17.6607 86.1265 18.922 85.608 20.0104L81.6474 28.3163C79.6414 32.5259 75.3311 35.2438 70.6689 35.2438L70.6709 35.2458ZM2.31198 17.0682L9.81346 24.5347C15.4221 30.1166 22.866 33.1904 30.7789 33.1904H70.6709C74.5451 33.1904 78.1251 30.9313 79.7916 27.4337L83.7522 19.1277C83.9683 18.673 83.9395 18.1669 83.6699 17.741C83.4004 17.3151 82.9581 17.0703 82.454 17.0703H2.31198V17.0682Z" fill="white"/>
<path d="M62.1668 17.0683H25.6367L31.0149 1.57973C31.4017 0.468706 32.5889 -0.167048 33.7246 0.129226L60.2061 6.42092C61.1793 6.68016 61.8541 7.53195 61.887 8.53804L62.1648 17.0683H62.1668ZM28.5274 15.0108H60.0415L59.8337 8.60594C59.8316 8.51541 59.772 8.43929 59.6855 8.41254L33.2123 2.12084C33.1073 2.0941 32.9962 2.1517 32.9592 2.25458L28.5295 15.0087L28.5274 15.0108Z" fill="white"/>
<path d="M34.9677 25.3392C30.7212 25.3392 26.5877 24.4956 22.6806 22.8291L4.32812 15.0107H82.5587C83.748 15.0107 84.8363 15.6115 85.47 16.6176C86.1037 17.6237 86.1758 18.8664 85.6614 19.9383L83.0855 25.3124L34.9883 25.3412H34.9698L34.9677 25.3392ZM14.4035 17.0661L23.4851 20.9362C27.135 22.4916 30.9989 23.2797 34.9657 23.2797H34.9842L81.7872 23.2529L83.8035 19.0475C84.0134 18.6092 83.9846 18.1237 83.7274 17.7122C83.4681 17.3007 83.0422 17.0661 82.5567 17.0661H14.4035Z" fill="white"/>
<path d="M32.5859 0.930664L27.0898 16.7729L61.1011 16.1911V8.17298L32.5859 0.930664Z" fill="white"/>
</svg>
