<svg width="104" height="43" viewBox="0 0 104 43" fill="none" xmlns="http://www.w3.org/2000/svg">
<path d="M0.458466 23.8461L3.54384 30.2805H3.5463L5.26149 33.8809C7.66423 38.923 12.8271 42.1809 18.4113 42.1809H66.1926C76.326 42.1809 85.8631 38.2428 93.0442 31.0962L102.394 21.7908C103.042 21.1451 103.237 20.1816 102.887 19.3338C102.537 18.4886 101.721 17.944 100.807 17.944H87.6152L80.6514 19.3338C79.7716 17.4388 72.839 18.6016 70.7492 18.6287L69.8817 13.2986L65.9067 1.85666C65.4459 0.525909 64.0215 -0.233111 62.6612 0.119291L30.9425 7.65528C29.7769 7.96579 28.9661 8.98357 28.9291 10.1886L28.6753 17.944H23.6505V11.6919C23.6505 9.84363 22.1472 8.33791 20.2965 8.33791H11.9473C10.0965 8.33791 8.5933 9.84363 8.5933 11.6919V17.944H4.17471C2.75031 17.944 1.44667 18.6635 0.687653 19.8686C-0.071373 21.0737 -0.157623 22.5597 0.458466 23.8461Z" fill="#002F5B"/>
<path d="M18.4152 42.1803H66.199C76.3324 42.1803 85.867 38.2447 93.0481 31.0956L102.398 21.7902C103.046 21.1446 103.241 20.181 102.891 19.3357C102.541 18.4904 101.725 17.9434 100.811 17.9434H4.30431C2.85773 17.9434 1.53437 18.6728 0.763031 19.8951C-0.00830841 21.1174 -0.0970306 22.6281 0.523987 23.9317L5.26787 33.8803C7.67061 38.9224 12.8334 42.1778 18.4176 42.1778L18.4152 42.1803ZM100.293 20.4077L91.3083 29.3508C84.5904 36.0366 75.6744 39.7184 66.1965 39.7184H18.4152C13.7748 39.7184 9.48683 37.0125 7.49071 32.8231L2.74683 22.8745C2.48808 22.3299 2.52258 21.7237 2.84541 21.2136C3.16824 20.7034 3.69807 20.4102 4.30183 20.4102H100.293V20.4077Z" fill="white"/>
<path d="M28.6048 20.4082H72.3594L65.9176 1.85653C65.4543 0.525785 64.0323 -0.2357 62.672 0.119167L30.9533 7.65516C29.7877 7.96566 28.9794 8.98591 28.94 10.191L28.6073 20.4082H28.6048ZM68.897 17.9438H31.1505L31.3994 10.2723C31.4018 10.1639 31.4733 10.0727 31.5768 10.0406L63.2856 2.50466C63.4113 2.47262 63.5444 2.54162 63.5887 2.66484L68.8945 17.9414L68.897 17.9438Z" fill="white"/>
<path d="M61.1798 30.3144C66.2662 30.3144 71.2171 29.304 75.8969 27.3079L97.8789 17.9434H4.17683C2.75243 17.9434 1.4488 18.6629 0.689774 19.868C-0.0692444 21.0731 -0.155495 22.5616 0.460594 23.8455L3.54596 30.2824L61.1551 30.3169H61.1773L61.1798 30.3144ZM85.811 20.4052L74.9333 25.0407C70.5616 26.9037 65.9335 27.8476 61.1822 27.8476H61.1601L5.10097 27.8156L2.68591 22.7784C2.43454 22.2535 2.46904 21.6719 2.77708 21.1791C3.08759 20.6862 3.59771 20.4052 4.1793 20.4052H85.811Z" fill="white"/>
<path d="M8.59516 20.4088H23.6523V11.6924C23.6523 9.8441 22.1466 8.33838 20.2984 8.33838H11.9491C10.1009 8.33838 8.59516 9.8441 8.59516 11.6924V20.4063V20.4088ZM21.188 17.9444H11.0595V11.6948C11.0595 11.2044 11.4587 10.8052 11.9491 10.8052H20.2984C20.7888 10.8052 21.188 11.2044 21.188 11.6948V17.9444Z" fill="white"/>
<path d="M17.4767 41.1031C11.8399 41.1031 6.50036 33.4163 4.53516 29.5728H55.2699L69.6187 28.5479L89.2201 19.5801H100.879L101.647 20.6049C99.3839 22.9109 93.9091 28.4967 90.117 32.3914C86.3248 36.286 75.7255 39.822 70.8998 41.1031H17.4767Z" fill="white"/>
</svg>
