<svg width="493" height="493" viewBox="0 0 493 493" fill="none" xmlns="http://www.w3.org/2000/svg">
<g clip-path="url(#clip0_1024_34)">
<path fill-rule="evenodd" clip-rule="evenodd" d="M61.0195 245.927C61.0195 251.437 65.4895 255.897 71.0095 255.897C76.5195 255.897 80.9895 251.437 80.9895 245.927C80.9895 240.417 76.5195 235.947 71.0095 235.947C65.4895 235.947 61.0195 240.417 61.0195 245.927Z" fill="white"/>
<path fill-rule="evenodd" clip-rule="evenodd" d="M411.719 245.927C411.719 251.437 416.189 255.897 421.699 255.897C427.219 255.897 431.689 251.437 431.689 245.927C431.689 240.417 427.219 235.947 421.699 235.947C416.179 235.947 411.719 240.417 411.719 245.927Z" fill="white"/>
<path fill-rule="evenodd" clip-rule="evenodd" d="M308.887 465.637C314.197 474.927 325.767 480.977 341.457 473.007C329.587 467.637 326.107 457.797 308.887 465.637ZM288.127 470.477C305.997 464.277 308.547 474.397 319.857 480.847C303.497 487.327 292.547 480.227 288.127 470.477ZM267.517 473.317C271.037 483.417 281.287 491.487 298.177 486.537C287.497 479.077 285.877 468.767 267.517 473.317ZM246.567 474.267C265.277 471.417 265.937 481.837 275.877 490.227C258.617 493.627 249.137 484.657 246.567 474.267ZM223.367 473.067C224.867 483.657 233.377 493.557 250.907 491.937C241.857 482.567 242.257 472.137 223.367 473.067ZM200.397 469.527C219.287 470.517 217.827 480.847 225.877 491.097C208.277 490.927 200.817 480.217 200.397 469.527ZM177.917 463.667C177.247 474.347 183.577 485.757 201.067 487.717C194.107 476.707 196.607 466.567 177.917 463.667ZM156.137 455.557C154.387 466.107 159.527 478.107 176.737 481.827C170.927 470.167 174.447 460.347 156.137 455.557ZM135.307 445.277C132.487 455.587 136.387 468.047 153.117 473.497C148.527 461.317 153.027 451.907 135.307 445.277ZM115.627 432.937C132.577 441.327 127.137 450.227 130.467 462.827C114.387 455.697 111.777 442.917 115.627 432.937ZM97.2975 418.657C92.4475 428.187 93.7475 441.177 109.027 449.887C107.007 437.027 113.317 428.717 97.2975 418.657ZM80.5275 402.587C95.4275 414.227 88.3175 421.857 89.0175 434.857C74.6975 424.627 74.7275 411.577 80.5275 402.587ZM65.4675 384.897C58.7975 393.257 57.4275 406.237 70.6375 417.867C71.2475 404.857 79.1075 397.987 65.4675 384.897ZM52.2875 365.767C64.5375 380.187 56.0175 386.217 54.0775 399.087C42.1175 386.187 44.7975 373.407 52.2875 365.767ZM41.1175 345.407C32.8875 352.247 28.9275 364.677 39.5075 378.727C42.7475 366.117 51.8375 360.987 41.1175 345.407ZM32.0875 324.017C41.1675 340.607 31.6075 344.787 27.0975 357.007C17.9975 341.947 23.1975 329.977 32.0875 324.017ZM25.2675 301.817C15.8275 306.847 9.42747 318.227 16.9575 334.137C22.6675 322.427 32.6075 319.237 25.2675 301.817ZM20.7475 279.037C26.2775 297.117 16.0675 299.287 9.18748 310.337C3.32748 293.757 10.8475 283.077 20.7475 279.037ZM18.5675 255.917C8.29748 258.937 -0.262524 268.787 3.88748 285.887C11.8575 275.577 22.2275 274.467 18.5675 255.917ZM18.7475 232.697C20.5075 251.527 10.0675 251.577 1.08748 261.017C-1.29252 243.587 8.22748 234.657 18.7475 232.697ZM21.2875 209.607C10.6275 210.497 0.247476 218.417 0.847476 235.987C10.7275 227.517 21.1175 228.517 21.2875 209.607ZM26.1675 186.907C24.0775 205.697 13.8475 203.647 3.14748 211.067C4.32748 193.527 15.4675 186.697 26.1675 186.907ZM33.3275 164.817C22.6975 163.527 10.9375 169.177 7.96748 186.517C19.3575 180.207 29.3375 183.297 33.3275 164.817ZM42.6875 143.567C32.2575 141.207 19.9675 145.637 15.2575 162.577C27.2375 157.467 36.8475 161.547 42.6875 143.567ZM54.1775 123.377C44.0275 119.967 31.3675 123.127 24.9475 139.507C37.3875 135.637 46.5275 140.667 54.1775 123.377ZM67.6475 104.457C58.2875 120.887 49.6975 114.947 36.9275 117.527C44.9775 101.887 57.9075 100.027 67.6475 104.457ZM82.9775 87.0067C73.7275 81.6067 60.6875 82.1567 51.0975 96.8867C64.0575 95.6167 71.9975 102.397 82.9775 87.0067ZM100.007 71.1967C87.5075 85.3967 80.3075 77.8367 67.2875 77.7967C78.3275 64.1067 91.3575 64.8967 100.007 71.1967ZM118.547 57.2067C110.587 50.0567 97.6975 47.9467 85.3175 60.4467C98.2675 61.8167 104.677 70.0567 118.547 57.2067ZM138.417 45.1767C123.307 56.5567 117.777 47.6967 105.027 45.0267C118.617 33.8367 131.227 37.2467 138.417 45.1767ZM159.407 35.2167C153.047 26.6067 140.867 21.9367 126.207 31.6667C138.627 35.6267 143.227 44.9967 159.407 35.2167ZM181.307 27.4367C164.207 35.5267 160.587 25.7467 148.647 20.5467C164.207 12.3367 175.867 18.2267 181.307 27.4367ZM203.887 21.9367C199.407 12.2267 188.407 5.17666 172.087 11.7567C183.437 18.1367 186.047 28.2467 203.887 21.9367ZM226.897 18.7467C208.517 23.2167 206.947 12.8967 196.307 5.39666C213.207 0.496659 223.437 8.62666 226.897 18.7467ZM250.117 17.9067C247.697 7.48666 238.357 -1.62334 221.037 1.51666C230.867 10.0667 231.377 20.4867 250.117 17.9067ZM273.307 19.4367C254.397 20.0967 254.947 9.67666 246.047 0.176659C263.587 -1.18334 271.957 8.82666 273.307 19.4367ZM296.217 23.3167C295.957 12.6167 288.657 1.80666 271.057 1.38666C278.947 11.7367 277.337 22.0567 296.217 23.3167ZM318.617 29.5067C299.967 26.3267 302.617 16.2367 295.817 5.12666C313.277 7.33666 319.437 18.8367 318.617 29.5067ZM340.267 37.9267C342.177 27.4067 337.207 15.3267 320.067 11.3567C325.697 23.1067 322.037 32.8767 340.267 37.9267ZM360.957 48.5167C363.927 38.2367 360.207 25.7267 343.557 20.0367C347.967 32.2867 343.327 41.6367 360.957 48.5167ZM380.447 61.1367C363.607 52.5067 369.177 43.6767 366.037 31.0367C382.017 38.3967 384.447 51.2167 380.447 61.1367ZM398.567 75.6867C403.557 66.2167 402.447 53.2167 387.287 44.2767C389.127 57.1667 382.697 65.3867 398.567 75.6867ZM415.107 91.9967C400.367 80.1367 407.607 72.6167 407.087 59.6067C421.257 70.0367 421.027 83.0867 415.107 91.9967ZM429.907 109.897C436.707 101.637 438.257 88.6767 425.227 76.8667C424.417 89.8567 416.447 96.6067 429.907 109.897ZM442.807 129.207C430.777 114.617 439.377 108.717 441.507 95.8667C453.267 108.947 450.407 121.677 442.807 129.207ZM453.677 149.737C462.007 143.027 466.137 130.647 455.767 116.437C452.357 128.997 443.187 133.997 453.677 149.737ZM462.397 171.257C453.567 154.537 463.187 150.487 467.867 138.337C476.747 153.527 471.377 165.417 462.397 171.257ZM468.897 193.557C478.417 188.657 484.977 177.377 477.687 161.367C471.787 172.977 461.807 176.027 468.897 193.557ZM473.077 216.397C467.817 198.237 478.057 196.217 485.097 185.267C490.717 201.937 483.057 212.497 473.077 216.397ZM474.927 239.547C485.247 236.677 493.947 226.947 490.057 209.797C481.927 219.977 471.537 220.947 474.927 239.547ZM474.407 262.757C472.927 243.907 483.357 243.997 492.477 234.697C494.617 252.157 484.957 260.957 474.407 262.757ZM471.537 285.807C482.217 285.077 492.707 277.317 492.357 259.727C482.357 268.057 471.977 266.897 471.537 285.807ZM466.337 308.437C468.687 289.677 478.897 291.877 489.697 284.607C488.257 302.137 477.027 308.797 466.337 308.437ZM458.857 330.417C469.467 331.867 481.307 326.377 484.527 309.087C473.037 315.227 463.117 311.997 458.857 330.417ZM449.177 351.537C459.577 354.057 471.917 349.807 476.877 332.927C464.837 337.857 455.277 333.637 449.177 351.537ZM437.407 371.557C447.497 375.117 460.207 372.137 466.867 355.847C454.367 359.537 445.297 354.367 437.407 371.557ZM423.657 390.277C433.267 373.987 441.757 380.047 454.557 377.657C446.287 393.177 433.337 394.837 423.657 390.277ZM408.077 407.497C417.247 413.027 430.297 412.677 440.107 398.077C427.117 399.167 419.287 392.277 408.077 407.497ZM390.817 423.067C403.517 409.047 410.617 416.697 423.647 416.937C412.397 430.467 399.377 429.487 390.817 423.067ZM372.067 436.787C379.937 444.047 392.787 446.347 405.347 434.027C392.417 432.477 386.127 424.127 372.067 436.787ZM352.027 448.537C367.307 437.377 372.707 446.307 385.417 449.167C371.667 460.147 359.117 456.557 352.027 448.537ZM330.907 458.187C347.227 448.637 351.697 458.067 364.047 462.207C349.257 471.737 337.127 466.877 330.907 458.187Z" fill="white"/>
<path fill-rule="evenodd" clip-rule="evenodd" d="M246.75 28.6968C366.89 28.6968 464.28 126.017 464.28 246.077C464.28 366.137 366.89 463.457 246.75 463.457C126.61 463.457 29.2305 366.127 29.2305 246.077C29.2305 126.027 126.61 28.6968 246.75 28.6968ZM450.57 294.087H396.02C375.73 357.127 316.58 402.747 246.75 402.747C176.92 402.747 117.77 357.117 97.4905 294.087H42.9305C64.6405 386.497 147.65 455.317 246.75 455.317C345.85 455.317 428.86 386.497 450.57 294.087ZM397.08 290.637C397.27 290.017 397.44 289.407 397.62 288.787C397.44 289.407 397.26 290.027 397.08 290.637ZM398.58 285.257H452.44C454.84 272.557 456.12 259.477 456.12 246.087C456.12 232.697 454.84 219.607 452.44 206.917H398.58H389.39C372.21 144.307 314.86 98.2868 246.75 98.2868C178.64 98.2868 121.29 144.307 104.11 206.917H94.9305H41.0705C38.6705 219.607 37.3905 232.707 37.3905 246.087C37.3905 259.477 38.6605 272.567 41.0705 285.257H94.9305H104.11C121.29 347.867 178.64 393.887 246.75 393.887C314.86 393.887 372.21 347.867 389.39 285.257H398.58ZM398.58 206.907C398.33 205.947 398.07 204.977 397.8 204.017C398.06 204.977 398.33 205.947 398.58 206.907ZM397.62 203.377C397.44 202.757 397.27 202.147 397.08 201.527C397.26 202.147 397.44 202.767 397.62 203.377ZM396.02 198.087H450.57C428.86 105.667 345.85 36.8568 246.75 36.8568C147.65 36.8568 64.6405 105.667 42.9305 198.087H97.4905C117.77 135.047 176.92 89.4268 246.75 89.4268C316.57 89.4168 375.73 135.037 396.02 198.087ZM95.8905 288.787C96.0705 289.407 96.2405 290.027 96.4305 290.637C96.2405 290.027 96.0605 289.407 95.8905 288.787ZM95.8905 203.377C96.0705 202.767 96.2405 202.147 96.4305 201.527C96.2405 202.147 96.0605 202.767 95.8905 203.377Z" fill="white"/>
<path d="M105.069 114.977L114.059 122.777C114.709 123.337 115.199 123.987 115.559 124.727C115.909 125.477 116.119 126.247 116.179 127.047C116.239 127.847 116.149 128.647 115.909 129.437C115.679 130.237 115.279 130.957 114.719 131.597L113.329 133.207L120.189 139.147L117.429 142.317L92.0586 120.307L96.2086 115.537C96.7586 114.887 97.4186 114.397 98.1586 114.047C98.8986 113.697 99.6786 113.487 100.479 113.427C101.279 113.377 102.079 113.477 102.879 113.727C103.669 113.977 104.409 114.397 105.069 114.977ZM112.909 127.277L100.739 116.727L97.9886 119.897L110.149 130.447L112.909 127.277Z" fill="white"/>
<path d="M133.387 117.047L120.147 100.727C119.617 100.067 119.217 99.3368 118.977 98.5468C118.737 97.7468 118.657 96.9468 118.747 96.1468C118.827 95.3468 119.057 94.5868 119.437 93.8468C119.817 93.1168 120.347 92.4668 121.037 91.9168L125.957 87.9268L128.607 91.1968L122.077 96.4868L127.377 103.017L130.647 100.367L133.297 103.627L130.027 106.277L137.947 116.037L144.477 110.747L147.127 114.007L142.207 117.987C141.517 118.547 140.787 118.937 139.987 119.157C139.187 119.367 138.387 119.437 137.587 119.337C136.777 119.247 136.017 118.997 135.287 118.617C134.547 118.237 133.917 117.707 133.387 117.047Z" fill="white"/>
<path d="M165.726 97.4764L163.726 93.8864L161.866 94.9164C161.116 95.3264 160.336 95.5864 159.496 95.6664C158.656 95.7464 157.866 95.6964 157.096 95.4864C156.326 95.2764 155.616 94.9364 154.946 94.4364C154.276 93.9464 153.736 93.3264 153.316 92.5864L144.086 75.9964L147.806 73.9364L157.976 92.2164L161.646 90.1764L151.476 71.8964L155.156 69.8564L171.476 99.1964L167.796 101.236L165.726 97.4764Z" fill="white"/>
<path d="M175.117 61.2267L179.087 59.8367L183.237 71.7467L187.207 70.3667L183.057 58.4567L186.987 57.0967L198.027 88.8067L194.097 90.1667L188.587 74.3367L184.617 75.7167L190.127 91.5467L186.167 92.9367L175.117 61.2267Z" fill="white"/>
<path d="M224.999 77.0964C225.149 77.9964 225.119 78.8464 224.919 79.6464C224.719 80.4464 224.379 81.1764 223.909 81.8164C223.439 82.4664 222.849 83.0164 222.149 83.4464C221.439 83.8764 220.649 84.1664 219.779 84.3064C218.909 84.4564 218.079 84.4264 217.289 84.2464C216.489 84.0564 215.759 83.7264 215.109 83.2564C214.459 82.7864 213.909 82.2064 213.479 81.5064C213.049 80.8164 212.759 80.0164 212.609 79.1164L209.139 58.0064C208.999 57.1464 209.019 56.2964 209.199 55.4664C209.379 54.6364 209.709 53.8964 210.179 53.2264C210.639 52.5564 211.219 52.0064 211.909 51.5464C212.599 51.0964 213.379 50.8064 214.259 50.6664C215.129 50.5164 215.969 50.5564 216.789 50.7564C217.599 50.9564 218.339 51.2964 218.999 51.7864C219.649 52.2664 220.209 52.8664 220.649 53.5864C221.109 54.3064 221.409 55.1064 221.549 55.9764L224.999 77.0964ZM212.929 55.4764L217.009 80.3064L221.159 79.6264L217.079 54.7864L212.929 55.4764Z" fill="white"/>
<path d="M242.359 45.0965L242.409 40.8965L254.979 41.0365L254.93 45.2365L242.359 45.0965ZM248.199 82.2365L254.519 82.3065L254.88 48.7365L250.669 48.6965L250.369 78.0565L246.169 78.0065L246.49 48.6365L242.339 48.5865L242.04 75.8765C242.03 76.7265 242.189 77.5265 242.519 78.2965C242.829 79.0565 243.279 79.7265 243.839 80.3165C244.399 80.9065 245.059 81.3665 245.809 81.7065C246.539 82.0465 247.349 82.2265 248.199 82.2365Z" fill="white"/>
<path d="M314.851 61.2866L312.161 69.3066C311.881 70.1466 311.571 70.9066 311.251 71.5866C310.921 72.2766 310.521 72.8366 310.061 73.2866C309.601 73.7266 309.051 74.0066 308.431 74.1366C307.811 74.2566 307.081 74.1866 306.241 73.9066C307.051 74.1766 307.661 74.5466 308.081 75.0366C308.491 75.5266 308.761 76.0866 308.861 76.7166C308.961 77.3566 308.951 78.0566 308.801 78.8166C308.661 79.5866 308.451 80.3666 308.191 81.1766L304.201 93.1366L300.251 91.8166L304.261 79.8566C304.631 78.7566 304.741 77.7466 304.591 76.8566C304.441 75.9566 304.111 75.4266 303.611 75.2566L301.591 74.5766L296.271 90.4766L292.281 89.1466L302.931 57.3066L306.921 58.6366L302.921 70.5966L304.891 71.2566C305.401 71.4266 305.991 71.1866 306.671 70.5566C307.351 69.9166 307.871 69.0466 308.241 67.9466L310.901 59.9766L314.851 61.2866Z" fill="white"/>
<path d="M340.451 73.3669L345.981 76.4369L329.691 105.737L326.011 103.697L340.271 78.0769L336.591 76.0369L322.341 101.667L318.711 99.6469L331.951 75.8369C332.371 75.0869 332.901 74.4769 333.561 73.9769C334.211 73.4769 334.931 73.1069 335.711 72.8769C336.491 72.6369 337.281 72.5669 338.111 72.6469C338.921 72.7069 339.711 72.9569 340.451 73.3669Z" fill="white"/>
<path d="M352.329 116.537L354.879 113.317L353.209 112.007C352.539 111.487 352.009 110.847 351.609 110.107C351.209 109.367 350.959 108.607 350.849 107.827C350.739 107.037 350.789 106.247 350.989 105.437C351.189 104.637 351.549 103.897 352.069 103.227L363.829 88.3066L367.169 90.9366L354.219 107.367L357.519 109.967L370.469 93.5366L373.769 96.1366L355.589 119.207C355.079 119.847 354.599 120.317 354.159 120.607C353.709 120.897 353.249 121.057 352.769 121.077C352.289 121.107 351.799 121.007 351.309 120.797C350.809 120.587 350.269 120.297 349.679 119.917L343.039 114.687L345.709 111.317L352.329 116.537Z" fill="white"/>
<path d="M377.357 139.067C376.677 139.677 375.947 140.107 375.177 140.347C374.407 140.597 373.637 140.677 372.867 140.597C372.107 140.517 371.357 140.287 370.607 139.907C369.877 139.537 369.207 139.017 368.627 138.357L364.477 133.707L384.787 115.597C385.447 115.017 386.177 114.577 386.957 114.297C387.747 114.017 388.547 113.897 389.357 113.937C390.167 113.977 390.947 114.157 391.697 114.507C392.447 114.857 393.117 115.357 393.707 116.007L397.947 120.767L394.807 123.557L389.167 117.257L382.937 122.817L385.737 125.957C386.537 126.847 386.897 127.867 386.817 129.017C386.737 130.167 386.257 131.127 385.367 131.927L377.357 139.067ZM373.177 137.167L382.557 128.807L379.767 125.667L370.387 134.027L373.177 137.167Z" fill="white"/>
<path d="M295.267 271.817V271.807L295.117 271.747L295.267 271.817Z" fill="white"/>
<path d="M295.268 253.127L295.148 253.077L295.268 253.137V253.127Z" fill="white"/>
<path d="M101.58 359.367C109.44 351.667 122.02 351.757 130.29 360.197C138.57 368.647 138.4 381.067 130.46 388.847C122.6 396.547 110.02 396.457 101.75 388.017C93.4695 379.567 93.6395 367.137 101.58 359.367ZM122.88 381.107C126.83 377.237 127.47 371.017 123.37 366.827C119.31 362.677 113.22 363.197 109.2 367.147C105.25 371.017 104.61 377.247 108.67 381.387C112.77 385.567 118.85 385.047 122.88 381.107Z" fill="white"/>
<path d="M148.8 401.637C153.79 391.647 165.39 387.647 175.78 392.827C182.79 396.327 185.63 401.537 186.56 407.267L176.92 409.187C176.18 405.757 174.64 403.087 171.36 401.457C166.56 399.067 161.15 401.437 158.61 406.537C156.04 411.677 157.42 417.387 162.22 419.777C165.8 421.567 168.73 420.947 172.04 419.477L176.65 428.147C171.19 430.987 165.19 432.097 157.6 428.307C147.79 423.407 143.64 411.977 148.8 401.637Z" fill="white"/>
<path d="M214.028 415.957L202.668 414.187L204.098 404.997L237.318 410.137L235.888 419.337L224.528 417.577L220.088 446.247L209.598 444.627L214.028 415.957Z" fill="white"/>
<path d="M254.211 409.947L270.471 407.607C280.061 406.227 286.941 410.277 288.171 418.777C289.451 427.717 283.251 433.417 273.821 434.777L268.621 435.527L270.181 446.367L259.671 447.877L254.211 409.947ZM272.411 426.567C276.151 426.027 278.141 423.747 277.701 420.667C277.231 417.417 274.711 416.007 270.921 416.557L265.991 417.267L267.431 427.287L272.411 426.567Z" fill="white"/>
<path d="M309.38 418.436C304.4 408.626 308.27 396.656 318.81 391.306C329.35 385.956 341.15 389.856 346.18 399.756C351.16 409.566 347.29 421.536 336.75 426.886C326.21 432.236 314.41 428.346 309.38 418.436ZM336.52 404.666C334.02 399.736 328.27 397.246 323.05 399.906C317.87 402.536 316.54 408.486 319.09 413.516C321.59 418.446 327.33 420.936 332.51 418.306C337.74 415.646 339.07 409.696 336.52 404.666Z" fill="white"/>
<path d="M351.039 371.787L364.719 357.687C368.079 354.227 371.299 352.627 374.479 352.587C376.649 352.557 378.749 353.297 380.709 355.207C383.889 358.297 384.019 361.937 382.719 365.397C387.059 363.127 390.999 362.837 394.819 366.527C399.529 371.097 398.669 377.737 392.299 384.297L378.539 398.477L351.039 371.787ZM373.859 370.197C376.109 367.877 376.579 365.817 374.889 364.177C373.399 362.727 371.389 363.067 369.179 365.347L364.379 370.297L369.209 374.987L373.859 370.197ZM385.339 379.207C387.589 376.887 387.979 374.677 386.289 373.037C384.799 371.587 382.669 371.817 380.189 374.367L374.549 380.177L379.619 385.097L385.339 379.207Z" fill="white"/>
<path fill-rule="evenodd" clip-rule="evenodd" d="M281.35 368.387C284.3 373.557 290.74 376.937 299.48 372.487C292.87 369.497 290.93 364.017 281.35 368.387ZM269.78 371.077C279.73 367.627 281.15 373.257 287.45 376.857C278.34 380.467 272.24 376.507 269.78 371.077ZM258.31 372.667C260.27 378.297 265.98 382.787 275.38 380.027C269.44 375.867 268.53 370.127 258.31 372.667ZM246.65 373.197C257.06 371.607 257.43 377.407 262.97 382.087C253.36 383.977 248.08 378.977 246.65 373.197ZM233.73 372.527C234.56 378.427 239.3 383.937 249.06 383.037C244.03 377.817 244.26 371.997 233.73 372.527ZM220.94 370.547C231.46 371.097 230.65 376.857 235.12 382.557C225.33 382.467 221.18 376.497 220.94 370.547ZM208.43 367.287C208.05 373.237 211.58 379.597 221.32 380.687C217.44 374.547 218.84 368.897 208.43 367.287ZM196.31 362.767C195.33 368.637 198.19 375.327 207.77 377.397C204.54 370.907 206.5 365.437 196.31 362.767ZM184.71 357.037C183.15 362.787 185.31 369.727 194.63 372.767C192.07 365.977 194.58 360.727 184.71 357.037ZM173.76 350.167C183.19 354.837 180.17 359.807 182.02 366.807C173.07 362.837 171.61 355.717 173.76 350.167ZM163.56 342.207C160.86 347.517 161.58 354.747 170.09 359.607C168.96 352.447 172.47 347.817 163.56 342.207ZM154.22 333.267C162.52 339.747 158.55 343.997 158.94 351.237C150.97 345.547 150.99 338.267 154.22 333.267ZM145.84 323.407C142.11 328.057 141.36 335.287 148.71 341.767C149.05 334.527 153.43 330.707 145.84 323.407ZM138.51 312.757C145.32 320.787 140.57 324.137 139.5 331.317C132.84 324.117 134.33 317.007 138.51 312.757ZM132.29 301.407C127.7 305.217 125.5 312.137 131.4 319.977C133.19 312.957 138.25 310.097 132.29 301.407ZM127.26 289.497C132.31 298.737 126.98 301.067 124.48 307.877C119.41 299.487 122.31 292.817 127.26 289.497ZM123.46 277.127C118.2 279.927 114.64 286.277 118.83 295.127C122.01 288.617 127.55 286.837 123.46 277.127ZM120.95 264.447C124.03 274.517 118.34 275.727 114.51 281.877C111.24 272.637 115.43 266.697 120.95 264.447ZM119.73 251.567C114.01 253.247 109.24 258.737 111.55 268.257C115.99 262.517 121.77 261.897 119.73 251.567ZM119.83 238.627C120.81 249.107 114.99 249.147 110 254.397C108.67 244.697 113.97 239.717 119.83 238.627ZM121.24 225.777C115.3 226.267 109.53 230.677 109.86 240.477C115.37 235.747 121.15 236.297 121.24 225.777ZM123.96 213.127C122.8 223.597 117.1 222.447 111.15 226.587C111.8 216.807 118 213.007 123.96 213.127ZM127.94 200.827C122.03 200.107 115.47 203.257 113.83 212.917C120.17 209.397 125.72 211.117 127.94 200.827ZM133.16 188.987C127.35 187.667 120.51 190.137 117.89 199.577C124.55 196.727 129.91 198.997 133.16 188.987ZM139.55 177.737C133.9 175.837 126.85 177.597 123.28 186.717C130.2 184.567 135.29 187.367 139.55 177.737ZM147.05 167.197C141.84 176.357 137.06 173.047 129.95 174.487C134.43 165.777 141.63 164.737 147.05 167.197ZM155.58 157.477C150.43 154.477 143.17 154.777 137.83 162.987C145.05 162.277 149.47 166.047 155.58 157.477ZM165.06 148.677C158.11 156.577 154.09 152.377 146.85 152.347C153 144.727 160.24 145.157 165.06 148.677ZM175.39 140.877C170.96 136.897 163.78 135.727 156.89 142.687C164.1 143.447 167.67 148.037 175.39 140.877ZM186.45 134.177C178.03 140.517 174.96 135.587 167.86 134.087C175.43 127.867 182.44 129.767 186.45 134.177ZM198.14 128.637C194.6 123.837 187.82 121.237 179.65 126.657C186.56 128.867 189.12 134.077 198.14 128.637ZM210.33 124.297C200.81 128.807 198.79 123.357 192.14 120.457C200.8 115.887 207.29 119.167 210.33 124.297ZM222.89 121.237C220.4 115.827 214.28 111.907 205.19 115.567C211.51 119.117 212.96 124.747 222.89 121.237ZM235.7 119.457C225.48 121.947 224.6 116.197 218.67 112.017C228.08 109.297 233.77 113.817 235.7 119.457ZM248.63 118.997C247.28 113.197 242.08 108.117 232.44 109.867C237.91 114.627 238.2 120.427 248.63 118.997ZM261.54 119.847C251.02 120.217 251.32 114.407 246.36 109.117C256.13 108.347 260.79 113.927 261.54 119.847ZM274.29 122.007C274.15 116.047 270.08 110.037 260.28 109.787C264.68 115.557 263.78 121.297 274.29 122.007ZM286.75 125.447C276.37 123.677 277.84 118.057 274.07 111.867C283.79 113.097 287.22 119.507 286.75 125.447ZM298.81 130.147C299.87 124.287 297.11 117.567 287.57 115.357C290.7 121.887 288.66 127.327 298.81 130.147ZM310.32 136.037C311.97 130.307 309.91 123.347 300.63 120.177C303.1 126.997 300.51 132.207 310.32 136.037ZM321.18 143.077C311.81 138.267 314.9 133.347 313.16 126.307C322.06 130.397 323.41 137.547 321.18 143.077ZM331.26 151.167C334.03 145.897 333.42 138.657 324.98 133.677C326.01 140.857 322.43 145.437 331.26 151.167ZM340.47 160.257C332.27 153.657 336.29 149.457 336 142.217C343.89 148.027 343.77 155.297 340.47 160.257ZM348.7 170.227C352.49 165.627 353.36 158.417 346.09 151.837C345.65 159.067 341.22 162.827 348.7 170.227ZM355.89 180.987C349.19 172.867 353.98 169.567 355.16 162.417C361.72 169.697 360.12 176.797 355.89 180.987ZM361.94 192.417C366.57 188.677 368.88 181.777 363.1 173.867C361.2 180.867 356.1 183.657 361.94 192.417ZM366.8 204.407C361.88 195.087 367.24 192.837 369.84 186.067C374.79 194.537 371.79 201.157 366.8 204.407ZM370.41 216.827C375.71 214.107 379.35 207.817 375.3 198.897C372.02 205.367 366.46 207.067 370.41 216.827ZM372.74 229.547C369.81 219.437 375.51 218.307 379.43 212.217C382.56 221.497 378.29 227.377 372.74 229.547ZM373.77 242.447C379.51 240.847 384.36 235.427 382.19 225.867C377.67 231.547 371.89 232.087 373.77 242.447ZM373.49 255.377C372.67 244.887 378.47 244.937 383.54 239.757C384.73 249.477 379.35 254.377 373.49 255.377ZM371.89 268.217C377.83 267.817 383.67 263.487 383.48 253.687C377.9 258.327 372.13 257.687 371.89 268.217ZM368.99 280.817C370.3 270.367 375.98 271.597 382 267.547C381.19 277.317 374.94 281.027 368.99 280.817ZM364.82 293.067C370.73 293.877 377.32 290.817 379.11 281.187C372.72 284.597 367.19 282.807 364.82 293.067ZM359.44 304.827C365.23 306.217 372.09 303.857 374.86 294.457C368.15 297.207 362.83 294.857 359.44 304.827ZM352.89 315.977C358.5 317.957 365.58 316.297 369.29 307.237C362.32 309.287 357.28 306.407 352.89 315.977ZM345.23 326.407C350.58 317.327 355.3 320.707 362.43 319.377C357.83 328.017 350.62 328.947 345.23 326.407ZM336.56 335.997C341.66 339.077 348.93 338.877 354.39 330.747C347.16 331.357 342.8 327.517 336.56 335.997ZM326.95 344.667C334.02 336.867 337.97 341.127 345.21 341.257C338.96 348.797 331.71 348.247 326.95 344.667ZM316.52 352.307C320.9 356.357 328.05 357.637 335.04 350.777C327.84 349.907 324.34 345.257 316.52 352.307ZM305.36 358.857C313.86 352.637 316.87 357.617 323.95 359.207C316.29 365.327 309.3 363.327 305.36 358.857ZM293.6 364.227C302.69 358.907 305.17 364.167 312.04 366.467C303.8 371.777 297.06 369.077 293.6 364.227Z" fill="white"/>
<path d="M314.649 327.847C312.329 329.487 310.799 330.567 307.209 330.567C304.549 330.567 303.089 329.937 301.899 329.247L300.719 328.557L302.029 339.087L302.499 339.187C303.999 339.527 305.539 339.687 307.209 339.687C313.699 339.687 317.149 337.247 319.929 335.297C321.909 333.907 323.319 332.917 325.909 332.657C328.749 330.077 331.469 327.347 334.039 324.507C332.219 323.877 330.059 323.447 327.359 323.447C320.869 323.447 317.419 325.887 314.649 327.847Z" fill="white"/>
<path d="M263.239 205.547H244.699V210.977H263.239V205.547Z" fill="white"/>
<path d="M263.387 221.126H244.547V226.336H263.387V221.126Z" fill="white"/>
<path d="M263.387 236.657H244.547V241.877H263.387V236.657Z" fill="white"/>
<path d="M263.387 252.807H244.547V258.017H263.387V252.807Z" fill="white"/>
<path d="M263.387 268.717H244.547V273.937H263.387V268.717Z" fill="white"/>
<path d="M263.239 283.477H244.699V288.907H263.239V283.477Z" fill="white"/>
<path d="M263.387 299.057H244.547V304.267H263.387V299.057Z" fill="white"/>
<path d="M263.387 314.586H244.547V319.796H263.387V314.586Z" fill="white"/>
<path d="M263.387 330.737H244.547V335.947H263.387V330.737Z" fill="white"/>
<path d="M296.638 345.406L280.117 204.456L285.237 195.706H291.538V186.076H272.378V175.746H269.497V155.956H271.688L271.938 148.996L251.458 139.386V132.876H243.288V139.386L222.798 148.996L223.048 155.956H225.247V175.746H222.367V186.076H204.117V195.706H209.507L214.637 204.456L198.128 345.286C196.858 345.976 192.678 348.246 191.438 349.446C194.608 351.136 197.868 352.696 201.208 354.096C202.968 352.916 204.528 352.176 207.488 352.176C211.078 352.176 212.608 353.256 214.928 354.896C217.698 356.856 221.147 359.286 227.637 359.286C234.127 359.286 237.578 356.846 240.348 354.886C242.478 353.386 244.017 352.296 247.247 352.186C250.517 352.296 252.048 353.376 254.188 354.886C256.957 356.846 260.397 359.276 266.897 359.276C273.387 359.276 276.837 356.836 279.617 354.876C281.937 353.236 283.467 352.156 287.047 352.156C289.777 352.156 291.317 352.786 292.927 353.806C296.217 352.406 299.427 350.856 302.557 349.166C301.137 348.006 297.818 346.066 296.638 345.406ZM261.397 155.956V175.746H233.158L233.147 155.956H261.397ZM274.348 347.436C272.028 349.076 270.497 350.156 266.908 350.156C263.318 350.156 261.787 349.076 259.467 347.436C257.357 345.936 254.747 344.096 250.587 343.366C250.587 343.366 247.068 343.006 243.958 343.366C240.668 343.706 237.198 345.946 235.068 347.446C232.758 349.076 231.227 350.156 227.647 350.156C224.057 350.156 222.528 349.076 220.208 347.436C217.688 345.656 214.607 343.496 209.197 343.106L225.717 202.316L223.917 199.256L247.387 199.286L270.837 199.256L269.047 202.316L285.547 343.096C280.017 343.436 276.898 345.636 274.348 347.436Z" fill="white"/>
<path d="M187.36 339.697C189.1 339.697 190.71 339.517 192.26 339.157L192.72 339.047L193.94 328.507L192.76 329.197C191.55 329.907 190.06 330.567 187.36 330.567C183.77 330.567 182.24 329.487 179.92 327.847C177.15 325.887 173.7 323.457 167.21 323.457C164.12 323.457 161.73 324.007 159.77 324.797C162.25 327.517 164.85 330.127 167.57 332.597C170.89 332.667 172.41 333.727 174.65 335.307C177.42 337.257 180.87 339.697 187.36 339.697Z" fill="white"/>
<path d="M327.357 303.967C320.867 303.967 317.417 306.407 314.647 308.367C312.327 310.007 310.797 311.087 307.197 311.087C303.617 311.087 302.077 309.997 299.717 308.327L298.047 307.157L299.487 318.767L299.867 318.917C302.097 319.797 304.497 320.227 307.197 320.227C313.697 320.227 317.147 317.787 319.917 315.827C322.237 314.187 323.767 313.107 327.357 313.107C330.937 313.107 332.477 314.187 334.807 315.827C336.047 316.707 337.417 317.677 339.137 318.477C341.097 315.987 342.967 313.427 344.727 310.777C342.917 310.347 341.677 309.487 340.057 308.347C337.287 306.397 333.837 303.967 327.357 303.967Z" fill="white"/>
<path d="M347.517 291.527C343.917 291.527 342.388 290.447 340.068 288.807C337.298 286.857 333.848 284.417 327.358 284.417C320.868 284.417 317.417 286.857 314.647 288.817C312.327 290.447 310.797 291.527 307.207 291.527C303.627 291.527 302.097 290.447 299.767 288.807C298.907 288.197 297.838 287.437 296.608 286.757L295.438 286.107L296.897 297.867L297.188 298.037C299.097 299.167 302.217 300.657 307.207 300.657C313.697 300.657 317.147 298.227 319.927 296.267C322.247 294.627 323.767 293.547 327.367 293.547C330.957 293.547 332.488 294.627 334.818 296.267C337.588 298.227 341.037 300.657 347.527 300.657C348.757 300.657 349.878 300.567 350.908 300.417C353.088 296.287 355.027 292.017 356.707 287.607C356.087 288.007 355.507 288.417 354.957 288.807C352.627 290.447 351.097 291.527 347.517 291.527Z" fill="white"/>
<path d="M147.057 281.507C153.537 281.507 156.977 279.077 159.767 277.117C162.087 275.477 163.617 274.397 167.207 274.397C170.797 274.397 172.327 275.477 174.657 277.117C177.427 279.067 180.867 281.507 187.357 281.507C193.297 281.507 196.787 279.417 199.587 277.457L199.837 277.277L201.117 266.187L200.057 266.607C197.857 267.487 196.157 268.687 194.797 269.647C192.487 271.287 190.957 272.367 187.357 272.367C183.767 272.367 182.237 271.287 179.897 269.637C177.127 267.687 173.677 265.257 167.197 265.257C160.717 265.257 157.267 267.687 154.487 269.647C152.167 271.287 150.637 272.367 147.047 272.367C143.447 272.367 141.917 271.287 139.587 269.637C137.437 268.117 134.867 266.317 130.797 265.587C131.417 269.217 132.207 272.787 133.157 276.297C133.537 276.547 133.927 276.817 134.337 277.117C137.117 279.067 140.567 281.507 147.057 281.507Z" fill="white"/>
<path d="M347.52 272.367C343.92 272.367 342.39 271.287 340.07 269.647C337.3 267.687 333.85 265.257 327.36 265.257C320.88 265.257 317.43 267.697 314.65 269.647C312.33 271.287 310.79 272.367 307.2 272.367C303.62 272.367 302.09 271.287 299.76 269.647C298.2 268.547 296.42 267.297 293.97 266.407L292.93 266.027L294.29 276.977L294.54 277.147C297.14 278.987 300.71 281.507 307.2 281.507C313.69 281.507 317.14 279.077 319.92 277.117C322.24 275.477 323.77 274.397 327.36 274.397C330.95 274.397 332.48 275.477 334.8 277.117C337.57 279.077 341.02 281.507 347.51 281.507C353.93 281.507 357.37 279.117 360.14 277.177C361.17 273.457 362.03 269.677 362.7 265.817C359.23 266.647 356.92 268.267 354.96 269.657C352.64 271.287 351.1 272.367 347.52 272.367Z" fill="white"/>
<path d="M159.771 296.277C162.091 294.637 163.621 293.557 167.211 293.557C170.801 293.557 172.331 294.637 174.661 296.287C177.431 298.237 180.871 300.677 187.361 300.677C191.071 300.677 194.181 299.887 197.151 298.197L197.451 298.027L198.801 286.287L197.631 286.957C196.561 287.567 195.621 288.237 194.791 288.817C192.481 290.457 190.951 291.537 187.351 291.537C183.761 291.537 182.231 290.457 179.901 288.807C177.131 286.857 173.681 284.417 167.201 284.417C160.731 284.417 157.281 286.847 154.491 288.807C152.171 290.447 150.641 291.527 147.051 291.527C143.461 291.527 141.921 290.447 139.611 288.807C138.691 288.157 137.691 287.457 136.531 286.807C138.261 291.417 140.261 295.897 142.531 300.217C143.861 300.497 145.351 300.667 147.051 300.667C153.541 300.667 156.981 298.237 159.771 296.277Z" fill="white"/>
<path d="M167.198 313.097C170.778 313.097 172.318 314.177 174.638 315.817C177.408 317.777 180.848 320.207 187.348 320.207C190.048 320.207 192.438 319.787 194.668 318.907L195.048 318.757L196.378 307.237L194.788 308.347C192.478 309.987 190.938 311.067 187.348 311.067C183.758 311.067 182.228 309.987 179.898 308.337C177.128 306.387 173.678 303.957 167.198 303.957C160.718 303.957 157.268 306.387 154.488 308.347C152.618 309.667 151.248 310.617 148.918 310.937C150.728 313.637 152.648 316.257 154.658 318.797C156.748 317.937 158.338 316.807 159.768 315.807C162.088 314.177 163.618 313.097 167.198 313.097Z" fill="white"/>
</g>
<defs>
<clipPath id="clip0_1024_34">
<rect width="492.06" height="492.06" fill="white" transform="translate(0.71875 0.0566406)"/>
</clipPath>
</defs>
</svg>
